<svg xmlns="http://www.w3.org/2000/svg" viewBox="0 0 28 28">
  <rect width="28" height="28" fill="#023466"/>
  <g>
    <polygon points="12.17 9.78 9.44 12.25 9.44 13.24 11.9 11.01 12.82 11.01 10.73 12.9 10.73 13.93 14.61 10.42 15.54 10.42 12.69 13 12.69 13.96 17.31 9.78 18.28 9.78 12.07 15.4 12.07 16.45 17.9 11.17 17.9 12.03 14.62 15 14.62 15.96 17.23 13.59 17.23 14.48 15.93 15.65 15.93 16.65 19.16 13.72 19.16 14.6 16.6 16.92 16.6 17.91 18.56 16.14 18.56 22.03 5.5 22.03 5.5 9.78 12.17 9.78" fill="#fff"/>
    <polygon points="15.99 9.24 15.99 8.23 17.9 6.5 17.9 7.51 15.99 9.24" fill="#fff"/>
    <polygon points="17.95 9.31 17.95 8.29 20.49 5.97 20.49 7.04 17.95 9.31" fill="#fff"/>
    <polygon points="19.23 9.91 19.23 8.97 22.5 6 22.5 7.12 19.23 9.91" fill="#fff"/>
    <polygon points="19.19 10.84 21.81 8.47 21.81 9.47 19.16 11.87 19.19 10.84" fill="#fff"/>
  </g>
</svg>