<svg xmlns="http://www.w3.org/2000/svg" version="1.1" viewBox="0 0 28 28">
  <g>
    <g>
      <rect width="28" height="28" fill="#0062e1"/>
      <g>
        <path d="M11,19.2c-2.7,0-5.2-1.3-6.4-3.6-.4-.9-.6-1.8-.6-2.8,0-1,.2-1.9.6-2.8.8-1.8,2.3-3.3,4.1-4.1l1.3-.6,1.3,2.7-1.3.7c-1.2.6-2.1,1.5-2.7,2.7-.5.9-.5,2,0,3,1,2,3.7,2.6,6.1,1.4l1.3-.7,1.3,2.7-1.3.7c-1.2.6-2.4.9-3.7.9" fill="#fff"/>
        <path d="M18.2,22.7l-1.4-2.6,1.3-.7c2.4-1.2,3.6-3.8,2.6-5.8-1-1.9-3.8-2.5-6.2-1.3l-1.3.7-1.4-2.6,1.3-.7c3.9-2,8.4-.8,10.1,2.5,1.7,3.4,0,7.8-3.8,9.7l-1.3.7s0,0,0,0Z" fill="#fff"/>
      </g>
    </g>
  </g>
</svg>