<svg xmlns="http://www.w3.org/2000/svg" viewBox="0 0 28 28">
  <rect width="28" height="28" style="fill: #0a0a0a;"/>
  <g>
    <path d="M23.79,8.47h-5.86c-.06,0-.09.03-.13.06l-2.56,2.53c-.06.06-.06.13-.03.18.03.06.09.13.15.13h4.54v7.98c0,.06.03.13.13.15h.06s.09-.03.13-.06l3.7-3.7s.06-.09.06-.13v-6.97c-.03-.12-.12-.18-.21-.18ZM23.6,8.8v2.16h-3.35v-2.16h3.35ZM15.8,11l2.19-2.16h1.88v2.16h-4.06ZM20.27,18.92v-7.58h3.35v4.23l-3.35,3.35Z" style="fill: #fff;"/>
    <path d="M4,19.51v-6.39h1.45v6.41h-1.45v-.03Z" style="fill: #fff;"/>
    <path d="M6.74,13.12h4.85v1.23h-3.39v1.3h3.2v1.23h-3.2v1.41h3.39v1.23h-4.85v-6.41Z" style="fill: #fff;"/>
    <path d="M12.62,19.51v-6.39h3.3c1.21,0,2.01.75,2.01,1.79,0,.55-.22.95-.59,1.23.49.28.84.77.84,1.52,0,1.11-.84,1.88-2.07,1.88h-3.48v-.03ZM15.84,15.61c.4,0,.64-.22.64-.64,0-.4-.22-.64-.64-.64h-1.72v1.3h1.72ZM15.95,18.27c.55,0,.75-.31.75-.75,0-.4-.22-.75-.75-.75h-1.88v1.45h1.88v.04Z" style="fill: #fff;"/>
  </g>
</svg>