<svg xmlns="http://www.w3.org/2000/svg" viewBox="0 0 28 28">
  <rect width="28" height="28" fill="#040404"/>
  <path d="M21.5,21.06c-.41,0-2.33-.06-3.08-.06s-3.2.06-3.6.06v-.29l.7-.12c.64-.12.93-.29.93-.7,0-.35-.23-.76-.7-1.51l-2.38-3.72-2.38,3.31c-.58.76-.81,1.4-.81,1.8s.23.7.93.81l.7.12v.29c-.41,0-2.09-.06-2.91-.06s-2.03.06-2.38.06v-.29l.35-.06c.99-.17,1.86-.99,2.62-1.92l3.49-4.59-3.49-5.06c-.81-1.16-1.4-1.74-2.21-1.86l-.47-.06v-.29c.41,0,2.33.06,3.08.06s3.2-.06,3.6-.06v.29l-.7.12c-.58.06-.93.29-.93.7,0,.35.23.76.7,1.51l2.09,3.2,2.03-2.85c.52-.76.81-1.4.81-1.74,0-.41-.29-.7-.93-.81l-.7-.12v-.29c.41,0,2.09.06,2.91.06s2.03-.06,2.38-.06v.29l-.35.06c-.99.17-1.86.93-2.62,1.92l-3.14,4.13,3.78,5.58c.81,1.16,1.4,1.74,2.21,1.86l.47.06v.23h0Z" fill="#fff"/>
</svg>