<svg xmlns="http://www.w3.org/2000/svg" viewBox="0 0 28 28">
  <rect width="28" height="28"/>
  <g>
    <path d="M5.52,11.62c.06-.25.28-.29.48-.34.56-.15,1.13-.29,1.7-.44,2.74-.71,5.47-1.43,8.21-2.14,1.97-.51,3.94-1.02,5.91-1.54.05-.01.11-.02.16-.03.03.11-.05.18-.11.24-.76.81-1.5,1.64-2.25,2.46-.69.75-1.37,1.5-2.05,2.25-.81.9-1.63,1.79-2.44,2.69-.67.73-1.33,1.47-1.99,2.2-.29.32-.59.65-.88.97-.05.05-.09.12-.18.1-.13-.01-.19-.12-.26-.2-.31-.36-.64-.69-.96-1.03-.77-.83-1.55-1.64-2.31-2.47-.2-.22-.41-.44-.62-.66-.58-.6-1.13-1.23-1.72-1.81-.11-.11-.22-.2-.35-.27-.05-.03-.11-.04-.17-.01-.05.02-.08.07-.14.05Z" fill="#00609b"/>
    <path d="M12.08,18.01c.18-.13.31-.31.46-.47.78-.85,1.56-1.71,2.33-2.57,1.14-1.25,2.28-2.51,3.42-3.77.59-.65,1.18-1.29,1.77-1.94.61-.67,1.22-1.33,1.82-2,.04-.04.06-.1.1-.15.17-.07.32-.03.44.1.12.12.09.27.04.42-.71,2.21-1.43,4.43-2.14,6.64-.85,2.64-1.7,5.29-2.55,7.93-.02.07-.05.14-.07.21-.18.57-.87.64-1.22.27-.41-.43-.82-.85-1.23-1.29-.75-.8-1.5-1.6-2.25-2.4-.3-.32-.61-.63-.91-.95-.02,0-.02-.01-.02-.02,0,0,.01-.01.02-.01Z" fill="#55c0e8"/>
    <path d="M12.08,18.01s0,.02,0,.04c-.8.88-1.59,1.76-2.39,2.64-.05.06-.12.11-.18.16-.46.32-.93.2-1.13-.32-.24-.64-.45-1.29-.66-1.95-.71-2.15-1.43-4.3-2.14-6.45-.06-.17-.11-.33-.05-.51.04-.03.08-.05.11-.08.07-.02.13-.03.2,0,.35.16.57.46.82.74.26.29.54.56.8.85.55.61,1.14,1.2,1.7,1.8.85.9,1.7,1.81,2.55,2.72.12.13.21.28.36.37Z" fill="#003a5d"/>
    <path d="M5.84,11.54c-.07,0-.13,0-.2,0,.07-.05.14-.06.2,0Z" fill="#326788"/>
  </g>
</svg>