<svg xmlns="http://www.w3.org/2000/svg" viewBox="0 0 18 18">
  <rect width="18" height="18" style="fill: #0a0a0a;"/>
  <g>
    <path id="path3325" d="M12.72,12.06l-.41,1.26s-.38-.1-1.16-.12c-.25,0-.5.03-.75.09l-.54.23c-.35.1-.69.2-.98.23-.5.04-.95.04-1.47,0l-.41-.14c-1.1-.11-1.75-.31-1.75-.31l.39-1.2.1-.52.59-1.82.27-.63.22-.68.09-.51.59-1.82.17-.32.45-1.39s.64.21,1.75.33l.47-.04c.52.04.97.04,1.47,0,.29-.03.63-.14.98-.25l.34-.1c.31-.09.55-.16.86-.15.78.03,1.25.05,1.25.05" style="fill: #fff;"/>
    <path id="path3325-2" data-name="path3325" d="M13.9,8.38l-.27.83s-.16.49-.16.49" style="fill: #fff;"/>
    <path id="path3327" d="M9.17,8.32c.52.04.96.04,1.47,0,.3-.03.63-.14.99-.24l.58-1.82c-.35.11-.69.22-.99.24-.5.05-.95.04-1.47,0l-.58,1.82" style="fill: #211e1f;"/>
    <path id="path3329" d="M8,11.95c.52.04.97.04,1.47,0,.29-.03.63-.14.99-.24l.58-1.81c-.35.11-.69.21-.98.24-.5.05-.95.04-1.47,0l-.59,1.82" style="fill: #211e1f;"/>
    <path id="path3331" d="M12.8,4.43l-.6,1.82c.43-.13.9-.27,1.32-.25.8.02,1.15.04,1.15.04l.59-1.82s-.43,0-1.24-.03c-.43-.02-.8.11-1.23.25" style="fill: #211e1f;"/>
    <path id="path3333" d="M5.74,11.59s.66.2,1.78.31c.17.02.32.03.48.04l-.58,1.81c-.15-.01-.31-.02-.48-.04-1.13-.11-1.78-.32-1.78-.32l.58-1.81" style="fill: #211e1f;"/>
    <path id="path3335" d="M9.75,6.5l.58-1.79c-.15-.01-.31-.03-.47-.04-1.13-.11-1.78-.33-1.78-.33l-.58,1.81s.66.21,1.78.31c.17.02.33.03.48.04" style="fill: #211e1f;"/>
    <path id="path3337" d="M6.32,9.78l.58-1.82s.66.21,1.78.31c.17.02.33.03.48.04l-.58,1.82c-.15-.01-.31-.02-.48-.04-1.12-.11-1.78-.32-1.78-.32" style="fill: #211e1f;"/>
    <path id="path3339" d="M12.9,11.51s-.35,0-1.14-.03c-.43-.01-.88.09-1.3.22l-.59,1.83c.43-.13.88-.24,1.31-.24.81.02,1.15.04,1.15.04l.58-1.81" style="fill: #211e1f;"/>
    <path id="path3341" d="M11.04,9.88l.59-1.82c.43-.13.87-.23,1.3-.22.8.02,1.15.06,1.15.06l-.57,1.79s-.35-.01-1.16-.04c-.43-.01-.88.09-1.3.22" style="fill: #211e1f;"/>
    <path id="path3375" d="M4.49,13.41l2.93-9.06h-1.26l-2.93,9.06h1.26" style="fill: #fc0;"/>
  </g>
</svg>