<svg xmlns="http://www.w3.org/2000/svg" viewBox="0 0 18 18">
    <g clip-path="url(#a)">
      <path fill="#0F1D40" d="M0 0h18v18H0V0Z"/>
      <path fill="#fff" d="M4.25 8.511A3.512 3.512 0 0 1 7.763 5h2.244c1.758 0 3.245 1.3 3.48 3.041l.13.953L14.25 13h-.5c-.5 0-.585-.532-.652-.94l-.112-.689A3.514 3.514 0 0 1 10.021 13H7.763A3.512 3.512 0 0 1 4.25 9.489v-.978Zm8.243-.336a2.509 2.509 0 0 0-2.486-2.172H7.763a2.51 2.51 0 0 0-2.51 2.508v.978a2.51 2.51 0 0 0 2.51 2.508h2.257a2.51 2.51 0 0 0 2.139-1.197c.358-.584.343-1.307.338-1.992l-.005-.633h.001Z"/>
    </g>
    <defs>
      <clipPath id="a">
        <path fill="#fff" d="M0 0h18v18H0z"/>
      </clipPath>
    </defs>
  </svg>
  