<svg xmlns="http://www.w3.org/2000/svg" viewBox="0 0 18 18">
  <g clip-path="url(#a)">
    <path fill="#BC042B" d="M0 0h18v18H0V0Z"/>
    <path fill="#fff" fill-rule="evenodd" d="M10.51 5.658v-1.11h2.324v8.901h-2.313v-1.107c-.64.714-1.48 1.158-2.414 1.158-1.99 0-3.607-2.023-3.607-4.504C4.5 6.51 6.108 4.5 8.099 4.5c.62 0 1.423.386 2.41 1.158Zm.118 3.385c0-1.363-.824-2.464-1.844-2.464-1.019 0-1.843 1.101-1.843 2.464 0 1.362.824 2.464 1.843 2.464 1.02 0 1.844-1.102 1.844-2.464Z" clip-rule="evenodd"/>
  </g>
  <defs>
    <clipPath id="a">
      <path fill="#fff" d="M0 0h18v18H0z"/>
    </clipPath>
  </defs>
</svg>
