<svg xmlns="http://www.w3.org/2000/svg" viewBox="0 0 18 18">
  <g clip-path="url(#a)">
    <path fill="#EB4C60" d="M0 0h18v18H0V0Z"/>
    <path fill="#fff" d="m13.565 10.777.051.123c.133.372.173.724.092 1.076a2.142 2.142 0 0 1-1.33 1.672 2.095 2.095 0 0 1-1.096.141 2.737 2.737 0 0 1-1.023-.342c-.41-.231-.819-.564-1.269-1.047-.45.483-.85.816-1.27 1.047a2.73 2.73 0 0 1-1.29.362c-.286 0-.562-.05-.828-.16a2.146 2.146 0 0 1-1.33-1.673 2.211 2.211 0 0 1 .122-1.087c.051-.13.103-.252.153-.362l.112-.242.124-.271.011-.02a115.31 115.31 0 0 1 2.261-4.552l.03-.061c.083-.151.165-.312.246-.473a3.45 3.45 0 0 1 .37-.553 1.725 1.725 0 0 1 1.31-.605c.501 0 .972.221 1.299.625.15.167.25.342.344.51l.025.043c.081.161.163.322.246.473l.03.061a104.224 104.224 0 0 1 2.262 4.552l.01.01.124.271.112.242c.034.073.067.156.102.24Zm-5.6-1.227c.123.544.482 1.188 1.035 1.873.552-.695.911-1.339 1.034-1.873.05-.201.06-.41.03-.615a.968.968 0 0 0-.163-.422C9.715 8.232 9.379 8.07 9 8.07a1.092 1.092 0 0 0-.9.443.968.968 0 0 0-.165.423c-.03.205-.019.414.031.615l-.001-.001Zm4.187 3.524c.503-.201.86-.654.932-1.178.037-.26.013-.526-.071-.775a1.97 1.97 0 0 0-.088-.216 5.032 5.032 0 0 1-.046-.107 7.415 7.415 0 0 1-.118-.251 5.735 5.735 0 0 0-.117-.252v-.01a132.7 132.7 0 0 0-2.242-4.53l-.03-.061-.123-.232-.123-.232a2.211 2.211 0 0 0-.287-.443 1.078 1.078 0 0 0-.819-.372 1.078 1.078 0 0 0-.818.372c-.113.136-.21.284-.287.443-.042.077-.083.155-.123.232-.04.079-.082.157-.123.232l-.03.06a109.354 109.354 0 0 0-2.253 4.521l-.01.02a20.74 20.74 0 0 0-.281.61 1.951 1.951 0 0 0-.087.216 1.639 1.639 0 0 0-.092.785 1.5 1.5 0 0 0 .931 1.178c.235.09.502.13.778.1.257-.03.512-.11.778-.26.369-.202.748-.515 1.167-.978-.665-.816-1.084-1.57-1.239-2.235a2.058 2.058 0 0 1-.051-.855c.041-.253.134-.484.277-.685.317-.443.85-.716 1.442-.716.595 0 1.127.263 1.444.716.143.2.235.432.276.685.031.261.021.543-.051.855-.153.665-.563 1.41-1.239 2.225.43.464.8.776 1.167.977.266.15.522.231.778.262.267.03.533 0 .778-.101Z"/>
  </g>
  <defs>
    <clipPath id="a">
      <path fill="#fff" d="M0 0h18v18H0z"/>
    </clipPath>
  </defs>
</svg>
