<svg xmlns="http://www.w3.org/2000/svg" viewBox="0 0 18 18" fill="#0a0a0a">
  <g clip-path="url(#a)">
    <path d="M0 0h18v18H0V0Z"/>
    <path fill="#4498D4" d="M12.671 5H4l-.002 1 8.578.004c.238 0 .424.202.424.44l.002 5.081c-.002.236-.19.475-.427.475H5.423C5.185 12 5 11.764 5 11.525V9.429C5 9.19 5.185 9 5.422 9H11V8H5.098C4.365 8 4 8.267 4 9v2.667C4 12.4 4.595 13 5.329 13h7.343c.734 0 1.328-.311 1.328-1.045V6.333C14 5.6 13.406 5 12.671 5Z"/>
  </g>
  <defs>
    <clipPath id="a">
      <path fill="#fff" d="M0 0h18v18H0z"/>
    </clipPath>
  </defs>
</svg>
