<svg xmlns="http://www.w3.org/2000/svg" viewBox="0 0 18 18">
  <rect x="0" y="0" width="18" height="18" style="fill: #ee2722;"/>
  <path d="M4.94,9.88h2.66v1.46h1.46c.86,0,2.05-.69,2.05-2.2,0-.82-.33-1.44-.74-1.85-.4-.4-.91-.63-1.3-.63h-2.95l-1.47,2.63-.18.32-.64,1.14-.18.32-.15.27h.63l.81-1.46ZM5.28,10.46h1.73v1.46h2.05c.82,0,1.85-.47,2.34-1.47v1.47h1.76v-1.46h.16c.29,0,.81-.01,1.28-.31.26-.16.48-.39.63-.66l-.48-.27.48.27c.18-.31.26-.68.26-1.08,0-.74-.3-1.29-.61-1.65-.53-.61-1.29-.7-1.77-.7h-1.72v1.7c-.15-.33-.36-.64-.62-.89-.48-.48-1.13-.81-1.72-.81h-3.29l-.17.3-2.61,4.68-.49.87h1.97l.17-.3.65-1.16h0ZM11.99,6.66v4.68h.59v-1.46h.74c.29,0,.66-.02.97-.22.18-.11.33-.27.44-.45.12-.21.19-.47.19-.8,0-.46-.16-.91-.47-1.26-.35-.41-.89-.49-1.32-.49h-1.13ZM5.61,8.71h1.4v-1.46h.59v2.05h-2.32l.34-.59ZM9.06,10.17c.34,0,.88-.28.88-1.02,0-.48-.19-.81-.4-1.03-.24-.24-.45-.29-.77-.29h-.59v-.59h.59c.41,0,.73.08,1.06.35.04.04.08.07.12.11.32.32.57.79.57,1.44,0,.55-.21.95-.49,1.21-.29.28-.67.4-.98.4h-.88v-.59h.88ZM13.12,7.24h-.55v.59h.59c.31,0,.4.09.4.09,0,0,.19.13.19.35s-.09.44-.43.44h-.74v.59h.74c.28,0,.5-.02.66-.13.11-.07.2-.17.26-.29.05-.11.09-.26.09-.46,0-.32-.11-.64-.33-.88-.18-.21-.49-.29-.88-.29Z" style="fill: #fff; fill-rule: evenodd;"/>
</svg>