<svg xmlns="http://www.w3.org/2000/svg" viewBox="0 0 18 18" fill="#0a0a0a">
  <g clip-path="url(#a)">
    <path d="M0 0h18v18H0V0Z"/>
    <path fill="#fff" d="M12.237 10.734c-.259-.327-.458-.56-.458-1.189V7.46c0-.88-.06-1.703-.708-2.306-.519-.478-1.373-.654-2.047-.654-1.425 0-2.698.58-3.01 2.137-.026.177.104.252.207.278l1.351.123c.13 0 .208-.125.234-.25.104-.529.572-.972 1.09-.972.285 0 .848.287.848.89v.754c-.83 0-1.757.056-2.483.357-.855.353-1.586 1.028-1.586 2.11 0 1.382 1.064 2.137 2.204 2.137.96 0 1.482-.25 2.232-.979.235.352.38.603.82.979.105.051.234.051.31-.024.26-.228.712-.703.996-.929.13-.102.104-.252 0-.377ZM9.744 8.775c0 .502-.098 1.756-1.368 1.756-.653 0-.666-.769-.666-.769 0-.988 1.049-1.317 2.034-1.317v.33Z"/>
    <path fill="#FFB300" d="M12.917 12.952C11.862 13.601 10.284 14 9.005 14a7.818 7.818 0 0 1-4.713-1.551c-.101-.084 0-.168.1-.126 1.432.685 3 1.036 4.587 1.026 1.154 0 2.609-.209 3.787-.628.174-.042.325.126.15.231Zm.376-.44c-.125-.147-.878-.063-1.204-.043-.101 0-.125-.062-.025-.125.576-.357 1.554-.252 1.655-.126.1.126-.026.943-.577 1.32-.076.064-.176.021-.126-.04.126-.253.402-.84.276-.987Z"/>
  </g>
  <defs>
    <clipPath id="a">
      <path fill="#fff" d="M0 0h18v18H0z"/>
    </clipPath>
  </defs>
</svg>
