<svg xmlns="http://www.w3.org/2000/svg" viewBox="0 0 18 18">
  <g clip-path="url(#a)">
    <path fill="#fafafa" d="M0 0h18v18H0V0Z"/>
    <g clip-path="url(#b)">
      <path fill="#253746" fill-rule="evenodd" d="M8.674 7.981c.195 0 .355.061.48.182s.187.268.187.44c0 .14-.043.258-.129.352a.74.74 0 0 1-.245.187l-.06.036c.173.117.317.242.434.374.102.11.22.27.352.482.133-.188.281-.47.445-.845a.64.64 0 0 0 .06-.188c0-.03-.032-.054-.095-.07l-.129-.024c-.023-.015-.033-.038-.029-.07.004-.031.018-.05.041-.059h.258c.304 0 .562-.011.773-.034.024.008.035.027.035.058a.145.145 0 0 1-.023.083l-.211.046a.555.555 0 0 0-.281.153c-.055.054-.13.16-.223.316a9.316 9.316 0 0 1-.48.763c-.024.038-.02.085.011.14.102.172.208.297.317.375a.684.684 0 0 0 .422.141.622.622 0 0 0 .375-.129c.023 0 .043.012.058.036.016.023.02.046.012.07-.11.117-.242.207-.399.27a1.192 1.192 0 0 1-.72.029.493.493 0 0 1-.229-.112 2.321 2.321 0 0 1-.222-.317 1.498 1.498 0 0 1-.458.359 1.158 1.158 0 0 1-.503.11c-.305 0-.543-.093-.715-.28a.845.845 0 0 1-.223-.587.89.89 0 0 1 .223-.598c.117-.133.281-.258.492-.375l-.023-.012c-.204-.18-.305-.373-.305-.58 0-.208.07-.38.21-.517a.713.713 0 0 1 .517-.205Zm5.964-1.15v.106c0 .36.004.634.012.822-.016.023-.045.036-.088.04a.21.21 0 0 1-.111-.017 1.213 1.213 0 0 0-.135-.434.452.452 0 0 0-.27-.193 1.92 1.92 0 0 0-.51-.053h-.304a.65.65 0 0 0-.188.017c-.03.012-.052.04-.064.082-.012.043-.017.12-.017.23v1.195c0 .079.008.126.023.141.015.016.058.023.129.023h.363c.196 0 .332-.004.41-.012.094-.007.16-.03.2-.07.039-.039.066-.105.082-.199l.046-.211a.135.135 0 0 1 .1-.035c.043 0 .072.011.087.035v.117c-.015.227-.022.401-.022.522s.004.287.011.499l.011.175c-.015.024-.044.036-.087.036a.135.135 0 0 1-.1-.036l-.046-.246a.35.35 0 0 0-.082-.187.299.299 0 0 0-.17-.077 2.853 2.853 0 0 0-.381-.017h-.422c-.063 0-.102.008-.117.023-.016.016-.027.055-.035.117v.927c0 .234.01.399.029.492.02.094.05.153.093.176.043.024.12.043.229.059l.258.023c.023.024.033.059.03.106-.005.047-.018.074-.042.082a34.445 34.445 0 0 0-1.781 0c-.024-.008-.035-.035-.035-.082s.008-.082.023-.106l.14-.012a.679.679 0 0 0 .223-.058c.047-.031.078-.096.094-.194a3.4 3.4 0 0 0 .024-.486V7.77c0-.227-.008-.39-.024-.487-.016-.098-.047-.163-.094-.194a.66.66 0 0 0-.223-.059l-.081-.01c-.024-.025-.033-.058-.03-.1.004-.044.018-.073.041-.09.235.017.49.025.763.025h1.171c.438 0 .726-.008.867-.024ZM4.9 6.75c.047 0 .082.016.105.047l.141.446.141.434.879 2.685c.054.156.097.264.129.323a.3.3 0 0 0 .123.128c.05.028.13.053.24.076l.094.024c.023.016.035.045.035.088s-.012.072-.035.088a24.999 24.999 0 0 0-1.43 0h-.118c-.03-.016-.046-.045-.046-.088s.008-.072.023-.088l.14-.024c.11-.015.173-.04.188-.076.016-.035.004-.123-.035-.264l-.293-.867c-.023-.079-.047-.128-.07-.147-.023-.02-.07-.03-.14-.03h-.856c-.078 0-.125.007-.14.018-.016.012-.036.057-.06.135l-.257.786a1.31 1.31 0 0 0-.077.282c-.003.054.009.09.036.105a.614.614 0 0 0 .17.047l.176.035c.023.016.033.047.029.094s-.018.074-.041.082a6.346 6.346 0 0 0-.446-.011h-.21c-.196 0-.4.003-.61.01-.023-.015-.035-.042-.035-.081 0-.04.012-.07.035-.094l.176-.035a.397.397 0 0 0 .205-.082.674.674 0 0 0 .134-.206c.048-.098.13-.31.247-.638l.902-2.428c.047-.125.078-.215.094-.27a.508.508 0 0 0 .024-.2c.109-.022.242-.112.398-.269L4.9 6.75Zm3.527 2.673c-.016 0-.05.02-.105.06a.742.742 0 0 0-.2.263.783.783 0 0 0-.082.346c0 .203.07.369.21.498.141.13.313.194.517.194a.802.802 0 0 0 .55-.223c.032-.031.047-.059.047-.082a.271.271 0 0 0-.034-.105 4.057 4.057 0 0 0-.388-.517 2.052 2.052 0 0 0-.327-.305c-.102-.086-.165-.129-.188-.129ZM4.571 7.782H4.56a3.48 3.48 0 0 0-.07.176l-.117.328-.257.75c-.032.087-.044.137-.036.153.008.015.043.027.106.035h.667c.086 0 .14-.01.159-.03.02-.019.017-.067-.006-.146l-.281-.833a4.186 4.186 0 0 0-.153-.433Zm4.078.375a.263.263 0 0 0-.21.1.394.394 0 0 0-.083.258c0 .105.026.197.077.275.05.078.13.157.24.235.04.031.063.047.07.047.008 0 .02-.008.035-.024h.012a.694.694 0 0 0 .152-.469.521.521 0 0 0-.082-.305.248.248 0 0 0-.21-.117Z" clip-rule="evenodd"/>
    </g>
  </g>
  <defs>
    <clipPath id="a">
      <path fill="#fff" d="M0 0h18v18H0z"/>
    </clipPath>
    <clipPath id="b">
      <path fill="#fff" d="M2.65 6.75h12v4.386h-12z"/>
    </clipPath>
  </defs>
</svg>
