<?xml version="1.0" encoding="UTF-8"?>
<svg id="Layer_1" xmlns="http://www.w3.org/2000/svg" viewBox="0 0 18 18">
  <rect x="0" y="0" width="18" height="18" style="fill: #be0201;"/>
  <path id="path1183" d="M9.51,2.11c-.38,0-.77.04-1.15.11-2.49.46-4.43,2.52-4.83,4.99-.05.31-.07.62-.07.92,0,1.26.42,2.48,1.13,3.53.07.1.14.21.21.31,0,0,.01.01.01.02,0,0,0,0,0,0,0,0,0,0,0,0,0,0,0,0,0,0,0,0,0,0,.01,0,0,0,.01,0,.04,0h0s.05-.01.05-.02c.01-.02.01-.03.02-.03,0-.01,0-.01,0-.01,0-.02,0-.02,0-.02,0-.01,0-.01,0-.01,0-.01-.02-.03-.04-.06-.02-.02-.03-.05-.03-.05-.64-.95-.95-2.06-.95-3.17,0-1.28.41-2.56,1.19-3.6,1.12-1.5,2.92-2.33,4.74-2.33.57,0,1.15.08,1.72.25,1.21.36,2.34,1.16,3.06,2.2,0,0,.02.03.04.06,0,.01.02.03.02.03,0,0,0,0,0,.01,0,0,0,0,0,0,0,0,0,0,0,0,0,0,0,0,0,0,0,0,0,0,.01,0,0,0,.01,0,.03,0,.03,0,.05-.01.06-.04,0-.02,0-.03,0-.05,0,0,0,0,0,0,0,0,0,0,0-.01,0,0,0,0,0,0,0,0,0-.01-.02-.03-.07-.1-.14-.21-.21-.31-.68-.98-1.57-1.76-2.68-2.25-.75-.33-1.57-.49-2.39-.49h0ZM10.92,4.82c-.32,0-.64.03-.95.09-1.32.25-2.42,1.03-3.2,2.1-.06.08-.12.17-.18.25,0,0,0,.01-.01.02,0,0,0,0,0,0,0,0,0,0,0,0,0,0,0,0,0,0,0,0,0,0,0,0,0,0,0,0,0,0,0,.01,0,.02,0,.03,0,.02.03.04.05.04.02,0,.02,0,.03,0,.01,0,.01,0,.01-.01,0,0,0,0,0,0h0s0-.01.02-.02c.02-.02.05-.07.05-.07.92-1.26,2.44-1.96,3.98-1.96.48,0,.95.07,1.41.2,1.98.58,3.37,2.4,3.49,4.43,0,.09,0,.18,0,.28,0,.96-.3,1.95-.86,2.73,0,0-.02.03-.03.05,0,.01-.01.02-.02.03,0,0,0,0,0,.01,0,0,0,0,0,0,0,0,0,0,0,0,0,0,0,0,0,0,0,0,0,0,0,0,0,0,0,0,0,0,0,0,0,0,0,0,0,.01,0,.02,0,.03,0,.02.01.02.01.02.01.01.03.02.04.02,0,0,0,0,.01,0,0,0,0,0,0,0h0s0,0,0,0c0,0,0,0,0,0,0,0,0,0,0,0,0,0,0,0,0,0h0s0,0,0,0h0s0,0,0,0h0s0,0,0,0h0s0,0,.01-.02c.06-.08.12-.17.18-.25h0s0,0,0,0c.58-.81.94-1.73,1-2.73,0-.09,0-.19,0-.28,0-.91-.26-1.8-.73-2.58-.91-1.53-2.61-2.42-4.36-2.42h0ZM2.58,6.95s-.04.02-.05.02c-.01.01-.01.01-.01.02,0,0,0,0,0,.01,0,0,0,.01-.01.03-.04.12-.09.25-.13.37-.24.72-.37,1.46-.37,2.2,0,.49.06.98.17,1.47.3,1.23.98,2.35,1.92,3.21,1.18,1.08,2.72,1.62,4.26,1.62,1.03,0,2.06-.24,3-.73,1.5-.78,2.54-2.13,3.09-3.7.04-.12.08-.25.12-.37,0-.01,0-.02,0-.02,0,0,0,0,0,0,0,0,0,0,0,0,0,0,0,0,0-.02,0-.01,0-.02,0-.03,0,0,0-.01-.01-.02,0,0-.02-.02-.05-.02-.03,0-.04.01-.05.02-.01.01-.01.01-.02.02,0,0,0,0,0,.01,0,.02-.04.12-.05.13-.84,2.44-3.29,4.07-5.85,4.08h-.03c-2.59,0-4.92-1.69-5.81-4.09-.25-.67-.38-1.4-.38-2.12,0-.62.1-1.25.29-1.83,0,0,.01-.04.02-.07,0-.02,0-.03.01-.04,0,0,0-.01,0-.02,0,0,0,0,0,0,0,0,0,0,0,0,0,0,0,0,0-.02,0,0,0-.02,0-.03,0,0,0-.02-.02-.03-.01,0-.03-.02-.05-.02h0ZM7.96,7.52c-.4,0-.97.65-1.34,2.1-.31,1.23-.36,2.1-.37,2.66h.71v-.05c0-.38.02-1.53.23-2.46.13-.58.26-1.03.38-1.34.14-.36.27-.53.41-.53.1,0,.22.08.39.71.1.35.19.82.23,1.18.07.6.13,1.89.15,2.21h.75c.02-.32.08-1.62.15-2.21.04-.36.13-.83.23-1.18.17-.63.29-.71.39-.71.14,0,.26.16.4.53.12.31.25.76.38,1.34.21.93.23,2.08.23,2.46v.05h.71c0-.56-.05-1.44-.37-2.66-.37-1.45-.94-2.1-1.34-2.1-.3,0-.57.24-.81.72-.07.15-.27.69-.28.7l-.07.2-.07-.2s-.2-.55-.28-.7c-.24-.49-.51-.72-.81-.72Z" style="fill: #f5bf44;"/>
</svg>