<svg xmlns="http://www.w3.org/2000/svg" viewBox="0 0 18 18" fill="#0a0a0a">
  <g clip-path="url(#a)">
    <path d="M0 0h18v18H0V0Z"/>
    <path fill="#fff" fill-rule="evenodd" d="m8.345 2.5-5.18 9.437A6.51 6.51 0 0 1 2.465 9c0-3.382 2.583-6.171 5.88-6.5Zm1.83 1.442a3.97 3.97 0 0 1 .35 1.646 4.03 4.03 0 0 1-1.293 2.947V2.64c.4.365.72.807.943 1.301Zm2.29-.48a6.543 6.543 0 0 1 2.07 2.072l-4.246 2.45a4.489 4.489 0 0 0 .366-4.1A4.43 4.43 0 0 0 9.76 2.51a6.55 6.55 0 0 1 2.705.954ZM16 9c0-3.86-3.14-7-7-7S2 5.14 2 9s3.14 7 7 7 7-3.14 7-7ZM8.767 2.697v6.167L3.81 11.726l4.957-9.029Zm0 6.704v6.127a6.534 6.534 0 0 1-5.305-3.065l5.305-3.062ZM15.534 9a6.522 6.522 0 0 1-.765 3.064L9.463 9l5.306-3.065c.502.943.765 1.996.765 3.065Zm-6.302.402 5.304 3.064a6.535 6.535 0 0 1-5.304 3.062V9.402Z" clip-rule="evenodd"/>
  </g>
  <defs>
    <clipPath id="a">
      <path fill="#fff" d="M0 0h18v18H0z"/>
    </clipPath>
  </defs>
</svg>
