<svg xmlns="http://www.w3.org/2000/svg" viewBox="0 0 18 18">
  <g clip-path="url(#a)">
    <path fill="#CC092F" d="M0 0h18v18H0V0Z"/>
    <path fill="#fff" fill-rule="evenodd" d="M14.5 9a5.5 5.5 0 1 1-11 0 5.5 5.5 0 0 1 11 0Zm-2.436 1.669c.577-.35 1.153-.434 1.782-.184.136.055.27.115.397.177a5.512 5.512 0 0 1-.322.794 2.805 2.805 0 0 0-.434-.18 1.066 1.066 0 0 0-.648.004c-.188.063-.357.17-.524.275l-.052.033c-.347.218-.74.465-1.24.465-.74 0-1.26-.442-1.426-1.213C9.47 10.242 9 7.988 9 7.988c-.184.92-.469 2.254-.598 2.852-.166.77-.685 1.213-1.426 1.213-.5 0-.892-.247-1.238-.465-.018-.01-.035-.022-.052-.033-.167-.105-.337-.212-.524-.275a1.066 1.066 0 0 0-.649-.005 2.798 2.798 0 0 0-.434.18 5.55 5.55 0 0 1-.322-.793 6.28 6.28 0 0 1 .397-.177c.629-.25 1.205-.166 1.782.184l.274.168.004.002c.267.168.52.326.762.326.233 0 .462-.062.559-.512.15-.702.52-2.428.68-3.283.095-.502.147-.773.2-.957.095-.321.267-.497.511-.526 0 0 .043-.006.074-.006s.07.005.07.005c.246.028.42.204.515.527.053.184.105.455.2.957.16.855.53 2.58.68 3.283.097.45.326.512.559.512.243 0 .495-.158.763-.326l.003-.002.274-.168Z" clip-rule="evenodd"/>
  </g>
  <defs>
    <clipPath id="a">
      <path fill="#fff" d="M0 0h18v18H0z"/>
    </clipPath>
  </defs>
</svg>
