<?xml version="1.0" encoding="UTF-8"?>
<svg id="Layer_1" xmlns="http://www.w3.org/2000/svg" viewBox="0 0 18 18">
  <rect x="0" y="0" width="18" height="18" style="fill: #fafafa;"/>
  <path id="path1" d="M9.59,10.42l-.59-1.09-.61,1.09M5.68,12.88h5.34c-.13-.09-.3-.45-.3-.45h-5c-.51-.03-.58-.81.07-.79h4.49s-.26-.46-.26-.46h-4.38c-1.08.05-1.11,1.62.03,1.71ZM13.1,11.6l-2.71-4.89c0,.22-.21.54-.21.54l2.52,4.54c.22.47-.43.91-.73.33l-2.22-4.04-.27.48,2.16,3.91c.56.92,1.95.19,1.47-.85ZM8.29,5.55l-2.74,4.94c.19-.1.54-.07.54-.07l2.58-4.63c.28-.43,1-.11.66.45l-2.33,4.16h.53l2.27-4.06c.49-.96-.86-1.76-1.5-.81ZM13.84,11.44c.52,1.07-.33,2.21-1.24,2.22h-7.09s-.03,0-.03,0c-1.21,0-1.77-1.35-1.34-2.16l3.62-6.5c.6-.92,1.98-.86,2.54.01l3.43,6.21.11.21Z" style="fill: #e12a27;"/>
</svg>