<svg xmlns="http://www.w3.org/2000/svg" viewBox="0 0 18 18">
  <g clip-path="url(#a)">
    <path fill="#016FD0" d="M0 0h18v18H0V0Z"/>
    <path fill="#fff" d="M3.486 12.513v-2.82H6.47l.32.418.331-.417h10.834v2.624s-.283.192-.61.195h-6l-.36-.445v.445H9.8v-.759s-.162.106-.51.106h-.404v.653h-1.79l-.32-.427-.324.427H3.486ZM0 7.57.673 6h1.164l.382.879V6h1.447l.227.635.22-.635h6.496v.32s.342-.32.903-.32l2.107.007.376.868V6h1.21l.334.498V6h1.222v2.819H15.54l-.32-.5v.5h-1.778l-.18-.444h-.478l-.176.444h-1.206c-.483 0-.792-.313-.792-.313v.313H8.79l-.36-.444v.444H1.664l-.18-.444H1.01l-.177.444H0v-1.25Z"/>
    <path fill="#016FD0" d="m.911 6.348-.908 2.11h.592l.167-.422h.974l.166.422h.605L1.6 6.348H.91Zm.336.49.297.74H.949l.298-.74Zm1.322 1.62v-2.11l.84.002.488 1.361.477-1.364h.833v2.11H4.68V6.904l-.56 1.555h-.462l-.561-1.555v1.555h-.528Zm3 0v-2.11H7.29v.471H6.102v.361h1.16v.445h-1.16V8H7.29v.458H5.57Zm2.027-2.11v2.11h.528v-.75h.222l.633.75h.644l-.694-.777a.643.643 0 0 0 .579-.649c0-.444-.349-.684-.738-.684H7.596Zm.528.472h.603c.145 0 .25.113.25.222 0 .14-.137.222-.242.222h-.611V6.82Zm2.138 1.638h-.539v-2.11h.54v2.11Zm1.278 0h-.117c-.562 0-.904-.443-.904-1.047 0-.618.338-1.064 1.049-1.064h.583v.5h-.605c-.288 0-.492.225-.492.57 0 .408.233.58.569.58h.139l-.222.46Zm1.148-2.11-.908 2.11h.591l.168-.422h.973l.167.422h.604l-.907-2.11h-.688Zm.336.49.297.74h-.595l.298-.74Zm1.321 1.62v-2.11h.67l.857 1.325V6.347h.528v2.11h-.65l-.877-1.36v1.36h-.528ZM3.847 12.152V10.04h1.722v.472h-1.19v.361h1.162v.445H4.38v.374h1.189v.459H3.847Zm8.437 0V10.04h1.722v.472h-1.189v.361h1.156v.445h-1.156v.374h1.189v.459h-1.722Zm-6.649 0 .839-1.043-.859-1.068h.665l.511.66.513-.66h.64l-.848 1.055.84 1.056h-.665l-.496-.65-.484.65h-.656Zm2.364-2.111v2.111h.541v-.666h.556c.47 0 .826-.25.826-.735 0-.401-.28-.71-.758-.71H8Zm.541.478h.585c.152 0 .26.093.26.243 0 .14-.107.243-.262.243H8.54v-.486Zm1.611-.478v2.11h.528v-.75h.222l.633.75h.644l-.694-.777a.643.643 0 0 0 .58-.648c0-.444-.35-.685-.739-.685h-1.174Zm.528.472h.603c.145 0 .25.113.25.222 0 .14-.136.223-.242.223h-.611v-.445Zm3.571 1.639v-.458h1.056c.157 0 .224-.085.224-.178 0-.088-.067-.178-.223-.178h-.478c-.415 0-.646-.253-.646-.632 0-.339.212-.665.828-.665h1.028l-.222.475h-.889c-.17 0-.222.09-.222.174 0 .088.065.184.194.184h.5c.463 0 .663.262.663.606 0 .37-.223.672-.688.672H14.25Zm1.937 0v-.458h1.056c.157 0 .224-.085.224-.178 0-.088-.067-.178-.224-.178h-.477c-.415 0-.646-.253-.646-.632 0-.339.212-.665.828-.665h1.028l-.223.475h-.888c-.17 0-.222.09-.222.174 0 .088.064.184.194.184h.5c.462 0 .663.262.663.606 0 .37-.224.672-.688.672h-1.125Z"/>
  </g>
  <defs>
    <clipPath id="a">
      <path fill="#fff" d="M0 0h18v18H0z"/>
    </clipPath>
  </defs>
</svg>
