<svg xmlns="http://www.w3.org/2000/svg" viewBox="0 0 18 18">
  <g clip-path="url(#a)">
    <path fill="#1B1B1B" d="M0 0h18v18H0V0Z"/>
    <path fill="#EFAB00" fill-rule="evenodd" d="m12.966 9.228.004.061c0 .02 0 .042-.002.063-.002.021-.003.043-.008.064-.01.046-.017.093-.034.136a4.04 4.04 0 0 1-.146.313c-.016.031-.037.06-.057.088a1.1 1.1 0 0 1-.07.091c-.056.064-.11.128-.172.186a6.752 6.752 0 0 1-.897.726c-.398.278-.803.545-1.204.818l.66.39c.159.094.315.19.472.285a1.139 1.139 0 0 1 .133.094 1.083 1.083 0 0 1 .1.107.458.458 0 0 1 .049.088.317.317 0 0 1 .02.098.279.279 0 0 1-.055.161.389.389 0 0 1-.05.056 1.071 1.071 0 0 1-.152.11c-.032.018-.064.037-.097.051-.15.065-.304.124-.455.186-.193.079-.397.125-.598.178a21.547 21.547 0 0 1-1.592.348 8.499 8.499 0 0 1-.637.072.866.866 0 0 1-.184-.007 4.59 4.59 0 0 1-.372-.069c-.034-.008-.067-.022-.1-.035a1.016 1.016 0 0 1-.182-.1.653.653 0 0 1-.144-.147.582.582 0 0 1-.079-.202.546.546 0 0 1-.006-.06c-.002-.021 0-.043-.001-.064 0-.009-.002-.017-.001-.025.001-.024.002-.048.006-.071a1.247 1.247 0 0 1 .087-.273 2.326 2.326 0 0 1 .272-.428 4.002 4.002 0 0 1 .563-.562c.3-.239.61-.462.917-.694l-.88-.495c-.392-.22-.789-.432-1.185-.644-.395-.21-.792-.414-1.189-.621l-.047-.025c-.002 0-.004-.002-.005-.003l.003.002.03.017-.086-.046a4.438 4.438 0 0 1-.192-.117 1.17 1.17 0 0 1-.233-.206.394.394 0 0 1-.051-.09.175.175 0 0 1-.01-.044.532.532 0 0 1 .02-.188 1.105 1.105 0 0 1 .073-.202c.063-.126.127-.251.196-.374.04-.07.082-.14.128-.206.183-.266.361-.536.56-.792.445-.575.907-1.139 1.37-1.7a6.31 6.31 0 0 1 .37-.41c.242-.245.488-.486.74-.722.06-.058.13-.107.196-.157a1.811 1.811 0 0 1 .236-.148.895.895 0 0 1 .326-.088 1.079 1.079 0 0 1 .157.003.573.573 0 0 1 .41.25.963.963 0 0 1 .095.15 1.459 1.459 0 0 1 .083.201c.014.04.028.08.037.121.04.18.084.36.113.542.036.234.065.47.083.705.026.339.04.678.05 1.018.007.229 0 .458 0 .687l1.204.418c.178.062.346.152.519.229.143.063.276.148.41.23.06.037.116.083.172.127a.73.73 0 0 1 .125.13 1.008 1.008 0 0 1 .138.238.979.979 0 0 1 .036.118c.005.02.008.04.01.06ZM8.03 6.525c-.17.177-.337.356-.505.534l.06.002.184.014.758.125.814.187-.068-.73c-.013-.137-.024-.275-.04-.412a7.496 7.496 0 0 0-.042-.316 1.438 1.438 0 0 0-.026-.128.729.729 0 0 0-.028-.087c-.003-.01-.01-.02-.016-.03a.186.186 0 0 0-.036-.04.118.118 0 0 0-.037-.021.064.064 0 0 0-.02-.004h-.037a.196.196 0 0 0-.034.012.203.203 0 0 0-.03.015l-.04.028a.967.967 0 0 0-.048.04c-.044.038-.09.076-.132.117-.228.23-.452.462-.677.694Zm3.41 2.965a.07.07 0 0 0 .003-.023v-.022a.242.242 0 0 0-.012-.043.239.239 0 0 0-.051-.077.868.868 0 0 0-.116-.096c-.153-.09-.304-.186-.461-.268-.162-.084-.33-.154-.495-.23l-.073.695c-.012.12-.044.238-.072.355a3.394 3.394 0 0 1-.076.257 1.126 1.126 0 0 1-.154.3.475.475 0 0 1-.117.111.412.412 0 0 1-.19.077.458.458 0 0 1-.126.004.621.621 0 0 1-.15-.03.841.841 0 0 1-.152-.068c-.052-.031-.105-.062-.152-.1a3.185 3.185 0 0 1-.274-.242 4.109 4.109 0 0 1-.273-.313 6.908 6.908 0 0 1-.285-.383c-.193-.28-.386-.56-.566-.847-.157-.25-.295-.512-.443-.768l-.004-.01-.068-.162-.027-.092-.558.57c-.207.212-.416.42-.622.633a.762.762 0 0 0-.143.202.195.195 0 0 0-.01.041.129.129 0 0 0 0 .039.193.193 0 0 0 .047.095.712.712 0 0 0 .04.038c.006.006.013.01.02.015.019.015.038.032.058.046.065.046.128.094.195.135.358.22.72.431 1.08.646l1.595.912.374.215.88-.566c.152-.098.305-.193.454-.294.215-.148.426-.302.639-.453.062-.044.117-.097.173-.148a.866.866 0 0 0 .073-.078.207.207 0 0 0 .04-.073Zm-1.032 2.64-.288-.182-.759.514c-.179.122-.347.26-.521.388l-.084.075-.02.02.042-.002 1.34-.105c.343-.027.686-.05 1.03-.076a.135.135 0 0 0 .031-.007.031.031 0 0 0 .008-.005.014.014 0 0 0 .005-.007.036.036 0 0 0 .002-.012c0-.001 0-.003-.002-.005a.791.791 0 0 0-.052-.066.878.878 0 0 0-.074-.071 3.036 3.036 0 0 0-.181-.144 5.937 5.937 0 0 0-.267-.18l-.21-.135ZM7.52 7.541l-.003.013v.034l.008.047.013.05.056.164.261.518c.058.114.129.221.198.328.115.18.237.356.356.533.086.129.188.247.287.367.054.066.112.13.17.193a1.27 1.27 0 0 0 .251.203.737.737 0 0 0 .115.048.266.266 0 0 0 .036.007.245.245 0 0 0 .094-.01.174.174 0 0 0 .042-.022.104.104 0 0 0 .017-.015.211.211 0 0 0 .025-.035.334.334 0 0 0 .03-.129c.001-.026.004-.053.003-.08-.005-.209-.01-.418-.02-.628-.015-.268-.037-.535-.055-.803l-.03-.013-.339-.145-.514-.219-.775-.331-.1-.045-.074-.028-.028-.008-.01-.002h-.006l-.005.003-.003.005Z" clip-rule="evenodd"/>
  </g>
  <defs>
    <clipPath id="a">
      <path fill="#fff" d="M0 0h18v18H0z"/>
    </clipPath>
  </defs>
</svg>
