<svg xmlns="http://www.w3.org/2000/svg" viewBox="0 0 18 18" fill="#fafafa">
  <g clip-path="url(#a)">
    <path fill="#fafafa" d="M0 0h18v18H0V0Z"/>
    <path fill="#0A2065" d="m7.391 7.485 1.224.537c-1.314.534-2.538 1.113-3.716 1.827l-1.223-.58a21.85 21.85 0 0 1 3.715-1.784Zm-1.54-.579c-1.346.392-2.64.946-3.851 1.65l1.132.446a26.175 26.175 0 0 1 3.762-1.739l-1.043-.357Z"/>
    <path fill="#D0343E" d="M10.202 7.4a25.88 25.88 0 0 0-3.264-1.25l-1.178.357c1.178.356 2.31.759 3.399 1.293l1.043-.401Zm1.72-.49c-1.087-.49-2.22-.847-3.353-1.16l-1.087.268c1.132.312 2.266.758 3.308 1.249l1.131-.357h.001Zm2.81.935a29.955 29.955 0 0 0-7.567 3.79L8.84 12.75c2.175-1.694 4.576-3.076 7.159-4.19l-1.268-.715Zm-1.903-.891a27.153 27.153 0 0 0-7.884 3.477l1.586.848c2.356-1.605 4.938-2.81 7.701-3.657l-1.403-.668Z"/>
  </g>
  <defs>
    <clipPath id="a">
      <path fill="#fafafa" d="M0 0h18v18H0z"/>
    </clipPath>
  </defs>
</svg>
