<svg xmlns="http://www.w3.org/2000/svg" viewBox="0 0 18 18">
  <g clip-path="url(#a)">
    <path fill="#264296" d="M0 0h18v18H0V0Z"/>
    <path fill="#fff" d="M8.098 13.093c-1.052 1.51-2.613 2.066-3.154 1.51-.466-.477-.394-1.73.398-3.308a3.925 3.925 0 0 1 4.814-6.074c.81-.706 1.577-1.27 2.147-1.62-.179.184-.395.396-.637.635-.352.348-.759.747-1.184 1.189a3.92 3.92 0 0 1 1.08 5.312c2.074.626 5.438.845 5.438.845l-6.409.207a3.907 3.907 0 0 1-2.353.783 3.907 3.907 0 0 1-2.246-.707c-.574 1.461-.308 2.019.213 2.091.579.081 1.473-.431 1.893-.863Zm-2-1.484a3.639 3.639 0 0 0 2.14.692 3.64 3.64 0 0 0 1.985-.585L8.8 9.209s.942.808 2.103 1.295c.122.051.253.1.392.148a3.651 3.651 0 0 0-1.001-5.029A23.6 23.6 0 0 0 8.519 7.7l-.073.097c-.97 1.296-1.558 2.083-2.24 3.571-.038.08-.074.161-.109.242Zm-.623-.57c.095-.174.199-.354.31-.535.803-1.299 1.295-2.067 2.313-3.236a21.147 21.147 0 0 1 1.843-1.857 3.656 3.656 0 0 0-4.466 5.629Z"/>
  </g>
  <defs>
    <clipPath id="a">
      <path fill="#fff" d="M0 0h18v18H0z"/>
    </clipPath>
  </defs>
</svg>
