<svg xmlns="http://www.w3.org/2000/svg" viewBox="0 0 18 18">
  <g clip-path="url(#a)">
    <path fill="#FF5A00" d="M0 0h18v18H0V0Z"/>
    <path fill="#fff" d="M11.18 4.658h.56c.789.045 1.625.191 2.253.707.5.406.713 1.1.59 1.725-.094.466-.309.896-.54 1.307-.47.813-1.047 1.556-1.596 2.315-.098.126-.175.28-.165.443.009.13.108.235.224.282.226.091.476.073.713.06.75-.079 1.473-.306 2.188-.534.054-.034.072.021.093.06-.76.508-1.577.93-2.437 1.241-.476.16-.978.31-1.485.251-.266-.026-.533-.185-.617-.45a1.52 1.52 0 0 1 .085-1.055c.227-.51.58-.948.915-1.39.554-.728 1.127-1.452 1.563-2.26.144-.287.298-.635.155-.952-.135-.291-.428-.463-.708-.593-.498-.223-1.028-.357-1.552-.505a22.41 22.41 0 0 0-.235.157c.182.139.364.278.544.419-.689.124-1.375.263-2.053.436-1.033.256-2.04.599-3.04.963.098.194.195.39.288.586-.226.25-.45.502-.676.751a3.363 3.363 0 0 0 1.68.062 2.863 2.863 0 0 0 1.28-.655 1.343 1.343 0 0 0-.357-.302c.439.01.838.392.839.836l-.256.001a1.734 1.734 0 0 0-.078-.281 3.238 3.238 0 0 1-1.81.805 3.766 3.766 0 0 1-1.742-.22c.038.342.075.683.11 1.025-.315.122-.606.3-.868.513-.207.18-.413.389-.492.66-.076.239.048.51.257.638.253.157.55.23.842.272.386.05.776.047 1.164.02.762-.057 1.514-.2 2.255-.38.073-.03.108.093.033.111a8.843 8.843 0 0 1-1.855.726 8.616 8.616 0 0 1-1.855.258c-.637-.02-1.314-.143-1.82-.56-.375-.304-.572-.787-.574-1.266v-.026c.012-.505.184-.995.43-1.433a8.098 8.098 0 0 1 1.195-1.714c.816-.899 1.84-1.594 2.94-2.097 1.14-.517 2.36-.888 3.615-.957Z"/>
  </g>
  <defs>
    <clipPath id="a">
      <path fill="#fff" d="M0 0h18v18H0z"/>
    </clipPath>
  </defs>
</svg>
