<svg xmlns="http://www.w3.org/2000/svg" viewBox="0 0 18 18">
  <g clip-path="url(#a)">
    <path fill="#fafafa" d="M0 0h18v18H0V0Z" />
    <path
      fill="#10384F"
      d="M8.607 4.432h.752a.153.153 0 0 0 .154-.154.153.153 0 0 0-.154-.154h-.752v.308Zm0 .719h.77c.102 0 .17-.069.17-.171 0-.103-.068-.171-.17-.171h-.77v.342Zm1.214-.548c.103.103.171.24.171.394a.54.54 0 0 1-.547.547H8.196V3.748h1.232c.29 0 .53.24.53.53a.695.695 0 0 1-.137.325Zm.29 3.08H9.65l-.137-.309h-1.01l-.136.308h-.462l.89-1.796h.41l.907 1.796ZM9 6.347l-.308.65h.616L9 6.348Zm.616 1.728h.513l-.907 1.163v.633h-.427v-.633l-.907-1.163h.513l.616.82.599-.82Zm2.377 0v.393h-1.197v.308h1.163v.393h-1.163v.343h1.197v.393h-1.625v-1.83h1.625Zm1.317 1.112h-.325v.684h-.427V8.076h1.095c.307 0 .547.256.547.564a.554.554 0 0 1-.393.53l.53.702h-.513l-.514-.684Zm.308-.736h-.615v.342h.615a.171.171 0 0 0 .171-.171.184.184 0 0 0-.17-.171Zm-5.542 1.42h-.462l-.136-.308h-1.01l-.136.308H5.87l.906-1.796h.41l.89 1.796ZM6.964 8.538l-.307.65h.632l-.325-.65Zm-2.72.222h.753a.153.153 0 0 0 .154-.154.153.153 0 0 0-.154-.154h-.752v.308Zm0 .718h.77c.103 0 .172-.068.172-.17 0-.103-.069-.172-.172-.172h-.77v.342Zm1.215-.547c.103.103.171.24.171.393a.54.54 0 0 1-.547.548H3.817V8.076H5.05c.29 0 .53.24.53.53a.54.54 0 0 1-.12.325Zm4.362 1.317v.394H8.624v.307h1.163v.394H8.624v.342H9.82v.393H8.196v-1.83h1.625Zm-.308 2.788c0-.102-.068-.17-.17-.17h-.736v.341h.735c.103 0 .171-.068.171-.17ZM8.18 14.285v-1.796h1.197c.308 0 .548.256.548.564 0 .24-.137.428-.342.513l.547.719h-.513l-.513-.684h-.496v.684H8.18Z"
    />
    <path
      fill="#89D329"
      d="M15.483 8.59A6.498 6.498 0 0 0 9 2.5a6.498 6.498 0 0 0-6.483 6.09 6.371 6.371 0 0 0 1.249 3.455A6.47 6.47 0 0 0 9 14.696a5.698 5.698 0 0 1-5.679-5.285c-.017-.137-.017-.274-.017-.411 0-.137 0-.274.017-.41A5.698 5.698 0 0 1 9 3.303a6.47 6.47 0 0 1 5.234 2.651A6.372 6.372 0 0 1 15.45 9c.017.137.034.274.034.393 0-.136.017-.273.017-.41 0-.12 0-.257-.017-.394Z"
    />
    <path
      fill="#00BCFF"
      d="M2.517 9.41A6.498 6.498 0 0 0 9 15.5a6.498 6.498 0 0 0 6.483-6.09c0-.137-.017-.273-.034-.41a6.372 6.372 0 0 0-1.215-3.045A6.47 6.47 0 0 0 9 3.304a5.698 5.698 0 0 1 5.679 5.285c.017.137.017.274.017.41 0 .138 0 .274-.017.411A5.685 5.685 0 0 1 9 14.696a6.47 6.47 0 0 1-5.234-2.652 6.372 6.372 0 0 1-1.249-3.438c0 .137-.017.274-.017.41 0 .12 0 .257.017.394Z"
    />
  </g>
  <defs>
    <clipPath id="a">
      <path fill="#fff" d="M0 0h18v18H0z" />
    </clipPath>
  </defs>
</svg>
