<svg xmlns="http://www.w3.org/2000/svg" viewBox="0 0 18 18">
  <g clip-path="url(#a)">
    <path d="M0 0h18v18H0V0Z"/>
    <path fill="#F6F8FD" d="M12.978 9H11.55l.313-1.858h1.476c.864 0 1.161.527 1.161.879 0 .496-.335.979-1.521.979h-.001Zm1.049 1.73c0 .496-.325 1.058-1.445 1.058h-1.521l.328-1.859h1.481c.87 0 1.157.452 1.157.801ZM9.598 7.142H8.091l.328-1.859h1.532c.757 0 1.092.443 1.092.795 0 .496-.314 1.064-1.445 1.064Zm.776 1.682c0 .367-.327 1.105-1.3 1.105H7.405l.328-1.858h1.692c.66 0 .948.514.948.753Zm-.644 2.797c0 .497-.345 1.096-1.217 1.096H6.78l.328-1.859h1.756c.564 0 .867.412.867.762v.001Zm-4.189-4.48H4.156l.328-1.858h1.41c.88 0 1.213.443 1.213.795 0 .496-.38 1.064-1.566 1.064Zm.911 1.683c0 .497-.34 1.105-1.435 1.105H3.5l.328-1.858h1.54c.754 0 1.082.403 1.082.753h.002Z"/>
  </g>
  <defs>
    <clipPath id="a">
      <path fill="#fff" d="M0 0h18v18H0z"/>
    </clipPath>
  </defs>
</svg>
