<?xml version="1.0" encoding="UTF-8"?>
<svg id="Layer_1" xmlns="http://www.w3.org/2000/svg" viewBox="0 0 18 18">
  <rect x="0" y="0" width="18" height="18" style="fill: #fde100;"/>
  <path id="path10057" d="M4.5,7.5l1.87,1.25,2.25-1.5-.94-.63,1.22-.81,2.62,1.75-4.31,2.87.94.63,5.35-3.56-4.5-3-4.5,3ZM13.5,10.5l-1.88-1.25-2.25,1.5.94.62-1.22.81-2.62-1.75,4.31-2.87-.94-.63-5.34,3.56,4.5,3,4.5-3ZM13.5,5.75l-.94.63-.94-.63,1.88-1.25v1.25ZM4.5,12.25l.94-.63.94.63-1.87,1.25v-1.25Z" style="fill: #003882; fill-rule: evenodd;"/>
</svg>