<?xml version="1.0" encoding="UTF-8"?>
<svg id="Layer_1" xmlns="http://www.w3.org/2000/svg" viewBox="0 0 18 18">
  <rect x="0" y="0" width="18" height="18" style="fill: #e5173f;"/>
  <g>
    <path d="M8.82,11.03l-.58.33c-.08.04-.08.08-.08.17v2.11c0,.08.04.12.08.12h.58v-2.74Z" style="fill: #fff;"/>
    <path d="M9.9,10.41l-.75.41h-.04v2.86h.83c.09,0,.17-.07.17-.17v-2.99c.02-.07-.02-.14-.08-.16-.04-.01-.09,0-.13.03Z" style="fill: #fff;"/>
    <path d="M8.73,6.26c-.61,0-1.22.05-1.82.17.65-.85,1.67-1.34,2.74-1.33.81,0,1.59.26,2.24.75.08.08.17.12.25.04.07-.06.08-.17.01-.23,0,0,0-.01-.01-.01-.75-.92-1.88-1.44-3.07-1.41-1.61.03-3.03,1.03-3.61,2.53l-1.33.54c-.11.08-.15.17-.12.25.03.09.12.13.21.1.01,0,.03-.01.04-.02.34-.11.69-.19,1.04-.25-.04.19-.05.39-.04.58-.02,1.34.65,2.6,1.78,3.32.08.04.21.04.25-.04s.04-.17-.04-.25c-.7-.63-1.09-1.54-1.08-2.49-.01-.45.09-.89.29-1.29l1.16-.08c2.82,0,5.22.95,5.22,2.16s-.79,1.24-1.74,1.66c-.21.08-.21.17-.21.25s.12.12.25.08c1.66-.5,2.86-1.41,2.86-2.45s-2.32-2.57-5.27-2.57Z" style="fill: #fff;"/>
  </g>
</svg>