<svg xmlns="http://www.w3.org/2000/svg" viewBox="0 0 18 18">
  <g clip-path="url(#a)">
    <path fill="#00AFE9" d="M0 0h18v18H0V0Z"/>
    <path fill="#fff" d="M8.703 3.9c.337.012.61.08.834.281.225.197.269.674.28.887.013.208.005.838.226 1.147.224.317.469.41.758.41.067 0 .136-.006.208-.017.386-.044.494-.273.494-.273s-.321-.088-.321-.493c-.004-.277.237-.534.59-.638a1.505 1.505 0 0 1 1.556.53c.706.934.762 2.29.59 3.554-.173 1.268-.979 2.44-1.003 2.475-.012.02-.032.032-.044.032a.045.045 0 0 1-.032-.016c-.35-.329-.678-.794-.819-1.099-.152.116-.072.373.008.65.085.285.277.654.341.77.069.117.157.257.04.33a.091.091 0 0 1-.048.011c-.156 0-.521-.273-.93-.818-.458-.61-.69-1.156-.69-1.156-.032.012-.085.065-.08.221.003.156.168.742.48 1.28.318.541.615.882.667.955.036.048.008.076-.016.092-.02.016-.586.541-1.4.987-.963.513-1.392.601-1.392.601s-.43-.092-1.392-.605c-.815-.442-1.376-.967-1.4-.983-.025-.016-.057-.044-.017-.088.057-.077.35-.418.666-.96.317-.54.478-1.123.482-1.279.012-.156-.044-.213-.08-.22 0 0-.233.545-.69 1.155-.41.545-.775.818-.931.818a.072.072 0 0 1-.044-.012c-.12-.072-.032-.209.036-.325.068-.12.26-.493.34-.774.085-.273.161-.53.013-.65-.145.305-.474.766-.823 1.103a.039.039 0 0 1-.028.012c-.016 0-.032-.012-.048-.036-.024-.032-.826-1.203-1.003-2.471-.172-1.264-.112-2.62.594-3.554a1.49 1.49 0 0 1 1.183-.578c.133 0 .257.016.374.052.349.1.59.353.593.634-.004.405-.325.493-.325.493s.117.233.49.277c.108.008.212.008.212.008.799-.008.995-.585 1.027-1.107.032-.521-.244-.722-.621-.766-.045-.004-.085-.008-.125-.008-.273 0-.353.124-.353.124-.124-.2-.016-.47.217-.622.24-.16.521-.192.738-.192.04 0 .077.001.112.004.093-.104.153-.153.438-.153h.068Z"/>
  </g>
  <defs>
    <clipPath id="a">
      <path fill="#fff" d="M0 0h18v18H0z"/>
    </clipPath>
  </defs>
</svg>
