<svg xmlns="http://www.w3.org/2000/svg" viewBox="0 0 18 18">
  <g clip-path="url(#a)">
    <path fill="#fafafa" d="M0 0h18v18H0V0Z" />
    <path
      fill="#E35302"
      fill-rule="evenodd"
      d="M15.15 8.19c0 .8-.64 1.44-1.44 1.44h-.987v1.68H11.59V6.75h2.107c.813 0 1.453.653 1.453 1.44Zm-1.627-.493h-.786v.946h.786a.47.47 0 0 0 .454-.467c0-.253-.2-.48-.454-.48Zm-2.586-.947v4.573H9.803v-1.68H8.23v1.68H7.097V6.75H8.23v1.853h1.573V6.75h1.134Zm-4.28 3.333c0 .76-.68 1.24-1.4 1.24H3.15V6.75h2.04c.747 0 1.36.547 1.36 1.226 0 .534-.253.827-.6 1.04.4.174.707.427.707 1.067Zm-1.627-.6h-.747v.88h.747c.293 0 .453-.2.453-.44s-.213-.44-.453-.44Zm-.107-1.786h-.64v.946h.64c.294 0 .454-.227.454-.467 0-.253-.16-.48-.454-.48Z"
      clip-rule="evenodd"
    />
  </g>
  <defs>
    <clipPath id="a">
      <path fill="#fff" d="M0 0h18v18H0z" />
    </clipPath>
  </defs>
</svg>
