<svg xmlns="http://www.w3.org/2000/svg" viewBox="0 0 18 18">
  <g clip-path="url(#a)">
    <path fill="#2830E1" d="M0 0h18v18H0V0Z"/>
    <path fill="#fff" d="M7.415 11.096h.603v1.361h-.55s-.397-.018-.518-.465c-.069-.19 0-.431.035-.518a.605.605 0 0 1 .43-.378Z"/>
    <path fill="#fff" fill-rule="evenodd" d="M9.483 5.683c.068-.568.775-1.464 1.326-1.344.55.12 1.068.862.965 1.5-.104.637-.603 1.481-1.395 1.379-.794-.104-.965-.828-.896-1.535Zm-1.654 1.43c-.59 0-1.068-.677-1.068-1.515 0-.84.477-1.517 1.068-1.517.59 0 1.068.678 1.068 1.517 0 .838-.477 1.516-1.068 1.516Zm-3.308.57s.12-1.259.982-1.327c.69-.069 1.189.689 1.24 1.12.035.275.172 1.551-.895 1.775-1.052.224-1.448-1-1.327-1.568Zm7.942 2.24c-1.171.017-1.223-.793-1.223-1.379 0-.62.12-1.482 1.067-1.482.93 0 1.19.913 1.19 1.224 0 .293.12 1.603-1.034 1.637Zm.19 3.154c-.587 1.361-2.723.654-2.723.654s-.792-.258-1.705-.051c-.913.19-1.706.12-1.706.12s-1.068.017-1.377-1.327c-.294-1.361 1.067-2.102 1.17-2.223.104-.138.828-.62 1.276-1.378.447-.776 1.826-1.379 2.79.12.706 1.017 1.93 1.964 1.93 1.964s.912.707.344 2.12Zm-3.98-.07v-3.36l-.62-.017v.913h-.741s-.741.052-1 .896c-.103.569.07.896.104.965.017.069.258.483.861.604h1.395Zm2.55-.017v-2.36h-.69v1.774h-.655s-.206-.034-.24-.207v-1.585l-.655.018v1.757s.034.448.654.603h1.585Z" clip-rule="evenodd"/>
  </g>
  <defs>
    <clipPath id="a">
      <path fill="#fff" d="M0 0h18v18H0z"/>
    </clipPath>
  </defs>
</svg>
