<svg xmlns="http://www.w3.org/2000/svg" viewBox="0 0 18 18">
  <g clip-path="url(#a)">
    <path fill="#151A21" d="M0 0h18v18H0V0Z"/>
    <path fill="url(#b)" d="M9.791 10.382c-.131.113-.224.18-.224.18-1.531 1.14-3.491 1.693-3.491 1.693l-.312.088a4.828 4.828 0 0 0 1.743 1.118 4.792 4.792 0 0 0 4.022-.325 4.848 4.848 0 0 0 1.544-1.384c-.877.315-2.099-.328-3.282-1.37Z"/>
    <path fill="url(#c)" d="M13.993 8.584v-.087a5.412 5.412 0 0 0-.02-.212l-.011-.089a4.776 4.776 0 0 0-.038-.237c0-.015 0-.03-.01-.047a5.137 5.137 0 0 0-.064-.28c0-.021-.012-.042-.018-.064a3.36 3.36 0 0 0-.064-.21l-.027-.083a2.868 2.868 0 0 0-.073-.195l-.027-.074a5.199 5.199 0 0 0-.11-.248l-.04-.078a3.531 3.531 0 0 0-.083-.158l-.025-.045c-.41.819-1.556 1.534-2.932 2.065.073.303.073.62 0 .923-.116.386-.44.724-.659.918 1.185 1.042 2.405 1.685 3.284 1.37.173-.236.325-.488.453-.752l.03-.066.06-.133.05-.126.03-.077.052-.15c0-.019.013-.037.019-.056.018-.056.035-.111.051-.167 0-.013 0-.025.01-.037a4.62 4.62 0 0 0 .13-.62v-.044c.011-.087.02-.174.027-.266v-.074c0-.103.012-.206.012-.311 0-.105 0-.191-.007-.29Z"/>
    <path fill="url(#d)" d="M13.222 6.221a4.057 4.057 0 0 0-.266-.372l-.067-.086a7.9 7.9 0 0 0-.14-.162l-.01-.008a4.83 4.83 0 0 0-2.25-1.407 4.794 4.794 0 0 0-2.648 0c.263.293.46.522.46.522s1.34 1.549 2.006 3.346c.061.158.11.321.143.487 1.377-.53 2.523-1.245 2.926-2.065-.048-.086-.1-.17-.154-.255Z"/>
    <path fill="url(#e)" d="M10.45 8.541a3.048 3.048 0 0 0-.143-.487c-.666-1.797-2.006-3.346-2.006-3.346s-.2-.23-.46-.522a3.7 3.7 0 0 0-.173.054l-.025.008a3.578 3.578 0 0 0-.167.06l-.017.007a4.702 4.702 0 0 0-.51.232H6.94l-.124.072-.07.044-.107.064-.077.049-.094.062-.09.063-.08.058-.115.089-.049.039-.162.132-.034.03-.124.118-.016.014a4.884 4.884 0 0 0-1.302 2.24 4.917 4.917 0 0 0 .022 2.596v.008c.088.308.205.606.35.89l.014.028.08.147c0 .01.014.023.02.035l.085.143.01.016a4.739 4.739 0 0 0 .339.474c.014.018.055.068.084.101l.055.064.082.092.067.069.058.06.31-.088s1.962-.554 3.494-1.695c0 0 .095-.066.224-.18.224-.193.548-.53.658-.917.074-.303.074-.62.002-.923Z"/>
    <path fill="url(#f)" d="M6.068 4.181s-2.22 1.014-2.882 3.253c-.662 2.239.658 4.294.658 4.294s1.958-.557 3.49-1.694c0 0 .705-.486.887-1.097.178-.612-.149-1.408-.149-1.408-.666-1.803-2.004-3.348-2.004-3.348Z"/>
  </g>
  <defs>
    <linearGradient id="b" x1="7.739" x2="11.174" y1="10.351" y2="13.755" gradientUnits="userSpaceOnUse">
      <stop offset=".17" stop-color="#ECF1C5"/>
      <stop offset=".74" stop-color="#DBE2A1"/>
    </linearGradient>
    <linearGradient id="c" x1="14.049" x2="10.522" y1="9.614" y2="8.342" gradientUnits="userSpaceOnUse">
      <stop stop-color="#DBE2A1"/>
      <stop offset=".27" stop-color="#C9D788"/>
      <stop offset=".55" stop-color="#BBCE75"/>
      <stop offset=".74" stop-color="#B6CB6E"/>
    </linearGradient>
    <linearGradient id="d" x1="12.409" x2="7.968" y1="7.726" y2="4.034" gradientUnits="userSpaceOnUse">
      <stop stop-color="#B5CA6D"/>
      <stop offset=".09" stop-color="#A3C067"/>
      <stop offset=".29" stop-color="#84AE5D"/>
      <stop offset=".46" stop-color="#71A356"/>
      <stop offset=".58" stop-color="#6A9F54"/>
    </linearGradient>
    <radialGradient id="e" cx="0" cy="0" r="1" gradientTransform="matrix(3.59684 0 0 3.62978 7.42 8.265)" gradientUnits="userSpaceOnUse">
      <stop offset=".17" stop-color="#3A5C7B"/>
      <stop offset="1" stop-color="#5B89B4"/>
    </radialGradient>
    <radialGradient id="f" cx="0" cy="0" r="1" gradientTransform="matrix(.62019 -5.51884 3.23861 .36394 4.566 6.5)" gradientUnits="userSpaceOnUse">
      <stop stop-color="#E6F1F7"/>
      <stop offset=".09" stop-color="#D1E3F0"/>
      <stop offset=".28" stop-color="#ABC8E3"/>
      <stop offset=".47" stop-color="#8DB4D8"/>
      <stop offset=".65" stop-color="#78A5D1"/>
      <stop offset=".83" stop-color="#6B9CCC"/>
      <stop offset="1" stop-color="#6799CB"/>
    </radialGradient>
    <clipPath id="a">
      <path fill="#fff" d="M0 0h18v18H0z"/>
    </clipPath>
  </defs>
</svg>
