<?xml version="1.0" encoding="UTF-8"?>
<svg id="Layer_1" xmlns="http://www.w3.org/2000/svg" xmlns:xlink="http://www.w3.org/1999/xlink" viewBox="0 0 18 18">
  <defs>
    <linearGradient id="linear-gradient" x1="9" y1="14.25" x2="9" y2="3.75" gradientTransform="translate(0 18) scale(1 -1)" gradientUnits="userSpaceOnUse">
      <stop offset="0" stop-color="#8af321"/>
      <stop offset="1" stop-color="#15aacc"/>
    </linearGradient>
  </defs>
  <rect width="18" height="18" style="fill: #fafafa;"/>
  <path d="M13.5,9.76c0,2.41-1.91,4.39-4.3,4.49.01-1.56.22-3.87,3.02-4.34v-.76c-1.36-.04-4,.91-3.94,5.05-.29-.05-.58-.12-.85-.22-.12-1.69.66-5.14,4.34-5.78l-.72-.76c-1.68.32-4.6,1.83-4.33,6.2-.32-.19-.62-.42-.89-.69-.21-1.49.38-4.43,4.31-6.38l-1.08-1.07c-1.56,1.18-3.74,3.26-4.19,6.05-.24-.56-.36-1.17-.36-1.78,0-2.28,2.49-4.33,3.9-5.5.2-.17.4-.33.6-.51.15.13.35.3.59.5,1.37,1.12,3.91,3.21,3.91,5.51ZM12.05,10.86c-.41,0-1.34.37-1.79,1.75.4-.07,1.33-.52,1.79-1.75Z" style="fill: url(#linear-gradient);"/>
</svg>