<svg xmlns="http://www.w3.org/2000/svg" viewBox="0 0 18 18" fill="#0a0a0a">
  <g clip-path="url(#a)">
    <path d="M0 0h18v18H0V0Z" />
    <path
      fill="#AE8639"
      d="M14.963 8.992 9.815 6.95a12.937 12.937 0 0 0-2.74 2.042 12.923 12.923 0 0 0 2.74 2.041l5.148-2.041Z"
    />
    <path
      fill="#A7A8AB"
      d="M4.25 4.738s.535 1.803 2.34 3.76a12.548 12.548 0 0 1 2.874-1.667L4.25 4.738Z"
    />
    <path
      fill="#A59875"
      d="M4.25 13.262s.535-1.803 2.34-3.76c.785.612 1.738 1.19 2.874 1.667L4.25 13.262Z"
    />
  </g>
  <defs>
    <clipPath id="a">
      <path fill="#fff" d="M0 0h18v18H0z" />
    </clipPath>
  </defs>
</svg>
