<svg xmlns="http://www.w3.org/2000/svg" viewBox="0 0 18 18">
  <g clip-path="url(#a)">
    <path d="M0 0h18v18H0V0Z"/>
    <path fill="#fff" d="M5.76 8.075a.26.26 0 1 1-.001-.518.26.26 0 0 1 0 .518Zm0-1.187a.26.26 0 1 1-.001-.518.26.26 0 0 1 0 .518Zm0-1.183a.26.26 0 1 1-.001-.519.26.26 0 0 1 0 .519Zm0-1.186A.26.26 0 1 1 5.758 4a.26.26 0 0 1 0 .519Zm.922 3.556a.26.26 0 1 1 0-.518.26.26 0 0 1 0 .518Zm0-1.187a.26.26 0 1 1 0-.518.26.26 0 0 1 0 .518Zm0-1.183a.26.26 0 1 1 0-.519.26.26 0 0 1 0 .519Zm0-1.186a.26.26 0 1 1 0-.519.26.26 0 0 1 0 .519Zm.921 3.556a.26.26 0 1 1 0-.518.26.26 0 0 1 0 .518Zm0-1.187a.26.26 0 1 1 0-.518.26.26 0 0 1 0 .518Zm0-1.183a.26.26 0 1 1 0-.519.26.26 0 0 1 0 .519Zm0-1.186a.26.26 0 1 1 0-.519.26.26 0 0 1 0 .519Zm.922 3.556a.26.26 0 1 1 0-.518.26.26 0 0 1 0 .518Zm.922 0a.26.26 0 1 1 0-.518.26.26 0 0 1 0 .518Zm0-1.187a.26.26 0 1 1 0-.518.26.26 0 0 1 0 .518Zm0-1.183a.26.26 0 1 1 0-.519.26.26 0 0 1 0 .519Zm0-1.186a.26.26 0 1 1 0-.519.26.26 0 0 1 0 .519Zm.922 3.556a.259.259 0 0 1-.259-.26.259.259 0 1 1 .518 0c0 .144-.115.26-.26.26Zm0-1.187a.259.259 0 1 1 0-.517.259.259 0 0 1 0 .517Zm0-1.183a.259.259 0 0 1-.259-.26.259.259 0 1 1 .518 0c0 .144-.115.26-.26.26Zm0-1.186a.259.259 0 0 1-.259-.26.259.259 0 1 1 .518 0c0 .144-.115.26-.26.26Zm.921 3.556a.26.26 0 1 1 0-.518.26.26 0 0 1 0 .518Zm0-1.187a.26.26 0 1 1 0-.518.26.26 0 0 1 0 .518Zm0-1.183a.26.26 0 1 1 0-.519.26.26 0 0 1 0 .519Zm0-1.186a.26.26 0 1 1 0-.519.26.26 0 0 1 0 .519Zm.923 3.556a.26.26 0 1 1 0-.519.26.26 0 0 1 0 .519Zm0-1.187a.26.26 0 1 1 0-.518.26.26 0 0 1 0 .518Zm0-1.183a.26.26 0 1 1 0-.519.26.26 0 0 1 0 .519ZM8.525 6.888a.26.26 0 1 1 0-.518.26.26 0 0 1 0 .518Zm0-1.183a.26.26 0 1 1 0-.519.26.26 0 0 1 0 .519Zm0-1.186a.26.26 0 1 1 0-.519.26.26 0 0 1 0 .519ZM5.76 9.258a.26.26 0 1 1-.001-.518.26.26 0 0 1 0 .518Zm0 1.186a.26.26 0 1 1-.001-.518.26.26 0 0 1 0 .518Zm0 1.186a.26.26 0 1 1-.001-.518.26.26 0 0 1 0 .518Zm0 1.184a.26.26 0 1 1-.001-.519.26.26 0 0 1 0 .519Zm0 1.186a.259.259 0 1 1 0-.518.26.26 0 1 1 0 .518Zm.922-4.742a.26.26 0 1 1 0-.518.26.26 0 0 1 0 .518Zm0 1.186a.26.26 0 1 1-.001-.518.26.26 0 0 1 0 .518Zm0 1.186a.26.26 0 1 1-.001-.518.26.26 0 0 1 0 .518Zm0 1.184a.26.26 0 1 1 0-.519.26.26 0 0 1 0 .519Zm0 1.186a.259.259 0 1 1 0-.518.26.26 0 1 1 0 .518Zm.921-4.742a.26.26 0 1 1 0-.518.26.26 0 0 1 0 .518Zm0 1.186a.26.26 0 1 1 0-.518.26.26 0 0 1 0 .518Zm0 1.186a.26.26 0 1 1 0-.518.26.26 0 0 1 0 .518Zm0 1.184a.26.26 0 1 1 0-.519.26.26 0 0 1 0 .519Zm0 1.186a.259.259 0 1 1 0-.518.26.26 0 1 1 0 .518Zm.922-4.742a.26.26 0 1 1 0-.518.26.26 0 0 1 0 .518Zm0 1.186a.26.26 0 1 1 0-.518.26.26 0 0 1 0 .518Zm.922 0a.26.26 0 1 1 0-.518.26.26 0 0 1 0 .518Zm0 1.186a.26.26 0 1 1 0-.518.26.26 0 0 1 0 .518Zm0 1.184a.26.26 0 1 1 0-.519.26.26 0 0 1 0 .519Zm0 1.186a.259.259 0 1 1 0-.518.26.26 0 1 1 0 .518Zm.922-3.556a.258.258 0 1 1 0-.518.259.259 0 1 1 0 .518Zm0 1.186a.259.259 0 0 1-.259-.259.259.259 0 1 1 .518 0c0 .144-.115.26-.26.26Zm0 1.184a.259.259 0 0 1-.259-.26.259.259 0 1 1 .518 0c0 .144-.115.26-.26.26Zm0 1.186a.259.259 0 1 1 .26-.259.258.258 0 0 1-.26.259Zm.921-3.556a.26.26 0 1 1 0-.518.26.26 0 0 1 0 .518Zm0 1.186a.26.26 0 1 1 0-.518.26.26 0 0 1 0 .518Zm0 1.184a.26.26 0 1 1 0-.519.26.26 0 0 1 0 .519Zm0 1.186a.259.259 0 1 1 0-.518.26.26 0 1 1 0 .518Zm.923-3.556a.26.26 0 1 1 0-.518.26.26 0 0 1 0 .518Zm0 1.186a.26.26 0 1 1 0-.518.26.26 0 0 1 0 .518ZM9.447 9.258a.26.26 0 1 1 0-.518.26.26 0 0 1 0 .518Zm.922 0a.259.259 0 0 1-.259-.26.259.259 0 1 1 .518 0c0 .144-.115.26-.26.26Zm.921 0a.26.26 0 1 1 0-.518.26.26 0 0 1 0 .518Zm.923 3.556a.26.26 0 1 1 0-.519.26.26 0 0 1 0 .519ZM8.525 11.63a.26.26 0 1 1 0-.518.26.26 0 0 1 0 .518Zm0 1.184a.26.26 0 1 1 0-.519.26.26 0 0 1 0 .519Zm0 1.186a.259.259 0 1 1 0-.518.26.26 0 1 1 0 .518Z"/>
  </g>
  <defs>
    <clipPath id="a">
      <path fill="#fff" d="M0 0h18v18H0z"/>
    </clipPath>
  </defs>
</svg>
