<svg xmlns="http://www.w3.org/2000/svg" viewBox="0 0 18 18">
  <g clip-path="url(#a)">
    <path fill="#27272C" d="M0 0h18v18H0V0Z"/>
    <path fill="#018374" d="M5.922 6.685a.651.651 0 1 1 .445-1.224 1.36 1.36 0 0 0-.93 2.556l6.683 2.432-5.753 2.094a1.36 1.36 0 1 1-.93-2.556 2.069 2.069 0 0 0 1.415 3.888l6.276-2.284a1.214 1.214 0 0 0 0-2.284L5.922 6.685Z"/>
    <path fill="#02BC94" d="M12.12 7.554 6.366 5.461a1.36 1.36 0 1 0-.93 2.556 2.07 2.07 0 0 1 1.41-3.89l.005.001 6.276 2.285a1.215 1.215 0 0 1 0 2.283l-7.206 2.623a.651.651 0 0 0 .445 1.224 1.36 1.36 0 1 1-.93-2.556l6.682-2.433Z"/>
  </g>
  <defs>
    <clipPath id="a">
      <path fill="#fff" d="M0 0h18v18H0z"/>
    </clipPath>
  </defs>
</svg>
