<svg xmlns="http://www.w3.org/2000/svg" viewBox="0 0 18 18">
  <g clip-path="url(#a)">
    <path fill="#BE2BBB" d="M0 0h18v18H0V0Z"/>
    <path fill="#fff" d="M11.668 10.678a.541.541 0 0 0 1.082 0V7.041a.541.541 0 0 0-1.082 0v3.637Zm-1.73-.712a.558.558 0 1 0 1.115 0V4.584a.558.558 0 1 0-1.116 0v5.382Zm-1.732-.411a.558.558 0 1 0 1.117 0V3.558a.558.558 0 1 0-1.117 0v5.997Zm-1.73.129a.558.558 0 1 0 1.116 0V5.225a.558.558 0 1 0-1.116 0v4.459Zm1.611 5.063a.545.545 0 0 1-.726.253c-1.707-.829-2.611-2.291-2.611-4.224V8.592a.544.544 0 0 1 1.087 0v2.184c0 1.509.673 2.6 1.999 3.242.27.131.383.458.251.728Z"/>
  </g>
  <defs>
    <clipPath id="a">
      <path fill="#fff" d="M0 0h18v18H0z"/>
    </clipPath>
  </defs>
</svg>
