<svg xmlns="http://www.w3.org/2000/svg" viewBox="0 0 18 18">
  <g clip-path="url(#a)">
    <path fill="#fafafa" d="M0 0h18v18H0V0Z" />
    <path
      fill="#002D6E"
      fill-rule="evenodd"
      d="M9 3.5c1.305 0 2.506.456 3.448 1.218H5.552A5.463 5.463 0 0 1 9 3.5Zm4.583 2.457c.245.367.446.768.597 1.19H3.82c.152-.422.353-.823.598-1.19h9.165Zm.884 2.435c.044.404.044.812 0 1.216H3.533a5.539 5.539 0 0 1 0-1.216h10.934Zm-.287 2.458c-.147.41-.342.8-.58 1.165H4.4a5.541 5.541 0 0 1-.581-1.165h10.36Zm-1.699 2.408A5.474 5.474 0 0 1 9 14.5a5.473 5.473 0 0 1-3.48-1.242h6.961Z"
      clip-rule="evenodd"
    />
  </g>
  <defs>
    <clipPath id="a">
      <path fill="#fff" d="M0 0h18v18H0z" />
    </clipPath>
  </defs>
</svg>
