<svg xmlns="http://www.w3.org/2000/svg" viewBox="0 0 18 18">
  <g clip-path="url(#a)">
    <path fill="#fafafa" d="M0 0h18v18H0V0Z" />
    <path
      fill="#090"
      fill-rule="evenodd"
      d="M9.747 4.84C9.472 4.19 9.134 3.693 9 3.492c-.134.201-.472.698-.748 1.348.27.29.536.632.748 1.02.211-.388.478-.73.747-1.02Zm-1.495 8.474c.275.65.614 1.146.748 1.348.134-.202.472-.698.747-1.348A5.137 5.137 0 0 1 9 12.294a5.13 5.13 0 0 1-.748 1.02Zm0-8.474c-.48-.517-.968-.868-1.162-1.01-.057.233-.205.816-.24 1.521.35.18.718.41 1.05.702.066-.437.199-.849.352-1.213Zm1.495 8.474c.48.518.968.868 1.163 1.01.057-.234.205-.816.24-1.52a5.17 5.17 0 0 1-1.05-.703c-.066.436-.2.848-.353 1.213ZM6.85 5.351c-.63-.321-1.208-.484-1.44-.553.027.24.087.839.295 1.514a5.1 5.1 0 0 1 1.227.3 5.09 5.09 0 0 1-.083-1.26Zm4.3 7.452c.63.321 1.207.484 1.44.552-.027-.24-.087-.838-.295-1.513a5.152 5.152 0 0 1-1.227-.3 5.1 5.1 0 0 1 .083 1.26Z"
      clip-rule="evenodd"
    />
    <path
      fill="#090"
      fill-rule="evenodd"
      d="M6.213 7.468a5.164 5.164 0 0 1-.508-1.157c-.701-.087-1.3-.042-1.541-.027.106.216.367.758.793 1.321a5.151 5.151 0 0 1 1.256-.137Zm5.573 3.218c.23.377.394.779.509 1.156.701.088 1.3.043 1.541.028-.107-.217-.367-.758-.793-1.322a5.132 5.132 0 0 1-1.257.138ZM4.957 7.605c-.688.158-1.236.405-1.457.502.175.167.605.586 1.198.97a5.117 5.117 0 0 1 1.133-.559 5.199 5.199 0 0 1-.874-.913Zm8.345 1.472a5.11 5.11 0 0 1-1.133.559c.344.275.635.597.874.911.688-.157 1.236-.403 1.457-.5-.175-.167-.605-.587-1.198-.97Z"
      clip-rule="evenodd"
    />
    <path
      fill="#090"
      fill-rule="evenodd"
      d="M5.83 9.636a5.105 5.105 0 0 1-1.132-.56c-.593.384-1.024.804-1.198.97.22.098.768.345 1.456.502.24-.315.53-.637.875-.912Zm6.339-1.118c.418.14.8.344 1.133.559.593-.384 1.024-.804 1.198-.97-.221-.098-.768-.345-1.457-.502-.24.315-.53.637-.874.913Zm-7.212 2.03c-.426.563-.687 1.105-.793 1.322.24.015.84.06 1.54-.028.117-.377.28-.779.51-1.156a5.14 5.14 0 0 1-1.257-.138Z"
      clip-rule="evenodd"
    />
    <path
      fill="#090"
      fill-rule="evenodd"
      d="M13.043 7.605c.426-.563.687-1.104.794-1.321-.242-.015-.84-.06-1.542.028a5.099 5.099 0 0 1-.508 1.156c.441-.01.87.049 1.256.137Zm-6.112 3.937c-.41.16-.834.252-1.227.3-.208.675-.268 1.274-.294 1.513.232-.068.81-.23 1.439-.552a5.123 5.123 0 0 1 .082-1.261Zm4.137-4.93a5.093 5.093 0 0 1 1.227-.3c.208-.676.269-1.273.295-1.514-.232.068-.81.231-1.44.553.021.395.005.827-.082 1.26ZM6.85 12.803c.035.705.183 1.287.24 1.521.194-.142.682-.492 1.162-1.01A5.15 5.15 0 0 1 7.9 12.1a5.17 5.17 0 0 1-1.05.702Zm4.3-7.453c-.035-.705-.183-1.287-.24-1.52-.195.142-.683.492-1.163 1.01.154.364.287.776.354 1.213a5.2 5.2 0 0 1 1.05-.703Z"
      clip-rule="evenodd"
    />
    <path
      fill="#9C0"
      fill-rule="evenodd"
      d="M8.617 6.906c.07-.378.208-.728.383-1.047a5.134 5.134 0 0 0-.748-1.02A5.138 5.138 0 0 0 7.9 6.053c.273.241.522.523.717.854Zm.766 4.342A3.538 3.538 0 0 1 9 12.294c.211.388.478.73.747 1.02.154-.365.287-.777.354-1.213a3.524 3.524 0 0 1-.718-.853ZM6.931 6.612c.34.132.67.312.967.555a3.534 3.534 0 0 1 .001-1.115 5.184 5.184 0 0 0-1.05-.7c-.02.394-.004.827.082 1.26Zm4.137 4.93a3.549 3.549 0 0 1-.965-.555c.062.378.052.754-.002 1.115.33.29.698.521 1.05.702a5.13 5.13 0 0 0-.083-1.262ZM7.311 7.66a3.535 3.535 0 0 1-.38-1.048 5.1 5.1 0 0 0-1.227-.3c.117.377.28.779.509 1.156.364.008.736.065 1.098.192Zm3.378 2.834c.188.335.308.69.379 1.048.412.16.835.252 1.227.3a5.097 5.097 0 0 0-.508-1.156 3.517 3.517 0 0 1-1.098-.192ZM5.83 8.518a3.539 3.539 0 0 1 1.098-.196 3.523 3.523 0 0 1-.715-.854c-.44-.01-.87.049-1.256.137.239.315.53.637.874.913Z"
      clip-rule="evenodd"
    />
    <path
      fill="#9C0"
      fill-rule="evenodd"
      d="M12.169 9.636c-.345.116-.714.19-1.098.195.292.25.527.544.715.855.442.01.871-.05 1.257-.138a5.162 5.162 0 0 0-.874-.912Zm-5.374-.559a3.546 3.546 0 0 1-.964-.559c-.419.14-.802.345-1.133.559.331.215.714.418 1.133.559a3.53 3.53 0 0 1 .964-.56Zm4.409 0c.36.135.68.33.965.559a5.122 5.122 0 0 0 1.133-.56 5.134 5.134 0 0 0-1.133-.558 3.54 3.54 0 0 1-.965.559Zm-4.991 1.609a3.55 3.55 0 0 1 .715-.855 3.539 3.539 0 0 1-1.097-.195 5.181 5.181 0 0 0-.874.912c.386.088.815.148 1.256.138Zm5.573-3.218a3.518 3.518 0 0 1-.715.854c.384.004.753.079 1.098.196.344-.276.635-.598.874-.913a5.16 5.16 0 0 0-1.257-.137Zm-4.475 3.026a3.53 3.53 0 0 1-1.098.192c-.23.377-.392.779-.508 1.156.392-.049.816-.14 1.227-.3.071-.357.19-.713.38-1.048Zm3.378-2.834a3.54 3.54 0 0 1 1.097-.192 5.09 5.09 0 0 0 .509-1.156 5.095 5.095 0 0 0-1.227.3 3.52 3.52 0 0 1-.38 1.048Zm-2.072 3.588a3.56 3.56 0 0 1-.717.853c.066.436.2.848.352 1.213.27-.29.536-.632.748-1.02a3.523 3.523 0 0 1-.383-1.046Z"
      clip-rule="evenodd"
    />
    <path
      fill="#9C0"
      fill-rule="evenodd"
      d="M7.898 10.986a3.542 3.542 0 0 1-.967.555 5.11 5.11 0 0 0-.082 1.262c.352-.18.72-.412 1.05-.702a3.534 3.534 0 0 1-.001-1.115Zm1.485-4.08c.194-.33.444-.613.718-.854a5.141 5.141 0 0 0-.354-1.212c-.269.29-.536.631-.747 1.019.175.32.312.67.383 1.047Zm.72.261a3.55 3.55 0 0 1 .965-.555 5.1 5.1 0 0 0 .083-1.261c-.352.18-.72.41-1.05.701.054.36.064.737.002 1.115Z"
      clip-rule="evenodd"
    />
    <path
      fill="#fff"
      fill-rule="evenodd"
      d="M8.619 8.03a3.015 3.015 0 0 0-.721-.862c.058.354.18.709.385 1.055a3.014 3.014 0 0 0-.972-.563 3 3 0 0 0 .724.86 3.004 3.004 0 0 0-1.106-.197c.272.234.593.427.974.56a3.012 3.012 0 0 0-1.108.194c.336.126.705.198 1.108.193a3.044 3.044 0 0 0-.974.56 3.01 3.01 0 0 0 1.106-.196 2.986 2.986 0 0 0-.724.86c.338-.119.667-.301.972-.564a3.018 3.018 0 0 0-.385 1.056c.276-.228.524-.51.72-.862a3.023 3.023 0 0 0 0 1.124c.182-.31.316-.66.382-1.057.066.397.2.748.383 1.057a3.017 3.017 0 0 0-.002-1.124c.197.351.444.634.721.862a3.016 3.016 0 0 0-.386-1.056c.306.263.635.445.973.564a3.017 3.017 0 0 0-.724-.86c.377.143.748.2 1.106.197a3.033 3.033 0 0 0-.974-.561c.403.005.772-.067 1.107-.193a3.01 3.01 0 0 0-1.107-.193 3.03 3.03 0 0 0 .974-.561 3.01 3.01 0 0 0-1.107.197c.313-.255.549-.548.725-.86-.338.12-.668.3-.973.563.206-.346.328-.702.386-1.056a3.01 3.01 0 0 0-.72.863 3.01 3.01 0 0 0 0-1.124A3.013 3.013 0 0 0 9 7.962a3.018 3.018 0 0 0-.383-1.056c-.065.352-.073.728.002 1.124Z"
      clip-rule="evenodd"
    />
    <path
      fill="#FFE600"
      fill-rule="evenodd"
      d="M8.619 8.03a3.027 3.027 0 0 1-.002-1.124 3.548 3.548 0 0 0-.718-.854c-.055.36-.064.737-.001 1.115.276.228.524.511.72.863Zm.762 2.094c.075.396.068.772.002 1.124.195.33.444.612.718.853.055-.36.064-.736.002-1.115a3.003 3.003 0 0 1-.722-.862Z"
      clip-rule="evenodd"
    />
    <path
      fill="#FFE600"
      fill-rule="evenodd"
      d="M7.898 7.167a3.548 3.548 0 0 0-.967-.555c.072.357.191.714.38 1.048.338.118.667.3.972.563a3.023 3.023 0 0 1-.385-1.056Zm2.205 3.819c.296.244.626.424.965.556a3.531 3.531 0 0 0-.38-1.048 3.024 3.024 0 0 1-.972-.563c.206.346.328.701.387 1.055Z"
      clip-rule="evenodd"
    />
    <path
      fill="#FFE600"
      fill-rule="evenodd"
      d="M8.035 8.52a2.995 2.995 0 0 1-.724-.86 3.548 3.548 0 0 0-1.098-.192c.189.31.424.605.715.854.358-.004.73.054 1.107.197Zm1.93 1.114c.312.255.548.547.724.86.362.128.733.183 1.097.191a3.54 3.54 0 0 0-.715-.854 3.005 3.005 0 0 1-1.106-.197Zm-2.063-.751a3.018 3.018 0 0 1-.974-.56 3.53 3.53 0 0 0-1.097.195c.284.228.605.424.964.559a3.012 3.012 0 0 1 1.107-.194Zm2.195.387c.38.133.702.328.974.56a3.557 3.557 0 0 0 1.098-.194 3.52 3.52 0 0 0-.965-.56 3.005 3.005 0 0 1-1.107.194Zm-3.302-.193c-.359.135-.68.33-.964.559.344.116.713.19 1.097.194.272-.233.593-.427.974-.56a3.018 3.018 0 0 1-1.107-.193Z"
      clip-rule="evenodd"
    />
    <path
      fill="#FFE600"
      fill-rule="evenodd"
      d="M11.204 9.077c.36-.135.68-.332.965-.559a3.54 3.54 0 0 0-1.098-.195 3.025 3.025 0 0 1-.974.56 3.01 3.01 0 0 1 1.107.194Zm-3.169.557a3.01 3.01 0 0 1-1.106.197 3.53 3.53 0 0 0-.716.855 3.537 3.537 0 0 0 1.099-.192c.174-.313.41-.605.723-.86ZM9.964 8.52a3.005 3.005 0 0 1 1.107-.197 3.5 3.5 0 0 0 .715-.854 3.54 3.54 0 0 0-1.097.191 3.018 3.018 0 0 1-.725.86Zm-1.347 2.727c.07.378.208.728.383 1.047.175-.319.312-.67.383-1.047A3.022 3.022 0 0 1 9 10.191c-.066.397-.2.747-.383 1.056Z"
      clip-rule="evenodd"
    />
    <path
      fill="#FFE600"
      fill-rule="evenodd"
      d="M8.619 10.124a3.02 3.02 0 0 1-.721.862c-.063.378-.054.754.001 1.115a3.53 3.53 0 0 0 .718-.853 3.022 3.022 0 0 1 .002-1.123Zm-1.308.37c-.189.334-.308.69-.38 1.048.34-.132.67-.313.967-.556a3.01 3.01 0 0 1 .385-1.055 3.016 3.016 0 0 1-.972.563Zm2.072-3.588A3.543 3.543 0 0 0 9 5.86c-.175.32-.312.67-.383 1.047.183.308.317.659.383 1.057.066-.398.2-.749.383-1.057Z"
      clip-rule="evenodd"
    />
    <path
      fill="#FFE600"
      fill-rule="evenodd"
      d="M9.381 8.03c.197-.351.444-.635.722-.862a3.549 3.549 0 0 0-.002-1.115 3.5 3.5 0 0 0-.718.853c.066.352.073.728-.002 1.124Z"
      clip-rule="evenodd"
    />
    <path
      fill="#FFE600"
      fill-rule="evenodd"
      d="M10.689 7.66a3.54 3.54 0 0 0 .379-1.048 3.55 3.55 0 0 0-.965.555c-.059.354-.181.71-.387 1.056.306-.263.635-.444.973-.563Z"
      clip-rule="evenodd"
    />
  </g>
  <defs>
    <clipPath id="a">
      <path fill="#fff" d="M0 0h18v18H0z" />
    </clipPath>
  </defs>
</svg>
