<?xml version="1.0" encoding="UTF-8"?>
<svg id="Layer_1" xmlns="http://www.w3.org/2000/svg" viewBox="0 0 18 18">
  <rect width="18" height="18" style="fill: #fafafa;"/>
  <g>
    <path d="M8.94,11.09h0c.95-.36,1.88-.85,2.7-1.49-.73-.28-1.42-.67-2.04-1.13-.17.91-.4,1.8-.65,2.62" style="fill: #e63329;"/>
    <path d="M12.01,7.66c-.41-.43-.73-.97-.95-1.56-.4-.04-.77-.11-1.12-.21-.06.84-.18,1.71-.35,2.58.81-.11,1.63-.38,2.42-.81" style="fill: #f39121;"/>
    <path d="M9.59,8.47c.62.46,1.31.85,2.04,1.13.46-.37.89-.78,1.26-1.25-.33-.18-.62-.41-.88-.68-.79.43-1.61.7-2.42.81" style="fill: #ec6624;"/>
    <path d="M9.59,8.47c-.48-.36-.92-.76-1.32-1.2-.31.4-.66.77-1.04,1.1.76.17,1.55.21,2.35.1" style="fill: #e95028;"/>
    <path d="M7.8,13.85h0c1.12.28,2.27.15,3.27-.31-.54-.05-1.09-.17-1.63-.32-.52.25-1.07.47-1.65.63" style="fill: #234295;"/>
    <path d="M6.33,11.75c.38.84.87,1.57,1.47,2.1.17-.31.34-.65.5-1.04-.69-.29-1.36-.65-1.98-1.06" style="fill: #234295;"/>
    <path d="M7.8,13.85h0c.58-.16,1.13-.38,1.64-.63-.38-.11-.76-.25-1.14-.41-.16.38-.33.73-.5,1.04" style="fill: #0a66b0;"/>
    <path d="M8.94,11.09h0c.48.6.99,1.13,1.52,1.57.68-.44,1.3-.95,1.83-1.51-1.02.26-2.19.23-3.34-.06" style="fill: #7c2f88;"/>
    <path d="M5.63,9.42c.15.82.38,1.62.71,2.34.84-.13,1.74-.34,2.61-.67-1.18-.3-2.35-.87-3.31-1.67" style="fill: #7c2f88;"/>
    <path d="M8.94,11.09h0c-.65-.82-1.24-1.76-1.7-2.72-.5.44-1.05.81-1.61,1.05.96.8,2.13,1.38,3.31,1.67" style="fill: #b92a2e;"/>
    <path d="M5.45,7.66c.01.58.07,1.17.18,1.76.56-.24,1.1-.61,1.61-1.05-.63-.15-1.23-.38-1.79-.71" style="fill: #e32127;"/>
    <path d="M9.59,8.47c-.8.11-1.6.07-2.35-.1.47.96,1.05,1.9,1.7,2.72.25-.82.48-1.71.65-2.62Z" style="fill: #d12429;"/>
    <path d="M11.63,9.59c.51.2,1.04.34,1.58.43.31-.43.57-.88.78-1.33-.4-.05-.77-.17-1.1-.35-.37.47-.79.89-1.26,1.25" style="fill: #ef7824;"/>
    <path d="M5.63,9.42c-.57-.47-1.07-1.03-1.47-1.66-.17.66-.2,1.34-.11,1.98.51.03,1.04-.09,1.57-.32" style="fill: #8a2e88;"/>
    <path d="M5.63,9.42h0c-.11-.59-.17-1.18-.18-1.76-.35-.2-.69-.44-1-.72-.05.11-.1.23-.14.35-.05.15-.1.31-.14.46.39.63.89,1.19,1.47,1.66" style="fill: #c8262b;"/>
    <path d="M4.05,9.73h0c.11.77.41,1.51.86,2.15.45-.01.92-.06,1.42-.13-.88-.59-1.66-1.28-2.28-2.02" style="fill: #0b55a3;"/>
    <path d="M5.63,9.42h0c-.53.23-1.06.35-1.57.32.61.74,1.4,1.43,2.28,2.02-.32-.72-.56-1.53-.71-2.34" style="fill: #2b3b8f;"/>
    <path d="M7.8,13.85c-.6-.53-1.09-1.26-1.47-2.1-.49.07-.97.11-1.42.13.57.8,1.38,1.45,2.37,1.81.17.07.34.12.51.16" style="fill: #0a66b0;"/>
    <path d="M9.45,13.22c.54.16,1.09.27,1.63.32.14-.06.27-.13.4-.21-.34-.18-.68-.42-1.02-.69-.32.21-.66.4-1.01.57" style="fill: #0b55a3;"/>
    <path d="M12.28,11.14c.55-.14,1.06-.37,1.5-.69.04-.12.07-.24.1-.36-.22-.01-.45-.04-.67-.07-.28.39-.58.77-.93,1.12" style="fill: #e44025;"/>
    <path d="M13.99,8.69c-.21.45-.47.89-.78,1.33.22.04.44.06.67.07.11-.47.14-.94.11-1.4" style="fill: #f39121;"/>
    <path d="M10.46,12.65c.34.27.68.51,1.02.69.99-.57,1.8-1.47,2.22-2.63.03-.09.06-.17.09-.26-.44.32-.95.55-1.5.69-.53.56-1.14,1.07-1.83,1.51" style="fill: #9d2b4f;"/>
    <path d="M9.94,5.89c.35.1.72.17,1.12.21-.22-.58-.35-1.2-.38-1.82-.23-.08-.46-.14-.69-.19.02.57,0,1.17-.04,1.8" style="fill: #f8ad1c;"/>
    <path d="M9.94,5.89c.05-.62.06-1.22.04-1.8-.12-.02-.24-.04-.36-.06,0,.5-.13,1.05-.37,1.6.22.1.45.19.69.26" style="fill: #f59c20;"/>
    <path d="M5.45,7.66c.56.32,1.16.56,1.79.71-.57-1.18-.97-2.39-1.09-3.46-.15.11-.3.22-.44.35-.19.72-.28,1.55-.25,2.41" style="fill: #e95028;"/>
    <path d="M8.27,7.27c-.72-.8-1.27-1.72-1.6-2.69-.18.1-.36.2-.53.32.13,1.07.52,2.29,1.09,3.46.38-.33.73-.7,1.04-1.1" style="fill: #ed7025;"/>
    <path d="M9.25,5.64c-.66-.29-1.26-.73-1.9-1.35-.23.08-.46.18-.67.29.33.97.88,1.89,1.6,2.69.4-.52.74-1.07.97-1.63" style="fill: #f39121;"/>
    <path d="M11.05,6.1c.22.58.55,1.12.95,1.56.49-.26.96-.59,1.42-.98-.1-.19-.21-.37-.33-.54-.77.04-1.44.04-2.04-.03" style="fill: #f08225;"/>
    <path d="M12.89,8.34c.29-.36.54-.76.75-1.18-.07-.16-.14-.32-.22-.48-.46.39-.93.72-1.42.98.26.27.55.5.88.68" style="fill: #f39121;"/>
    <path d="M13.99,8.69c-.03-.53-.15-1.05-.34-1.54-.22.43-.47.82-.75,1.18.33.18.7.3,1.1.35" style="fill: #ec6624;"/>
    <path d="M9.59,8.47h0c.17-.86.29-1.73.35-2.58-.24-.07-.47-.15-.69-.25-.23.55-.57,1.11-.98,1.63.39.44.83.85,1.32,1.2" style="fill: #f08225;"/>
    <path d="M8.94,11.09h0c-.19.62-.41,1.21-.63,1.73.37.16.75.29,1.14.41.35-.17.69-.37,1.01-.57-.53-.43-1.04-.97-1.52-1.57" style="fill: #234295;"/>
    <path d="M8.94,11.09c-.87.33-1.76.54-2.61.67h0c.62.41,1.28.77,1.98,1.06.23-.52.44-1.11.63-1.73" style="fill: #942f88;"/>
    <path d="M8.94,11.09c1.15.29,2.32.32,3.34.06.34-.36.65-.74.93-1.12-.54-.08-1.07-.23-1.58-.43-.81.65-1.74,1.13-2.7,1.49" style="fill: #d12429;"/>
    <path d="M5.7,5.25c-.52.46-.95,1.03-1.25,1.69.31.27.65.51,1,.72-.02-.86.06-1.69.25-2.41" style="fill: #ed7025;"/>
    <path d="M13.09,6.13c-.57-.81-1.38-1.47-2.38-1.83-.01,0-.03-.01-.04-.01.03.61.16,1.24.38,1.82.6.06,1.27.07,2.04.03" style="fill: #fcc112;"/>
    <path d="M9.61,4.04c-.78-.1-1.56,0-2.27.25.64.62,1.25,1.06,1.9,1.35.23-.55.37-1.09.37-1.6" style="fill: #fcc112;"/>
  </g>
</svg>