<svg xmlns="http://www.w3.org/2000/svg" viewBox="0 0 18 18">
  <g clip-path="url(#a)">
    <path fill="#00007B" d="M0 0h18v18H0V0Z"/>
    <path fill="#fff" fill-rule="evenodd" d="M5.005 4.5h3.902c.69 0 1.39.03 2.053.24.385.114.757.299 1.055.573.547.503.674 1.36.399 2.035-.097.26-.303.454-.504.637a2.84 2.84 0 0 1-1.246.58l-.005.129c.363.073.718.188 1.052.35.494.258.942.652 1.151 1.18.186.517.201 1.117-.033 1.62-.215.513-.66.895-1.148 1.14-.75.413-1.624.504-2.466.516H5.007a6.47 6.47 0 0 1 .005-.342c.332-.024.728-.027.963-.304.187-.196.194-.485.202-.74V5.862c0-.282-.034-.61-.273-.797-.255-.194-.592-.202-.897-.225 0-.113 0-.226-.002-.34Zm3.428.561-.074.107c-.03.11-.062.22-.06.334v3.035c.503-.009 1.035-.033 1.487-.282.364-.21.491-.643.55-1.033.056-.504.039-1.026-.12-1.511-.09-.21-.173-.44-.367-.577-.277-.222-.653-.24-.992-.222a.79.79 0 0 0-.424.15Zm-.136 7.186c-.003.194.012.403.123.57.125.181.36.242.568.25.421-.002.88-.06 1.205-.357.302-.287.43-.706.49-1.108.058-.562.05-1.153-.176-1.68a1.519 1.519 0 0 0-.615-.71c-.49-.244-1.05-.278-1.588-.267-.014 1.1-.001 2.201-.007 3.302Z" clip-rule="evenodd"/>
  </g>
  <defs>
    <clipPath id="a">
      <path fill="#fff" d="M0 0h18v18H0z"/>
    </clipPath>
  </defs>
</svg>
