<svg xmlns="http://www.w3.org/2000/svg" viewBox="0 0 18 18">
  <g clip-path="url(#a)">
    <path fill="#fff" d="M0 0h18v18H0V0Z"/>
    <path fill="url(#b)" d="m13.119 6.452.578 1.13-.805-.538-.806 1.165.164-1.393-.768-.359.809-.283-.15-1.193.724.962.66-.319-.406.828Zm-4.596 1.77.05-.253-.388.537.031.078.414.036c.078-.277-.15-.45-.15-.45m-4.166 5.293c.07-.144.755-1.115.755-1.115.18-.326-.012-.634-.182-.904-.111.103.02.219-.041.354-.97-1.021-1.972-2.195-1.684-3.65.12-.231.322-.479.564-.585l.161-.537c.633-1.297 2.138-1.428 3.374-1.552l-.677.44c.452.028.963-.15 1.47.046l-.616.19c.666.138 1.315.307 1.725.9-.126-.006-.275-.06-.39-.016.19.343.382.679.326 1.092.015.512.59.68.932.934.074.177-.06.326-.186.433-.001.131.062.243.16.347-.019.138-.143.222-.252.298 0 0 .265.015.178.226-.311.276.06.613-.011.94-.211.275-.603.283-.925.348-.458.088-.562.56-.675.932-.221.782.322.82.736.978 0 0 1.364.335 1.733 1.68l.145-.024a6.5 6.5 0 1 0-6.667-1.754l.047-.002Z"/>
  </g>
  <defs>
    <linearGradient id="b" x1="4" x2="15.5" y1="13.5" y2="3.5" gradientUnits="userSpaceOnUse">
      <stop offset=".295" stop-color="#17479E"/>
      <stop offset="1" stop-color="#93D6FA"/>
    </linearGradient>
    <clipPath id="a">
      <path fill="#fff" d="M0 0h18v18H0z"/>
    </clipPath>
  </defs>
</svg>
