<svg xmlns="http://www.w3.org/2000/svg" viewBox="0 0 18 18">
  <g clip-path="url(#a)">
    <path fill="#fafafa" d="M0 0h18v18H0V0Z" />
    <g clip-path="url(#b)">
      <path
        fill="#255BE3"
        d="M2.856 9.855c0-1.235 1.01-2.197 2.325-2.197.761 0 1.456.34 1.854.854l-.571.572a1.637 1.637 0 0 0-1.275-.63c-.786 0-1.415.588-1.415 1.4 0 .821.63 1.41 1.415 1.41a1.652 1.652 0 0 0 1.316-.655l.563.555c-.381.539-1.11.895-1.887.895-1.316 0-2.325-.961-2.325-2.204Zm4.956-2.047h.902v4.102h-.902V7.808Zm2.582 3V8.57H9.41v-.762h1.026v-.879l.845-.414v1.293h1.34v.762h-1.34v2.089c0 .414.231.596.67.596.228.002.454-.046.662-.14v.779c-.26.114-.543.17-.828.165-.802 0-1.39-.439-1.39-1.251Zm2.938-3h.901v4.102h-.901V7.808Z"
      />
      <path
        fill="#FF3C28"
        d="M11.015 5.196a4.61 4.61 0 0 1 3.781 1.956h-1.05a3.674 3.674 0 0 0-4.226-.9c-.47.21-.892.517-1.236.9H7.233a4.619 4.619 0 0 1 3.782-1.956Z"
      />
    </g>
  </g>
  <defs>
    <clipPath id="a">
      <path fill="#fff" d="M0 0h18v18H0z" />
    </clipPath>
    <clipPath id="b">
      <path fill="#fff" d="M2.8 5.15h12v6.941h-12z" />
    </clipPath>
  </defs>
</svg>
