<?xml version="1.0" encoding="UTF-8"?>
<svg id="Layer_1" xmlns="http://www.w3.org/2000/svg" viewBox="0 0 18 18">
  <rect width="18" height="18" style="fill: #fafafa;"/>
  <g>
    <path d="M12.72,5.4c-.41-.41-.9-.75-1.44-.98-.57-.26-1.19-.41-1.82-.43-.97-.04-1.89.19-2.68.66.87-.4,1.84-.54,2.79-.41,2.66.3,4.64,2.61,4.53,5.28v.17c.04-.21.06-.43.06-.64.06-1.41-.49-2.72-1.44-3.66Z" style="fill: #f2df00;"/>
    <path d="M8.36,13.33c.11,0,.22.02.35,0,.66,0,1.31-.17,1.89-.49-.49.22-1.03.32-1.59.32-2.3.05-4.21-1.78-4.26-4.09,0-.29.02-.57.07-.86-.12.39-.18.81-.17,1.22,0,.73.22,1.39.56,1.99.18.26.37.51.58.73.71.62,1.59,1.07,2.58,1.18h0Z" style="fill: #ff5000;"/>
    <path d="M14.96,8.93v-.17.05c0,1.54-.6,2.99-1.69,4.08-.43.43-.92.79-1.46,1.07-.5.28-1.03.48-1.59.6-.41.08-.82.13-1.22.13-.43,0-.86-.04-1.27-.15-.54-.13-1.05-.32-1.55-.58-1.83-.97-2.99-2.87-3-4.94,0-1.02.28-2.01.81-2.87.28-.51.65-.96,1.1-1.33,1.54-1.51,3.78-2.05,5.84-1.39-1.1-.38-2.29-.43-3.41-.13.54-.15,1.07-.26,1.66-.26.62,0,1.2.09,1.76.28-.6-.22-1.26-.32-1.95-.32-1.59-.03-3.12.6-4.23,1.73-1.11,1.12-1.74,2.63-1.74,4.21v.11c0,3.3,2.7,5.95,5.99,5.95,1.61,0,3.11-.62,4.23-1.75,1.11-1.12,1.74-2.63,1.74-4.21v-.04s0-.06,0-.06Z" style="fill: #6ec4e9;"/>
    <path d="M5.1,4.69l-.02.02c-.13.13-.24.26-.34.39l.13-.13c1.06-1.07,2.51-1.67,4.02-1.67,1.16,0,2.23.34,3.13.94,1.36.83,2.28,2.23,2.51,3.8.33,1.82-.25,3.68-1.57,4.98-.44.46-.97.83-1.55,1.09l.43-.19c.54-.28,1.03-.64,1.46-1.07,1.09-1.09,1.7-2.54,1.7-4.09v-.04c-.02-2.51-1.66-4.71-4.06-5.45-.57-.18-1.16-.27-1.76-.28-1.53.01-2.99.62-4.08,1.69h0Z" style="fill: #a03123;"/>
    <path d="M9.1,14.42c1.48-.11,2.86-.79,3.86-1.92.11-.13.22-.26.3-.39-.04.05-.08.11-.13.15-.78.9-1.84,1.53-3.01,1.78-.02,0-.04.02-.06.02-2.7.69-5.45-.93-6.14-3.63-.06-.22-.1-.44-.12-.67-.27-1.53.09-3.1.99-4.36-.04.06-.08.11-.13.17-.79,1.04-1.22,2.31-1.2,3.62v.11c.06,1.31.56,2.48,1.35,3.4,1.09,1.2,2.67,1.84,4.29,1.73Z" style="fill: #f2df00;"/>
    <path d="M14.01,10.53c-.38,1.01-1.06,1.87-1.95,2.48-2.32,1.7-5.59,1.19-7.28-1.13-.52-.71-.85-1.54-.96-2.42-.26-1.65.29-3.32,1.48-4.49.34-.34.75-.64,1.16-.88-.08.04-.15.08-.24.13.07-.05.15-.09.22-.13-.69.37-1.3.88-1.78,1.5-.73.94-1.12,2.09-1.12,3.28,0,.3.02.6.08.88.45,2.6,2.71,4.5,5.35,4.49h.3c.15,0,.3-.02.45-.04,1.17-.16,2.24-.7,3.07-1.54.04-.04.08-.08.13-.15.52-.56.89-1.24,1.09-1.97,0,.02-.02.05-.02.07,0-.02.02-.05.02-.07h0Z" style="fill: #003594;"/>
    <path d="M9.1,12.54c-2.03,0-3.68-1.63-3.69-3.66,0-.98.39-1.91,1.07-2.59.34-.33.73-.6,1.16-.79-.49.19-.92.47-1.31.86-.71.71-1.07,1.62-1.07,2.61,0,2.05,1.67,3.7,3.73,3.7,1.09,0,2.13-.47,2.83-1.3l-.11.11c-.71.68-1.63,1.07-2.62,1.07h0Z" style="fill: #ff5000;"/>
    <path d="M6.18,6.19c-.73.74-1.13,1.73-1.14,2.76.02,2.18,1.8,3.93,3.98,3.9,1.03,0,2.01-.42,2.74-1.14.13-.13.23-.26.34-.41.06-.09.13-.19.19-.28.32-.6.49-1.26.49-1.94,0-2.18-1.76-3.96-3.93-4.04-.38,0-.75.06-1.09.17-.58.22-1.14.54-1.59.99h0ZM8.96,5.25c2.05-.02,3.73,1.63,3.74,3.68,0,.89-.31,1.76-.89,2.44-.06.06-.13.15-.19.21-.71.71-1.63,1.09-2.64,1.09-2.05.01-3.72-1.64-3.73-3.69,0,0,0,0,0-.01,0-1.54.94-2.92,2.38-3.47.42-.17.87-.26,1.33-.26h0Z" style="fill: #ffc627;"/>
    <path d="M12.92,13.06c1.32-1.3,1.9-3.17,1.57-4.99-.08-.51-.26-1.02-.49-1.48l-.32-.58c-.75-1.17-1.9-2.03-3.24-2.4-2.97-.81-6.04.95-6.85,3.92-.13.49-.2,1-.19,1.51-.01,2.62,1.79,4.89,4.34,5.48.82.19,1.67.2,2.49.02.4-.09.79-.24,1.15-.41.56-.28,1.09-.64,1.55-1.09h0ZM8.99,14.55c-1.69,0-3.24-.79-4.23-2.01-.75-.92-1.18-2.06-1.25-3.25v-.21c0-1.48.58-2.87,1.61-3.92.61-.61,1.36-1.07,2.19-1.32.54-.17,1.08-.26,1.66-.26,3.04.01,5.5,2.48,5.49,5.52,0,1.46-.59,2.86-1.62,3.89-1.03,1-2.41,1.57-3.84,1.56Z" style="fill: #ff5000;"/>
    <path d="M9.27,4.11h-.08c-1.92,0-3.66,1.14-4.4,2.91l.08-.15c.81-1.54,2.41-2.5,4.14-2.5.79.02,1.52.19,2.17.54.82.41,1.5,1.07,1.93,1.88.38.68.58,1.45.58,2.22,0,1.15-.43,2.27-1.2,3.12-.02.02-.02.04-.05.06.04-.04.11-.08.15-.15.68-.67,1.14-1.54,1.31-2.48.03-.15.04-.3.05-.45,0-2.65-2.06-4.81-4.68-5Z" style="fill: #ff5000;"/>
    <path d="M13.11,6.79c-.82-1.49-2.4-2.42-4.1-2.42-1.74,0-3.34.96-4.14,2.51.72-1.21,1.95-2.03,3.35-2.22,2.42-.43,4.73,1.16,5.2,3.57.3,1.37-.04,2.8-.92,3.89.78-.86,1.21-1.97,1.2-3.13,0-.77-.21-1.54-.58-2.2h0Z" style="fill: #003594;"/>
  </g>
</svg>