<svg xmlns="http://www.w3.org/2000/svg" viewBox="0 0 18 18">
  <g clip-path="url(#a)">
    <path fill="#F04E44" d="M0 0h18v18H0V0Z"/>
    <path fill="#fff" fill-rule="evenodd" d="M9.346 10.417c.104.197.175.396.21.593l-.068.043a4.519 4.519 0 0 0-.326-.523c-.767.518-1.408 1.107-1.807 1.782l-.074-.05c.14-.635.765-1.324 1.713-1.949-.077-.097-.157-.185-.242-.279-.465.31-.856.631-1.137.957l-.066-.056c.163-.36.524-.734 1.03-1.08a4.313 4.313 0 0 0-.224-.207 5.31 5.31 0 0 0-.544.454l-.062-.065a2.25 2.25 0 0 1 .46-.517C6.74 8.284 4.577 7.552 2.5 7.22l.018-.013c2.51.326 4.389 1.034 5.573 1.873.08-.09.174-.173.28-.253-1.067-.84-2.653-1.524-4.549-1.868l.019-.011c2.15.317 3.781.998 4.703 1.758.1-.066.208-.128.322-.186-.784-.734-2.057-1.327-3.795-1.72l.016-.012c1.923.373 3.246.901 3.897 1.675.792-.38 1.829-.616 2.607-.755l.02.013c-.76.15-1.738.468-2.528.869.036.049.068.097.098.148l-.054.051a3.331 3.331 0 0 0-.138-.15c-.11.058-.214.117-.315.178.083.075.16.148.23.225.958-.544 2.347-.973 3.882-1.206l.02.013c-1.316.242-2.694.738-3.765 1.355.068.086.128.174.176.262 1.225-.664 2.945-1.2 4.704-1.376l.023.012c-1.644.216-3.574.929-4.957 1.783.081.098.154.192.219.293 1.54-.952 3.833-1.716 6.276-1.816l.018.015c-1.599.097-4.226.816-6.154 2.04Zm-.913-1.074a4.1 4.1 0 0 1 .303-.204 6.773 6.773 0 0 0-.238-.21 4.1 4.1 0 0 0-.304.225c.082.063.163.123.24.19Zm.385.355c.093-.057.19-.118.29-.171a4.063 4.063 0 0 0-.216-.237c-.103.064-.202.124-.299.192.079.07.154.144.225.216Z" clip-rule="evenodd"/>
  </g>
  <defs>
    <clipPath id="a">
      <path fill="#fff" d="M0 0h18v18H0z"/>
    </clipPath>
  </defs>
</svg>
