<svg xmlns="http://www.w3.org/2000/svg" viewBox="0 0 18 18">
  <g clip-path="url(#a)">
    <path fill="#C22932" d="M0 0h18v18H0V0Z"/>
    <path fill="#fff" d="M13.35 11.7c-.408.01-1.006.006-1.413 0V7.092c0-.778-.159-1.462-.688-1.92-.657-.569-1.55-.653-2.366-.669a8.098 8.098 0 0 0-3.116.531c.099.517.224 1.027.359 1.534.972-.256 1.984-.397 2.983-.254.327.051.564.255.636.633l.005 1.555c-1.255.14-2.453.196-3.536.967-.918.638-1.223 2.043-.73 3.07.369.741 1.223.99 1.958.958.974-.018 1.642-.623 2.308-1.334.047.33.268.68.489.938.2.252.519.339.815.37.829.076 1.659-.282 2.296-.833V11.7Zm-3.6-.355c-.696.225-1.304.599-2.034.32-.563-.248-.504-1.164-.037-1.49.646-.482 1.318-.47 2.07-.589v1.759Z"/>
  </g>
  <defs>
    <clipPath id="a">
      <path fill="#fff" d="M0 0h18v18H0z"/>
    </clipPath>
  </defs>
</svg>
