<svg xmlns="http://www.w3.org/2000/svg" viewBox="0 0 18 18">
  <path fill="#fafafa" d="M0 0h18v18H0z" />
  <path fill="#231F20" d="m3.5 5.955.99-.337L3.52 3.9 3.5 5.955Z" />
  <path
    fill="#231F20"
    fill-rule="evenodd"
    d="M4.128 6.767a.565.565 0 0 1-.55-.577c0-.32.246-.578.55-.578.305 0 .551.258.551.578 0 .32-.246.577-.55.577Z"
    clip-rule="evenodd"
  />
  <path
    fill="#231F20"
    fill-rule="evenodd"
    d="M6.15 13.9 3.826 6.835l.919-.303 2.324 7.066-.919.302Z"
    clip-rule="evenodd"
  />
  <path
    fill="#231F20"
    fill-rule="evenodd"
    d="M4.128 6.767a.565.565 0 0 1-.55-.577c0-.32.246-.578.55-.578.305 0 .551.258.551.578 0 .32-.246.577-.55.577Z"
    clip-rule="evenodd"
  />
  <path
    fill="#E03A3E"
    fill-rule="evenodd"
    d="m13.24 6.23-.09-.017-.011.06.011-.06-.004-.001-.013-.003a15.31 15.31 0 0 0-.236-.045c-.159-.03-.379-.07-.629-.11-.498-.079-1.115-.162-1.587-.172-.2-.026-.494-.011-.817.021-.312.031-.658.079-.985.124l-.042.006c-.34.047-.656.09-.89.107a1.844 1.844 0 0 1-.279.006.274.274 0 0 1-.073-.015.17.17 0 0 1-.008-.091.298.298 0 0 1 .035-.08l.001-.003a.37.37 0 0 0 .044-.107.26.26 0 0 0-.02-.155.147.147 0 0 0-.063-.076.328.328 0 0 0-.095-.038 1.058 1.058 0 0 0-.241-.024c-.173 0-.365.023-.465.05l-.103.024c-.347.08-.691.161-1.074.35-.323.16-.478.268-.658.392-.054.037-.11.076-.174.118l-.05.034.033.05v.001a.356.356 0 0 1 .01.016 6.03 6.03 0 0 1 .147.235c.097.161.23.39.373.665.287.549.617 1.275.788 1.989.1.384.213.952.304 1.424l.055.282a76.085 76.085 0 0 0 .098.5 1.033 1.033 0 0 0 .019.07.075.075 0 0 0 .008.014.06.06 0 0 0 .068.024c.002 0 .005 0 .008-.002l.027-.007a4.938 4.938 0 0 1 .44-.092c.27-.046.59-.078.814-.035.11.02.205.062.306.113l.106.056c.07.039.147.08.23.119.263.121.614.23 1.212.232.602-.002 1.043-.152 1.444-.303l.109-.042c.357-.136.686-.262 1.087-.278.446-.015.937.056 1.319.127.152.028.286.057.393.079.027.006.052.01.075.016.057.012.104.021.137.026a.338.338 0 0 0 .045.005c.005 0 .015 0 .026-.003a.063.063 0 0 0 .047-.061v-.018l-.009-.015-.002-.004a1.4 1.4 0 0 1-.033-.054 10.041 10.041 0 0 1-.41-.77c-.242-.502-.515-1.177-.648-1.87V9.01l-.001-.002a7.607 7.607 0 0 1-.242-1.731c-.007-.257 0-.483.017-.655a1.87 1.87 0 0 1 .03-.214.34.34 0 0 1 .035-.103l.051-.075Zm-8.48.343-.003.002.003-.002Zm2.831-.444Z"
    clip-rule="evenodd"
  />
  <path
    fill="#fff"
    fill-rule="evenodd"
    d="M9.305 6.747c1.166-.06 2.18.873 2.26 2.08.082 1.202-.801 2.237-1.967 2.297-1.162.06-2.18-.872-2.26-2.076-.081-1.206.801-2.24 1.967-2.3Z"
    clip-rule="evenodd"
  />
  <path
    fill="#485E87"
    fill-rule="evenodd"
    d="M9.49 10.865c-.823 0-1.489-.86-1.489-1.924s.666-1.924 1.49-1.924c.823 0 1.488.86 1.488 1.924 0 1.063-.665 1.924-1.489 1.924Z"
    clip-rule="evenodd"
  />
  <path
    fill="#231F20"
    fill-rule="evenodd"
    d="M6.15 13.9 3.826 6.835l.919-.303 2.324 7.066-.919.302Z"
    clip-rule="evenodd"
  />
  <path
    fill="#fff"
    fill-rule="evenodd"
    d="M9.305 6.747c1.166-.06 2.18.873 2.26 2.08.082 1.202-.801 2.237-1.967 2.297-1.162.06-2.18-.872-2.26-2.076-.081-1.206.801-2.24 1.967-2.3Z"
    clip-rule="evenodd"
  />
  <path
    fill="#005A9C"
    fill-rule="evenodd"
    d="M9.49 10.865c-.823 0-1.489-.86-1.489-1.924s.666-1.924 1.49-1.924c.823 0 1.488.86 1.488 1.924 0 1.063-.665 1.924-1.489 1.924Z"
    clip-rule="evenodd"
  />
</svg>
