<?xml version="1.0" encoding="UTF-8"?>
<svg id="Layer_1" xmlns="http://www.w3.org/2000/svg" viewBox="0 0 18 18">
  <rect width="18" height="18" style="fill: #fafafa;"/>
  <g>
    <path d="M15,8.46H4.09v4.36h10.91v-4.36Z" style="fill: #b2b2b4;"/>
    <path d="M8.82,5.99c.84-.26,1.71-.4,2.59-.4,1.53,0,2.71.49,2.97,1.39.15.5-.01,1.06-.41,1.6h.46c.36-.58.48-1.18.33-1.72-.48-1.58-3.13-2.14-6.03-1.24-2.07.63-3.6,1.78-4.19,2.97h.44c.59-1.01,2.04-2.03,3.86-2.59Z" style="fill: #f68944;"/>
    <path d="M4.36,9.92c.33.98,1.61,1.52,3.34,1.52.83,0,1.75-.13,2.7-.39,1.91-.55,3.36-1.47,4.04-2.47h-.47c-.99,1.05-2.28,1.79-3.69,2.12-2.66.74-5.15.35-5.54-.89-.13-.37-.04-.81.23-1.22h-.44c-.24.47-.31.92-.16,1.34Z" style="fill: #444e69;"/>
    <path d="M3.43,9.73c-.4-1.31,1.44-3,4.1-3.78.84-.25,1.71-.38,2.59-.39,1.53,0,2.71.48,2.97,1.33.15.49-.01,1.16-.41,1.68h.46c.36-.55.48-1.27.33-1.79-.48-1.53-3.13-2.05-6.05-1.2-2.9.87-4.82,2.73-4.34,4.26.14.44.33.8.8,1.07v-.46c-.27-.2-.35-.45-.44-.72Z" style="fill: #aa5155;"/>
    <path d="M9.11,11.02c1.91-.57,3.36-1.4,4.04-2.44h-.47c-.69.89-2.01,1.59-3.69,2.07-2.07.62-4.17.51-5.12-.2v.46c.6.35,1.57.52,2.54.52.83,0,1.75-.14,2.7-.41Z" style="fill: #444e69;"/>
  </g>
</svg>