<svg xmlns="http://www.w3.org/2000/svg" viewBox="0 0 18 18">
  <g clip-path="url(#a)">
    <path fill="#C02820" d="M0 0h18v18H0V0Z"/>
    <path fill="#fff" d="M3 8.608S3.087 5.444 6.704 5.4h2.712l-.61 2.682-2.235.007c-.746.005-.89.618-.89.618s-.042.645.674.718l2.148.001-.618 2.724-1.253.006C2.884 12.079 3 8.608 3 8.608Zm12 0s-.159-3.164-3.775-3.208H10.07l-.602 2.682 1.888.007c.746.005.888.618.888.618s.044.645-.672.718l-2.411.001-1.042 4.531 2.55.008.423-1.81h.204C15.044 12.08 15 8.609 15 8.609Z"/>
  </g>
  <defs>
    <clipPath id="a">
      <path fill="#fff" d="M0 0h18v18H0z"/>
    </clipPath>
  </defs>
</svg>
