<svg xmlns="http://www.w3.org/2000/svg" viewBox="0 0 18 18">
  <g clip-path="url(#a)">
    <path fill="#fff" d="M0 0h18v18H0V0Z"/>
    <path fill="#fff" fill-rule="evenodd" d="M10.01 4.514a8.887 8.887 0 0 1 2.904.318.535.535 0 0 1 .386.583c-.16.973-.322 1.945-.483 2.918a.54.54 0 0 1-.438.446.521.521 0 0 1-.406-.103 2.882 2.882 0 0 0-.755-.486 2.073 2.073 0 0 0-1.303-.12 1.944 1.944 0 0 0-.976.539c-.162.176-.29.405-.278.65.008.19.128.353.275.463.217.16.487.231.753.254a2.95 2.95 0 0 0 1.171-.178c.3-.112.583-.264.848-.443a.522.522 0 0 1 .806.397c.013.122-.028.24-.054.357l-.628 2.655a.551.551 0 0 1-.17.298.599.599 0 0 1-.246.127c-.413.125-.843.182-1.272.229-.358.035-.716.064-1.075.073a6.5 6.5 0 0 1-2.06-.223 4.668 4.668 0 0 1-1.72-.878 3.537 3.537 0 0 1-1.066-1.463 3.297 3.297 0 0 1-.216-1.06c-.02-.354.026-.71.101-1.056a4.67 4.67 0 0 1 .841-1.732A6.152 6.152 0 0 1 6.58 5.61a7.371 7.371 0 0 1 3.43-1.097ZM7.132 5.888c-.832.466-1.574 1.12-2.065 1.945a3.782 3.782 0 0 0-.494 1.313 2.984 2.984 0 0 0 .13 1.579c.133.358.342.685.6.965.38.408.861.713 1.377.918a5.583 5.583 0 0 0 2.127.368 14.176 14.176 0 0 0 1.503-.101c.34-.045.68-.095 1.007-.202.228-.962.454-1.924.683-2.886-.5.337-1.063.593-1.663.678-.373.053-.76.058-1.124-.045a1.662 1.662 0 0 1-.727-.398 1.107 1.107 0 0 1-.344-.695c-.029-.31.077-.619.252-.87.215-.309.523-.545.86-.706.436-.21.931-.294 1.412-.241.61.062 1.174.36 1.632.76l.486-2.932a8.394 8.394 0 0 0-2.394-.317 6.878 6.878 0 0 0-3.258.867Z" clip-rule="evenodd"/>
    <path fill="#E31837" d="M7.133 5.888a6.878 6.878 0 0 1 3.258-.867 8.394 8.394 0 0 1 2.394.317l-.486 2.931c-.458-.399-1.022-.697-1.632-.76a2.622 2.622 0 0 0-1.413.242 2.192 2.192 0 0 0-.859.705 1.34 1.34 0 0 0-.252.871c.023.264.154.513.344.695.2.195.458.325.727.398.365.103.751.098 1.123.045.6-.085 1.164-.341 1.664-.678-.229.961-.455 1.924-.683 2.885-.326.108-.668.158-1.007.202-.499.059-1 .097-1.503.102a5.581 5.581 0 0 1-2.127-.368 3.78 3.78 0 0 1-1.377-.918 2.942 2.942 0 0 1-.6-.965 2.985 2.985 0 0 1-.13-1.579c.075-.465.255-.91.494-1.314.491-.823 1.233-1.478 2.065-1.944Z"/>
  </g>
  <defs>
    <clipPath id="a">
      <path fill="#fff" d="M0 0h18v18H0z"/>
    </clipPath>
  </defs>
</svg>
