<svg xmlns="http://www.w3.org/2000/svg" viewBox="0 0 18 18">
  <g clip-path="url(#a)">
    <path fill="#00A1E0" d="M0 0h18v18H0V0Z"/>
    <path fill="#fff" fill-rule="evenodd" d="M8.228 6.29c.354-.37.848-.6 1.395-.6.726 0 1.36.406 1.697 1.007.301-.135.628-.204.959-.204a2.38 2.38 0 0 1 2.371 2.392 2.382 2.382 0 0 1-2.838 2.346 1.733 1.733 0 0 1-2.272.713 1.978 1.978 0 0 1-3.677-.09c-.124.027-.25.04-.377.04A1.846 1.846 0 0 1 3.65 10.04a1.858 1.858 0 0 1 .918-1.607 2.135 2.135 0 0 1 3.66-2.142Z" clip-rule="evenodd"/>
  </g>
  <defs>
    <clipPath id="a">
      <path fill="#fff" d="M0 0h18v18H0z"/>
    </clipPath>
  </defs>
</svg>
