<svg xmlns="http://www.w3.org/2000/svg" viewBox="0 0 18 18">
  <g clip-path="url(#a)">
    <path fill="#00BCEB" d="M0 0h18v18H0V0Z"/>
    <path fill="#fff" d="M2 9.947a.304.304 0 0 0 .606 0v-.674a.303.303 0 0 0-.606 0v.674Z"/>
    <path fill="#fff" fill-rule="evenodd" d="M1.9 9.947V9.27a.403.403 0 0 1 .806 0v.683a.404.404 0 0 1-.806 0v-.007Zm.61.2a.304.304 0 0 0 .096-.2v-.674a.303.303 0 0 0-.606 0v.674a.304.304 0 0 0 .51.2Z" clip-rule="evenodd"/>
    <path fill="#fff" d="M3.678 9.947a.304.304 0 0 0 .606 0v-1.51a.303.303 0 0 0-.606 0v1.51Z"/>
    <path fill="#fff" fill-rule="evenodd" d="M3.981 10.328a.404.404 0 0 1-.403-.374l.098-.007h-.098V8.433a.403.403 0 0 1 .806 0v1.521a.404.404 0 0 1-.403.374Zm-.303-.381a.304.304 0 0 0 .606 0v-1.51a.303.303 0 0 0-.606 0v1.51Z" clip-rule="evenodd"/>
    <path fill="#fff" d="M5.347 10.555a.304.304 0 0 0 .606 0V7.288a.303.303 0 0 0-.606 0v3.267Z"/>
    <path fill="#fff" fill-rule="evenodd" d="M5.247 10.555V7.283a.404.404 0 0 1 .806 0v3.279a.404.404 0 0 1-.806 0v-.007Zm.706 0a.304.304 0 0 1-.606 0V7.288a.303.303 0 0 1 .606 0v3.267Z" clip-rule="evenodd"/>
    <path fill="#fff" d="M7.03 9.947a.304.304 0 0 0 .607 0v-1.51a.303.303 0 0 0-.607 0v1.51Z"/>
    <path fill="#fff" fill-rule="evenodd" d="M7.333 10.328a.404.404 0 0 1-.402-.374l.098-.007H6.93V8.433a.403.403 0 0 1 .807 0v1.521a.404.404 0 0 1-.404.374Zm-.303-.381a.304.304 0 0 0 .607 0v-1.51a.303.303 0 0 0-.607 0v1.51Z" clip-rule="evenodd"/>
    <path fill="#fff" d="M8.705 9.947a.304.304 0 0 0 .606 0v-.674a.303.303 0 0 0-.606 0v.674Z"/>
    <path fill="#fff" fill-rule="evenodd" d="M8.605 9.947V9.27a.403.403 0 0 1 .806 0v.683a.404.404 0 0 1-.806 0v-.007Zm.61.2a.304.304 0 0 0 .096-.2v-.674a.303.303 0 0 0-.606 0v.674a.304.304 0 0 0 .51.2Z" clip-rule="evenodd"/>
    <path fill="#fff" d="M10.383 9.947a.305.305 0 0 0 .606 0v-1.51a.303.303 0 0 0-.606 0v1.51Z"/>
    <path fill="#fff" fill-rule="evenodd" d="M10.283 9.947V8.433a.404.404 0 0 1 .806 0v1.521a.404.404 0 0 1-.806 0v-.007Zm.403.281a.304.304 0 0 1-.303-.281v-1.51a.304.304 0 0 1 .606 0v1.51a.304.304 0 0 1-.303.281Z" clip-rule="evenodd"/>
    <path fill="#fff" d="M12.052 10.555a.304.304 0 0 0 .606 0V7.288a.303.303 0 0 0-.606 0v3.267Z"/>
    <path fill="#fff" fill-rule="evenodd" d="M11.952 10.555V7.283a.403.403 0 0 1 .806 0v3.279a.404.404 0 0 1-.806 0v-.007Zm.706 0a.304.304 0 0 1-.606 0V7.288a.303.303 0 0 1 .606 0v3.267Z" clip-rule="evenodd"/>
    <path fill="#fff" d="M13.735 9.947a.304.304 0 0 0 .607 0v-1.51a.303.303 0 0 0-.607 0v1.51Z"/>
    <path fill="#fff" fill-rule="evenodd" d="M14.038 10.328a.404.404 0 0 1-.402-.374l.098-.007h-.099V8.433a.404.404 0 0 1 .806 0v1.521a.404.404 0 0 1-.403.374Zm-.303-.381a.304.304 0 0 0 .607 0v-1.51a.303.303 0 0 0-.607 0v1.51Z" clip-rule="evenodd"/>
    <path fill="#fff" d="M15.394 9.947a.304.304 0 0 0 .606 0v-.674a.303.303 0 0 0-.606 0v.674Z"/>
    <path fill="#fff" fill-rule="evenodd" d="M15.294 9.947V9.27a.403.403 0 0 1 .806 0v.683a.405.405 0 0 1-.806 0v-.007Zm.61.2a.304.304 0 0 0 .096-.2v-.674a.303.303 0 0 0-.606 0v.674a.304.304 0 0 0 .51.2Z" clip-rule="evenodd"/>
  </g>
  <defs>
    <clipPath id="a">
      <path fill="#fff" d="M0 0h18v18H0z"/>
    </clipPath>
  </defs>
</svg>
