<svg xmlns="http://www.w3.org/2000/svg" viewBox="0 0 18 18">
  <g clip-path="url(#a)">
    <path fill="#fff" d="M0 0h18v18H0V0Z"/>
    <path fill="#E4001C" fill-rule="evenodd" d="M10.946 6.806v4.396c0 .784-.587 1.578-1.624 1.578-.45 0-1.243.061-2.275-.25V5.486c1.174-.36 1.825-.26 2.275-.26 1.037 0 1.624.794 1.624 1.579Zm-1.285.106c0-.393-.24-.527-.526-.527-.223 0-.567-.02-.848.052v5.14c.28.077.625.043.848.043.285 0 .526-.131.526-.524V6.911Z" clip-rule="evenodd"/>
    <path fill="#E4001C" d="M15 8.99c0 1.024-.925 1.983-2.533 2.805V6.208C14.075 7.025 15 7.976 15 8.989ZM5.533 6.208v5.587C3.925 10.973 3 10.015 3 8.989c0-1.013.925-1.964 2.533-2.781Z"/>
  </g>
  <defs>
    <clipPath id="a">
      <path fill="#fff" d="M0 0h18v18H0z"/>
    </clipPath>
  </defs>
</svg>
