<svg xmlns="http://www.w3.org/2000/svg" viewBox="0 0 18 18">
  <g clip-path="url(#a)">
    <path fill="#367C2B" d="M0 0h18v18H0V0Z"/>
    <path fill="#FFDE00" fill-rule="evenodd" d="M7.08 7.546a5.747 5.747 0 0 0-.575 1.968l-.172.016c-.608.056-1.236.103-1.844.338l.043.246c.992 1.235 2.497 1.98 2.512 1.986l.035-.037-.325-.518c-.078-.058-.281-.104-.287-.105-.678-.226-1.153-1.112-1.231-1.263.558-.002 1.048.16 1.522.316.313.104.608.201.914.251.537.087 1.099-.014 1.604-.077.41-.05.808-.049 1.205-.023.048.059.465.563.862.771.5.262 1.953.696 2.025.72.03.028.59.591.933 1.243a12.754 12.754 0 0 1-5.299 1.146c-1.844 0-3.682-.4-5.316-1.157a12.073 12.073 0 0 1-.813-4.369c0-1.502.274-2.972.814-4.369a12.73 12.73 0 0 1 5.315-1.157c1.844 0 3.68.399 5.309 1.15.541 1.4.816 2.871.816 4.376 0 1.379-.23 2.725-.68 4.008-.52-.9-.73-1.172-.73-1.172-.006-.005-.733-.384-.913-.538-.143-.125-.211-.378-.29-.67-.11-.406-.248-.908-.641-1.323l.437-.18c-.121-.842-1.12-1.39-1.13-1.395l-.056.026c.38.478.492.885.492 1.133 0 .126-.02.21-.03.245-.113-.042-.85-.28-2.527-.217-.247.008-.599-.003-.81-.208-.119-.115-.178-.28-.178-.493v-.002c0-.581.246-1.365.28-1.475l.439.053c.52-.29.724-.539.752-.578l-.024-.025a17.76 17.76 0 0 0-1.026.174 2.43 2.43 0 0 0 .156-.816c0-.408-.137-.867-.657-1.134l-.055.027c.004.004.303.328.303.774a.993.993 0 0 1-.083.394c-.17-.07-.24-.078-.443-.083-.1-.349-.404-.645-.818-.795l-.05.03c.004.004.443.316.468.776-.221.018-.315.04-.588.123-.114-.191-.374-.328-.702-.367l-.042.033c.004.001.389.135.476.43a3.38 3.38 0 0 0-.656.415l.017.064c1-.388 1.933-.501 2.171-.219.04.048.06.104.06.17 0 .083-.031.18-.095.289-.495.108-1.234.318-1.842.547l.082.255s.61.124.843.173c0 0 .087.012.043.1Zm7.536-3.188A13.226 13.226 0 0 0 9.002 3.12c-2.006 0-3.93.448-5.62 1.246A12.542 12.542 0 0 0 2.5 9.002c0 1.628.311 3.19.879 4.627 1.69.8 3.615 1.248 5.623 1.248 2.002 0 3.932-.446 5.617-1.24.569-1.44.881-3.003.881-4.635 0-1.636-.313-3.2-.884-4.644Z" clip-rule="evenodd"/>
  </g>
  <defs>
    <clipPath id="a">
      <path fill="#fff" d="M0 0h18v18H0z"/>
    </clipPath>
  </defs>
</svg>
