<svg xmlns="http://www.w3.org/2000/svg" viewBox="0 0 18 18">
  <g clip-path="url(#a)">
    <path fill="#FEF9F3" d="M0 0h18v18H0V0Z"/>
    <path fill-rule="evenodd" d="M11.53 5.68c-.824-.722-2.007-1.047-3.585-1.047H6.081v8.734H7.91c1.613 0 2.832-.361 3.656-1.12C12.498 11.383 13 10.336 13 9c0-1.372-.502-2.49-1.47-3.32Zm-3.584 6.315c1.218 0 2.115-.288 2.652-.794.61-.577.932-1.299.932-2.201 0-.939-.322-1.696-.967-2.274-.538-.47-1.399-.722-2.617-.722H7.55v5.991h.395Z" clip-rule="evenodd"/>
  </g>
  <defs>
    <clipPath id="a">
      <path fill="#fff" d="M0 0h18v18H0z"/>
    </clipPath>
  </defs>
</svg>
