<svg xmlns="http://www.w3.org/2000/svg" viewBox="0 0 18 18">
  <g clip-path="url(#a)">
    <path fill="#fff" d="M18 0H0v18h18V0Z" />
    <path fill="#4C00FF"
      d="M11.648 11.293v2.59c0 .136-.11.246-.246.246H4.596a.246.246 0 0 1-.246-.246V7.08c0-.136.11-.246.246-.246H7.18v4.212c0 .136.11.246.246.246h4.222Z" />
    <path fill="#FF5252"
      d="M14.484 7.641c0 2.177-1.271 3.647-2.836 3.652V8.552a.284.284 0 0 0-.089-.21L10.136 6.92a.293.293 0 0 0-.209-.089H7.186V4.246c0-.136.11-.246.246-.246h3.834c1.821-.005 3.218 1.46 3.218 3.641Z" />
    <path
      d="M11.56 8.337a.296.296 0 0 1 .088.21v2.741H7.432a.246.246 0 0 1-.246-.246V6.831h2.741c.079 0 .157.031.21.089l1.422 1.417Z" />
  </g>
  <defs>
    <clipPath id="a">
      <path fill="#fff" d="M0 0h18v18H0z" />
    </clipPath>
  </defs>
</svg>