<svg xmlns="http://www.w3.org/2000/svg" viewBox="0 0 18 18">
  <g clip-path="url(#a)">
    <path fill="#E80033" d="M0 0h18v18H0V0Z"/>
    <path fill="#fff" d="m16.5 8.962-7.506 2.506L1.5 8.974l7.494-2.47 1.687.554L16.5 8.962Z"/>
    <path fill="#E80033" fill-rule="evenodd" d="M10.115 9.056c-.012.565-.509.888-1.097.888-.589 0-1.075-.335-1.075-.888 0-.555.462-.913 1.086-.913.6 0 1.086.37 1.086.913Zm-.52-.006c0-.24-.258-.434-.577-.434-.32 0-.578.194-.578.434s.258.432.578.432c.319 0 .577-.193.577-.432Z" clip-rule="evenodd"/>
    <path fill="#E80033" d="M10.091 8.293h.924v.116h-.046a.111.111 0 0 0-.104.08.103.103 0 0 0 0 .116l.277.658.382-.958h.508l.392.958.289-.681a.089.089 0 0 0-.024-.093c-.022-.034-.057-.057-.092-.057h-.058v-.116h.912v.116h-.057a.185.185 0 0 0-.127.057.19.19 0 0 0-.081.104l-.45 1.04a.167.167 0 0 0 0 .104c.023.022.046.046.08.046h.07v.115h-.912v-.104h.069c.035 0 .058-.023.07-.046a.098.098 0 0 0 0-.081l-.335-.762-.324.751a.071.071 0 0 0-.012.08c.012.023.035.047.07.047h.034v.115h-.9v-.115h.045a.1.1 0 0 0 .082-.046.087.087 0 0 0 0-.104l-.45-1.074c-.012-.046-.036-.081-.082-.093-.034-.01-.069-.046-.104-.046h-.057l.011-.127Z"/>
    <path fill="#E80033" fill-rule="evenodd" d="M7.631 8.894a1.02 1.02 0 0 1-1.003 1.004H5.229v-.115h.07c.046 0 .08-.024.104-.058.024-.012.034-.058.034-.092V8.155a.159.159 0 0 0-.15-.128H5.22v-.114h1.385c.439 0 1.005.392 1.027.98Zm-.98.577a.538.538 0 0 0 .473-.577c-.035-.404-.22-.566-.532-.566h-.669V9.47h.727Z" clip-rule="evenodd"/>
  </g>
  <defs>
    <clipPath id="a">
      <path fill="#fff" d="M0 0h18v18H0z"/>
    </clipPath>
  </defs>
</svg>
