<?xml version="1.0" encoding="UTF-8"?>
<svg id="Layer_1" xmlns="http://www.w3.org/2000/svg" viewBox="0 0 18 18">
  <path d="M0,0h18v18H0V0Z" style="fill: #ed008c;"/>
  <g>
    <path d="M12.5,8.71h-1.75v1.75h1.75v-1.75ZM7.25,8.71h-1.75v1.75h1.75v-1.75Z" style="fill: #fff;"/>
    <path d="M9.58,4.92h.25c1.35,0,1.82.65,2.08,2.62h.58v-3.21h-7v3.21h.58c.07-.74.11-1.2.29-1.6.32-.74.85-1.02,1.68-1.02h.37v6.85c0,.72-.11.95-.28,1.12-.14.13-.42.19-.74.19h-.44v.58h4.08v-.58h-.47c-.32,0-.6-.06-.74-.19-.17-.17-.25-.4-.25-1.12v-6.85Z" style="fill: #fff;"/>
  </g>
</svg>