<svg xmlns="http://www.w3.org/2000/svg" viewBox="0 0 18 18">
  <g clip-path="url(#a)">
    <path fill="#000025" d="M0 0h18v18H0V0Z"/>
    <path fill="#FAB600" d="M10.523 5.976c-.35-.013-.5.444-.823.526-.35.175-.714.189-1.173.067 0 .054 0 .094.027.162-.391-.162-.714.148-1.267.04-.377-.053-.526-.242-.606-.242-.243 0-.486-.027-.648-.23v-.013c.23-.216.473-.296.742-.337.026-.081-.175-.243-.094-.243.175 0 .336-.067.498-.134.512-.244.93-.148 1.375.04.122.04.324.054.324.054.094.014.19.04.27.04 0 .054-.054.068-.054.122.093.067.215.04.337.04.323 0 .647-.242.97-.054.054.028.122.108.122.163m-4.8.093s-.02.014 0 .055l.27.539c.162.067.256.08.405.121.054 0 .081-.108.148-.067.03.104-.025.318-.03.337 0 0-.015.062-.055.054l-.589-.122c-.108-.053-.161-.202-.27-.256l-.013.014c.202.256.23.795.66.769-.013.053-.086.12-.134.147-.135.081-.378.028-.458-.026a2.889 2.889 0 0 1-.203-.202l-.027-.029-.017.014s.206.338.112.567c-.162-.067-.324-.148-.486-.161-.174.134-.283.378-.334.571-.047.005-.095-.034-.124-.073-.125-.174.02-.575.02-.575l-.038-.01c-.033.095-.196.649-.628.72a3.28 3.28 0 0 0 .04-.117c.024-.07.013-.126.013-.126a1.56 1.56 0 0 1 .118-.702L4.08 7.5c-.122.135-.346.202-.494.135.337-.23.116-.648.291-.958.014-.026.028-.04.028-.067-.068-.04-.136-.027-.203-.054A.318.318 0 0 1 3.5 6.38c.216-.094.331-.293.458-.512.088-.15.23-.256.378-.256.025 0 .032-.02.027-.054a47.786 47.786 0 0 1-.108-.809l.741.552c.053.02.108 0 .148-.013.459-.161.836-.337 1.321-.512.027-.011.065.022.081.094l.135.607c.027.135-.12.108-.175.189-.04.067-.013.215-.108.215-.04-.04-.04-.122-.094-.122-.054.068-.013.203-.108.23-.04-.041-.04-.108-.108-.121l-.364.201m-.215-.35a.156.156 0 0 0-.162-.161c-.081 0-.149.067-.149.161s.068.162.149.162a.156.156 0 0 0 .162-.162Zm.818 4.89c-.011.158-.009.358.04.515.07.22.172.375.14.633-.022.171-.2.249-.309.336-.045.036-.164.095-.124.15 0 0 .007.014.023.028l.416.367c.032.028.047.007.047.007.098-.136.114-.337.193-.483.033-.061.056-.135.172-.168.188-.054.236-.21.236-.21-.206.021-.248-.018-.236-.064.02-.06.105-.076.236-.117.16-.049.232-.215.232-.215-.175.045-.287.03-.316-.005-.032-.036.006-.079.006-.079.106-.137.364-.092.456-.328.005-.012-.273.09-.373-.04-.058-.077-.002-.144.04-.24.033-.074.043-.091.083-.088.434.04.696-.033.856-.059 0 0 .118-.024.097.082-.079.341-.193.665-.249 1.017 0 0-.003.029-.029.057-.115.132-.25.217-.38.295-.094.057-.195.077-.24.173 0 0-.022.05.018.084l.485.39c.025.02.039-.003.039-.003.093-.117.167-.27.221-.406.035-.088.018-.157.071-.212 0 0 .031-.038.094-.057.075-.023.213-.058.262-.113.036-.041-.088-.016-.138-.109-.019-.035.043-.048.043-.048.14-.043.296-.024.389-.146-.184.003-.254-.062-.222-.09.062-.055.376-.05.483-.197-.022 0-.173-.003-.231-.048-.02-.015-.006-.035-.006-.035.044-.067.19-.114.19-.114.27-.093.255-.188.255-.188-.095 0-.304-.018-.282-.11.025-.106.201-.16.31-.174.147.337.348.646.576.942.017.022.055.058.015.11l-.512.62c-.025.03-.03.082.014.082l.728-.027c.051-.007.094-.027.108-.067.014-.203-.052-.425.04-.607.04-.08.17-.194.204-.283-.034.015-.27.022-.125-.066.179-.107.201-.229.201-.229-.07.013-.166.013-.218-.036-.021-.02.009-.032.009-.032.089-.042.24-.135.226-.26a.37.37 0 0 1-.227.012c-.084-.022-.14-.068-.11-.131.06-.127.15-.24.244-.335.038-.036.083-.053.095-.011.03.111.042.315.186.495.175.108.338.255.485.445.068.12.176.215.15.363l-.445.674s-.026.037-.008.06c.017.024.04.026.056.022l.692-.163s.023-.004.034-.016c.007-.009.007-.024.007-.024l-.027-.478c0-.104.15-.126.256-.264-.062.003-.121-.037-.13-.08-.017-.072.165-.06.22-.261-.105.037-.22.061-.24.015-.01-.024.016-.04.016-.04.13-.08.202-.151.215-.28-.05 0-.39.09-.517-.095-.042-.062-.035-.295-.034-.394 0 0-.001-.036.027-.027.39.246.996.407 1.521.502 0 0 .07.011.095.054.216.378.431.72.663 1.091a.868.868 0 0 1 .112.242c-.122.216-.337.42-.51.625-.067.08-.022.101.036.093l.71-.11s.045-.005.054-.055c.014-.16-.065-.474.283-.66-.055-.067-.124-.106-.214-.18-.13-.105-.182-.23-.233-.34 0 0-.072-.156.052-.28.112-.111.16-.193.16-.193-.135.03-.227-.016-.224-.112.004-.096.174-.096.216-.251-.175.026-.32-.027-.337-.086-.02-.069.296-.15.268-.352-.067.04-.268.057-.335.015-.09-.056.03-.2.013-.201a.724.724 0 0 1-.472-.216 1.087 1.087 0 0 1-.202-.338c-.19-.471-.337-.943-.674-1.347-.08-.094-.107-.108-.216-.19-.035-.026-.02-.084.052-.143a.959.959 0 1 0-1.43-1.25l-.027.04a1.904 1.904 0 0 0-.185.343c-.216.526-.149.786-.499 1.042a.247.247 0 0 1-.31-.058c-.054-.067-.122-.176-.081-.27.04.027.082.1.132.136a.165.165 0 0 0 .178.013.225.225 0 0 0 .109-.201.331.331 0 0 0-.122-.244c-.108-.094-.284-.08-.405-.013a.432.432 0 0 0-.229.458c.013.135.113.321.19.436a.157.157 0 0 1-.093.108c-.098.03-.166-.012-.23-.097a.43.43 0 0 1-.058-.1c-.056.05-.086.172-.085.315 0 .066-.046.059-.08.036-.116-.078-.174-.187-.217-.332 0 0-.08.043-.106.201-.016.092 0 .215-.068.213-.144-.004-.21-.267-.224-.443-.053 0-.107.081-.149.182-.034.084-.104.282-.18.274-.088-.009-.135-.308-.131-.507-.14.029-.268.34-.344.457-.023.037-.04.003-.04.003-.072-.124-.066-.381-.078-.555 0-.007-.013 0-.013 0-.143.065-.294.454-.498.49-.081.014-.046-.05-.046-.05.074-.168.102-.42-.013-.594 0 0-.201.251-.273.314-.056.049-.16.126-.261.174-.028.013-.037.002-.04-.002-.007-.01 0-.028 0-.028.038-.126.193-.367.085-.724-.094.108-.133.196-.416.277a.587.587 0 0 1-.408-.04c-.01.12-.037.27-.145.372 0 0-.373-.192-.48-.178-.095.014-.235.392-.302.62-.162.006-.363-.148-.397-.314-.128.34-.119.753-.042 1.158.2 1.059.558 1.759.76 2.97.075.45-.39.75-.593 1.114 0 0-.027.047.037.048.192.001.36.01.582 0 .06-.002.152-.067.169-.142.052-.225.096-.493.177-.722.028-.106.197-.304.425-.449.011-.007-.125-.078-.081-.17.041-.086.187-.14.236-.29-.159-.042-.184-.12-.184-.12-.039-.107.172-.117.263-.296-.257-.072-.295-.165-.295-.165s-.045-.075.065-.119c.296-.121.24-.237.24-.237-.316.026-.407-.094-.406-.192v-.252c0-.038.04-.014.04-.014.174.087.361.124.53.152 0 0 .023.004.02.034v-.002Zm4.14-2.486.016-.018c.31-.323.486-.862.62-1.119.161-.296.324-.431.566-.445h.053a.543.543 0 1 1-.09 1.075.541.541 0 0 1-.277-.136c-.117.176-.268.365-.44.476-.136.095-.298.19-.445.19-.017-.001-.013-.015-.004-.024"/>
  </g>
  <defs>
    <clipPath id="a">
      <path fill="#fff" d="M0 0h18v18H0z"/>
    </clipPath>
  </defs>
</svg>
