<svg xmlns="http://www.w3.org/2000/svg" viewBox="0 0 18 18">
  <g clip-path="url(#a)">
    <path fill="#fff" d="M0 0h18v18H0V0Z"/>
    <path fill="#F5AF02" d="M11.115 9.522c-.636.022-1.031.139-1.031.556 0 .27.22.563.768.563.739 0 1.126-.403 1.126-1.06v-.074c-.256 0-.578.007-.863.015Zm1.566.87c0 .205.007.402.022.585h-.651a4.53 4.53 0 0 1-.022-.439c-.351.432-.776.556-1.354.556-.87 0-1.33-.453-1.33-.987 0-.768.628-1.032 1.718-1.06.3-.008.636-.008.914-.008v-.073c0-.512-.329-.724-.9-.724-.424 0-.73.175-.767.475h-.74c.081-.753.871-.944 1.566-.944.834 0 1.536.3 1.536 1.178v1.441h.008Z"/>
    <path fill="#E53238" d="M5.044 9.149c-.03-.659-.497-.9-1.01-.9-.54-.007-.98.27-1.053.9h2.063Zm-2.077.468c.036.636.475 1.016 1.082 1.016.417 0 .79-.168.915-.54h.724c-.146.745-.944 1.001-1.631 1.001-1.251 0-1.807-.687-1.807-1.616 0-1.024.57-1.697 1.814-1.697.987 0 1.719.52 1.719 1.646v.19H2.967Z"/>
    <path fill="#0064D2" d="M7.582 10.611c.651 0 1.097-.468 1.097-1.177 0-.71-.446-1.178-1.097-1.178-.65 0-1.097.468-1.097 1.178s.446 1.177 1.097 1.177Zm-1.8-4.067h.703v1.763c.344-.41.82-.526 1.287-.526.783 0 1.654.526 1.654 1.667 0 .951-.688 1.646-1.66 1.646-.513 0-.988-.183-1.288-.541 0 .146-.007.292-.022.431H5.76c.015-.22.022-.497.022-.724V6.544Z"/>
    <path fill="#86B817" d="m16.25 7.898-2.172 4.264h-.783l.622-1.185-1.631-3.08h.819l1.2 2.407 1.199-2.406h.746Z"/>
  </g>
  <defs>
    <clipPath id="a">
      <path fill="#fff" d="M0 0h18v18H0z"/>
    </clipPath>
  </defs>
</svg>
