<?xml version="1.0" encoding="UTF-8"?>
<svg id="Layer_1" xmlns="http://www.w3.org/2000/svg" viewBox="0 0 18 18">
  <rect width="18" height="18" style="fill: #0a0a0a;"/>
  <g>
    <path d="M4,11.53s6.36,2.14,8.15-3.39c.96,1.04,2.11,2.13,1.79,3.65-.86,4.04-6.72,3.14-8.76,1.43-.48-.54-.86-1-1.19-1.69Z" style="fill: #008fd1;"/>
    <path d="M10.94,3.35c.02-.08-1.36.09-2.1,1.77,0,0-2.32,5.93,3.85,8.74,0,0,3.08-2.21-.27-5.45-1.89-1.82-1.87-3.69-1.47-5.06Z" style="fill: #eae100;"/>
    <path d="M9.52,11.36c.65.93,1.64,1.8,3.15,2.49.62-.46,1.09-1.12,1.28-2.05.09-.64-.03-1.43-.62-2.31-.35-.48-.78-.91-1.17-1.34-.55,1.7-1.54,2.68-2.64,3.21Z" style="fill: #2a9f3a;"/>
  </g>
</svg>