<?xml version="1.0" encoding="UTF-8"?>
<svg id="Layer_1" xmlns="http://www.w3.org/2000/svg" viewBox="0 0 18 18">
  <path d="M0,0h18v18H0V0Z" style="fill: #f56600;"/>
  <path d="M4.52,4.31h2.97l1.22,2.19h-1.74l1.23,2.19h-2.97l-1.23-2.19h1.67s-1.15-2.19-1.15-2.19ZM13.5,4.31h-2.98l-1.23,2.19h1.75l-1.24,2.19h2.98l1.22-2.19h-1.69s1.19-2.19,1.19-2.19ZM4.53,13.69h2.95l1.23-2.19h-1.73l1.22-2.19h-2.96l-1.24,2.19h1.66s-1.13,2.19-1.13,2.19ZM13.52,13.69h-2.99l-1.23-2.19h1.75l-1.24-2.19h2.99l1.21,2.19h-1.68s1.2,2.19,1.2,2.19Z" style="fill: #fff;"/>
</svg>