<?xml version="1.0" encoding="UTF-8"?>
<svg id="Layer_1" xmlns="http://www.w3.org/2000/svg" viewBox="0 0 18 18">
  <path d="M0,0h18v18H0V0Z" style="fill: #f21c0a;"/>
  <path d="M15,8.54c0,.41-.48,1.79-.56,2-.05.14-.15.16-.28.16-.23,0-.41-.05-.49-.12-.03-.02-.04-.06-.03-.09.09-.26.42-1.21.42-1.41,0-.11-.03-.21-.14-.21-.67,0-1.9,1.46-2.13,1.72-.07.08-.19.1-.31.1-.16,0-.33-.08-.34-.09-.05-.03-.05-.05-.04-.12l.04-.17c.21-.74.47-1.46.76-2.17.01-.03.02-.05.08-.06.03,0,.12-.03.25-.03.1,0,.28,0,.37.05v.15c0,.07,0,.34.21.34.35,0,1-.61,1.57-.61.5,0,.62.31.62.55ZM7.89,9.05c0,.08-.1.32-.11.35-.09.22-.32.25-.48.25-.24,0-.33-.09-.33-.23,0-.11.09-.29.1-.32.11-.25.3-.28.5-.28.16,0,.32.07.32.22h0ZM5.82,8.52c0-.16,0-.39-.13-.39-.4,0-1.12.62-1.19.7-.05.05-.01.04.06.04h.91c.32,0,.35-.05.35-.35h0ZM6.79,8.6c0,.79-.48.95-1.01.95h-.38c-.37,0-1.12-.02-1.12-.02-.06,0-.11-.01-.11.02,0,.25.29.64.73.64.23,0,.45-.1.61-.27,0,0,.4-.05.65-.05s.61.04.61.18c0,.28-.89.71-1.64.71-1.13,0-2.14-.62-2.14-1.36,0-1.25,2.39-2.18,3.08-2.18.63,0,.71,1.01.71,1.37h0ZM9.78,8.59c-.08,0-.21,0-.27.08-.22.3-.36,1.05-.36,1.25,0,.14.1.13.23.13.08,0,.2,0,.27-.07.19-.2.35-1.09.35-1.25,0-.11,0-.14-.22-.14ZM11.2,8.54c0,.34-.34,1.09-.44,1.3-.45.87-1.05.86-1.73.86-.33,0-1.07,0-1.07-.62,0-.28.24-.79.44-1.28.09-.21.44-.9,1.67-.9.5,0,1.13.08,1.13.63h0Z" style="fill: #fff;"/>
</svg>