<svg xmlns="http://www.w3.org/2000/svg" viewBox="0 0 18 18" fill="#0a0a0a">
  <g clip-path="url(#a)">
    <path d="M0 0h18v18H0V0Z" />
    <path
      fill="#fff"
      d="M13.002 7.67a1.082 1.082 0 0 1-.682 1.365l-5.943 1.978a1.082 1.082 0 0 1-1.365-.683 1.082 1.082 0 0 1 .683-1.365l5.942-1.978a1.082 1.082 0 0 1 1.365.683Zm0-3.432a1.082 1.082 0 0 1-.682 1.365L6.377 7.58a1.082 1.082 0 0 1-1.365-.683 1.08 1.08 0 0 1 .683-1.364l5.942-1.979a1.081 1.081 0 0 1 1.365.683Zm-.01 6.863a1.081 1.081 0 0 1-.682 1.365l-5.943 1.979a1.08 1.08 0 0 1-1.364-.683 1.081 1.081 0 0 1 .682-1.365l5.952-1.978a1.067 1.067 0 0 1 1.355.682Z"
    />
  </g>
  <defs>
    <clipPath id="a">
      <path fill="#fff" d="M0 0h18v18H0z" />
    </clipPath>
  </defs>
</svg>
