<svg xmlns="http://www.w3.org/2000/svg" viewBox="0 0 18 18">
  <g clip-path="url(#a)">
    <path fill="#E06D35" d="M0 0h18v18H0V0Z"/>
    <path fill="#fff" d="M3.653 6.47v1.879s.658 0 1.003-.031c.188.031.344-.094.375-.282.032-.032.032-.032.032-.063l.094-.407h.313l-.063.877.032.908h-.314l-.062-.344c-.032-.188-.188-.345-.376-.345-.25-.031-1.034-.031-1.034-.031v1.566c0 .313.157.438.501.438H5.22a.801.801 0 0 0 .877-.5l.282-.627h.25c-.03.125-.156 1.253-.187 1.503 0 0-.971-.031-1.378-.031H3.246l-1.096.031v-.282l.345-.062c.281-.032.375-.094.375-.313 0 0 .032-.69.032-1.848 0-1.16-.032-1.786-.032-1.786 0-.25-.094-.282-.344-.344l-.345-.063v-.282l1.065.032h2.036C5.689 6.063 6.378 6 6.378 6s-.031.407-.062 1.41h-.282l-.094-.345c-.094-.47-.25-.69-.533-.69H3.81c-.157 0-.157.032-.157.095Zm4.135.219H8.1v1.065l1.033-.063-.062.47-1.003-.063v1.88c0 .532.188.751.47.751a.67.67 0 0 0 .564-.282l.157.188a1.069 1.069 0 0 1-1.003.533.845.845 0 0 1-.908-.783V8.13h-.595v-.25c.501-.063.877-.377 1.034-1.191ZM9.98 9.946l.188.47a.615.615 0 0 0 .658.407c.438 0 .626-.219.626-.5 0-.878-1.691-.627-1.691-1.786 0-.658.532-.971 1.221-.971.345 0 .658.063 1.003.157-.063.281-.063.563-.063.845l-.282.032-.188-.502c-.125-.156-.313-.25-.501-.219-.313 0-.627.125-.627.47 0 .783 1.754.626 1.754 1.785 0 .658-.595 1.002-1.284 1.002-.376 0-.72-.093-1.065-.219a5.028 5.028 0 0 0 0-.97h.251Zm1.973 2.443a54.6 54.6 0 0 0 .188-.97l.282-.032.094.532c.031.157.157.251.313.22.345 0 .752-.188 1.159-.909-.188-.438-.72-1.816-1.19-2.912-.125-.282-.157-.314-.313-.345l-.126-.062v-.22l.752.032.94-.063v.25l-.22.063c-.125 0-.25.094-.25.22 0 .03 0 .062.031.093.063.157.47 1.284.752 2.068.25-.533.751-1.723.814-1.942.031-.063.031-.126.063-.188a.27.27 0 0 0-.25-.25l-.22-.032V7.66l.72.031.658-.031v.25l-.125.126c-.188.031-.313.156-.376.344l-1.128 2.631c-.657 1.504-1.346 1.629-1.848 1.629-.25-.032-.5-.094-.72-.25Z"/>
  </g>
  <defs>
    <clipPath id="a">
      <path fill="#fff" d="M0 0h18v18H0z"/>
    </clipPath>
  </defs>
</svg>
