<svg xmlns="http://www.w3.org/2000/svg" viewBox="0 0 18 18">
  <g clip-path="url(#a)">
    <path fill="#2A007C" d="M0 0h18v18H0V0Z"/>
    <path fill="#FF5900" d="m14.24 8.371.62.684.598-.684h1.275l-1.246 1.402 1.263 1.413h-1.327l-.614-.69-.61.69h-1.28l1.252-1.407-1.252-1.408h1.32Zm-1.322-.001v.95H11.5v.873h1.418v.991h-2.461V6.75h2.461v.988H11.5v.631h1.418Z"/>
    <path fill="#fff" d="M9.42 6.75v1.815h-.012c-.23-.265-.517-.356-.85-.356-.683 0-1.197.464-1.378 1.077-.206-.676-.737-1.09-1.524-1.09-.639 0-1.144.287-1.407.754v-.58H2.928v-.632H4.37V6.75H1.75v4.434h1.178V9.32h1.174a1.767 1.767 0 0 0-.054.439c0 .924.707 1.574 1.608 1.574.759 0 1.258-.357 1.523-1.005h-1.01c-.136.195-.24.253-.513.253a.606.606 0 0 1-.59-.604h2.056c.09.735.662 1.368 1.447 1.368.339 0 .649-.166.838-.448h.012v.287h1.038V6.75H9.419ZM5.1 9.333c.065-.281.284-.465.557-.465.3 0 .507.178.562.465h-1.12Zm3.689 1.176c-.383 0-.62-.357-.62-.729 0-.398.206-.78.62-.78.429 0 .6.382.6.78 0 .377-.181.729-.6.729Z"/>
  </g>
  <defs>
    <clipPath id="a">
      <path fill="#fff" d="M0 0h18v18H0z"/>
    </clipPath>
  </defs>
</svg>
