<?xml version="1.0" encoding="UTF-8"?>
<svg id="Layer_1" xmlns="http://www.w3.org/2000/svg" viewBox="0 0 18 18">
  <path d="M0,0h18v18H0V0Z" style="fill: #0c2d6e;"/>
  <path d="M9,4.4c2.53,0,4.61,2.06,4.61,4.61s-2.06,4.61-4.61,4.61-4.61-2.06-4.61-4.61,2.07-4.61,4.61-4.61ZM9,4c-2.76,0-5,2.24-5,5s2.24,5,5,5,5-2.24,5-5c.01-2.74-2.23-5-5-5ZM10.75,5.56l-2.69.92v-.6h-1.25v1.02l-.83.32-.92,2.09s.1.56.1.56c.46-.13.93-.18,1.43-.18,2.03,0,3.8,1.1,4.78,2.73l.26-.17c-.17-.28-.36-.56-.44-.72v-1.81l-1.25-.23v.92c-.82-.57-1.83-.92-2.89-1,1.63-.49,2.97-1.64,3.66-3.16l1.36,3.16.36.07s-1.69-3.91-1.69-3.91ZM10.25,9.84l.62.12v1.23c-.18-.18-.43-.43-.62-.58v-.77ZM5.38,9.33l.82-1.88.92-.35v-.92h.62v.72l2.73-.93c-.85,1.96-2.83,3.3-5.1,3.36h0ZM10.25,8.09l.62.12v.53l-.62-.12v-.53ZM9.94,7.74v1.16l1.25.23v-1.16s-1.25-.23-1.25-.23Z" style="fill: #f0f3fa;"/>
</svg>