<svg xmlns="http://www.w3.org/2000/svg" viewBox="0 0 18 18">
  <g clip-path="url(#a)">
    <path fill="#fff" d="M0 0h18v18H0V0Z"/>
    <path fill="#DB4733" d="M10.258 7.888a2.885 2.885 0 0 1-3.983 2.666 2.883 2.883 0 0 1-1.777-2.666 2.88 2.88 0 1 1 5.76 0Z"/>
    <path fill="#DB4733" fill-opacity=".933" d="M3.507 10.7s1.987 1.058 3.59 1.015c1.002-.027 1.691-.225 2.503-.4.81-.175 2.007-.433 2.765-.406.697.023 2.095.528 3.133 1.629 0 0-1.224-1.16-3.238-1.134 0 0-.962.02-2.526.42-1.892.486-2.91.386-2.91.386s-1.994 0-3.317-1.51Z"/>
    <path fill="#DB4733" fill-opacity=".933" d="M3.502 12.162s1.988 1.057 3.592 1.014c1.002-.026 1.692-.225 2.504-.4.811-.175 2.007-.432 2.767-.406.696.023 2.095.528 3.133 1.628 0 0-1.224-1.159-3.239-1.132 0 0-.962.02-2.527.42-1.892.485-2.911.386-2.911.386s-1.995 0-3.32-1.51h.001Z"/>
  </g>
  <defs>
    <clipPath id="a">
      <path fill="#fff" d="M0 0h18v18H0z"/>
    </clipPath>
  </defs>
</svg>
