<svg xmlns="http://www.w3.org/2000/svg" viewBox="0 0 18 18">
  <g clip-path="url(#a)">
    <path fill="#0E2772" d="M0 0h18v18H0V0Z"/>
    <path fill="#fff" d="M10.346 7.438c0-.682.462-1.345.714-1.219.287.144-.215.787-.714 1.219Zm-3.142.249c0-.549.542-1.592.873-1.482.39.13-.324 1.182-.873 1.482Zm-.548 3.923c-.25.011-.415-.148-.415-.414 0-.715.99-1.397 1.739-1.763-.133.997-.47 2.138-1.324 2.177Zm4.571-2.327c-.564 0-.997.416-.997.914 0 .416.249.748.582.748.116 0 .232-.066.232-.216 0-.216-.287-.269-.264-.592.014-.213.215-.356.414-.356.399 0 .585.386.585.785-.017.615-.47 1.043-1 1.043-.7 0-1.147-.665-1.147-1.38 0-1.063.697-1.479 1.063-1.579.003 0 .956.17.926-.25-.013-.184-.287-.254-.486-.263-.221-.009-.443.07-.443.07a.538.538 0 0 1-.246-.305c.681-.515 1.164-1.014 1.164-1.579 0-.3-.2-.565-.582-.565-.682 0-1.197.864-1.197 1.645 0 .133 0 .266.033.383-.432.316-.753.511-1.335.86 0-.072.015-.26.064-.503.2-.216.473-.54.473-.79 0-.116-.066-.215-.2-.215-.332 0-.58.498-.647.847-.15.183-.449.416-.699.416-.199 0-.265-.183-.282-.25.632-.216 1.413-1.08 1.413-1.861 0-.167-.067-.533-.565-.533-.748 0-1.38 1.114-1.38 1.979-.266 0-.366-.283-.366-.499 0-.216.084-.433.084-.499s-.034-.15-.134-.15c-.25 0-.399.333-.399.715.017.532.366.865.832.898.067.316.35.615.698.615.217 0 .482-.066.665-.233-.017.117-.033.216-.05.316-.731.382-1.263.649-1.745 1.08-.382.35-.599.815-.599 1.181 0 .499.316.964.964.964.765 0 1.347-.615 1.63-1.463.133-.4.186-.98.219-1.512a15.18 15.18 0 0 0 1.526-.965c.05.083.1.15.166.2-.349.183-1.18.698-1.18 1.911 0 .865.582 1.829 1.729 1.829.947 0 1.596-.781 1.596-1.53 0-.68-.383-1.313-1.115-1.313v.002Zm2.858 1.427c-.003.005-.013.013-.03.007-.015-.006-.02-.013-.019-.022 0-.01.201-.6.2-1.28-.003-.731-.3-1.18-.681-1.18-.233 0-.4.167-.4.416 0 .449.55.482.55 1.463 0 .399-.084.78-.217 1.197-.615 2.077-2.577 3.041-4.488 3.041-.881 0-1.507-.18-1.694-.264-.008-.004-.014-.019-.008-.033.004-.012.017-.02.024-.017.076.03.614.198 1.278.198.732 0 1.164-.299 1.164-.665a.412.412 0 0 0-.416-.415c-.448 0-.482.565-1.446.565-.415 0-.78-.083-1.213-.216C4.627 12.873 3.645 10.928 3.647 9c0-.94.263-1.687.268-1.694.003-.005.015-.01.03-.005.014.005.018.018.017.021-.025.078-.2.614-.2 1.279 0 .731.3 1.163.682 1.163a.394.394 0 0 0 .4-.398c0-.45-.55-.499-.55-1.463 0-.416.084-.782.217-1.214.631-2.06 2.576-3.027 4.488-3.042.889-.006 1.666.26 1.695.283.006.004.011.016.006.03-.006.015-.017.017-.022.016-.01-.001-.515-.212-1.28-.212-.715 0-1.163.299-1.163.681 0 .216.166.399.415.399.449 0 .482-.548 1.446-.548.416 0 .781.083 1.213.216 2.079.631 3.025 2.593 3.043 4.488a5.21 5.21 0 0 1-.267 1.71ZM9 3.281A5.719 5.719 0 1 0 9 14.72 5.719 5.719 0 0 0 9 3.28Z"/>
  </g>
  <defs>
    <clipPath id="a">
      <path fill="#fff" d="M0 0h18v18H0z"/>
    </clipPath>
  </defs>
</svg>
