<?xml version="1.0" encoding="UTF-8"?>
<svg id="Layer_1" xmlns="http://www.w3.org/2000/svg" viewBox="0 0 19 19">
  <rect x="1" y="1" width="18" height="18" style="fill: #fafafa;"/>
  <g>
    <path d="M4.36,10.3c0-3.15,2.57-5.7,5.74-5.7s5.74,2.55,5.74,5.7c0,3.15-2.57,5.7-5.74,5.7s-5.74-2.55-5.74-5.7Z" style="fill: #1c3361;"/>
    <path d="M4.93,9.89c0-3.01,2.46-5.45,5.49-5.45s5.49,2.44,5.49,5.45-2.46,5.45-5.49,5.45-5.49-2.44-5.49-5.45Z" style="fill: #fff;"/>
    <path d="M10.02,12.59c.35.24-.06.74.09,1.07-.11-.09-.24-.23-.25-.42,0-.27.15-.45.16-.65ZM10.79,12.59c-.35.24.06.74-.09,1.07.11-.09.24-.23.25-.42.01-.27-.15-.45-.16-.65ZM12.17,12.19c.1.21.18.45.06.88.29-.3.32-.6.24-.88h-.3,0ZM11.31,12.19c-.02.37.31.82.13,1.29.12-.09.28-.32.27-.57.01-.34-.08-.5-.19-.72h-.22ZM9.51,12.19c.02.37-.31.82-.13,1.29-.12-.09-.28-.32-.27-.57,0-.34.12-.5.19-.72h.22ZM8.69,12.18c-.1.21-.18.47-.11.89-.28-.3-.32-.6-.24-.88" style="fill: #bd9d53;"/>
    <path d="M10.15,7.27c-.12-.02-.3-.3-.36-.4h.17c.19,0,.12.23.19.4ZM8.65,7.87c-.18.18-.77.14-.96.17.07-.09.12-.21.28-.26.18-.06.37.07.68.09ZM8.45,10.66c-.04.57-.6,1.05-.63,1.36-.33-.66.53-1.12.63-1.36ZM8.16,9.95c0,.07.02.15,0,.23-.03.25-.39.43-.56.67.01-.09.03-.2.08-.32.07-.17.29-.39.47-.58ZM7.73,9.51c.03-.06.14-.15.23-.22,0,.11,0,.25-.03.31-.05.08-.19.12-.27.2,0,0,.04-.24.07-.29ZM8.18,8.51c-.14.18-.49.35-.58.43,0-.05,0-.12.01-.19.05-.16.45-.2.57-.24ZM9.57,7.3c-.4-.06-.53-.34-.62-.44.06,0,.12,0,.18,0,.07,0,.13.02.17.07.01.02.19.28.27.36ZM8.88,7.42c-.42-.13-.72-.19-.99-.14-.13.02-.26.08-.36.17,0-.5.15-.69.5-.72.3-.02.59.42.85.69h0ZM12.37,10.66c.04.57.59,1.05.62,1.36.35-.67-.53-1.12-.62-1.36ZM12.65,9.95c0,.07-.02.15,0,.23.03.25.39.43.56.67-.01-.11-.04-.22-.08-.32-.07-.17-.29-.39-.48-.58ZM13.09,9.51c-.04-.06-.14-.15-.24-.22,0,.11.02.23.05.3.04.08.17.14.25.21,0,0-.04-.24-.07-.29h0ZM12.64,8.51c.04.07.52.34.58.43,0-.05,0-.12-.02-.19-.05-.16-.45-.2-.56-.24ZM12.16,7.87c.17.16.82.07.96.17-.07-.09-.12-.21-.28-.26-.18-.06-.37.07-.68.09ZM11.24,7.3c.41-.08.56-.31.61-.44-.06,0-.12,0-.18,0-.08,0-.13.02-.17.07-.01.02-.19.28-.27.36h0ZM10.67,7.27c.16-.02.33-.29.36-.4h-.17c-.19,0-.12.23-.19.4ZM11.94,7.42c.45-.09.67-.15.98-.15.14.02.28.09.37.18,0-.5-.15-.69-.5-.72-.29-.02-.59.42-.85.69ZM11.74,10.73v.02c-.01.22-.26.45-.39.55l-.63-.4v-.26l.61-.1v-.11c.18.08.41.2.41.31ZM11.01,11.65c-.14.16-.4.42-.6.42s-.47-.26-.61-.42l.61-.41.6.41ZM9.47,10.53l.61.1v.26l-.63.4c-.13-.11-.39-.34-.39-.57,0-.1.22-.23.4-.31v.11ZM10.41,9.93l-.07-.12h-.29l.28-1.29-1.3-.18-.18.19.45-.69h2.23l.44.68-.18-.18-1.3.18.28,1.29h-.29l-.07.12h0ZM12.03,8.62l.32.49-.34,1.07c-.2-.15-.49-.29-.7-.34l-.16-.71c.35.01.83-.46.88-.51ZM8.77,8.64s.54.52.9.49l-.14.73c-.22.08-.49.17-.72.3l-.34-1.05s.3-.47.3-.47ZM12.47,12.19c-.06-.29-.24-.56-.44-.81-.09.37.03.58.14.81h.3ZM11.57,12.19c-.03-.11-.06-.23-.09-.34-.12.1-.16.22-.17.34h.26ZM9.29,12.19c.03-.09.05-.2.05-.34.12.1.16.22.17.34h-.22ZM8.34,12.19c.08-.28.27-.55.44-.81.12.41,0,.6-.14.81" style="fill: #bd9d53;"/>
    <path d="M4.85,9.89c0-3.06,2.49-5.53,5.58-5.53s5.58,2.48,5.58,5.53-2.5,5.53-5.58,5.53-5.58-2.48-5.58-5.53ZM5.04,9.89c0,2.95,2.41,5.34,5.38,5.34s5.38-2.39,5.38-5.34-2.41-5.34-5.38-5.34-5.38,2.39-5.38,5.34ZM0,0,0,0" style="fill: #bd9d53;"/>
    <path d="M7.47,8.29c.35-.33,1.26.08,1.41-.59l-.23.17c-.17.16-.82.07-.96.17l-.23.25ZM7.41,7.72c.13-.18.37-.32.51-.35.32-.05.93.17.93.18.05-.04.16-.13.16-.13h-.13c-.42-.12-.72-.21-.99-.16-.14.02-.27.12-.36.2l-.12.26h0ZM8.18,8.51c-.05.07-.53.34-.58.43l-.14.27c.29-.35.93-.59,1.01-.94l-.28.24ZM7.47,10.11c.14-.22.5-.37.55-.53.04-.17.06-.57.06-.57l-.12.28c0,.11-.02.23-.05.3-.05.08-.17.14-.26.21,0,0-.19.32-.19.32ZM7.47,11.17c.37-.53.77-.55.8-1,.02-.24-.05-.51-.05-.51l-.06.3c0,.07-.03.16-.04.23-.03.25-.35.42-.52.66,0,0-.14.31-.14.31ZM8.66,6.7c.24.29.44.76,1.13.69l-.22-.09c-.4-.11-.53-.34-.62-.44l-.3-.16h0ZM9.53,6.71c.24.36.4.75.76.68l-.14-.12c-.12-.02-.3-.3-.36-.4,0,0-.26-.16-.26-.16ZM12.64,8.51c.04.07.52.34.58.43l.11.27c-.29-.35-.93-.59-1.01-.94l.32.24ZM13.32,8.29c-.35-.33-1.26.08-1.41-.59l.26.17c.17.16.82.07.96.17,0,0,.19.25.19.25ZM13.37,7.72c-.13-.18-.37-.32-.51-.35-.32-.05-.93.17-.93.18-.05-.04-.1-.09-.16-.13h.16c.42-.12.72-.21.99-.16.14.02.27.12.36.2l.09.26ZM12.12,6.7c-.24.29-.44.76-1.14.69l.26-.09c.4-.11.53-.34.61-.44,0,0,.27-.16.27-.16ZM11.25,6.71c-.24.36-.39.75-.76.68l.18-.12c.12-.02.3-.3.36-.4l.22-.16ZM13.32,10.11c-.14-.22-.5-.37-.55-.53-.04-.17-.06-.57-.06-.57l.15.28c0,.11.02.23.05.3.04.08.17.14.25.21,0,0,.16.32.16.32ZM13.32,11.17c-.37-.53-.77-.55-.8-1-.02-.24.04-.51.04-.51l.09.3c-.01.08-.01.15,0,.23.03.25.39.43.56.67,0,0,.11.31.11.31ZM10.09,10.64v.26l-.63.4-.02.15.79-.5v-.47l-.13.15h0ZM9.47,10.53v-.11s.09-.24.09-.24l.02.19-.12.16h0ZM8.81,10.16c.21-.15.44-.26.69-.32l.16-.71.15-.11-.21.92c-.27.03-.75.26-.88.47,0,0,.08-.26.08-.26ZM11.31,9.83c.21.05.49.17.69.32l.35-1.05.14-.05-.44,1.35c-.13-.22-.61-.45-.88-.47l.14-.1h0ZM10.13,8.63l-1.14-.16s-.07.09-.07.09l-.07-.02.19-.22,1.29.21-.2.1h0ZM10.41,10.17l.14-.23h.39l-.29-1.31,1.14-.16s.07.09.07.09l.11-.03-.18-.2-1.32.15.3,1.33h-.29l-.07.12v.23s0,0,0,0ZM10.55,10.95l.79.5s.53-.35.53-.74l-.13.04c-.01.22-.26.45-.39.55l-.63-.4s-.17.05-.17.05ZM13.05,11.85c.12-.57-.61-.97-.69-1.19l-.02-.35c.1.55.93.76.84,1.5v.03h-.13ZM12.33,11.85c-.09-.16-.19-.32-.29-.47l-.03-.29c.16.24.36.5.5.76h-.18,0ZM11.49,11.85h0s.11-.23.11-.23c0,.09.01.16.02.23h-.13ZM10.98,11.85c.13-.13.22-.26.22-.26l-.2.06c-.05.06-.21.13-.29.2,0,0,.27,0,.27,0ZM10.1,11.87c-.08-.07-.25-.16-.3-.22l-.24-.06s.09.12.22.26l.32.02ZM9.53,11.85c-.07-.09-.18-.16-.34-.23l.15.22s0,0,0,0c0,0,.19,0,.19,0ZM8.93,11.85c.05-.2.04-.43-.15-.76v.29c.05.17.05.34,0,.51l.15-.04ZM8.08,11.85c.22-.38.54-.8.5-1.15-.02-.2-.14-.38-.14-.38l.02.35c-.12.5-.47.93-.62,1.23" style="fill: #bd9d53;"/>
  </g>
</svg>