<svg xmlns="http://www.w3.org/2000/svg" viewBox="0 0 18 18">
  <g clip-path="url(#a)">
    <path fill="#C53645" d="M0 0h18v18H0V0Z"/>
    <path fill="#fff" fill-rule="evenodd" d="M12.801 4.308a.028.028 0 0 0-.027-.027h-.004c-6.268.594-7.067 4.904-5.018 6.28-.353 1.555-.024 1.519-.024 1.519.063-.464.155-.923.275-1.376.8-3.032 2.778-5.677 4.774-6.368a.028.028 0 0 0 .024-.028Z" clip-rule="evenodd"/>
    <path fill="#fff" fill-rule="evenodd" d="M12.47 5.298a.028.028 0 0 0-.044-.022.027.027 0 0 0-.01.013c-.518 1.013-.668 2.462-1.063 3.572-.451 1.269-1.253 2.123-2.493 2.042v3.085s-3.31-1.492-3.31-3.892V5.6l2.705-.246h.001a.028.028 0 0 0 .002-.055H5.25v4.797c0 2.7 3.61 4.199 3.61 4.199s3.61-1.524 3.61-4.199V5.298Z" clip-rule="evenodd"/>
  </g>
  <defs>
    <clipPath id="a">
      <path fill="#fff" d="M0 0h18v18H0z"/>
    </clipPath>
  </defs>
</svg>
