<svg xmlns="http://www.w3.org/2000/svg" viewBox="0 0 18 18">
  <g clip-path="url(#a)">
    <path fill="#21518E" d="M0 0h18v18H0V0Z"/>
    <path fill="#fff" d="M12.564 11.059c-.31.977-.767 2.269-3.082 2.269-2.192 0-3.647-1.778-3.665-4.28-.017-2.652 1.354-4.38 3.761-4.38 2.034 0 2.768 1.086 2.986 2.353h.584V4.73c-.562-.308-2.304-.724-3.602-.724-3.167 0-5.336 2.052-5.295 5.099.041 2.95 1.95 4.887 5.09 4.887 1.777 0 2.754-.45 3.681-.903.006 0 .228-2.556.228-2.556h-.524l-.162.524Z"/>
  </g>
  <defs>
    <clipPath id="a">
      <path fill="#fff" d="M0 0h18v18H0z"/>
    </clipPath>
  </defs>
</svg>
