<svg xmlns="http://www.w3.org/2000/svg" viewBox="0 0 18 18">
  <g clip-path="url(#a)">
    <path fill="#1B355C" d="M0 0h18v18H0V0Z"/>
    <path fill="#fff" d="M8.688 11.5H12v-.781H8.687v.781h.001Z"/>
    <path fill="#fff" fill-rule="evenodd" d="M5.999 7.516c0-.561.454-1.016 1.015-1.016h1.11v3.516c0 .82-.602 1.484-1.422 1.484h-.39v-.781h.39a.703.703 0 0 0 .703-.703v-.077h-.39a1.016 1.016 0 0 1-1.016-1.016V7.516Zm1.406 1.642V7.28h-.39a.234.234 0 0 0-.235.235v1.407c0 .13.105.235.234.235h.39l.001.001Z" clip-rule="evenodd"/>
    <path fill="#fff" d="M8.688 6.5V10h.78V7.281h.56V10h.625V7.281h.3c.13 0 .235.105.235.235V10H12V7.516c0-.561-.485-1.016-1.046-1.016H8.687h.001Z"/>
    <path fill="#fff" fill-rule="evenodd" d="M4 5.563C4 4.7 4.7 4 5.563 4h6.875C13.3 4 14 4.7 14 5.563v6.875C14 13.3 13.3 14 12.437 14H5.564C4.7 14 4 13.3 4 12.437V5.563Zm1.563-.938h6.875c.517 0 .937.42.937.938v6.875c0 .517-.42.937-.938.937H5.564a.937.937 0 0 1-.938-.938V5.564c0-.518.42-.938.938-.938l-.001-.001Z" clip-rule="evenodd"/>
  </g>
  <defs>
    <clipPath id="a">
      <path fill="#fff" d="M0 0h18v18H0z"/>
    </clipPath>
  </defs>
</svg>
