<svg xmlns="http://www.w3.org/2000/svg" viewBox="0 0 18 18">
  <g clip-path="url(#a)">
    <path fill="#22547D" d="M0 0h18v18H0V0Z"/>
    <path fill="#fff" d="M4.736 4.5H9.36c1.79 0 3.64.62 3.64 2.233 0 1.003-.837 1.672-2.066 1.947v.03c1.495.128 2.567 1.003 2.567 2.144 0 1.938-2.252 2.538-4.495 2.538h-4.27V4.5Zm2.115 3.61h1.928c1.406 0 2.114-.453 2.114-1.121 0-.768-.708-1.141-2.301-1.141H6.85V8.11Zm0 3.924h1.947c1.092 0 2.597-.137 2.597-1.308 0-.934-.806-1.259-2.518-1.259H6.851v2.567Z"/>
  </g>
  <defs>
    <clipPath id="a">
      <path fill="#fff" d="M0 0h18v18H0z"/>
    </clipPath>
  </defs>
</svg>
