<svg xmlns="http://www.w3.org/2000/svg" viewBox="0 0 18 18">
  <path fill="#fafafa" d="M0 0h18v18H0z" />
  <path
    fill="#4285F4"
    d="M13.8 9.114c0-.355-.032-.696-.09-1.023H9v1.936h2.69a2.306 2.306 0 0 1-1.004 1.505v1.259h1.623c.946-.873 1.491-2.155 1.491-3.677Z"
  />
  <path
    fill="#34A853"
    d="M9 14c1.35 0 2.482-.445 3.31-1.209l-1.624-1.26c-.445.3-1.013.483-1.686.483-1.3 0-2.405-.878-2.8-2.06H4.536v1.291A4.995 4.995 0 0 0 9 14Z"
  />
  <path
    fill="#FBBC05"
    d="M6.2 9.95c-.1-.3-.16-.618-.16-.95 0-.332.06-.65.16-.95V6.759H4.536a4.938 4.938 0 0 0 0 4.482l1.296-1.01.368-.281Z"
  />
  <path
    fill="#EA4335"
    d="M9 5.99c.736 0 1.39.255 1.914.746l1.431-1.431C11.477 4.495 10.35 4 9 4a4.991 4.991 0 0 0-4.464 2.76L6.2 8.05C6.595 6.868 7.7 5.99 9 5.99Z"
  />
</svg>
