<svg xmlns="http://www.w3.org/2000/svg" viewBox="0 0 18 18" fill="#0a0a0a">
  <g clip-path="url(#a)">
    <path d="M0 0h18v18H0V0Z" />
    <g clip-path="url(#b)">
      <path
        fill="#fff"
        d="M9.493 4.737c.087.075.152.18.643 1.034.027.044.089.153.14.241.052.087.11.188.128.222.02.034.351.61.74 1.28.384.67.715 1.24.73 1.27.019.028.152.263.3.519l.303.524a30.899 30.899 0 0 1 .4.698.62.62 0 0 0 .039.062.87.87 0 0 1 .069.116c.025.047.064.117.084.15.362.622.383.669.396.855a.745.745 0 0 1-.56.764c-.112.03-7.583.036-7.765.004a.739.739 0 0 1-.584-.91c.014-.058.116-.256.277-.538a8.98 8.98 0 0 0 .256-.46c0-.01.005-.016.014-.016.007 0 .022-.018.032-.041a6.27 6.27 0 0 1 .115-.208c.056-.093.12-.205.144-.248.025-.045.096-.17.16-.278.064-.108.121-.208.127-.222l.033-.06a3.644 3.644 0 0 0 .215-.368 6.79 6.79 0 0 0 .122-.21l.17-.293a582.26 582.26 0 0 0 1.243-2.159A167.343 167.343 0 0 1 8 5.541l.163-.283c.073-.123.139-.239.15-.258.129-.235.286-.365.51-.425a.77.77 0 0 1 .67.162Z"
      />
    </g>
  </g>
  <defs>
    <clipPath id="a">
      <path fill="#fff" d="M0 0h18v18H0z" />
    </clipPath>
    <clipPath id="b">
      <path fill="#fff" d="M4.532 4.553h8.935V12.5H4.532z" />
    </clipPath>
  </defs>
</svg>
