<svg xmlns="http://www.w3.org/2000/svg" viewBox="0 0 18 18">
  <g clip-path="url(#a)">
    <path d="M0 0h18v18H0V0Z"/>
    <path fill="#fff" fill-rule="evenodd" d="M11.065 2.5v2.1h-.276c-.237-1.032-.75-1.806-1.46-1.842-.474-.037-.75.22-.987.589-.236.442-.355 1.363-.355 2.467 0 1.031.04 1.805.158 2.357.079.258.276.663.789.663.276 0 .474-.074.592-.22.197-.222.237-.664.237-.958V6.66c0-.368-.118-.589-.316-.7-.157-.073-.395-.073-.513-.11v-.258h2.21v5.267h-.276c-.119-.405-.197-.7-.395-1.032-.197-.331-.552-.7-1.144-.7-.632-.036-1.105.332-1.105.884 0 .737.473.921 1.341 1.363.83.442 1.895.81 1.895 2.099 0 1.252-1.145 2.026-2.447 2.026H6.922v-2.541h.275c.356 1.915 1.224 2.246 1.816 2.246.75 0 1.105-.442 1.105-1.068-.04-.81-.632-1.105-1.46-1.51-1.184-.626-1.736-.92-1.736-1.951.039-.885.788-1.436 1.617-1.658-1.736-.184-2.25-1.657-2.21-3.24 0-1.584.987-3.278 2.92-3.278h1.816Z" clip-rule="evenodd"/>
  </g>
  <defs>
    <clipPath id="a">
      <path fill="#fff" d="M0 0h18v18H0z"/>
    </clipPath>
  </defs>
</svg>
