<svg xmlns="http://www.w3.org/2000/svg" viewBox="0 0 18 18">
  <g clip-path="url(#a)">
    <path fill="#204DA2" d="M0 0h18v18H0V0Z"/>
    <path fill="#FEDB00" fill-rule="evenodd" d="M10.66 10.01a.37.37 0 0 1 .14.256C8.675 11.28 7.552 13.6 5.364 14.36a.762.762 0 0 1-.139-.276c2.115-.731 3.195-3.08 5.435-4.074Zm-3.552-.454c.321.61.73 1.349 1.029 1.966-.409.405-.89.915-1.386 1.377-.57.518-1.313.93-1.605.93-.102 0-.146-.079-.146-.15 0-.582.656-.88.912-1.356.233-.44.328-.9.503-1.354.182-.448.35-1.008.693-1.413Zm1.693-.873c.138.355.335.646.627.93.306-.093.357-.447.627-.575l.489.738c-.766.476-1.532.951-2.196 1.583A30.988 30.988 0 0 1 7.32 9.442c.49-.276.97-.56 1.482-.759ZM16 5v.05c0 .894-1.27 1.15-2.167 1.15-.453 0-.927-.043-1.364-.064v.056l.408.156c-.015.298-.503.256-.766.362.051.064.168.021.168.1v.021c-.175.192-.423.263-.671.263-.16 0-.328-.029-.482-.093l-.05.05v.17c0 .142-.037.724-.212.724-.102 0-.168-.085-.263-.135-.073.192-.043.462-.197.625-.13 0-.233-.17-.35-.213-.146.305-.233.631-.467.908-.438-.07-.525-.759-.525-1.178 0-.163.015-.34.05-.504-.167-.24-.298-.553-.298-.865 0-1.136 1.247-1.477 2.13-1.477.89 0 1.743.107 2.655.107.81 0 1.641-.071 2.4-.213ZM7.231 8.343c.57 0 .81.063 1.248.099v.057c-.416.22-.84.468-1.27.61.015-.184.036-.362.036-.546 0-.071 0-.142-.014-.22Zm1.583-.923-.058.717c-.11.014-.22.014-.336.014-.255 0-.518-.014-.868-.043l1.174-.688h.088Zm-.19-1.362c-.05.198-.08.411-.08.631 0 .156.015.34.08.482l-1.575.88a9.627 9.627 0 0 1-.533-.83c.744-.468 1.437-.83 2.108-1.163Zm.752.801.036.057c.226.021.183.312.372.37l-.087-.398-.321-.029Zm1.531-1.227c-.058 0-.116.035-.16.113-.124.114-.321.1-.474.12-.051.178-.255.285-.416.306a.6.6 0 0 0 .263.064.374.374 0 0 0 .145-.029c.095-.135.278-.155.445-.155.234 0 .205-.256.366-.256.014 0 .036.007.065.014.073-.021.197-.071.197-.135a.377.377 0 0 1-.117.022c-.11 0-.226-.064-.314-.064Z" clip-rule="evenodd"/>
  </g>
  <defs>
    <clipPath id="a">
      <path fill="#fff" d="M0 0h18v18H0z"/>
    </clipPath>
  </defs>
</svg>
