<?xml version="1.0" encoding="UTF-8"?>
<svg id="Layer_1" xmlns="http://www.w3.org/2000/svg" viewBox="0 0 18 18">
  <rect width="18" height="18" style="fill: #fafafa;"/>
  <g>
    <path d="M7.82,13.62c0-.58.53-2.34,1.18-2.34s1.18,1.76,1.18,2.34-.53,1.05-1.18,1.05-1.18-.47-1.18-1.05Z" style="fill: #fcba17;"/>
    <path d="M9,3.33c-.94,0-1.72.75-1.73,1.69,0,0,0,0,0,.01,0,.93.78,3.99,1.72,3.99s1.73-3.05,1.73-3.99c0-.95-.78-1.71-1.73-1.7h0s0,0,0,0Z" style="fill: #f0402e;"/>
    <path d="M4.3,9.23c.75.41,3.32,1.05,3.73.3.41-.74-1.51-2.59-2.26-3-.74-.41-1.67-.14-2.08.6,0,0,0,0,0,0-.4.75-.13,1.68.61,2.1ZM14.31,7.19c-.41-.74-1.34-1.01-2.08-.61,0,0,0,0,0,0-.75.41-2.66,2.25-2.26,3,.41.74,2.99.12,3.73-.3.75-.41,1.02-1.35.62-2.1h0Z" style="fill: #f05921;"/>
    <path d="M5.29,12.04c.21.47.76.67,1.23.46,0,0,.01,0,.02,0,.47-.22,1.71-1.28,1.48-1.75-.22-.47-1.83-.18-2.3.04-.47.22-.67.79-.44,1.26,0,0,0,0,0,0h0ZM12.27,10.78c-.47-.22-2.08-.52-2.31-.05-.22.47,1.02,1.53,1.49,1.75.47.23,1.03.03,1.25-.44.23-.47.03-1.03-.43-1.26,0,0,0,0,0,0Z" style="fill: #f5821f;"/>
  </g>
</svg>