<svg xmlns="http://www.w3.org/2000/svg" viewBox="0 0 18 18">
  <g clip-path="url(#a)">
    <path fill="#F6821F" d="M0 0h18v18H0V0Z"/>
    <path fill="#fff" d="M6.304 9.553c-.104-.104-.21-.244-.089-.507l-.238-.24c-.798.951-.498 2.067.325 2.89.822.822 1.936 1.12 2.89.325l-.24-.24c-.264.124-.406.016-.508-.088l-2.14-2.14Zm2.746 1.536c.104.102.21.243.087.506l.24.24c.796-.952.498-2.067-.325-2.89-.822-.822-1.938-1.12-2.89-.325l.24.24c.264-.123.404-.016.508.088l2.14 2.14Zm4.644-3.951c-.057-.056-.131-.058-.201-.021-.19.1-.21.07-.364-.083L10.963 4.87c-.154-.154-.182-.174-.083-.364.037-.07.037-.144-.02-.203-.12-.12-.264.008-.28.025L9.49 5.416l.889 1.649-.008.007-1.708-.826-1.049 1.046c-.049.05-.174.173-.046.302.1.098.22-.004.273-.05.074-.066.14-.032.24-.007.087.025.171.06.251.103l3.42 1.696.12-.12-1.674-3.09 1.92 1.918c.154.154.182.175.084.364-.038.07-.038.145.02.203.12.119.264-.009.28-.026L13.67 7.42c.017-.017.145-.16.024-.28v-.001Zm-3.23 2.18-.71-.71-.914-.451-.008.008 1.393 1.393c.45.583.025.685.203.863.129.127.288-.05.335-.095l.469-.47c.046-.046.224-.205.093-.334-.176-.178-.28.248-.86-.204ZM8.22 13.646c.39-.4.994-.456 1.621.117.572.519.503 1.234.117 1.62l-.135-.134c.123-.16-.001-.3-.09-.387l-.99-.99c-.089-.088-.227-.214-.387-.091l-.136-.135Zm1.48-1.48-.613.614c-.009.008-.081.09-.014.158.032.032.074.032.115.011.103-.054.117-.04.196.04l.008.006 1.217 1.218.007.006c.08.081.093.095.039.199-.021.039-.021.081.011.113.069.067.15-.004.158-.014l.613-.613L9.7 12.167Zm.623-.622-.518.518.134.134a.633.633 0 0 1 .719-.048c.046.023.08.035.12-.005.07-.07.028-.116.017-.128l-.472-.471Zm1.085 2.12a.674.674 0 0 0 .057-.732l-.004-.01c-.017-.048-.035-.095.004-.134.07-.07.13-.004.145.01l.002.003.465.465-.535.534-.134-.135Zm-.868-1.194c.066.11.112.245.04.367l.145.144c.123-.071.257-.025.367.042.051.028.102.052.15.003.065-.066-.006-.13-.034-.155l-.007-.007-.501-.503-.007-.007c-.026-.028-.091-.1-.156-.035-.05.05-.026.101.002.151h.001Zm.259-.896.007.007 1.218 1.218.034.034c.058.053.071.067.025.157a.085.085 0 0 0 .017.109c.067.067.13.014.14.004l.658-.658c.008-.01.08-.09.014-.158-.034-.032-.076-.032-.115-.011-.104.054-.118.04-.196-.04l-.009-.006-1.477-1.479-.614.613c-.009.01-.08.091-.014.159.033.032.075.033.115.012.103-.054.117-.042.197.04Zm.966-1.302c-.17.047-.325.154-.546.376l.134.134c.143-.105.26-.03.364.074l.35.35c.115.115.202.217.091.38l.135.134c.221-.22.327-.374.375-.546.07-.274-.017-.496-.211-.69-.196-.195-.416-.28-.692-.21v-.002Z"/>
    <path fill="#fff" d="M12.74 9.66c-.058-.058-.118-.137-.048-.285l-.135-.136c-.448.538-.28 1.165.182 1.627.462.462 1.088.63 1.624.182l-.133-.136c-.15.07-.228.01-.287-.049L12.74 9.66h.002Zm1.545.861c.059.06.119.138.049.286l.136.136c.448-.538.28-1.165-.182-1.627-.462-.462-1.09-.63-1.626-.182l.135.136c.148-.07.227-.01.285.049l1.204 1.204-.001-.002ZM3.677 7.301l.535-.534 1.389 1.387.008.009c.074.074.087.086.185.036.036-.02.076-.02.106.01.063.064-.004.14-.014.15l-.616.617c-.01.008-.086.077-.15.014-.03-.032-.03-.07-.01-.108.051-.098.039-.112-.037-.186l-.007-.004-1.389-1.39Zm1.456-.44c.01.01.058.07-.008.137-.06.06-.129.014-.182-.027-.136-.095-.311-.21-.506-.176l-.126-.126.314-.315.508.508ZM3.58 7.4l-.315.313.51.51c.008.008.07.056.136-.009.06-.061.014-.13-.028-.183-.096-.136-.209-.31-.177-.504L3.58 7.4Zm3.164-.374-.007-.007-1.144-1.144a3.43 3.43 0 0 1-.005-.007c-.076-.074-.088-.087-.038-.185.02-.038.02-.077-.011-.108-.063-.063-.14.006-.149.014l-.617.618c-.01.008-.077.084-.014.148.03.03.07.03.108.011.098-.05.11-.037.185.037l.007.007L6.2 7.555l.007.007c.075.074.089.087.037.185-.02.036-.02.075.011.106.063.063.14-.004.148-.014l.62-.616c.008-.01.075-.085.013-.15-.032-.03-.07-.03-.108-.01-.098.05-.112.038-.186-.037Zm-.43-.627.192-.192.522.522.007.007c.075.074.089.087.037.185-.02.038-.02.077.011.108.063.063.14-.006.148-.014l.62-.618c.008-.008.075-.085.012-.148-.031-.031-.07-.031-.108-.011-.098.05-.11.037-.185-.038l-.007-.006L6.418 5.05l-.007-.006c-.074-.075-.088-.088-.036-.186.02-.036.02-.075-.011-.106-.063-.063-.14.004-.149.014l-.618.616c-.009.01-.076.085-.013.15.03.03.07.03.108.01.098-.051.11-.038.185.037l.007.007.495.496-.192.192.126.126Zm.685-2.418-.577.577c-.008.008-.077.084-.014.148.031.03.07.03.108.011.098-.052.112-.038.186.037l.006.007 1.145 1.143.006.007c.075.076.088.089.037.187-.02.036-.02.075.012.106.063.063.14-.004.148-.014l.577-.575L6.998 3.98Zm.584-.585-.486.487.126.126a.594.594 0 0 1 .675-.045c.043.02.077.032.113-.004.066-.066.027-.11.016-.12l-.444-.444Zm1.022 1.993a.633.633 0 0 0 .053-.687l-.004-.01c-.016-.045-.032-.09.004-.126.067-.066.123-.004.136.01l.001.001.437.437-.501.503-.126-.126v-.002Zm-.82-1.123c.065.104.109.23.041.346l.135.136c.116-.069.242-.024.346.04.047.024.095.047.141 0 .062-.06-.006-.121-.032-.145l-.007-.007-.472-.472a.235.235 0 0 1-.006-.007c-.025-.026-.085-.092-.147-.032-.046.046-.023.094.003.141h-.001Zm-.115 8.897c-.06-.059-.132-.059-.203-.022-.19.1-.21.07-.364-.081l-2.165-2.166c-.154-.154-.182-.174-.082-.364.037-.07.036-.144-.021-.202-.12-.12-.265.009-.28.024L3.386 11.52c-.017.017-.144.16-.025.28.057.057.133.058.203.02.189-.097.21-.07.362.085l.938.938-.362.362.24.238.363-.36.987.986c.154.154.182.174.084.364-.038.07-.038.144.02.202.12.12.264-.007.28-.024l1.167-1.168c.017-.015.145-.16.026-.28Z"/>
    <path fill="#fff" d="M6.11 14.722c-.057-.058-.131-.058-.201-.021-.19.098-.21.07-.364-.085l-2.166-2.164c-.154-.154-.182-.174-.083-.364.038-.07.037-.144-.02-.201-.121-.12-.265.008-.28.025L2 12.906v.476c.001 0 .004 0 .006-.003.189-.098.21-.07.364.084l2.164 2.166c.154.152.182.173.084.362a.11.11 0 0 0-.004.009h.476l.997-.998c.015-.016.144-.16.023-.28Zm2.985 1.226L9.071 16h.272l.51-.51-1.736-1.739-.597.595c-.046.046-.098.112-.036.172.059.058.109.021.172-.01.057-.029.116.039.15.074l1.218 1.216c.035.035.102.094.071.151v-.001Zm4.683-7.59-.134-.135-.336.336.542.54a.097.097 0 0 0 .144-.01c.066-.064.017-.137-.028-.196-.102-.142-.224-.329-.188-.534Zm1.315-.59c.057.043.13.092.196.028a.097.097 0 0 0 .03-.11.097.097 0 0 0-.022-.034l-.542-.542-.333.336.135.134c.205-.035.392.084.536.188Zm.906 1.306c-.107.056-.12.04-.205-.048L14.317 7.55l-.57.57 1.479 1.477c.085.087.102.098.046.205-.021.039-.021.08.011.113.067.069.15-.004.158-.014L16 9.344v-.27h-.001ZM13.61 3.057c-.085.085-.045.178.004.267.12.195.203.434.076.653l.256.256c.219-.126.458-.045.653.075.09.05.182.091.268.005.126-.128-.042-.257-.075-.29L13.9 3.13c-.034-.034-.162-.202-.29-.074Zm-2.574.815c-.017.015-.146.16-.026.28.058.057.132.057.203.02.19-.099.21-.07.363.083l2.166 2.165c.154.154.182.175.084.364-.038.07-.038.144.02.203.12.119.265-.009.28-.026l1.09-1.089-3.094-3.088-1.088 1.089.002-.001ZM16 4.388l-.476-.474c-.017-.017-.129-.154-.26-.021-.075.072-.034.165 0 .256.218.44.191.924-.101 1.299l.238.24.598-.598v-.7L16 4.388Zm-1.932-1.873L13.553 2h-.647l-.596.595.239.24c.42-.304.834-.313 1.275-.084.084.042.145.061.216-.01.123-.122.049-.206.028-.227Z"/>
  </g>
  <defs>
    <clipPath id="a">
      <path fill="#fff" d="M0 0h18v18H0z"/>
    </clipPath>
  </defs>
</svg>
