<svg xmlns="http://www.w3.org/2000/svg" viewBox="0 0 18 18">
  <g clip-path="url(#a)">
    <path fill="#fff" d="M0 0h18v18H0V0Z"/>
    <path fill="#C00" d="M3.5 12.066h4.846v-.807l-.83-.094c-.189-.025-.38-.144-.38-.548v-.974h3.73v.926c0 .275-.046.535-.369.57l-.843.096v.83H14.5v-.83l-.855-.095c-.166-.024-.356-.157-.356-.499V7.494c0-.32.116-.537.367-.559l.844-.095v-.823H9.654v.812l.843.106c.286.036.37.261.37.559v.94h-3.73V7.48c0-.357.142-.524.39-.546l.82-.095v-.823H3.51v.823l.81.095c.32.036.404.273.392.58v3.067c0 .342-.095.546-.404.582l-.809.095v.806"/>
  </g>
  <defs>
    <clipPath id="a">
      <path fill="#fff" d="M0 0h18v18H0z"/>
    </clipPath>
  </defs>
</svg>
