<svg xmlns="http://www.w3.org/2000/svg" viewBox="0 0 18 18" fill="#0a0a0a">
  <g clip-path="url(#a)">
    <path d="M0 0h18v18H0V0Z" />
    <path
      fill="#fff"
      fill-rule="evenodd"
      d="M14.5 10.585h-2.409c.137.494.824.619.824.619C10.95 13.244 9 13.569 9 13.569s-1.95-.326-3.915-2.365c0 0 .686-.125.824-.619H3.5V7.721h2.416c-.013-.385-.51-.569-.51-.569v-.99C8.105 6.014 9 4.655 9 4.655s.895 1.36 3.593 1.507v.99s-.496.184-.51.569H14.5v2.864Zm-3.161 0H6.661c-.042.178-.167.465-.538.688 0 0 1.244 1.138 2.877 1.548 1.633-.41 2.877-1.548 2.877-1.548-.371-.223-.496-.51-.538-.688ZM6.652 7.721h4.696c.009-.159.084-.528.539-.99 0 0-1.402.074-2.887-1.033-1.485 1.107-2.888 1.033-2.888 1.033.455.462.53.831.54.99ZM4.179 9.913h9.641v-1.52H4.18v1.52Z"
      clip-rule="evenodd"
    />
  </g>
  <defs>
    <clipPath id="a">
      <path fill="#fff" d="M0 0h18v18H0z" />
    </clipPath>
  </defs>
</svg>
