<svg xmlns="http://www.w3.org/2000/svg" viewBox="0 0 18 18" fill="#0a0a0a">
  <g clip-path="url(#a)">
    <path d="M0 0h18v18H0V0Z" />
    <path
      fill="#fff"
      d="M9.007 14.5h-.16l1.218-3.36h1.539a.748.748 0 0 0 .662-.481l.983-2.804c.214-.556-.106-.995-.694-.995h-2.138l-2.693 7.49A5.504 5.504 0 0 1 7.51 3.703L4.742 11.14h1.165l1.208-3.21h.876l-1.207 3.21h1.154l1.229-3.285c.203-.567-.107-.995-.695-.995H7.51L8.771 3.5h.236a5.49 5.49 0 0 1 3.884 1.61 5.503 5.503 0 0 1 0 7.78 5.49 5.49 0 0 1-3.884 1.61Zm3.067-6.57h-.877l-.801 2.14h.876l.802-2.14Z"
    />
  </g>
  <defs>
    <clipPath id="a">
      <path fill="#fff" d="M0 0h18v18H0z" />
    </clipPath>
  </defs>
</svg>
