<svg xmlns="http://www.w3.org/2000/svg" viewBox="0 0 18 18">
  <g clip-path="url(#a)">
    <path fill="#2D000D" d="M0 0h18v18H0V0Z"/>
    <g clip-path="url(#b)">
      <path fill="#939D9C" d="M8.095 6.539c0-.776.548-1.4 1.431-1.72 1.035-.365 3.577-.517 4.43-1.566v1.794c-.776.974-3.41.99-4.43 1.339-.791.289-1.081.746-1.248.99-.076.09-.091.12-.137.12-.03 0-.046-.045-.046-.076v-.88Z"/>
      <path fill="#fff" d="M6.177 14.25c-1.005 0-1.69-1.37-.517-2.753.38-.456.837-.883 1.247-1.324.777-.836 1.02-1.49 1.157-2.114.016-.03.046-.076.092-.076s.076.046.091.076c.137.624.38 1.278 1.157 2.114.412.441.868.868 1.249 1.324 1.172 1.384.487 2.753-.518 2.753H6.177Z"/>
    </g>
  </g>
  <defs>
    <clipPath id="a">
      <path fill="#fff" d="M0 0h18v18H0z"/>
    </clipPath>
    <clipPath id="b">
      <path fill="#fff" d="M5.042 3.25h8.916v11H5.042z"/>
    </clipPath>
  </defs>
</svg>
