<svg xmlns="http://www.w3.org/2000/svg" viewBox="0 0 18 18">
  <g clip-path="url(#a)">
    <path d="M0 0h18v18H0V0Z"/>
    <g clip-path="url(#b)">
      <path fill="#fff" d="M5.546 4.499c1.155-.66 2.3-1.336 3.457-1.992 1 .585 1.998 1.176 2.998 1.762.14.081.277.17.424.242a.586.586 0 0 1 .015.235c.006.169 0 .337 0 .505.022.572-.013 1.145.001 1.717.013.122-.011.245 0 .367.017.272-.018.543.004.814-.014.114.03.244-.024.347-.247.15-.504.284-.751.433-.04.022-.09.067-.135.027-.128-.08-.263-.15-.39-.23-.193-.127-.4-.23-.598-.347.264-.166.542-.31.81-.47.047-.024.022-.09.031-.133-.004-.874.004-1.749-.004-2.623-.777-.443-1.549-.893-2.323-1.339-.04-.02-.087-.055-.128-.019-.777.452-1.55.911-2.327 1.36-.005.91.002 1.818-.004 2.727-.35.198-.697.4-1.047.597.003-1.327-.009-2.653-.009-3.98ZM10.56 9.62c.333-.207.676-.394 1.018-.584.046-.03.092.028.134.043.244.146.497.278.737.431-.004 1.32-.001 2.64-.001 3.96-1.147.676-2.298 1.346-3.443 2.028-1.145-.678-2.303-1.336-3.45-2.01-.01-1.343.007-2.688.007-4.031.106-.065.218-.12.32-.192.13.046.246.124.367.19.246.134.49.27.735.406a3.85 3.85 0 0 0-.354.239c-.015.91-.003 1.823-.007 2.734l2.348 1.387c.074-.002.13-.065.194-.095.74-.421 1.472-.858 2.217-1.27a.768.768 0 0 0 .019-.167c-.002-.808 0-1.616 0-2.424a1.915 1.915 0 0 0-.013-.17c-.28-.15-.55-.32-.827-.476Z"/>
      <path fill="#3C7E7F" d="M7.45 8.374c.506-.311 1.018-.613 1.524-.922.529.302 1.041.63 1.572.927.2.116.406.22.598.348.15.11.313.201.477.288l-.043.022c-.342.19-.685.377-1.017.583l-.007.005c-.367-.233-.752-.436-1.125-.657-.154-.079-.293-.189-.456-.246-.164.07-.315.17-.471.259.504.302 1.002.615 1.508.913-.35.189-.686.405-1.036.595-1.109-.65-2.219-1.298-3.327-1.949l-.092-.06c.35-.197.698-.4 1.047-.597.276.174.565.328.848.49Z"/>
    </g>
  </g>
  <defs>
    <clipPath id="a">
      <path fill="#fff" d="M0 0h18v18H0z"/>
    </clipPath>
    <clipPath id="b">
      <path fill="#fff" d="M5.545 2.5h6.909v13H5.545z"/>
    </clipPath>
  </defs>
</svg>
