<svg xmlns="http://www.w3.org/2000/svg" viewBox="0 0 18 18">
  <g clip-path="url(#a)">
    <path fill="#fafafa" d="M0 0h18v18H0V0Z" />
    <path
      fill="#00ABC8"
      d="M7.788 6.172V8.4h2.424V6.172h1.881a.276.276 0 0 1 .275.275v2.35h2.02V5.672A1.172 1.172 0 0 0 13.214 4.5h-8.43a1.172 1.172 0 0 0-1.172 1.172v3.125h2.023v-2.35a.275.275 0 0 1 .275-.275h1.877Z"
    />
    <path
      fill="#231F20"
      d="M10.212 11.828V9.727H7.788v2.101H5.907a.275.275 0 0 1-.271-.275V9.35H3.613v2.979A1.172 1.172 0 0 0 4.785 13.5h8.428a1.172 1.172 0 0 0 1.173-1.172v-2.98h-2.018v2.204a.275.275 0 0 1-.275.275h-1.881Z"
    />
  </g>
  <defs>
    <clipPath id="a">
      <path fill="#fff" d="M0 0h18v18H0z" />
    </clipPath>
  </defs>
</svg>
