<svg xmlns="http://www.w3.org/2000/svg" viewBox="0 0 18 18" fill="#0a0a0a">
  <g clip-path="url(#a)">
    <path d="M0 0h18v18H0V0Z" />
    <path
      fill="#fff"
      d="M9 6.938A2.063 2.063 0 0 0 6.937 9v2.75a2.063 2.063 0 0 0 4.125 0V9A2.062 2.062 0 0 0 9 6.937ZM7.54 9.643h2.92v1.46H7.54v-1.46ZM9 13.21a1.468 1.468 0 0 1-1.46-1.461v-.045h2.92v.045A1.467 1.467 0 0 1 9 13.21Zm1.46-4.17H7.54V9a1.46 1.46 0 0 1 2.92 0v.041Zm3.58 1.063L11.75 7.97v3.128a1.375 1.375 0 0 0 2.75 0 1.316 1.316 0 0 0-.46-.994Zm-.915 1.767a.774.774 0 0 1-.773-.773V9.344l1.278 1.193a.705.705 0 0 1 .251.525.774.774 0 0 1-.756.808ZM3.5 11.097a1.375 1.375 0 0 0 2.75 0V7.969l-2.29 2.134a1.334 1.334 0 0 0-.46.994Zm.853-.536 1.295-1.217v1.753a.774.774 0 0 1-1.546 0 .705.705 0 0 1 .25-.536ZM8.656 5.39a1.203 1.203 0 1 0-2.406 0 1.203 1.203 0 0 0 2.406 0Zm-1.804 0a.602.602 0 1 1 .601.602.608.608 0 0 1-.601-.601Zm3.695-1.202a1.203 1.203 0 1 0 0 2.406 1.203 1.203 0 0 0 0-2.407Zm0 1.804a.601.601 0 1 1 .601-.601.608.608 0 0 1-.601.601Z"
    />
  </g>
  <defs>
    <clipPath id="a">
      <path fill="#fff" d="M0 0h18v18H0z" />
    </clipPath>
  </defs>
</svg>
