<?xml version="1.0" encoding="UTF-8"?>
<svg id="Layer_1" xmlns="http://www.w3.org/2000/svg" viewBox="0 0 18 18">
  <rect width="18" height="18" style="fill: #fafafa;"/>
  <g>
    <path d="M6.83,5.97c2.47-2.43,5.47-3.06,6.67-1.4,1.2,1.66.15,5-2.33,7.43-2.47,2.45-5.47,3.08-6.69,1.4-1.18-1.67-.13-5,2.35-7.43h0Z" style="fill: #f06321;"/>
    <path d="M8.47,4.67c-.27.2-.55.43-.82.68-2.16,2.12-3.07,5.04-2,6.49,1.11,1.46,3.76.92,5.98-1.22,1.2-1.15,2-2.48,2.33-3.72.09-.92-.04-1.73-.45-2.34-.94-1.29-2.98-1.19-5.04.11Z" style="fill: #ae282e;"/>
    <path d="M11.59,4.94v.05c-.02.31-.2.68-.53,1.01-.49.47-1.14.65-1.42.38-.31-.29-.13-.92.36-1.42.51-.49,1.16-.65,1.44-.36.09.09.15.2.15.34ZM9.7,13.2c-1.16.86-2.36,1.3-3.53,1.12.49.02.89-.52,1.22-1.24.33-.74.51-1.42.67-2.07.24-1.02.25-1.74.13-1.91-.2-.25-.64-.2-1.15.09-.25.14-.58.05-.2-.41.4-.47,1.94-1.58,2.49-1.76.62-.16,1.31.07,1.07.74-.16.49-2.31,6.03-.71,5.45h0Z" style="fill: #fff;"/>
  </g>
</svg>