<svg xmlns="http://www.w3.org/2000/svg" viewBox="0 0 18 18">
  <g clip-path="url(#a)">
    <path fill="#3273C9" d="M0 0h18v18H0V0Z"/>
    <path fill="#fff" d="M9.034 7.18c-.172.265-.287.788-.287 1.153h1.498V10H8.747v3H7.25V8.338c0-.626.068-1.441.512-2.126C8.236 5.482 9.18 5 10.245 5v1.667c-.584 0-1.028.187-1.211.513Zm3.994 0c-.171.265-.286.788-.286 1.153h1.492V10h-1.492v3H11.25V8.338c0-.625.067-1.441.51-2.126C12.232 5.482 13.173 5 14.234 5v1.667c-.582 0-1.023.187-1.206.513ZM4.534 8.333c.012-.363.091-.838.274-1.102.165-.239.568-.525 1.187-.525V5H4.25v8h1.745V8.333H4.534Z"/>
  </g>
  <defs>
    <clipPath id="a">
      <path fill="#fff" d="M0 0h18v18H0z"/>
    </clipPath>
  </defs>
</svg>
