<svg xmlns="http://www.w3.org/2000/svg" viewBox="0 0 18 18">
  <g clip-path="url(#a)">
    <path fill="#007CC3" d="M0 0h18v18H0V0Z"/>
    <path fill="#fff" d="M32.598 5.888a.91.91 0 0 0 .902-.902.908.908 0 0 0-.902-.902.908.908 0 0 0-.902.902c.025.505.421.902.902.902Zm-.743-.897c0-.416.352-.768.768-.768.416 0 .768.352.768.768a.779.779 0 0 1-.768.768.762.762 0 0 1-.768-.768Zm.416.46h.173v-.396h.199l.153.372h.199l-.174-.416c.065-.02.154-.065.154-.243 0-.263-.199-.307-.372-.307h-.307v.986h-.025v.005Zm.173-.792h.199c.109 0 .153.044.153.134 0 .089-.064.133-.153.133h-.199V4.66ZM4 5.382v-1.05h1.056v8.756H4V5.383Zm10.734 4.525c.02 1.6 1.01 2.874 2.215 2.854 1.209-.02 2.15-1.338 2.13-2.919-.02-1.6-1.01-2.874-2.215-2.854-1.209.02-2.155 1.313-2.13 2.919Zm8.736-1.933c.02.064-.044-.09-.044-.09l.044.09Zm.724 6.606c.044-.09.109-.198.198-.372l-.198.372Zm.064-7.156c.02.045.02.064.045.109l.351.877-.396-.986Zm-4.435 4.39c.659.595 1.229.902 1.997.902s1.447-.371 1.447-1.095c0-.614-.525-.966-1.492-1.363-.812-.351-1.402-.594-1.734-1.095.044.218.064.441.064.68 0 1.952-1.427 3.533-3.181 3.533s-3.181-1.581-3.181-3.534c0-1.184.525-2.215 1.318-2.874H12.91v6.145h-.942v-6.15h-.832V6.33h.857c.11-1.294.902-2.017 2.017-2.017.724 0 1.12.064 1.338.173v.987h-.045c-.351-.328-.678-.55-1.471-.55-.635 0-1.056.505-.902 1.402h3.578c.153-.02.307-.045.46-.045 1.274 0 2.37.833 2.875 2.042v-.218c0-1.249 1.229-1.799 2.477-1.799h.134c.441 0 1.076.134 1.472.243l.352.857.396.986 1.056 2.632.134.416.133-.416 1.363-3.36c.243-.922 1.249-1.318 2.324-1.318.55 0 .942.064 1.427.242v1.016c-.594-.44-1.01-.679-1.69-.679-.594 0-1.293.263-1.293 1.14-.02.66.372.768 1.537 1.338.941.416 1.823.857 1.823 1.908 0 1.754-1.734 2.062-2.567 2.062-.748 0-1.447-.174-1.823-.506v-1.164l.064.044c.679.635 1.293.966 2.061.966s1.447-.371 1.447-1.095c0-.614-.525-.966-1.491-1.362-.922-.397-1.517-.66-1.754-1.319-.372.902-2.107 5.134-2.523 6.036h-.922l.219-.416.198-.372v-.02c.243-.46.57-1.184.877-1.888L23.475 7.93c-.02-.02-.045-.089-.109-.218-.134-.307-.263-.614-.659-.748a2.267 2.267 0 0 0-.679-.109c-.595 0-1.338.263-1.338 1.14-.02.659.416.768 1.58 1.338.942.416 1.825.857 1.825 1.908 0 1.754-1.735 2.061-2.567 2.061-.66 0-1.294-.153-1.69-.396l-.015-1.09ZM7.028 6.395l.02.767v.045c.02-.02.02-.064.044-.09.397-.416.877-.832 2.042-.832 1.12 0 1.823.942 1.863 1.536v5.267h-.941V8.261c0-.748-.66-1.273-1.447-1.273-.66 0-1.517.595-1.537 1.209v4.891h-.966V6.393h.922Z"/>
  </g>
  <defs>
    <clipPath id="a">
      <path fill="#fff" d="M0 0h18v18H0z"/>
    </clipPath>
  </defs>
</svg>
