<?xml version="1.0" encoding="UTF-8"?>
<svg id="Layer_1" xmlns="http://www.w3.org/2000/svg" viewBox="0 0 18 18">
  <rect width="18" height="18" style="fill: #f60;"/>
  <path d="M14.66,8.65c.05.11.09.23.13.35.2.64.28,1.38.14,2.05-.03.14-.07.28-.12.41-.07.21-.17.39-.3.59-.15.22-.33.42-.53.59-.39.29-.88.41-1.36.33-.09.09-.21.11-.33.12-.03,0-.05,0-.08.01h-1.3s0-.08.02-.12c.02-.03.02-.07.02-.11.02-.1.04-.22.14-.24,0,0,0,0,0,0,0,0,0,0,0,0,.03.09.07.19.12.28.07-.04.1-.11.11-.19-.01-.08-.07-.15-.13-.22h-.02s.05-.06.07-.1c.01-.02.03-.05.05-.07l.02.03c.04.05.09.11.16.09h0s.06-.03.06-.07c0,0,0-.01,0-.02,0-.01,0-.02-.02-.02-.04-.02-.07-.06-.11-.1-.09-.09-.17-.19-.29-.1-.15.18-.29.38-.32.61l-.03.36s-.06,0-.09,0c-.05,0-.09,0-.14,0,0-.08,0-.16,0-.23,0-.09-.01-.19,0-.28.03-.01.05.01.08.04.01.01.02.02.04.03,0,.01.02.01.03,0,0-.02.02-.04.03-.06.02-.03.05-.07.02-.11-.02-.04-.05-.08-.09-.11-.01-.01-.02-.02-.03-.03,0-.05.04-.09.06-.13.01-.02.02-.03.03-.05,0,0,.01,0,.01.01,0,0,0,0,0,.01.03.03.07.04.11.04,0,0,0,0,.01,0,.02,0,.04,0,.03-.03,0-.01,0-.02-.01-.04-.01-.02-.02-.05,0-.07.03-.01.06,0,.09,0,.04.01.09.03.12-.02,0,0,0-.02.01-.03-.11-.07-.23-.15-.38-.1-.06,0-.08.03-.11.07-.01.02-.03.04-.05.06,0,0-.01,0-.02.01-.09-.02-.17,0-.26.01-.05,0-.1.02-.15.02l-.23.38s0,.07,0,.1c0,.1,0,.21.04.29.05.07.08.13.12.21h-2.49c.04-.08.11-.17.17-.24,0,.02.02.02.04.03,0,0,.02,0,.03.01l.17.04h.03c.05-.03.1-.05.15-.09-.05-.03-.1-.05-.15-.07-.06-.02-.11-.05-.17-.08,0-.03,0-.06.01-.09.02-.13.03-.27-.06-.36-.05-.04-.11-.05-.16-.06-.02,0-.04,0-.05-.01-.09.03-.18.07-.23.17-.07-.07-.14-.14-.23-.17,0-.03,0-.07.02-.11h0s.01-.07.02-.1c.11-.06.23-.02.34.02.03.01.07.02.1.03.01,0,.02,0,.04,0,.02,0,.03,0,.05,0,0-.01,0-.02-.01-.03,0,0-.02-.01-.02-.03-.13-.2-.35-.23-.58-.19-.04,0-.07.05-.09.08-.03.05-.05.09-.11.03-.04-.01-.08,0-.12.02-.03.01-.06.02-.1.02l-.15.06s-.03.05-.05.08c-.07.14-.14.28-.21.42,0,.04,0,.08,0,.13,0,.09-.01.19.03.27.03.07.08.15.12.21h-3.21c-.11-.16-.18-.38-.14-.58.03-.09.07-.19.15-.24,0-.07,0-.13.03-.18.03-.08.09-.15.16-.21.1-.07.23-.09.36-.07.14-.16.37-.2.57-.13.05.02.09.04.13.08.06-.12.09-.26.13-.39.02-.1.05-.2.09-.3.01-.03.02-.05.03-.08.03-.07.06-.15.09-.23.04-.12.09-.24.15-.35-.15-.43-.28-.88-.36-1.34,0-.03.02-.05.04-.07.02-.02.04-.03.06-.05.04-.09.07-.19.09-.28-.02,0-.04.02-.07.03-.02.01-.04.02-.06.03,0,.01-.02.03-.03.04-.02.02-.04.05-.05.08-.02,0-.03-.04-.03-.07,0,0,0-.01,0-.02,0-.04,0-.09-.01-.13-.02-.09-.03-.17.04-.24l.11-.09c0-.07,0-.15.02-.22v-.05s-.01,0-.01,0c-.02.02-.03.03-.05.05-.05.04-.1.08-.11.14h0v-.39s.03-.02.04-.03c.02-.02.05-.03.07-.05-.02-.44.01-.87.13-1.26.02-.06.06-.12.1-.17.02-.03.04-.05.06-.08,0-.03,0-.05,0-.08,0-.08,0-.17.02-.24.03-.02.07-.05.1-.08.03-.03.06-.06.1-.08-.02-.02-.06-.02-.09-.03-.01,0-.02,0-.03,0,.06-.17.19-.32.31-.45l.02-.02s.1-.08.16-.1c.02,0,.03,0,.04.02h0c.05.01.1.02.15.03.07.02.14.04.22.03-.04-.07-.11-.14-.2-.14h.02c.11-.06.19-.1.32-.12.01.06.05.11.09.16.03.04.06.08.07.12l.07.07s0-.07,0-.11c0-.1,0-.21-.08-.28,0-.02.02-.02.03-.01.14.06.27.14.4.22.02,0,.04-.02.05-.03.06-.03.13-.07.19-.09,0,.04-.02.08-.03.12-.03.09-.05.19-.05.29.03-.03.06-.07.09-.11.02-.03.04-.06.06-.08,0-.06.03-.1.06-.15.02-.03.03-.05.04-.08.1-.03.25-.05.35,0-.09.02-.09.09-.08.15v.02s0,0,0,0c.07-.02.18-.05.24-.11.1.02.17.03.25.1-.01,0-.02.01-.03.02-.06.03-.13.06-.17.13.11,0,.23-.01.34-.03l.05-.03c.26.17.36.46.45.73l.03.08s-.04-.01-.05-.02c-.02-.01-.04-.02-.07-.03v.02c.02.05.03.12.09.14.06,0,.09.06.12.11.01.02.02.04.04.06.04.04.09.08.14.12.1.08.19.15.24.27.09.15.12.33.15.51.02.11.04.21.07.31-.03-.04-.07-.05-.11-.06-.04-.01-.08-.02-.11-.05.01.08.06.17.13.22.04.02.09.04.13.06.02,0,.04.02.06.03.07.13.1.28.12.43-.05-.03-.1-.06-.16-.08h0c0,.13.09.24.19.3,0,.06,0,.11,0,.17,0,.04,0,.09,0,.13.18.15.41.28.64.31.04,0,.09,0,.14,0,.03,0,.06,0,.08-.01.02,0,.04,0,.06-.01.19-.01.37-.08.52-.18-.01-.14.03-.26.13-.35.14-.16.37-.15.55-.1.3.12.54.36.73.64.16.23.29.49.39.73.17.41.26.84.27,1.32v.02s0,.03,0,.03c.02.38-.02.76-.1,1.14,0,.03.02.04.04.05,0,0,.01,0,.02.01.35.1.68,0,.96-.22.09-.07.17-.15.24-.25.19-.22.31-.48.42-.75.2-.65.16-1.42-.04-2.05-.01-.03-.02-.07-.03-.1-.24-.69-.8-1.41-1.45-1.72-.13-.02-.25,0-.37.02-.13.02-.27.04-.41,0-.19-.06-.38-.16-.51-.33v-.02c.11.01.21.04.31.08,0-.03-.01-.05-.02-.07-.01-.02-.02-.04-.02-.06.11-.03.23-.05.35-.06-.04-.09-.12-.1-.2-.11-.05,0-.1,0-.14-.03-.01,0-.02,0-.03,0-.03,0-.06,0-.08,0,0,.02,0,.03.02.05,0,.03.02.06.02.09-.03,0-.07,0-.1-.01-.02,0-.05-.02-.07-.02-.01,0-.03,0-.04,0-.03,0-.06,0-.08.02-.04-.06-.07-.11-.1-.17-.06-.12-.12-.25-.26-.31v-.02c.1-.03.19-.06.28-.09.23-.08.45-.16.72-.13h.01s.07.02.1.04l-.1.09c.09.09.19.16.31.15h0c0-.07-.04-.12-.07-.17v-.02c.08.02.16.1.23.17.02.02.04.04.06.06.17.32.45.63.75.83.54.35.88.96,1.14,1.52h0ZM6.45,12.57s.04-.02.07-.03c.06-.03.12-.06.13-.14l-.02-.02s-.04-.03-.07-.04l-.07.02s.02-.06.03-.1c0-.02.01-.03.02-.05l.24-.08c-.03.12-.05.26-.06.39.02.2.05.41.14.57h-.26c-.01-.07-.05-.13-.08-.2-.05-.1-.11-.2-.07-.33ZM7.01,12.34h.01l.17.17h.03c-.01.19-.02.39-.03.59h-.19s-.02-.09-.03-.14c-.03-.15-.07-.3-.06-.46.01-.02.02-.04.03-.06.02-.04.04-.07.06-.1ZM7.42,12.48s-.02.03-.03.05l-.07.57h.18c.04-.12.08-.26.11-.39,0-.02.01-.04.02-.06.03-.07.05-.16,0-.22-.04-.04-.08-.04-.13-.05-.05,0-.07.05-.09.09ZM10.15,12.47s.03.04.04.07c.02.04.04.08.07.11.05-.08.07-.2.04-.29l-.05-.06s.08-.02.12-.02c.03,0,.06,0,.08-.01,0,.03-.02.06-.03.09-.03.07-.05.14-.05.23,0,.11.01.23.03.34,0,.06.01.12.02.18h-.2v-.02c-.08-.16-.15-.32-.14-.51,0-.01.01-.02.02-.03.01-.02.03-.05.05-.07ZM7.71,7.07s.1-.02.13-.07c.01.03,0,.07,0,.1,0,.01,0,.02-.01.03.02.12-.06.21-.13.29-.01.01-.02.02-.03.04-.03.14-.14.3-.28.32,0,.02,0,.04.01.06.3,0,.57.1.83.24v.14c-.24-.15-.51-.24-.8-.26,0,.05,0,.09-.02.13v.02c.24.11.47.25.68.45v.16s-.03-.02-.03-.02c-.21-.19-.44-.39-.7-.49h0c-.04.06-.08.12-.13.17-.15-.1-.3-.2-.48-.24-.06.02-.08-.04-.09-.09,0,0,0-.02,0-.02v-.11c.09-.03.14-.14.17-.23h0s.08.04.11.02c.03-.02.03-.06.04-.09v-.02c-.03-.12-.15-.13-.26-.14-.02,0-.03,0-.05,0-.15-.01-.3,0-.42.07-.03.02-.02.06-.02.1,0,0,0,.02,0,.03.01.03.04.04.07.05.03,0,.07-.01.1-.03,0,.1.05.2.13.25,0,0,.01,0,.01,0,0,0,0,0,0,0l-.03.18c-.03.05-.08.06-.13.06-.03,0-.06.01-.09.03-.13.03-.25.09-.36.17-.06-.04-.11-.1-.16-.16h0c-.18.06-.35.17-.51.3l-.17.14s-.01-.08,0-.11c0-.02,0-.04,0-.06.13-.14.29-.22.45-.29.06-.03.13-.06.19-.09v-.17c-.07-.02-.13,0-.2,0-.02,0-.04,0-.07,0-.19.04-.36.12-.52.23,0-.02,0-.03,0-.05,0-.05,0-.1.04-.12.23-.14.48-.21.76-.2,0-.02,0-.05,0-.07,0-.01,0-.03-.01-.04,0-.03-.01-.06-.04-.07-.13-.13-.21-.3-.24-.48h0s0,0,0,0h0s0,0,0,0c.01,0,.03,0,.04,0,0,0,0,0,.01,0,0,0,0,0,0,0,0,0,0,0,0,0-.05-.2-.05-.41,0-.61-.11-.05-.24-.15-.28-.27-.05-.08-.09-.17-.1-.27.04-.12.1-.23.17-.34.02-.01.05-.02.07-.03.02,0,.03-.01.05-.02l.04-.03c.08-.06.16-.12.26-.07.03,0,.07.02.1.03.04.01.08.03.12.04,0,.04,0,.09.05.11.08.01.11.08.14.15.02.04.03.07.06.1.03.02.07.02.11.02.03,0,.05,0,.08,0,.02,0,.04.01.06.02.07.02.14.04.19.08.14-.11.34-.13.52-.1.01-.06.04-.12.06-.18l.02-.04s.03-.01.03-.03c0-.01,0-.03.03-.03l.04-.03c.09-.06.18-.13.29-.09.04.02.08.03.12.04.07.02.15.04.19.1h0c.06.06.09.13.12.21.02.04.04.09.06.13-.02.05-.02.1-.03.16,0,.1-.02.2-.1.26l-.1.09h0s-.05.03-.08.04c-.01,0-.03,0-.04.01.06.17.02.37-.05.52ZM4.89,6.65l.14-.09v-.23s-.07.06-.09.1c-.01.02-.03.04-.05.06v.16h0ZM4.93,7.6l-.11-.35c0-.11.04-.19.08-.28l.17-.05-.08.12c.01.11-.01.21-.03.3-.02.08-.03.17-.03.26h0ZM11,8.82s0-.03,0-.05c.03-.06.07-.1.12-.14.01,0,.03,0,.04,0,.05,0,.1-.02.14.02,0,.09.07.09.14.09.03,0,.06,0,.08,0,.02.03.04.07.06.11.01.03.03.05.04.08-.03,0-.05-.01-.08-.02-.13-.03-.26-.07-.39-.06-.02,0-.04.01-.06.02-.04.01-.09.02-.12.06-.02-.03-.01-.06,0-.1h0ZM6.12,8.82l.11-.11s.02,0,.02,0v.21c.04.05.11.07.18.07,0-.04.02-.07.04-.1.01-.02.02-.03.03-.05,0-.02.01-.03.01-.05,0-.03,0-.06.03-.08h.01s0,.05,0,.08c0,.05.01.09.03.13v.08s.01.02.01.02c.08,0,.15-.02.21-.05,0-.05,0-.09.02-.13,0-.02,0-.04.01-.06,0,0,0-.02,0-.03,0-.02,0-.03.02-.03.01.03.03.05.05.08.02.03.04.06.05.1.11-.11.15-.26.17-.42-.02-.03-.04-.04-.07-.05-.02,0-.03-.01-.05-.03-.31-.11-.71-.13-1,.04-.02.13,0,.27.08.38ZM3.23,12.82c0-.13-.02-.26,0-.39l.2-.24c.11.08.15.23.12.35-.05-.03-.09-.05-.15-.07-.04.07-.04.15-.03.23,0,.05.01.11,0,.16v.1c-.06,0-.11-.06-.14-.11v-.05s0,0,0,0ZM3.68,12.22c-.07.23-.12.5-.04.74h.02s.09-.07.12-.12v-.06c-.01-.16-.02-.33.07-.47.09.03.15.12.18.21.06-.08.08-.19.06-.3,0-.06-.04-.07-.08-.08-.02,0-.04-.01-.06-.02,0-.01,0-.03,0-.04,0-.06.02-.12.08-.15l-.22.02-.03.04c-.05.07-.1.14-.12.23ZM4.13,12.91s0-.02,0-.02c0-.26.03-.51.14-.72.08-.1.2-.16.33-.18l.11.04-.08.11c.09.05.22.14.21.27v.11s-.02.01-.02.01c-.07.12-.13.23-.22.33h-.01c0-.08.01-.16.03-.23,0-.05.02-.09.03-.14,0,0,0-.01.01-.02,0-.01.02-.02,0-.03-.03,0-.06-.01-.09-.03-.03-.01-.06-.03-.1-.03-.03.02-.04.06-.06.09,0,.02-.01.04-.03.06-.03.05-.06.1-.09.15-.05.08-.11.16-.13.26-.01,0-.01-.01-.01-.03ZM4.61,11.75s.04,0,.06,0c.02,0,.04-.01.06,0h0c.17.07.34.13.46.28l.15.4.07-.25-.05-.13c-.04-.09-.13-.09-.21-.09,0,0-.02,0-.03,0-.03-.03-.01-.06,0-.09,0,0,0-.02.01-.03.03-.09-.04-.12-.11-.15-.03,0-.05-.02-.08-.04,0-.06-.05-.06-.1-.06-.01,0-.03,0-.04,0l-.02-.02s-.04-.02-.05,0c0,0,0,0,0,0,0,0,0,0,0-.01h-.04c-.06.06-.09.13-.1.21ZM4.76,11.37s-.03-.04-.04-.07c.03-.02.05-.06.07-.09.03-.06.07-.12.14-.1.07.01.13.03.18.07.05.01.09.05.12.09.02.02.04.04.06.06.04.04.08.07.13.09.04.03.09.05.12.09,0,.05.02.09.07.11.08,0,.09.08.1.15,0,.03,0,.06.02.08l-.13.18s-.03-.07-.03-.11c0-.05-.02-.11-.07-.14,0-.01.01-.03.02-.04.02-.03.04-.05.02-.09-.02-.03-.04-.04-.07-.05,0,0-.01,0-.02,0h-.05c-.15-.05-.27-.17-.39-.28h0c-.07-.03-.13,0-.19.02-.02,0-.04.02-.07.02ZM4.89,10.92l.02.04s.08-.01.12-.02c.05-.01.09-.02.14-.02.03.02.07.03.11.04.03,0,.06.02.09.03h0c.05.08.1.15.17.2.15.02.23.19.28.31v-.06c.02-.08,0-.18-.03-.25-.02-.02-.05-.04-.07-.06-.02-.01-.04-.03-.06-.04,0-.02,0-.03,0-.05h0s-.09-.08-.13-.11c-.03-.02-.05-.03-.08-.05-.07-.1-.18-.11-.29-.13-.05,0-.1,0-.14-.02l-.15.19ZM4.94,9.71c-.01-.07-.03-.13-.05-.2.01-.04.05-.08.08-.11.01-.01.02-.02.03-.03h0c.06.02.12.03.17.07-.03.03-.06.06-.09.09-.06.05-.12.1-.15.18h0ZM5.22,10.14l.08-.09c.08-.09.15-.19.16-.3-.06-.04-.13-.01-.19,0,0,.03-.01.07-.02.1-.02.09-.03.18-.04.28ZM5.34,10.42s-.04,0-.06,0c.15-.08.29-.24.35-.39.02,0,.04,0,.06,0,.01,0,.02,0,.03,0l-.1.35c-.09.06-.18.05-.29.05ZM5.32,9.19c.08.13.22.27.36.31-.01-.1-.07-.19-.13-.27-.03-.05-.06-.09-.09-.14v-.05c-.05-.05-.11-.09-.17-.12,0,.08,0,.15.02.22v.05s0,0,0,0ZM6.05,10.4c-.09.03-.19.05-.29.03l.02-.02c.06-.05.11-.1.18-.13l.17-.18h.16c-.04.12-.11.27-.24.3h0ZM5.74,9.01c.03.15.09.29.17.42l.02-.29-.19-.13ZM6.32,9.56c.01.07.03.14.02.2-.11-.1-.22-.23-.22-.38.03.02.06.03.09.04.03,0,.07.02.09.04,0,.03.01.07.02.11h0ZM6.17,10.74c.11-.04.23-.08.33-.14.02-.03.04-.06.06-.08.06-.07.11-.14.12-.23-.03,0-.07.01-.1.01-.04,0-.09,0-.13.02-.01.02-.02.04-.03.06-.03.07-.07.14-.14.19,0,.04-.04.07-.07.1-.02.02-.03.04-.05.06h0ZM6.49,11.16l-.14-.19c.1.02.22.03.31,0l.05.17c-.07.04-.15.05-.23.03h0ZM6.58,9.61l.05.25c.13-.11.15-.27.15-.44h0c-.07.09-.11.14-.19.18ZM6.97,10.16s-.03-.06-.03-.1l.33.08c0,.05.04.08.07.09.03.04.06.07.09.1.03.03.05.05.08.08h0c-.07.04-.17.09-.25.05-.06-.03-.1-.09-.13-.15-.04-.06-.08-.13-.15-.16ZM7.05,10.97c.06.07.15.11.23.13,0-.01,0-.01,0,0,0,0,.01,0,.01,0l-.11-.25s-.04,0-.06,0c-.03,0-.07,0-.1,0,0,.04.01.08.03.12h0ZM7.15,9.37c.01.14.04.29.09.42-.02-.02-.05-.03-.08-.04-.09-.04-.19-.09-.17-.19.03-.04.06-.07.09-.1.03-.03.05-.05.08-.08ZM7.46,9.65c.07.09.21.06.29.03-.02-.03-.05-.06-.09-.08-.04-.03-.08-.06-.1-.1-.01-.13-.04-.26-.08-.38h0c-.06.17-.14.36-.03.53ZM7.62,10.1l-.05-.04c.11-.01.21-.03.31-.06h.04l.09.13s.06.04.09.05c.05.03.09.05.14.08,0,.02-.02.02-.03.03,0,0-.02,0-.02.01-.23.05-.4-.08-.57-.21h0ZM7.58,11.62h.01c.1-.08.21-.12.33-.15h.04s.02.01.02.02c0,.01,0,.03.02.03.04-.02.09-.02.13-.03.04,0,.08-.01.12-.02h0c.09,0,.17,0,.25.05.04.05.09.07.15.09.04.01.08.02.11.05v-.13c-.18-.21-.45-.23-.69-.22v-.03c-.06,0-.13.01-.18.04-.06,0-.11.02-.16.04-.02,0-.04.02-.07.02-.03.06-.05.13-.07.19,0,.01,0,.03-.01.04ZM8.02,9.4c-.12.03-.23-.05-.3-.15-.04-.07-.05-.15-.07-.23,0-.04-.01-.08-.02-.12.03.03.07.05.1.07.08.04.16.09.14.2,0,.08.07.15.12.21h.01ZM7.71,11.96h.02s.1-.04.16-.04c.06,0,.12,0,.17-.04.03-.02.05,0,.06.03,0,.02.02.03.03.04.03.02.06.06.08.1.04.06.07.12.15.09.12.07.12.21.12.34,0,.03,0,.06,0,.08l.14-.09s0-.06,0-.09c0-.05,0-.1-.02-.14-.02-.05-.06-.07-.09-.09-.03-.02-.06-.04-.08-.07.04-.06,0-.11-.04-.15-.02-.02-.04-.04-.05-.07h0s.19.02.19.02c.07.04.09.12.11.19.12.02.17.14.21.25,0,.03.02.05.03.07.02-.04.03-.08.04-.12.01-.04.02-.08.04-.12,0-.04-.04-.06-.07-.07-.02,0-.03-.01-.05-.02-.01-.1-.05-.19-.13-.25-.06-.02-.12-.04-.17-.06-.1-.04-.21-.08-.33-.08l-.15.05s-.06.01-.09.01c-.05,0-.11,0-.15.05-.08,0-.1.08-.11.14,0,.02,0,.03-.01.04h0ZM7.84,11.19l-.03-.02c.01-.07.06-.12.11-.18l.03-.03c.07.03.13-.01.18-.05.07-.05.13-.1.2,0,.03.02.06.03.09.03.02,0,.05.01.07.02.13.02.18.16.21.27h0s-.04,0-.06,0c-.06-.01-.13-.02-.16-.09h-.01s-.05-.06-.08-.04c-.06.05-.11.03-.17,0-.05-.02-.1-.04-.15-.02-.05.02-.11.05-.16.08-.02.01-.05.02-.07.03ZM7.84,12.11s.02.02.04.04c.05.05.1.1.17.09.07.03.08.1.09.17,0,.05.01.09.04.13l.07-.06h0s0-.01,0-.01h0c.02-.05,0-.15-.04-.22-.02-.02-.04-.01-.07-.01-.02,0-.04,0-.06-.01,0-.06-.04-.09-.08-.13h0s-.04-.01-.06,0c-.01,0-.03,0-.04,0l-.06.02h0ZM8.27,9.96c-.08-.06-.16-.11-.2-.19.05-.05.12-.06.18-.07.02,0,.04,0,.06-.01.02.02.03.05.04.07,0,.02.01.04.02.05.07.08.14.16.21.23-.08.02-.18,0-.26-.03-.02-.02-.04-.03-.07-.05h0ZM8.17,9.07c.06.08.15.08.24.07.03,0,.06,0,.09,0h0s-.18-.18-.18-.18c-.05.02-.11.07-.15.11h0ZM8.09,7.5l.15-.05.02-.09c.03-.1-.01-.18-.05-.25-.01-.03-.03-.05-.04-.08l-.07.47ZM8.51,8.16s-.03-.03-.04-.05c0-.02,0-.05,0-.07,0-.05,0-.11,0-.16.01.02.02.03.03.05.02.03.03.07.07.09.05-.03.06.02.08.06,0,.02.02.04.03.05,0,.02.01.03.02.05.01.03.03.06.03.1-.1.03-.17-.05-.23-.13h0ZM8.49,8.67s.02.04.03.06c0,.02.02.05.03.06.05.03.12.03.18.02.02,0,.04,0,.06.01.02.01.05.02.08,0-.04-.03-.07-.06-.09-.1-.02-.03-.04-.05-.07-.08-.05-.05-.11-.03-.17,0-.02,0-.04.01-.05.02h0ZM9.04,9.7c-.17.03-.33-.05-.45-.13,0,0,0-.01-.01-.02,0-.01-.02-.02-.02-.04.03,0,.06-.01.09-.03.05-.03.09-.05.13.01.06.01.12.05.18.09.05.03.09.06.14.08,0,.02-.02.02-.03.02,0,0-.01,0-.02,0h0ZM8.97,11.27l.03.06c0,.07.03.13.05.2.04.13.08.26.03.41.04.03.06.07.08.11,0,.02.02.04.03.06h0c.04-.15.02-.31,0-.47v-.04c0-.13-.09-.21-.17-.28-.02-.01-.03-.03-.05-.04ZM9.35,9.34c-.11.04-.26.03-.35-.05l.15-.09c.06.05.13.1.2.14h0ZM9.45,9.89c0,.08.04.15.1.19,0-.02.01-.03.02-.04.02-.03.03-.06.04-.1-.02-.08-.06-.16-.13-.21v.02s-.02.1-.02.15ZM9.52,10.88s-.08-.05-.07-.11c0-.06.03-.11.06-.15.02-.03.04-.05.05-.08.01,0,.03.02.04.03,0,.02,0,.03.01.05.02.07.05.15.02.23-.01.05.02.07.05.09.03.02.06.03.06.07,0,.08-.03.15-.05.23-.01.04-.02.08-.03.12,0-.13-.04-.23-.11-.33,0-.02,0-.03.02-.04.01-.02.03-.04,0-.07-.01-.02-.03-.03-.05-.04ZM9.7,10.31l.09.19s.05-.03.08-.05c0,0,.02-.02.02-.02.02-.05,0-.09-.03-.14-.01-.02-.02-.04-.03-.06,0-.02,0-.04,0-.06,0-.03,0-.06-.02-.09h-.01s-.04-.04-.07-.03l-.03.26ZM10.02,10c-.04-.09-.13-.15-.2-.2.09,0,.19.02.27.09,0,.05.02.11.07.13.09.02.13.09.16.17.02.05.04.09.08.13.02.03,0,.04-.03.06,0,0-.01.01-.02.02-.04,0-.06.03-.07.07h0s.03.03.04.04c.04.03.09.05.12.1,0,.1-.01.19-.03.29,0,.05-.01.1-.02.15-.04,0-.04-.03-.05-.06,0-.01,0-.02,0-.03-.03-.1-.05-.2-.07-.3h0s-.02-.08-.02-.08c-.03-.08-.07-.16-.1-.23-.05-.11-.1-.22-.14-.33ZM9.91,10.84c.08.08.07.18.06.28,0,.02,0,.04,0,.06,0,.04.02.05.05.05.02,0,.04,0,.05.02.05.08.03.2,0,.29v.02s.03-.05.04-.07c.04-.05.07-.1.1-.16,0-.02,0-.03.02-.04.01-.01.02-.03.02-.05.01-.04-.02-.04-.04-.04,0,0-.02,0-.03,0-.02,0-.05-.02-.04-.05.04-.08.02-.17,0-.25,0-.02,0-.04-.01-.06,0-.03,0-.08,0-.12,0-.05,0-.1-.02-.14-.02.03-.05.05-.09.07-.06.04-.13.08-.1.18ZM10.27,9.69c-.06-.07-.12-.15-.19-.22.07-.02.13.03.18.08.04.04.09.08.15.09l.02.02s.07.07.09.11v.07s.01.1,0,.15c-.1-.1-.18-.2-.27-.3h0ZM10.5,10.39s0,.03.02.04h0c.07.13.14.26.19.39,0-.05,0-.1,0-.15.01-.1.03-.21-.05-.28-.01-.04-.06-.03-.09-.03h0s0,0,0,0l-.06.02h0ZM11.1,11.75s-.11.07-.16.05c.05-.02.07-.06.09-.1.02-.04.05-.08.09-.11.02-.03.04-.02.06,0,0,0,.01,0,.02,0,.05.03.09.05.15.05,0,.03,0,.08-.02.11.02.02.04.03.07.03.02,0,.04,0,.05.02.06.05.12.11.11.19l-.03.03c-.1-.06-.2-.11-.31-.14,0-.01,0-.02,0-.04,0-.02,0-.04,0-.05-.03-.02-.07-.05-.12-.04h0s0,0,0,0ZM11.07,9.37h0s.09-.03.12-.06c.09-.08.2-.07.31-.05.04,0,.09.01.13.01-.03-.05-.06-.1-.1-.15h-.02s-.08-.05-.13-.05c-.09-.06-.16,0-.24.06-.02.02-.04.04-.07.05-.03.05-.04.13-.01.18ZM11.08,9.76s0,0,0,.01c-.02-.05-.01-.11-.01-.17v-.03c.05,0,.09-.02.13-.05.02-.02.05-.03.07-.04.12.01.23-.02.33-.06h.02s.05.03.05.07c.01.05.02.09.09.04.04-.03.09-.07.15-.05.1.06.21.17.22.29-.17-.1-.37-.15-.57-.18-.06,0-.11.03-.16.06-.05.03-.1.06-.16.06h-.02s-.08.07-.12.09c-.02,0-.02-.02-.02-.03,0-.01,0-.02,0-.03ZM11.16,10.2s.07.04.12.04c.01,0,.03,0,.04,0l.16-.07s0-.02-.02-.03c-.01-.01-.02-.02-.02-.04.03-.03.06-.03.09-.03.02,0,.04,0,.07,0,.02,0,.05-.02.08-.03.05-.02.1-.05.16,0,0,0,0,0,0,.01,0,0,0,.01,0,.02-.02.06.02.1.06.12.03,0,.06.02.09.04.06.03.11.05.17.03,0-.07-.02-.13-.04-.19v-.03c-.05,0-.09-.03-.12-.06-.03-.02-.05-.04-.08-.05-.03.03-.07.05-.11.05-.03,0-.06-.02-.09-.03-.12-.04-.24-.08-.36,0-.03.04-.08.05-.13.06-.03,0-.06,0-.08.02,0,.07.01.13.03.19ZM11.21,11.36h0s0-.01,0-.01c0-.01.02-.02.02-.04.01-.02.02-.04.04-.05.03,0,.05-.01.07-.02.03-.01.06-.03.09-.02.06,0,.1.02.14.05.04.03.08.05.12.05.05.04.08.1.09.16,0,.06-.01.11-.03.16,0,.03-.01.05-.02.08l-.15-.13s0-.01,0-.02c0-.03,0-.07-.02-.09-.06-.07-.16-.06-.25-.04-.04,0-.07,0-.11,0-.05-.01-.03-.05-.02-.09ZM11.26,10.44v.03c.03.05.06.11.1.12.11-.05.26-.08.38-.03.04,0,.04.06.03.09.03.02.06.03.09.05.04.02.07.04.11.06l-.02-.12c0-.06-.04-.1-.08-.13-.04-.03-.08-.07-.08-.13-.12-.05-.26-.05-.39-.02-.03.03-.07.03-.11.04-.01,0-.03,0-.04,0,0,0,0,.02,0,.03,0,0,0,0,0,.01ZM11.38,11.01s-.05.04-.09.05c0-.02,0-.04.02-.05,0,0,0-.01.01-.02,0-.02,0-.04,0-.06,0-.07,0-.14.08-.16h.13c.04.07.11.08.18.09.06.01.12.02.16.08,0,.04,0,.08,0,.12,0,.05,0,.11,0,.16-.03,0-.04-.03-.05-.05,0-.02-.02-.04-.04-.06-.06-.1-.17-.16-.29-.16-.04,0-.07.03-.11.06h0ZM11.96,11.9s.05.09.08.13c.05.07.1.13.11.22.03-.03.05-.08.07-.11h0s-.02-.04-.03-.05c-.01,0-.02-.02-.03-.03-.01-.04,0-.07,0-.1,0-.01,0-.03,0-.04-.03-.07-.08-.14-.14-.18l-.07.16h0ZM12.31,11.79l-.13-.19s.03-.06.04-.09c.01-.04.03-.08.06-.11.03-.02.06.02.07.04.02.11.02.25-.03.35ZM11.65,6.33s.09.05.15.05c.04-.02.09-.04.13-.02.04.03.09.02.14,0,.03,0,.06-.01.09-.01-.07-.07-.15-.11-.23-.15-.05.01-.1.04-.15.07-.04.02-.09.05-.13.06ZM12.57,6.66c-.06-.07-.13-.15-.21-.16.08-.04.16-.04.25-.05h0c.06.08.12.16.14.26l.03.1c-.05-.06-.11-.13-.19-.14l-.02-.02h0ZM5.57,5.66h.05s.06.04.1.05c.13.05.27.11.28.29-.14.06-.28.14-.4.26-.03-.04-.08-.05-.13-.07-.07-.02-.14-.04-.16-.14.03-.16.08-.35.25-.39h0ZM5.94,6.61c.08,0,.16,0,.25,0,.04.02.09.06.11.1,0,.11-.02.21-.04.31-.02.1-.03.2-.04.31-.07.03-.15.1-.17.19-.04.01-.09.04-.13.06-.02.01-.04.02-.06.03-.03-.07-.02-.16.03-.22.03-.04.07-.06.12-.08.07-.03.13-.06.12-.17.03-.05.02-.12.01-.18,0-.03,0-.06,0-.09-.01-.04-.02-.02-.03,0,0,.01-.02.03-.03.02-.06.01-.12.02-.17-.01,0,0-.02-.02-.03-.03-.03-.03-.06-.06-.07-.11-.05-.03-.11-.07-.14-.13h.03c.08-.01.16-.01.25-.01ZM6,7.89s-.06,0-.09,0c0,0,0,.02,0,.03,0,.04,0,.08.02.09l.12-.06s.07-.02.08-.05c-.04-.02-.09-.02-.14-.02ZM6.23,6.29s.04-.01.06-.02c.06-.03.12-.05.19-.03-.06.06-.1.14-.14.21h0s-.25,0-.25,0c.03-.07.1-.13.16-.16ZM7.06,6.29s-.05-.07-.1-.06c-.04,0-.09-.01-.13,0-.02,0,0,.03,0,.04h0c.08,0,.09.04.1.09.01.04.02.07.06.1.03,0,.06,0,.09,0,.04,0,.08,0,.11-.02,0-.03,0-.05-.02-.07,0,0,0,0,0-.01-.04,0-.07-.04-.09-.07ZM6.89,6.74c.04-.06.1-.07.16-.08h.02s.47,0,.47,0c.01.01,0,.02,0,.03,0,0-.01.02-.01.03-.01.01-.03.02-.05.03-.02,0-.03.02-.05.03-.04,0-.05.03-.06.06,0,.02-.02.04-.04.05-.06.06-.14.05-.21.03-.01,0-.03,0-.04,0-.03-.02-.05-.05-.07-.08l-.02.02c.02.06.02.12.02.19,0,.05,0,.1.02.15l.11.08c0,.11.08.13.15.16.05.02.1.03.13.07-.02.06-.06.12-.1.17-.06-.07-.14-.12-.23-.15,0-.08-.08-.14-.14-.19-.01,0-.03-.02-.04-.03,0-.06-.01-.13-.01-.19,0-.13-.02-.25-.04-.37h.02ZM7.28,7.93h-.22s-.03,0-.03.02l.22.1.03-.12ZM7.46,5.75l.16-.05c.09.05.18.1.27.17.07.13.06.31.03.45-.02.03-.05.03-.09.03-.04,0-.09,0-.11.06h0c-.06-.18-.23-.34-.39-.43.03-.09.05-.18.14-.24Z" style="fill: #fefefd; fill-rule: evenodd;"/>
</svg>