<svg xmlns="http://www.w3.org/2000/svg" viewBox="0 0 18 18">
  <g clip-path="url(#a)">
    <path fill="#2B66AF" d="M0 0h18v18H0V0Z"/>
    <path fill="#00C7FD" d="M3.734 6.309H2.75v.984h.984v-.984Z"/>
    <path fill="#fff" d="M3.71 11.434V7.887h-.936v3.544h.935v.003Zm6.19.035v-.868a2.16 2.16 0 0 1-.336-.021.38.38 0 0 1-.221-.098.393.393 0 0 1-.098-.214 2.267 2.267 0 0 1-.021-.343V8.689H9.9v-.802h-.676v-1.38h-.935v3.428c0 .291.025.536.074.732.049.193.133.35.248.47a1 1 0 0 0 .455.255c.19.053.428.077.711.077H9.9Zm5.35-.035v-5.2h-.935v5.2h.935ZM7.39 8.237c-.26-.28-.624-.42-1.086-.42a1.36 1.36 0 0 0-.613.137c-.186.09-.34.217-.466.378l-.049.066v-.51h-.92v3.543h.927V9.543v.13-.063c.01-.333.091-.578.245-.736a.803.803 0 0 1 .592-.252c.27 0 .476.084.613.245.133.162.203.39.203.68v1.883h.942V9.42c.003-.505-.13-.904-.389-1.184Zm6.442 1.418a1.96 1.96 0 0 0-.133-.717 1.92 1.92 0 0 0-.375-.585 1.706 1.706 0 0 0-.578-.392 1.895 1.895 0 0 0-.742-.14 1.842 1.842 0 0 0-1.306.535 1.827 1.827 0 0 0-.536 1.306c0 .256.046.497.137.722a1.749 1.749 0 0 0 .973.977c.231.098.487.147.76.147.791 0 1.282-.361 1.576-.697l-.673-.511c-.14.168-.476.395-.896.395-.262 0-.48-.06-.644-.182a.9.9 0 0 1-.336-.493l-.01-.032h2.783v-.333Zm-2.777-.325c0-.26.298-.711.939-.715.64 0 .941.452.941.711l-1.88.004Z"/>
  </g>
  <defs>
    <clipPath id="a">
      <path fill="#fff" d="M0 0h18v18H0z"/>
    </clipPath>
  </defs>
</svg>
