<svg xmlns="http://www.w3.org/2000/svg" viewBox="0 0 18 18">
  <g clip-path="url(#a)">
    <path fill="#006963" d="M0 0h18v18H0V0Z"/>
    <path fill="#fff" d="M6.655 7.432a1.8 1.8 0 0 1-1.36.62H4.35V6.25h3.333L6.655 7.432Zm4.362-1.182H7.683v1.802h.945a1.8 1.8 0 0 0 1.36-.62l1.029-1.182Zm2.305.62a1.802 1.802 0 0 0-1.36-.62h-.945v1.802h3.333L13.322 6.87ZM7.683 8.439H4.35v1.802h.945a1.8 1.8 0 0 0 1.36-.62L7.683 8.44Zm3.333 0H7.683v1.802h.945a1.8 1.8 0 0 0 1.36-.62l1.028-1.182Zm3.333 0h-3.333v1.802h.945a1.8 1.8 0 0 0 1.36-.62L14.35 8.44Zm-6.666 2.188H4.35v1.802h.945a1.8 1.8 0 0 0 1.36-.62l1.028-1.182Zm3.333 0H7.683v1.802h.945a1.8 1.8 0 0 0 1.36-.62l1.028-1.182Z"/>
  </g>
  <defs>
    <clipPath id="a">
      <path fill="#fff" d="M0 0h18v18H0z"/>
    </clipPath>
  </defs>
</svg>
