<svg xmlns="http://www.w3.org/2000/svg" viewBox="0 0 18 18">
  <g clip-path="url(#a)">
    <path fill="#fff" d="M0 0h18v18H0V0Z"/>
    <path fill="#29B582" d="m12.936 5.146-.055-.055-.066-.055-.055-.055-.066-.055-.154.077-.154.077-.165.088-.143.077-.144.088-.143.089-.143.099-.132.088-.132.11-.132.088-.11.11-.133.1-.11.11-.11.11-.11.11-.11.11.033.165.022.187.022.176.011.187.022.176.011.188.011.176v.187l.022.165v.925l-.01.154-.012.143-.01.144-.012.143-.01.143-.023.143-.01.132-.023.143-.022.132-.022.133-.022.143-.022.132-.033.12-.033.133-.022.121-.033.132-.033.11-.033.133-.044.11-.033.12-.044.11-.044.122-.044.11-.044.11-.045.11.067.121.077.11.077.122.077.11.088.11.088.11.088.11.1.11.098.1.1.098.11.11.11.089.11.099.11.088.11.088.132.088.066-.033.066-.044.077-.033.066-.044.066-.044.066-.044.067-.044.066-.044-.088-.11-.089-.11-.088-.11-.088-.122-.077-.11-.077-.121-.077-.121-.066-.121-.066-.121-.066-.133-.066-.12-.066-.122-.055-.132-.044-.132-.055-.132-.045-.132-.043-.121-.045-.144-.033-.132-.033-.132-.022-.132-.033-.143-.022-.132-.022-.143-.01-.143-.023-.144v-.132l-.01-.132v-.584l.01-.154.022-.154.011-.154.033-.154.022-.154.033-.143.033-.155.044-.143.045-.154.043-.132.056-.154.055-.132.055-.143.066-.144.066-.132.066-.132.077-.132.077-.132.077-.132.088-.121.077-.132.1-.11.088-.133.099-.11.099-.121.11-.11.11-.121.099-.11.11-.11.11-.11.121-.1.11-.11.011-.01Z"/>
    <path fill="#00B5C2" d="m11.66 4.177-.078-.044-.077-.044-.077-.033-.066-.033-.165.066-.154.077-.144.077-.143.088-.154.077-.143.088-.132.1-.143.088.033.099.022.088.022.099.033.099.022.088.022.11.022.088.022.1.154-.177.154-.165.165-.165.154-.154.155-.165.165-.155.165-.154.165-.143Zm-1.597 10.24h.088l.088-.033.077-.01.088-.034.088-.022.077-.022.088-.022.077-.033-.132-.154-.132-.154-.132-.165-.132-.166-.132-.165-.122-.176-.132-.176-.11-.176-.066.11-.066.099-.055.1-.066.098-.066.1-.066.087-.066.1-.066.088.088.099.11.088.11.11.11.088.11.088.11.088.11.088.11.088.012-.01Z"/>
    <path fill="#7DBA00" d="m14.357 7.745-.11.088-.1.1-.087.098-.1.11-.044.044-.044.055-.033.055-.044.044-.033.067-.044.044-.033.055-.033.066-.033.055-.033.055-.033.066-.033.055-.022.055-.033.066-.022.066-.022.055-.022.066-.022.066-.022.055-.022.066-.022.066v.067l-.022.066-.011.066-.011.077-.011.066-.011.077v.077l-.011.066v.363l.01.066v.078l.012.066.022.066v.077l.022.066.01.066.023.077.022.066.022.066.022.066.022.077.033.066.022.066.033.066.033.066.022.067.033.066.044.066.033.066.033.066.044.066.088-.154.077-.165.044-.078.033-.077.044-.077.034-.088.033-.077.033-.088.033-.088.022-.077.033-.088.022-.088.033-.088.022-.077.022-.089.022-.099.022-.088.022-.088.01-.088.023-.088.01-.088.012-.1.011-.087.011-.088.011-.1v-.087l.011-.089V9.1l.011-.088v-.165l-.011-.165-.011-.154-.011-.166-.022-.154-.033-.154-.022-.154-.033-.154Z"/>
    <path fill="#54B840" d="m12.661 9.462.011-.099.011-.099.011-.099.022-.1.022-.098.011-.11.022-.088.022-.11.022-.089.033-.11.022-.088.033-.11.033-.088.034-.1.032-.098.044-.088.034-.11.044-.089.044-.088.044-.099.044-.088.044-.099.055-.088.044-.088.055-.088.055-.088.055-.088.055-.088.066-.088.066-.078.055-.088.077-.077-.044-.077-.044-.077-.044-.077-.044-.077-.132.066-.11.077-.132.077-.11.077-.11.088-.121.077-.11.088-.11.089-.1.088-.099.099-.088.088-.1.099-.087.1-.077.11-.088.098-.077.11-.077.11-.067.11-.066.11-.066.11-.055.11-.066.111-.044.132-.044.11-.044.132-.044.11-.033.144-.033.12-.022.133-.033.132-.011.132-.022.143v.595l.01.11.023.132.01.11.023.11.033.132.022.11.033.11.044.11.033.122.044.11.055.11.044.11.055.11.055.11.055.11.066.11.067.11.066.1.066.11.077.088.077.11.077.088.088.1.077.088.088.088.088.088.088.088.055-.055.055-.055.056-.055.055-.055.055-.055.055-.066.055-.056.044-.066-.044-.077-.044-.088-.033-.088-.044-.088-.034-.088-.032-.088-.045-.1-.022-.087-.033-.088-.033-.089-.022-.099-.033-.088-.022-.099-.022-.088-.022-.11-.022-.088-.01-.088-.023-.11v-.088l-.022-.11v-.089l-.022-.11v-.198l-.01-.099v-.418l.01-.1.011-.11.011-.099Z"/>
    <path fill="#00B8E0" d="m5.163 5.036-.088.088-.089.088-.077.088-.088.088-.077.1-.077.098-.077.1-.077.099-.077.11-.066.099-.066.11-.066.1-.055.11-.066.11-.055.11-.055.11-.056.11-.044.11-.044.132-.055.11-.033.121-.044.121-.033.121-.033.132-.033.11-.033.133-.022.132-.022.132-.022.121-.011.132-.022.132v.132l.077-.088.088-.088.077-.088.077-.088.077-.11.077-.088.078-.1.066-.11.066-.098.066-.11.066-.11.066-.11.055-.11.055-.11.055-.111.055-.121.055-.11.055-.132.044-.11.044-.122.044-.12.033-.133.044-.11.033-.132.033-.121.034-.121.033-.133.022-.11.033-.132.022-.12.01-.122.023-.121Z"/>
    <path fill="#0399CC" d="m6.242 4.21-.055.044-.066.033-.055.044L6 4.364l-.056.232-.055.22-.055.22-.044.22-.066.22-.055.21-.066.198-.055.198-.066.198-.077.187-.066.188-.066.176-.077.187-.077.165-.077.176-.067.166-.088.165-.077.154-.088.165-.077.143-.088.154-.088.154-.088.133-.088.143-.088.143-.1.132-.087.132-.089.132-.11.121-.088.133-.11.11-.088.132.011.099.022.11.022.1.022.11.022.087.022.11.022.1.033.099.21-.144.187-.143.187-.154.176-.154.165-.176.154-.176.154-.188.133-.187.132-.198.12-.198.11-.21.111-.209.1-.22.087-.209.077-.22.077-.22.066-.22.067-.22.055-.221.044-.22.033-.232.044-.22.022-.22.022-.22.022-.22.01-.199v-.22l.012-.198v-.374l-.022-.188-.011-.187-.011-.01Z"/>
    <path fill="#08338F" d="m10.833 7.899-.01-.143v-.154l-.023-.143v-.144l-.022-.143-.01-.154-.023-.143-.022-.143-.01-.143-.023-.143-.022-.133-.022-.143-.022-.143-.033-.132-.022-.143-.033-.143-.033-.132-.033-.133-.033-.143-.033-.12-.033-.144-.033-.132-.033-.121-.044-.132-.044-.132-.044-.133-.033-.12-.044-.133-.044-.11-.056-.132-.044-.132-.044-.11-.077-.022h-.088l-.077-.011H9.59l.033.385.044.385.033.397.022.385.022.386v.385l.011.374v.76l-.022.374-.022.364-.033.363-.044.364-.044.363-.055.352-.066.342-.066.34-.088.331-.088.33-.1.33-.11.331-.11.309-.132.308-.143.297-.143.286-.154.287-.176.275-.177.275-.187.253-.209.254-.21.242-.22.231.089.033.077.033.088.022.077.033.088.022.088.022.088.022.077.022.088.022.089.022.088.011.088.022h.088l.099.023.088.01.088.012.143-.133.132-.132.132-.132.122-.143.132-.143.11-.154.12-.154.111-.166.11-.165.11-.176.1-.176.098-.187.089-.188.088-.187.077-.209.077-.198.077-.21.066-.22.066-.22.055-.22.055-.22.044-.242.044-.243.033-.242.033-.253.033-.253.011-.254.022-.275V7.9Z"/>
    <path fill="#0554A3" d="M8.587 3.494H8.51l-.077.022h-.1l-.076.011.01.265v1.134l-.021.297-.022.308-.022.32-.022.32-.044.318-.033.33-.055.331-.056.32-.066.33-.066.33-.077.33-.088.33-.099.331-.099.32-.11.319-.121.308-.132.32-.144.297-.154.297-.165.297-.165.275-.187.276-.198.264-.21.253-.22.242-.22.232-.253.22.088.088.11.088.088.077.11.077.088.077.11.077.11.077.11.067.309-.22.297-.254.275-.242.254-.264.242-.287.22-.275.21-.297.176-.309.176-.308.154-.32.132-.33.121-.33.11-.33.1-.33.076-.342.066-.352.056-.342.033-.352.033-.352.01-.353.012-.352v-.33l-.022-.353-.022-.352-.033-.33-.022-.364-.045-.33-.055-.33-.066-.33-.077-.309-.077-.308-.088-.298Z"/>
    <path fill="#0575B8" d="m7.365 3.726-.066.022-.077.022-.066.022-.066.022-.011.264-.022.264-.022.264L7 4.882l-.033.264-.033.264-.044.265-.044.264-.044.264-.055.264-.066.254-.055.264-.077.264-.066.253-.088.254-.077.253-.1.242-.087.253-.11.243-.11.242-.11.22-.122.242-.132.22-.132.232-.143.22-.143.22-.155.21-.165.209-.176.198-.176.187-.187.187-.187.187.055.11.044.089.066.099.055.099.066.099.055.088.066.088.066.1.264-.177.243-.176.23-.198.221-.199.22-.22.187-.231.188-.231.176-.254.154-.253.154-.264.143-.264.121-.276.11-.286.11-.286.11-.286.078-.298.066-.297.066-.308.055-.298.055-.297.033-.308.022-.309.022-.297v-.892l-.022-.286-.022-.286-.033-.287-.044-.275-.044-.264-.055-.264Z"/>
  </g>
  <defs>
    <clipPath id="a">
      <path fill="#fff" d="M0 0h18v18H0z"/>
    </clipPath>
  </defs>
</svg>
