<svg xmlns="http://www.w3.org/2000/svg" viewBox="0 0 18 18">
  <g clip-path="url(#a)">
    <path fill="#E92431" d="M0 0h18v18H0V0Z"/>
    <path fill="#fff" d="M13.822 7.759a.554.554 0 0 0-.106.101l-.218.203c-.1.095-.2.19-.293.292-.019.019-.35.323-.35.323a16.07 16.07 0 0 1-.099-1.28 34.46 34.46 0 0 1-.043-1.39 7.75 7.75 0 0 1 .074-1.368c.025-.178.3-.78-.112-.603-.879.38-2.175 1.496-2.2 3.29-.006.38.044.761.162 1.129.025.082.056.158.087.24.025.058.113.178.113.242 0 .133-.343.222-.462.247a1.63 1.63 0 0 1-.311.044c-.119.013-.225.051-.262-.063-.05-.165-.062-.368-.156-.577-.224-.482-.61-.843-1.134-.92-.467-.063-.935.121-1.346.337-.262.14-.518.298-.76.469-.044-.4-.088-.818-.119-1.287-.069-1.033-.1-2.016.156-3.018.012-.044.019-.095-.006-.133-.038-.057-.125-.038-.187-.012A3.624 3.624 0 0 0 4.505 5.54a3.71 3.71 0 0 0-.48 2.288c.106.913.592 1.8 1.39 2.225a7.15 7.15 0 0 0-.88 1.94c-.124.438-.199.894-.124 1.338.05.285.2.602.48.66.237.05.474-.108.648-.28.555-.545.829-1.318.929-2.085.08-.64.1-1.28.05-1.927l-.038-.444c-.037-.368.225-.583.493-.786.187-.14.373-.273.585-.362.212-.088.443-.146.673-.114.33.045.699.273.848.583.031.07.15.317-.012.305-.038 0-.075-.026-.106-.045a1.792 1.792 0 0 0-1.016-.228.91.91 0 0 0-.418.14c-.124.088-.212.234-.193.386a.53.53 0 0 0 .1.248.91.91 0 0 0 .318.317c.299.164.654.088.978.076.16-.012.32.017.467.082a.422.422 0 0 1 .163.114c.062.076.1.254.18.247.106-.006.144-.247.162-.317.031-.107.038-.266.181-.31.212-.064.43-.12.648-.171.106-.026.218-.045.33-.064.075-.012.156-.038.231-.006.112.05.175.177.256.266.1.114.218.21.342.285.025.013.219.114.206.14-.019.038-.044.07-.062.108-.561.944-.71 1.439-.854 2.003-.212.824-.143 1.705.374 1.813.71.152 1.44-1.122 1.602-2.352.106-.83 0-1.82-.02-2.656 0 0 .2-.197.256-.254.144-.14.287-.285.424-.43.075-.077.143-.153.218-.223.056-.057.137-.12.162-.203.013-.05-.006-.126-.068-.133a.412.412 0 0 0-.106.045Zm-7.828 4.406c-.118 1.242-.673 1.35-.922 1.261-.287-.108-.368-1.008.075-2.143.211-.545.48-1.027.722-1.42.113.837.187 1.655.125 2.302Zm.143-7.678c-.162.374-.48 1.084-.523 2.27-.025.78.093 1.73.212 2.669-.094.14-.193.279-.28.425-.543-.387-.81-1.199-.848-2.454-.063-1.876.841-2.802 1.333-3.036.125-.064.187-.051.106.126ZM8.998 9.44c-.012.019-.037.031-.068.044a.738.738 0 0 1-.237.006 1.095 1.095 0 0 1-.424-.101.545.545 0 0 1-.218-.178c-.025-.05-.05-.107-.025-.158.012-.032.043-.05.075-.07a.562.562 0 0 1 .473 0 1.2 1.2 0 0 1 .387.298c.05.05.068.114.037.159Zm3.478 2.726c-.119 1.242-.673 1.35-.917 1.261-.286-.108-.367-1.008.075-2.143.212-.545.48-1.027.723-1.42.1.837.181 1.655.119 2.302Zm.143-7.678c-.162.374-.486 1.084-.524 2.27-.024.78.094 1.73.212 2.669-.1.14-.193.279-.286.425-.543-.387-.81-1.199-.848-2.454-.056-1.876.841-2.802 1.34-3.036.119-.064.18-.051.106.126Z"/>
  </g>
  <defs>
    <clipPath id="a">
      <path fill="#fff" d="M0 0h18v18H0z"/>
    </clipPath>
  </defs>
</svg>
