<svg xmlns="http://www.w3.org/2000/svg" viewBox="0 0 18 18">
  <g clip-path="url(#a)">
    <path fill="#4C372B" d="M0 0h18v18H0V0Z"/>
    <path fill="#fff" d="M11.73 5c-.389 0-.989 0-1.695.037l-.917.037v.26h.14c.354 0 .6.038.707.113.106.074.176.186.212.372.035.186.07.558.07 1.19v3.721c0 .633-.035 1.042-.07 1.228-.036.186-.106.298-.212.372-.106.075-.353.112-.636.112h-.176v.26h3.318v-.26h-.283c-.317 0-.53-.037-.67-.112-.106-.074-.177-.223-.212-.41-.035-.185-.035-.557-.035-1.19v-1.6h.776c.812 0 1.412-.074 1.73-.26.317-.15.564-.41.74-.707.177-.335.283-.707.283-1.116a1.91 1.91 0 0 0-.388-1.191c-.247-.335-.6-.521-.989-.67C13.036 5.074 12.471 5 11.73 5Zm-6.848.074v.26h.177c.353 0 .6.038.706.113.106.074.176.186.211.372.036.186.036.558.036 1.19v2.568c0 .856-.036 1.45-.07 1.823-.071.372-.248.67-.495.967-.29.236-.65.367-1.023.372a.982.982 0 0 1-.495-.111c-.14-.075-.211-.149-.211-.26 0-.038 0-.112.07-.187.036-.111.07-.186.07-.297a.578.578 0 0 0-.14-.41.513.513 0 0 0-.389-.148.554.554 0 0 0-.388.186c-.106.111-.141.26-.141.446 0 .298.141.558.424.744.282.224.705.298 1.235.298.494 0 .917-.074 1.27-.26.353-.187.671-.41.883-.745.212-.334.353-.67.388-1.004.035-.335.07-.819.07-1.451V6.935c0-.633.036-1.042.071-1.19.035-.187.106-.298.212-.336.106-.074.353-.074.706-.074h.176v-.26H4.882v-.001Zm6.953.186c.67 0 1.13.15 1.412.447.282.298.459.744.459 1.377 0 .409-.07.781-.247 1.042a1.31 1.31 0 0 1-.636.558c-.246.074-.6.149-.988.149h-.53V5.298c.107-.038.283-.038.53-.038Z"/>
  </g>
  <defs>
    <clipPath id="a">
      <path fill="#fff" d="M0 0h18v18H0z"/>
    </clipPath>
  </defs>
</svg>
