<svg xmlns="http://www.w3.org/2000/svg" viewBox="0 0 18 18">
  <g clip-path="url(#a)">
    <path fill="#FCAF16" d="M0 0h18v18H0V0Z"/>
    <path d="M14.998 9.968c0 .303-.103.656-.333.945-.592.745-1.698 1.05-2.492 1.09-.007.1-.042.19-.096.216l-.028.011s-.143.091-.144.094a.137.137 0 0 1-.137.03c-.941-.266-2.5-1.278-3.531-1.947 0 0-.606-.382-.745-.468V10c0 .783.054 1.96.107 2.776l.012.176c.008.12.014.218.014.307 0 .08-.005.151-.019.224l-.027.06-.042.005c-.17.02-.422-.077-.506-.134 0 0-.037-.04-.04-.046l-.146-.487c-.063-.245-.135-.521-.197-.614l-.013-.027-.002-.01c-.128-.656-.194-1.505-.212-2.673l.002-.044-.116.064a2 2 0 0 0-.345.208c-.066.05-.14.107-.208.101l-.162.098c-.382.23-1.275.77-1.605.915-.357.156-.549.23-.678.226l-.077-.013-.081-.055s-.078-.049-.075-.049l-.056-.043-.02-.028.02-.043c.05-.108.17-.208.33-.273a4.27 4.27 0 0 0 .424-.203l.735-.487 1.399-.935a1.959 1.959 0 0 1-.017-.01l-.09-.051s-.132-.102-.132-.105l-.768-.42-.503-.267c-.433-.233-.875-.531-1.05-.71l-.018-.046-.015-.074c-.008-.029-.017-.058-.017-.088 0-.02.005-.04.017-.058.09-.138.39-.34.547-.368 0 0 .1.025.097.023l.365.234.24.155c.12.073.245.148.347.162l.033.006.009.005c.285.14.866.427 1.495.826.062-1 .325-2.252.64-3.012a.094.094 0 0 1 .072-.062l.175-.064.132-.049a.42.42 0 0 1 .318.02l.015.004.051.091.068.127.018.1a22.109 22.109 0 0 0-.335 2.558 77.674 77.674 0 0 1 2.476-1.52l.078-.044a1.36 1.36 0 0 0 .312-.215c.507-.475 1.063-.735 1.495-.691a.1.1 0 0 1 .074.074.54.54 0 0 1-.007.325l-.012.078-.027.087c-.553.573-1.605 1.153-2.535 1.663l-.967.547s-.06.04-.052.031c-.038.057-.218.17-.61.398 0 0-.278.168-.291.181v.05l.238.161c.445.295.997.664 1.287.897l.052.042c.096.08.254.21.343.245.503.191 1.059.582 1.506.896l.527.357c.564.02 1.02-.044 1.435-.203.439-.163.771-.426.938-.739.224-.421.162-.789.133-.83-.212-.23-.48-.318-.82-.264-.6.091-1.107.7-1.233 1.21 0 0-.005.169-.004.17.002.062-.03.109-.085.115l-.065.01c-.174.065-.476.146-.571.11-.088-.032-.202-.12-.21-.18-.069-.59-.067-1.279.008-2.061l.022-.066c.044-.067.088-.615.09-.811l.046-.1c.084-.074.43-.195.607-.199.044 0 .079.022.094.06.062.146.083.318.083.498 0 .177-.02.364-.039.549-.02.18-.04.366-.04.538l.002.015c.332-.202.767-.42 1.315-.453.66-.039 1.152.114 1.506.468l.104.066c.124.118.193.332.193.58Z"/>
  </g>
  <defs>
    <clipPath id="a">
      <path fill="#fff" d="M0 0h18v18H0z"/>
    </clipPath>
  </defs>
</svg>
