<?xml version="1.0" encoding="UTF-8"?>
<svg id="Layer_1" xmlns="http://www.w3.org/2000/svg" viewBox="0 0 18 18">
  <path d="M0,0h18v18H0V0Z" style="fill: #fafafa;"/>
  <g>
    <path id="path15" d="M14.78,7.72l-5.74,4.44c.61.42,1.35.66,2.14.66,2.11,0,3.82-1.71,3.82-3.82,0-.45-.08-.88-.22-1.28Z" style="fill: #eb1923;"/>
    <path id="path17" d="M9,6.7l.56-.36,1.84-1.16c-.07,0-.15,0-.22,0-.24,0-.46.02-.69.06l-1.07.97-.42.38-1.33.9-4.39,2.96c.06.15.13.3.21.44l4.05-3.09,1.44-1.1Z" style="fill: #eb1923;"/>
    <path id="path19" d="M6.82,5.18c-2.11,0-3.82,1.71-3.82,3.82,0,.45.08.88.22,1.28l5.74-4.44c-.61-.42-1.35-.66-2.14-.66Z" style="fill: #eb1923;"/>
    <path id="path21" d="M9,8.27l1.29-.85,2.7-1.78c-.16-.09-.32-.16-.49-.22l-2.3,1.81-1.2.94-1.63,1.09-3.41,2.28c.11.12.22.24.35.34l3.09-2.37,1.6-1.23Z" style="fill: #eb1923;"/>
    <path id="path23" d="M9,9.05l1.52-1.01,3.05-2.03c-.13-.1-.27-.2-.41-.29l-2.7,2.09-1.45,1.12-1.52,1.01-3.05,2.03c.13.11.27.2.41.29l2.7-2.09,1.45-1.13Z" style="fill: #eb1923;"/>
    <path id="path25" d="M9,9.84l1.63-1.09,3.41-2.28c-.11-.12-.22-.24-.35-.34l-3.09,2.37-1.6,1.23-1.29.85-2.7,1.78c.16.09.32.16.49.22l2.3-1.81,1.2-.94Z" style="fill: #eb1923;"/>
    <path id="path27" d="M9,7.49l.98-.63,2.32-1.51c-.2-.06-.4-.1-.6-.13l-1.83,1.47-.86.69-1.6,1.08-3.82,2.57c.09.14.18.27.28.39l3.51-2.69,1.63-1.24Z" style="fill: #eb1923;"/>
    <path id="path29" d="M9,10.62l1.6-1.08,3.82-2.57c-.09-.14-.18-.27-.28-.39l-3.51,2.68-1.63,1.24-.98.63-2.32,1.51c.19.06.4.1.6.13l1.83-1.47.86-.69Z" style="fill: #eb1923;"/>
    <path id="path31" d="M14.71,7.55c-.06-.15-.13-.3-.21-.44l-4.05,3.09-1.44,1.1-.57.36-1.84,1.16c.07,0,.15,0,.22,0,.24,0,.47-.02.69-.06l1.07-.97.43-.39,1.33-.9,4.39-2.96Z" style="fill: #eb1923;"/>
  </g>
</svg>