<svg xmlns="http://www.w3.org/2000/svg" viewBox="0 0 18 18">
  <g clip-path="url(#a)">
    <path d="M0 0h18v18H0V0Z"/>
    <path fill="#C09F68" d="M7.25 8.649c.34-.366 2.07-2.183 2.36-2.52.279-.327.498-.575.498-.743 0-.109-.04-.178-.139-.197-.09-.02-.13-.04-.13-.1 0-.069.05-.089.16-.089h2.194c.1 0 .17.02.17.09 0 .069-.05.089-.15.089-.14 0-.39.039-.58.109-.308.118-.647.326-1.076.742-.31.296-1.816 2.123-2.155 2.48.36.465 2.284 2.698 2.673 3.065.44.415.889.86 1.427 1.069.3.119.499.148.62.148.069 0 .128.02.128.08 0 .069-.05.098-.239.098-.516 0-1.042.03-1.556-.02-.54-.048-.809-.267-1.237-.643-.439-.386-2.375-2.817-2.584-3.105l-.11-.147H7.25v.9c0 .911-.03 1.867 0 2.292.02.278.11.496.359.536.14.02.359.039.49.039.079 0 .129.03.129.08 0 .068-.08.098-.19.098h-2.44c-.128 0-.198-.03-.198-.099 0-.05.04-.08.159-.08.15 0 .27-.019.36-.038.198-.04.248-.258.288-.545.05-.416.05-1.372.05-2.283V8.213c0-1.504 0-2.124-.02-2.44-.02-.337-.1-.496-.43-.565a2.022 2.022 0 0 0-.387-.03c-.111 0-.17-.02-.17-.089 0-.069.07-.089.22-.089h2.373c.14 0 .21.02.21.09 0 .069-.06.089-.14.089-.1 0-.16.01-.28.03-.269.049-.349.217-.368.563-.02.318-.015 2.441-.015 2.441v.436Z"/>
  </g>
  <defs>
    <clipPath id="a">
      <path fill="#fff" d="M0 0h18v18H0z"/>
    </clipPath>
  </defs>
</svg>
