<svg xmlns="http://www.w3.org/2000/svg" viewBox="0 0 18 18">
  <g clip-path="url(#a)">
    <path fill="#0B0697" d="M0 0h18v18H0V0Z"/>
    <path fill="#fff" fill-rule="evenodd" d="M9 14c-3.314 0-6-2.238-6-5 0-2.761 2.68-5 6-5 3.314 0 6 2.239 6 5 0 2.762-2.686 5-6 5Zm1-2V9.51c.43.923 1.19 1.049 1.808 1.049h1.712V9.482h-1.198c-.618 0-.812-.44-.812-.692 0-.522.58-1.032 1.198-1.339h-1.263C10.811 7.665 10 8.183 10 8.843V6H8v2.843c-.265-.66-.838-1.179-1.417-1.366h-1.24c.521.284 1.176.69 1.176 1.302 0 .252-.194.691-.812.691H4.505v1.073H6.22c.618 0 1.348-.11 1.779-1.033V12H10Z" clip-rule="evenodd"/>
  </g>
  <defs>
    <clipPath id="a">
      <path fill="#fff" d="M0 0h18v18H0z"/>
    </clipPath>
  </defs>
</svg>
