<svg xmlns="http://www.w3.org/2000/svg" viewBox="0 0 18 18">
  <g clip-path="url(#a)">
    <path fill="#933446" d="M0 0h18v18H0V0Z"/>
    <path fill="#fff" d="M2.706 10.948V7.12h.925v3.075h1.592v.752H2.706Z"/>
    <path fill="#fff" d="M5.95 10.948h-.995L6.246 7.12h1.232l1.291 3.827h-.994l-.899-2.863h-.03l-.897 2.863Zm-.133-1.506h2.078v.702H5.817v-.702Z"/>
    <path fill="#fff" d="M9.378 10.948h-.995L9.675 7.12h1.231l1.291 3.827h-.994l-.899-2.863h-.03l-.896 2.863Zm-.133-1.506h2.078v.702H9.245v-.702Zm6.027-.935h-.934a.811.811 0 0 0-.077-.26.632.632 0 0 0-.38-.323.865.865 0 0 0-.285-.045.837.837 0 0 0-.48.137.87.87 0 0 0-.309.394c-.07.172-.106.38-.106.624 0 .254.036.467.108.64.074.17.176.299.308.386a.855.855 0 0 0 .473.129.93.93 0 0 0 .278-.04.63.63 0 0 0 .381-.299.754.754 0 0 0 .089-.248l.934.006c-.016.17-.066.336-.148.5a1.6 1.6 0 0 1-.334.451 1.58 1.58 0 0 1-.52.321c-.203.08-.436.12-.699.12-.346 0-.656-.076-.93-.228a1.641 1.641 0 0 1-.647-.669c-.158-.293-.237-.649-.237-1.069 0-.42.08-.778.241-1.07a1.65 1.65 0 0 1 .652-.668c.274-.152.581-.228.921-.228.232 0 .446.033.643.098.197.063.37.156.52.28.15.122.27.272.364.45.093.178.151.382.174.611Z"/>
  </g>
  <defs>
    <clipPath id="a">
      <path fill="#fff" d="M0 0h18v18H0z"/>
    </clipPath>
  </defs>
</svg>
