<svg xmlns="http://www.w3.org/2000/svg" viewBox="0 0 18 18">
  <g clip-path="url(#a)">
    <path d="M0 0h18v18H0V0Z"/>
    <path fill="#fff" d="M4.647 6.934v3.441h1.375v.971H3.5V6.934h1.147Zm4.549 2.774-.515-1.469-.515 1.469h1.03Zm.304.872H7.862l-.263.766H6.376l1.68-4.412h1.251l1.68 4.412H9.764L9.5 10.58Zm5-2.171c-.265-.324-.593-.486-.983-.486-.172 0-.332.031-.48.094a1.177 1.177 0 0 0-.714 1.118c0 .175.03.337.088.485.063.148.146.277.252.386a1.167 1.167 0 0 0 .848.351c.367 0 .696-.156.989-.468v1.358l-.117.04a3.13 3.13 0 0 1-.491.135 2.328 2.328 0 0 1-1.328-.123 2.397 2.397 0 0 1-.738-.485 2.49 2.49 0 0 1-.51-.743 2.285 2.285 0 0 1-.192-.942 2.266 2.266 0 0 1 .696-1.662c.215-.207.462-.367.743-.48a2.275 2.275 0 0 1 1.399-.117c.171.035.35.092.538.17v1.369Z"/>
  </g>
  <defs>
    <clipPath id="a">
      <path fill="#fff" d="M0 0h18v18H0z"/>
    </clipPath>
  </defs>
</svg>
