<?xml version="1.0" encoding="UTF-8"?>
<svg id="Layer_1" xmlns="http://www.w3.org/2000/svg" viewBox="0 0 18 18">
  <rect width="18" height="18" style="fill: #ed1d24;"/>
  <path d="M6.54,12.02c-.3-.23-.77-.43-1.19-.43s-.66.18-.66.39c0,.25.31.36.67.36.43,0,.81-.12,1.18-.32h0ZM10.05,9.06c.82-.29,1.6-.89,2.18-1.51.54-.58.97-1.27.97-1.61,0-.08-.05-.12-.12-.12-.25,0-.72.36-1.35,1.05-.49.54-1.07,1.28-1.68,2.19h0ZM8.65,13c-.68,0-1.14-.26-1.5-.51-.56.34-1.2.51-1.85.51-.5,0-1.3-.23-1.3-1.01,0-.63.6-1.06,1.41-1.06.69,0,1.35.31,1.76.64.39-.34.81-.82,1.29-1.5-.11,0-.21.01-.31.01-.93,0-1.71-.3-2.14-.82-.22-.28-.34-.62-.34-.98,0-1.41,1.64-2.51,3.07-2.68.1.24.18.41.27.63-1.41.18-2.59,1.09-2.59,1.99,0,.59.61,1.18,1.89,1.18.22,0,.44-.02.66-.06,1.13-1.71,2.87-4.36,4.36-4.36.44,0,.67.29.67.69,0,.81-.64,1.68-1.05,2.13-.65.71-1.83,1.78-3.47,2.13-.64.97-1.16,1.61-1.69,2.08.32.19.62.3.97.3,1.06-.1,1.4-.74,1.4-.74,0,0,.34.41.43.63-.53.43-1.11.78-1.93.78Z" style="fill: #fff;"/>
</svg>