<svg xmlns="http://www.w3.org/2000/svg" viewBox="0 0 18 18">
  <g clip-path="url(#a)">
    <path fill="#003478" d="M0 0h18v18H0V0Z"/>
    <path fill="#fff" d="m10.819 8.245 1.234-4.178c.015-.053-.053-.09-.09-.05L8.039 8.245H.003L0 8.47l8.709.273 1.012.022.063-.519H8.527l2.117-1.928-.368 1.928-.539 2.822-.71 3.722c-.012.066.086.09.104.024l.965-3.922 5.347-2.545c.05-.025.033-.1-.023-.1h-4.601Zm-.148.54 1.99.043-2.39 1.42.4-1.463Z"/>
    <path fill="#fff" d="m7.776 8.98-.338-.011-1.975 2.017c-.047.049.023.12.073.076l2.24-2.082Zm1.66 2.223.06-.53-4.61 2.705c-.058.035-.01.123.05.093l4.5-2.269Z"/>
  </g>
  <defs>
    <clipPath id="a">
      <path fill="#fff" d="M0 0h18v18H0z"/>
    </clipPath>
  </defs>
</svg>
