<?xml version="1.0" encoding="UTF-8"?>
<svg id="Layer_1" xmlns="http://www.w3.org/2000/svg" viewBox="0 0 18 18">
  <rect width="18" height="18" style="fill: #fafafa;"/>
  <g>
    <path d="M9.78,8.53c-.15-2.36-4.58-3.25-6.78-3.41,5-.22,7.39,1.02,7.47,2.78.06,1.39-1.34,3.2-2.06,3.94,4.59-2.2,5.6-3.68,5.6-4.41,0-.58-.49-1.01-.73-1.15,1.47.5,1.72,1.28,1.72,1.63,0,1.75-5.53,4.11-8.31,5.09,2.67-1.98,3.13-3.82,3.09-4.47Z" style="fill: #00a65e;"/>
    <path d="M11.18,7.8c-.04-1.8-2.58-2.62-3.84-2.8,1.98.11,6.08.75,6.08,2.38,0,1.29-2.5,2.87-3.74,3.5,1.23-1.26,1.5-2.56,1.5-3.08h0Z" style="fill: #71bf44;"/>
  </g>
</svg>