<?xml version="1.0" encoding="UTF-8"?>
<svg id="Layer_1" xmlns="http://www.w3.org/2000/svg" viewBox="0 0 18 18">
  <rect width="18" height="18" style="fill: #d61f27;"/>
  <path d="M7.33,5.02c1.69-.44,1.92.61,1.86,1.18-.13,1.16-.29,1.52-.55,2.64,1.09-1.59,2.32-3.93,4.1-3.89.42,0,.84.19.84.19,1.53,1,.12,3.08-1.04,2.88-.7-.11-.82-.52-.9-1.21-.11-.26-.55-.22-.79.04-1.27,1.41-2.16,3.41-2.16,3.41,0,0-.63,1.64-1.33,2.99,0,0-.2.27-.69.32l-1.61-.02c-.54-.05-.41-.43-.41-.43,0,0,1.92-5.8,1.91-6.13.04-.18-.01-.71-.52-.46-.67.34-.69.8-1.42,1.35,0,0-.37.18-.37-.24.25-.67,1.67-2.31,3.08-2.65h0Z" style="fill: #fff;"/>
</svg>