<svg xmlns="http://www.w3.org/2000/svg" viewBox="0 0 18 18">
  <g clip-path="url(#a)">
    <path fill="#1E1E1E" d="M0 0h18v18H0V0Z"/>
    <path fill="#B79859" d="M8.16 3.352a1.41 1.41 0 0 1 .5-.852c-.064.314-.028.64.04.952.116.416.32.804.565 1.159.102.151.217.295.315.449.263.396.413.87.403 1.347a1.956 1.956 0 0 1-.565 1.42c.054-.445.056-.902-.064-1.336-.11-.418-.35-.785-.6-1.131a3.086 3.086 0 0 1-.507-.956c-.101-.339-.155-.701-.087-1.052Z"/>
    <path fill="#B79859" d="M10.09 3.736c.156-.43.49-.81.931-.955a1.92 1.92 0 0 0-.233.559 2.18 2.18 0 0 0-.085.539c-.009.31.024.622.09.925.065.316.18.622.214.946a2.34 2.34 0 0 1-.17 1.186 2.067 2.067 0 0 1-1.023 1.097c.214-.41.387-.85.425-1.314.042-.456-.072-.907-.193-1.342a2.754 2.754 0 0 1 .045-1.64Zm-3.812.578c-.173-.417-.18-.92.06-1.312.032.206.116.4.208.585.06.117.126.231.204.338.32.42.737.754 1.177 1.042.25.167.486.36.676.594.207.254.354.551.452.861a1.96 1.96 0 0 1-.021 1.186.912.912 0 0 1-.064.152c-.132-.534-.354-1.06-.733-1.467a4.207 4.207 0 0 0-.675-.562c-.263-.173-.523-.357-.74-.59a2.765 2.765 0 0 1-.544-.827Z"/>
    <path fill="#B79859" d="M12.288 4.08c.251-.17.55-.271.854-.27-.24.178-.416.426-.572.678-.18.316-.283.67-.353 1.026-.075.367-.067.749-.168 1.111-.08.3-.22.581-.409.828a2.342 2.342 0 0 1-.629.588 2.223 2.223 0 0 1-.9.314 4.03 4.03 0 0 0 .727-.832 2.56 2.56 0 0 0 .343-.84c.053-.248.084-.5.106-.75a2.86 2.86 0 0 1 .372-1.155c.157-.273.364-.524.629-.698Zm-7.95.168.012-.001c.101.172.242.319.388.455.097.092.2.177.311.253.427.278.911.457 1.404.582.343.084.685.2.985.391.234.148.44.335.618.547.323.374.5.876.472 1.37-.285-.406-.624-.784-1.05-1.045-.323-.201-.69-.318-1.053-.419a3.634 3.634 0 0 1-1.029-.392c-.37-.221-.718-.512-.917-.903a1.345 1.345 0 0 1-.141-.838Z"/>
    <path fill="#B79859" d="M13.402 5.629c.405-.23.91-.319 1.356-.162-.316.104-.595.296-.847.508a3.794 3.794 0 0 0-.644.812c-.136.221-.244.459-.367.688-.179.321-.42.611-.718.828a2.637 2.637 0 0 1-.84.42 2.212 2.212 0 0 1-1.06.03c.268-.116.535-.242.78-.405a2.77 2.77 0 0 0 .761-.73c.165-.239.301-.496.429-.756a2.94 2.94 0 0 1 1.15-1.233ZM2.904 6.03c.13.113.283.194.437.268.162.076.329.142.503.188.518.124 1.058.131 1.588.082a3.31 3.31 0 0 1 .838.023c.35.056.685.192.987.375.414.246.737.646.886 1.104a5.06 5.06 0 0 0-.694-.411 3.082 3.082 0 0 0-.905-.273 4.453 4.453 0 0 0-.747-.019c-.188.008-.376.03-.564.034-.3.006-.6-.028-.89-.103-.318-.085-.631-.21-.893-.416-.269-.21-.486-.51-.546-.852Z"/>
    <path fill="#B79859" d="M14.45 7.245c.426-.055.89.027 1.23.302-.334-.002-.663.086-.974.203-.35.152-.67.363-.963.605-.25.204-.466.447-.73.634a2.569 2.569 0 0 1-.854.411 2.6 2.6 0 0 1-.943.092 2.23 2.23 0 0 1-.929-.31c.38-.025.763-.073 1.125-.197a2.78 2.78 0 0 0 .76-.383c.188-.135.364-.289.535-.446a3.5 3.5 0 0 1 .707-.547c.32-.18.67-.315 1.037-.364Zm-9.655.618a3.07 3.07 0 0 1 .983-.267c.263-.02.528-.004.786.046.504.09.977.361 1.297.762-.4-.11-.812-.19-1.228-.179-.548 0-1.068.203-1.561.422a3.21 3.21 0 0 1-1.675.251c-.388-.051-.77-.214-1.041-.504-.059-.06-.097-.136-.158-.193v-.009c.345.11.714.144 1.074.118.53-.054 1.04-.228 1.523-.447Z"/>
    <path fill="#B79859" d="M5.282 8.819a2.76 2.76 0 0 1 .987-.31 2.24 2.24 0 0 1 1.335.236.51.51 0 0 1 .104.066 4.88 4.88 0 0 0-.876.127 2.96 2.96 0 0 0-.89.378 5.043 5.043 0 0 0-.625.503c-.236.23-.493.441-.784.598-.399.21-.844.362-1.3.345a1.534 1.534 0 0 1-.912-.317c.267.008.53-.057.783-.133.245-.073.47-.198.686-.331.3-.188.57-.42.827-.663.201-.191.42-.366.665-.5Zm8.07.377c.44-.125.91-.164 1.361-.084.432.079.858.309 1.09.693-.229-.089-.475-.113-.718-.128a2.535 2.535 0 0 0-.49.022c-.404.058-.796.18-1.171.339-.258.111-.515.227-.79.291a2.834 2.834 0 0 1-1.395-.023 2.163 2.163 0 0 1-1.097-.718c.408.112.829.194 1.254.179.356-.004.705-.09 1.037-.216.31-.109.601-.269.919-.355Z"/>
    <path fill="#B79859" d="M6.204 9.452c.46-.25 1.01-.322 1.522-.213-.412.176-.818.386-1.151.69-.325.284-.547.661-.742 1.04-.147.315-.33.615-.57.869-.22.232-.475.438-.763.58-.385.189-.844.25-1.254.11.308-.106.583-.29.83-.496.388-.354.674-.805.905-1.273.143-.301.321-.591.56-.825.192-.197.421-.354.663-.482Z"/>
    <path fill="#B79859" d="M6.53 10.341a2.17 2.17 0 0 1 1.362-.702c-.305.277-.59.583-.792.944-.245.414-.328.897-.372 1.37a2.999 2.999 0 0 1-.252 1.01 2.476 2.476 0 0 1-.506.744c-.291.29-.692.476-1.105.476.134-.1.247-.225.35-.357.113-.147.219-.3.299-.47.215-.464.311-.974.352-1.483.027-.265.08-.531.18-.78.112-.278.283-.531.485-.752Zm3.332-.419a4.2 4.2 0 0 0 .99.535c.297.108.61.167.925.174.425.02.848-.059 1.272-.033.357.021.71.103 1.04.242.282.12.546.297.739.54.134.17.238.37.272.587a1.53 1.53 0 0 0-.358-.234 2.999 2.999 0 0 0-.6-.23 4.331 4.331 0 0 0-1.055-.105c-.232 0-.462.026-.693.039a2.778 2.778 0 0 1-1.229-.198 2.573 2.573 0 0 1-.753-.463 1.995 1.995 0 0 1-.55-.854Z"/>
    <path fill="#B79859" d="M7.133 11.142A2.076 2.076 0 0 1 8.19 9.96c-.2.386-.367.797-.416 1.232-.046.34.001.685.08 1.017.038.19.102.373.141.562a2.78 2.78 0 0 1-.027 1.32 1.74 1.74 0 0 1-.476.812 1.377 1.377 0 0 1-.51.309c.104-.154.168-.331.22-.508.045-.157.08-.316.095-.48a3.844 3.844 0 0 0-.097-1.087c-.06-.28-.16-.55-.195-.835a2.33 2.33 0 0 1 .128-1.16Zm2.341-.997c.18.248.369.491.595.698.226.208.481.386.762.511.252.114.518.195.786.267.334.08.664.193.962.366.28.163.543.364.75.617.26.318.412.745.337 1.157a2.629 2.629 0 0 0-.682-.704 4.11 4.11 0 0 0-1.023-.483c-.311-.106-.639-.16-.945-.283a2.545 2.545 0 0 1-.852-.542 2.333 2.333 0 0 1-.506-.68 2 2 0 0 1-.184-.924Z"/>
    <path fill="#B79859" d="M8.054 11.177a2 2 0 0 1 .533-1.012c-.029.25-.047.5-.03.752.02.346.098.692.251 1.005.14.286.322.548.51.803.2.277.36.585.454.914.096.342.141.71.06 1.06a1.461 1.461 0 0 1-.34.66c-.045.048-.096.09-.138.141h-.007a2.257 2.257 0 0 0-.008-.784c-.043-.285-.16-.55-.284-.808a5.6 5.6 0 0 0-.515-.805 2.583 2.583 0 0 1-.477-1.043 2.492 2.492 0 0 1-.009-.883Z"/>
    <path fill="#B79859" d="M9.03 10.237c.06.184.106.374.18.554.123.31.29.605.51.857.22.251.488.45.76.64.307.197.6.426.833.711.204.254.38.538.474.854.11.373.088.803-.123 1.138a1.537 1.537 0 0 0-.133-.43 2.7 2.7 0 0 0-.295-.518 4.064 4.064 0 0 0-.686-.68c-.183-.146-.38-.274-.573-.406a2.611 2.611 0 0 1-.801-.857c-.133-.24-.236-.5-.283-.771a1.966 1.966 0 0 1 .136-1.092Z"/>
  </g>
  <defs>
    <clipPath id="a">
      <path fill="#fff" d="M0 0h18v18H0z"/>
    </clipPath>
  </defs>
</svg>
