<svg xmlns="http://www.w3.org/2000/svg" viewBox="0 0 18 18">
  <g clip-path="url(#a)">
    <path fill="#fff" d="M0 0h18v18H0V0Z"/>
    <path fill="#0A0B09" fill-rule="evenodd" d="M15.002 9.235c.232.17.472.294.472.565 0 .079-.1.156-.325.156-.17 0-.355-.046-.44-.171-.07-.093.03-.217-.031-.31-.047-.077-.155-.039-.225-.077-.084-.047-.092-.086-.146-.202-.062-.14-.27-.372-.518-.62-.209-.208-.433-.317-.534-.31-.07.009-.093.009-.163.009-.178 0-.332.17-.587.278-.178.078-.279.124-.394.14l-.039.046.232-.007c.216 0 .502-.031.719-.031.225 0 .333.201.418.41.17.426.425 1.039.727 1.55.146.24.27.395.27.69 0 .093-.008.217-.132.217-.17 0-.602-.178-.602-.372 0-.148.116-.21.116-.357 0-.093-.14-.077-.17-.163-.109-.456-.24-.907-.496-1.178-.131-.14-.147-.201-.278-.201-.07 0-.14.015-.201.039-.356.132-.827.527-1.415.705-.224.07-.262-.062-.494-.015h.015c-.186.039-.333.147-.588.217-.356.1-.967.147-1.453.085-.348-.047-.797-.116-.99-.108-.147.425-.464.984-.928 1.201-.247.109-.325.263-.247.542.093.348.402.604.564.898.147.255.386.659.641.79.255.132.411.325.411.488 0 .077-.032.124-.109.124h-.51a.14.14 0 0 1-.132-.078c-.07-.131-.023-.255-.115-.371-.07-.085-.124-.062-.21-.132-.154-.147-.038-.232-.154-.418-.325-.511-.464-.635-.734-1-.155-.193-.34-.286-.34-.541 0-.31.309-.364.301-.675a1.6 1.6 0 0 1-.79.311.632.632 0 0 0-.223.163c-.124.123-.17.247-.186.433-.038.419-.123.844-.07 1.262.07.272.117.365.34.512.14.093.302.224.318.417 0 .055-.016.117-.093.117h-.55a.14.14 0 0 1-.115-.07c-.062-.108-.023-.186-.046-.31-.054-.255-.34-.24-.34-.502 0-.079.046-.18.054-.342.015-.356.123-.93.015-1.625-.046-.405.371-.42.588-.776.131-.202.092-.116.17-.264.077-.154.062-.263.054-.356 0-.116-.116-.365-.039-.868a1.41 1.41 0 0 1 .286-.643c0-.008 0-.039-.046-.039-.217.016-.217-.038-.364-.038a.319.319 0 0 0-.27.178.18.18 0 0 1-.1-.155c0-.078.015-.147.092-.225.031-.03 0-.046-.038-.046-.17 0-.333.209-.372.356-.1-.016-.107-.147-.154-.147-.046 0-.077.07-.077.14 0 .495.804.603.804 1.254 0 .752-.905.597-.905.868 0 .055.039.1.109.132-.031.07-.109.1-.194.1a.337.337 0 0 1-.348-.348c0-.41.549-.418.549-.729 0-.147-.093-.194-.178-.263-.525-.372-.819-.744-.819-1.355 0-.659.456-1.163 1.051-1.163.866 0 .89 1 1.678 1.085.294-.201.642-.317.982-.317.51 0 .734.131 1.276.131.217 0 .58-.062 1.013-.356.162-.108.232-.131.378-.264.34-.295.658-.868.658-1.278v.023c0-.131-.031-.209-.093-.209-.186 0-.348.17-.534.349-.115.123.062.178-.2.325-.093.046-.201-.039-.302-.039-.209 0-.301-.248-.301-.464 0-.11.085-.14.13-.24.11-.21.102-.287.202-.496.062-.14.17-.233.162-.333 0-.039-.03-.063-.03-.101 0-.21.278-.35.278-.558 0-.117-.132-.17-.163-.264-.03-.093-.007-.116-.007-.116a.043.043 0 0 1 .038-.023c.109 0 .155.116.255.178.008-.14-.038-.17-.038-.271 0-.054-.008-.14.046-.14.07 0 .062.093.124.14.077.062.147.054.232.108.108.07.17.186.208.194.109.015.14-.116.085-.194.124-.008.248.093.41.093.256 0 .341.07.387.108.163.14.194.248.371.248.093 0 .14-.077.163-.108.124.093.131.325 0 .519.054.164.286.179.394.256.108.078.093.116.17.163.062.039.116.031.162 0 .055.217-.131.41-.355.441.008.28.301.45.433.52-.078.17-.217.224-.34.255.038.17.224.418.13.642-.084-.038-.208 0-.208.124 0 .14.178.21-.007.311-.086.047-.101.17.054.287.2-.054.394-.047.618-.047.14 0 .325-.038.448-.038.233 0 .372.093.542.279.425.464.812.952 1.252 1.285Z" clip-rule="evenodd"/>
    <path fill="#676866" fill-rule="evenodd" d="M3.528 7.997c.093 0 .263-.512.611-.512.1 0 .124.04.124.078 0 .07-.116.132-.116.224 0 .016.008.039.038.039.085 0 .147-.186.495-.186.093 0 .17.008.255.031.039.008.116.047.085-.062-.085-.24-.348-.465-.719-.465-.37 0-.757.334-.804.736-.007.07-.007.117.031.117Zm6.418-3.193c-.1-.04-.116-.094-.085-.218.023-.131.03-.186-.031-.201-.054-.016-.124.015-.194.093-.061.085-.162.186-.193.27-.03.11.1.094.008.273-.162.294-.201.356-.278.565-.07.217-.124.248-.163.318-.046.062.062.07.186.03.131-.046.139.109.093.217-.04.078-.008.109.1.024.1-.078-.054-.14-.015-.388.038-.224.085-.348.224-.572.116-.194.216-.334.417-.264.077.039.039-.1-.07-.147Zm4.299 6.579c.039 0 .046-.054.046-.101a.51.51 0 0 0-.147-.342c-.023.164-.1.272-.1.341 0 .056.147.102.2.102Zm.958-1.559c.062 0 .155-.024.155-.07 0-.093-.14-.256-.263-.294.085.162 0 .364.108.364ZM10.96 7.71c.873.402.818 1.137.896.951a.765.765 0 0 0-.163-.79c-.24-.278-.332-.209-.24-.44.38-.923.62-2.317-.517-2.806-.131-.054-.24-.054-.24-.031s.124.062.27.162c.758.505.526 1.876-.17 2.542-.232.225-.124.28.163.411Zm-2.986 6.42c.061 0 .03-.092.007-.131a.524.524 0 0 0-.24-.193c.024.093.032.325.125.325h.108Zm-2.637 0c.062 0 .015-.092-.008-.13-.054-.094-.162-.148-.247-.187.023.093.039.318.131.318h.124Zm3.194-5.243c.48-.054.557-.162.642-.526.038-.17.162-.349.27-.465.07-.077.14-.14.209-.256.023-.046.038-.085 0-.07-.054.04-.217.148-.286.202a2.26 2.26 0 0 1-1.067.356c-.441 0-.82-.131-1.222-.131-1.206 0-1.655.945-1.593 1.494.008.086.023.093.054.093.085 0 .156-.325.457-.611.44-.419.92-.659 1.6-.659.495 0 .696.163.696.225 0 .123-.209.131-.194.255 0 .04.117.132.434.093Z" clip-rule="evenodd"/>
  </g>
  <defs>
    <clipPath id="a">
      <path fill="#fff" d="M0 0h18v18H0z"/>
    </clipPath>
  </defs>
</svg>
