<svg xmlns="http://www.w3.org/2000/svg" viewBox="0 0 18 18">
  <g clip-path="url(#a)">
    <path fill="#BE0201" d="M0 0h18v18H0V0Z"/>
    <path fill="#F5BF44" d="M11.185 4.889c.86 0 1.815 3.738 1.815 8.357l1 .004c0-4.973-1.267-9-2.819-9-.886 0-1.664 1.255-2.181 3.15-.517-1.895-1.306-3.15-2.185-3.15C5.263 4.25 4 8.273 4 13.246l1 .004c0-4.62.947-8.361 1.808-8.361.86 0 1.692 4.099 1.692 8.361h1c0-4.262.817-8.361 1.678-8.361"/>
  </g>
  <defs>
    <clipPath id="a">
      <path fill="#fff" d="M0 0h18v18H0z"/>
    </clipPath>
  </defs>
</svg>
