<svg xmlns="http://www.w3.org/2000/svg" viewBox="0 0 18 18">
  <g clip-path="url(#a)">
    <path fill="#49246C" d="M0 0h18v18H0V0Z"/>
    <path fill="#fff" d="M7.073 11.492c-.187.18-.457.24-.626.264a1 1 0 0 1-.93-.368c-.186-.238-.282-.547-.464-.794-.29-.39-.813-.684-1.288-.594-.938.181-1.3 1.383-.77 2.19.759 1.154 2.464.954 3.338.155.273-.249.527-.525.74-.853Z"/>
    <path fill="#fff" d="M13.208 11.007c-.705-.822-.925-2.19-.97-3.1-.036-.785.004-2.146.585-2.542-.194-.26-.58-.365-.87-.365-.657 0-.973.465-1.197.8L9.579 7.528S8.65 6 8.537 5.818c-.158-.253-.453-.718-.971-.799-.224-.035-.803-.066-1.118.394.543.463.53 1.641.412 2.446-.354 2.415-1.32 2.637-1.32 2.637.495 1.422 1.768.86 2.128-.273.234-.737.384-1.67.419-2.443l1.398 2.282s1.583-2.275 1.583-2.273c-.26 4.023 1.06 5.211 2.197 5.211 1.136 0 1.5-1.153 1.5-1.153-.615-.04-1.153-.368-1.557-.84Z"/>
  </g>
  <defs>
    <clipPath id="a">
      <path fill="#fff" d="M0 0h18v18H0z"/>
    </clipPath>
  </defs>
</svg>
