<svg xmlns="http://www.w3.org/2000/svg" viewBox="0 0 18 18">
  <g clip-path="url(#a)">
    <path fill="#FBE74D" d="M0 0h18v18H0V0Z"/>
    <path fill="#2D3277" d="M15 8.995c0 2.294-2.331 4.146-6 4.146-3.656 0-6-1.852-6-4.146V8.77c0-2.156 2.685-3.92 6-3.92 3.316 0 6 1.764 6 3.919v.226Z"/>
    <path fill="#FFE600" d="M9.025 12.448c3.182 0 5.761-1.647 5.761-3.68 0-2.031-2.579-3.678-5.76-3.678-3.182 0-5.761 1.647-5.761 3.679s2.579 3.679 5.76 3.679Z"/>
    <path fill="#fff" d="M7.601 7.067c.403-.403.769-.768 1.64-.793.591-.013 1.184.265 1.184.265 1.096.528 2.218.327 3.125-.05.656.528 1.085 1.183 1.198 1.889-1.336.303-2.32.718-2.534.82-.277-.24-1.865-1.626-2.256-1.916-.214-.151-.34-.227-.454-.265-.1-.025-.252-.063-.491.013-.227.063-.454.252-.68.429-.202.163-.43.34-.593.377-.29.063-.567 0-.656-.113-.038-.05.026-.114.026-.114l.491-.542Z"/>
    <path fill="#fff" d="M12.277 9.626c0 .113-.063.201-.163.264-.278.176-.492.012-.505.012 0 0-.63-.58-.87-.781-.037-.025-.088-.062-.113-.037-.025.037.05.1.05.1l.732.744s.101.1.113.226c.013.101-.025.227-.189.341-.264.176-.466.05-.517.012-.227-.226-.466-.478-.643-.617-.037-.025-.088-.063-.113-.038-.025.025.05.1.05.1l.543.606s.126.151.013.302c-.013.026-.051.05-.077.076a.522.522 0 0 1-.365.088c-.101-.025-.126-.063-.126-.063s-.277-.29-.517-.492c-.038-.025-.088-.062-.113-.037-.025.025.05.1.05.1l.466.517c.026.025 0 .05-.012.075-.026.038-.089.089-.265.115-.227.025-.466-.102-.567-.152a.602.602 0 0 0 .075-.303.65.65 0 0 0-.655-.655h-.063c.025-.227-.025-.529-.328-.655a.786.786 0 0 0-.277-.063.59.59 0 0 0-.227.05.528.528 0 0 0-.328-.302.86.86 0 0 0-.24-.038.605.605 0 0 0-.39.14.548.548 0 0 0-.844-.052c-.101-.075-.606-.453-2.244-.818-.063-.013-.24-.064-.341-.089.14-.743.63-1.411 1.349-1.953a8.504 8.504 0 0 0 1.475.53c.076.025.479.088.554.088.177 0 .353-.05.543-.101.151-.038.302-.076.466-.1l-.176.176-.505.554c-.012.013-.113.113-.063.24.025.05.063.1.126.138.139.101.454.176.719.113.201-.038.416-.213.656-.403.226-.176.491-.352.68-.403a.572.572 0 0 1 .252-.025c.139.025.277.076.517.252.416.315 2.27 1.928 2.281 1.94 0 0 .14.114.127.278Z"/>
    <path fill="#fff" d="M9.089 10.797a.505.505 0 0 1-1.01.026c0-.05-.011-.064-.05-.026-.075.076-.201.164-.416.076-.29-.114-.302-.315-.29-.403 0-.026 0-.038-.037-.013-.113.076-.24.126-.391.063-.378-.139-.34-.504-.328-.604v-.013a.368.368 0 0 1-.277.113.398.398 0 0 1-.403-.403c0-.227.176-.404.403-.404.215 0 .378.152.403.354.064-.089.278-.34.63-.227.253.075.29.302.29.378 0 .012.013.012.026 0 .05-.063.227-.202.504-.076.366.164.214.618.201.643-.012.025-.025.075-.012.075.012 0 .139-.062.252-.062.278 0 .505.226.505.503Z"/>
    <path fill="#2D3277" fill-rule="evenodd" d="M14.736 8.352a.88.88 0 0 1 .037.253c-1.083.252-1.991.58-2.394.756.05.1.088.214.075.328a.53.53 0 0 1-.252.403.66.66 0 0 1-.366.113c-.037 0-.088 0-.125-.013 0 .127-.038.34-.278.492a.683.683 0 0 1-.39.125c-.038 0-.089 0-.127-.012 0 .114-.088.24-.214.327a.584.584 0 0 1-.378.14.785.785 0 0 1-.19-.025c-.012.012-.012.025-.024.037-.051.063-.152.163-.391.19H9.63c-.24 0-.466-.114-.58-.177a.659.659 0 0 1-.49.213.686.686 0 0 1-.631-.428.408.408 0 0 1-.176.038.503.503 0 0 1-.228-.05c-.227-.088-.327-.227-.365-.34-.05.012-.101.012-.139.012a.61.61 0 0 1-.201-.038.661.661 0 0 1-.442-.504c-.038.013-.076.013-.113.013a.579.579 0 0 1-.58-.58c0-.075.013-.15.037-.226-.088-.064-.604-.429-2.154-.769a32.332 32.332 0 0 1-.341-.076c.013-.088.025-.176.038-.252.1.038.265.088.34.101 1.525.353 2.092.706 2.232.82a.58.58 0 0 1 .403-.164.58.58 0 0 1 .453.213.594.594 0 0 1 .379-.125c.088 0 .163.012.251.037a.6.6 0 0 1 .341.29.64.64 0 0 1 .214-.038c.101 0 .19.026.29.063.34.139.366.466.353.643h.025c.378 0 .681.302.681.68a.742.742 0 0 1-.063.29c.101.05.278.139.454.139h.063c.164-.025.227-.076.24-.1.012-.027.012-.039.012-.039l-.466-.504c-.025-.025-.088-.1-.051-.151a.095.095 0 0 1 .05-.025c.038 0 .076.025.101.05.227.189.505.454.53.492.025.025.063.037.113.05h.076c.05 0 .176-.013.264-.088l.076-.076c.1-.113-.012-.252-.012-.252l-.542-.604s-.025-.013-.038-.038c-.038-.064-.025-.1-.013-.114.013-.025.038-.025.05-.025.039 0 .076.038.114.063.151.114.353.315.542.504l.113.101c.026.012.101.063.215.063a.443.443 0 0 0 .265-.089.328.328 0 0 0 .176-.302c-.013-.113-.101-.201-.101-.201l-.743-.744c-.05-.038-.089-.101-.05-.151.011-.012.024-.025.05-.025.038 0 .075.025.113.063.227.201.87.781.87.781s.088.063.214.063a.45.45 0 0 0 .24-.076c.088-.063.15-.151.15-.24 0-.175-.113-.276-.113-.276-.012-.013-1.866-1.626-2.281-1.94-.24-.177-.366-.227-.505-.24h-.05c-.063 0-.126.013-.19.025-.2.063-.466.252-.654.403-.227.19-.455.366-.668.416a1.145 1.145 0 0 1-.215.025c-.202 0-.416-.063-.542-.138a.5.5 0 0 1-.138-.152c-.051-.126.037-.24.075-.277l.505-.554.1-.1c-.113.024-.227.062-.34.088-.19.05-.366.1-.555.1-.088 0-.176-.013-.252-.013-.277-.025-1.172-.252-1.903-.554.075-.05.138-.101.214-.151.693.277 1.575.491 1.752.491h.19c.15 0 .314-.038.49-.088.202-.05.43-.126.694-.126.265-.227.668-.479 1.387-.491h.05c.618 0 1.198.277 1.223.29.466.227.945.34 1.424.34s.958-.101 1.475-.328l.202.164c-.58.264-1.135.403-1.677.403a3.52 3.52 0 0 1-1.525-.365c-.063-.025-.592-.265-1.122-.265h-.038c-.857.025-1.223.391-1.613.781l-.504.542c-.025.025-.038.05-.025.063.063.076.226.126.403.126.075 0 .138-.012.214-.025.164-.038.379-.202.58-.366l.012-.013c.227-.175.455-.352.681-.428.1-.037.202-.05.29-.05.1 0 .177.025.227.038.126.025.265.113.466.265.366.264 1.677 1.41 2.244 1.902a12.63 12.63 0 0 1 2.509-.807Zm-5.698 2.432a.473.473 0 0 0-.467-.465c-.062 0-.125.025-.176.037-.025.013-.05.013-.063.013h-.025c-.038-.025-.026-.05 0-.127 0-.012.15-.44-.19-.592a.428.428 0 0 0-.2-.05.371.371 0 0 0-.266.114c0 .012-.025.025-.038.025 0 0-.037 0-.037-.05 0-.077-.038-.278-.253-.34-.062-.014-.113-.026-.163-.026a.485.485 0 0 0-.429.227l-.05.088-.013-.1a.378.378 0 0 0-.366-.316.365.365 0 0 0 0 .73.401.401 0 0 0 .253-.1l.025-.025.025.025c.013.013.013.025.013.05a.475.475 0 0 0 .428.593.405.405 0 0 0 .227-.076c.025-.025.038-.025.05-.025h.013l.013.013c.012.012.012.025.012.05-.012.075 0 .252.265.365.05.026.1.038.152.038a.32.32 0 0 0 .226-.1c.025-.013.038-.026.064-.026.05 0 .05.05.05.075a.472.472 0 0 0 .466.455.45.45 0 0 0 .454-.48Z" clip-rule="evenodd"/>
  </g>
  <defs>
    <clipPath id="a">
      <path fill="#fff" d="M0 0h18v18H0z"/>
    </clipPath>
  </defs>
</svg>
