<svg xmlns="http://www.w3.org/2000/svg" viewBox="0 0 18 18">
  <g clip-path="url(#a)">
    <path fill="#F1F5F8" d="M0 0h18v18H0V0Z" />
    <g clip-path="url(#b)">
      <path fill="#0081FB"
        d="M4.298 10.357c0 .459.1.81.232 1.023a.79.79 0 0 0 .69.397c.34 0 .648-.083 1.244-.908.477-.66 1.039-1.588 1.417-2.17l.641-.985c.445-.683.96-1.444 1.55-1.96.483-.42 1.003-.654 1.526-.654.88 0 1.716.51 2.357 1.466.701 1.047 1.041 2.365 1.041 3.725 0 .809-.16 1.403-.43 1.873-.262.455-.772.908-1.631.908v-1.295c.735 0 .919-.676.919-1.45 0-1.102-.258-2.326-.824-3.2-.4-.621-.922-1-1.494-1-.62 0-1.118.468-1.678 1.301-.298.443-.604.983-.947 1.591l-.378.67c-.759 1.347-.951 1.655-1.331 2.16-.665.887-1.233 1.223-1.981 1.223-.887 0-1.448-.384-1.795-.963-.284-.473-.424-1.092-.424-1.798l1.296.046Z" />
      <path fill="url(#c)"
        d="M4.024 6.657C4.618 5.74 5.475 5.1 6.458 5.1c.57 0 1.135.168 1.726.652.647.527 1.336 1.397 2.196 2.83l.308.514c.744 1.24 1.168 1.878 1.415 2.18.319.386.542.501.832.501.735 0 .919-.676.919-1.45l1.142-.036c0 .809-.16 1.403-.43 1.873-.262.455-.772.908-1.631.908-.534 0-1.007-.116-1.53-.61-.402-.379-.873-1.052-1.234-1.658L9.096 9.006c-.54-.902-1.036-1.574-1.322-1.879-.308-.328-.705-.724-1.336-.724-.513 0-.947.36-1.31.91l-1.104-.656Z" />
      <path fill="url(#d)"
        d="M6.438 6.403c-.513 0-.947.36-1.31.91-.515.776-.83 1.933-.83 3.044 0 .459.1.81.232 1.023l-1.104.729c-.284-.473-.424-1.092-.424-1.798 0-1.283.353-2.621 1.022-3.654C4.618 5.74 5.475 5.1 6.458 5.1l-.02 1.303Z" />
    </g>
  </g>
  <defs>
    <linearGradient id="c" x1="5.547" x2="13.805" y1="9.983" y2="10.401" gradientUnits="userSpaceOnUse">
      <stop stop-color="#0064E1" />
      <stop offset=".4" stop-color="#0064E1" />
      <stop offset=".8" stop-color="#0073EE" />
      <stop offset="1" stop-color="#0082FB" />
    </linearGradient>
    <linearGradient id="d" x1="4.879" x2="4.879" y1="10.902" y2="7.855" gradientUnits="userSpaceOnUse">
      <stop stop-color="#0082FB" />
      <stop offset="1" stop-color="#0064E0" />
    </linearGradient>
    <clipPath id="a">
      <path fill="#fff" d="M0 0h18v18H0z" />
    </clipPath>
    <clipPath id="b">
      <path fill="#fff" d="M3 5.1h12v7.972H3z" />
    </clipPath>
  </defs>
</svg>