<?xml version="1.0" encoding="UTF-8"?>
<svg id="Layer_1" xmlns="http://www.w3.org/2000/svg" viewBox="0 0 18 18">
  <rect width="18" height="18" style="fill: #17217e;"/>
  <g>
    <path d="M11.57,5.15l-.03.03c1.05.81,1.61,2.1,1.61,3.52,0,2.5-1.94,4.53-4.45,4.53-2.66,0-4.73-1.95-4.4-4.55.03-.25.15-.76.33-1.11l-.26.15c-.2.53-.36,1.09-.36,1.69,0,2.71,2.28,4.93,5.01,4.93s4.96-2.23,4.96-4.93c0-1.82-.97-3.39-2.43-4.25Z" style="fill: #fff;"/>
    <path d="M4.13,10.36c-.08-.33-.13-.68-.13-1.04,0-2.48,1.87-4.53,4.27-4.86,0,0-1.05.58-1.48,1.62.84-1.16,3.81-2.68,6.93-2.38-3.94.99-6.34,4.96-7.03,8.73h-.05c-.05-3.49,1.25-5.95,2.25-7.03-1,.43-2.53,1.39-3.25,2.81-.03-.78.31-1.9.61-2.35-1.25.56-2.35,2.48-2.12,4.5Z" style="fill: #ff170f;"/>
  </g>
</svg>