<?xml version="1.0" encoding="UTF-8"?>
<svg id="Layer_1" xmlns="http://www.w3.org/2000/svg" viewBox="0 0 18 18">
  <rect width="18" height="18" style="fill: #0086ff;"/>
  <path d="M13.44,5.52c-.03-.35-.22-.53-.57-.53h-.91c-.29,0-.5.12-.66.37l-2.3,3.89-2.24-3.89c-.14-.26-.37-.37-.66-.37h-.98c-.35,0-.54.17-.57.53l-.55,6.96c-.04.37.16.52.52.52h1.1c.34,0,.58-.13.6-.48l.21-3.8,1.33,2.35c.14.26.37.37.66.37h1.01c.29,0,.5-.1.66-.37l1.5-2.52.19,3.96c.02.36.19.48.53.48h1.19c.36,0,.53-.14.5-.52,0,0-.56-6.96-.56-6.96Z" style="fill: #fff;"/>
</svg>