<svg xmlns="http://www.w3.org/2000/svg" viewBox="0 0 18 18">
  <g clip-path="url(#a)">
    <path fill="red" d="M0 0h18v18H0V0Z"/>
    <path fill="#fff" fill-rule="evenodd" d="M14.1 6.373v5.302h-1.507V8.333l-.82 3.339h-1.32L9.634 8.33v3.341h-1.51v-1.025c-.236.669-1.039 1.154-2.189 1.144-2.401.014-2.328-1.918-2.335-2.215h1.531c0 .44.108.953.772.977.37-.003.674-.196.656-.631-.014-.367-.37-.506-.626-.506h-.45V8.386h.496c.497 0 .651-.182.667-.444-.01-.302-.22-.495-.67-.492-.368-.006-.695.24-.695.667H3.805c.041-1.417 1.16-1.88 2.227-1.867.875.015 1.82.266 2.089 1.267V6.373h2.23l.76 3.098.76-3.098H14.1ZM8.124 8.141c-.125.378-.29.567-.602.707.15.054.415.225.602.616V8.141Z" clip-rule="evenodd"/>
  </g>
  <defs>
    <clipPath id="a">
      <path fill="#fff" d="M0 0h18v18H0z"/>
    </clipPath>
  </defs>
</svg>
