<svg xmlns="http://www.w3.org/2000/svg" viewBox="0 0 18 18">
  <g clip-path="url(#a)">
    <path d="M0 0h18v18H0z"/>
    <path fill="#004F7F" d="M3.6 0H0v3.6h3.6V0Z"/>
    <path fill="#FAA61A" d="M10.8 0H7.2v3.6h3.6V0Z"/>
    <path fill="#8E181B" d="M18 0h-3.6v3.6H18V0Z"/>
    <path fill="#0084C3" d="M3.6 0h3.6v3.6H3.6V0Zm0 3.6v3.6H0V3.6h3.6Z"/>
    <path fill="#68C3EE" d="M7.2 3.6H3.6v3.6h3.6V3.6Z"/>
    <path fill="#F58020" d="M10.8 3.6H7.2v3.6h3.6V3.6Z"/>
    <path fill="#C3262D" d="M10.8 0h3.6v3.6h-3.6V0Zm3.6 3.6H18v3.6h-3.6V3.6Z"/>
    <path fill="#76CCCD" d="M3.6 7.2H0v3.6h3.6V7.2Z"/>
    <path fill="#00B3C2" d="M7.2 7.2H3.6v3.6h3.6V7.2Z"/>
    <path fill="#DF9D88" d="M14.4 7.2h-3.6v3.6h3.6V7.2Z"/>
    <path fill="#ED1C24" d="M10.8 3.6h3.6v3.6h-3.6V3.6Zm3.6 3.6v3.6H18V7.2h-3.6Z"/>
    <path fill="#E2C197" d="M7.2 7.2h3.6v3.6H7.2V7.2Zm3.6 3.6h3.6v3.6h-3.6v-3.6Z"/>
    <path fill="#00AA4F" d="M3.6 14.4H0V18h3.6v-3.6Z"/>
    <path fill="#75C043" d="M0 10.8h3.6v3.6H0v-3.6Zm3.6 3.6h3.6V18H3.6v-3.6Z"/>
    <path fill="#C4D92D" d="M3.6 10.8h3.6v3.6H3.6v-3.6Zm3.6 3.6h3.6V18H7.2v-3.6Z"/>
    <path fill="#D7A96F" d="M14.4 10.8H18v3.6h-3.6v-3.6Zm-3.6 3.6h3.6V18h-3.6v-3.6Z"/>
    <path fill="#EEE1C5" d="M7.2 10.8h3.6v3.6H7.2v-3.6Zm7.2 3.6H18V18h-3.6v-3.6Z"/>
  </g>
  <defs>
    <clipPath id="a">
      <path fill="#fff" d="M0 0h18v18H0z"/>
    </clipPath>
  </defs>
</svg>
