<svg xmlns="http://www.w3.org/2000/svg" viewBox="0 0 18 18">
  <g clip-path="url(#a)">
    <path fill="#fff" d="M0 0h18v18H0V0Z"/>
    <path fill="#B84B16" d="M15 8.02c-.474.531-1.156 1.496-1.156 1.496-3.421-1.025-5.772-1.515-5.772-1.515s1.463-.833 1.545-.822C13.022 7.651 15 8.02 15 8.02Z"/>
    <path fill="#005953" d="M6.906 7.08c1.157-.198 2.36.033 2.36.033s-1.9.906-3.681 2.024c0 0-1.493-.448-2.585-.558 0 0 2.775-1.302 3.906-1.498Z"/>
    <path fill="#B2BB1E" d="M10.996 9.037s1.107.297 2.637.813c0 0-.97 1.434-1.318 2.113 0 0-.97-.561-2.803-1.367 0 0 .39-.416 1.484-1.56Z"/>
    <path fill="#C5A901" d="M6.006 9.28s.734-.52 1.757-1.093c0 0 1.178.236 2.9.748l-1.54 1.487s-.904-.38-1.669-.656a35.246 35.246 0 0 0-1.448-.486Z"/>
  </g>
  <defs>
    <clipPath id="a">
      <path fill="#fff" d="M0 0h18v18H0z"/>
    </clipPath>
  </defs>
</svg>
