<svg xmlns="http://www.w3.org/2000/svg" viewBox="0 0 18 18">
  <g clip-path="url(#a)">
    <path fill="#fff" d="M0 0h18v18H0V0Z"/>
    <path fill="#72C8EC" fill-rule="evenodd" d="M11.985 13.104h-.626c-.15 0-.228.084-.228.253 0 .162.079.246.228.246h2.413c.15 0 .228-.084.228-.246 0-.162-.078-.253-.228-.253h-1.787Z" clip-rule="evenodd"/>
    <path fill="#7FCDEE" fill-rule="evenodd" d="M8.447 13.104H7.85c-.149 0-.22.084-.22.253 0 .162.071.246.22.246h2.307c.15 0 .22-.084.22-.246 0-.162-.063-.253-.22-.253h-1.71Z" clip-rule="evenodd"/>
    <path fill="#8CD2F0" fill-rule="evenodd" d="M4.952 13.104h-.598c-.149 0-.22.084-.22.253 0 .162.071.246.22.246h2.314c.143 0 .214-.084.214-.246 0-.162-.071-.253-.214-.253H4.952Z" clip-rule="evenodd"/>
    <path fill="#E31837" fill-rule="evenodd" d="M4.01 5.176h.854v1.16c.291-.427.601-.733.911-.937.432-.26.883-.399 1.353-.399.319 0 .62.065.92.186.283.12.527.296.705.51.179.204.338.51.47.9.282-.52.638-.919 1.061-1.197.41-.262.886-.4 1.371-.399.46 0 .865.111 1.213.353.347.231.6.556.78.974.168.408.253 1.039.253 1.865v3.645h-.864V8.192c0-.715-.057-1.207-.15-1.476a1.32 1.32 0 0 0-.527-.649 1.575 1.575 0 0 0-.873-.241c-.414 0-.78.13-1.127.37-.34.246-.6.584-.752.975-.15.417-.235 1.095-.235 2.05v2.607h-.855V8.414c0-.807-.047-1.354-.14-1.642a1.333 1.333 0 0 0-.526-.687 1.568 1.568 0 0 0-.884-.26c-.394 0-.76.12-1.108.362a2.127 2.127 0 0 0-.761.965c-.16.409-.244 1.02-.244 1.855v2.83H4v-6.66h.01Z" clip-rule="evenodd"/>
  </g>
  <defs>
    <clipPath id="a">
      <path fill="#fff" d="M0 0h18v18H0z"/>
    </clipPath>
  </defs>
</svg>
