<svg xmlns="http://www.w3.org/2000/svg" viewBox="0 0 18 18">
  <g clip-path="url(#a)">
    <path d="M0 0h18v18H0V0Z"/>
    <path fill="#fff" fill-rule="evenodd" d="M12 11.5s-.06-1.052-.47-1.73c-.22-.368-.566-.777-1.03-.77-.326.006-.595.293-.95.778-.21.295-.534 1.222-.534 1.222s-.324-.927-.534-1.222C8.137 9.293 7.824 9.006 7.5 9c-.466-.007-.777.402-.997.77C6.093 10.448 6 11.5 6 11.5h-.5l2-6.5 1.506 5h.021L10.5 5l2 6.5H12Zm-2.983-8C5.972 3.5 3.5 5.96 3.5 9s2.472 5.5 5.517 5.5A5.48 5.48 0 0 0 14.5 9c0-3.02-2.392-5.5-5.483-5.5Z" clip-rule="evenodd"/>
  </g>
  <defs>
    <clipPath id="a">
      <path fill="#fff" d="M0 0h18v18H0z"/>
    </clipPath>
  </defs>
</svg>
