<svg xmlns="http://www.w3.org/2000/svg" viewBox="0 0 18 18">
  <g clip-path="url(#a)">
    <path fill="#0A0A0A" d="M0 0h18v18H0V0Z"/>
    <path fill="#fff" d="M10.702 9.894V11.5h1.1V9c-.44.374-.527.517-1.1.894Z"/>
    <path fill="#fff" d="M12.22 8.57c1.489-1.775 2.1-3.39 1.62-4.184-.501-.83-1.924-.24-3.94.992a1.99 1.99 0 0 0-.257.174c-.098.078-.034.152.038.122a2.25 2.25 0 0 0 .252-.122c1.512-.83 2.582-1.176 3.043-.597.702.881-.734 3.64-3.225 5.778-.38.328-.774.64-1.18.934l-.066.049a3.361 3.361 0 0 0-.229.185c-.06.054-.048.14.06.086.066-.033.147-.082.233-.143l.058-.04c.376-.264.933-.71 1.314-1.017.328-.265.637-.533.929-.803.508-.47.96-.947 1.35-1.413V8.57Z"/>
    <path fill="#fff" d="M6.3 14h1.1v-1.704c.358-.245.599-.513.955-.794.08-.064.151-.128.203-.182.085-.09.023-.136-.042-.096-.08.05-.158.103-.234.16-2.024 1.498-4.084 1.786-4.457 1.143-.33-.57 1.174-2.022 2.474-3.524v3.293c.228-.082.777-.308 1.1-.53V8.46l.298.834c.316.783.895.966 1.286.966.467 0 .876-.21 1.252-.966l.465-.834v.985c.533-.478 1.1-1.257 1.1-1.257 0-.34-.026-.72-.288-.936-.144-.118-.339-.185-.627-.185-.414 0-.767.255-.964.676L9.34 8.86c-.104.198-.236.286-.358.286s-.236-.072-.361-.286c-.142-.242-.506-1.28-.75-1.594.402-.369.709-.697 1.093-.967a2.42 2.42 0 0 0 .219-.176c.059-.052.048-.136-.058-.084-.08.04-.157.085-.23.137-.449.309-.887.632-1.315.969a1.103 1.103 0 0 0-.457-.077c-.607 0-.825.428-.825 1.23v.2c-2.201 1.948-3.708 3.788-3.2 4.629.373.617 2.142.298 3.2-.234V14H6.3Z"/>
  </g>
  <defs>
    <clipPath id="a">
      <path fill="#fff" d="M0 0h18v18H0z"/>
    </clipPath>
  </defs>
</svg>
