<?xml version="1.0" encoding="UTF-8"?>
<svg id="Layer_1" xmlns="http://www.w3.org/2000/svg" viewBox="0 0 18 18">
  <rect width="18" height="18" style="fill: #fafafa;"/>
  <g>
    <path d="M5.84,12.31c-.26.18-1.2,1.07-1.62,1.48l.13.11,1.65-1.45-.15-.15Z" style="fill: #b56d23;"/>
    <path d="M6.11,12.54l-1.51,1.56-.26-.19,1-1c.19-.19.41-.34.65-.45,0,0,.11.08.11.08Z" style="fill: #c78544;"/>
    <path d="M5.62,11.95l-1.54,1.73.14.11,1.62-1.48c-.06-.15-.22-.36-.22-.36h0Z" style="fill: #c7893c;"/>
    <path d="M4.73,11.05l-1.66,1.3.15.26,1.76-1.39-.25-.17Z" style="fill: #f7d192;"/>
    <path d="M6.99,9.28l-3.99,2.94.07.14c1.3-.99,3.85-2.93,3.91-2.97.19-.15.34-.34.45-.56.06-.18.18-.33.27-.42s.21-.22.21-.37c0-.11.14-.2.21-.22.17,0,.36-.12.43-.18.13-.19.39-.19.52-.16h1.06l.72.72.09.54c.07.13.19.43.15.55-.04.16-.27.27-.33.35-.05.06-.3.31-.43.43l-.21.06v.16l-1.18.86c-.37,0-1.16.02-1.34.06-.18.04-.23.13-.24.17l.14-.06,1.44-.07c.45-.26,1.99-1.45,2.15-1.86.12-.33-.05-.65-.16-.78v-.43l-.73-.79c-.28.01-.9.04-1.14,0-.3-.04-.49.05-.57.17-.08.11-.29.14-.38.16-.09.03-.25.17-.29.31-.04.11-.16.29-.23.37-.06.05-.2.19-.24.36-.04.17-.28.42-.39.52h0Z" style="fill: #e8b77c;"/>
    <path d="M10.56,8.51l.3-.32.26,1.04c-.26-.25-.47-.45-.57-.53v-.19h0Z" style="fill: #b66e30;"/>
    <path d="M3.86,12.06c-.19.23-.5.42-.64.55.26.38.55.74.87,1.07l1.55-1.73c-.16-.33-.41-.6-.72-.8.02.04-.04.18-.42.41-.23.13-.45.3-.64.49Z" style="fill: #e8b46b;"/>
    <path d="M11.13,9.21l-.54-.5-.02-.16.31-.36-.8-.73c-.29,0-1.03-.02-1.2-.01-.18,0-.47.26-.65.37-.29-.07-.45.49-.59.66-.11.14-.41.61-.56.84l-1.06.8c.15.03.72.49.99.72l.94-.75-.25-.13c.21-.13.57-.64.74-.92.2.11.44.27.53.35.64.06,1.92.15,1.99.12.07-.03.18-.14.18-.29h0Z" style="fill: #e6b46d;"/>
    <path d="M7.92,10.08l-.94.77.34.45,1.68-.16,1.26-.96.69-.7-1.07-.07-.89-.05-.56-.38-.76.97.24.13h0Z" style="fill: #cb893e;"/>
    <path d="M8.28,7.87c-.13.23-.29.45-.47.64.24-.17.44-.39.58-.64,0-.06-.07-.02-.11,0h0ZM7.8,9.38l.34-.36c0,.12-.22.36-.34.42-.12.06-.3.06-.38.06-.06,0-.41.18-.57.26l.51-.38c.07-.05.33-.02.45,0ZM10.2,8.82c-.35.12-.9,0-1.13-.07.2.17.63.21.82.21l-.24.32.55-.46Z" style="fill: #b66e30;"/>
    <path d="M6.2,10.19c.11-.07.59-.56.81-.78l-.97.69.16.09ZM9.96,9.27c.12-.17.28-.31.48-.38.32.12.62.44.37.57s-.37.3-.37.39c0,.07-.15.08-.23.07-.13-.13-.36-.44-.25-.64h0ZM8.49,7.95v-.23l.41-.2h1.16l-1.02.64-.19-.21h-.36ZM9.09,8.93c.11.03.45.09.6.12,0,.09-.07.27-.35.23-.35-.05-.39-.39-.25-.35Z" style="fill: #f7d192;"/>
    <path d="M8.48,9.87c-.12,0-.42.09-.55.13h.44c.03.31.35.42.51.43.69.02.97-.29,1.06-.33.09-.04,0-.36-.21-.23-.17.11-.5.08-.64.06-.15-.02-.49-.06-.61-.06Z" style="fill: #e6b46d;"/>
    <path d="M7.92,10.71c-.12,0-.48.23-.64.34.08,0,.4,0,.58-.09.15-.07.47-.14.6-.16.03-.12.03-.37-.2-.39-.22-.02-.33.2-.35.31Z" style="fill: #b66e30;"/>
    <path d="M8.5,12.91c-1.02-1.93-2.13-2.71-2.59-2.85l-.21.11c1.25.48,3.11,3.21,2.63,3.35-.38.11-.53-.16-.55-.3.03-.42-.36-1.06-.55-1.32l-.09.2c.15.23.47.75.47.96.01.21-.11.13-.17.06l-.6-.78-.12.16c.31.42,1.05,1.24,1.54,1.24s.37-.55.24-.83Z" style="fill: #a18c5e;"/>
    <path d="M5.85,12.33c-.53-.96-1.09-1.28-1.31-1.32l.16-.11c.02-.13.07-.24.09-.28.14-.11.32-.15.49-.11l.43-.34c.43.19.91.56,1.09.73.3.2.75.74.22,1.35-.54.6-1.01.31-1.18.08h0Z" style="fill: #ebd453;"/>
    <path d="M6.1,12.32c-.27-.4-.56-.79-.86-1.17l.54.44.64-.63c-.2-.23-.46-.41-.74-.52l.1-.06c.54.17,1.22.88,1.25.95.04.07.24.35-.15.79-.31.36-.65.27-.79.19Z" style="fill: #884928;"/>
    <path d="M6.42,11.39l-.5.49c.29.69.79.29.96.07.14-.18.04-.22-.04-.21-.25.14-.45.06-.52,0,.23.02.47-.11.38-.28-.07-.14-.22-.1-.29-.06Z" style="fill: #ebd453;"/>
    <circle cx="5.8" cy="10.86" r=".08" style="fill: #fff;"/>
    <circle cx="4.95" cy="10.72" r=".08" style="fill: #fff;"/>
    <circle cx="6.46" cy="11.59" r=".08" style="fill: #fff;"/>
    <path d="M6.12,10.91c-.16.25-.4.12-.5.03,0,.28.25.3.38.27l-.31.3.1.08.64-.63c-.14-.18-.32-.32-.53-.42l-.13.09c.19-.02.52.02.35.26Z" style="fill: #b2842c;"/>
    <path d="M9.53,7.58c.07,0,.19.1.24.15-.11.19-.37.55-.58.45-.26-.11-.22-.6-.14-.6.06,0,.12.1.14.15.08-.09.24-.15.34-.15Z" style="fill: #c98b38;"/>
    <path d="M9.18,8.16l2.02-1.66.64.72-1.44,1.37c-.94.34-1.21-.14-1.22-.43Z" style="fill: #423932;"/>
    <path d="M9.42,8.31c.11-.25,1.22-1.16,1.76-1.57l.24.28c-.38.43-1.17,1.32-1.28,1.42-.11.1-.1-.11-.09-.22-.19.32-.79.4-.64.1h0Z" style="fill: #6a635d;"/>
    <path d="M9.77,7.9c.08-.23.97-1.02,1.4-1.38l.06.13c-.45.39-1.37,1.2-1.46,1.25Z" style="fill: #c0b7b2;"/>
    <path d="M14.53,3.97l-2.56,2.04.37.38,2.6-2.08c.09-.1.09-.24,0-.34-.11-.14-.32-.06-.41,0h0Z"/>
    <ellipse cx="11.81" cy="6.52" rx=".65" ry=".81" transform="translate(-1.48 8.81) rotate(-38.68)" style="fill: #faec34;"/>
    <ellipse cx="13.24" cy="5.27" rx=".65" ry=".81" transform="translate(-.39 9.43) rotate(-38.68)" style="fill: #faec34;"/>
    <circle cx="11.59" cy="6.29" r=".21" style="fill: #fff;"/>
    <circle cx="13.03" cy="5.06" r=".21" style="fill: #fff;"/>
  </g>
</svg>