<?xml version="1.0" encoding="UTF-8"?>
<svg id="Layer_1" xmlns="http://www.w3.org/2000/svg" viewBox="0 0 18 18">
  <path d="M0,0h18v18H0V0Z" style="fill: #0e149c;"/>
  <path d="M15,10.5c-.68.09-1.37.1-2.06.05-.4-.03-.8-.13-1.16-.31-.46-.24-.6-.77-.6-1.25,0-.45.14-.92.54-1.18.26-.15.54-.25.83-.28.81-.12,1.63-.13,2.45-.02v.54c-.93-.18-2.16-.14-2.5.29-.15.18-.23.41-.23.64,0,.4.13.94.94,1.06.53.08,1.27.02,1.78-.08,0,0,0,.55,0,.55ZM3,7.5h.96c.22,0,.48.21.59.32l1.72,1.88v-2.2h.55v3h-1c-.21,0-.42-.09-.56-.25l-1.71-1.88v2.13h-.55v-3ZM10.91,9.95c-.44,0-1.73,0-1.81,0-.31,0-.64-.06-.65-.34,0-.16,0-.32,0-.47h2.18v-.55h-2.18v-.55h2.45v-.55h-3.55v2.2c.01.37.15.8.91.8h2.64v-.55Z" style="fill: #fff;"/>
</svg>