<svg xmlns="http://www.w3.org/2000/svg" viewBox="0 0 18 18">
  <g clip-path="url(#a)">
    <path fill="#00158C" d="M0 0h18v18H0V0Z"/>
    <path fill="#3DE02E" d="M10.775 0h1.003c-1.31 1.303-2.612 2.614-3.922 3.919-.154.149-.304.3-.444.463.155.164.315.323.477.48-.168.203-.362.383-.55.569C5.13 7.643 2.917 9.855.704 12.067c-.233.24-.484.466-.703.719V9.778c2.138-2.132 4.27-4.27 6.405-6.403.16.173.33.334.497.497C8.195 2.584 9.484 1.291 10.775 0Z"/>
    <path fill="#00B0F0" d="M16.736 0h1.007c-3.283 3.287-6.57 6.571-9.855 9.856-.982.991-1.981 1.965-2.952 2.967.162.164.323.33.483.498C3.863 14.883 2.299 16.435.747 18H0v-2.237a3.88 3.88 0 0 1 .193-.212c1.247-1.242 2.488-2.49 3.735-3.73.162.167.33.329.5.49C8.533 8.211 12.639 4.108 16.736 0Z"/>
    <path fill="#F53D33" d="M16.193 6.52c.6-.61 1.217-1.202 1.807-1.82v1.006c-.694.716-1.407 1.414-2.111 2.118.165.165.331.33.492.501-3.219 3.228-6.449 6.447-9.669 9.675H3.717c2.865-2.87 5.735-5.736 8.602-8.604.862-.85 1.7-1.723 2.576-2.558.165.157.327.316.483.483.282-.256.541-.535.815-.802Z"/>
    <path fill="#FADB00" d="M14.05 14.633c1.312-1.325 2.643-2.631 3.95-3.96v1.004c-1.143 1.16-2.3 2.305-3.45 3.456.166.165.33.33.494.498-.79.789-1.578 1.581-2.37 2.369H9.685c1.288-1.289 2.574-2.58 3.866-3.866.165.168.333.333.499.499Z"/>
  </g>
  <defs>
    <clipPath id="a">
      <path fill="#fff" d="M0 0h18v18H0z"/>
    </clipPath>
  </defs>
</svg>
