<svg xmlns="http://www.w3.org/2000/svg" viewBox="0 0 18 18" fill="#0a0a0a">
  <g clip-path="url(#a)">
    <path d="M0 0h18v18H0V0Z" />
    <path
      fill="#fff"
      d="M4.434 11.82c-.387-.016-.704-.122-.952-.319a1.894 1.894 0 0 1-.198-.199 1.238 1.238 0 0 1-.213-.386c-.142-.422-.07-.973.205-1.58.236-.519.598-1.033 1.23-1.745.093-.106.372-.413.373-.413l-.034.059a3.74 3.74 0 0 0-.38.882c-.125.452-.11.84.042 1.14.105.207.284.388.487.486.353.174.87.189 1.502.043.044-.01 2.2-.584 4.791-1.275L16 7.257 6.854 11.18c-.283.126-.57.242-.861.347-.594.21-1.128.31-1.56.293Z"
    />
  </g>
  <defs>
    <clipPath id="a">
      <path fill="#fff" d="M0 0h18v18H0z" />
    </clipPath>
  </defs>
</svg>
