<svg xmlns="http://www.w3.org/2000/svg" viewBox="0 0 18 18">
  <g clip-path="url(#a)">
    <path d="M0 0h18v18H0V0Z"/>
    <path fill="#fff" d="M9.993 9.424c-.01.002-.047.002-.064.002H8.702v.285h1.25c.008 0 .082 0 .097-.003.254-.023.37-.234.37-.42 0-.19-.12-.395-.352-.417-.045-.005-.083-.005-.1-.005h-.816a.425.425 0 0 1-.09-.007c-.064-.016-.088-.073-.088-.12 0-.043.024-.1.09-.12a.35.35 0 0 1 .086-.007h1.177v-.28H9.13a.816.816 0 0 0-.12.007.395.395 0 0 0-.346.402c0 .17.107.37.342.404.043.005.102.005.129.005h.794c.014 0 .05 0 .057.002.09.012.122.079.122.138a.134.134 0 0 1-.115.134Zm-2.326 0c-.01.002-.048.002-.062.002h-1.23v.285h1.25c.009 0 .082 0 .097-.003.254-.023.37-.234.37-.42 0-.19-.12-.395-.351-.417-.046-.005-.084-.005-.1-.005h-.816a.42.42 0 0 1-.09-.007c-.065-.016-.089-.073-.089-.12 0-.043.024-.1.09-.12a.35.35 0 0 1 .086-.007H8v-.28H6.804a.816.816 0 0 0-.12.007.395.395 0 0 0-.347.402c0 .17.107.37.343.404.043.005.102.005.128.005h.795c.014 0 .05 0 .057.002.09.012.121.079.121.138a.132.132 0 0 1-.114.134ZM5.426 8.322h.309v1.396h-.31V8.322Zm-.683 1.396V8.322h-.309v1.041l-1.03-1.041h-.398v1.396h.31V8.671l1.037 1.047h.39Zm9.947-1.396v1.041l-1.03-1.041h-.398v1.396h.31V8.671l1.035 1.047h.39V8.322h-.307Z"/>
    <path fill="#fff" fill-rule="evenodd" d="m11.985 8.322.87 1.396h-.373l-.154-.25h-1.016l-.155.25h-.376l.871-1.396h.333Zm-.164.321-.35.561h.697l-.347-.56Z" clip-rule="evenodd"/>
    <path fill="#fff" d="M4.727 7.53a4.513 4.513 0 0 1 4.277-3.042A4.51 4.51 0 0 1 13.28 7.53l.006.015h1.363V7.38l-.567-.066c-.35-.04-.423-.195-.519-.39l-.023-.048a5.03 5.03 0 0 0-4.537-2.868A5.024 5.024 0 0 0 4.467 6.88l-.024.047c-.095.195-.169.35-.518.39l-.567.067v.164h1.36l.009-.02Zm8.56 2.968-.006.015a4.51 4.51 0 0 1-4.277 3.039 4.51 4.51 0 0 1-4.277-3.042l-.005-.014H3.36v.164l.567.067c.35.04.424.195.519.39l.023.047a5.026 5.026 0 0 0 4.537 2.873 5.028 5.028 0 0 0 4.537-2.87l.024-.048c.095-.195.169-.35.519-.39l.566-.066v-.165h-1.365Z"/>
  </g>
  <defs>
    <clipPath id="a">
      <path fill="#fff" d="M0 0h18v18H0z"/>
    </clipPath>
  </defs>
</svg>
