<svg xmlns="http://www.w3.org/2000/svg" viewBox="0 0 18 18">
  <g clip-path="url(#a)">
    <path fill="#C22B2F" d="M0 0h18v18H0V0Z"/>
    <path fill="#fff" fill-rule="evenodd" d="M2.848 10.595c.029-.127.086-.2.166-.23.075-.022.143 0 .195.075.04.068.04.155 0 .269-.011.08-.011.16-.006.246a.326.326 0 0 1-.017.235.662.662 0 0 1-.126.2c-.029.07-.063.144-.086.23-.023.092-.063.149-.115.172a.257.257 0 0 1-.2.028.198.198 0 0 1-.145-.154.562.562 0 0 1 .007-.275.82.82 0 0 0 .074-.252c0-.144.046-.27.144-.379a.43.43 0 0 0 .109-.165Zm.82-.046a.205.205 0 0 0 .07-.04c.011-.03.068-.03.16 0a.21.21 0 0 1 .132.12c.023.08.029.155.029.218a.966.966 0 0 0 .035.32.624.624 0 0 1-.052.282c-.006.062-.012.108-.012.136a.361.361 0 0 1-.063.127c-.057.063-.11.097-.155.097-.046.006-.092-.034-.138-.12-.063-.091-.092-.166-.086-.235-.034-.24-.046-.401-.035-.481.013-.064.03-.167.046-.321.03-.069.052-.103.07-.103Zm.724-.2a.234.234 0 0 0 .057-.07c.006-.035.063-.052.161-.046.069 0 .132.03.178.086a.5.5 0 0 1 .092.206.384.384 0 0 0 .029.092.233.233 0 0 1 0 .086c.011.057.023.109.028.15.006.04 0 .085-.017.148-.04.08-.086.126-.126.138-.046.017-.103-.006-.178-.08-.097-.07-.15-.144-.161-.212a.628.628 0 0 1-.075-.219.772.772 0 0 0-.022-.154c0-.08.017-.12.034-.126Zm-1.585-.757a.486.486 0 0 0-.022-.173.346.346 0 0 1 .046-.228c.074-.155.143-.247.206-.276.046-.023.069-.069.075-.132a.456.456 0 0 1 .091-.217.243.243 0 0 0 .006-.218.213.213 0 0 0-.046-.097c-.028-.04-.057-.064-.086-.069-.074-.029-.126-.063-.143-.11a.162.162 0 0 0-.069-.05c-.034-.018-.052-.047-.046-.087.006-.028-.006-.057-.04-.085-.029-.035-.052-.07-.052-.11-.006-.125.005-.2.034-.217.035-.03.046-.057.04-.086 0-.046.035-.138.11-.276.086-.16.143-.252.172-.28.017-.012.034-.04.046-.086a.227.227 0 0 1 .074-.092c.03-.017.04-.04.046-.074a.133.133 0 0 1 .07-.087c.028-.01.057-.039.08-.09.068-.138.126-.202.167-.202.04 0 .074-.005.103-.028a.202.202 0 0 1 .166-.006.263.263 0 0 0 .121.017c.068-.017.155 0 .252.052.11.075.167.154.167.24.005.081-.012.133-.04.15-.075.057-.133.086-.179.08-.051-.006-.091 0-.108.022a.15.15 0 0 1-.121.035c-.04-.011-.075 0-.11.03-.028.022-.05.033-.068.033-.029-.006-.051.012-.08.04a.316.316 0 0 0-.063.109c-.012.052-.03.08-.053.092a.315.315 0 0 0-.074.12c-.023.057-.04.092-.063.092-.028.023-.057.086-.075.195-.057.12-.074.206-.046.269.052.075.093.12.12.143.035.006.052.023.059.04.011.035.046.057.103.057.046.007.08.012.092.03.063.028.115.022.155-.018.034-.034.068-.057.103-.057.051-.006.08-.034.103-.091a.167.167 0 0 1 .046-.07c.046-.028.075-.074.098-.143a.433.433 0 0 1 .052-.103c.028-.035.04-.068.028-.097-.006-.035-.046-.075-.132-.121-.034-.023-.04-.069-.006-.143.023-.046.063-.069.12-.069a.214.214 0 0 0 .087-.034c.035-.023.07-.023.11-.006a.28.28 0 0 0 .108.023.43.43 0 0 1 .31.172c.052.069.064.115.046.143-.023.035-.023.08.006.138a.248.248 0 0 1 0 .16c-.034.08-.074.12-.12.126a.611.611 0 0 0-.259.143.19.19 0 0 0-.069.115c-.011.023-.023.046-.029.075a.683.683 0 0 1 .023.195l.012.01c.012.03.029.041.046.047.045.017.074.051.098.11.017.044.046.079.074.113.029.017.058.058.075.115a.962.962 0 0 1 .062.246c.013.092.024.161.04.207a.405.405 0 0 1-.063.406.373.373 0 0 1-.114.08.427.427 0 0 1-.103.087.741.741 0 0 0-.213.19.512.512 0 0 1-.373.17.63.63 0 0 0-.184.03.295.295 0 0 1-.218-.035.514.514 0 0 0-.258-.068.525.525 0 0 1-.38-.132c-.097-.19-.148-.31-.143-.384ZM3.99 8.537c-.006 0-.006 0-.006.006a.292.292 0 0 1-.16.051c-.064.012-.104.04-.12.098a.424.424 0 0 1-.184.206c-.058.034-.093.08-.099.132-.01.075-.033.132-.08.172-.057.052-.086.103-.08.149a.46.46 0 0 0 .132.224.32.32 0 0 0 .155.04c.07.005.115.017.144.034.046.029.08.034.114.017.064-.023.11-.029.144-.012.052.012.115 0 .195-.034a.496.496 0 0 0 .201-.16c0-.08.012-.144.029-.19a.563.563 0 0 0 .029-.211c-.012-.08-.03-.138-.064-.167a.218.218 0 0 1-.034-.08.26.26 0 0 0-.075-.12.193.193 0 0 1-.034-.046c-.006-.012-.012-.028-.03-.04a.719.719 0 0 0-.177-.069Zm4.73 2.734a.6.6 0 0 1 .006.269.46.46 0 0 0-.04.12.278.278 0 0 1-.052.098.346.346 0 0 1-.23.086.251.251 0 0 1-.194-.115c-.058-.092-.086-.166-.08-.229a.219.219 0 0 0-.024-.137.2.2 0 0 1 0-.116.34.34 0 0 0 0-.154c-.034-.132-.046-.235-.034-.304.023-.2.017-.395-.012-.59a.665.665 0 0 1 0-.15c.006-.05.006-.12 0-.217a.838.838 0 0 1 .012-.275.655.655 0 0 0 .012-.281 1.287 1.287 0 0 1-.03-.2.377.377 0 0 0-.109-.092c-.057-.052-.097-.092-.12-.109-.012-.005-.023-.011-.034-.011a.95.95 0 0 0-.42-.023c-.057.01-.108.023-.154.023-.052.005-.087.017-.104.034a.213.213 0 0 0-.068.04c.005.006.005.018.005.018 0 .051 0 .103.006.16a.187.187 0 0 1-.011.097c-.006.006-.006.012-.006.03a.591.591 0 0 0 .12.114.286.286 0 0 0 .012.01.967.967 0 0 1 .212.012c.086.007.16.007.23 0a.443.443 0 0 1 .212.075.24.24 0 0 1 .115.212c.005.08-.04.143-.132.189a.555.555 0 0 1-.373-.006.714.714 0 0 0-.31-.011.457.457 0 0 1-.23.006h-.006c-.183.062-.31.115-.379.16l.007.006a.554.554 0 0 1-.04.269.322.322 0 0 0-.007.126v.144a.416.416 0 0 0 .064.206c.057.034.074.086.04.154-.03.07-.07.115-.127.138a.246.246 0 0 1-.091 0 1.327 1.327 0 0 0-.104-.035c-.098-.028-.166-.108-.206-.246a1.613 1.613 0 0 1-.035-.441.652.652 0 0 0 .017-.138v-.051a.15.15 0 0 0-.034-.074c-.012-.03-.029-.046-.04-.064-.04 0-.075 0-.11-.006l-.103-.057c0 .006 0 .017.006.035 0 .057-.011.132-.029.212a.411.411 0 0 0-.04.189c-.006.04-.006.08-.012.12a.23.23 0 0 0-.01.11.37.37 0 0 1-.03.126.337.337 0 0 0-.034.154.558.558 0 0 1-.029.131 1.993 1.993 0 0 0-.126.396.596.596 0 0 1-.115.184.48.48 0 0 1-.224.12.399.399 0 0 1-.189-.04.318.318 0 0 1-.115-.155.59.59 0 0 1-.011-.172c.017-.057.034-.109.051-.155a1.34 1.34 0 0 0 .114-.16c.075-.086.116-.161.116-.218a.175.175 0 0 1 .04-.098c.04-.103.069-.194.086-.274a.345.345 0 0 0 .04-.155c0-.177.035-.35.109-.516a.461.461 0 0 0 .018-.304c.01-.074.016-.125.016-.16a.484.484 0 0 0 .03-.2.937.937 0 0 1-.006-.31 3.289 3.289 0 0 0-.018-.493.652.652 0 0 0-.109-.332.8.8 0 0 1-.132-.442.809.809 0 0 1 .087-.498c.074-.178.148-.28.218-.315.103-.052.195-.052.275.005-.006-.005-.006-.005 0-.005a.243.243 0 0 1 .092 0c.029 0 .069 0 .12-.006a.623.623 0 0 1 .305-.029c.075.018.126.023.172.006.092-.046.167-.063.207-.046.028.006.063 0 .103-.023a.42.42 0 0 1 .282-.029.55.55 0 0 0 .258.006 1.12 1.12 0 0 1 .361-.006c.063.006.116.012.155.006.052 0 .093.012.12.04a.251.251 0 0 0 .156.04.333.333 0 0 1 .178.024.285.285 0 0 1 .115.092.246.246 0 0 0 .138.12.47.47 0 0 1 .23.297.568.568 0 0 1 0 .241.209.209 0 0 1-.07.126.2.2 0 0 0-.057.12c-.006.052-.011.08-.03.098-.022.051-.027.097-.01.137a.328.328 0 0 1 0 .15c-.029.148-.035.31-.023.475 0 .11-.018.2-.046.275a.318.318 0 0 0 .006.166.52.52 0 0 1-.006.207.406.406 0 0 0 0 .206c.028.167.04.316.023.436-.03.206-.017.355.029.453.086.257.132.463.137.624.012.144.03.252.057.35Zm-1.624-.643c.035-.005.097-.017.178-.017a.411.411 0 0 0 .161-.034.338.338 0 0 1 .275.034.25.25 0 0 1 .132.2c.006.104-.022.173-.091.213-.087.052-.207.069-.356.052-.046-.011-.07-.011-.075-.006a.445.445 0 0 1-.086.006.157.157 0 0 0-.092.022.546.546 0 0 1-.304-.005.21.21 0 0 1-.103-.166.473.473 0 0 1 .051-.161c.052-.063.109-.097.184-.097.051-.017.097-.029.126-.04Zm.919-2.217a.437.437 0 0 0 .069-.08v-.092a.687.687 0 0 1 .022-.252c.012-.075.018-.189.012-.339a.632.632 0 0 0-.166-.355c-.253-.217-.46-.297-.627-.24-.091.029-.206.023-.355-.006a.864.864 0 0 0-.563.057.433.433 0 0 1-.19.046.356.356 0 0 0-.109 0c-.017.006-.029.006-.034.011a1.415 1.415 0 0 0-.316.161c-.005.012-.011.023-.011.04-.075.15-.115.258-.11.315.024.144.035.241.04.298-.005.138.013.252.07.333v.011l.011.006c.08.069.15.12.213.16.005.006.017.017.023.017a.373.373 0 0 1 .155-.016.603.603 0 0 0 .2 0 .38.38 0 0 1 .179-.006c.075.011.132 0 .178-.035a.741.741 0 0 1 .247-.017h.005c.046-.029.074-.045.098-.069.011-.017.029-.034.046-.051a.145.145 0 0 1 .034-.074.508.508 0 0 0 .046-.132.942.942 0 0 0-.018-.167.46.46 0 0 1 0-.126.773.773 0 0 0 .064-.2c0-.104.04-.184.12-.24.093-.07.161-.098.219-.087.051.011.092.052.12.109a.52.52 0 0 1 .047.252 1.61 1.61 0 0 1-.047.195.65.65 0 0 1-.109.172c-.051.057-.075.143-.08.252-.006.023-.012.046-.012.075.012.01.03.028.04.046.006 0 .012.005.012.016.057-.005.132 0 .218.012a.92.92 0 0 0 .224.005c.006 0 .018.007.023.007a.052.052 0 0 1 .007-.011l.005-.001Zm-.005 0c0-.002.005-.006.005-.006l-.005.007Zm-1.402.94a.1.1 0 0 1 .006-.04.331.331 0 0 0-.011-.132v-.166a.089.089 0 0 0-.047-.035.72.72 0 0 0-.178-.068h-.006a.558.558 0 0 1-.183.068 1.43 1.43 0 0 1-.149.011.144.144 0 0 1-.04.018.323.323 0 0 0-.104.092.242.242 0 0 0-.052.08.83.83 0 0 1-.034.212.365.365 0 0 0-.035.195.36.36 0 0 1 .201-.115.486.486 0 0 1 .178-.034.361.361 0 0 0 .156 0 .288.288 0 0 1 .143 0h.017a.6.6 0 0 0 .138-.086Zm-.425-1.788a.129.129 0 0 0 .052-.058c.005-.034.051-.051.149-.045a.236.236 0 0 1 .166.074.504.504 0 0 1 .086.2.226.226 0 0 0 .035.087.193.193 0 0 1 0 .08c.011.063.023.109.029.138a.26.26 0 0 1-.023.137c-.035.075-.069.12-.115.132-.04.017-.098-.006-.16-.074-.098-.064-.15-.127-.162-.195a.994.994 0 0 1-.074-.213.733.733 0 0 0-.023-.149c.011-.068.023-.108.04-.114ZM11.61 6.55c-.132-.035-.196-.104-.196-.201a.25.25 0 0 1 .104-.229.515.515 0 0 1 .315-.115c.075-.005.155-.017.241-.035.115-.045.247-.068.397-.068.183-.006.327.006.436.023.138.034.287.045.436.028a1.11 1.11 0 0 1 .62.08c.046.035.109.047.195.041.098.006.19.046.287.126.11.069.173.126.178.183a.208.208 0 0 0 .075.138c.057.063.086.178.08.338.012.08.035.149.064.206.034.057.051.15.051.275v.401c-.006.19-.051.321-.138.408a.663.663 0 0 1-.326.24c-.11.063-.248.086-.425.069a1.295 1.295 0 0 0-.31.012.425.425 0 0 1-.276.011.33.33 0 0 0-.247-.011.296.296 0 0 1-.276.011.295.295 0 0 0-.2-.011 1.14 1.14 0 0 1-.092.228.647.647 0 0 1-.179.178.735.735 0 0 0-.108.114.21.21 0 0 1-.127.127.498.498 0 0 0-.16.097.55.55 0 0 1-.265.166 2.581 2.581 0 0 0-.224.12c-.062.052-.154.076-.28.081a.561.561 0 0 0-.282.086c-.086.04-.15.058-.195.052a.272.272 0 0 0-.126.011.493.493 0 0 1-.328.012c-.092-.03-.138-.058-.143-.087-.006-.034-.017-.057-.035-.062-.017-.012-.029-.04-.034-.087a.258.258 0 0 1 .057-.189.428.428 0 0 1 .184-.097.55.55 0 0 1 .253-.006c.057.012.132.017.218.017a.658.658 0 0 0 .235-.074.418.418 0 0 1 .23-.086.453.453 0 0 0 .23-.109.485.485 0 0 1 .2-.091.803.803 0 0 0 .258-.195c.03-.052.053-.098.08-.127a.459.459 0 0 0-.315.012c-.069.029-.172.017-.32-.029-.156-.04-.254-.097-.283-.166-.01-.069-.062-.138-.149-.195-.069-.04-.092-.131-.08-.269a5.448 5.448 0 0 0-.035-.516.478.478 0 0 1-.005-.24c.005-.052.011-.11.005-.167a.644.644 0 0 1 .063-.32.342.342 0 0 1 .115-.15.235.235 0 0 1 .127-.05.76.76 0 0 1 .143.039c.04.034.069.086.086.155.029.08.04.206.018.39a1.84 1.84 0 0 0-.018.486c.029.144.064.241.11.298a.411.411 0 0 0 .252.19c.166.045.35.045.55-.012.26-.075.518-.086.76-.029a.783.783 0 0 0 .418-.011 1.28 1.28 0 0 1 .408-.046c.126.017.23-.017.304-.103a.523.523 0 0 0 .149-.246.686.686 0 0 0-.035-.35.688.688 0 0 1-.046-.241.924.924 0 0 0-.033-.155c-.053-.068-.086-.114-.086-.137-.018-.052-.04-.092-.075-.109a.356.356 0 0 1-.121-.068c-.046-.058-.247-.098-.614-.115-.253.005-.46 0-.626-.017a.932.932 0 0 0-.626.074c-.183.098-.344.126-.493.098Zm.89.435c.166-.034.338-.04.505-.006a.65.65 0 0 0 .344.012c.12-.029.224-.023.304.023.08.057.121.137.127.235-.018.091-.058.154-.115.189a.267.267 0 0 1-.23.005.667.667 0 0 0-.368-.005.492.492 0 0 1-.361.005c-.11-.028-.264-.017-.448.03a.476.476 0 0 1-.356 0 .256.256 0 0 1-.103-.213.326.326 0 0 1 .103-.206c.058-.057.138-.075.236-.04a.69.69 0 0 0 .361-.029Zm1.302 5.003c-.108.046-.194.063-.258.046a.746.746 0 0 0-.184-.046c-.091-.011-.155-.04-.178-.086a.348.348 0 0 0-.086-.138.187.187 0 0 1-.069-.12.3.3 0 0 0-.051-.097.39.39 0 0 1-.08-.207c-.006-.075.011-.126.052-.154.062-.046.143-.04.24.01.046.024.098.064.155.11a.21.21 0 0 0 .092.029c.086.029.213.017.379-.029.212-.04.35-.091.413-.15.024-.033.052-.056.092-.056.092-.04.196-.132.31-.27a.688.688 0 0 1 .11-.131c.08-.08.148-.213.2-.39.034-.19.034-.321-.006-.402a.93.93 0 0 0-.258-.384c-.023-.01-.04-.022-.063-.028-.064.006-.11.006-.138.011-.069.012-.12.024-.16.03a.473.473 0 0 1-.11.016c-.028-.005-.046-.046-.068-.132a2.718 2.718 0 0 0-.086-.235c-.018-.028-.03-.046-.035-.063-.03-.005-.052-.005-.086-.005a.494.494 0 0 0-.241-.006c-.086.023-.15.028-.196.011h-.01a.337.337 0 0 1-.162.178.33.33 0 0 0-.12.115 3.417 3.417 0 0 1-.265.2.467.467 0 0 0-.16.138 1.46 1.46 0 0 1-.258.189.434.434 0 0 0-.132.103c-.07.07-.139.12-.207.161a.428.428 0 0 0-.155.12.436.436 0 0 1-.219.12.75.75 0 0 0-.183.132 2.21 2.21 0 0 1-.275.132c-.167.075-.282.115-.35.115-.035-.006-.099.023-.185.08a.557.557 0 0 1-.28.103c-.116.012-.208-.006-.265-.046a.313.313 0 0 1-.15-.218c-.01-.062.024-.132.104-.212a.401.401 0 0 1 .276-.114c.195-.017.327-.052.396-.092a.768.768 0 0 1 .212-.068c.23-.075.38-.144.442-.201a.453.453 0 0 1 .167-.11.53.53 0 0 0 .16-.114c.087-.057.155-.097.213-.126.098-.057.218-.126.356-.212.115-.075.19-.132.235-.16a.755.755 0 0 1 .12-.11c.098-.051.19-.114.276-.177l-.006-.006c-.062-.034-.091-.103-.091-.2.005-.092.058-.16.155-.2a.796.796 0 0 1 .275-.041c.087.006.179.017.276.034.103.035.184.046.235.03a.35.35 0 0 1 .144-.013c.051.03.115.04.19.035.046-.011.097.006.154.046.098.075.201.126.31.166.098.04.161.091.19.15.063.068.149.148.264.234.052.034.074.086.08.155.029.052.063.114.104.2a.242.242 0 0 1 .057.19.276.276 0 0 0 .063.137c.023.034.023.074.006.115-.029.045-.029.108-.011.178.028.051.017.148-.04.303a.755.755 0 0 0-.012.138c0 .074-.046.183-.127.314-.114.132-.19.202-.23.207a.294.294 0 0 0-.085.12 1.113 1.113 0 0 1-.31.258c-.276.19-.466.293-.563.31a.974.974 0 0 0-.299.08Zm-1.82-1.032a.455.455 0 0 1 .178-.125.672.672 0 0 0 .185-.127c.091-.068.172-.114.229-.149.103-.063.23-.143.385-.24.12-.087.207-.15.264-.178a.331.331 0 0 1 .126-.126c.127-.075.246-.16.356-.258.092-.063.167-.086.235-.069.104.029.155.086.15.184-.018.085-.075.16-.178.217a.421.421 0 0 0-.132.132l-.282.23a.433.433 0 0 0-.178.16 1.118 1.118 0 0 1-.28.206.4.4 0 0 0-.041.149.544.544 0 0 1-.035.12.389.389 0 0 0-.115 0 .705.705 0 0 1-.132.012c-.017 0-.028 0-.034.005-.006 0-.012 0-.012.006a.691.691 0 0 0-.16.149.664.664 0 0 1-.236.132.647.647 0 0 0-.2.149 1.253 1.253 0 0 1-.299.155c-.184.091-.31.137-.385.137-.04-.006-.109.03-.2.092a.661.661 0 0 1-.31.115c-.127.011-.224 0-.288-.04a.352.352 0 0 1-.166-.24c-.012-.076.023-.155.109-.242.08-.08.183-.12.304-.126.207-.028.35-.068.43-.12a.609.609 0 0 1 .241-.08c.242-.092.403-.173.471-.23Z" clip-rule="evenodd"/>
  </g>
  <defs>
    <clipPath id="a">
      <path fill="#fff" d="M0 0h18v18H0z"/>
    </clipPath>
  </defs>
</svg>
