<svg xmlns="http://www.w3.org/2000/svg" viewBox="0 0 18 18">
  <g clip-path="url(#a)">
    <path fill="url(#b)" d="M0 0h18v18H0V0Z"/>
    <path fill="#fff" d="M7.601 7.57v-.656c.065-.004.13-.008.195-.008 1.797-.057 2.975 1.547 2.975 1.547S9.5 10.218 8.136 10.218c-.183 0-.36-.029-.53-.085V8.14c.7.085.841.393 1.258 1.093l.936-.786s-.685-.894-1.834-.894a2.745 2.745 0 0 0-.365.016Zm0-2.17v.98l.195-.012c2.497-.086 4.13 2.048 4.13 2.048s-1.871 2.275-3.819 2.275c-.17 0-.336-.016-.502-.044v.607c.138.016.28.029.417.029 1.814 0 3.126-.928 4.397-2.02.21.17 1.073.578 1.251.756-1.206 1.012-4.02 1.826-5.615 1.826-.154 0-.3-.008-.446-.024v.854H14.5V5.4H7.601Zm0 4.733v.518c-1.676-.3-2.141-2.045-2.141-2.045s.805-.89 2.141-1.036v.567h-.004c-.7-.085-1.25.57-1.25.57s.31 1.106 1.254 1.426Zm-2.975-1.6s.991-1.465 2.98-1.619V6.38C5.402 6.558 3.5 8.42 3.5 8.42s1.077 3.118 4.101 3.401v-.567c-2.218-.275-2.975-2.72-2.975-2.72Z"/>
  </g>
  <defs>
    <linearGradient id="b" x1="16" x2="5.5" y1="-.5" y2="18" gradientUnits="userSpaceOnUse">
      <stop stop-color="#85B737"/>
      <stop offset="1" stop-color="#597B20"/>
    </linearGradient>
    <clipPath id="a">
      <path fill="#fff" d="M0 0h18v18H0z"/>
    </clipPath>
  </defs>
</svg>
