<svg xmlns="http://www.w3.org/2000/svg" viewBox="0 0 18 18">
  <g clip-path="url(#a)">
    <path fill="#081E45" d="M0 0h18v18H0V0Z"/>
    <path fill="#F8FAFC" d="M9.202 9.91a.941.941 0 0 0 .863-.57.916.916 0 0 0-.202-1.008.938.938 0 0 0-1.595.654.916.916 0 0 0 .273.653.935.935 0 0 0 .66.271Z"/>
    <path fill="#7BB931" d="M12.722 4.973a.913.913 0 0 0-.014-.14.414.414 0 0 0-.034-.105.756.756 0 0 0-.232-.257c-.018-.012-.038-.023-.055-.037a.885.885 0 0 0-.066-.048v.005a5.768 5.768 0 0 0-3.09-.891C6.1 3.5 3.555 5.967 3.555 9s2.547 5.5 5.674 5.5a5.77 5.77 0 0 0 2.822-.73c.118-.056.242-.13.242-.13.045-.032.083-.06.117-.087l.032-.02v-.004a.959.959 0 0 0 .105-.096.725.725 0 0 0 .1-.134.406.406 0 0 0 .034-.105.968.968 0 0 0 .015-.14c.002-.063 0-.127-.005-.19a1.416 1.416 0 0 0-.029-.208.551.551 0 0 0-.049-.142.221.221 0 0 0-.067-.082.133.133 0 0 0-.088-.02c-.053.003-.123.041-.208.112a4.797 4.797 0 0 1-3.02 1.06c-2.606 0-4.726-2.055-4.726-4.58 0-2.527 2.118-4.581 4.724-4.581 1.14-.003 2.244.4 3.11 1.134h.004a.32.32 0 0 0 .142.062.136.136 0 0 0 .087-.021.222.222 0 0 0 .068-.082.58.58 0 0 0 .049-.142 1.45 1.45 0 0 0 .028-.207c.006-.064.008-.128.005-.192"/>
    <path fill="#7BB931" d="M13.324 9.003c0-2.137-1.793-3.875-3.997-3.875a4.06 4.06 0 0 0-2.12.595l-.004-.007-.076.055c-.024.018-.044.026-.065.038l-.007.005-.007.006a.49.49 0 0 0-.106.14.314.314 0 0 0-.021.033.404.404 0 0 0-.033.1 1.2 1.2 0 0 0 .014.416.485.485 0 0 0 .045.126c.02.04.048.073.085.098a.215.215 0 0 0 .12.038h.019c.07-.005.145-.045.234-.123a.151.151 0 0 0 .02-.018 3.15 3.15 0 0 1 1.9-.636c1.71 0 3.104 1.35 3.104 3.01 0 1.66-1.393 3.01-3.104 3.01-.747 0-1.47-.264-2.038-.744a.21.21 0 0 0-.079-.041v.003a.262.262 0 0 0-.07-.017H7.12a.214.214 0 0 0-.121.038.266.266 0 0 0-.085.098.486.486 0 0 0-.045.126 1.2 1.2 0 0 0-.026.303.768.768 0 0 0 .013.113.388.388 0 0 0 .032.1.581.581 0 0 0 .125.157l-.003.01.052.036.024.015.082.06.003-.008a4.059 4.059 0 0 0 2.155.615c2.204 0 3.997-1.738 3.997-3.874"/>
    <path fill="#7BB931" d="M10.832 10.392a.367.367 0 0 0-.033-.092.21.21 0 0 0-.191-.12h-.017a.288.288 0 0 0-.148.062.163.163 0 0 0-.023.016 1.748 1.748 0 0 1-1.131.41c-.949 0-1.72-.747-1.72-1.666 0-.919.771-1.666 1.72-1.666.431 0 .847.159 1.167.446l.022.02.028.01a.201.201 0 0 0 .066.012.15.15 0 0 0 .018.003h.017a.207.207 0 0 0 .116-.035.234.234 0 0 0 .076-.086.368.368 0 0 0 .034-.093.712.712 0 0 0 .017-.196.526.526 0 0 0-.009-.077.315.315 0 0 0-.026-.08.402.402 0 0 0-.062-.085.617.617 0 0 0-.088-.077l-.008-.008-.01-.006-.012-.008-.008-.006a2.436 2.436 0 0 0-1.339-.396c-1.324 0-2.402 1.044-2.402 2.328 0 1.284 1.078 2.329 2.402 2.329a2.44 2.44 0 0 0 1.36-.41l.067-.045-.003-.008a.421.421 0 0 0 .103-.124.32.32 0 0 0 .025-.078.594.594 0 0 0 .006-.168.638.638 0 0 0-.014-.103"/>
  </g>
  <defs>
    <clipPath id="a">
      <path fill="#fff" d="M0 0h18v18H0z"/>
    </clipPath>
  </defs>
</svg>
