<svg xmlns="http://www.w3.org/2000/svg" viewBox="0 0 18 18">
  <g clip-path="url(#a)">
    <path fill="#009D57" d="M0 0h18v18H0V0Z"/>
    <path fill="#fff" fill-rule="evenodd" d="M13.501 9.145c0 3.34-1.906 5.348-4.715 5.348-2.624 0-4.532-2.022-4.532-5.225 0-3.034 1.934-5.38 4.664-5.38 2.716 0 4.583 2.147 4.583 5.257ZM8.813 5C7.207 5 6.345 6.356 6.345 8.915c0 1.87.56 4.468 2.69 4.468 1.71 0 2.377-1.556 2.377-4.039 0-2.62-.98-4.344-2.599-4.344Z" clip-rule="evenodd"/>
    <path fill="#fff" fill-rule="evenodd" d="M10.686 9.286a.571.571 0 0 1-.15.868.309.309 0 0 1-.264.15h-.047c-.276.017-.552-.014-.789-.177.006.196.019.39-.02.59-.043.225-.12.45-.272.615l-.015.028a.309.309 0 1 1-.557-.268v.019a.4.4 0 0 1 .105-.176.061.061 0 0 0-.011.027c.005-.01.01-.02.017-.03a.584.584 0 0 1 .038-.037c-.012.009-.024.017-.035.028.039-.072.07-.148.104-.222l-.004.02c.01-.038.024-.074.027-.11.012-.176.008-.35.006-.523l-.14.006.035-.014c-.078.03-.163.042-.245.06a.492.492 0 0 1-.132.08.445.445 0 0 1-.12.054c0 .002-.002.003-.003.004a.306.306 0 0 1-.201.086.408.408 0 0 1-.42-.035.33.33 0 0 1-.03-.025.59.59 0 0 1-.41-.555c0-.156.063-.297.166-.402a.578.578 0 0 1-.197-.43c0-.326.275-.59.613-.59a.62.62 0 0 1 .372.122c.003 0 .007 0 .01-.002a1.892 1.892 0 0 1-.034-.066.576.576 0 0 1-.202-.437.6.6 0 0 1 .612-.589c.173 0 .33.07.44.181a.625.625 0 0 1 .426-.166c.338 0 .613.264.613.59 0 .1-.027.195-.073.277a.657.657 0 0 1-.06.211.625.625 0 0 1 .37-.12c.339 0 .614.263.614.589 0 .14-.052.268-.137.37Zm-2.32.912-.03.022h.001a.624.624 0 0 0 .03-.022Zm.68-2.133-.026-.017c.009.049.015.098.02.147a2.83 2.83 0 0 0 .007-.13Zm.12 3.195c-.029.03-.06.06-.093.087a.239.239 0 0 0 .094-.087Z" clip-rule="evenodd"/>
    <path fill="#fff" d="M8.655 10.81a.055.055 0 0 0-.005.006l.01-.015-.005.009Zm6.887-6.154c-.144 1.101-1.287 1.842-1.287 1.842l-.364-.605.364-.273a3.38 3.38 0 0 1-.531-.712L13.72 4.9c-.01-.02-.022-.042-.03-.065a.655.655 0 0 1-.064-.241.97.97 0 1 1 1.915.06Z"/>
  </g>
  <defs>
    <clipPath id="a">
      <path fill="#fff" d="M0 0h18v18H0z"/>
    </clipPath>
  </defs>
</svg>
