<svg xmlns="http://www.w3.org/2000/svg" viewBox="0 0 18 18">
  <g clip-path="url(#a)">
    <path fill="#fff" d="M0 0h18v18H0V0Z"/>
    <path fill="#00539B" d="M6.784 11.224c.62 1.091 1.804 2.197 3.837 2.265 1.42-.005 2.552-.586 3.398-1.61.163-.202.303-.421.418-.654h.101c-.94 2.26-3.112 3.814-5.546 3.774-1.025-.032-1.982-.233-2.882-.744 0 0-1.79-.83-2.661-3.03h3.335ZM11.2 6.775c-.62-1.092-1.802-2.197-3.836-2.265-1.422.005-2.553.587-3.4 1.61a3.57 3.57 0 0 0-.417.655h-.1c.939-2.26 3.111-3.814 5.545-3.774 1.026.032 1.982.233 2.882.744 0 0 1.79.83 2.661 3.03H11.2Z"/>
    <path fill="#B5121B" d="m8.043 7.667.825.938.83-.938h1.125L9.537 8.99l1.35 1.347H9.745l-.877-.958-.87.958h-1.17L8.195 8.99 6.933 7.668h1.11Zm3.977 0 .87 1.07.832-1.07h1.062l-1.462 1.727v.941h-.842v-.941l-1.53-1.728 1.07.001Z"/>
    <path fill="#B5121B" d="M6.612 7.811c.204.156.263.423.263 1.187 0 .767-.06 1.034-.263 1.19-.204.156-.456.184-1.559.184-1.122 0-1.37-.028-1.574-.184-.207-.16-.263-.423-.263-1.206 0-.743.06-1.015.263-1.17.204-.157.452-.185 1.566-.185 1.115 0 1.363.028 1.567.184Zm-2.521.675c-.048.092-.064.244-.064.583 0 .332.024.44.12.516.108.084.236.096.907.096.65 0 .783-.016.89-.096.092-.072.12-.188.12-.512 0-.396-.024-.547-.096-.635-.092-.108-.18-.12-.923-.12-.798 0-.874.012-.954.168Z"/>
  </g>
  <defs>
    <clipPath id="a">
      <path fill="#fff" d="M0 0h18v18H0z"/>
    </clipPath>
  </defs>
</svg>
