<svg xmlns="http://www.w3.org/2000/svg" viewBox="0 0 18 18">
  <g clip-path="url(#a)">
    <path fill="#194276" d="M0 0h18v18H0V0Z"/>
    <path fill="#fff" d="M5.07 12.993a1.744 1.744 0 0 1-.57-1.328V6.36c0-.58.265-.934.708-1.236a1.11 1.11 0 0 1 .682-.119c.214.025.569.063 1.08.54.203.19 1.467 1.136 1.656 1.4.189.265.421.526.484.76a.947.947 0 0 1-.265 1.02L5.07 12.993Z"/>
    <path fill="#fff" d="M6.383 4.645h5.544c.947 0 1.573.745 1.573 1.69v5.33a1.669 1.669 0 0 1-1.692 1.69H7.229c.871-1.068 2.815-3.627 3.107-3.992.315-.405.972-.04.972-.04l1.351.934.808-1.08s-.34-.227-.72-.54c-.82-.687-1.93-1.722-2.667-2.192a19.69 19.69 0 0 0-3.407-1.661 1.596 1.596 0 0 0-.227-.076l-.063-.063Z"/>
  </g>
  <defs>
    <clipPath id="a">
      <path fill="#fff" d="M0 0h18v18H0z"/>
    </clipPath>
  </defs>
</svg>
