<?xml version="1.0" encoding="UTF-8"?>
<svg id="Layer_1" xmlns="http://www.w3.org/2000/svg" viewBox="0 0 18 18">
  <path d="M0,0h18v18H0V0Z" style="fill: #fafafa;"/>
  <g>
    <path d="M8.63,6.6l-4.05-2.4,1.07,2.4h2.99Z" style="fill: #d45125;"/>
    <path d="M8.63,6.6l-4.32,2.1,1.33-2.1h2.99Z" style="fill: #442978;"/>
    <path d="M8.63,7.53l-5.63,2.99,3.69.18s1.94-3.17,1.94-3.17Z" style="fill: #2c9545;"/>
    <path d="M8.63,7.53l-.32,6.27-1.62-3.1,1.94-3.17h0Z" style="fill: #442978;"/>
    <path d="M9.37,7.53l5.63,2.99-3.69.18s-1.94-3.17-1.94-3.17Z" style="fill: #2c9545;"/>
    <path d="M9.37,7.53l.32,6.27,1.62-3.1s-1.94-3.17-1.94-3.17Z" style="fill: #442978;"/>
    <path d="M9.37,6.6l4.05-2.4-1.06,2.4s-2.99,0-2.99,0Z" style="fill: #d45125;"/>
    <path d="M9.37,6.6l4.32,2.1-1.33-2.1s-2.99,0-2.99,0Z" style="fill: #442978;"/>
  </g>
</svg>