<svg xmlns="http://www.w3.org/2000/svg" viewBox="0 0 18 18">
  <g clip-path="url(#a)">
    <path fill="url(#b)" d="M0 0h18v18H0V0Z"/>
    <path fill-rule="evenodd" d="M11.105 14.113a5.514 5.514 0 0 0 2.975-7.198 5.495 5.495 0 0 0-7.184-2.984 5.518 5.518 0 0 0-2.977 7.2 5.496 5.496 0 0 0 7.186 2.982Z" clip-rule="evenodd"/>
    <path fill="#DDE05B" d="M9.001 12.857A4.572 4.572 0 0 1 4.43 8.275a4.572 4.572 0 1 1 9.143 0 4.572 4.572 0 0 1-4.572 4.582Z"/>
    <path fill-rule="evenodd" d="M9 12.979a4.757 4.757 0 0 1 0-9.513c1.26 0 2.466.5 3.358 1.393a4.762 4.762 0 0 1 0 6.725A4.748 4.748 0 0 1 9 12.98Zm0-9.162a4.402 4.402 0 0 0-4.065 2.724 4.416 4.416 0 0 0 .956 4.808 4.393 4.393 0 0 0 4.798.951 4.412 4.412 0 0 0 2.376-5.766 4.42 4.42 0 0 0-2.38-2.387 4.415 4.415 0 0 0-1.682-.337s0 .007-.003.007Z" clip-rule="evenodd"/>
    <path fill="#9ED5D6" d="M8.235 14.177a3.796 3.796 0 0 1-3.796-3.803 3.796 3.796 0 1 1 7.591 0 3.796 3.796 0 0 1-3.795 3.803Z"/>
    <path fill-rule="evenodd" d="M8.243 14.35a3.971 3.971 0 0 1-3.747-2.644A3.985 3.985 0 0 1 5.74 7.284a3.964 3.964 0 0 1 4.574-.297 3.979 3.979 0 0 1-.746 7.133 3.965 3.965 0 0 1-1.32.23h-.004Zm-.008-7.608A3.622 3.622 0 0 0 5.65 7.794a3.64 3.64 0 0 0 0 5.16 3.623 3.623 0 0 0 2.585 1.05 3.626 3.626 0 0 0 3.578-3.63 3.648 3.648 0 0 0-1.048-2.553 3.617 3.617 0 0 0-2.53-1.08Z" clip-rule="evenodd"/>
    <path fill="#FFE72D" d="M11.55 12.894a2.356 2.356 0 0 0 2.381-2.36 2.36 2.36 0 0 0-.697-1.678 2.358 2.358 0 0 0-1.684-.68 2.36 2.36 0 0 0 0 4.72Z"/>
    <path fill-rule="evenodd" d="M11.55 13.065a2.527 2.527 0 0 1-2.335-1.562 2.533 2.533 0 0 1 3.303-3.308 2.531 2.531 0 0 1-.968 4.87Zm0-4.72c-.579 0-1.134.231-1.542.642a2.186 2.186 0 0 0 3.085 3.095c.411-.41.641-.966.641-1.547 0-.58-.23-1.137-.639-1.548a2.195 2.195 0 0 0-1.545-.641Z" clip-rule="evenodd"/>
  </g>
  <defs>
    <linearGradient id="b" x1="9" x2="9" y1="0" y2="18" gradientUnits="userSpaceOnUse">
      <stop stop-color="#93D375"/>
      <stop offset="1" stop-color="#5AA343"/>
    </linearGradient>
    <clipPath id="a">
      <path fill="#fff" d="M0 0h18v18H0z"/>
    </clipPath>
  </defs>
</svg>
