<svg xmlns="http://www.w3.org/2000/svg" viewBox="0 0 18 18">
  <g clip-path="url(#a)">
    <path fill="url(#b)" d="M0 0h18v18H0V0Z"/>
    <path fill="#fff" d="M18 6.998V5H0v1.998h4.576L2.95 13h3.16c1.362 0 1.604-.405 1.891-.645.363-.335.63-1.343.463-1.886-.106-.383-.454-.606-.484-.606.408-.224.65-.687.696-.75.151-.352.287-.974-.121-1.485-.318-.431-.953-.63-1.407-.63h3.358L8.893 13h1.557l.659-2.59h.907c.635 0 .576.602.591.778L12.598 13H14v-2.132c-.015-.447-.258-.654-.5-.654.453-.144.862-.575 1.013-.862.197-.335.348-.862.151-1.373-.257-.766-.968-.98-1.437-.98H18v-.001ZM11.777 8h1.087c.53 0 .571.528.571.64a.851.851 0 0 1-.888.819h-1.15s.365-1.443.38-1.459Zm-6.55 2.41H6.27c.514 0 .547.242.603.336.082.188-.036.619-.067.714-.03.096-.167.54-.832.54H4.76l.465-1.59h.002ZM5.802 8h1.21c.449 0 .507.325.472.578-.048.352-.34.758-.76.778H5.439L5.803 8h-.001Z"/>
  </g>
  <defs>
    <linearGradient id="b" x1="9" x2="9" y1="0" y2="18" gradientUnits="userSpaceOnUse">
      <stop offset=".38" stop-color="#008542"/>
    </linearGradient>
    <clipPath id="a">
      <path fill="#fff" d="M0 0h18v18H0z"/>
    </clipPath>
  </defs>
</svg>
