<svg xmlns="http://www.w3.org/2000/svg" viewBox="0 0 18 18">
  <g clip-path="url(#a)">
    <path fill="#fff" d="M0 0h18v18H0V0Z"/>
    <path fill="#004A97" d="M14.872 5.192c.148.46.222.95.222 1.44a4.898 4.898 0 0 1-2.019 3.95c-2.108 1.558-5.196 1.558-9.442 2.894a6.981 6.981 0 0 0 5.374 2.51A6.995 6.995 0 0 0 16 8.992a6.968 6.968 0 0 0-1.128-3.801Z"/>
    <path fill="#EB0029" d="M13.194 3.41a7 7 0 0 0-4.201-1.395A6.995 6.995 0 0 0 2 9.007a6.94 6.94 0 0 0 1.366 4.157c4.706-1.38 8.433-5.062 9.828-9.754Z"/>
  </g>
  <defs>
    <clipPath id="a">
      <path fill="#fff" d="M0 0h18v18H0z"/>
    </clipPath>
  </defs>
</svg>
