<svg xmlns="http://www.w3.org/2000/svg" viewBox="0 0 18 18">
  <g clip-path="url(#a)">
    <mask id="b" width="18" height="18" x="0" y="0" maskUnits="userSpaceOnUse" style="mask-type:luminance">
      <path fill="#fff" d="M0 0h18v18H0V0Z"/>
    </mask>
    <g mask="url(#b)">
      <path fill="#fff" d="M0 0h18v18H0V0Z"/>
      <path fill="#3D96F7" d="M4.82 9.29C5.66 8.89 7.13 8.77 9 9l.53-1.94c-2.7-.35-4.67.04-5 1.27l-.01.05c-.06.29.05.6.3.9v.01Z"/>
      <path fill="#0300C1" d="M13.18 8.71c-.85.4-2.31.52-4.18.29l-.53 1.94c2.7.35 4.67-.04 5-1.27l.01-.05c.06-.29-.05-.6-.3-.9v-.01Z"/>
      <path fill="#3D96F7" d="M6.33 4 5.8 5.94c3.16.23 6.37 1.52 7.38 2.77.39-.18.64-.42.74-.72l-.44 1.63v.05l.35-1.31c.12-.42.17-.63.17-.8 0-1.5-3.93-3.33-7.67-3.56Z"/>
      <path fill="#3D96F7" d="M13.18 8.71c.25.31.36.62.3.91L13.92 8c-.1.3-.36.54-.74.72v-.01Z"/>
      <path fill="#0300C1" d="M4.82 9.29c-.39.18-.64.42-.75.72-.05.2-.07.32-.07.43 0 1.5 3.93 3.33 7.67 3.56l.53-1.94c-3.16-.23-6.37-1.52-7.38-2.77Z"/>
      <path fill="#0000C9" d="M4.82 9.289c-.25-.31-.36-.62-.3-.91l-.44 1.61v.02c.1-.3.35-.54.74-.72Z"/>
    </g>
  </g>
  <defs>
    <clipPath id="a">
      <path fill="#fff" d="M0 0h18v18H0z"/>
    </clipPath>
  </defs>
</svg>
