<svg xmlns="http://www.w3.org/2000/svg" viewBox="0 0 18 18">
  <path fill="url(#a)" d="M0 0h18v18H0z"/>
  <path fill="#fff" d="M7.847 8.143C8.445 6.67 7.327 6.27 6.6 6.27H4.19c.2.138.167.32.127.433L2.912 11.19c-.055.178-.265.365-.377.393h1.95c-.108-.02-.26-.173-.205-.38l.51-1.623c.002 0 2.347.318 3.057-1.437Zm-1.895-1.46c.255 0 .963.035.505 1.372C5.98 9.46 4.92 9.17 4.92 9.17l.78-2.487h.252Z"/>
  <path fill="#fff" d="M9.407 11.585h1.313c-.42-.135-1.04-.533-1.288-.815.2-.218.448-.493.493-1.05h-.68s.13.075.13.235c0 .147-.06.352-.175.495-.2-.295-.413-.633-.488-1.128.268-.132.643-.277.94-.537.283-.248.348-.483.353-.635v-.02c0-.16-.063-.31-.178-.423-.197-.195-.507-.275-.835-.215-.262.05-.485.19-.597.293-.395.372-.445.985-.445 1.262 0 .068.002.118.005.148l-.063.025c-.29.107-1.062.312-1.337.947a1.24 1.24 0 0 0-.085.458c0 .175.037.37.15.547.195.305.525.498 1.055.488.575-.01 1.142-.403 1.242-.475.098.092.355.335.49.4Zm0-3.55c-.067.427-.622.86-.757.917-.025-.24-.013-.62.187-.93.133-.205.31-.295.453-.245.115.04.127.145.117.258Zm-.77 2.86a1.86 1.86 0 0 1-.667.23c-.265.025-.705-.078-.703-.608 0-.452.493-.785.76-.9.108.438.35.933.61 1.278Z"/>
  <path fill="#fff" d="M13.395 6.688c.78-.188 1.423.422 1.48.465l.223-.708c-.308-.092-2.546-.85-4.128.955-.973 1.11-1.21 3.385.022 3.995 1.32.652 2.778-.1 2.885-.152l.603-1.92c.065-.233.213-.383.473-.48h-2.095c.304.127.282.357.26.452l-.603 1.92c-.08.015-1.765.435-.822-2.512.207-.633.774-1.793 1.702-2.015Z"/>
  <defs>
    <radialGradient id="a" cx="0" cy="0" r="1" gradientTransform="rotate(33.944 .277 -10.83) scale(31.3409)" gradientUnits="userSpaceOnUse">
      <stop stop-color="#00A1DF"/>
      <stop offset=".13" stop-color="#0092D7"/>
      <stop offset=".37" stop-color="#006CC1"/>
      <stop offset=".62" stop-color="#003DA6"/>
      <stop offset=".73" stop-color="#043799"/>
      <stop offset=".93" stop-color="#102777"/>
      <stop offset="1" stop-color="#152169"/>
    </radialGradient>
  </defs>
</svg>
