<svg xmlns="http://www.w3.org/2000/svg" viewBox="0 0 18 18">
  <g clip-path="url(#a)">
    <path fill="#fff" d="M0 0h18v18H0V0Z"/>
    <path fill="#E60023" d="M9.004 3.5A5.5 5.5 0 0 0 3.5 8.996a5.498 5.498 0 0 0 3.498 5.119c-.05-.433-.091-1.103.018-1.577.099-.43.643-2.733.643-2.733s-.163-.33-.163-.814c0-.764.444-1.334.997-1.334.47 0 .697.352.697.773 0 .471-.299 1.176-.457 1.832-.132.547.276.995.815.995.979 0 1.731-1.032 1.731-2.514 0-1.317-.947-2.236-2.302-2.236-1.568 0-2.486 1.172-2.486 2.384 0 .47.18.977.407 1.254a.163.163 0 0 1 .036.157c-.04.173-.136.548-.154.625-.022.1-.081.121-.186.072-.688-.322-1.118-1.32-1.118-2.13 0-1.732 1.26-3.324 3.637-3.324 1.908 0 3.394 1.356 3.394 3.174 0 1.896-1.197 3.42-2.855 3.42-.557 0-1.082-.289-1.26-.633l-.344 1.307c-.122.48-.457 1.076-.684 1.443a5.539 5.539 0 0 0 3.737-.173 5.502 5.502 0 0 0 2.985-7.185A5.49 5.49 0 0 0 9.004 3.5Z"/>
  </g>
  <defs>
    <clipPath id="a">
      <path fill="#fff" d="M0 0h18v18H0z"/>
    </clipPath>
  </defs>
</svg>
