<svg xmlns="http://www.w3.org/2000/svg" viewBox="0 0 18 18">
  <g clip-path="url(#a)">
    <path fill="#fff" d="M0 0h18v18H0V0Z"/>
    <path fill="#3172BA" d="M6.994 8.998c-.002.016.003.029-.005.036 0-.007-.002-.006-.002-.02-.007-.1-.016-.347.015-.456.042.117.008.296-.008.44ZM8.997 6.26c.326 0 .614.069.862.194l-.01-.167a2.024 2.024 0 0 0-.852-.177c-.321 0-.605.062-.854.177l-.009.167a1.89 1.89 0 0 1 .863-.194Z"/>
    <path fill="#3172BA" d="M9.009 5.988c.322 0 .608.058.86.165l.048-.18a2.344 2.344 0 0 0-.908-.17c-.338 0-.64.06-.907.17l.047.18a2.17 2.17 0 0 1 .86-.165Zm1.219 5.852c.005-.008.023-.019.045-.034.123-.086.384-.054.491-.03.148.033.202-.032.243-.092.115-.17-.075-.363-.152-.507l-.144-.205c.03-.105.116-.26.134-.292.02-.033.037-.002.03.03-.007.033-.046.167-.023.259a.233.233 0 0 0 .104.132.336.336 0 0 0 .13.205c.112.01.154.175.168.274.028.181-.095.335-.146.359-.091.04-.28-.014-.384-.028-.052-.008-.46-.062-.475-.066a.05.05 0 0 1-.021-.005Zm-2.87-.839c.015.04.02.041.01.078a1.09 1.09 0 0 1-.176.389s-.083-.116-.098-.225c.058-.14.142-.266.16-.429.032.063.077.114.105.187Zm.499.912c-.011.004-.026-.002-.033 0-.1.045-.673.087-.775.106-.013.002-.091-.038-.103-.078-.012-.038-.036-.134.013-.141a.889.889 0 0 1 .235-.003c.034.005.076.035.108.04.116.02.365-.056.502.039.025.015.043.022.053.037Zm7.002-3.202c-.007.012-.026.029-.039.042-.021.023-.095.043-.161.02-.127-.044-.192-.222-.2-.362-.005-.061-.006-.114.029-.089l.059.054c.008.007.062.03.05-.04-.033-.194.053-.4.05-.617.073.019.162-.009.194.082.041.245-.05.539-.089.693-.02.078.02.155.073.198.01.008.022.015.034.02Zm-.656-.114c.003.189.038.36.12.482.058.089.091-.033.172.027-.096.144-.01.34-.1.496-.067.117-.082.065-.117.212-.051.21-.184.44-.4.53-.168.067-.38-.07-.478-.15-.03-.025-.016-.038.033-.174.011-.031.034-.012.068.014.135.103.372.086.478-.03a.675.675 0 0 0 .151-.42c-.008-.127-.079-.258-.172-.31a.294.294 0 0 0-.331.053c-.045-.04-.034-.128-.016-.193a.271.271 0 0 1 .127-.168c.055-.028.175.058.135-.063-.05-.15-.08-.397.056-.575.043.133.111.336.123.474.005.042.035.056.045.02.02-.068.04-.165.106-.225Z"/>
    <path fill="#3172BA" d="M12.243 10.86c-.02.006-.052.021-.074.02-.324-.016-.67-.006-.811.382-.02.051 0 .122-.042.122-.037 0-.076-.062-.087-.107a.322.322 0 0 1 .012-.16c.016-.048-.028-.05-.061-.015-.022.027-.041.12-.082.107-.03-.01-.06-.053-.062-.122-.004-.07.05-.134.096-.174.027-.022.02-.053-.009-.052-.083.007-.12.095-.17.151-.033-.024-.095-.15.04-.273.226-.205.605.096.821-.092a.084.084 0 0 0 .018-.107c-.025-.046-.12-.248-.155-.283-.098-.101-.165-.15-.178-.273-.011-.12-.01-.22-.051-.333.022-.097.064-.285.23-.236.139.043.21.083.354.056.127-.022.195-.049.297-.044.016.052.004.129-.005.2a5.334 5.334 0 0 1-.067.347c-.017.067.027.165-.018.21-.137.03-.295-.134-.328-.152-.033-.017-.078-.005-.045.04a.9.9 0 0 0 .236.182c.117 0 .026.106.04.206.02.135.107.18.151.272.01.043-.03.108-.05.128Zm-7.437 1.322h1.033c.067 0 .124.038.152.059l-.519.178.322 1.03h-3.46l.374-.57c.025-.04.022-.056.003-.092-.017-.038-.288-.575-.301-.605h1.782a.4.4 0 0 1 .074.07c.01.012.026.011.037.011l.428.011c.015 0 .022-.006.027-.016.004-.011.033-.076.048-.076Zm9.13 0h1.654c-.013.03-.283.567-.301.605-.019.037-.022.053.003.092l.375.57h-3.463l.324-1.03-.52-.178a.268.268 0 0 1 .153-.059h1.056c.01 0 .035.035.052.056.017.02.074.089.115.095.041.007.15-.015.178-.055.016-.024.014-.007.025 0a.396.396 0 0 0 .104.034.269.269 0 0 0 .144-.048l.102-.082Z"/>
    <path fill="#3172BA" d="M11.388 7.865c-.066.005-.32.02-.444-.032a8.895 8.895 0 0 0-.26-.628c-.018-.035-.003-.037.016-.035l.124.022c.045.082.048.2.123.251.094.001.157-.09.248-.094.016.076-.01.189.053.235a.675.675 0 0 1 .226-.003c-.012.092-.065.192-.086.284Zm-5.018-.47c.301.39.6.6.856.774a.23.23 0 0 1 .085.17c0 .14-.1.483-.083.91.003.1.02.179-.018.246-.054.098-.16.06-.256.123a3.82 3.82 0 0 1-.188.113c-.014.008-.026-.029-.033-.071-.005-.044-.006-.234.031-.29.032-.05.222 0 .242-.122.03-.175.116-.53.064-.686-.024-.073-.05-.108-.086-.118a3.624 3.624 0 0 1-.403-.145c-.028-.015-.061-.018-.105-.025a.651.651 0 0 1-.366-.222c-.013-.013-.046.008-.037.031.05.142.187.222.374.273.08.023.127.036.163.048.036.011.25.116.25.116a.61.61 0 0 1-.003.273c-.061.367-.327.513-.485.605-.155.088-.51.06-.613.317-.081.206-.333.38-.362.52-.028.13-.05.471-.26.551-.126.048-.181-.014-.28-.074-.014-.009-.025.027-.02.041.003.015.02.051-.005.067a.3.3 0 0 1-.218.04c-.018-.004-.057.009-.036.035.046.061.109.06.22.037.06-.011.11-.089.162-.048.004.005.011.016 0 .031-.041.06-.089.11-.179.114l-.343.017c-.116.093-.127.284-.106.456.02.156.187.263.264.33.044.103.112.227.11.319-.002.022-.034.055-.055.055l-.313-.007c-.116-.104.095-.25-.05-.328-.01-.007-.118-.011-.118-.011-.05-.1-.15-.202-.111-.32.041-.116.078-.367.061-.455-.018-.087-.038-.177.01-.27.047-.094.159-.029.252-.07.094-.043.21-.173.295-.255.153-.15.05-.694.136-.9.011-.026.02-.1.043-.178.065-.212.172-.364.242-.414.063-.047.249-.183.38-.258.02.045.02.15.058.144.037-.009.037-.068.035-.1-.001-.24.03-.477.095-.708a.745.745 0 0 0 .023-.277c-.035-.2-.085-.267-.1-.483a.7.7 0 0 1 .269.028c.053.017.058-.015.058-.035v-.06c.143.102.302.114.454.144v.001Z"/>
    <path fill="#3172BA" d="M11.647 7.604c.01.055.004.154.062.21.226-.03.295-.003.433-.103.007-.005.018-.011.02 0 .017.082.068.278.233.378.018.011.033.018.037 0 .034-.133.188-.279.261-.436.023-.045.048-.019.078.038.041.075-.008.098.02.233.049.233.239.5.297.825.015.087.036.182.028.279-.016-.005-.028-.028-.036-.056-.009-.036-.048-.05-.061-.018-.012.028.009.078.027.134.072.23.39.46.328.749-.027.135-.042.222-.1.313-.044-.02-.088-.122-.12-.229a.409.409 0 0 0-.053-.13c-.028-.04-.063-.014-.049.058a.96.96 0 0 0 .128.331c.12.183.32.4.384.484.065.086.156.09.193.23.037.143.01.228.018.402.003.064.04.124.06.226.03.162 0 .232 0 .268-.006.122.035.211-.047.308-.082.095-.16-.008-.17-.063-.01-.055.026-.09.015-.137-.01-.045-.05.003-.062.018-.054.066-.059.27-.179.218-.05-.02-.044-.096-.04-.142.003-.044.043-.102.072-.15.008-.012.018-.058-.026-.042-.1.035-.104.151-.158.222-.03-.01-.041-.015-.057-.092-.022-.11.074-.238.111-.252.09-.034.24-.13.234-.263-.007-.116-.011-.288-.053-.416-.118-.133-.277.022-.427-.08-.147-.1-.294-.218-.453-.325-.055-.036-.163-.218-.205-.297a.542.542 0 0 1-.045-.393c.036-.163.075-.36.073-.557.103.017.195.184.216.22.017.026.037.057.058.04.021-.016.007-.077-.02-.11-.032-.043-.185-.27-.344-.334-.171-.069-.362-.059-.494-.232.06-.17.16-.043.364-.111.154-.05.209-.3.27-.414.02-.037-.03-.066-.05-.018-.07.155-.196.388-.331.368a1.36 1.36 0 0 1-.067-.012c0-.05.048-.08.073-.115.02-.03-.018-.066-.055-.036-.016.013-.226.253-.315.267-.12.018-.222.141-.298.156-.075.013-.16.046-.194.134a.48.48 0 0 0-.025.264c-.026.016-.056.003-.087-.016-.031-.018-.049-.061-.057-.111-.005-.036.025-.16-.02-.148-.066.018-.056.134-.089.211-.02.003-.033.006-.072-.03-.039-.036-.049-.098-.037-.183.013-.085.054-.101.06-.158.007-.057-.018-.052-.055-.03-.036.023-.053.107-.087.142-.009-.003-.03-.017-.04-.082-.034-.208.14-.208.223-.328.084-.119.364-.154.522-.295.173-.12.33-.282.524-.33.017-.012.017-.036.005-.046-.042-.026-.087-.007-.124.009-.119.051-.23.119-.33.2l-.012-.005c-.061-.203-.073-.445.056-.61.024-.023.052-.043.06 0Zm-8.07 1.423c.07-.07.063-.237.012-.348-.053-.115-.148-.22-.182-.356-.015-.057-.027-.295.022-.289.055.007.161-.053.234-.087.011.09.043.229.105.249.052.015.244-.08.269-.314a.033.033 0 0 1 .024.011.052.052 0 0 1 .012.03c.023.217-.089.37-.237.623-.085.142-.073.533-.258.48Zm2.17.903c.104.067.244.098.347.012.19-.118.312-.149.412-.1.068.035.103.084.128.186.034.133.072.066.068.213-.003.226-.272.312-.335.367-.11.095-.196.16-.233.237a.121.121 0 0 0 .008.092c.05.083.151.115.29.18.158.072.352.043.471.226.061.03.118-.01.156.092.011.034.061.174.089.265-.095.04-.206.009-.31.009-.058-.073.038-.19-.064-.219-.04-.011-.066.056-.103.06-.208-.065-.314-.258-.543-.359-.085-.038-.348-.067-.37-.211-.028-.201.223-.229.254-.395.005-.02.014-.054-.008-.085-.04-.061-.11-.027-.16-.017a.326.326 0 0 1-.358-.069c-.018-.072.013-.157.053-.229.055-.097.1-.113.209-.255Zm3.18-5.516a.11.11 0 0 1 .022-.064.068.068 0 0 1 .053-.027c.02 0 .038.01.052.027a.111.111 0 0 1 0 .13.076.076 0 0 1-.024.02.062.062 0 0 1-.057 0 .075.075 0 0 1-.024-.02.111.111 0 0 1-.021-.066h-.001Zm-.067 0c0-.043.016-.085.043-.118A.13.13 0 0 1 9 4.246c.038 0 .072.018.1.05a.196.196 0 0 1 .001.244.131.131 0 0 1-.1.05.131.131 0 0 1-.101-.051.198.198 0 0 1-.042-.125h.002Zm.14 1.3h.069c.027 0 .022-.016.025-.044.003-.027.19-1.492.192-1.518.003-.033.005-.042-.012-.053-.008-.007-.08-.04-.093-.049-.019-.011-.022-.016-.025-.046v-.133c0-.031-.015-.037-.034-.037H8.88c-.019 0-.033.006-.033.038v.132c-.004.03-.007.034-.026.046-.013.009-.084.042-.093.049-.017.011-.015.021-.011.053.002.026.188 1.491.19 1.518.003.028 0 .044.026.044H9Zm.474-1.483a.1.1 0 0 1-.044-.011.121.121 0 0 1-.039-.033.17.17 0 0 1 0-.207.109.109 0 0 1 .083-.042c.033 0 .063.015.085.043a.163.163 0 0 1 .034.103.166.166 0 0 1-.034.104.11.11 0 0 1-.085.043Zm.378-.078a.15.15 0 0 1-.115-.059.228.228 0 0 1-.05-.143c0-.053.019-.104.05-.142a.15.15 0 0 1 .116-.059.15.15 0 0 1 .116.059.218.218 0 0 1 .048.143.228.228 0 0 1-.048.142.15.15 0 0 1-.117.06Zm.463.19c-.113 0-.205-.11-.205-.249 0-.137.092-.248.206-.248.112 0 .204.11.204.248s-.092.25-.204.25Zm.282.436c-.1 0-.178-.097-.178-.217 0-.119.079-.216.178-.216.097 0 .177.097.177.216 0 .12-.08.217-.177.217Zm-.208.824a.116.116 0 0 1-.089-.044.176.176 0 0 1-.038-.111c0-.086.057-.156.127-.156.071 0 .128.07.128.156 0 .085-.057.155-.128.155Zm-.27.26a.088.088 0 0 1-.04-.01.107.107 0 0 1-.035-.027.155.155 0 0 1-.032-.092c0-.073.048-.13.107-.13.06 0 .108.057.108.13a.16.16 0 0 1-.032.092.107.107 0 0 1-.076.037ZM8.527 4.308a.109.109 0 0 0 .084-.045.166.166 0 0 0 .033-.103.166.166 0 0 0-.033-.103.109.109 0 0 0-.084-.044.109.109 0 0 0-.085.045.166.166 0 0 0-.034.102c0 .039.012.077.034.103a.11.11 0 0 0 .085.045Zm-.378-.078a.15.15 0 0 0 .115-.059.228.228 0 0 0 .048-.143.228.228 0 0 0-.048-.142.15.15 0 0 0-.115-.06.15.15 0 0 0-.116.06.228.228 0 0 0-.047.142c0 .053.016.105.047.143a.15.15 0 0 0 .116.059Zm-.463.189c.113 0 .205-.111.205-.249 0-.137-.092-.249-.205-.249-.113 0-.205.111-.205.249s.092.249.205.249Zm-.282.437c.1 0 .178-.097.178-.217s-.079-.217-.178-.217c-.097 0-.177.097-.177.217a.23.23 0 0 0 .014.083c.009.027.022.05.038.07a.18.18 0 0 0 .058.048.147.147 0 0 0 .067.016Zm.026.437c.08 0 .144-.077.144-.176 0-.097-.064-.176-.144-.176-.08 0-.144.078-.144.176 0 .097.064.176.144.176Zm.181.387a.125.125 0 0 0 .049-.011.128.128 0 0 0 .041-.035.188.188 0 0 0 .039-.11c0-.085-.058-.155-.129-.155-.07 0-.127.07-.127.155a.17.17 0 0 0 .038.11.115.115 0 0 0 .09.046Zm.27.259c.059 0 .107-.058.107-.129 0-.072-.048-.13-.107-.13a.089.089 0 0 0-.074.038.135.135 0 0 0-.024.042.156.156 0 0 0-.007.05c0 .071.046.129.105.129Z"/>
    <path fill="#3172BA" d="M10.572 5.193a.133.133 0 0 0 .102-.052.196.196 0 0 0 0-.248.132.132 0 0 0-.102-.052.133.133 0 0 0-.102.052.196.196 0 0 0-.042.124c0 .046.015.092.042.124a.133.133 0 0 0 .102.052Zm-2.534.67a.263.263 0 0 0-.017-.206.2.2 0 0 0-.064-.071.156.156 0 0 0-.086-.027c-.03 0-.058.01-.083.025a.307.307 0 0 0-.005-.184.25.25 0 0 0-.045-.08.199.199 0 0 0-.068-.051.169.169 0 0 0-.08-.016.319.319 0 0 0 .007-.309.243.243 0 0 0-.065-.075.322.322 0 0 0 .108-.25.351.351 0 0 0-.026-.136.219.219 0 0 0 .117.001c.04-.01.076-.03.107-.056a.325.325 0 0 0 .078-.106.389.389 0 0 0 .035-.135.263.263 0 0 0 .083.084.203.203 0 0 0 .212 0 .256.256 0 0 0 .084-.085c.006.04.02.078.043.11a.194.194 0 0 0 .085.07.158.158 0 0 0 .1.006.183.183 0 0 0 .09-.056l.045.358c-.075-.057-.263-.275-.525-.275-.264 0-.404.177-.404.465 0 .34.378.8.478.94l-.204.06ZM5.804 4.397c.053.2-.06.319-.102.589A1.117 1.117 0 0 1 5.497 5a5.344 5.344 0 0 1-.016-.125c.059-.014.078-.013.128-.034.033-.123.094-.303.063-.365-.01-.023-.03-.037-.063-.02-.06.034-.191.13-.3.236.018.071.052.214.041.23-.011.017-.099.046-.114.038-.017-.008-.05-.16-.075-.232-.119-.018-.325-.058-.367-.033a.053.053 0 0 0-.016.017.073.073 0 0 0 0 .074c.022.039.112.186.178.227.046-.01.088-.022.13-.034l.05.1a.482.482 0 0 1-.243.102c-.115-.136-.257-.315-.28-.422-.016-.067-.003-.109.057-.17.089-.092.3-.001.452-.032-.003-.045-.029-.13-.016-.135.01-.005.11-.056.12-.044.01.011.032.095.047.131.183-.067.264-.233.445-.212.038.004.074.05.088.1l-.002-.001Z"/>
    <path fill="#3172BA" fill-rule="evenodd" d="M9 6.352c-1.003 0-1.614.665-1.872 1.622 0 0 .022.012.189.164.133.12.092.303.057.462-.008.041-.017.081-.023.118-.038.215-.029.462-.024.612a.812.812 0 0 1 0 .136.281.281 0 0 1-.141.176c-.026.014-.053.017-.078.021-.05.007-.091.014-.086.095C7.176 11 7.814 11.927 9 11.927c1.262 0 1.904-1.053 2-2.417-.073.01-.171-.013-.208-.089l-.025-.067c-.023-.06-.045-.122-.101-.147a2.1 2.1 0 0 0-.008-.036.49.49 0 0 1-.008-.234c.016-.061.081-.116.154-.175a.774.774 0 0 0 .18-.184c-.142-1.27-.78-2.226-1.984-2.226Zm.942-.653a.27.27 0 0 0 .014.108l-.204-.061.05-.067c.138-.19.426-.585.426-.885 0-.292-.14-.47-.402-.47-.217 0-.384.15-.476.236l-.048.042.042-.363a.183.183 0 0 0 .09.057.15.15 0 0 0 .102-.007.194.194 0 0 0 .084-.069.262.262 0 0 0 .044-.113c.02.035.049.064.083.086a.2.2 0 0 0 .105.031.2.2 0 0 0 .106-.03.255.255 0 0 0 .084-.086.348.348 0 0 0 .112.244.244.244 0 0 0 .224.058.364.364 0 0 0 .002.28.296.296 0 0 0 .08.109.286.286 0 0 0-.102.227c0 .058.015.116.044.163h-.01c-.11 0-.2.109-.2.244 0 .03.004.061.012.09a.152.152 0 0 0-.083-.025c-.03 0-.06.01-.084.026a.2.2 0 0 0-.066.073.258.258 0 0 0-.029.102Zm-2.165 4.986c.266.417.67.675 1.222.675.552 0 .957-.258 1.223-.675.266-.416.394-.988.394-1.622 0-.633-.128-1.206-.394-1.622A1.386 1.386 0 0 0 9 6.766c-.552 0-.956.257-1.222.675-.267.416-.395.989-.395 1.622 0 .634.128 1.206.394 1.622Zm-2.185 1.787.384 1.278c.877-.239 2.482-.359 3.024-.358.542 0 2.146.12 3.023.358l.384-1.278c-.876-.345-2.317-.48-3.407-.48-1.091 0-2.533.135-3.408.48Zm7.218-7.434s-.059-.256-.115-.367a.447.447 0 0 0-.265.171c-.048.06-.128.05-.204.04a.413.413 0 0 0-.114-.008.765.765 0 0 1-.09.006c-.105.003-.244.007-.332.093-.052.007-.106.008-.154.01a.542.542 0 0 0-.178.024c-.023.006-.047.014-.04.066.004.04.026.06.05.078l.027.026c.043.047.013.086-.016.123-.018.024-.036.048-.034.072l.002.012c.005.052.01.12.047.142.018.01.054.006.097 0 .098-.01.232-.025.282.114l.015.026c.02.036.053.093.022.106a.785.785 0 0 1-.143.04.708.708 0 0 0-.167.048c-.046.022-.049.086-.011.119l.021.02c.031.028.075.067.082.084.022.063.088.01.112-.026.034-.05.118-.053.196-.056.052 0 .101-.002.129-.019.024-.014.13-.079.166-.103.047-.029.116-.047.13.05a.567.567 0 0 1-.022.249.821.821 0 0 1-.563.494c-.1.024-.204.033-.308.03-.169 0-.324 0-.444.142-.058.067-.071.178-.065.316.004.066.017.151.078.203.02-.01.043-.019.067-.029.068-.027.14-.056.182-.116.162-.24.267-.291.58-.331.105-.015.214-.001.321.01.2.023.393.045.542-.106.254-.255.283-.82.238-1.024-.011-.054.055-.067.073 0 .057.196.027.61-.124.894-.123.231-.238.316-.469.331a1.409 1.409 0 0 1-.184-.01c-.26-.029-.654-.07-.87.221a.367.367 0 0 0-.051.295c.045.024.093.019.143.013a.374.374 0 0 1 .109-.001c.072.013.126-.047.178-.102.04-.045.08-.085.122-.088.034-.001.039.022.03.03-.048.048-.128.139-.136.211v.003c-.009.072-.013.11.016.15.07.01.14.002.206-.022a.388.388 0 0 1 .045-.012c.092-.014.15-.102.198-.174a.404.404 0 0 1 .069-.087c.014-.011.033.002.023.041a.777.777 0 0 1-.022.067c-.023.064-.05.135-.028.217.033.126.08.207.144.22l.133-.183c.064-.088.137-.2.092-.38-.011-.044.033-.055.047-.023.067.145.158.3.295.295a.599.599 0 0 1 .013-.193.93.93 0 0 0 .022-.183.184.184 0 0 0-.02-.076l-.003-.008c-.014-.036-.009-.07.016-.066.012 0 .023.002.034.004.072.009.122.017.172-.041.003-.04-.016-.069-.035-.099a.19.19 0 0 1-.034-.074l-.013-.05c-.012-.044-.022-.075.02-.077a.379.379 0 0 1 .06.002c.062.006.135.011.198-.046a.2.2 0 0 0-.032-.126l-.017-.032c-.051-.102.008-.136.068-.17.033-.018.066-.037.082-.068a.31.31 0 0 0-.045-.056c-.017-.017-.033-.033-.057-.082-.017-.033-.015-.07.012-.096.006-.006.017-.012.03-.02.049-.027.136-.076.141-.193l-.144-.016c-.15-.017-.24-.223-.315-.396a1.003 1.003 0 0 0-.1-.198l-.213-.275Zm-.995.032a.049.049 0 0 0 .007-.004c.078-.07.161-.02.237.023.041.024.08.048.114.048.021 0 .04.025.02.037a.467.467 0 0 1-.219.062c-.036-.003-.059-.035-.08-.067-.025-.038-.05-.076-.096-.068-.007-.017.009-.025.018-.031Zm.075.398c.011-.034.035-.038.05-.025.008.006.009.031.009.06.002.03.003.065.011.087a.274.274 0 0 0 .02.041c.015.03.03.058.017.081-.011.02-.062.016-.088-.049a.233.233 0 0 1-.019-.196Zm-6.733-.191-.036-.034c-.137-.005-.217.103-.305.223a1.094 1.094 0 0 1-.184.21.399.399 0 0 1-.104.057.281.281 0 0 0-.107.068s.069.089.095.128c.01.018.008.067.007.124a.722.722 0 0 0 .02.23c.033-.005.071-.049.105-.085.039-.042.07-.076.078-.038a.715.715 0 0 1-.034.14 2.14 2.14 0 0 0-.048.204.47.47 0 0 0 .178.468.348.348 0 0 0 .096-.25c0-.033 0-.056.014-.072.024-.024.056 0 .045.223-.01.228.134.366.315.476.094-.136.022-.283 0-.321-.042-.062.032-.064.047-.035a.49.49 0 0 0 .495.278c.015-.069-.015-.128-.036-.169-.017-.03-.027-.05-.011-.06.02-.013.06.028.102.072.033.035.067.072.098.088.075.041.224.117.322.084a.226.226 0 0 0-.036-.09c-.013-.025-.026-.048-.025-.064 0-.015.016-.02.033-.014.051.02.1.098.153.179a.65.65 0 0 0 .16.194.355.355 0 0 0-.008-.209c-.03-.103-.223-.344-.39-.384-.085-.02-.17-.038-.254-.056-.444-.098-.758-.165-.978-.594-.16-.311-.04-.71.033-.808.016-.023.063-.003.057.016l-.01.034a3.355 3.355 0 0 0-.06.209.927.927 0 0 0 .066.534c.199.367.544.437.859.5.144.028.282.055.394.11.124.06.356.247.39.533.005.035.001.077 0 .12a.46.46 0 0 0 0 .123c.106.112.213.225.34.288a.433.433 0 0 0 .063-.198l-.023-.068c-.1-.295-.209-.622-.469-.78-.3-.16-.6-.361-.83-.698-.178-.09-.252-.17-.284-.303-.017-.067-.021-.222.027-.269.013-.013.04-.008.04.016a.995.995 0 0 1-.001.1.635.635 0 0 0 0 .109c.018.133.212.252.255.255l.023.002c.098.01.223.023.328.123l.082.088c.062.067.123.134.148.13.024-.003.04-.022.042-.034.003-.018-.004-.033-.012-.053a.167.167 0 0 1-.012-.124c.031-.115.076-.08.126-.04.028.021.058.046.088.043.038-.062.023-.193-.003-.23-.005-.01-.023-.027-.047-.052a1.851 1.851 0 0 1-.197-.24l-.035-.045-.399-.36c-.042-.036-.044-.085-.046-.122-.001-.033-.003-.056-.027-.056-.012 0-.191-.011-.219-.011-.031-.003-.033.012-.025.156-.01.047-.045.05-.07-.01-.07-.166-.203-.202-.33-.17-.056.013-.054.032-.042.07.034.11.166.194.22.23l.01.006c.016.01 0 .03-.013.036-.094.02-.178-.064-.244-.131Zm.593.117c-.013-.028-.009-.03.022-.035.088-.01.177 0 .261.028.014.012 0 .026-.012.042-.009.011-.019.022-.022.033l.003.038c.005.033.01.067-.023.059a.8.8 0 0 1-.229-.165Zm.281.328.013-.01.053.011c.066.015.136.028.177.093a.335.335 0 0 1 .07.055c.013.011.017.032.005.042-.045.018-.078-.015-.111-.05a.19.19 0 0 0-.07-.053.123.123 0 0 0-.054-.018c-.036-.006-.075-.013-.083-.07ZM14.403 8.1c.034.036.067.07.092.102 0 0 0-.034.005-.075.001-.014.007-.035.013-.063.028-.114.08-.33-.006-.482-.01-.015-.011-.032.004-.03a.233.233 0 0 1 .1.05c.027.02.052.04.09.045.091.013.2.03.281-.1-.009-.086-.076-.116-.139-.144a.317.317 0 0 1-.072-.039.404.404 0 0 1 .063-.03c.073-.03.15-.06.155-.205a.762.762 0 0 1-.247-.08c-.048-.022-.093-.045-.149-.056-.083-.015-.154.014-.223.041-.025.011-.05.02-.076.03l-.06-.04a.63.63 0 0 0-.322-.122c-.194-.02-.425.11-.569.438-.127.294-.073.647.037.926.088.224.236.458.364.542-.002-.09 0-.181.006-.29-.091-.137-.247-.388-.281-.602-.056-.338.055-.58.16-.67a.413.413 0 0 1 .389-.094c.12.036.228.108.306.207.037.051-.02.05-.052.049a.1.1 0 0 0-.065.024.142.142 0 0 0-.043.067c-.085.255.095.447.24.601Zm-10.066.113a.167.167 0 0 0-.011.065l.083-.001c.042-.001.184.063.068.346-.016.036-.064.111-.123.207-.118.186-.28.44-.31.583-.04.173-.027.367.046.49.111.186.312.237.586.184a.416.416 0 0 0 .016-.153v-.07c-.17.033-.382.03-.46-.144a.474.474 0 0 1 0-.326c.045-.125.147-.296.241-.457a5.17 5.17 0 0 0 .144-.251c.014-.028.042-.012.049 0a.679.679 0 0 0 .06.435.504.504 0 0 1 .105-.235c.059-.09.115-.173.088-.278-.013-.052-.03-.067-.087-.09-.024-.007-.044 0-.062.005-.023.008-.04.014-.049-.024l.125-.285c.077-.174.11-.562-.034-.838-.095-.187-.235-.345-.45-.35-.144-.005-.258.07-.36.136a.56.56 0 0 1-.193.096c-.038.005-.088.002-.141-.001-.114-.008-.245-.016-.33.053a.309.309 0 0 0-.062.066.388.388 0 0 1 .005.008c.008.01.013.018.028.03.05.044.202.045.231.033.019-.008.026.016-.001.044-.059.065-.089.127-.12.189a.833.833 0 0 1-.125.198c.05.055.125.054.203.036.125-.027.165-.155.194-.248.015-.045.026-.082.042-.096.02-.014.035-.001.034.021a.827.827 0 0 1-.01.065c-.018.122-.054.344.052.444.138-.103.133-.317.127-.39-.003-.024.022-.043.04-.03l.033.033c.047.053.119.134.182.07a.46.46 0 0 1-.118-.393.233.233 0 0 1 .187-.181c.187-.031.393.133.449.309.068.212.075.493-.037.665-.028.015-.039 0-.06-.023l-.026-.028c-.04-.04-.112-.032-.165-.01a.123.123 0 0 0-.051.032.162.162 0 0 0-.033.06Zm2.037 4.923-.094.018-.077-.562.204-.042c.033-.007.102-.021.146.063a.302.302 0 0 1 .023.17c-.02.083-.063.123-.117.128l-.111.022.026.203Zm.48-.08-.095.014-.058-.567.095-.014.022.213.182-.029-.022-.21.094-.016.058.566-.094.015-.026-.257-.182.028.025.255v.002Zm.452-.638.095-.011.045.566-.095.011-.045-.566Zm.337.536-.035-.567.095-.01.03.47.186-.016.005.097-.28.026Zm.375-.604.095-.008.028.57-.094.007-.03-.569Zm.424.54-.095.003-.02-.569.206-.01c.034-.002.105-.005.14.086.018.056.02.115.005.172-.028.078-.075.111-.13.11l-.112.005.006.203Zm.9-.409-.093.392h-.096l-.109-.394v.393h-.088l.003-.57h.139l.103.395.089-.393h.139l-.002.57h-.088l.002-.393Zm.63-.082c.043.07.063.15.058.232a.374.374 0 0 1-.079.222.185.185 0 0 1-.158.06.194.194 0 0 1-.15-.08.391.391 0 0 1-.059-.232.378.378 0 0 1 .078-.223.185.185 0 0 1 .16-.06.193.193 0 0 1 .15.08Zm.291.549-.095-.01.036-.568.257.024a.116.116 0 0 1 .1.101.226.226 0 0 1-.002.116c-.015.048-.036.063-.069.083l.008.007c.015.014.038.033.039.078l-.004.114v.012c-.003.033.005.04.014.05v.02l-.103-.01a.164.164 0 0 1-.01-.054c0-.028.004-.073.008-.114.001-.04-.02-.06-.053-.064l-.111-.01-.015.225Zm.505.055-.095-.013.05-.567.255.034a.116.116 0 0 1 .1.103c.003.027.009.068-.007.115-.015.047-.038.063-.07.082a.143.143 0 0 0 .008.007.093.093 0 0 1 .037.078c0 .022-.005.098-.007.127-.002.032.004.04.013.049v.022l-.103-.014a.162.162 0 0 1-.008-.055 2.02 2.02 0 0 1 .01-.113c.002-.04-.02-.061-.052-.066l-.111-.014-.02.224v.001Zm.487-.505.095.015-.064.566-.094-.017.063-.564Zm.568.169a.195.195 0 0 1 .01.114l-.09-.022c.01-.045-.014-.094-.078-.111-.045-.011-.082-.001-.093.044-.009.037 0 .048.02.062a.376.376 0 0 0 .1.06l.008.004c.023.01.075.039.098.082.04.08-.006.207-.07.238a.233.233 0 0 1-.148.003.207.207 0 0 1-.106-.067.23.23 0 0 1-.039-.16l.092.023a.098.098 0 0 0 .043.099c.014.01.03.016.046.018.032.006.063.003.077-.008a.077.077 0 0 0 .017-.094c-.015-.029-.055-.048-.096-.068a.468.468 0 0 1-.072-.04c-.044-.033-.078-.087-.055-.175.022-.088.085-.14.195-.111.025.005.11.029.141.109Z" clip-rule="evenodd"/>
    <path fill="#3172BA" fill-rule="evenodd" d="m6.347 12.828.104-.023c.029-.007.041-.04.045-.06a.163.163 0 0 0-.007-.08c-.016-.036-.042-.037-.066-.033l-.1.023.023.172Zm2.083-.256.107-.005c.029-.001.044-.034.05-.051a.163.163 0 0 0 0-.083c-.011-.037-.038-.042-.06-.04l-.103.005.006.174Zm1.443.195a.264.264 0 0 0 .053-.158.269.269 0 0 0-.04-.165.112.112 0 0 0-.128-.037.105.105 0 0 0-.04.026c-.032.033-.05.095-.052.158a.271.271 0 0 0 .038.165.112.112 0 0 0 .13.037.103.103 0 0 0 .04-.026Zm.396-.157.129.013a.05.05 0 0 0 .024-.006.062.062 0 0 0 .02-.018.083.083 0 0 0 .017-.057c.002-.042-.011-.066-.053-.072l-.128-.012-.01.152Zm.509.056.127.017a.052.052 0 0 0 .025-.004.062.062 0 0 0 .034-.043.096.096 0 0 0 .005-.031c.003-.042-.009-.067-.051-.074l-.128-.017-.012.152ZM9 11.306c-.538 0-.93-.25-1.189-.655s-.383-.966-.383-1.589c0-.62.124-1.182.384-1.587A1.346 1.346 0 0 1 9 6.819c.538 0 .93.251 1.189.656s.383.966.383 1.588c0 .622-.124 1.183-.383 1.59a1.345 1.345 0 0 1-1.19.653H9Zm-.669-2.093c.315-.036.508-.386.511-.788.002-.374-.196-.748-.383-.833-.122-.055-.186.037-.245.121a.387.387 0 0 1-.077.096c-.04.028-.063.033-.081.04a.097.097 0 0 0-.048.024c.055.31.059.553.064.914l.004.262c.008.404-.006.956-.143 1.311.343-.324.367-.857.377-1.088V9.26c.001-.022.006-.044.022-.044v-.002ZM8.306 7.69a.106.106 0 0 1 .05-.047c.055-.025.123.048.135.114.059.306.096.849-.005 1.24a.208.208 0 0 1-.042.075.159.159 0 0 1-.063.047c-.03.01-.071.003-.07-.042.008-.335-.011-.945-.022-1.311a.145.145 0 0 1 .017-.076Zm.584 1.96a5.525 5.525 0 0 0 .067-2.003c.13.115.283.7.43 1.28.045-.145.08-.301.116-.457.073-.317.145-.633.29-.867-.02 1.242.04 1.912.328 2.747-.326-.293-.464-.844-.566-1.344-.076.15-.108.603-.143 1.088l-.013.18a5.398 5.398 0 0 1-.11-.544 4.538 4.538 0 0 0-.148-.671 3.525 3.525 0 0 0-.039.189c-.054.29-.14.759-.405 1.015l.055-.157a2.64 2.64 0 0 0 .138-.456Z" clip-rule="evenodd"/>
  </g>
  <defs>
    <clipPath id="a">
      <path fill="#fff" d="M0 0h18v18H0z"/>
    </clipPath>
  </defs>
</svg>
