<?xml version="1.0" encoding="UTF-8"?>
<svg id="Layer_1" xmlns="http://www.w3.org/2000/svg" xmlns:xlink="http://www.w3.org/1999/xlink" viewBox="0 0 18 18">
  <defs>
    <linearGradient id="linear-gradient" x1="0" y1="9" x2="18" y2="9" gradientTransform="translate(0 18) scale(1 -1)" gradientUnits="userSpaceOnUse">
      <stop offset="0" stop-color="#012315"/>
      <stop offset="1" stop-color="#01d2c4"/>
    </linearGradient>
  </defs>
  <path d="M0,0h18v18H0V0Z" style="fill: url(#linear-gradient);"/>
  <path d="M12.88,10.31c.98-.39,1.63-1.34,1.62-2.4,0-1.42-1.14-2.58-2.56-2.58-1.1,0-2.07.7-2.42,1.75l-.55,1.28h0s-1.03,1.94-1.03,1.94c-.24.62-.84,1.02-1.5,1.03-.9,0-1.62-.73-1.62-1.63h0c0-.9.72-1.63,1.62-1.63.81,0,1.49.6,1.6,1.4.04,0,.09-.02.14-.09.08-.13.48-.85.73-1.3-.54-.84-1.47-1.35-2.47-1.35-1.63,0-2.94,1.33-2.94,2.97s1.32,2.97,2.94,2.97c1.23,0,2.32-.77,2.75-1.91l.63-1.45h0s.98-1.78.98-1.78c.16-.49.62-.81,1.13-.81.66,0,1.2.54,1.2,1.21s-.54,1.21-1.2,1.21c-.26,0-.5-.08-.71-.23-.18-.02-.25.03-.25.03-.25.18-.16.48-.08.6l.52.91h0l1.04,2.22h1.44s.1-.08,0-.24c-.04-.07-.19-.38-.38-.76-.22-.45-.48-1-.65-1.33Z" style="fill: #fff;"/>
</svg>