<svg xmlns="http://www.w3.org/2000/svg" viewBox="0 0 18 18">
  <g clip-path="url(#a)">
    <path d="M0 0h18v18H0V0Z"/>
    <g clip-path="url(#b)">
      <path fill="#fff" d="M13.42 12.739c-.605.65-1.03.762-2.121.871-.868.088-1.73.231-2.3.873-.569-.642-1.429-.775-2.302-.873-1.086-.12-1.493-.234-2.119-.871-.397-.404-.654-1.09-.654-1.744 0-.447.06-.99.28-1.55.587-1.515.457-2.156-.45-3.222L5.886 4.09S7.266 5.362 9 4.019c1.744 1.343 3.112.072 3.112.072l2.132 2.132c-.885 1.066-1.012 1.695-.448 3.221a4.51 4.51 0 0 1 .278 1.551c0 .666-.261 1.322-.653 1.744Zm1.078-6.529-2.362-2.36c-.509.423-1.61 1.162-3.137-.05-1.538 1.224-2.605.462-3.137.05L3.5 6.21c1.127 1.309 1.022 1.847.485 3.27-.242.643-.255 1.067-.255 1.515 0 .666.26 1.398.69 1.853.67.707 1.176.836 2.29.944.993.097 1.732.255 2.29.981.556-.738 1.329-.89 2.288-.98 1.134-.108 1.64-.224 2.289-.945.407-.452.69-1.187.69-1.853 0-.465-.024-.848-.254-1.514-.493-1.427-.648-1.962.485-3.27Z"/>
      <path fill="#101820" d="M13.117 12.521c-.574.573-1.09.635-1.878.751-.908.133-1.355.121-2.24.69-.884-.569-1.308-.557-2.241-.69-.797-.114-1.308-.174-1.877-.75-.8-.813-.742-1.961-.242-3.27.581-1.527.06-2.4-.414-3.005l1.697-1.696S7.255 5.605 9 4.467c1.744 1.138 3.076.084 3.076.084l1.696 1.696c-.478.606-.982 1.49-.411 3.004.49 1.305.569 2.458-.243 3.27Zm1.126-6.298-2.132-2.132S10.743 5.363 9 4.02c-1.732 1.344-3.113.072-3.113.072L3.754 6.223c.907 1.066 1.037 1.707.45 3.222a4.26 4.26 0 0 0-.28 1.55c0 .654.257 1.34.654 1.744.626.637 1.033.751 2.12.872.872.097 1.732.23 2.301.872.57-.642 1.432-.785 2.3-.872 1.09-.11 1.516-.222 2.12-.872.393-.422.654-1.078.654-1.744 0-.447-.07-.99-.278-1.55-.564-1.526-.437-2.156.448-3.222Z"/>
      <path fill="#fff" d="M11.614 12.776c-1.074.164-1.657.11-2.615.641-.958-.531-1.47-.458-2.617-.641-1.914-.306-1.705-1.974-1.59-2.496a3.94 3.94 0 0 1 .095-.356c.143-.41.512-1.288.443-2.15h7.338c-.055.825.28 1.65.43 2.082.043.126.096.357.125.504.116.597.228 2.133-1.609 2.416ZM5.446 5.7h.316c.11 0 .633-.058.616.557-.012.555-.528.502-.616.505v.514h-.316V5.7Zm1.094.006h.291v.618h.3v-.618h.307v1.562h-.306V6.6H6.83v.668h-.29V5.706Zm1.214 0h.316v1.563h-.316V5.705Zm.633-.004h.315v1.319h.34v.244h-.655V5.702Zm.814.004h.315v1.317h.341v.246h-.656V5.706Zm.81 0h.317v1.562h-.316V5.706Zm.627-.006h.316c.109 0 .632-.058.616.557-.013.555-.529.502-.616.505v.514h-.316V5.7Zm1.508.94c-.223-.134-.475-.233-.469-.559 0-.09.02-.43.467-.43.446 0 .479.282.473.502h-.31c-.002-.344-.34-.292-.337-.078.002.118.219.243.399.354.161.1.272.26.277.435.003.154-.067.443-.502.443-.445 0-.481-.33-.482-.518h.297c0 .383.36.337.363.086 0 0 .022-.117-.176-.236Zm1.625-.393-1.696-1.696S10.743 5.605 9 4.467c-1.744 1.138-3.077.084-3.077.084L4.225 6.247c.474.606.995 1.478.414 3.004-.5 1.31-.557 2.458.242 3.27.569.577 1.08.637 1.877.751.933.133 1.357.121 2.241.69.885-.569 1.332-.557 2.24-.69.788-.116 1.304-.178 1.878-.75.811-.813.733-1.966.243-3.27-.57-1.515-.067-2.4.41-3.005Z"/>
      <path fill="#E1251B" d="m12.02 9.427-.865-.064s.054-.355-.194-.355c-.381 0-.628.812-.628.812s.365-.308.937-.1c.648.234.489 1.062.162 1.596-.405.666-1.292.747-1.816.545-.835-.32-.582-1.25-.308-2.016.393-1.102 1.156-1.623 2.155-1.29.535.177.611.716.558.872Zm-3.192 0-.866-.064s.055-.355-.193-.355c-.382 0-.628.812-.628.812s.365-.308.936-.1c.648.234.489 1.062.164 1.596-.406.666-1.293.747-1.818.545-.835-.32-.583-1.25-.308-2.016.388-1.078 1.127-1.63 2.156-1.29.535.175.61.716.557.872Zm4.395.933a4.61 4.61 0 0 0-.126-.504c-.148-.431-.484-1.257-.429-2.082H5.33c.069.862-.3 1.74-.443 2.15a3.94 3.94 0 0 0-.095.356c-.115.522-.324 2.19 1.59 2.496 1.147.183 1.659.11 2.617.641.958-.53 1.541-.477 2.615-.641 1.837-.283 1.725-1.819 1.609-2.416Z"/>
      <path fill="#101820" d="M7.438 5.706v1.562h-.306V6.6H6.83v.668h-.29V5.706h.291v.618h.3v-.618h.307Zm.632 0v1.563h-.316V5.705h.316Zm4.074 1.6c-.445 0-.481-.33-.482-.517h.297c0 .383.36.337.363.086 0 0 .022-.117-.176-.236-.223-.133-.475-.233-.469-.558 0-.09.02-.43.467-.43.446 0 .479.282.473.502h-.31c-.002-.345-.34-.292-.337-.078.002.118.219.243.399.354.161.1.272.26.277.435.003.154-.067.443-.502.443Zm-2.287-.283v.246h-.656V5.706h.315v1.317h.341Zm-.814-.002v.244h-.656V5.702h.315v1.319h.34Zm-3.28-.52v-.564c.063 0 .323-.036.324.276 0 .352-.278.289-.325.289Zm0-.801h-.317v1.576h.316v-.514c.088-.004.604.05.616-.505.016-.615-.507-.557-.616-.557Z"/>
      <path fill="#fff" d="M6.087 6.214c.001.351-.278.288-.325.288v-.565c.064 0 .324-.036.325.277Z"/>
      <path fill="#101820" d="M10.954 6.502v-.565c.064 0 .323-.036.324.276.001.352-.278.289-.324.289Zm0-.802h-.316v1.576h.316v-.514c.087-.003.603.05.616-.505.016-.615-.507-.557-.616-.557Z"/>
      <path fill="#fff" d="M11.278 6.214c.001.351-.278.288-.324.288v-.565c.064 0 .323-.036.324.277Z"/>
      <path fill="#101820" d="M10.328 5.706v1.562h-.316V5.706h.316Z"/>
      <path fill="#fff" d="M10.55 10.183c.29.06.19.446.088.72-.102.277-.307.577-.559.509-.233-.062-.136-.498-.014-.775.106-.24.27-.498.485-.454Zm1.47-.756c.054-.156-.022-.695-.557-.872-.999-.334-1.762.187-2.155 1.29-.274.766-.527 1.695.308 2.016.524.201 1.411.12 1.816-.546.326-.533.486-1.362-.162-1.596-.572-.207-.937.1-.937.1s.247-.812.628-.812c.248 0 .194.356.194.356l.866.064Z"/>
      <path fill="#E1251B" d="M10.638 10.903c-.102.277-.307.577-.559.51-.233-.063-.136-.5-.014-.776.106-.24.27-.498.485-.453.29.06.19.446.088.72Z"/>
      <path fill="#fff" d="M7.357 10.183c.29.06.19.446.089.72-.103.277-.307.577-.559.509-.234-.062-.13-.498-.008-.775.107-.24.262-.498.478-.454Zm1.471-.756c.054-.156-.022-.697-.557-.872-1.03-.34-1.768.211-2.156 1.29-.275.765-.527 1.695.308 2.016.525.201 1.412.12 1.818-.546.325-.533.484-1.362-.164-1.596-.571-.207-.936.1-.936.1s.246-.812.628-.812c.248 0 .193.356.193.356l.866.064Z"/>
      <path fill="#E1251B" d="M7.446 10.903c-.103.277-.307.577-.559.51-.234-.063-.13-.5-.008-.776.107-.24.262-.498.478-.453.29.06.19.446.089.72Z"/>
      <path d="M14.073 13.591h.067c.057 0 .108-.003.108-.068 0-.054-.047-.063-.09-.063h-.085v.131Zm-.064-.183h.16c.097 0 .143.04.143.118 0 .075-.047.106-.108.112l.118.182h-.069l-.112-.177h-.068v.177h-.064v-.412Zm.137.508c.164 0 .29-.13.29-.303a.29.29 0 1 0-.58 0c0 .172.126.303.29.303Zm0-.654a.35.35 0 0 1 .354.351.351.351 0 0 1-.354.354.352.352 0 1 1 0-.705Z"/>
    </g>
  </g>
  <defs>
    <clipPath id="a">
      <path fill="#fff" d="M0 0h18v18H0z"/>
    </clipPath>
    <clipPath id="b">
      <path fill="#fff" d="M3.5 3.8h11v10.973h-11z"/>
    </clipPath>
  </defs>
</svg>
