<svg xmlns="http://www.w3.org/2000/svg" viewBox="0 0 18 18">
  <g clip-path="url(#a)">
    <path fill="#003087" d="M0 0h18v18H0V0Z"/>
    <path fill="#B5C0D9" d="M12.493 6.455c.027-1.391-1.121-2.46-2.7-2.46H6.53a.32.32 0 0 0-.316.27L4.905 12.44a.26.26 0 0 0 .256.3h1.935l-.303 1.893a.26.26 0 0 0 .256.3h1.576a.305.305 0 0 0 .202-.077c.057-.05.067-.118.079-.193l.462-2.722a.395.395 0 0 1 .108-.222.263.263 0 0 1 .184-.076h.965a3.112 3.112 0 0 0 3.097-2.627c.17-1.085-.295-2.072-1.229-2.561Z"/>
    <path fill="#0070E0" d="m7.514 9.725-.482 3.055-.302 1.916a.26.26 0 0 0 .256.3h1.668a.32.32 0 0 0 .315-.27l.44-2.785a.32.32 0 0 1 .315-.27h.982a3.137 3.137 0 0 0 3.097-2.655c.17-1.085-.377-2.072-1.31-2.561-.002.115-.013.23-.03.345a3.137 3.137 0 0 1-3.098 2.656H7.83a.32.32 0 0 0-.315.269Z"/>
    <path fill="#fff" d="M7.032 12.78h-1.94a.258.258 0 0 1-.256-.3l1.308-8.295a.32.32 0 0 1 .315-.27h3.335c1.578 0 2.726 1.149 2.699 2.54a2.914 2.914 0 0 0-1.36-.324h-2.78a.32.32 0 0 0-.315.27l-.524 3.324-.482 3.055Z"/>
  </g>
  <defs>
    <clipPath id="a">
      <path fill="#fff" d="M0 0h18v18H0z"/>
    </clipPath>
  </defs>
</svg>
