<svg xmlns="http://www.w3.org/2000/svg" viewBox="0 0 18 18">
  <g clip-path="url(#a)">
    <path fill="#3952D4" d="M0 0h18v18H0V0Z"/>
    <path fill="#fff" d="M9 4C6.232 4 4 6.152 4 9.024c0 2.88 2.232 5.024 5 5.024.472 0 .928-.064 1.36-.184l.544 1.4c.056.152.168.248.368.248h.864c.208 0 .36-.136.264-.4l-.704-1.832C13.08 12.408 14 10.864 14 9.016 14 6.152 11.768 4 9 4Zm2.176 7.944-.632-1.64c-.056-.136-.168-.264-.408-.264h-.824c-.208 0-.368.136-.272.4l.832 2.152a3.427 3.427 0 0 1-.872.104c-2.024 0-3.464-1.592-3.464-3.672S6.976 5.352 9 5.352s3.464 1.592 3.464 3.672c0 1.216-.488 2.256-1.288 2.92Z"/>
  </g>
  <defs>
    <clipPath id="a">
      <path fill="#fff" d="M0 0h18v18H0z"/>
    </clipPath>
  </defs>
</svg>
