<svg xmlns="http://www.w3.org/2000/svg" viewBox="0 0 18 18">
  <g clip-path="url(#a)">
    <path fill="#000AD2" d="M0 0h18v18H0V0Z"/>
    <path fill="#fff" d="m11.355 11.738-.45.43-.45-.43-.219-.659-.668-.229v-.43h-.436L8.9 11.51l.232.658-1.031.444-.305-.444.217-.43v-.444h-.668l-.886.874-.668-.215v-.874l-1.104-.171-.858.415-.479-.244v-.888l.436-.214 1.787-.874.218.215.668-.659v-.444l.886-.874.45-.873.669-1.103 1.104-.215h.45v.43l.886.888v.873l1.337 1.318 1.337.874.668.229.218.659.886.43-.45.443h-.436v-.444l-.668-.214-1.12-1.103-.885-.43-.886-1.318-.45-.444.232-.658-.669-.66-.45.445v.873l-.436.444.886.874-.45.444.886.874v.444l.45.873h.45l.437-.444-.218-.214-.218-.66h.436l.45.874.436.444-1.322.444Z"/>
  </g>
  <defs>
    <clipPath id="a">
      <path fill="#fff" d="M0 0h18v18H0z"/>
    </clipPath>
  </defs>
</svg>
