<svg xmlns="http://www.w3.org/2000/svg" viewBox="0 0 18 18">
  <g clip-path="url(#a)">
    <path fill="#FCF150" d="M0 0h18v18H0V0Z"/>
    <g clip-path="url(#b)">
      <path d="M8.835 3.426c.042.021.058.037.1.048.038.01.092.037.102.005.016-.032-.005-.075-.032-.112-.042-.07-.064-.085-.122-.181-.011-.022-.022-.043-.043-.043 0 0-.005.07-.027.112-.016.037-.058.064-.053.09.005.027.032.06.075.08Z"/>
      <path d="M13.292 7.996c-.048.064-.069.192-.138.298-.096.15-.235.331-.304.331-.037 0-.048-.085-.048-.085s-.048-.144.032-.326c.059-.128.09-.165.165-.26.07-.091.112-.14.16-.235.043-.086.053-.102.08-.235.005-.032-.005-.101-.037-.096-.043 0-.16.256-.283.4-.117.133-.336.304-.336.304s-.021.016-.021-.027a.847.847 0 0 1 .01-.25c.022-.102.054-.203.145-.358.1-.176.229-.298.293-.362.027-.027.106-.075.064-.102-.037-.021-.15.075-.235.139-.107.08-.144.101-.25.23a1.165 1.165 0 0 0-.134.18s-.101.166-.128.326c-.026.16-.026.25-.026.25s0 .144.016.23c.01.09.048.23.048.23s.053.154.074.25c.022.096.059.378.059.378s.027.203.01.395a1.683 1.683 0 0 1-.053.362 1.033 1.033 0 0 1-.288.438s-.096.08-.176.122c-.08.043-.197.096-.25.112a1.076 1.076 0 0 1-.134.016h-.069l-.021-.016-.01-.042s-.054-.208-.118-.342c-.054-.112-.165-.266-.165-.266s-.193-.261-.342-.405c-.17-.171-.362-.3-.48-.39a2.523 2.523 0 0 0-.138-.09s-.39-.39-.528-.699c-.096-.213-.16-.368-.134-.602.006-.054.027-.155.038-.155l.07.021a.418.418 0 0 0 .127.086.877.877 0 0 0 .165.032c.027.01.075.026.107.042.032.016.08.048.08.048l.09.07.097.074s.053.037.069.043c.016.005.027.01.032.01h.021s.022-.005.027-.026c.005-.027-.027-.005-.075-.059-.053-.048-.074-.09-.074-.09s-.011-.043-.054-.091a.906.906 0 0 0-.096-.09s-.037-.027-.09-.043c-.054-.016-.07-.016-.075-.038-.005-.021.064-.01.064-.01s.08.01.144.042c.064.032.101.07.101.07l.043.037.027.027.026.016s.027.026.032-.011c.006-.032-.005-.059-.01-.064l-.027-.027-.107-.09c-.032-.032-.053-.054-.085-.075a.648.648 0 0 0-.139-.075c-.053-.021-.085-.016-.138-.042-.038-.016-.07-.027-.091-.06-.005-.004-.032-.026.016-.015.048.01.08.027.133.037.086.022.139.022.219.048.032.01.075.032.075.032l.1.043s.14.075.236.08a.463.463 0 0 0 .207-.032.404.404 0 0 0 .107-.064c.016-.016.027-.032.027-.032l.01-.027V7.42c-.026-.032-.08.053-.165.07-.09.015-.085.026-.144.015a.237.237 0 0 1-.15-.074c-.084-.08-.116-.155-.228-.203-.048-.021-.134-.043-.134-.043s-.117-.037-.181-.074c-.048-.027-.15-.043-.117-.086.016-.021.144.054.24.064.069.011.117.006.17.006.054 0 .128-.016.139-.016.01-.006.053 0 .09.01.038.011.06.027.097.043.037.016.08.043.09.043l.022.005.01-.01.005-.011-.005-.011-.016-.01-.032-.022s-.048-.027-.09-.07c-.043-.042-.08-.09-.144-.111-.064-.022-.139-.032-.139-.032l-.075-.006-.032-.005s-.053-.016-.01-.027c.042-.01.064-.016.074-.016a.245.245 0 0 1 .123.006c.043.016.112.053.117.053.006.005.07.053.139.07.07.015.16.02.16.02l.042-.01.022-.005.016-.011-.006-.027s0-.021-.032-.026c-.032-.006-.096-.016-.154-.059-.059-.043-.101-.085-.101-.085s-.043-.038-.128-.059c-.08-.021-.107-.021-.107-.021l-.027-.01-.058-.028s-.027-.016-.048-.042c-.022-.027-.054-.075.037-.048.09.026.112.042.112.042s.048.048.09.054c.027.005.049.01.065-.01.026-.028-.048-.06-.102-.097a.36.36 0 0 1-.085-.096s-.032-.027.016-.016c.048.01.133.064.133.064s.043.021.064.027c.016.005.059.032.08.042.016.006.064.016.096.032.043.027.064.07.085.086.022.016.038.042.064.048.027.005.032.016.048.005.016-.01.022-.016.022-.016s.005-.01-.022-.027a.295.295 0 0 1-.058-.058l-.01-.022-.006-.02-.027-.044-.048-.069s-.074-.101-.144-.139a1.283 1.283 0 0 0-.112-.058s-.032-.016-.048-.027c-.026-.021-.037-.037-.058-.064-.027-.032-.038-.053-.07-.085-.058-.059-.24-.09-.17-.133.037-.022.085-.011.106-.006.022.006.07.027.118.043.032.01.053.01.085.021.032.01.07.016.085.027.016.01.032.032.043.037.005.006.048.075.122.112.075.037.112.064.187.07.059.005.155-.017.155-.017s.026-.01.005-.037c-.027-.026-.027-.032-.048-.037-.085-.032-.155-.021-.219-.085-.026-.027-.037-.032-.058-.075-.022-.043-.01-.053-.027-.08a.394.394 0 0 0-.037-.064s-.08-.096-.165-.144a.954.954 0 0 1-.166-.107.348.348 0 0 1-.048-.053l-.026-.043-.016-.032c-.011-.058.096.016.154.038.096.032.144.074.24.106.054.016.085.016.139.038.09.037.117.128.213.138.053.006.16.027.139-.021-.021-.053-.128-.053-.181-.117-.027-.027-.027-.054-.054-.08a.505.505 0 0 0-.144-.102s-.032-.026-.07-.101c-.031-.075-.111-.128-.255-.197-.096-.048-.288-.059-.213-.107.042-.032.08-.027.138-.01.059.02.08.047.128.069.048.021.07.026.08.032a.23.23 0 0 0 .064.021c.01.005.09.016.112.021l.107.027.085.032s.043.016.07.016c.026 0 .069-.01.069-.01l.032-.022.005-.01s.016-.027-.027-.033c-.037-.005-.058-.005-.064-.005l-.037-.01-.016-.006s-.075-.059-.139-.085a1.476 1.476 0 0 1-.08-.032l-.026-.006-.032-.005s-.027 0-.07-.037c-.042-.038-.058-.059-.095-.096l-.048-.048s-.043-.032-.043-.059c.005-.043.096.048.096.048l.064.043s.053.037.15.042c.095.006.212-.026.212-.026s.016-.01.07.005a.346.346 0 0 1 .096.048l.043.037.063.07.011-.006c.005-.005.032-.032-.016-.09a.674.674 0 0 0-.128-.112s-.107-.064-.213-.086c-.107-.02-.155-.02-.155-.02s-.08 0-.128-.054a.772.772 0 0 1-.08-.107l-.016-.075s-.026-.032-.08-.053a1.107 1.107 0 0 1-.101-.053s-.08-.027-.085-.064c-.016-.07.133 0 .213.016.075.016.107.042.181.058a.455.455 0 0 0 .17.016c.038 0 .06-.005.097-.01.037 0 .064-.006.101 0 .053.01.075.037.128.058.032.016.048.032.085.038.032.005.096.026.086-.006l-.016-.02c-.027-.038-.059-.038-.09-.065-.07-.053-.102-.096-.182-.133a.458.458 0 0 0-.144-.048c-.043-.005-.075.005-.118-.005-.047-.016-.063-.038-.111-.064-.075-.043-.118-.08-.198-.112a1.17 1.17 0 0 0-.144-.043l-.037-.005-.016-.006c-.075-.026.133-.085.23-.112.047-.01.069-.021.117-.016.042.006.09.064.138.038.07-.038-.08-.14-.128-.155-.064-.027-.176-.005-.176-.005l-.245-.006-.07-.01s-.042 0-.074-.038c-.032-.037-.155-.186-.293-.208-.144-.021-.187 0-.198-.01-.122-.192-.25-.235-.346-.326-.027-.026-.07-.085-.08-.08-.01.006-.027.086-.053.155-.032.08-.011.117.005.15.021.031.048.053-.005.085-.054.032-.123.021-.123.021s-.059-.01-.107-.037c-.048-.022-.15-.064-.15-.064s-.095-.027-.159-.022c-.064.006-.07.011-.117.016-.027 0-.038 0-.064.006-.022.005-.048-.011-.048.016 0 .026.053.026.09.042.038.016.123.016.107.038-.021.021-.101.026-.107.021-.005 0-.058-.01-.101-.01-.07.005-.075.005-.176.053-.016.005-.01.042.021.032a.556.556 0 0 1 .15-.022c.064 0 .101.022.165.038.053.016.059.026.139.037.016 0 .048-.01.048.01 0 .011-.022.027-.022.027s-.048.011-.042.027c.01.021.053 0 .074 0 .022 0 .054.005.048.027l-.01.016a.972.972 0 0 0-.144.048c-.134.053-.187.117-.315.18-.123.06-.32.134-.32.134s-.059.032-.144.054c-.085.02-.09.016-.15.026a.281.281 0 0 0-.133.043.26.26 0 0 0-.074.059l-.075.111-.042.064c-.011.022-.022.032-.027.054-.01.026-.016.037-.021.064-.016.064 0 .101.01.165.006.016.006.027.01.043a.088.088 0 0 0 .028.032l.02.005s.075-.005.123-.016l.118-.027.09-.026.06-.022s.036 0 .042.022c.005.016-.01.042-.01.042s-.033.016-.06.027c-.026.01-.09.027-.096.032l-.069.021-.059.006s-.01.005-.02.021c-.011.016-.011.016-.011.027.01.01.015.021.026.032.021.016.032.026.059.032.037.016.058.01.096.01a.29.29 0 0 0 .133-.032c.043-.026.059-.026.117-.048a.275.275 0 0 1 .06-.01c.1-.01.159.005.26.021.102.016.15.048.251.064.107.016.17.048.283.021.053-.01.085-.037.112.016.026.048.02.075.02.075s0 .032-.036.133c-.038.102-.155.352-.155.352l-.08.16s-.064.128-.213.294l-.16.175s-.08.06-.16.16c-.08.102-.08.14-.155.214a.675.675 0 0 1-.133.112c-.059.037-.128.026-.315.154-.16.112-.245.203-.256.198-.01-.006-.064-.048-.085-.059l-.325-.219-.128-.085-.059-.037-.01-.022-.033-.042s-.048-.059-.106-.107a.455.455 0 0 0-.219-.117c-.09-.027-.15-.043-.24-.01a.319.319 0 0 0-.133.084c-.054.054-.064.096-.107.16l-.106.155a1.667 1.667 0 0 0-.064.117s-.107.171-.166.283c-.07.123-.096.197-.16.315-.101.186-.245.378-.282.464l-.043.095-.016.08c-.005.032-.005.086-.01.107a.15.15 0 0 1-.027.059 1.17 1.17 0 0 0-.086.208c-.021.08-.069.33-.01.362.058.032.49-.154.549-.336.037-.117-.117-.176-.075-.282.016-.038.027-.043.054-.08.042-.07.026-.213.106-.347.059-.096.176-.218.336-.4.101-.112.197-.293.197-.293s.022-.064.064-.053c.048.01.091.005.091.005l.021.016.043.043.064.096s.107.154.144.197a.928.928 0 0 0 .128.117c.059.054.08.08.155.139.106.085.069.117-.07.043a.914.914 0 0 0-.181-.07c-.064-.016-.304-.08-.427-.096-.117-.016-.138-.01-.138-.01s-.059-.006-.128.037c-.07.043-.107.075-.107.075s-.08.09-.085.106c-.005.016-.043.08-.043.08s-.021.032-.026.07c-.011.037-.006.074-.006.074l.006.08.005.075s.016.186.053.373c.01.053.022.139.022.139l.026.192s.016.202.032.272c.016.064.027.069.038.112.02.08-.016.117.02.213.038.096.07.085.107.144.027.043.038.053.06.107.02.053.09.229.17.357.085.133.197.298.272.282.074-.016.128-.133.128-.133s.085-.23.032-.453c-.054-.23-.299-.123-.33-.288-.006-.037 0-.096 0-.096s-.006-.07-.017-.09c-.01-.022-.096-.182-.128-.315-.027-.102-.021-.427-.043-.518-.058-.234-.064-.213-.032-.256.038-.042.07-.032.07-.032l.048.006.037.016.07.042.095.075.182.117s.101.06.144.08c.042.022.08.048.08.048l.048.032.08.059.016.016.01.021s.038.086.198.176c.128.075.24.054.288.112.01.011.1.134.144.208.053.086.117.187.138.219.021.032.155.197.155.197l.176.192.229.213.208.176.133.107s.118.112.25.203c.129.085.134.096.22.154.064.043.149.102.234.166.086.069.181.197.144.24-.027.016-.074-.054-.165-.134a2.28 2.28 0 0 0-.187-.149 2.102 2.102 0 0 0-.25-.176c-.054-.032-.15-.09-.155-.08-.037.112-.032.219-.027.357.006.096.022.192.054.315.026.117.053.181.096.293.042.112.122.288.122.288l.123.245.112.187.059.096.02.032s.028.064 0 .107c-.026.042-.058.133-.106.138-.048.011-.16.016-.16.016l-.634-.01-.33-.027s-.038-.021-.23-.021c-.112 0-.203.048-.267.053-.053.005-.314-.016-.49.053-.166.07-.24.086-.299.192-.043.08.208.208.416.256.336.075.24-.07.368-.16.016-.01.021-.021.037-.026.085-.027.133.042.219.042.096 0 .15-.032.245-.048.485-.064 1.243.166 1.243.166s.186.058.271.042c.102-.021.08-.058.112-.117.027-.048.016-.059.022-.112 0-.032-.006-.048-.01-.08-.022-.09-.08-.219-.08-.219s-.044-.096-.06-.144c-.02-.069-.042-.112-.053-.186-.032-.198-.027-.182-.027-.294 0-.202.022-.314.075-.511.08-.288.23-.411.341-.688.032-.075.032-.182.07-.192.042-.006.037.133.016.213-.07.277-.24.395-.32.677-.059.219-.09.347-.075.57.005.123.053.315.053.315s.064.214.096.294c.032.08.096.213.096.213l.144.256.075.123s.053.048.027.128c-.027.08-.08.127-.144.197-.182.213-.603.528-.71.602-.149.112-.143.144-.154.176-.059.171-.23.176-.416.379-.043.043-.155.16-.133.261.01.037.469.117.736.005.207-.09.026-.191.085-.293.043-.074.15-.074.197-.138.08-.107.027-.102.096-.187.23-.277.379-.437.79-.688.037-.021.106-.053.106-.053s.059-.027.08-.059c.027-.043.021-.08.021-.128 0-.032-.005-.048-.005-.08 0-.037.005-.058-.005-.096-.011-.058-.048-.106-.07-.138a.381.381 0 0 1-.08-.176.446.446 0 0 1 .016-.299.64.64 0 0 1 .139-.203l.24-.16s.208-.149.272-.208c.07-.058.202-.18.298-.32.112-.154.171-.25.22-.437.015-.07.031-.176.031-.176s0-.074.043-.08c.042-.005.053.01.053.01s.037.022.048.129c.005.107-.027.23-.027.23s-.032.122-.042.197c-.006.048-.006.074-.006.128 0 .09.038.165.038.165s.021.016.021-.022c0-.042.01-.106.027-.17.016-.053.026-.043.058-.133.043-.118.006-.107.027-.177.01-.031.037-.063.07-.063.031 0 .037.042.037.042s.032.139.005.267-.123.304-.123.304l-.074.128s-.054.09-.075.149a.245.245 0 0 0-.016.15c.016.063.064.149.09.133.022-.016-.031-.07.033-.198s.149-.208.149-.208.117-.138.17-.245c.049-.096.097-.25.097-.25s.037-.14.026-.256c-.005-.112-.026-.171-.026-.171l-.048-.085-.027-.064.01-.038c.011-.005.049.022.08.064a.423.423 0 0 1 .08.17.505.505 0 0 1 .022.15c0 .043-.016.219.048.33.027.054.09.177.096.123.01-.122-.043-.18-.037-.293.005-.128.037-.096.048-.16.01-.07.026-.085.016-.176a1.27 1.27 0 0 0-.048-.197l-.038-.085-.016-.032s.01-.016.027-.016l.128-.043s.165-.075.23-.128c.069-.048.149-.133.149-.133s.106-.134.16-.23c.127-.24.127-.543.122-.682-.005-.133-.043-.31-.043-.31s-.042-.213-.031-.351c.01-.139.02-.203.02-.203s-.005-.139.113-.288c.117-.15.17-.245.192-.357.021-.096-.01-.25-.054-.192Zm-3.53-.96c-.016 0-.037-.021-.037-.021s-.005-.006.01-.016c.017-.011.038-.006.038-.006L9.79 7l.027.037c-.006.016-.038.005-.054 0Zm.064-.176a.296.296 0 0 1-.042-.021s-.006-.01.01-.022c.016-.01.043-.005.043-.005l.016.01c.005.006.032.033.032.043 0 .016-.037 0-.059-.005Zm.059-.181a.231.231 0 0 1-.053-.027s-.006-.01.016-.021c.021-.01.053-.006.053-.006l.021.011c.011.01.038.037.038.053-.006.016-.054-.005-.075-.01Zm.048-.166c-.021-.005-.053-.026-.053-.026s-.006-.01.016-.022c.021-.01.053-.005.053-.005l.021.01c.011.011.038.038.038.054-.006.01-.054-.01-.075-.01Zm.048-.197c-.027-.005-.059-.032-.059-.032s-.005-.01.016-.027c.022-.015.059-.005.059-.005l.021.01c.011.011.043.043.043.06 0 .02-.059-.006-.08-.006Zm.032-.213a.227.227 0 0 1-.075-.037s-.01-.016.022-.032c.026-.016.069-.011.069-.011l.027.016c.01.01.048.053.053.075 0 .02-.064-.006-.096-.011Zm.021-.213c-.037-.006-.09-.048-.09-.048s-.011-.016.021-.038c.032-.021.085-.01.085-.01s.016.005.032.016a.278.278 0 0 1 .064.09c.006.027-.074-.005-.112-.01Zm.032-.246a.272.272 0 0 1-.101-.053s-.01-.021.027-.043c.037-.026.096-.01.096-.01s.021.005.037.021a.36.36 0 0 1 .075.101c0 .032-.091-.01-.134-.016Zm-.021-.992a.225.225 0 0 1-.075-.037s-.01-.01.022-.027c.032-.016.074-.005.074-.005s.016.005.027.016c.01.01.053.048.053.07 0 .015-.069-.011-.101-.017Zm.117.24c.006.022-.069-.005-.106-.01a.263.263 0 0 1-.08-.043s-.011-.016.021-.032c.032-.021.075-.01.075-.01s.016.005.032.015a.28.28 0 0 1 .058.08Zm-.154.395c.032-.021.085-.01.085-.01s.016.005.032.015a.278.278 0 0 1 .064.091c.005.027-.075-.005-.112-.016a.252.252 0 0 1-.09-.048s-.011-.01.02-.032Zm.069-.181c-.037-.006-.09-.048-.09-.048s-.011-.016.02-.038c.033-.02.086-.01.086-.01s.016.005.032.016a.278.278 0 0 1 .064.09c.005.032-.075 0-.112-.01Zm.07-.8c.042.01.053.037.031.037-.021.006-.032.006-.048.006-.048 0-.042-.022-.106.01s-.016.016-.107.048c-.085.032-.064-.053-.064-.053l.016-.059c.01-.042.064 0 .101 0 .07 0 .128 0 .176.01Zm-.24-.33.026.015a.27.27 0 0 1 .053.075c.006.021-.064-.005-.09-.01a.227.227 0 0 1-.075-.038s-.01-.016.021-.032c.027-.021.064-.01.064-.01Zm-.193-.257c.027-.016.07-.01.07-.01l.026.016c.011.01.048.053.054.074.005.022-.064-.005-.09-.01a.238.238 0 0 1-.076-.038s-.01-.016.016-.032Zm-.053 3.456c.016-.011.037-.006.037-.006l.016.006.027.037c0 .01-.032-.005-.048-.005s-.037-.022-.037-.022-.01-.005.005-.01ZM7.523 4.636c-.016.011-.027.016-.048.032-.027.022-.053.075-.07.06-.02-.017-.01-.076-.01-.076s.016-.042.037-.085c.027-.043.059-.043.059-.043.032 0 .09.022.09.07.006.048-.032.026-.058.042Zm.437.166s-.021.005-.027-.032c-.005-.038.027-.043.027-.043s.064-.032.064.01c.005.038-.064.065-.064.065Zm.57-.725s-.069.112-.165.154a.886.886 0 0 1-.34.08c-.028 0-.017-.016-.017-.016s.208-.058.325-.122c.064-.038.139-.086.16-.107.075-.064.038.01.038.01ZM4.948 8.694c0 .027-.032.075-.042.075-.011 0-.032-.048-.027-.075.005-.026.01-.1.053-.09.032.005.016.064.016.09Zm.139-.602s-.048.101-.064.058c-.016-.037.016-.106.016-.106.043-.037.059-.09.08-.07.016.022-.032.118-.032.118Zm.661-1.04c-.048.053-.197.336-.23.288-.031-.037.145-.304.182-.357.037-.059.07-.048.07-.048l.01.01c-.005 0 .016.054-.032.107Zm.4-.421s-.107.021-.09-.016c.02-.038.095-.054.095-.054.06.011.07.016.064.043.006.027-.069.027-.069.027Zm.432.746c-.048.048-.064-.016-.133-.096-.07-.074-.054-.138-.054-.138h.011l.01.005.027.01.016.017.054.053c.021.032.08.139.069.15Zm-.827 1.595c-.016 0-.032-.032-.032-.032s-.042-.064-.058-.112c-.016-.043-.021-.112-.021-.112s-.011-.09-.011-.123c.005-.043.005-.08.01-.101.006-.022.027-.016.027-.016.032 0 .032.026.032.026v.016s0 .096.005.171c0 .021.06.261.06.261s.01.022-.012.022Zm-.01-1.12c-.038.059-.064.059-.064.059 0-.006-.01-.027.021-.091.032-.064.064-.059.064-.059l.01.01s.006.022-.031.08Zm.378 2.234c.011-.021.08.032.08.032.027.005.054.053.054.053s.01.038-.022.048c-.032.016-.053-.016-.053-.016s-.07-.096-.059-.117Zm.502-1.632c-.075-.016-.235-.138-.299-.17s-.17-.043-.123-.086c.006-.005.011-.016.022-.016.01 0 .058.016.058.016l.118.048a.83.83 0 0 1 .112.054l.117.074.032.027c0 .01.037.07-.037.053Zm.65-1.06-.144.197c-.07.1-.154.256-.17.24-.016-.016.074-.187.122-.278a.365.365 0 0 1 .166-.181c.069-.032.026.021.026.021Zm-.288 5.337s0 .021-.037.048-.053.01-.059.01c-.005 0-.042-.02-.042-.042.005-.021.064-.037.064-.037.1-.006.074.021.074.021Zm.827-.032c-.038-.005-.043-.016-.038-.021 0-.006.011-.016.054-.016.042 0 .042.021.042.021 0 .016-.016.021-.058.016Zm.949.053c-.08.022-.112.011-.181.016-.059.006-.086.01-.144.01-.102 0-.112.006-.256-.036-.027-.011-.059-.043-.048-.054.01-.016.032-.01.032-.01s.181.032.298.037c.086.005.128.01.214.005.048 0 .02-.005.096-.005.026-.005.01.032-.011.037Zm.506-.149a.215.215 0 0 1-.063.021c-.032.006-.016-.021-.016-.021s.02-.032.048-.048c.031-.016.047 0 .047 0 .011.021-.01.043-.016.048Zm.395-1.024a.412.412 0 0 0-.053.181c-.01.08.037.304-.038.22a.573.573 0 0 1-.032-.3c.038-.191.192-.245.123-.1Zm-1.077 3.258c-.032.022.032.085-.07.08-.058-.005-.026-.058-.02-.064l.037-.053c.026-.037.042-.043.069-.059.027-.016.048.027.048.027s.01.016.01.037c0 .016-.047.01-.074.032Zm.56-.538-.048.037c-.005 0-.037.027-.048.01-.01-.015.005-.037.005-.042 0-.005.032-.043.059-.053.027-.016.043 0 .043 0 .016.037-.011.048-.011.048Zm.25-9.343s-.02.07-.064.086c-.053.016-.255.021-.26.005-.006-.016.234-.037.324-.128.022-.021 0 .037 0 .037ZM9.32 4.78c.016-.026.005.043.005.043s-.016.07-.053.09c-.048.027-.165.06-.176.043 0-.01.155-.058.224-.176Zm-.33-.8s.02 0 .053.017c.032.02.053.085.053.085s.005.01-.021.01c-.016 0-.016-.026-.032-.037-.022-.016-.038-.021-.064-.032-.027-.01-.064.006-.07-.021 0-.032.08-.021.08-.021Zm-.246.177s.01-.032.059-.06c.042-.026.1-.026.1-.026s.033 0 .07.027c.038.027.07.117.07.117s.01.059-.016.08c-.027.022-.07-.016-.091-.048a.135.135 0 0 0-.08-.053c-.043-.016-.107.032-.117 0 0-.01.005-.037.005-.037Zm-.016.735c-.032.006-.01-.026-.01-.026s.09-.038.149-.07c.096-.048.277-.24.229-.149a.414.414 0 0 1-.085.096s-.075.107-.091.123c-.07.053-.155.021-.192.026Zm-.752 2.07.005-.011s.16-.107.411-.075c.15.021.293.155.272.17-.021.017-.053 0-.064 0l-.053-.026-.08-.021s-.144-.032-.251-.027c-.107.005-.203.043-.203.043s-.042.021-.053-.006c-.005-.032.016-.048.016-.048Zm.395 3.001c-.368-.282-.816-.858-.763-.911.048-.043.23.224.501.517.288.31.624.602.635.64.021.064-.235-.139-.373-.246Zm.837-3.983a2.39 2.39 0 0 1-.368.47c-.075.053-.027-.043-.027-.043s.208-.288.304-.49c.07-.145.112-.337.144-.374.075-.09.037.277-.053.437Zm.426 2.922c-.16-.192-.277-.4-.314-.66-.01-.06-.01-.145.042-.134.048.005.043.096.043.117.016.155.08.31.197.496.166.261.432.464.422.48-.027.027-.294-.181-.39-.299Zm.048 4.986c-.09.085-.245.203-.245.203h-.021v-.027l.005-.01.01-.017.011-.016.011-.016.032-.037.075-.07.074-.069.118-.117s.042-.048.058-.059c.016-.01.027-.02.043-.032.021-.01.048-.026.059-.016v.022c.005.016-.134.17-.23.261Zm.331-3.946c-.07.048-.096.043-.139.09-.048.06-.064.257-.112.177-.048-.08-.016-.192.064-.278.096-.111.304-.074.187.011Zm.25 3.509c.033-.01.049-.006.049-.006l.01.022c0 .005-.042.064-.064.064-.026-.006-.016-.038-.016-.038s-.01-.032.022-.042Zm.912-2.17c-.048-.032.027-.128.027-.208 0-.064-.01-.112-.01-.166 0-.053.053-.069.053-.069.01 0 .032.01.058.064.027.053-.042.432-.128.379Zm1.632-1.525c-.01.223-.021.383-.155.554-.16.208-.437.421-.378.25.037-.1.283-.229.379-.511a1.6 1.6 0 0 0 .063-.33l-.01-.326s-.005-.027-.005-.064c.015-.043.037-.01.037-.01l.01.015c0 .01.065.262.06.422Z"/>
    </g>
  </g>
  <defs>
    <clipPath id="a">
      <path fill="#fff" d="M0 0h18v18H0z"/>
    </clipPath>
    <clipPath id="b">
      <path fill="#fff" d="M4.75 3.133h8.638v11.944H4.75z"/>
    </clipPath>
  </defs>
</svg>
