<?xml version="1.0" encoding="UTF-8"?>
<svg id="Layer_1" xmlns="http://www.w3.org/2000/svg" viewBox="0 0 18 18">
  <rect width="18" height="18" style="fill: #00984a;"/>
  <path d="M7.14,10.94c2.19,1.6,2.94,3.13,3.05,3.69,2.03-2.05-.77-4.38-2.57-5.82-1.44-1.15-1.6-2.27-1.5-2.69.34-1.62,3.03-2.21,4.34-2.31-1.24.31-3.32.78-3.67,2.09s1.55,2.58,3.14,3.81c1.27.99,1.71,2.23,1.77,2.73,1.31-2.18.03-3.45-1.52-4.6-1.24-.92-1.42-1.68-1.35-1.95.18-1.41,3.52-2.27,5.16-2.53-3.76,0-7.95-.04-9.39,1.76-1.44,1.8-.2,3.8,2.53,5.8h0Z" style="fill: #d3d800;"/>
</svg>