<svg xmlns="http://www.w3.org/2000/svg" viewBox="0 0 18 18">
  <g clip-path="url(#a)">
    <path fill="#CD2C2C" d="M0 0h18v18H0V0Z"/>
    <path fill="#fff" d="M13.9 13.875c-.34 0-.655-.276-.777-.43-.898-1.167-1.616-4.42-2.854-4.503 1.16-.218 1.995-1.007 1.995-2.181 0-1.04-.584-2.36-3.06-2.36H5.15v.519c.34 0 .77.16.77.956v6.139c0 .795-.43.955-.77.955v.52h3.252v-.52c-.34 0-.77-.16-.77-.955V9.057h.847c1.29 0 1.68 3.086 2.752 4.523.385.513 1.033.82 1.745.82h.956v-.519c-.007-.006-.032-.006-.032-.006ZM8.48 8.493h-.848V5.305s.745.006.975.006c1.463 0 1.758.757 1.758 1.585 0 .712-.289 1.571-1.886 1.597Z"/>
  </g>
  <defs>
    <clipPath id="a">
      <path fill="#fff" d="M0 0h18v18H0z"/>
    </clipPath>
  </defs>
</svg>
