<svg xmlns="http://www.w3.org/2000/svg" viewBox="0 0 18 18">
  <g clip-path="url(#a)">
    <path fill="#662D91" d="M0 0h18v18H0V0Z"/>
    <path fill="#fff" d="M6.038 10.637H4.836l-.955-1.324H3.56v1.321H2.5V6.663h1.517c.875 0 1.59.595 1.59 1.327 0 .447-.274.846-.69 1.09l1.12 1.557M4.549 7.99a.664.664 0 0 0-.661-.667H3.56v1.329h.327a.664.664 0 0 0 .661-.662Z"/>
    <path fill="#fff" d="M8.864 9.079a1.627 1.627 0 1 1-3.255.015 1.627 1.627 0 0 1 3.255-.015Zm-1.63-.852c-.282 0-.519.382-.519.852s.237.85.518.85c.286 0 .524-.38.524-.85s-.237-.852-.524-.852Zm4.116-.702-1.22 1.221V7.522H9.07v3.111h1.06V9.371l1.275 1.262h1.332l-1.619-1.62 1.342-1.34V9.52c0 .614.368 1.18 1.296 1.18.442 0 .845-.251 1.041-.477l.477.41h.226V7.526h-1.057V9.54c-.12.208-.286.339-.543.339-.26 0-.38-.155-.38-.649V7.525h-2.17Z"/>
  </g>
  <defs>
    <clipPath id="a">
      <path fill="#fff" d="M0 0h18v18H0z"/>
    </clipPath>
  </defs>
</svg>
