<svg xmlns="http://www.w3.org/2000/svg" viewBox="0 0 18 18">
  <g clip-path="url(#a)">
    <path fill="#0081C6" d="M0 0h18v18H0V0Z"/>
    <path fill="#fff" d="M7.282 12.586c0 .49-.401.892-.892.892a.894.894 0 0 1-.89-.892v-4.5a.892.892 0 0 1 1.782.001v4.5Z"/>
    <path fill="#fff" d="M10.755 7.04c.089-.09.134-.2.134-.312 0-.245-.2-.446-.445-.446H6.39a.892.892 0 0 1 0-1.782h4.054a2.243 2.243 0 0 1 2.248 2.25c0 .668-.29 1.27-.757 1.693l-2.16 2.16a.576.576 0 0 0-.2.469c0 .356.29.646.646.646h1.558c.49 0 .891.4.891.891 0 .49-.4.891-.89.891h-1.56c-1.358 0-2.45-1.114-2.45-2.473 0-.713.335-1.336.735-1.737l2.25-2.25Z"/>
  </g>
  <defs>
    <clipPath id="a">
      <path fill="#fff" d="M0 0h18v18H0z"/>
    </clipPath>
  </defs>
</svg>
