<?xml version="1.0" encoding="UTF-8"?>
<svg id="Layer_1" xmlns="http://www.w3.org/2000/svg" viewBox="0 0 18 18">
  <rect width="18" height="18" style="fill: #fafafa;"/>
  <path d="M7.88,3.56c.12-.02.23-.05.35-.06l.56,3.25c-.12.01-.24.03-.35.06l-.56-3.25ZM6.07,4.29c.13-.08.26-.16.39-.23l1.62,2.86c-.14.06-.27.14-.4.23l-1.61-2.86ZM4.64,5.61c.11-.14.23-.28.35-.41l2.49,2.13c-.13.12-.25.26-.35.4l-2.49-2.12ZM3.75,7.34c.06-.2.14-.4.22-.6l3.08,1.11c-.11.18-.19.38-.24.59,0,0-3.06-1.1-3.06-1.1ZM3.51,9.3c-.01-.23-.01-.45,0-.68l3.26-.02c-.04.22-.04.45-.02.68,0,0-3.25.02-3.25.02ZM3.95,11.18c-.1-.24-.19-.48-.26-.73l3.07-1.11c.04.26.12.51.25.73l-3.05,1.11ZM5.06,12.84c-.19-.19-.36-.4-.52-.62l2.47-2.14c.6,1.1,1.98,1.49,3.08.89.93-.51,1.38-1.6,1.08-2.62h3.29c.05.43.05.86,0,1.29h-1.68l1.58.6c-.09.4-.23.79-.4,1.15l-1.98-.74,1.63,1.36c-.22.34-.48.65-.77.94l-1.75-1.46,1.14,1.98c-.3.23-.63.42-.98.57l-1.24-2.15.42,2.44c-.32.09-.66.15-1,.17l-.46-2.71-.47,2.7c-.31-.03-.62-.08-.92-.16l.5-2.91-1.44,2.57c-.27-.13-.52-.27-.76-.44l1.55-2.77-2.39,2.07h0ZM13.12,5.31c.06.07.13.14.18.22l-2.49,2.1c-.06-.08-.12-.15-.19-.21l2.5-2.11h0ZM11.6,4.1c.1.05.19.11.28.16l-1.62,2.86c-.09-.06-.18-.11-.28-.16l1.62-2.86h0ZM10.15,3.57l-.58,3.24c-.12-.03-.24-.05-.36-.06l.59-3.24c.12.02.24.04.35.06Z"/>
</svg>