<svg xmlns="http://www.w3.org/2000/svg" viewBox="0 0 18 18">
  <g clip-path="url(#a)">
    <path fill="#fff" d="M0 0h18v18H0V0Z"/>
    <g clip-path="url(#b)">
      <path fill="url(#c)" fill-rule="evenodd" d="M3.436 12.108h6.35L16 5.892H3.436v6.216Z" clip-rule="evenodd"/>
      <path fill="#fff" fill-rule="evenodd" d="M10.892 7.061H9.655v2.941L8.575 7.06H7.503l-.922 2.46c-.099-.62-.738-.835-1.244-.995-.334-.107-.687-.265-.683-.439.003-.142.19-.274.56-.255.25.013.469.033.906.244l.43-.748a3.362 3.362 0 0 0-1.403-.332h-.003c-.526 0-.965.17-1.237.452a1.043 1.043 0 0 0-.296.721c-.007.38.133.65.425.863.247.18.563.298.841.384.343.107.624.2.62.396a.292.292 0 0 1-.081.195c-.086.088-.217.121-.399.125-.35.007-.61-.048-1.024-.293l-.382.76c.428.242.91.37 1.402.372h.064c.434-.008.784-.132 1.064-.357l.046-.04-.126.332h1.122l.189-.574c.213.07.436.106.66.105a2.1 2.1 0 0 0 .645-.1l.183.569h1.832V9.716h.4c.966 0 1.537-.492 1.537-1.316 0-.917-.555-1.339-1.737-1.339ZM8.034 9.58c-.136 0-.27-.023-.397-.07l.393-1.236h.006l.386 1.24a1.173 1.173 0 0 1-.388.066Zm2.93-.71h-.272v-1h.272c.364 0 .654.122.654.492 0 .384-.29.505-.654.505" clip-rule="evenodd"/>
    </g>
  </g>
  <defs>
    <clipPath id="a">
      <path fill="#fff" d="M0 0h18v18H0z"/>
    </clipPath>
    <clipPath id="b">
      <path fill="#fff" d="M3.436 5.892H16v6.215H3.436z"/>
    </clipPath>
    <linearGradient id="c" x1="9.718" x2="9.718" y1="5.892" y2="12.108" gradientUnits="userSpaceOnUse">
      <stop stop-color="#00B8F1"/>
      <stop offset=".02" stop-color="#01B6F0"/>
      <stop offset=".31" stop-color="#0D90D9"/>
      <stop offset=".58" stop-color="#1775C8"/>
      <stop offset=".82" stop-color="#1C65BF"/>
      <stop offset="1" stop-color="#1E5FBB"/>
    </linearGradient>
  </defs>
</svg>
