<?xml version="1.0" encoding="UTF-8"?>
<svg id="Layer_1" xmlns="http://www.w3.org/2000/svg" viewBox="0 0 18 18">
  <rect width="18" height="18" style="fill: #0093dd;"/>
  <g>
    <path d="M4.2,4.13v5.48s0,.1.03.28c.12.81.67,3.19,3.16,4.15,2.77,1.06,5.14-.53,6.13-2.21.63-1.07.68-2.22.68-2.22h-6.14c.93.42,2.53.78,2.76,1.92.17.82-.31,1.32-.48,1.49-.45.43-.79.45-1.2.45-1.07.01-1.36-.86-1.4-1.4-.02-.24,0-7.93,0-7.93,0,0-3.54,0-3.54,0Z" style="fill: #fff;"/>
    <path d="M14.19,6.85v-.15s0-2.28,0-2.28c0,0-1.97-.81-3.72.3-1.76,1.11-2.05,2.54-2.05,2.54,0,0-.28,1.07-.32,1.48-.02.16-.02.4-.03.56h6.11c-1.37-.53-1.91-.83-2.56-1.43-.83-.86-.5-1.77-.2-2.2.66-.93,1.84-.74,2.33.17.08.14.15.28.2.38.12.22.17.38.23.65Z" style="fill: #fff;"/>
  </g>
</svg>