<svg xmlns="http://www.w3.org/2000/svg" viewBox="0 0 18 18">
  <g clip-path="url(#a)">
    <path fill="#296044" d="M0 0h18v18H0V0Z"/>
    <path fill="#fff" fill-rule="evenodd" d="M8.96 4.083c.249.15.513.34.715.542l-.078.083a5.145 5.145 0 0 0-.818 0 8.526 8.526 0 0 1-.375.017l-.016-.017c-.043-.044-.102-.1-.032-.148l.604-.477Zm7.025 5.098.001.052a7.67 7.67 0 0 0 .009-.746c-.474.366-.861.139-1.26-.093-.332-.192-.671-.39-1.071-.256l.028.093c.035.113.067.224.147.318.333-.003.621.149.907.3.386.202.766.4 1.237.207v.125h.002Zm-.05.533.01-.02c-.034.27-.082.535-.144.795a.58.58 0 0 1 .04-.185c-.35.014-.628-.153-.905-.32-.257-.154-.514-.309-.826-.319l-.08-.412c.335-.058.62.094.902.243.312.165.624.33 1.004.218Zm-.475 1.099c.127.063.204.06.252.019a7.37 7.37 0 0 1-.154.47c-.248-.042-.462-.171-.678-.3-.218-.131-.437-.263-.691-.303.004-.044.001-.09 0-.136-.003-.093-.007-.185.032-.259.278 0 .502.134.726.267.164.099.328.197.513.242Zm-.126.984a.37.37 0 0 0 .042-.039 7.16 7.16 0 0 1-.234.483v-.033c-.157-.05-.295-.145-.434-.239-.193-.131-.386-.263-.63-.27l.078-.377c.257-.007.474.121.69.248.157.093.314.184.486.227h.002Zm-.755.681c.108.062.216.126.333.165a6.818 6.818 0 0 1-.249.377l.003-.007-.574-.296c-.248-.164-.297.003-.347.178-.028.1-.059.202-.129.248-.524-.03-.806-.289-1.116-.572-.066-.06-.131-.123-.203-.182.032-.13.084-.254.156-.366.058-.103.117-.207.147-.324.179-.617-.145-1.117-.461-1.606a6.51 6.51 0 0 1-.27-.445.93.93 0 0 1-.118-.467c.014-.228.06-.452.136-.665.066-.217.133-.434.14-.658.13-.574-.122-1.125-.336-1.596l-.014-.028c.148.093.308.217.398.376.296.603.382 1.44.112 2.086-.062.154-.09.319-.082.485.021.364.224.676.429.991.22.339.442.683.448 1.1.07.056.14.118.208.181.243.222.49.449.824.344a.683.683 0 0 1-.021.278c-.014.068-.028.134-.028.198.238-.014.425.095.614.205Zm-.28.902.066.035c-.11.135-.224.265-.343.39a.586.586 0 0 0 .04-.072 1.258 1.258 0 0 0-.524-.23c-.007-.124.061-.222.141-.31.238-.01.43.09.619.187h.001Zm-1.032.583.437.162c-.12.112-.244.22-.37.324a1.072 1.072 0 0 0-.242-.14c-.039-.089.034-.174.105-.258a.74.74 0 0 0 .07-.087v-.001Zm-.96.282c.14.218.28.438.364.682-.075.048-.15.094-.227.139-.057-.292-.22-.54-.382-.788-.122-.186-.244-.371-.322-.578 0-.038-.003-.078-.006-.119-.014-.212-.03-.446.103-.601l.032.032c-.035.488.201.86.438 1.233Zm-.672.05c.195.313.392.634.42.982-.133.067-.27.13-.409.188.042-.45-.207-.838-.45-1.216a7.838 7.838 0 0 1-.185-.3c-.327-.681.084-1.238.469-1.764.092-.125.182-.247.261-.37.301-.66-.078-1.233-.425-1.758a8.487 8.487 0 0 1-.21-.327.879.879 0 0 1-.145-.55h.002c.017-.312.164-.627.294-.906l.056-.12c.276-.766.084-1.696-.398-2.265.322.137.56.51.667.838.221.569.052 1.226-.108 1.85-.048.186-.095.37-.13.546v.058c-.004.426.221.741.448 1.06.165.23.33.46.41.737.146.535-.151.942-.437 1.333-.074.102-.15.205-.214.307-.574.615-.25 1.137.084 1.678v-.002Zm-.841.047c.236.402.477.81.382 1.3a7.68 7.68 0 0 1-.482.145c.185-.6-.09-1.101-.356-1.59-.09-.166-.179-.33-.25-.496-.21-.621.165-1.119.528-1.597.092-.124.186-.247.266-.37.31-.597-.04-1.106-.366-1.58a7.137 7.137 0 0 1-.204-.31 1.09 1.09 0 0 1-.115-.665c.037-.272.161-.535.284-.792.08-.16.15-.326.21-.496.143-.36.18-.756.106-1.138a2.01 2.01 0 0 0-.519-1.01l.017-.017a1.7 1.7 0 0 1 .636.737c.266.587.061 1.243-.14 1.894-.091.27-.166.544-.224.824l-.017.107c-.01.412.199.683.413.963.115.15.232.303.318.48.322.65-.06 1.147-.434 1.635a6.185 6.185 0 0 0-.28.384c-.35.619-.065 1.1.226 1.592Zm-.986-.351c.31.595.65 1.243.406 1.9a6.824 6.824 0 0 1-2.383.008c-.259-.599.008-1.13.272-1.651.116-.231.232-.461.3-.694.18-.581-.136-.989-.456-1.401a3.486 3.486 0 0 1-.385-.568c-.22-.473.026-.83.272-1.19.136-.198.271-.396.33-.616.094-.274.28-.205.467-.137.099.036.198.072.282.056a.762.762 0 0 0 .385-.058c.171-.057.332-.112.489.025.059.249.214.454.37.66.195.257.389.512.392.85-.01.407-.262.73-.511 1.049-.327.42-.647.828-.41 1.412.055.116.117.235.181.355h-.001Zm-2.485 1.746c0 .02 0 .037.003.055a6.788 6.788 0 0 1-.441-.129c-.101-.503.128-.892.358-1.28.19-.322.38-.643.382-1.027.028-.435-.227-.75-.481-1.064-.18-.221-.36-.443-.44-.709-.185-.568.157-1.035.477-1.473l.11-.15c.15-.23.214-.506.182-.78-.031-.273-.142-.539-.255-.809-.143-.343-.289-.69-.276-1.07-.011-.623.253-1.236.779-1.526l-.099.14c-.128.186-.259.371-.331.581-.252.708.015 1.337.275 1.949.079.183.155.364.218.546.02.061.035.124.044.188.06.427-.16.762-.383 1.099-.16.243-.32.486-.377.766-.112.489.153.818.42 1.152.174.217.35.436.423.702.203.563-.035 1.006-.276 1.452-.23.424-.46.85-.312 1.387Zm-.564-1.319c-.206.324-.41.645-.363 1.064a6.779 6.779 0 0 1-.406-.183c.022-.357.211-.645.4-.931a3.15 3.15 0 0 0 .314-.551c.269-.583-.066-1.016-.4-1.45a3.034 3.034 0 0 1-.412-.633c-.274-.625.112-1.212.494-1.676a1.111 1.111 0 0 0 .311-.877c-.02-.25-.11-.502-.199-.756-.147-.42-.297-.848-.16-1.304.127-.46.317-1.008.778-1.199-.327.39-.517.88-.54 1.395-.053.405.1.738.25 1.067.119.26.235.515.25.795.005.137-.013.275-.056.405a3.496 3.496 0 0 1-.36.584c-.243.34-.484.68-.48 1.12-.035.444.223.754.48 1.063.268.322.537.646.472 1.122-.005.364-.19.656-.373.945Zm-.79-.137c-.17.253-.343.51-.374.808a7.302 7.302 0 0 1-.228-.137c.084-.26.228-.489.371-.719.13-.208.26-.416.346-.646.015-.08.026-.165.038-.25a2.61 2.61 0 0 1 .056-.341c.315.506.057.889-.21 1.285h.001Zm-1.044.012-.254.159a7.129 7.129 0 0 1-.365-.318c.038-.016.075-.035.112-.055.096-.05.192-.102.316-.083l.031.04c.066.08.132.161.16.257Zm-.695-.694c-.124.023-.262.049-.312.144a7.841 7.841 0 0 1-.269-.31c.042-.022.087-.048.132-.074.185-.11.386-.229.588-.1.22.27.056.302-.139.338v.002Zm-.767-.638-.115.077a7.27 7.27 0 0 1-.27-.41.22.22 0 0 0 .049.022c.104-.043.199-.102.294-.163.193-.12.385-.24.629-.23a1.299 1.299 0 0 1-.063-.46c.35.096.588-.097.823-.289.072-.06.147-.117.224-.17.052-.463.283-.85.514-1.236.105-.177.21-.353.296-.535.031-.13.041-.26.04-.386-.006-.249-.06-.495-.114-.742-.1-.458-.201-.918.011-1.402.101-.29.276-.671.574-.752-.546.672-.446 1.7-.16 2.46.054.138.079.286.074.434-.014.367-.223.68-.429.992-.133.2-.263.398-.344.61-.26.542-.023 1.16.27 1.608-.076.059-.148.123-.223.185-.338.289-.68.578-1.128.587-.102-.052-.14-.167-.175-.28-.018-.057-.036-.115-.063-.164-.27-.055-.496.097-.714.244Zm-.605-.737.021.058a7.298 7.298 0 0 1-.245-.5c.129.044.311-.077.507-.209.238-.159.494-.33.701-.235.007.04.017.08.028.118.028.091.054.18.02.276-.25-.003-.444.132-.637.266a1.68 1.68 0 0 1-.395.227v-.001Zm-.413-.935.002.028a7.372 7.372 0 0 1-.39-1.616l.006-.004c.398.13.718-.04 1.039-.211.274-.145.549-.29.868-.249l-.004.04c-.014.147-.028.298-.107.404-.298.014-.544.159-.79.303-.278.164-.557.327-.91.304l.125.525c.29.03.527-.107.763-.246.238-.139.476-.276.763-.246l-.014.394c-.25.024-.456.154-.663.286-.213.136-.427.272-.688.289v-.001Zm-.44-2.22.01-.013c.51.206.973-.043 1.417-.283.128-.068.254-.136.378-.192a.611.611 0 0 1 .163-.018c.112-.001.225-.004.267-.114-.001-.046.028-.094.056-.143.048-.082.094-.162-.024-.217-.36-.05-.668.117-.97.284-.386.212-.766.419-1.239.159l-.056-.115c-.01.218-.01.435 0 .652h-.001Zm4-2.934c-.498-.336-1.115-.083-1.608.118l-.157.064c-.048-.499-.244-.953-.651-1.281a.178.178 0 0 1-.035-.02.268.268 0 0 0-.11-.047c-.027 0-.057.012-.079.051.064 1.122-.333 1.73-.764 2.39a11.92 11.92 0 0 0-.315.498c.175.148.455.125.667.081a6.59 6.59 0 0 0 .387-.179c.424-.207.854-.418 1.36-.312.197-.346.526-.68.796-.953.066-.056.137-.108.21-.154.114-.066.215-.152.298-.255v-.001Zm1.683.738c-.01.073.006.198.112.15.12-.174.311-.12.475-.07.057.016.112.032.16.036v-.065c-.098-.16-.302-.241-.509-.233a.728.728 0 0 0-.143.02.121.121 0 0 0-.082.06.13.13 0 0 0-.013.102Zm2.59-.704c-.148-.34-.487-.477-.793-.558a3.997 3.997 0 0 0-.462-.034h-.089c-.434.01-.85.124-1.103.493-.008.028-.028.057-.046.09-.052.087-.11.186 0 .254l.052-.003c.32-.022.672-.046.885.234 0 .072.01.149.023.227.033.21.066.42-.135.512-.118-.115-.248-.084-.38-.055-.123.029-.248.056-.367-.03-.116-.07-.19.014-.238.117-.07.679.275 1.428.89 1.805.249.093.583.18.842.05.626-.301.885-.991 1.001-1.626a1.86 1.86 0 0 1-.006-.057c-.012-.125-.027-.298-.168-.304-.181.119-.445.052-.64.003l-.012-.003c-.056.019-.085.068-.116.119-.034.054-.069.11-.137.13l-.081-.068c-.07-.3-.112-.728.16-.936.302-.125.657-.18.968-.08.04-.07.012-.13-.014-.189-.014-.03-.028-.06-.034-.09Zm-.319.54-.036.001h-.025c-.034.025-.087.035-.142.046-.126.026-.257.054-.176.233.2-.163.479-.05.68.032l.003.001c.06-.03.062-.086.062-.143v-.037c-.063-.125-.217-.136-.366-.133Zm2.307-2.314c-.261-.014-.494.084-.728.181-.115.05-.233.095-.353.132-.02-.188.056-.385.132-.579.05-.131.101-.261.123-.39-.48.032-.877.284-1.272.532l-.254.16-.334-.84.635-.622.017-.083-.858-.049a2.75 2.75 0 0 1-.158-.367c-.063-.165-.125-.33-.224-.47-.07.14-.133.283-.19.428-.06.143-.12.286-.191.425l-.858.05v.066l.65.607-.017.072c-.075.29-.152.596-.332.814l-.192-.12a5.96 5.96 0 0 0-.983-.536L6.861 3.8c-.098-.033-.231-.078-.317-.012l.068.15c.12.257.245.528.22.804-.099-.018-.184-.063-.27-.107-.068-.034-.135-.069-.208-.09l-.123-.04c-.167-.053-.345-.111-.497-.057.318.458.578.94.668 1.491 1.054-.526 2.283-.815 3.56-.59.49.08.948.264 1.392.442l.292.115c.016-.454.238-.838.45-1.207.058-.101.117-.202.17-.304Zm1.81 3.152c.169.046.337.136.505.227.375.202.756.405 1.148.134-.1-.17-.205-.337-.314-.501-.44-.677-.883-1.36-.718-2.255.02-.077-.027-.154-.095-.165-.322.136-.573.465-.7.788-.019.063-.034.13-.048.195-.03.13-.062.26-.11.379-.387-.207-.8-.41-1.272-.362l-.047.007c-.164.02-.369.044-.398.209.535.295.976.787 1.302 1.312.23-.039.51-.006.748.032Zm-5.655.77.014.1c.07.048.123.107.173.164.102.111.193.212.384.198.255.014.445-.232.57-.427-.161-.023-.342-.018-.528-.014a3.417 3.417 0 0 1-.615-.02h.002Zm.373-.385a.767.767 0 0 0-.16-.058c-.031-.015-.022-.042-.003-.068.077-.091.15-.071.228-.05a.36.36 0 0 0 .103.018c.023 0 .047-.009.072-.016.067-.023.145-.048.245.054.024.024.004.057-.01.062-.085.029-.134.052-.17.068a.305.305 0 0 1-.158.037.413.413 0 0 1-.147-.047Z" clip-rule="evenodd"/>
  </g>
  <defs>
    <clipPath id="a">
      <path fill="#fff" d="M0 0h18v18H0z"/>
    </clipPath>
  </defs>
</svg>
