<?xml version="1.0" encoding="UTF-8"?>
<svg id="Layer_1" xmlns="http://www.w3.org/2000/svg" viewBox="0 0 18 18">
  <path d="M0,0h18v18H0V0Z" style="fill: #96002d;"/>
  <path d="M14,9.49h0c-1.69-.56-4.83.16-6.2-.57-.39-.2-.7-.75-.42-1.17h-3.23c-.03.16-.1.46-.12.63h2.73c-.27.28-.54.53-.77.96-.24.46.28.62.6.7,1.73.45,5.43.11,7,.99h0s0,0,0,0c.22-.48.35-1,.4-1.53h0ZM9.01,4c-.75,0-1.7.18-2.42.62h4.83c-.54-.38-1.54-.62-2.41-.62ZM11.78,5.18l-.41.49s-.38.43.27.61c.44.12,1,.11,1.61.05-.34-.53-.78-.96-1.29-1.33h-5.89c-.21.15-.51.38-.7.56h5.61c.35-.38.88-.45.8-.38ZM9.12,6.99c-.16.18-.34.36-.46.56-.08.12-.18.4.35.58.5.17,1.04.18,1.56.18,1.13-.02,2.26-.15,3.39-.12h0s0-.01,0-.01c-.04-.31-.21-.89-.29-1.03h0c-.98.09-2.35.39-3.32-.12-.18-.1-.46-.27-.46-.51,0-.14.2-.52.32-.63h-5.1c-.12.16-.3.45-.4.62h4.92c-.15.14-.28.21-.35.31h-4.76c-.07.16-.21.46-.26.63h3.71c.52-.33,1.15-.51,1.17-.45h0ZM5.9,8.69h-1.9c0,.17,0,.46.02.63h.96c.27-.21.68-.45.92-.63ZM9.56,11.86c-1.52-.88-3.47-.53-4.52-1.14-.45-.26-.62-.85-.54-1.1h-.48c.35,2.55,2.55,4.38,4.99,4.38.45,0,.9-.06,1.33-.18.2-.7.1-1.45-.78-1.95Z" style="fill: #fff;"/>
</svg>