<svg xmlns="http://www.w3.org/2000/svg" viewBox="0 0 18 18">
  <g clip-path="url(#a)">
    <path fill="#00A0DF" d="M0 0h18v18H0V0Z"/>
    <path fill="#fff" d="M15.622 8.134c0-.257-.161-.45-.29-.643-.128-.128-.225-.257-.225-.418 0-.192.129-.321.29-.321.096 0 .16.032.225.064.064.032.16.065.225.065.128 0 .225-.129.225-.225 0-.129-.129-.258-.354-.258-.514 0-.964.579-.964 1.029 0 .257.16.45.29.61.095.13.192.258.192.386 0 .193-.193.322-.354.322-.192 0-.289-.097-.418-.193-.064-.064-.128-.129-.192-.129-.097 0-.129.193-.129.29 0 .128.225.321.514.321.45-.064.965-.45.965-.9ZM4.661 4.984c-.032 0-.032 0 0 0l-.032.129v.032h.16c.13.032.161.032.161.097 0 .096-.128.417-.289.867l-.129.418c-.128.354-.32.868-.482 1.286-.193.514-.353.932-.353.996 0 .065.032.097.193.097.16 0 .225-.032.257-.097.29-.932 1.06-1.992 1.446-1.992.129 0 .16.032.16.16 0 .193-.16.579-.353.965-.16.32-.289.642-.289.803 0 .129.064.193.193.193.386 0 .707-.354.932-.643l.032-.032-.096-.096H6.14c-.129.128-.354.353-.418.353H5.69v-.064a.87.87 0 0 1 .096-.257c.16-.354.418-.965.418-1.318 0-.29-.129-.45-.386-.45-.482 0-.868.546-1.06.836-.033.064-.097.128-.097.128s.032-.064.064-.193c.065-.128.129-.321.225-.578.354-.965.515-1.447.515-1.511 0-.064-.065-.064-.097-.064h-.707v-.065ZM3.568 8.39c.033-.033.033-.033 0 0 0-.033-.096-.097-.096-.097-.16.128-.45.385-.707.385a.365.365 0 0 1-.257-.096c-.097-.064-.129-.193-.129-.354-.032-.385.322-.996.643-1.35.193-.192.354-.289.45-.289.129 0 .225.097.321.193.065.096.129.16.225.16.033 0 .097-.031.097-.064a.244.244 0 0 0 .064-.128c0-.16-.16-.386-.514-.418-.386 0-.9.225-1.286.61-.353.354-.546.804-.514 1.222 0 .354.193.74.707.74.514.064.932-.386.996-.515Zm6.492-.898c0 .032-.031.064-.031.064v-.032c0-.032.032-.128.064-.257.064-.257.129-.578.129-.675 0-.128-.065-.193-.193-.193-.257 0-.675.45-.804.675l.064.097.033-.032.032-.033c.096-.128.289-.353.385-.353.065 0 .097.064.097.16 0 .226-.257.933-.418 1.415-.096.257-.16.45-.16.482 0 .064.031.064.064.064h.225c.032 0 .064-.032.096-.096 0 0 .096-.257.16-.386.45-.9.676-1.35.868-1.543.13-.128.226-.16.29-.16.064 0 .064.032.096.064s.064.096.129.096c.032 0 .096 0 .128-.032a.292.292 0 0 0 .097-.225c0-.16-.129-.225-.225-.225-.45.032-.74.322-1.125 1.125Zm-1.381-1.16a.07.07 0 0 0-.064.064c-.033.032-.033.065-.097.065-.032 0-.064 0-.128-.033-.065 0-.13-.032-.225-.032-1.125 0-1.704 1.511-1.704 2.025 0 .354.193.515.386.515.225 0 .546-.065.964-.708l.096-.16V8.1l-.032.064a1.08 1.08 0 0 0-.16.514c0 .097.032.161.064.193a.246.246 0 0 0 .16.065c.386 0 .708-.515.836-.708l-.096-.096h-.032l-.097.096c-.128.129-.257.322-.353.322h-.032v-.064c0-.129.257-.74.417-1.222.129-.353.258-.675.258-.74 0 0 0-.063-.033-.063l-.16-.097c.064-.032.032-.032.032-.032ZM6.91 8.325c0-.74.579-1.736 1.157-1.736.193 0 .29.097.29.29 0 .289-.772 1.67-1.286 1.67-.097.033-.161 0-.161-.224Zm5.369-.065c0 .418.257.708.643.708.45 0 .932-.45 1.06-.579v-.032l-.064-.096h-.032l-.064.032c-.161.128-.418.321-.643.321-.257 0-.418-.16-.418-.418 0-.321.16-.546.257-.739v-.032h.257c.418 0 1.19-.193 1.19-.675 0-.193-.193-.418-.515-.418-.643.064-1.671 1.029-1.671 1.929Zm1.64-1.703a.22.22 0 0 1 .224.225c0 .321-.354.482-.964.482.096-.225.45-.707.74-.707Zm-1.833 1.737c0-.032-.097-.128-.097-.128l-.032.032c-.225.225-.321.385-.45.385h-.032s-.032-.032-.032-.064c0-.128.225-.771.675-1.928l.322-.836c.16-.418.257-.643.257-.675v-.032c0-.032-.032-.032-.097-.032h-.74s-.031 0-.031.032v.16h.16c.097.033.161.065.161.129 0 .096-.482 1.286-.482 1.286-.257.643-.707 1.768-.707 2.025 0 .128.032.225.064.257A.292.292 0 0 0 11.25 9c.29 0 .61-.385.804-.643l.032-.064Zm-10.189 2.25c0 .354.289.546.546.675l.129.064c.257.129.385.29.385.482 0 .225-.16.418-.385.418-.354 0-.547-.353-.643-.578l-.129.032c.032.225.097.482.097.578h.064l.16.065c.097.032.226.064.354.064.482 0 .836-.29.836-.74 0-.417-.321-.61-.546-.706l-.097-.033c-.29-.16-.418-.289-.418-.482s.129-.385.354-.385c.29 0 .418.225.482.45l.129-.033c-.033-.192-.065-.353-.065-.482l-.096-.032-.064-.032a1.142 1.142 0 0 0-.322-.064c-.45.032-.771.321-.771.739Zm1.703.577c0 .611.418 1.19 1.35 1.19.225 0 .547-.065.675-.097.064-.16.16-.45.193-.61l-.129-.033c-.192.386-.353.579-.771.579-.514 0-.868-.45-.868-1.125 0-.482.225-1.029.868-1.029.386 0 .579.161.675.547h.129l-.033-.16-.064-.419h-.064a2.394 2.394 0 0 0-.579-.064c-.802-.064-1.382.45-1.382 1.22Zm4.918-1.219H7.49v.129c.257.032.289.032.289.45v.482H6.686v-.482c0-.386.032-.418.29-.45v-.129H5.914v.129c.321.032.321.064.321.45v1.286c0 .385-.032.418-.321.45v.128h1.06v-.128c-.257-.033-.321-.033-.321-.45v-.611h1.093v.61c0 .386-.032.418-.322.45v.13h1.061v-.13c-.29-.031-.321-.031-.321-.45v-1.285c0-.386.032-.418.321-.45l.032-.129Zm3.632 0h-.836v.129h.129c.064 0 .096.032.129.032 0 .032.032.032.032.064s0 .097-.032.161c0 .032-.193.836-.354 1.35-.032-.064-.643-1.704-.643-1.704h-.16s-.547 1.704-.547 1.736c-.032-.064-.418-1.414-.418-1.414 0-.064-.032-.097-.032-.129v-.064c.032-.032.064-.032.129-.032h.128v-.097H8.68v.13c.193.031.257.031.353.353l.611 1.928h.16s.547-1.671.58-1.703c.031.064.61 1.703.61 1.703h.16c.322-1.125.611-1.896.611-1.928.129-.322.161-.354.386-.354v-.16Zm.643.58s.257.771.29.771h-.547c-.032 0 .257-.771.257-.771Zm.45.064-.257-.675-.16.032-.74 1.897c-.129.321-.16.353-.386.353v.129h.836v-.129h-.096c-.065 0-.13-.032-.13-.064v-.064c0-.033 0-.065.033-.129l.032-.064a2.65 2.65 0 0 1 .129-.386h.675c.064.193.16.418.193.514 0 .032.032.065.032.097v.032c0 .032-.032.032-.097.032l-.096.032v.097h.964v-.129c-.193-.032-.257-.032-.386-.354l-.546-1.22Zm1.704-.322c0-.097 0-.16.032-.16h.16c.097 0 .45.031.45.45 0 .288-.192.45-.514.45h-.128v-.74Zm-.675-.322v.129c.257.032.29.032.29.45v1.286c0 .385-.033.418-.322.45v.128h.9c.289 0 .546-.064.707-.16a.597.597 0 0 0 .321-.547c0-.321-.225-.546-.643-.61.193-.033.515-.194.515-.515 0-.193-.064-.321-.193-.418-.129-.096-.29-.128-.579-.128h-.996v-.065Zm.803 1.158c.418 0 .643.192.643.546 0 .354-.257.514-.482.514-.096 0-.16 0-.193-.032-.064-.064-.064-.16-.064-.353v-.643c0-.033.097-.033.097-.033Z"/>
  </g>
  <defs>
    <clipPath id="a">
      <path fill="#fff" d="M0 0h18v18H0z"/>
    </clipPath>
  </defs>
</svg>
