<?xml version="1.0" encoding="UTF-8"?>
<svg id="Layer_1" xmlns="http://www.w3.org/2000/svg" viewBox="0 0 18 18">
  <path d="M0,0h18v18H0V0Z" style="fill: #fafafa;"/>
  <path d="M13.61,7.7l-.13-.05c.43.42.8,1.04,1.07,1.82.23.7.33,1.32.36,1.53,0,0,.4-.18.3-.81-.05-.29-.5-1.94-1.6-2.48h0Z" style="fill: #324d80;"/>
  <path d="M14.41,8c-.09-.05-.18-.09-.27-.12,1,.85,1.19,2.11,1.24,2.47,0,0,.26-.39.24-.71-.03-.32-.2-1.12-1.2-1.65h0Z" style="fill: #324d80;"/>
  <path d="M15.24,8.21c-.14-.06-.28-.11-.43-.14.93.67.94,1.28.98,1.57,0,0,.73-.84-.55-1.43Z" style="fill: #324d80;"/>
  <path d="M8.93,9.88c-1.87,1.04-3.47,1.32-4.79.86-.76-.28-1.41-.79-1.87-1.45.41.42.92.73,1.47.92,1.4.49,3.13.17,5.15-.92,1.75-.95,3.27-1.42,4.52-1.42l.22.19c-1.66.34-3.25.95-4.7,1.82Z" style="fill: #ff8300;"/>
  <path d="M13,7.53c.07.03.13.07.19.12-1.56.15-3.07.64-4.42,1.45-1.96,1.06-3.63,1.36-4.96.9-.66-.23-1.25-.65-1.68-1.2.36.31.78.55,1.24.7,1.42.47,3.22.14,5.35-.97,1.67-.88,3.1-1.21,4.29-1h-.01Z" style="fill: #ff8300;"/>
  <path d="M2.47,8.64c-.16-.08-.32-.17-.47-.28.32.36.79.73,1.44.94,1.35.45,3.09.12,5.17-.97,1.2-.71,2.57-1.08,3.96-1.07h-.02c-1.1-.47-2.44-.3-4,.49-2.27,1.17-4.15,1.54-5.58,1.1-.17-.06-.34-.12-.5-.2h0Z" style="fill: #ff8300;"/>
</svg>