<?xml version="1.0" encoding="UTF-8"?>
<svg id="Layer_1" xmlns="http://www.w3.org/2000/svg" viewBox="0 0 18 18">
  <rect width="18" height="18" style="fill: #13264e;"/>
  <path d="M5.36,6.96c.66-.45,1.43-.73,2.23-.82.25-.03,1.05.01,1.41.08.78.14,1.33.34,2.42.88.9.48,1.88.8,2.89.95.72.12,1.03.26,1.36.62.21.23.35.52.41.82.08.4-.04.44-.26.1-.48-.73-.74-.88-1.83-1.07-1.14-.19-1.85-.41-2.78-.86-1.54-.73-2.21-.94-3.09-.94-.78,0-1.45.19-2.41.67-.59.29-.61.3-1.02.34-.83.08-1.25.25-1.69.7-.31.3-.52.69-.6,1.11-.04.17-.1.31-.12.32-.03,0-.08-.06-.11-.14-.09-.21-.05-.65.08-.98.36-.88,1.19-1.44,2.31-1.52.41-.03.55-.08.82-.26h0ZM3.16,11.23h-.42c0,.41.15.64.77.64s1.02-.36,1.02-.79c0-.37-.32-.44-.6-.51l-.13-.03c-.3-.08-.39-.17-.39-.23h0c0-.08,0-.32.43-.32.35,0,.38.17.34.29h.42c.03-.14.04-.64-.61-.64s-1.02.35-1.02.76.4.5.76.57c.33.07.33.17.32.22h0c0,.07-.04.31-.5.31-.37,0-.42-.16-.4-.27ZM5.49,9.64h-.44l-.29,1.48c-.05.25.01.74.67.74.45.02.86-.26,1-.69l.32-1.53h-.45c-.09.43-.28,1.33-.32,1.45-.04.15-.11.4-.5.4-.32,0-.34-.25-.31-.37,0,0,.31-1.48.31-1.48ZM8.09,11.19l.3-1.55h.41l-.48,2.23h-.41l-.57-1.57-.31,1.57h-.42l.47-2.23h.46M10.61,11.1h-.42c-.09.24-.32.39-.57.39-.45,0-.4-.53-.34-.75.05-.22.24-.71.68-.71.35,0,.4.24.38.36h.45c.03-.25-.07-.74-.72-.74-1,0-1.25,1.02-1.27,1.27-.02.25-.04.95.75.95.64,0,.98-.51,1.07-.77ZM11.03,11.86h-.47l1.2-2.23h.5l.32,2.23h-.47l-.07-.64h-.67s-.32.64-.32.64ZM11.91,10.15l.09.76h-.48l.39-.76ZM12.76,11.86l.46-2.23h1.07c.18,0,.54.11.54.53s-.3.59-.46.63c.07.03.21.12.21.31s-.08.46-.11.58c0,.04,0,.11.08.11v.07h-.51l.1-.62c.02-.1,0-.34-.21-.34h-.56l-.18.95h-.43ZM13.57,9.95h.56c.09,0,.25.06.25.25,0,.23-.12.39-.41.39h-.52s.13-.64.13-.64Z" style="fill: #fafafa; fill-rule: evenodd;"/>
</svg>