<svg xmlns="http://www.w3.org/2000/svg" viewBox="0 0 18 18">
  <g clip-path="url(#a)">
    <path fill="#fafafa" d="M0 0h18v18H0V0Z" />
    <mask
      id="b"
      width="12"
      height="12"
      x="3"
      y="3"
      maskUnits="userSpaceOnUse"
      style="mask-type: luminance"
    >
      <path fill="#fff" d="M3.5 9a5.5 5.5 0 1 0 11 0 5.5 5.5 0 0 0-11 0Z" />
    </mask>
    <g mask="url(#b)">
      <path fill="#FF5621" d="M15.298 12.829H2.75V3.081h12.547v9.748Z" />
      <path
        fill="#06A449"
        d="M17.618 7.08a10 10 0 0 0-2.72-.677 8.141 8.141 0 0 0-1.051-.058 8.137 8.137 0 0 0-1.051.058 9.972 9.972 0 0 0-2.72.677 9.992 9.992 0 0 1-2.633.667v-.002l-.03.005a10.27 10.27 0 0 1-1.103.064 10.48 10.48 0 0 1-1.103-.064l-.03-.005v.002a9.993 9.993 0 0 1-2.632-.667 10 10 0 0 0-2.72-.677 8.141 8.141 0 0 0-1.051-.058 8.137 8.137 0 0 0-1.051.058 10 10 0 0 0-2.72.677c-2.574 1.05-4.898.665-4.898.665v7.082h32.41V7.745s-2.324.385-4.897-.665Z"
      />
      <path
        fill="#08E8FF"
        d="M23.102 7.08c-.981-.4-1.926-.593-2.72-.677a8.133 8.133 0 0 0-1.051-.058 8.131 8.131 0 0 0-1.051.058 9.972 9.972 0 0 0-2.72.677 9.992 9.992 0 0 1-2.633.667v-.002l-.03.005c-.412.046-.784.063-1.103.064-.317-.001-.69-.018-1.103-.064l-.03-.005v.002A9.99 9.99 0 0 1 8.03 7.08c-.98-.4-1.926-.593-2.72-.677a8.133 8.133 0 0 0-1.051-.058 8.131 8.131 0 0 0-1.05.058 10 10 0 0 0-2.72.677c-2.575 1.05-4.9.665-4.9.665v7.082H28V7.745s-2.325.385-4.898-.665Z"
      />
      <path
        fill="#E31D25"
        d="M2.456 4.924c.981.4 1.926.592 2.72.676.152.02.526.06 1.051.058A8.14 8.14 0 0 0 7.28 5.6 9.997 9.997 0 0 0 10 4.924a10 10 0 0 1 2.632-.667v.001l.03-.004a10.28 10.28 0 0 1 1.103-.065 10.285 10.285 0 0 1 1.133.07v-.002a9.995 9.995 0 0 1 2.632.667c.98.4 1.926.592 2.72.676.152.02.526.06 1.051.058.525.002.899-.038 1.051-.058a9.993 9.993 0 0 0 2.72-.676c2.574-1.051 4.898-.666 4.898-.666v-7.082H-2.44v7.082s2.324-.385 4.897.666Z"
      />
      <path
        fill="#468EF7"
        d="M18.026 9.431a10.03 10.03 0 0 0-2.72-.676 8.134 8.134 0 0 0-1.052-.058 8.133 8.133 0 0 0-1.05.058c-.794.084-1.74.276-2.72.676a9.994 9.994 0 0 1-2.633.668v-.002l-.03.005c-.412.046-.785.062-1.103.064a10.3 10.3 0 0 1-1.133-.069v.002a9.992 9.992 0 0 1-2.632-.668c-.981-.4-1.926-.592-2.72-.676a8.134 8.134 0 0 0-1.051-.058 8.132 8.132 0 0 0-1.051.058 10 10 0 0 0-2.72.676c-2.574 1.051-4.898.666-4.898.666v7.082h32.41v-7.082s-2.324.385-4.897-.666Z"
      />
      <path
        fill="#000184"
        d="M23.03 12.016a9.997 9.997 0 0 0-2.72-.677 8.167 8.167 0 0 0-1.051-.058 8.167 8.167 0 0 0-1.051.058 9.997 9.997 0 0 0-2.72.677 9.999 9.999 0 0 1-2.633.667v-.002l-.03.005c-.412.046-.785.063-1.102.064a10.393 10.393 0 0 1-1.134-.069v.002a9.995 9.995 0 0 1-2.632-.667 9.998 9.998 0 0 0-2.72-.677 8.17 8.17 0 0 0-1.051-.058 8.165 8.165 0 0 0-1.051.058 9.995 9.995 0 0 0-2.72.677c-2.574 1.05-4.898.665-4.898.665v7.082h32.411v-7.082s-2.324.385-4.898-.665Z"
      />
    </g>
  </g>
  <defs>
    <clipPath id="a">
      <path fill="#fff" d="M0 0h18v18H0z" />
    </clipPath>
  </defs>
</svg>
