<svg xmlns="http://www.w3.org/2000/svg" viewBox="0 0 18 18">
  <g clip-path="url(#a)">
    <path fill="#fff" d="M0 0h18v18H0V0Z"/>
    <g clip-path="url(#b)">
      <path fill="#FFCD00" d="M9 13.335a.4.4 0 0 1-.236-.076l-.264-.194H5.987l-.232-1.848L4.08 10A4.996 4.996 0 0 1 9 4.167 4.996 4.996 0 0 1 13.92 10l-1.673 1.218-.233 1.848H9.5l-.265.196a.407.407 0 0 1-.235.073Z"/>
      <path fill="#DA291C" fill-rule="evenodd" d="M8.366 13.476H5.624l-.255-2.032-1.661-1.21A5.403 5.403 0 0 1 9 3.754a5.403 5.403 0 0 1 5.293 6.482l-1.662 1.21-.256 2.031h-2.74l-.158.116a.816.816 0 0 1-.954 0l-.157-.116Zm.38-.73A.432.432 0 0 0 9 12.83c.091 0 .18-.032.255-.085l.294-.214h1.993l.202-1.61 1.64-1.194a2.293 2.293 0 0 0-.125-1.508l-2.906 2.937 2.824-3.486a2.314 2.314 0 0 0-.705-1.17l-2.533 4.37 2.243-4.783a2.291 2.291 0 0 0-1.155-.814L9.477 10.7l1.132-5.65a2.291 2.291 0 0 0-1.38-.284L9 10.642l-.23-5.876a2.29 2.29 0 0 0-1.377.284l1.13 5.65-1.548-5.426a2.279 2.279 0 0 0-1.157.813l2.245 4.784L5.531 6.5a2.289 2.289 0 0 0-.706 1.17l2.825 3.485L4.744 8.22a2.273 2.273 0 0 0-.128 1.508l1.642 1.193.2 1.61h1.994l.294.215Z" clip-rule="evenodd"/>
    </g>
  </g>
  <defs>
    <clipPath id="a">
      <path fill="#fff" d="M0 0h18v18H0z"/>
    </clipPath>
    <clipPath id="b">
      <path fill="#fff" d="M3.599 3.75h10.803v10H3.599z"/>
    </clipPath>
  </defs>
</svg>
