<svg xmlns="http://www.w3.org/2000/svg" viewBox="0 0 18 18" fill="#0a0a0a">
  <g clip-path="url(#a)">
    <path d="M0 0h18v18H0V0Z" />
    <path
      fill="#95BF47"
      d="M12.459 5.512a.098.098 0 0 0-.093-.084l-.782-.017s-.623-.606-.682-.665c-.059-.059-.185-.042-.227-.025 0 0-.118.033-.311.092a2.457 2.457 0 0 0-.152-.37c-.218-.42-.547-.648-.934-.648-.025 0-.05 0-.084.009-.008-.017-.025-.026-.034-.043a.8.8 0 0 0-.647-.26c-.505.016-1.01.378-1.414 1.026-.286.455-.505 1.027-.572 1.473-.58.176-.985.303-.993.311-.295.093-.303.101-.337.379-.025.21-.8 6.142-.8 6.142l6.43 1.111 2.785-.69c-.009-.008-1.145-7.69-1.153-7.741Zm-2.415-.598c-.151.042-.32.101-.496.152a2.68 2.68 0 0 0-.152-.918c.379.076.564.505.648.766Zm-.841.261c-.337.101-.707.219-1.078.328.101-.395.303-.79.539-1.052.093-.092.219-.202.362-.269.151.295.185.707.177.993ZM8.52 3.837c.118 0 .219.025.303.076-.135.076-.27.177-.396.311-.32.345-.563.884-.664 1.397l-.884.27c.177-.809.858-2.029 1.641-2.054Z"
    />
    <path
      fill="#5E8E3E"
      d="m12.366 5.428-.782-.017s-.623-.606-.682-.665a.16.16 0 0 0-.084-.042v9.23l2.785-.69-1.144-7.74a.099.099 0 0 0-.093-.076Z"
    />
    <path
      fill="#fff"
      d="M9.27 6.858 8.95 8.07s-.362-.168-.791-.135c-.631.042-.631.438-.631.539.033.538 1.455.656 1.54 1.927.059 1.001-.53 1.683-1.38 1.733-1.027.067-1.59-.539-1.59-.539l.218-.925s.564.43 1.018.395a.406.406 0 0 0 .396-.429c-.042-.707-1.204-.664-1.28-1.826-.058-.976.581-1.969 1.995-2.053.547-.042.825.101.825.101Z"
    />
  </g>
  <defs>
    <clipPath id="a">
      <path fill="#fff" d="M0 0h18v18H0z" />
    </clipPath>
  </defs>
</svg>
