<svg xmlns="http://www.w3.org/2000/svg" viewBox="0 0 18 18">
  <g clip-path="url(#a)">
    <path fill="#099" d="M0 0h18v18H0V0Z"/>
    <g clip-path="url(#b)">
      <path fill="#fff" fill-rule="evenodd" d="M12.21 4.046V6.04c-1.035-.39-1.954-.588-2.76-.588-.479 0-.858.089-1.143.26-.286.172-.432.384-.432.634 0 .333.327.629.977.894l1.877.913c1.511.723 2.266 1.683 2.266 2.889 0 1.002-.401 1.802-1.201 2.394-.806.597-1.877.893-3.222.893-.619 0-1.176-.026-1.67-.082a13.001 13.001 0 0 1-1.688-.318v-2.088c1.158.39 2.209.587 3.149.587 1.128 0 1.69-.327 1.69-.986 0-.328-.229-.593-.692-.801l-2.084-.888c-.775-.347-1.347-.768-1.715-1.268-.374-.503-.557-1.08-.557-1.74 0-.923.386-1.667 1.16-2.232.768-.56 1.798-.842 3.077-.842.42 0 .893.037 1.43.104.53.073 1.044.16 1.537.27Z" clip-rule="evenodd"/>
    </g>
  </g>
  <defs>
    <clipPath id="a">
      <path fill="#fff" d="M0 0h18v18H0z"/>
    </clipPath>
    <clipPath id="b">
      <path fill="#fff" d="M5 3.665h8v10.669H5z"/>
    </clipPath>
  </defs>
</svg>
