<svg xmlns="http://www.w3.org/2000/svg" viewBox="0 0 18 18">
  <g clip-path="url(#a)">
    <path fill="red" d="M0 0h18v18H0V0Z"/>
    <path fill="#fff" d="M11.114 12.023s-.373.62-.995.9c-.56.25-1.461.187-1.461.187H3l1.181-1.988s-.03.062.218.155c.28.124.404.062.404.062H7.29s.404 0 .622.156c.186.124.031.062.28.31.155.156.528.31.932.28.466-.063.808-.373.808-.373s-.62-.155-.963-.31c-.249-.125-.249-.373-.124-.715.186-.466.342-.435.466-.466.124-.062.341.063.341.063l.654.248s0-.124-.156-.373c-.218-.31-.156-.28-.404-.466-.28-.186-.622-.155-.901-.093-.25.062-.53.404-.777.59-.125.094-.405.062-.405.062s-1.927.031-2.145-.062c-.218-.093-.248-.249-.28-.404-.031-.31.25-.683.25-.683s1.305-2.268 1.46-2.485c.28-.435.404-.59 1.026-.932.497-.31 1.43-.217 1.43-.217H15l-1.182 2.019s-.155-.218-.28-.249c-.217-.093-.341-.062-.341-.062H8.969s-.311 0-.466.125c-.156.124-.25.31-.25.31s-.248.28-.185.497c.061.217.217.155.217.155h3.606s.529-.093.746.497c.186.466-.404 1.367-.404 1.367l-1.12 1.895Z"/>
  </g>
  <defs>
    <clipPath id="a">
      <path fill="#fff" d="M0 0h18v18H0z"/>
    </clipPath>
  </defs>
</svg>
