<svg xmlns="http://www.w3.org/2000/svg" viewBox="0 0 18 18">
  <g clip-path="url(#a)">
    <path fill="#FEFD00" d="M0 0h18v18H0V0Z"/>
    <path d="M5.669 10.927c.07.757.138 1.747.146 2.604a.333.333 0 0 0 .095.228.274.274 0 0 0 .221.081l.02-.002a.28.28 0 0 0 .132-.045.308.308 0 0 0 .097-.105l.111-.196a.282.282 0 0 1 .406-.103c.386.263 1.054.611 2.077.611 2.06 0 3.359-1.462 3.359-3.206 0-1.77-1.236-2.348-2.135-2.724-.562-.241-1.124-.429-1.661-.711-.262-.133-.861-.443-.861-1.167 0-.63.524-1.408 1.41-1.408.687 0 1.237.416 1.649 1.02.171.276.26.484.416.928a.334.334 0 0 0 .126.225.283.283 0 0 0 .43-.118.334.334 0 0 0 .009-.262 36.403 36.403 0 0 1-.237-2.283.326.326 0 0 0-.096-.212.277.277 0 0 0-.342-.041.301.301 0 0 0-.103.106l-.099.169a.282.282 0 0 1-.368.116 3.677 3.677 0 0 0-1.622-.359c-1.736 0-3.097 1.074-3.097 2.897 0 1.627 1.159 2.22 1.664 2.478l.01.005c.362.175.736.322 1.099.482 1.223.497 1.848.833 1.848 1.663 0 .9-.687 1.61-1.625 1.61-1.285 0-1.897-1.019-2.072-1.314a3.807 3.807 0 0 1-.42-1.078.317.317 0 0 0-.124-.183.277.277 0 0 0-.207-.049l-.01.002a.288.288 0 0 0-.187.118.33.33 0 0 0-.06.223Z"/>
  </g>
  <defs>
    <clipPath id="a">
      <path fill="#fff" d="M0 0h18v18H0z"/>
    </clipPath>
  </defs>
</svg>
