<svg xmlns="http://www.w3.org/2000/svg" viewBox="0 0 18 18">
  <g clip-path="url(#a)">
    <path fill="#fafafa" d="M0 0h18v18H0V0Z" />
    <path
      fill="#4E9CD7"
      fill-rule="evenodd"
      d="M14.157 8.25 12.854 9l1.303.748a.675.675 0 0 1 .337.681.68.68 0 0 1-.504.57.687.687 0 0 1-.519-.068l-2.333-1.34a.675.675 0 0 1-.343-.612.688.688 0 0 1 .342-.572l2.332-1.34a.686.686 0 0 1 .938.252.678.678 0 0 1-.25.932Zm-1.234 3.634-2.331-1.338a.677.677 0 0 0-.398-.09.677.677 0 0 0-.45.215.689.689 0 0 0-.184.466v2.68c0 .378.306.683.686.683.38 0 .686-.306.686-.683v-1.5l1.306.75a.684.684 0 1 0 .685-1.183Zm-2.69-2.621-.97.963a.192.192 0 0 1-.121.051h-.285a.195.195 0 0 1-.121-.051l-.97-.963a.193.193 0 0 1-.05-.12v-.284a.197.197 0 0 1 .05-.122l.969-.964a.195.195 0 0 1 .121-.05h.286c.045.002.088.02.121.05l.97.964a.2.2 0 0 1 .05.122v.283a.196.196 0 0 1-.05.12Zm-.775-.268a.203.203 0 0 0-.052-.121l-.28-.279a.197.197 0 0 0-.122-.05h-.011a.195.195 0 0 0-.12.05l-.281.279a.2.2 0 0 0-.05.121v.011c0 .04.022.093.05.12l.28.28c.028.027.082.05.121.05h.011a.2.2 0 0 0 .122-.05l.28-.28a.196.196 0 0 0 .052-.12v-.01Zm-4.383-2.88 2.333 1.34c.125.072.264.1.398.089a.68.68 0 0 0 .45-.215.69.69 0 0 0 .185-.467v-2.68a.685.685 0 0 0-.686-.682.684.684 0 0 0-.687.683v1.5L5.762 4.93a.686.686 0 0 0-.888 1.01c.055.07.124.13.202.173Zm5.12 1.429a.68.68 0 0 0 .397-.09l2.331-1.34a.675.675 0 0 0 .32-.413.685.685 0 0 0-1.005-.77l-1.306.751v-1.5a.684.684 0 0 0-.686-.682.684.684 0 0 0-.686.683v2.679a.683.683 0 0 0 .634.681Zm-2.39 2.912a.677.677 0 0 0-.397.09l-2.333 1.338a.677.677 0 0 0-.337.681.684.684 0 0 0 1.023.502l1.307-.75v1.5a.685.685 0 0 0 1.372 0v-2.68a.688.688 0 0 0-.184-.467.677.677 0 0 0-.45-.214ZM7.174 9.2a.686.686 0 0 0-.067-.554.679.679 0 0 0-.246-.24L4.53 7.068a.687.687 0 0 0-.937.25.679.679 0 0 0 .251.933l1.302.75-1.303.747a.674.674 0 0 0-.337.681.682.682 0 0 0 .504.571.686.686 0 0 0 .52-.068l2.33-1.34a.673.673 0 0 0 .313-.391Z"
      clip-rule="evenodd"
    />
  </g>
  <defs>
    <clipPath id="a">
      <path fill="#fff" d="M0 0h18v18H0z" />
    </clipPath>
  </defs>
</svg>
