<svg xmlns="http://www.w3.org/2000/svg" viewBox="0 0 18 18">
  <g clip-path="url(#a)">
    <path d="M0 0h18v18H0V0Z"/>
    <path fill="#fff" d="M7.275 10.112c-.435 0-.838-.13-1.107-.371a.908.908 0 0 1-.301-.686.922.922 0 0 1 .301-.684C6.418 8.144 6.859 8 7.275 8c.46 0 .829.116 1.11.371a.913.913 0 0 1 .297.684.952.952 0 0 1-.297.686c-.262.243-.674.371-1.11.371v-.278c.23 0 .445-.08.594-.228a.737.737 0 0 0 .218-.552.766.766 0 0 0-.218-.552.852.852 0 0 0-.594-.227.851.851 0 0 0-.595.227.77.77 0 0 0-.216.552.772.772 0 0 0 .216.552.844.844 0 0 0 .595.228v.278ZM4.098 8c-.233 0-.497.044-.72.144-.208.093-.378.243-.378.49 0 .13.05.255.138.35.06.056.157.15.411.206.114.024.357.063.598.088.242.025.476.048.572.074.076.02.205.046.205.19 0 .144-.135.187-.159.196-.023.01-.186.084-.477.084a2.029 2.029 0 0 1-.568-.098.687.687 0 0 1-.329-.22.377.377 0 0 1-.068-.208h-.264v.74h.293v-.1a.042.042 0 0 1 .063-.037c.138.06.282.107.43.139.153.032.253.055.445.055a1.9 1.9 0 0 0 .596-.084 1.04 1.04 0 0 0 .355-.175.486.486 0 0 0 .19-.389.544.544 0 0 0-.343-.512 1.394 1.394 0 0 0-.233-.081 6.6 6.6 0 0 0-.658-.1c-.171-.018-.468-.043-.587-.08-.036-.01-.11-.046-.11-.13 0-.062.034-.113.1-.154.106-.066.318-.107.54-.107.215-.003.428.039.625.122a.683.683 0 0 1 .15.089.45.45 0 0 1 .146.245h.237v-.644h-.264v.075c0 .024-.024.056-.072.03A2.032 2.032 0 0 0 4.098 8Zm5.796.118 1.29 1.164-.013-.784c-.002-.102-.02-.145-.132-.145h-.242v-.235H11.9v.235h-.237c-.113 0-.12.036-.122.145l.02 1.498h-.378L9.698 8.67v.941c0 .103.006.15.111.15h.264v.235H8.991v-.234h.253c.095 0 .091-.09.091-.156V8.507c0-.072-.01-.154-.158-.154H8.97v-.235h.923Zm3.266 1.643a.525.525 0 0 0 .066-.004.081.081 0 0 0 .05-.045.261.261 0 0 0 .006-.05V9.29c0-.013 0-.013-.016-.033-.016-.02-.676-.768-.706-.801-.037-.041-.103-.104-.203-.104h-.23v-.235h1.294v.234h-.156c-.036 0-.06.035-.03.072l.44.527c.004.005.008.006.013.001.006-.005.447-.523.45-.528a.045.045 0 0 0 .004-.048.045.045 0 0 0-.042-.024h-.16v-.234H15v.235h-.237c-.086 0-.12.016-.185.089l-.714.814a.05.05 0 0 0-.009.035v.37c0 .017.002.034.005.05a.082.082 0 0 0 .05.046.474.474 0 0 0 .066.004h.242v.235H12.93V9.76h.23Z"/>
  </g>
  <defs>
    <clipPath id="a">
      <path fill="#fff" d="M0 0h18v18H0z"/>
    </clipPath>
  </defs>
</svg>
