<svg xmlns="http://www.w3.org/2000/svg" viewBox="0 0 18 18">
  <g clip-path="url(#a)">
    <path d="M0 0h18v18H0V0Z"/>
    <path fill="#65D46E" d="M9 4a5 5 0 1 0 0 10A5 5 0 0 0 9 4Zm2.293 7.211a.311.311 0 0 1-.429.104c-1.174-.717-2.652-.88-4.392-.482a.313.313 0 0 1-.139-.608c1.905-.435 3.539-.248 4.857.558.146.09.193.282.103.428Zm.612-1.361a.39.39 0 0 1-.536.129c-1.344-.827-3.393-1.066-4.983-.583a.39.39 0 0 1-.226-.746c1.816-.551 4.073-.284 5.617.664a.39.39 0 0 1 .128.536Zm.053-1.418c-1.612-.957-4.27-1.045-5.81-.578a.468.468 0 1 1-.27-.895c1.765-.536 4.701-.432 6.557.669a.468.468 0 1 1-.477.804Z"/>
  </g>
  <defs>
    <clipPath id="a">
      <path fill="#fff" d="M0 0h18v18H0z"/>
    </clipPath>
  </defs>
</svg>
