<svg xmlns="http://www.w3.org/2000/svg" viewBox="0 0 18 18">
  <g clip-path="url(#a)">
    <path fill="#4BA56D" d="M0 0h18v18H0V0Z"/>
    <path fill="#E6F9DE" d="M6.15 6.35a.344.344 0 0 0-.487 0l-1.98 2.184a.685.685 0 0 0 0 .931v.002l1.98 2.183a.344.344 0 0 0 .587-.244V6.593a.343.343 0 0 0-.1-.242ZM9 14.17a.33.33 0 0 0 .349.33A5.508 5.508 0 0 0 14.5 9a5.508 5.508 0 0 0-5.152-5.5.328.328 0 0 0-.348.33v2.063a.378.378 0 0 0 .336.373 2.758 2.758 0 0 1 0 5.469.377.377 0 0 0-.337.372v2.065Z"/>
  </g>
  <defs>
    <clipPath id="a">
      <path fill="#fff" d="M0 0h18v18H0z"/>
    </clipPath>
  </defs>
</svg>
