<?xml version="1.0" encoding="UTF-8"?>
<svg id="Layer_1" xmlns="http://www.w3.org/2000/svg" viewBox="0 0 18 18">
  <rect width="18" height="18" style="fill: #00b35a;"/>
  <g>
    <path d="M14.45,5.88c-.27.94-.67,1.85-1.19,2.68-1.66,2.66-4.27,4.25-6.17,5.12-.56.25-1.12.48-1.7.68h0c1.55-.02,2.95-.27,4.17-.72,1.38-.52,2.51-1.29,3.35-2.31,1.23-1.49,1.77-3.4,1.55-5.45,0,0,0,0,0,0ZM4.71,7.12c-1.06,1.33-1.42,3.31-1.1,6.05.02.25.05.46.08.61h.01c1.15-.56,5.65-3.14,5.63-8.77h-.01c-2.15.22-3.66.91-4.61,2.11h0Z" style="fill: #fff;"/>
    <path d="M9.9,4.92v.02c.05.94-.01,1.46-.19,2.33-.31,1.56-.99,3.02-2.02,4.32-.44.56-.93,1.08-1.47,1.55h0c2.29-.84,5.03-2.33,6.71-4.95,1.67-2.59,1.44-3.66,1.26-4.55h0c-.98.76-2.73,1.04-4.3,1.28Z" style="fill: #fff;"/>
  </g>
</svg>