<svg xmlns="http://www.w3.org/2000/svg" viewBox="0 0 18 18">
  <g clip-path="url(#a)">
    <path fill="#5487B2" d="M0 0h18v18H0V0Z"/>
    <path fill="#fff" d="M15.877 5.47c.13-.066.14-.052.01.022 0 0-2.844 1.615-5.348 2.976l-.213.791.664.496c.07.051.056.071-.016.024 0 0-.272-.177-.684-.45H8.932c-.308.163-.633.333-.964.503l-.092.349c.08.055.16.11.237.166.333.232.692.49 1.046.747h.577a84.558 84.558 0 0 1 2.38-1.186c.133-.064.146-.04.02.033 0 0-1.154.677-2.222 1.258l-.099.372c.892.652 1.618 1.198 1.618 1.198.095.07.081.09-.018.024 0 0-.784-.514-1.72-1.144h-.628c-.322.165-.649.33-.95.479l-.077.287h-.503l-.645.311c-.127.062-.142.035-.019-.033 0 0 .211-.125.538-.313l.097-.364h.538c.28-.159.586-.33.89-.496l.087-.326a95.077 95.077 0 0 1-1.215-.84h-.857c-2.211 1.135-4.37 2.206-4.37 2.206-.1.05-.11.033-.013-.024 0 0 2.017-1.143 4.149-2.316l.146-.545C5.74 8.861 4.688 8.07 4.688 8.07c-.086-.064-.07-.081.016-.024 0 0 1.189.777 2.385 1.592h.69c.313-.17.612-.333.91-.492l.202-.757a92.117 92.117 0 0 1-1.326-.913c-1.425-1-3.32-2.423-3.32-2.423-.073-.055-.06-.074.016-.025 0 0 1.984 1.3 3.407 2.298.426.299.894.637 1.342.962h1.3c2.553-1.327 5.564-2.823 5.564-2.823"/>
  </g>
  <defs>
    <clipPath id="a">
      <path fill="#fff" d="M0 0h18v18H0z"/>
    </clipPath>
  </defs>
</svg>
