<svg xmlns="http://www.w3.org/2000/svg" viewBox="0 0 18 18">
  <g clip-path="url(#a)">
    <path fill="#fff" d="M0 0h18v18H0V0Z"/>
    <path fill="#469DD6" d="M5.934 12.95a4.994 4.994 0 0 0 6.36-.19c.01-.009.005-.015-.005-.009-.395.264-1.519.839-3.289.839-1.538 0-2.51-.344-3.06-.65-.01-.005-.014.003-.006.01Zm3.405.255c1.23 0 2.583-.336 3.391-1a2.68 2.68 0 0 0 .621-.746c.11-.186.215-.407.302-.625.004-.01-.003-.015-.01-.003-.753 1.107-2.93 1.797-5.179 1.797-1.59 0-3.3-.508-3.969-1.48-.006-.008-.013-.004-.009.006.624 1.326 2.516 2.05 4.853 2.05v.001Zm-1.344-2.2c-2.559 0-3.766-1.193-3.985-2.006C4.008 8.987 4 8.989 4 9c0 .274.027.627.075.862.022.114.115.293.251.436.62.647 2.165 1.552 4.84 1.552 3.646 0 4.479-1.215 4.65-1.614C13.935 9.95 14 9.434 14 9c0-.105-.003-.189-.007-.271 0-.013-.007-.015-.01-.002-.182.978-3.297 2.278-5.988 2.278Zm-3.513-4.15c-.147.291-.31.782-.357 1.036a.33.33 0 0 0 .026.243c.306.651 1.858 1.693 5.477 1.693 2.207 0 3.922-.543 4.2-1.533.052-.182.054-.375-.011-.634a4.86 4.86 0 0 0-.328-.865c-.004-.008-.01-.007-.01.002.044 1.299-3.576 2.136-5.403 2.136-1.978 0-3.63-.789-3.63-1.784 0-.096.02-.192.045-.291.003-.01-.005-.011-.009-.003Zm7.82-1.595a.201.201 0 0 1 .031.116c0 .555-1.7 1.538-4.405 1.538-1.988 0-2.36-.738-2.36-1.207 0-.168.065-.34.206-.513.008-.01.001-.015-.008-.007-.258.22-.494.464-.703.731-.1.126-.162.237-.162.304 0 .972 2.437 1.677 4.716 1.677 2.428 0 3.512-.793 3.512-1.49 0-.248-.097-.394-.345-.676a5.898 5.898 0 0 0-.474-.48c-.008-.006-.014 0-.008.007Zm-.744-.555A4.943 4.943 0 0 0 9 4c-.945 0-1.841.265-2.593.726-.226.139-.353.25-.353.393 0 .422.986.875 2.734.875 1.73 0 3.071-.496 3.071-.975 0-.114-.1-.194-.301-.314Z"/>
  </g>
  <defs>
    <clipPath id="a">
      <path fill="#fff" d="M0 0h18v18H0z"/>
    </clipPath>
  </defs>
</svg>
