<?xml version="1.0" encoding="UTF-8"?>
<svg id="Layer_1" xmlns="http://www.w3.org/2000/svg" viewBox="0 0 18 18">
  <rect width="18" height="18" style="fill: #dd1234;"/>
  <g>
    <rect x="4" y="4.94" width="10" height="1.88" rx=".62" ry=".62" style="fill: #fff;"/>
    <path d="M4,8.69c0-.35.28-.62.62-.62h3.44v1.88h-3.44c-.35,0-.62-.28-.62-.62v-.62ZM4,11.81c0-.35.28-.62.62-.62h3.44v1.88h-3.44c-.35,0-.62-.28-.62-.62v-.62ZM14,12.44c0,.35-.28.62-.62.62h-3.44v-1.88h3.44c.35,0,.62.28.62.62v.62ZM14,9.31c0,.35-.28.62-.62.62h-3.44v-1.88h3.44c.35,0,.62.28.62.62v.62Z" style="fill: #fff;"/>
  </g>
</svg>