<svg xmlns="http://www.w3.org/2000/svg" viewBox="0 0 18 18">
  <g clip-path="url(#a)">
    <path fill="#9C1C26" d="M0 0h18v18H0V0Z"/>
    <path fill="#fff" d="M7.997 12.517c.879-.43 1.524-1.327 1.632-2.303L9.635 6H8.288l-.011 4.106a.93.93 0 0 0-.014.069.472.472 0 0 1-.046.16 1.693 1.693 0 0 1-1.555 1.135v1.358c.49.006.933-.12 1.335-.31Z"/>
    <path fill="#fff" d="M6.508 7.424h1.609V6.02H3.5v1.404l1.6.011v5.41h1.396l.012-5.421Zm6.437-1.393-.816 1.167-.813-1.167h-1.55l1.564 2.451-2.836 4.352h1.512l2.117-3.156.85 1.23H14.5l-1.555-2.431 1.5-2.446h-1.5Z"/>
  </g>
  <defs>
    <clipPath id="a">
      <path fill="#fff" d="M0 0h18v18H0z"/>
    </clipPath>
  </defs>
</svg>
