<svg xmlns="http://www.w3.org/2000/svg" viewBox="0 0 18 18">
  <g clip-path="url(#a)">
    <path d="M0 0h18v18H0V0Z"/>
    <path fill="#fff" d="M8.624 12.593c-.63-.403-1.093-1.795-1.093-3.449 0-.06 0-.12.002-.18C5.784 8.685 4.52 7.913 4.488 7l-.005.01c-.428.545-.673 1.175-.673 1.846 0 1.974 2.118 3.592 4.804 3.735l.011.002h-.001ZM3 9c0-2.209 2.686-4 6-4s6 1.791 6 4-2.686 4-6 4-6-1.791-6-4Zm6-3.423c.64 0 1.184.993 1.385 2.379l.001-.002c1.245-.198 2.116-.656 2.116-1.188 0-.714-1.568-1.292-3.502-1.292-1.934 0-3.502.578-3.502 1.292 0 .532.871.99 2.116 1.188v.002C7.817 6.57 8.36 5.577 9 5.577Zm.387 7.014c2.686-.143 4.804-1.76 4.804-3.735 0-.67-.245-1.3-.673-1.845L13.513 7c-.032.911-1.296 1.682-3.047 1.964l.001-.001.002.18c0 1.654-.464 3.046-1.093 3.449l.011-.001ZM9 8.059a9.3 9.3 0 0 0 .832-.037C9.699 7.135 9.377 6.508 9 6.508c-.377 0-.699.627-.832 1.515.267.023.545.036.832.036Zm0 3.29c.482 0 .874-1.026.895-2.313l.003.001a9.536 9.536 0 0 1-1.796 0h.003c.02 1.285.413 2.311.895 2.311v.001Z"/>
  </g>
  <defs>
    <clipPath id="a">
      <path fill="#fff" d="M0 0h18v18H0z"/>
    </clipPath>
  </defs>
</svg>
