<svg xmlns="http://www.w3.org/2000/svg" viewBox="0 0 18 18">
  <g clip-path="url(#a)">
    <path fill="#34E0A1" d="M0 0h18v18H0V0Z"/>
    <path d="m14.56 7.245 1.086-1.182h-2.409A7.477 7.477 0 0 0 9.002 4.76a7.46 7.46 0 0 0-4.229 1.303H2.358l1.086 1.182a3.32 3.32 0 1 0 4.493 4.888l1.064 1.158 1.064-1.157a3.321 3.321 0 1 0 4.495-4.89Zm-8.879 4.7a2.246 2.246 0 1 1 0-4.493 2.246 2.246 0 0 1 0 4.493Zm3.321-2.312c0-1.478-1.075-2.747-2.494-3.29a6.446 6.446 0 0 1 2.493-.498 6.45 6.45 0 0 1 2.494.499c-1.418.543-2.493 1.81-2.493 3.289Zm3.32 2.312a2.246 2.246 0 1 1-.001-4.493 2.246 2.246 0 0 1 0 4.493Zm0-3.425a1.177 1.177 0 1 0-.001 2.354 1.177 1.177 0 0 0 0-2.354ZM6.858 9.698a1.177 1.177 0 1 1-2.354 0 1.177 1.177 0 0 1 2.354 0Z"/>
  </g>
  <defs>
    <clipPath id="a">
      <path fill="#fff" d="M0 0h18v18H0z"/>
    </clipPath>
  </defs>
</svg>
