<svg xmlns="http://www.w3.org/2000/svg" viewBox="0 0 18 18">
  <g clip-path="url(#a)">
    <path fill="#F50002" d="M0 0h18v18H0V0Z"/>
    <path fill="#fff" d="M3.058 7.978h-.02a.037.037 0 0 1-.037-.037.047.047 0 0 1 0-.017 6.542 6.542 0 0 1 11.99 0 .038.038 0 0 1-.035.052h-.018a3.654 3.654 0 0 0-1.83-.443 3.455 3.455 0 0 0-2.033.576.04.04 0 0 1-.023 0h-.023a3.857 3.857 0 0 0-4.064 0 .04.04 0 0 1-.023 0h-.02a3.46 3.46 0 0 0-2.032-.576 3.672 3.672 0 0 0-1.828.445h-.004Zm6.284 5.385a1.205 1.205 0 0 1-2.351.377.327.327 0 0 1 .623-.193.552.552 0 0 0 1.072-.184V8.002c0-.017.013-.03.029-.032.091-.005.182-.005.273 0 .108 0 .215.007.322.02a.032.032 0 0 1 .029.032l.003 5.341Z"/>
  </g>
  <defs>
    <clipPath id="a">
      <path fill="#fff" d="M0 0h18v18H0z"/>
    </clipPath>
  </defs>
</svg>
