<svg xmlns="http://www.w3.org/2000/svg" viewBox="0 0 18 18">
  <g clip-path="url(#a)">
    <path fill="#E40001" d="M0 0h18v18H0V0Z"/>
    <path fill="#fff" d="M14.183 8.077c-.98 0-1.737.516-1.737 1.41 0 .756.7 1.286 1.625 1.286.7 0 1.26-.508 1.429-.827 0-.098-.084-.14-.196-.14-.14.247-.588.437-.785.429-1.12-.042-1.289-.488-1.316-.956-.028-.507.532-.947 1.008-.913.252.02.364.465.588.627.085.04.253.034.365.012.084-.012.336-.065.336-.266 0-.169-.224-.354-.42-.474a2.78 2.78 0 0 0-.897-.188Z"/>
    <path fill="#fff" d="M7.6 10.013c0 .415-.085.633-.421.653v.067c.56-.005 1.12 0 1.68-.014v-.034c-.251 0-.447-.266-.447-.599V8.974c0-.275.336-.449.56-.429.336.034.532.26.532.46V10.1c0 .333-.084.54-.336.56v.06h1.513v-.046c-.224-.028-.392-.235-.392-.549V8.98c0-.246.224-.412.616-.42.336-.008.532.241.532.474v1.039c0 .356-.112.574-.392.602v.045a50.6 50.6 0 0 0 1.597 0v-.034c-.308 0-.392-.193-.392-.6V8.94c0-.38-.224-.835-.813-.835-.392 0-.672.193-.84.247-.112.047-.196.1-.224.1-.056 0-.112-.033-.168-.114-.14-.146-.393-.233-.673-.233-.336 0-.672.193-.84.247-.028.008-.14.067-.14.067-.028 0-.14 0-.14-.014 0-.32.028-.16 0-.387h-.225c-.056 0-.168.12-.308.174-.168.067-.476.059-.616.092v.227l.364.068v.44l-.028.994Z"/>
    <path fill="#fff" d="M6.114 10.728c.589-.028 1.149-.155 1.149-.72 0-.415-.448-.676-.925-.883-.308-.126-.756-.311-.756-.46 0-.173.336-.507.644-.24l.589.473.252-.053-.14-.706c-.14.005-.224.014-.729-.067-.588-.087-1.316.213-1.316.773 0 .375.56.636.98.807.224.1.644.25.644.473 0 .222-.392.283-.616.283-.364 0-.784-.501-.784-.501h-.253l.14.748c.057-.042.225-.037.253-.02.112.045.56.112.868.093Zm-1.429-2.27v-.347l-.728.008c-.084 0-.084-.02-.084-.14v-.473L3.509 7.5c-.112.252-.253.417-.309.451l-.7.3v.216l.252.005c.112 0 .168-.005.168.126v1.41c0 .425.224.74.84.753.449.011.73-.188.925-.375l-.056-.18c-.084.054-.168.101-.252.101-.532 0-.504-.4-.504-.756v-.953c0-.14 0-.14.112-.14h.7Z"/>
  </g>
  <defs>
    <clipPath id="a">
      <path fill="#fff" d="M0 0h18v18H0z"/>
    </clipPath>
  </defs>
</svg>
