<svg xmlns="http://www.w3.org/2000/svg" viewBox="0 0 18 18">
  <g clip-path="url(#a)">
    <path fill="#fff" d="M0 0h18v18H0V0Z"/>
    <g clip-path="url(#b)">
      <path fill="url(#c)" d="M10.58 7.758c-.137.087-.844.561-.517 1.84.114.446.446.77.94.984.78.337 1.43.313 2.025.181.856-.19.883-.318 1.17-.15.295.172.273.564.136.767-.126.187-.706.387-1.08.484-1.058.273-2.226.246-3.154-.163-.65-.286-1.198-.68-1.467-1.459-.198-.572-.455-1.452.008-2.41.225-.467.612-.893 1.017-1.215l.922 1.141Z"/>
      <path fill="url(#d)" d="M10.527 9.644c-.26-.022-3.442-.36-3.442-.36s.268 1.38.385 1.89c.207.894-.903.96-1.039.54-.348-1.07-.655-1.935-.772-2.164-.38-.753-1.95-.586-2.52-.745-1.006-.28-.795-1.918.465-1.83.656.046 2.707.476 4.453.785 1.128.2 2.205.315 2.574.364l-.104 1.52Z"/>
      <path fill="url(#e)" d="M10.575 7.766 9.65 6.622c.772-.614 1.74-.817 2.66-.856.964-.04 1.605.148 2.063.378.602.304 1.139.831 1.123 1.812l-1.767-.35c-.316-.21-1.02-.315-1.423-.325-.75-.02-1.297.21-1.732.485Z"/>
      <path fill="url(#f)" d="M15.497 7.937c-.013.757-.476 1.377-1.527 1.658l-.461-1.427c.583-.097.519-.306.327-.482a1.247 1.247 0 0 0-.134-.097l1.795.348Z"/>
      <path fill="url(#g)" d="M13.987 9.59c-.432.115-1.222.247-3.469.053l.105-1.52c1.382.183 2.385.128 2.903.042l.461 1.424Z"/>
    </g>
  </g>
  <defs>
    <linearGradient id="c" x1="9.25" x2="12.627" y1="8.201" y2="11.869" gradientUnits="userSpaceOnUse">
      <stop stop-color="#0186F5"/>
      <stop offset=".1" stop-color="#0186F5"/>
      <stop offset=".3" stop-color="#35C2B0"/>
      <stop offset=".7" stop-color="#AAD825"/>
      <stop offset="1" stop-color="#FED700"/>
    </linearGradient>
    <linearGradient id="d" x1="6.524" x2="6.552" y1="11.579" y2="9.277" gradientUnits="userSpaceOnUse">
      <stop stop-color="#FF7F00"/>
      <stop offset="1" stop-color="#FE0201"/>
    </linearGradient>
    <linearGradient id="e" x1="9.927" x2="13.656" y1="6.778" y2="6.85" gradientUnits="userSpaceOnUse">
      <stop stop-color="#0186F5"/>
      <stop offset=".2" stop-color="#0186F5"/>
      <stop offset="1" stop-color="#3156FD"/>
    </linearGradient>
    <linearGradient id="f" x1="14.227" x2="14.571" y1="8.684" y2="8.006" gradientUnits="userSpaceOnUse">
      <stop stop-color="#8434D5"/>
      <stop offset=".9" stop-color="#3156FD"/>
      <stop offset="1" stop-color="#3156FD"/>
    </linearGradient>
    <linearGradient id="g" x1="13.47" x2="10.607" y1="8.847" y2="8.982" gradientUnits="userSpaceOnUse">
      <stop stop-color="#8434D5"/>
      <stop offset="1" stop-color="#FE0201"/>
    </linearGradient>
    <clipPath id="a">
      <path fill="#fff" d="M0 0h18v18H0z"/>
    </clipPath>
    <clipPath id="b">
      <path fill="#fff" d="M2.5 5.758h13v6.292h-13z"/>
    </clipPath>
  </defs>
</svg>
