<?xml version="1.0" encoding="UTF-8"?>
<svg id="Layer_1" xmlns="http://www.w3.org/2000/svg" viewBox="0 0 18 18">
  <rect width="18" height="18" style="fill: #0a0a0a;"/>
  <path d="M14.84,10c-.11.32-.29.62-.51.9h-2.57c.17-.28.3-.58.4-.9,0,0,2.69,0,2.69,0ZM11.55,11.2h2.51c-.33.34-.75.64-1.22.9h-2.26c.38-.23.71-.54.98-.9ZM8.08,12.4c.6.2,1.25.2,1.85,0h2.27c-.92.38-2.02.6-3.2.6s-2.27-.22-3.2-.6c0,0,2.27,0,2.27,0ZM7.43,12.1c-.38-.23-.71-.54-.98-.9h-2.51c.34.34.75.64,1.22.9h2.26,0ZM3.16,10c.12.32.29.62.52.9h2.57c-.17-.28-.3-.58-.4-.9h-2.69ZM14.93,9.7h-2.71c.05-.24.08-.49.08-.75,0-.05,0-.1,0-.15h2.68c.02.1.03.2.03.3,0,.2-.02.4-.07.6h0ZM5.78,9.7c-.05-.25-.08-.5-.08-.75,0-.05,0-.1,0-.15h-2.68c-.02.1-.03.2-.03.3,0,.2.02.4.07.6,0,0,2.71,0,2.71,0ZM5.75,8.5h-2.63c.08-.21.18-.41.31-.6h2.51c-.08.19-.14.39-.18.6ZM12.09,7.9c.08.2.13.4.17.6h2.64c-.07-.21-.17-.41-.29-.6,0,0-2.52,0-2.52,0ZM14.4,7.6h-2.44c-.1-.21-.22-.41-.36-.6h2.25c.21.19.4.4.55.6ZM6.06,7.6c.1-.2.23-.41.37-.6h-2.22c-.21.18-.4.38-.57.6,0,0,2.42,0,2.42,0ZM6.96,6.4h-1.97c.16-.11.33-.21.5-.3h1.82c-.12.09-.24.19-.36.3ZM13.07,6.4h-2c-.11-.11-.23-.21-.36-.3h1.85c.17.09.34.19.5.3ZM11.1,5.5c-.65-.19-1.36-.3-2.1-.3s-1.42.11-2.06.3h4.16Z" style="fill: #fff;"/>
</svg>