<svg xmlns="http://www.w3.org/2000/svg" viewBox="0 0 18 18">
  <g clip-path="url(#a)">
    <path fill="#F22F46" d="M0 0h18v18H0V0Z"/>
    <path fill="#fff" d="M7.75 11.211a.961.961 0 1 0 0-1.922.961.961 0 0 0 0 1.922Zm0-2.5a.962.962 0 1 0 0-1.922.962.962 0 0 0 0 1.923Zm2.5 2.5a.961.961 0 1 0 0-1.922.961.961 0 0 0 0 1.922Zm0-2.5a.962.962 0 1 0 0-1.923.962.962 0 0 0 0 1.924ZM9 4c2.708 0 5 2.292 5 5s-2.292 5-5 5-5-2.292-5-5 2.292-5 5-5Zm0 1.346c-2.012 0-3.654 1.585-3.654 3.587 0 2.002 1.642 3.72 3.654 3.72s3.654-1.718 3.654-3.72c0-2.002-1.642-3.587-3.654-3.587Z"/>
  </g>
  <defs>
    <clipPath id="a">
      <path fill="#fff" d="M0 0h18v18H0z"/>
    </clipPath>
  </defs>
</svg>
