<svg xmlns="http://www.w3.org/2000/svg" viewBox="0 0 18 18">
  <g clip-path="url(#a)">
    <path fill="#BB271A" d="M0 0h18v18H0V0Z"/>
    <path fill="#fff" d="M10.75 6H12v1.14C12 8.144 13 8 13 8v2s-.996.57-1.678 1.143c-.497.432-.934 1.076-.934 1.72 0 .423.061.714.192.996 0 0-.253.141-.69.141-.551-.07-1.172-.573-1.547-1.358-.498-.996-.743-2.213-1.302-2.213-.56 0-.56.643-.996.643-.498 0-.804-.926-.927-1.358C4.804 9.071 4.061 9.005 4 8h2V4h1.6v2h.586l-.21 1h-.682l-.226 1h.681S7.6 9.193 7.6 10c0 1.072 1.18 1.425 1.609 1.425.62 0 1.18-.353 1.18-.353L10.736 10H10.3c-.123 0-.245 0-.184-.362L10.388 8h.682l.226-1h-.682l.136-1Z"/>
    <path fill="#fff" d="M8.7 7h1.12l-.5 3H8.2l.5-3Zm.8-2c.246 0 .5.197.5.533 0 .262-.254.467-.5.467-.254 0-.5-.205-.5-.467C9 5.197 9.246 5 9.5 5Z"/>
  </g>
  <defs>
    <clipPath id="a">
      <path fill="#fff" d="M0 0h18v18H0z"/>
    </clipPath>
  </defs>
</svg>
