<svg xmlns="http://www.w3.org/2000/svg" viewBox="0 0 18 18">
  <g clip-path="url(#a)">
    <path fill="#2A3C8A" d="M0 0h18v18H0V0Z"/>
    <path fill="#fff" d="m2.344 18-.412-.697c.676-.375 1.352-.79 1.991-1.294l1.03 1.35c.232-.172.448-.36.676-.56l.04-.032a12.934 12.934 0 0 0-1.068-1.336c.49-.417.96-.925 1.374-1.411.4.397.792.824 1.174 1.24.257-.271.476-.556.673-.846-.403-.42-.802-.805-1.222-1.197.375-.467.649-.913.896-1.41.438.331.857.676 1.27 1.036.174-.33.337-.67.462-1.022a13.8 13.8 0 0 0-1.28-.966 6.16 6.16 0 0 0 .37-1.19c.415.217.928.555 1.287.819.095-.377.129-.966.116-1.298A11.102 11.102 0 0 0 8.462 8.5c.01-.233 0-.476-.032-.711.409.16.805.357 1.2.558a4.473 4.473 0 0 0-.456-1.358 18.533 18.533 0 0 0-1.047-.35 3.242 3.242 0 0 0-.26-.53c.209.044.412.107.611.17.103.032.205.064.306.093a2.02 2.02 0 0 0-.27-.341l-.042-.048a3.87 3.87 0 0 0-1.017-.797l-.37-.047a2.909 2.909 0 0 0-.43-.373c.511.16 1.236.4 1.89 1.112 1.223 1.34 1.631 3.187 1.2 4.986C9.061 13.687 6.899 16.23 4.459 18H2.344Zm3.063 0h-.576l.17-.135c.078-.061.149-.118.213-.164l.193.3Z"/>
    <path fill="#fff" d="M6.639 18a35.79 35.79 0 0 0-.7-.905c.582-.496.99-.941 1.475-1.518.206.226.398.457.59.69.107.13.217.262.328.39.252-.283.499-.574.714-.88a21.723 21.723 0 0 0-.941-1.067c.362-.5.776-1.151.98-1.553.332.296.665.64.969.973.188-.349.344-.708.476-1.094a8.79 8.79 0 0 0-.96-.92c.177-.432.333-.921.407-1.353.307.22.621.48.92.776a6.88 6.88 0 0 0 .086-1.468 9.26 9.26 0 0 0-.853-.66 6.446 6.446 0 0 0-.055-.805c.222.123.444.266.663.406l.087.055a5.722 5.722 0 0 0-.708-1.679l-.448-.21a6.237 6.237 0 0 0-.322-.619l.343.132c1.236 1.37 1.727 3.216 1.375 5.11-.322 1.808-1.25 3.364-2.424 4.82-.407.476-.848.946-1.307 1.379h-.695Z"/>
    <path fill="#fff" d="M9.613 18c1.177-1.44 2.03-3.027 2.389-4.807.387-1.888.08-3.884-1.12-5.306l-.08-.097a1.578 1.578 0 0 0-.281-.282l-.007.015c.538.668.964 1.384 1.185 2.184l-.005.008-.414-.317c.054.324.095.626.107.964.194.148.409.345.574.549.03.55.03 1.138-.064 1.679a6.217 6.217 0 0 0-.642-.726c-.065.399-.211 1.03-.39 1.452.255.278.514.632.676.89a6.462 6.462 0 0 1-.476 1.149l-.21-.28c-.144-.195-.286-.39-.494-.637-.308.581-.659 1.14-1.049 1.67.266.319.512.65.744.987a10.7 10.7 0 0 1-.707.904h.264Z"/>
    <path fill="#fff" d="M11.015 18h-.385l-.33-.54c.387-.552.745-1.126 1.045-1.714.082.116.16.253.24.39.041.074.083.146.128.219.184-.387.37-.87.47-1.222l-.331-.584a9.22 9.22 0 0 0 .405-1.545l.3.375a7.279 7.279 0 0 0 .125-1.68s-.175-.273-.322-.434a9.102 9.102 0 0 0-.154-1.133l.047.047c.328.737.602 1.506.563 2.39-.074 2.02-.763 3.807-1.803 5.43h.002Z"/>
    <path fill="#fff" d="M11.98 18h-.708c.247-.395.486-.837.696-1.257.074.122.156.28.198.413.183-.437.326-.853.44-1.24l-.14-.389a8.82 8.82 0 0 0 .432-1.65l.089.121a6.65 6.65 0 0 0 .07-.53c.012-.102.023-.205.037-.308h.004c.096.887-.08 1.753-.274 2.562A12.89 12.89 0 0 1 11.981 18Zm.596 0h-.364l.177-.37c.023.06.05.116.08.172.234-.728.514-1.748.67-2.575-.083.981-.281 2.007-.563 2.773Zm-3.24 0H7.69c.315-.31.593-.64.869-.966l.03-.034.164.216c.197.26.395.521.583.784ZM1.386 4.089c1.01-.177 2.135-.107 2.991.373.573.298 1.11.845 1.378 1.432.455.89.407 2.122.129 3.078-.76 2.768-3.372 5.316-5.938 6.472v-.708l.198.392a3.12 3.12 0 0 0 .467-.241l-.665-1.354v-.61c.385-.2.746-.442 1.078-.72a40.4 40.4 0 0 0 1.212 1.586c.21-.145.384-.296.56-.483a24.055 24.055 0 0 0-1.313-1.492 5.76 5.76 0 0 0 .939-.94s1.023.826 1.522 1.248c.135-.166.36-.444.515-.676a19.391 19.391 0 0 0-1.598-1.11c.219-.3.418-.614.595-.94.57.247 1.143.558 1.703.876a5.28 5.28 0 0 0 .348-.792 13.628 13.628 0 0 0-1.729-.74 4.23 4.23 0 0 0 .247-.734 14.14 14.14 0 0 1 1.759.5c.076-.28.117-.638.124-.928-.57-.15-1.152-.257-1.738-.32.015-.158.02-.317.016-.475.569.036 1.134.111 1.693.225a2.826 2.826 0 0 0-.193-.837 11.251 11.251 0 0 0-1.589-.064 1.718 1.718 0 0 0-.117-.356 9.824 9.824 0 0 1 1.488-.02 2.24 2.24 0 0 0-.518-.659c-.43.016-.929.076-1.268.138a1.277 1.277 0 0 0-.216-.256c.365-.08.734-.14 1.106-.18A3.69 3.69 0 0 0 3.7 4.32c-.19.037-.58.142-.765.21a1.774 1.774 0 0 0-.306-.155 5.19 5.19 0 0 1 .56-.193 4.893 4.893 0 0 0-1.395-.08l-.052.025-.354-.04-.001.002Z"/>
    <path fill="#fff" d="M4.264 4.169a2.93 2.93 0 0 0-.27-.11c.985.118 1.925.348 2.685 1.007C7.93 6.084 8.453 7.59 8.189 9.189c-.334 2.006-1.452 3.684-2.865 5.24a12.704 12.704 0 0 1-5.378 3.49v-2.234s.19-.067.38-.174c.196.427.567 1.175.872 1.692.176-.064.35-.16.515-.265 0 0-.648-1.227-.91-1.68.66-.355 1.112-.674 1.677-1.126.235.298 1.19 1.54 1.19 1.54.239-.174.472-.37.659-.558 0 0-.935-1.143-1.25-1.478.413-.35.822-.82 1.168-1.244.49.419 1.08.956 1.432 1.333.226-.243.43-.504.612-.78-.483-.443-.996-.86-1.497-1.261.287-.377.53-.79.721-1.194.563.317 1.103.68 1.642 1.054.175-.29.327-.615.43-.914a18.694 18.694 0 0 0-1.707-.972c.12-.326.22-.66.297-1.005.605.21 1.186.494 1.754.782a4.5 4.5 0 0 0 .126-1.115 12.803 12.803 0 0 0-1.75-.64 8.704 8.704 0 0 0-.018-.58c.58.12 1.148.31 1.7.51a3.77 3.77 0 0 0-.344-1.1 15.19 15.19 0 0 0-1.536-.3 6.087 6.087 0 0 0-.174-.438c.467.042.992.118 1.373.206-.185-.335-.517-.66-.843-.903-.336-.022-.672-.03-1.008-.022a4.282 4.282 0 0 0-.31-.314 7.84 7.84 0 0 1 .772-.02c-.48-.264-1-.446-1.54-.537l-.061.011a15.169 15.169 0 0 1-.055-.026l.001.002Z"/>
    <path fill="#fff" d="M-.054 4.438c1.178-.28 2.514-.206 3.385.687.164.164.274.346.373.534.573 1.215.126 2.646-.466 3.702-.725 1.32-2.017 2.566-3.292 3.325v-1.89l.826 1.071c.15-.11.29-.228.43-.357l-1.256-1.355v-.065c.213-.184.412-.383.596-.597.547.354 1.046.726 1.55 1.124.146-.158.283-.325.41-.5A19.6 19.6 0 0 0 .828 9.15c.151-.189.304-.441.394-.628.55.156 1.39.475 1.863.7.11-.196.21-.399.297-.607-.63-.231-1.279-.41-1.939-.534.064-.145.124-.312.148-.45.702.048 1.336.125 2.03.286.064-.227.112-.493.14-.697a14.22 14.22 0 0 0-2.064-.073c.012-.1.023-.262.023-.344a13.12 13.12 0 0 1 2.06-.048c0-.216-.034-.428-.093-.625-.678.028-1.37.12-2 .242a1.4 1.4 0 0 0-.064-.255c.51-.148 1.267-.264 1.93-.334a1.655 1.655 0 0 0-.309-.487c-.595.123-1.182.284-1.756.483a1.127 1.127 0 0 0-.137-.214 10.956 10.956 0 0 1 1.639-.507 1.872 1.872 0 0 0-.559-.36 8.85 8.85 0 0 0-1.345.576.692.692 0 0 0-.158-.126c.303-.206.772-.425 1.159-.565a2.654 2.654 0 0 0-.871-.15 7.515 7.515 0 0 0-.737.477 1.234 1.234 0 0 0-.216-.069c.166-.138.35-.28.541-.396a4.054 4.054 0 0 0-.858.103v-.11Z"/>
    <path fill="#fff" d="M-.054 5.302v-.314c.567.077 1.159.432 1.404.995.402 1.027-.04 2.092-.602 2.913a7.173 7.173 0 0 1-.802.911v-.713s.148.087.262.166c.078-.071.192-.211.25-.298A5.47 5.47 0 0 0-.054 8.7v-.557c.27.043.634.16.882.244.07-.112.15-.268.193-.381L.85 7.972a6.707 6.707 0 0 0-.903-.138s0-.283.003-.283c.37-.01.9.014 1.228.045.055-.132.086-.284.113-.429-.448.003-.896.033-1.34.092v-.212c.445-.09.814-.156 1.363-.21 0-.107-.005-.262-.033-.38a8.954 8.954 0 0 0-1.33.353v-.185c.389-.154.868-.33 1.279-.412a1.03 1.03 0 0 0-.118-.306 8.539 8.539 0 0 0-1.165.488v-.203c.216-.116.68-.346 1.013-.48a.96.96 0 0 0-.242-.24 13.41 13.41 0 0 0-.768.451v-.196a6.81 6.81 0 0 1 .483-.301l.108-.064a1.423 1.423 0 0 0-.418-.18l-.176.118v.002Z"/>
  </g>
  <defs>
    <clipPath id="a">
      <path fill="#fff" d="M0 0h18v18H0z"/>
    </clipPath>
  </defs>
</svg>
