<svg xmlns="http://www.w3.org/2000/svg" viewBox="0 0 18 18">
  <g clip-path="url(#a)">
    <path fill="#010202" d="M0 0h18v18H0V0Z"/>
    <path fill="#fff" d="M2.945 9.971c.06.157.142.291.246.403.105.111.229.197.372.256.144.059.3.088.468.088a1.156 1.156 0 0 0 .836-.351c.107-.112.19-.245.25-.4.058-.154.088-.327.088-.518V6.5h.717v4.778h-.71v-.444c-.16.169-.347.299-.563.39-.217.09-.45.136-.7.136-.255 0-.493-.044-.713-.133a1.67 1.67 0 0 1-.574-.379 1.787 1.787 0 0 1-.382-.59 2.024 2.024 0 0 1-.14-.768V6.5h.717v2.949c0 .191.03.365.088.522ZM7.157 6.5v1.74c.16-.159.344-.285.553-.378.21-.093.437-.14.683-.14a1.831 1.831 0 0 1 1.297.532 1.831 1.831 0 0 1 .389 1.997 1.832 1.832 0 0 1-1.686 1.11c-.246 0-.475-.047-.686-.14a1.813 1.813 0 0 1-.557-.38v.437h-.682V6.5h.69Zm.079 3.515c.061.146.146.274.256.383.109.109.236.195.382.26.145.063.302.095.47.095a1.195 1.195 0 0 0 .843-.355c.108-.11.193-.237.257-.383.063-.145.095-.302.095-.47 0-.169-.031-.327-.095-.475a1.255 1.255 0 0 0-.256-.386 1.182 1.182 0 0 0-.843-.348 1.182 1.182 0 0 0-.847.348 1.225 1.225 0 0 0-.262 1.331Zm3.375-1.174a1.86 1.86 0 0 1 .375-.576 1.744 1.744 0 0 1 1.277-.536c.25 0 .482.045.696.136.214.091.398.218.553.38.155.16.275.352.362.573.086.22.13.46.13.72v.225H11.17a1.17 1.17 0 0 0 .392.706 1.17 1.17 0 0 0 .761.284c.414 0 .749-.171 1.004-.512l.498.368a1.854 1.854 0 0 1-.642.546 1.842 1.842 0 0 1-.86.198c-.26 0-.501-.045-.727-.136a1.77 1.77 0 0 1-.98-.96 1.794 1.794 0 0 1-.143-.72c0-.245.046-.477.137-.696Zm.959-.27a1.163 1.163 0 0 0-.386.646h2.123a1.13 1.13 0 0 0-.379-.645 1.027 1.027 0 0 0-.679-.243c-.26 0-.486.081-.679.243Zm3.724.079c-.146.16-.219.376-.219.649v1.98h-.69V7.796h.683v.43a.97.97 0 0 1 .338-.334.956.956 0 0 1 .495-.123h.239v.641h-.287a.724.724 0 0 0-.56.24Z"/>
  </g>
  <defs>
    <clipPath id="a">
      <path fill="#fff" d="M0 0h18v18H0z"/>
    </clipPath>
  </defs>
</svg>
