<?xml version="1.0" encoding="UTF-8"?>
<svg id="Layer_1" xmlns="http://www.w3.org/2000/svg" viewBox="0 0 18 18">
  <rect width="18" height="18" style="fill: #005696;"/>
  <path d="M4,7.36l.27-.66h4.16c.17,0,.35-.06.44-.21.08.11.11.21.26.21h4.58l.28.66h-4.99c-.11,0-.17-.09-.23-.17-.1.12-.19.16-.34.17h-4.43ZM4.45,6.37l.45-.66c1.27,0,2.53,0,3.8,0,.17,0,.3-.04.39-.19.1.15.21.19.38.19h3.63c.13.17.45.66.45.66h-4.34c-.11,0-.17-.09-.23-.16-.07.08-.12.14-.23.16-1.41,0-2.89,0-4.3,0ZM5.18,5.39s.55-.49.75-.66c1.01,0,1.97,0,2.98,0,.15,0,.27-.03.35-.17.1.15.19.17.36.17h2.42c.2.17.75.66.75.66,0,0-2.29,0-3.37,0-.13,0-.2-.12-.28-.21-.1.12-.21.21-.37.21-1.16,0-3.61,0-3.61,0h0ZM11.52,4.4h-1.88c-.13,0-.2-.07-.28-.17-.08.17-.26.17-.42.17h-2.47c.49-.26,1.16-.51,1.71-.59.54-.09,1.1-.09,1.64,0,.55.09,1.21.33,1.71.59h0ZM4.27,11.3l-.27-.66h3.77c.17,0,.35-.06.44-.21.08.11.11.21.26.21h5.53l-.29.66h-5.37c-.11,0-.17-.09-.23-.16-.1.12-.19.16-.34.16-1.46,0-2.04,0-3.5,0h0ZM4.89,12.28l-.44-.66c1.27,0,1.98,0,3.25,0,.17,0,.3-.04.39-.19.1.15.21.19.38.19,1.21,0,5.06,0,5.06,0l-.44.66s-3.49,0-4.89,0c-.11,0-.17-.09-.23-.16-.07.08-.12.14-.23.16-1.41,0-1.46,0-2.87,0ZM5.95,13.27l-.75-.66c1.01,0,1.41,0,2.41,0,.15,0,.27-.03.35-.17.1.15.2.17.36.17h4.47l-.76.66s-2.83,0-3.91,0c-.13,0-.2-.12-.28-.21-.1.12-.21.21-.37.21-1.16,0-1.53,0-1.53,0ZM6.46,13.6h.9c.13,0,.28-.09.33-.18.02.14.21.18.37.18h3.46c-.49.26-1.16.51-1.71.59-.54.09-1.1.09-1.64,0-.55-.09-1.22-.33-1.72-.59Z" style="fill: #fff;"/>
</svg>