<svg xmlns="http://www.w3.org/2000/svg" viewBox="0 0 18 18">
  <g clip-path="url(#a)">
    <path fill="#1F36C7" d="M0 0h18v18H0V0Z"/>
    <path fill="#fff" fill-rule="evenodd" d="M10.167 12.9c-.038-.068-.01-.183-.115-.183-.067 0-.077.057-.087.105a1.2 1.2 0 0 0-.384-.067.75.75 0 0 0-.211.029c-.039-.067-.212-.202-.356-.25-.057.317-.336.557-.749.596-.019.201-.182.259-.307.259-.087 0-.23-.029-.24-.067a.658.658 0 0 0-.375-.5c0 .03.01.068.01.096 0 .25-.173.404-.49.404-.048 0-.115 0-.163-.01.365.404.624.26.787.336.221.096.404.413 1.114.413a1.4 1.4 0 0 0 .692-.21c.029.105.134.2.317.2.298 0 .47-.095.47-.172 0-.02 0-.048-.057-.048-.048 0-.048.01-.211.01a.679.679 0 0 1-.644-.413c-.029-.058-.067-.058-.077-.058-.096 0-.25.346-.855.346-.259 0-.374-.096-.374-.116 0 0 0-.01.01-.01.028 0 .115.01.23.01.384 0 .691-.182.884-.384.067-.077.096-.086.153-.086.048 0 .096.038.125.105.087.221.288.404.5.404.288 0 .297-.5.365-.528.01 0 .028.01.038.01a.086.086 0 0 0 .087-.087c.01-.077-.077-.096-.087-.135Zm-.48.374a.131.131 0 0 1-.135-.135c0-.076.058-.144.135-.144.077 0 .134.068.134.135.01.086-.057.144-.134.144Z" clip-rule="evenodd"/>
    <path fill="#fff" fill-rule="evenodd" d="M8.688 11.94c.067 0 .096.057.105.115a.11.11 0 0 1 .077-.03c.068 0 .106.049.106.107a.1.1 0 0 1-.048.086c.038.02.067.048.067.086 0 .048-.038.087-.096.087-.048 0-.086-.058-.134-.058-.03 0-.068.01-.077.03a.333.333 0 0 1 .029.134c0 .25-.337.451-.692.451-.346 0-.48-.202-.48-.288 0-.02.01-.029.038-.029.058 0 .067.02.23.02.375 0 .24-.481.596-.481.048 0 .154.029.192.096a.137.137 0 0 0 .039-.096c0-.058-.039-.096-.039-.144 0-.048.039-.077.087-.086Zm-2.228-.25c.422 0 .749.355.749.864 0 .23-.125.567-.634.567-.605 0-.97-.51-.97-.836 0-.279.182-.451.297-.48-.125.5.154.98.711.98.279 0 .413-.135.413-.375 0-.27-.182-.528-.5-.528-.153 0-.268.086-.268.21 0 .203.173.327.355.327.115 0 .192-.048.192-.124 0-.01 0-.03-.01-.039-.009.01-.038.01-.076.01-.144 0-.26-.077-.26-.164 0-.067.048-.105.106-.105.211 0 .355.211.355.365 0 .153-.115.288-.307.288a.576.576 0 0 1-.595-.557c.01-.24.21-.403.441-.403Zm5.061 1.133a1.02 1.02 0 0 1-.653.22c-.192 0-.269-.057-.298-.057-.038 0-.076.038-.115.077a.734.734 0 0 0-.192.47c0 .135.106.27.307.27.654 0 1.134-.404 1.134-.72.01-.183-.106-.26-.183-.26Zm-.336.624-.374.106a.721.721 0 0 0 .048-.25c0-.029 0-.048-.01-.077h.048c.279 0 .394-.106.413-.106.02 0 .038.01.038.068 0 .077-.038.182-.163.26Z" clip-rule="evenodd"/>
    <path fill="#fff" fill-rule="evenodd" d="M10.964 12.9a.564.564 0 0 0 .375-.116c.029-.02.038-.058.038-.096v-.077c0-.096-.153-.154-.365-.154-.25 0-.384.116-.384.164v.153c0 .058.144.125.336.125Zm1.172-1.633c-.509 0-.374.432-.97.567-.106.019-.144.057-.144.105 0 .087.048.202.115.202.26 0 .653-.528.73-.528.029 0 .058 0 .058.077 0 .192-.557.442-.557.576 0 .077.192.25.393.25.279 0 .529-.557.586-.557.048 0 .058.029.058.067 0 .154-.192.451-.519.576-.067.029-.076.058-.076.077 0 .077.086.182.163.182.096 0 .74-.557.74-.998.019-.413-.298-.596-.577-.596Zm.23.48c-.038 0-.076-.01-.095-.028a.21.21 0 0 1-.125-.183c0-.096.048-.125.096-.125.144 0 .307.125.307.23 0 .087-.077.106-.182.106Zm-4.802.231h-.086a.22.22 0 0 1-.106-.029c-.058-.048-.077-.307-.173-.461-.115-.173-.24-.22-.403-.22-.116 0-.25.066-.25.162 0 .058.029.096.25.154.278.067.413.221.441.394.03.173.058.307.125.374a.59.59 0 0 0 .404.183c.125 0 .22-.039.22-.154-.009-.125-.182-.403-.422-.403Zm.183.374c-.106 0-.26-.105-.26-.172 0-.048.048-.077.087-.077.086 0 .24.105.24.192 0 .029-.02.057-.067.057Zm1.911-.73c-.067 0-.067.106-.067.144 0 .039 0 .048-.03.048-.028 0-.047-.01-.076-.01-.02 0-.038.02-.038.049 0 .144.182.26.365.26.24 0 .355-.106.422-.106.03 0 .039.028.039.048 0 .038-.039.086-.039.105 0 .058.116.01.116.077 0 .086-.145.154-.365.154-.433 0-.711-.298-.711-.577 0-.518.557-.355.557-.557 0-.067-.067-.105-.115-.105.057-.077.134-.087.21-.087.059 0 .116.01.164.01.067 0 .135-.029.135-.106 0-.048-.039-.105-.202-.125.02-.105.24-.048.24-.144 0-.067-.125-.115-.278-.115-.596 0-1.019.49-1.019 1.018 0 .48.346 1.009.99 1.009a.9.9 0 0 0 .922-.894c-.116.106-.423.135-.576.135-.452.01-.577-.23-.644-.23Z" clip-rule="evenodd"/>
    <path fill="#fff" fill-rule="evenodd" d="M10.148 11.69a.162.162 0 0 0 .163-.164c0-.134-.134-.26-.336-.26.038.04.048.068.048.107 0 .048-.029.105-.029.163 0 .086.058.154.154.154Zm.97-.654a.184.184 0 0 1 .038.116c0 .096-.067.192-.067.288 0 .115.087.211.221.211.144 0 .24-.115.24-.25-.01-.192-.173-.345-.432-.365Zm-.692-.365a.27.27 0 0 1 .068.183c0 .154-.116.307-.116.451 0 .192.125.317.308.317.192 0 .307-.163.307-.345 0-.26-.202-.538-.567-.606Zm.27.548a.086.086 0 0 1-.087-.087c0-.028.02-.067.02-.105.009-.048 0-.087.028-.087.057 0 .125.106.125.173 0 .058-.03.106-.087.106Zm-2.219-.414c-.154-.057-.221-.144-.26-.326a.519.519 0 0 0-.115.259c0 .23.317.23.317.384 0 .087-.163.183-.375.183-.24 0-.413-.039-.566-.192-.039-.039-.058-.077-.106-.077-.058 0-.087.096-.087.192 0 .326.317.72.76.72.547 0 .768-.375.768-.682.01-.182-.03-.346-.336-.46Zm-.154.922c-.048 0-.058-.019-.058-.067 0-.029.01-.087.01-.135 0-.115.048-.105.163-.163.087-.038.115-.086.144-.086.029 0 .058.019.058.067 0 .173-.192.384-.317.384Z" clip-rule="evenodd"/>
    <path fill="#fff" fill-rule="evenodd" d="M7.775 10.248c-.057 0-.153-.057-.25-.134a.59.59 0 0 0-.182.413c0 .336.356.615.701.615.058 0 .116-.01.173-.02a.328.328 0 0 1-.307-.336c0-.22.25-.422.25-.595 0-.212-.26-.23-.26-.404 0-.144.25-.25.24-.48 0-.135-.134-.298-.317-.394a.47.47 0 0 1 .048.183c0 .269-.518.384-.518.595 0 .269.5.375.5.5 0 .028-.02.057-.078.057Zm5.235.173c.173 0 .308.221.308.48 0 .28-.135.577-.365.788 0-.46-.567-.317-.567-.653a.23.23 0 0 1 .23-.24.35.35 0 0 1 .26.096.33.33 0 0 1-.096-.22c0-.126.077-.25.23-.25Zm-6.8.471c-.048.01-.087.019-.116.048-.028-.106-.124-.202-.259-.173a.223.223 0 0 0-.182.26.2.2 0 0 0 .019.067s-.02 0-.039.01c-.096.018-.21.114-.192.258.02.125.125.212.25.202a.324.324 0 0 0 .115-.038c.03.115.125.182.25.173a.233.233 0 0 0 .202-.25.149.149 0 0 0-.02-.077h.03c.124-.029.21-.125.201-.25-.038-.153-.144-.25-.26-.23Zm-.25.47c-.077.01-.135-.048-.144-.115-.01-.077.038-.144.115-.153.077-.01.135.048.144.115.01.077-.038.144-.115.153Zm6.474-1.047c0-.048.115-.163.115-.202a.02.02 0 0 0-.02-.019c-.047 0-.21.125-.45.125-.097 0-.164-.01-.164-.086 0-.068.058-.125.154-.164.105-.048.317-.048.317-.096 0-.038-.202-.038-.202-.077 0-.048.077-.163.077-.21 0 0 0-.02-.01-.02-.038 0-.134.115-.192.115-.057 0-.105-.144-.153-.144-.01 0-.03.01-.03.039 0 .057.03.163.03.307 0 .125-.068.23-.135.23-.086 0-.115-.105-.115-.192 0-.125.067-.269.067-.403 0-.029-.01-.039-.029-.039-.048 0-.125.145-.182.145-.039 0-.106-.173-.164-.173-.01 0-.019.028-.019.067 0 .048.01.115.01.144 0 .038-.048.048-.106.048-.038 0-.115 0-.115.029s.077.057.144.105c.125.087.327.173.327.375 0 .183-.26.308-.442.346-.087.01-.173.029-.173.058 0 .038.23.048.23.096 0 .028-.105.163-.105.201 0 .01.01.01.01.01.038 0 .153-.096.201-.096.067 0 .058.202.106.202.057 0 .038-.298.057-.375.039-.134.135-.269.221-.269.106 0 .115.183.115.269 0 .173-.124.355-.124.442 0 .01.01.019.019.019.038 0 .125-.115.173-.115.048 0 .153.192.192.192.02 0 .029-.02.029-.039 0-.057-.03-.153-.03-.21 0-.068.222-.03.222-.078 0-.019-.096-.057-.154-.096-.125-.077-.269-.24-.269-.374 0-.048.029-.087.067-.087.27 0 .385.413.433.413.048 0 .019-.182.038-.211.01-.01.038-.02.067-.02.048 0 .106.01.144.01.03 0 .039 0 .039-.01-.01-.057-.221-.124-.221-.182Z" clip-rule="evenodd"/>
    <path fill="#fff" fill-rule="evenodd" d="M11.368 10.2c0-.086-.375-.374-.452-.374-.019 0-.029.01-.029.028 0 .03.01.068.01.096 0 .068-.029.077-.096.077-.077 0-.202-.029-.202-.153 0-.24.461-.183.51-.404-.202 0-.298-.134-.433-.134a.142.142 0 0 0-.144.153c0 .039.01.106.01.164 0 .057-.01.096-.077.096-.058 0-.067-.068-.067-.144 0-.068.01-.144.01-.192 0-.356-.395-.212-.433-.5a.819.819 0 0 0-.125.403c0 .375.51.337.51.596 0 .067-.049.106-.097.106-.086 0-.144-.183-.278-.183-.068 0-.116.048-.116.154 0 .077.02.134.02.211 0 .154-.068.221-.135.288.461-.038.49-.384.624-.384.039 0 .058.029.058.048 0 .058-.096.154-.096.25 0 .125.144.192.24.192.115 0 .154-.038.154-.115 0-.087-.154-.202-.154-.298 0-.048.048-.058.115-.058.144 0 .192.02.192.048 0 .039-.057.116-.057.135 0 .01.01.038.038.038.106.02.5-.067.5-.144ZM6.517 8.904a.878.878 0 0 0-.086.385c0 .585.7 1.133.7 1.498 0 .144-.105.317-.297.317a.259.259 0 0 1-.269-.25c0-.086.058-.163.087-.163.01 0 .01.01.01.029 0 .048.038.115.114.105.077 0 .116-.048.116-.115 0-.288-.577-.788-.577-1.47-.028.077-.067.173-.067.317 0 .327.24.673.24.99 0 .125-.096.24-.22.24a.183.183 0 0 1-.193-.183c0-.048.02-.096.039-.096s.01.077.086.077c.087 0 .115-.057.115-.163 0-.288-.163-.49-.163-.788 0-.048 0-.096.01-.134-.087.105-.096.26-.096.394v.355c0 .24-.116.346-.26.346-.096 0-.182-.077-.182-.202 0-.02.01-.077.029-.077.028 0 .048.077.124.077.154 0 .164-.144.164-.442-.02-.365.115-.759.576-1.047Z" clip-rule="evenodd"/>
    <path fill="#fff" fill-rule="evenodd" d="M5.566 8.731c.048 0 .067.048.067.086 0 .164-.21.644-.21.778 0 .02.009.039.028.039.086 0 .26-.375.317-.557.029-.096.077-.144.115-.144.039 0 .067.038.067.115 0 .182-.173.624-.326.912-.115.23-.308.557-.308.74 0 .096.02.192.154.307-.22-.01-.317-.038-.403-.201-.375.73.691.662.326 1.316-.067-.116-.595-.24-.595-.922 0-.586.528-.932.528-1.182 0-.048-.02-.086-.067-.125-.115-.096-.115-.173-.212-.173-.067 0-.144.154-.067.288.03.049.048.077.048.116 0 .096-.153.355-.26.355-.105 0-.191-.269-.191-.691 0-.375.086-.76.192-.76.029 0 .038.02.038.049 0 .048-.01.134-.01.288 0 .163.04.173.068.173.115 0 .096-.72.288-.72.048 0 .058.047.058.095 0 .164-.077.404-.077.529 0 .067.02.086.048.086.096-.01.24-.797.384-.797Zm7.809.941c-.163 0-.25.288-.413.298.096-.413.51-.634.51-1.018 0-.442-.366-.596-.52-.692-.25-.365-.432-.653-.845-.653-.173 0-.288.029-.403.029-.23 0-.308-.087-.317-.087 0 0-.01 0-.01.02 0 .326.173 1.056.903 1.056.394 0 .557-.154.653-.154a.46.46 0 0 1 .413.48c0 .202-.163.414-.22.414-.058 0-.116-.096-.116-.192 0-.106.058-.308.058-.433 0-.048-.01-.067-.039-.067-.057 0-.355.192-.355.423 0 .201.298.326.413.384a1.683 1.683 0 0 0-.23.48c0-.134-.125-.394-.164-.509-.182-.519-.25-.615-.643-.663.057.212.73.711.73 1.22 0 .029 0 .077-.01.096-.202-.595-.547-.74-.672-.883-.202-.23-.087-.452-.413-.577.019.03.028.068.028.096 0 .116-.057.25-.057.346 0 .365.413.25.663.452.24.192.374.509.47.864.096-.154.154-.346.317-.346.106 0 .144.135.144.24v.048a.775.775 0 0 0 .25-.528c-.01-.077-.048-.144-.125-.144Zm-.653-1.354c-.038 0-.096-.02-.144-.02-.115 0-.202.164-.26.164-.019 0-.028-.02-.028-.039 0-.067.115-.144.115-.192 0-.029-.048-.038-.067-.038-.115 0-.279.163-.375.163-.019 0-.038-.01-.038-.029 0-.048.125-.105.125-.153s-.048-.048-.087-.048c-.057 0-.173.028-.24.028-.038 0-.067-.01-.067-.038 0-.067.22-.029.22-.106 0-.038-.066-.115-.066-.153 0-.02.019-.03.038-.03.077 0 .163.222.25.222.038 0 .048-.029.048-.077s-.01-.067-.01-.106c0-.038.02-.048.029-.048.058 0 .106.308.269.308.067 0 .019-.192.086-.192.039 0 .048.057.048.086.02.202.202.211.202.288-.01-.01-.02.01-.048.01Zm-2.296-.452c.077 0 .135.058.135.125s-.058.125-.135.125c-.067 0-.134-.058-.134-.125s.067-.125.134-.125Zm.884 1.21c-.067 0-.134.058-.134.125 0 .077.067.125.134.125a.131.131 0 0 0 .134-.134c0-.067-.057-.115-.134-.115Zm-.442-.24a.236.236 0 0 0-.24.23c0 .126.106.231.24.231.135 0 .24-.105.24-.23a.236.236 0 0 0-.24-.23Zm-.422-.105a.131.131 0 0 0-.135.134c0 .077.067.135.135.135a.131.131 0 0 0 .134-.135.131.131 0 0 0-.134-.134Zm.845.211c.086 0 .163-.067.163-.154 0-.086-.077-.153-.163-.153-.087 0-.164.067-.164.153 0 .077.077.154.164.154Zm-1.249-.49c-.105 0-.202.087-.202.192 0 .106.087.192.202.192.106 0 .202-.086.202-.192a.208.208 0 0 0-.202-.192Zm.72.144c0 .077.058.135.135.135a.131.131 0 0 0 .134-.135.131.131 0 0 0-.134-.134.137.137 0 0 0-.135.134Zm-.268.039a.205.205 0 0 0 .21-.202.205.205 0 0 0-.21-.202.205.205 0 0 0-.212.202c0 .106.087.202.212.202Zm.768-.135a.148.148 0 0 0 .144-.144c0-.077-.067-.144-.144-.134a.148.148 0 0 0-.144.144c0 .077.067.134.144.134ZM10.1 8.308a.131.131 0 0 0 .134-.134.131.131 0 0 0-.134-.135.131.131 0 0 0-.135.135c-.01.076.058.134.135.134Zm.787-.01a.215.215 0 0 0 .221-.21.215.215 0 0 0-.22-.212.215.215 0 0 0-.222.211c0 .115.096.212.221.212Zm.164-.499c.076 0 .134-.058.134-.125s-.058-.125-.134-.125c-.077 0-.135.058-.135.125.01.077.067.125.135.125Zm-3.881.173c.087 0 .24.144.279.298-.02 0-.039-.01-.048-.01-.115 0-.173.106-.26.288.202-.134.385-.24.596-.24.182 0 .327.106.327.27a.554.554 0 0 1-.077.22c-.03-.154-.154-.22-.375-.22-.125 0-.278.018-.403.066.393.058.451.192.451.317 0 .212-.22.317-.365.385.01-.058.029-.125.029-.193 0-.124-.048-.278-.25-.413-.029.135-.144.221-.144.327 0 .038.029.058.048.058 0 .057-.029.23-.029.278 0 .087.02.106.068.115.028.077.028.212.048.279.01.038.038.048.067.048.029.067.067.173.125.211.01.01.029.039.029.058 0 .058-.097.125-.154.125-.02 0-.048-.01-.077-.077-.02-.048-.192-.154-.202-.211.01-.01.02-.03.02-.058 0-.096-.154-.202-.154-.355a.08.08 0 0 0 .038-.068c0-.086-.086-.25-.086-.365.038 0 .057 0 .057-.057.01-.115.03-.279.135-.375-.029 0-.058-.01-.096-.01-.211 0-.528.116-.653.385-.01-.039-.01-.077-.01-.115 0-.221.135-.365.24-.413a.52.52 0 0 1 .183-.03c.115 0 .24.02.374.049-.115-.154-.297-.26-.451-.26-.067 0-.125.02-.144.077-.01-.029-.01-.077-.01-.115 0-.163.058-.26.202-.26.211 0 .403.25.509.48v-.028c0-.327.01-.49.144-.5l.02.039ZM4.5 8.52c0 .26.086.384.23.384.116 0 .27-.077.452-.23a1.82 1.82 0 0 1-.346.048c-.125 0-.23-.048-.336-.202Zm.999-.355c-.087.019-.25.115-.25.288 0 .125.096.201.221.201.067 0 .115-.01.144-.038a.404.404 0 0 1-.134-.298c0-.067.01-.115.019-.153Zm.298-.279a.642.642 0 0 0-.164.394c0 .182.116.336.298.336.173 0 .26-.144.26-.288.01-.23-.212-.394-.394-.442Zm-1.172.327v.048c0 .163.086.25.211.25.087 0 .192-.049.288-.164-.038.01-.086.01-.125.01-.144.01-.288-.03-.374-.144Zm.71-.884a.73.73 0 0 0-.412.106c-.308.192-.27.5-.317.586-.01.01-.01.019-.01.038 0 .029.038.067.067.067.03 0 .048-.01.058-.01.086 0 .182.058.326.058a.712.712 0 0 0 .653-.567c0-.067-.057-.057-.095-.115-.048-.057-.03-.115-.058-.144-.02-.019-.067-.019-.135-.019h-.076Zm-.21.682c-.116 0-.25-.144-.25-.269 0-.067.057-.154.096-.154.01 0 .019.01.028.039a.39.39 0 0 0 .24.307c.01.01.02.01.02.02-.01.028-.077.057-.135.057Zm.422-.317c0 .048-.029.106-.086.106-.125 0-.221-.183-.231-.289 0-.067.038-.067.096-.067.029 0 .038 0 .058.01.028.019.028.086.067.134.029.039.096.077.096.106Zm.269-.154c0 .077.067.135.144.135.077 0 .144-.058.144-.135 0-.077-.067-.134-.144-.134-.077-.01-.144.057-.144.134Zm-.048-.173c.077 0 .144-.057.144-.134 0-.077-.067-.135-.144-.135-.077 0-.144.058-.144.135.01.067.067.134.144.134Zm-.97-.067c.125 0 .23-.077.23-.077-.211-.057-.326-.201-.326-.403v-.058c-.135.058-.192.164-.192.27.01.162.134.268.288.268Zm.624-.154a.639.639 0 0 0 .029-.201c0-.164-.077-.413-.327-.413a.23.23 0 0 0-.24.23c.01.279.298.384.538.384Zm7.896-.086c-.154.307-.538.374-.663.355.038.317.509.74.634.73.086-.01.115-.413.115-.73 0-.182.01-.326-.086-.355Zm.01-.298c0-.115-.049-.202-.183-.221a.175.175 0 0 1 .028.106c0 .182-.268.384-.566.384-.106 0-.144.077-.135.115 0 .096.087.135.212.135.336-.01.643-.279.643-.52Z" clip-rule="evenodd"/>
    <path fill="#fff" fill-rule="evenodd" d="M12.607 6.906c.134 0 .422-.115.422-.269 0-.048-.019-.096-.096-.096-.105 0-.25.106-.393.106-.048 0-.106 0-.164-.02.058.039.048.135.077.202.048.077.106.077.154.077Zm-1.806.077c0 .308-.211.433-.403.433a.266.266 0 0 1-.125-.03c.038-.038.077-.095.077-.134 0-.028-.02-.038-.048-.038-.02 0-.068.01-.106.01-.096 0-.173-.039-.26-.125a.58.58 0 0 0-.086.317c0 .182.067.365.144.374.039 0 .039-.125.106-.125.019 0 .096.058.26.058.24 0 .508-.144.508-.519-.01-.048-.029-.163-.067-.22Z" clip-rule="evenodd"/>
    <path fill="#fff" fill-rule="evenodd" d="M10.254 6.79c.048 0 .144.02.172.068-.038.02-.076.067-.076.106 0 .019.01.038.028.048a.335.335 0 0 1 .164.163c.153-.086.21-.327.21-.461 0-.039 0-.096-.038-.096-.028 0-.057.038-.096.038-.028 0-.115-.115-.326-.115a.33.33 0 0 0-.346.336c0 .039.01.087.02.115.047-.096.143-.201.288-.201Zm-2.431.202c-.173 0-.326.144-.441.337.01-.039.01-.077.01-.116 0-.269-.145-.5-.404-.5a.504.504 0 0 0-.49.375.286.286 0 0 1 .154-.067c.067 0 .086.058.086.154 0 .058-.01.134-.038.202-.039.115-.116.144-.154.144-.163 0-.087-.279-.173-.279-.067 0-.086.154-.086.211 0 .193.124.394.403.394.298 0 .461-.144.634-.326.038.201.144.557.442.557.163 0 .278-.135.288-.298a.122.122 0 0 1-.087.038c-.057 0-.076-.086-.076-.163 0-.125.038-.26.096-.26.028 0 .048.02.057.116.01.067 0 .154.048.154s.068-.144.068-.23c-.01-.25-.116-.452-.337-.443Zm-.989.654c-.029 0-.038-.03-.038-.048 0-.135.144-.73.25-.73.019 0 .028.019.028.048 0 .105-.125.73-.24.73Zm.442-.26c-.087.096-.135.144-.173.144-.02 0-.038-.038-.038-.077 0-.067.048-.345.153-.345.039 0 .067.077.067.144 0 .057 0 .096-.01.134Zm.202.24c-.03 0-.058-.057-.058-.173.058-.096.086-.134.125-.134.01 0 .029.01.029.067-.01.125-.058.24-.096.24Zm.172.202c-.019 0-.038-.029-.038-.106 0-.182.115-.518.183-.518.019 0 .028.048.028.096.01.201-.086.528-.173.528Zm4.41-1.229c-.068 0-.174.077-.25.077-.106 0-.077-.144-.193-.144a.155.155 0 0 0-.086.029c-.24.124-.432.076-.47.105-.01.01-.02.01-.02.039 0 .269.269.672.71.672.308 0 .558-.106.558-.288-.01-.154-.154-.49-.25-.49Zm-.28.519c-.249 0-.403-.144-.403-.23 0-.01.01-.02.02-.02.038 0 .144.058.288.077.163.029.25.029.297.029.048 0 .068.01.068.028-.01.048-.125.116-.27.116Zm1.624-2.133c-.173 0-.192-.048-.307-.048-.135 0-.23.096-.23.24 0 .048.018.125.018.221 0 .115-.019.23-.125.23-.096 0-.134-.067-.134-.144 0-.134.067-.23.067-.316 0-.164-.192-.212-.403-.212-.25 0-.519.067-.519.106 0 .058.355.02.615.355-.163 0-.48.077-.48.125 0 .058.576.115.576.356 0 .153-.125.172-.173.172-.192 0-.288-.201-.336-.201-.01 0-.029.01-.029.029 0 .028.029.115.029.201 0 .221-.24.24-.24.288 0 .02.01.02.038.03.173.028.355.038.519.038.615 0 1.104-.192 1.104-.73 0-.298-.096-.394-.096-.538-.019-.048.02-.154.106-.202Zm-.855 1.172h-.125c.394-.067.615-.298.615-.605a.22.22 0 0 1 .144.211c-.01.183-.173.394-.634.394Zm.548-.932a.086.086 0 0 1-.087-.086c0-.048.039-.087.087-.087.048 0 .086.039.086.087a.086.086 0 0 1-.086.086Z" clip-rule="evenodd"/>
    <path fill="#fff" fill-rule="evenodd" d="M11.012 4.87c-.23 0-.403.115-.5.115-.057 0-.134-.135-.182-.135-.019 0-.038.039-.038.096v.02c0 .047-.01.134-.038.134-.087 0-.414-.23-.414-.154 0 .077.221.317.221.375 0 .057-.21.115-.21.163 0 .077.23.086.23.183 0 .096-.24.172-.24.24 0 .057.24.019.24.086 0 .067-.173.307-.173.375 0 .019 0 .019.019.019.067 0 .269-.221.317-.221.058 0 .067.134.077.211.01.039.01.048.029.048.038 0 .105-.153.153-.153.067 0 .24.182.538.182.423 0 .816-.288.816-.797.01-.5-.355-.788-.845-.788Zm-.586 1.094c-.01 0-.019-.01-.019-.029l-.01-.134c0-.01-.01-.029-.028-.029h-.144c-.02 0-.03 0-.03-.01 0-.028.145-.124.145-.143 0-.039-.135-.106-.135-.154 0-.01.01-.01.02-.01.038 0 .105.01.153.01s.048-.192.087-.192c.029 0 .067.182.105.182.048 0 .125-.048.164-.048.01 0 .01 0 .01.01 0 .019-.087.115-.087.144 0 .029.192.067.192.096 0 .038-.202.029-.202.058 0 .019.077.115.077.153 0 .01 0 .01-.01.01-.028 0-.134-.048-.163-.048-.038 0-.096.134-.125.134Zm.596.298c-.24 0-.404-.115-.404-.182 0-.03.02-.048.048-.048.077 0 .24.115.298.115.01 0 .03-.01.03-.029 0-.058-.059-.163-.059-.211 0-.01.01-.02.03-.02.095 0 .23.039.307.039.028 0 .028-.01.028-.029 0-.077-.23-.22-.23-.269 0-.038.278-.106.278-.163 0-.067-.384-.02-.384-.087 0-.048.077-.124.077-.163 0-.02-.01-.02-.038-.02-.03 0-.202.068-.27.068-.038 0-.076-.01-.076-.058 0-.076.134-.163.346-.163.345 0 .547.23.547.615.01.48-.336.605-.528.605Zm-3.65-.412c.134 0 .538.182.72.182.068 0 .106-.039.106-.077 0-.211-.567-.586-.576-.74 0-.019.01-.028.019-.038.096-.106.5-.173.5-.26 0-.047-.087-.047-.126-.047-.326 0-.797.115-.797.23s.423.404.423.548c0 .038-.029.048-.067.048-.116 0-.375-.144-.5-.144-.057 0-.077.038-.077.096 0 .163.202.48.202.576 0 .01 0 .029-.02.029-.066 0-.355-.346-.46-.346-.039 0-.039.048-.039.125v.115c0 .077 0 .125-.038.125-.087 0-.135-.25-.221-.25s-.106.452-.192.452c-.106 0-.02-.49-.115-.49-.106 0-.23.326-.308.326-.029 0-.038-.028-.038-.048 0-.096.058-.259.058-.355 0-.048-.01-.077-.058-.077-.106 0-.346.173-.432.173-.01 0-.03-.01-.03-.02 0-.086.385-.345.385-.46 0-.115-.528-.039-.528-.173 0-.106.374-.221.374-.336 0-.096-.441-.144-.614-.144-.202 0-.317.028-.317.086 0 .087.47.115.47.192s-.49.279-.49.394c0 .106.682.01.682.115 0 .116-.595.625-.595.797 0 .039.029.058.067.058.183 0 .653-.346.778-.346.048 0 .048.058.048.106 0 .086-.029.23-.029.327 0 .076.02.134.087.134.125 0 .25-.22.336-.22.115 0 .048.633.211.633.144 0 .202-.692.288-.692.087 0 .164.202.25.202.106 0 .058-.346.163-.346.125 0 .471.413.634.413.048 0 .068-.038.068-.086 0-.183-.26-.596-.26-.73.01-.048.02-.058.058-.058Z" clip-rule="evenodd"/>
    <path fill="#fff" fill-rule="evenodd" d="M7.593 6.09a.02.02 0 0 0-.02.019c0 .125.442.71.52.71.067 0 .124-.124.124-.22a.181.181 0 0 0-.019-.077c-.067-.096-.51-.432-.605-.432Zm-2.584-.337c0-.028-.058-.038-.106-.038a.436.436 0 0 0-.23.058c-.039.028-.067.125-.067.192 0 .038.01.077.048.077.086.01.355-.221.355-.289Zm.624-.432c.077 0 .202-.038.289-.038.048 0 .096.01.096.057 0 .087-.193.24-.193.308 0 .019.02.029.039.029.067 0 .192-.173.298-.173.182 0 .067.394.163.394.106 0 .058-.385.211-.385.125 0 .212.27.298.27.02 0 .038-.02.038-.04 0-.076-.105-.22-.105-.316 0-.058.038-.087.096-.087.077 0 .192.048.25.048.019 0 .038-.01.038-.028 0-.087-.307-.173-.307-.279 0-.106.173-.106.173-.154 0-.019-.106-.038-.25-.038-.23 0-.192.183-.375.183-.182 0-.134-.193-.365-.193-.144 0-.269.03-.269.058 0 .038.164.02.164.135 0 .124-.356.153-.356.23 0 .01.029.02.067.02Zm2.2-.048c0 .058.22.192.317.192.058 0 .077-.077.077-.163 0-.106-.048-.106-.135-.106-.115 0-.259.03-.259.077Z" clip-rule="evenodd"/>
  </g>
  <defs>
    <clipPath id="a">
      <path fill="#fff" d="M0 0h18v18H0z"/>
    </clipPath>
  </defs>
</svg>
