<svg xmlns="http://www.w3.org/2000/svg" viewBox="0 0 18 18">
  <g clip-path="url(#a)">
    <path fill="#2C64EC" d="M0 0h18v18H0V0Z"/>
    <path fill="#fff" d="M4.731 11.596C3.456 11.596 3 10.878 3 10.023v-2.97c0-.12.104-.231.226-.231h.36c.124 0 .226.111.226.233v3.053c0 .773.428.981.936.981.672 0 .936-.343.936-.981V7.054c0-.12.103-.234.226-.234h.317c.124 0 .226.112.226.234v2.97c0 .988-.6 1.572-1.722 1.572Zm5.799-.102h-.356a.226.226 0 0 1-.229-.224V9.365H8.038v1.9a.227.227 0 0 1-.225.229h-.36a.226.226 0 0 1-.228-.224V7.05c0-.124.097-.224.221-.229h.37a.23.23 0 0 1 .222.229v1.717h1.907V7.05a.23.23 0 0 1 .223-.229h.37a.23.23 0 0 1 .222.229v4.215a.227.227 0 0 1-.225.229h-.005Zm4.33-.105c-.22.096-.563.238-1.28.238-1.172 0-2.222-.492-2.222-2.438 0-1.527.646-2.439 2.221-2.439.727 0 1.128.193 1.224.233.144.061.154.09.154.159a1.357 1.357 0 0 1-.023.156c-.023.118-.055.312-.075.416-.01.059-.017.139-.106.139-.071 0-.134-.085-.175-.125a1.39 1.39 0 0 0-1-.426c-1.117 0-1.306 1.072-1.306 1.887 0 1.124.364 1.886 1.306 1.886.36 0 .55-.059.607-.074V9.459c0-.093.055-.123.152-.123h.517c.108 0 .146.044.146.131v1.686c.001.16-.008.178-.14.236Z"/>
  </g>
  <defs>
    <clipPath id="a">
      <path fill="#fff" d="M0 0h18v18H0z"/>
    </clipPath>
  </defs>
</svg>
