<svg xmlns="http://www.w3.org/2000/svg" viewBox="0 0 18 18">
  <g clip-path="url(#a)">
    <path fill="#F0C342" d="M0 0h18v18H0V0Z"/>
    <path fill="#00339A" d="M11.333 4.035a4.813 4.813 0 0 1-4.668 0L6.602 4 4.744 5.982l.063.06c.364.36.566.843.566 1.354 0 .502-.19.962-.39 1.448-.24.576-.483 1.17-.483 1.937 0 .822.362 1.6.992 2.137.75.64 1.535.69 2.162.732.57.037 1.02.067 1.268.492l.077.133.076-.133c.249-.425.7-.455 1.269-.492.63-.042 1.412-.093 2.164-.732.63-.536.992-1.315.992-2.137 0-.767-.246-1.361-.483-1.937-.202-.486-.39-.946-.39-1.448 0-.513.202-.994.566-1.354l.063-.06L11.398 4l-.065.035Z"/>
    <path fill="#fff" d="m12.868 9.02-.144-.355h-7.45c-.047.118-.096.235-.145.355-.218.53-.43 1.083-.43 1.766a2.585 2.585 0 0 0 .923 1.984c.114.097.232.179.348.248.228.14.45.233.676.293.23.063.453.095.674.116.092.01.188.017.278.021.137.01.27.019.397.03l.05.005c.146.016.283.037.408.074.077.021.149.05.218.084.126.063.237.146.335.265a.982.982 0 0 1 .334-.265 1.18 1.18 0 0 1 .219-.084 2.36 2.36 0 0 1 .408-.074l.05-.007c.125-.012.26-.02.396-.03.09-.005.186-.012.279-.021.218-.021.444-.053.671-.116a2.647 2.647 0 0 0 1.024-.544 2.74 2.74 0 0 0 .33-.334h-.002a2.59 2.59 0 0 0 .592-1.65c-.01-.678-.22-1.23-.439-1.76Z"/>
    <path fill="#CD0000" d="M5.273 8.665c-.046.118-.095.235-.144.355-.218.53-.43 1.083-.43 1.766 0 .627.224 1.201.595 1.652V8.665h-.02Zm.693 0v4.353c.227.14.45.233.675.293V8.665h-.675Zm1.347 0v4.765c.093.009.188.011.278.018.137.01.27.019.398.03V8.665h-.676Zm1.351 0v4.976c.126.063.237.146.335.265a.983.983 0 0 1 .334-.265V8.665h-.669Zm1.343 0v4.813c.125-.011.26-.02.397-.03.09-.005.186-.01.279-.018V8.665h-.676Zm1.347 0v4.646c.223-.063.448-.153.676-.293V8.665h-.676Zm1.368 0h-.021v3.77c.37-.448.595-1.024.595-1.651 0-.681-.212-1.234-.43-1.766-.049-.118-.095-.237-.144-.353Z"/>
    <path fill="#fff" fill-rule="evenodd" d="M8.309 7.378a.26.26 0 0 1 .262-.274c.075-.002.17.037.27.063v-.295a.562.562 0 0 0-.827.504.562.562 0 0 0 .827.506v-.295c-.1.026-.195.065-.27.063a.26.26 0 0 1-.262-.274v.002Z" clip-rule="evenodd"/>
    <path fill="#fff" d="M9.069 5.398h-.316v1.074h.316V5.398ZM7.5 6.472h.303V5.93h.004l.363.542h.346V5.398h-.328v.567h-.002l-.365-.567h-.32v1.074Zm-.55-1.076h.312v.598c0 .137-.005.271-.114.374-.09.088-.233.118-.358.118-.125 0-.267-.03-.358-.118-.106-.103-.113-.24-.113-.374v-.598h.31v.52c0 .14-.02.289.161.289s.16-.151.16-.288v-.52Z"/>
    <path fill="#fff" fill-rule="evenodd" d="M9.81 5.374c.315 0 .568.253.568.564a.567.567 0 0 1-.569.565.568.568 0 0 1-.569-.565c0-.311.256-.564.57-.564Zm-.268.564c0 .146.121.265.27.265.148 0 .27-.119.27-.265a.27.27 0 0 0-.539 0Z" clip-rule="evenodd"/>
    <path fill="#fff" d="M10.564 6.472h.304V5.93h.003l.364.542h.344V5.398h-.325v.567h-.005l-.364-.567h-.32v1.074Zm.332.353h-.316v1.076h.316V6.825Zm-.532.242v-.242h-.729v1.076h.318v-.374h.412v-.253h-.412v-.207h.412Zm-.968-.242H9.08v1.076h.316V6.825Z"/>
    <path fill="#fff" fill-rule="evenodd" d="M11.403 7.378a.26.26 0 0 1 .262-.274c.075-.002.17.037.27.063v-.295a.562.562 0 0 0-.827.504.562.562 0 0 0 .827.506v-.295c-.1.026-.196.065-.27.063a.26.26 0 0 1-.262-.274v.002Zm-4.26.522h-.3l.388-1.072h.356L7.975 7.9h-.3l-.065-.186h-.402l-.065.186Zm.265-.773-.114.344h.225l-.111-.344Zm-.518.061c0 .2-.163.362-.362.362H6.32v.348h-.295V6.825h.502c.2 0 .362.163.362.363Zm-.574-.124v.244h.188c.063 0 .114-.067.114-.13a.112.112 0 0 0-.111-.114h-.19Z" clip-rule="evenodd"/>
  </g>
  <defs>
    <clipPath id="a">
      <path fill="#fff" d="M0 0h18v18H0z"/>
    </clipPath>
  </defs>
</svg>
