<svg xmlns="http://www.w3.org/2000/svg" viewBox="0 0 18 18">
  <g clip-path="url(#a)">
    <path fill="#fff" d="M0 0h18v18H0V0Z"/>
    <g clip-path="url(#b)">
      <path fill="#00918C" d="m7.631 8.314 1.65 1.653h-.003a.434.434 0 0 0-.553 0v-.003L6.81 11.882a1.942 1.942 0 0 1-2.74 0h-.001a1.948 1.948 0 0 1 0-2.744l.86-.86a1.936 1.936 0 0 1 2.703.036Z"/>
      <path fill="#00ADA8" d="M13.935 11.88a1.943 1.943 0 0 1-2.742.001L9.281 9.966l-1.65-1.652a1.936 1.936 0 0 0-2.702-.037h-.001l2.56-2.563.108-.108.036-.036a1.941 1.941 0 0 1 2.74 0l.002.002 3.561 3.565c.754.755.754 1.99 0 2.744Z"/>
    </g>
  </g>
  <defs>
    <clipPath id="a">
      <path fill="#fff" d="M0 0h18v18H0z"/>
    </clipPath>
    <clipPath id="b">
      <path fill="#fff" d="M3.5 5h11v7.45h-11z"/>
    </clipPath>
  </defs>
</svg>
