<svg xmlns="http://www.w3.org/2000/svg" viewBox="0 0 18 18">
  <g clip-path="url(#a)">
    <path fill="#F3D711" d="M0 0h18v18H0V0Z"/>
    <path fill="#fff" fill-rule="evenodd" d="M8.707 6.829c-.007.486-.007.946-.418 1.374-.5.526-1.432.7-2.165.7a4.49 4.49 0 0 1-1.02-.11 2.65 2.65 0 0 1-.837-.33c-.76-.487-.767-1.09-.767-1.634V4.17h1.206v2.691c0 .409.089.752.548.96.39.175.74.162 1.096.149.46-.04.754-.156.946-.363.116-.13.219-.279.205-.74V4.17h1.206v2.66Zm.045 5.567c0 .265-.064.544-.228.771-.393.538-1.043.538-1.535.545H3.526V9.134h3.27c.521.013 1.156.026 1.5.474.178.233.2.486.2.648a.95.95 0 0 1-.2.61c-.208.246-.48.324-.636.362.314.078 1.092.253 1.092 1.168Zm4.254-5.56 1.466 1.912h-1.425l-1.295-1.841h-1.377v1.84H9.162V4.17h3.33c.548 0 1.049.046 1.453.487.247.272.315.616.315.882 0 .35-.123.765-.466 1.011-.26.188-.596.253-.788.285Zm1.494 6.883h-1.199l-2.398-2.58a15.53 15.53 0 0 1-.623-.72c.034.35.034.428.04.778v2.522H9.17V9.14h1.206l2.37 2.548c.288.318.343.383.644.74-.04-.435-.04-.552-.048-.947v-2.34H14.5v4.577Zm-1.466-8.167c0-.091-.014-.247-.096-.357-.09-.11-.206-.22-.685-.22h-1.878v1.121h1.932c.26 0 .727-.032.727-.544Zm-5.546 6.733c0-.55-.478-.55-.663-.55h-2.05v1.173h1.892c.286 0 .821.006.821-.623Zm-.2-1.86c0-.487-.406-.493-.606-.493H4.775v1.005h1.807c.15 0 .292-.007.407-.046.3-.11.3-.415.3-.466Z" clip-rule="evenodd"/>
  </g>
  <defs>
    <clipPath id="a">
      <path fill="#fff" d="M0 0h18v18H0z"/>
    </clipPath>
  </defs>
</svg>
