<svg xmlns="http://www.w3.org/2000/svg" viewBox="0 0 18 18">
  <g clip-path="url(#a)">
    <path fill="#fff" d="M0 0h18v18H0V0Z"/>
    <path fill="#00939A" fill-rule="evenodd" d="m8.84 13.896 4.663-5.97c-1.636 1.535-3.065.573-3.855-.07a14.283 14.283 0 0 1-.24-.195c-.76-.62-1.329-1.087-1.842-1.449a3.418 3.418 0 0 0-4.066.024l5.34 7.66Z" clip-rule="evenodd"/>
    <path fill="#ECB833" fill-rule="evenodd" d="M9.648 7.857c.79.642 2.219 1.604 3.855.07L14.5 6.5c-.895-.889-1.853-.391-2.92.128-.835.407-1.65.826-2.173 1.032l.24.196Z" clip-rule="evenodd"/>
  </g>
  <defs>
    <clipPath id="a">
      <path fill="#fff" d="M0 0h18v18H0z"/>
    </clipPath>
  </defs>
</svg>
