<svg xmlns="http://www.w3.org/2000/svg" viewBox="0 0 18 18">
  <g clip-path="url(#a)">
    <path fill="#50457E" d="M0 0h18v18H0V0Z"/>
    <path fill="#fff" d="M5.193 2.806C6.547 4.614 6.786 5.042 8.097 6.87c1.184 1.62 1.968 3.076 3.216 4.669.428.542 1.278 1.235 1.708 1.777.324.305.61.648.853 1.022"/>
    <path fill="#fff" d="M11.341 4.748c-.414.028-.627.25-.638.669A91.419 91.419 0 0 1 8.515 8.47c-1.309 1.929-1.942 3.971-2.926 5.993"/>
    <path fill="#fff" d="M2.664 7.47c2.32 1.022 5.162 1.579 7.749 2.21 2.184.532 4.353.8 6.587 1.15"/>
    <path fill="#fff" d="M8.77 4.525c-.086 1.24.014 2.652.148 3.887.083 1.08.392 2.256.54 3.333.144.667.826 1.988.707 2.524"/>
    <path fill="#fff" d="M2 7.321c.999.211 1.796.578 2.737.875 2.818.894 5.748 1.034 8.796 1.2"/>
  </g>
  <defs>
    <clipPath id="a">
      <path fill="#fff" d="M0 0h18v18H0z"/>
    </clipPath>
  </defs>
</svg>
