<svg xmlns="http://www.w3.org/2000/svg" viewBox="0 0 18 18">
  <g clip-path="url(#a)">
    <path fill="#E60000" d="M0 0h18v18H0V0Z"/>
    <g clip-path="url(#b)">
      <path fill="#fff" fill-rule="evenodd" d="M14.5 9a5.5 5.5 0 1 1-11 0 5.5 5.5 0 0 1 11 0Zm-8.528-.287c.007 2.059 1.57 3.34 3.071 3.335 1.854-.006 2.952-1.53 2.947-2.918-.005-1.389-.76-2.394-2.425-2.8a.57.57 0 0 1-.006-.089c-.004-1.05.788-1.976 1.783-2.182a1.395 1.395 0 0 0-.394-.043c-1.137.004-2.39.49-3.307 1.248-.94.776-1.673 2.088-1.67 3.45Z" clip-rule="evenodd"/>
    </g>
  </g>
  <defs>
    <clipPath id="a">
      <path fill="#fff" d="M0 0h18v18H0z"/>
    </clipPath>
    <clipPath id="b">
      <path fill="#fff" d="M3.5 3.5h11v11h-11z"/>
    </clipPath>
  </defs>
</svg>
