<svg xmlns="http://www.w3.org/2000/svg" viewBox="0 0 18 18">
  <g clip-path="url(#a)">
    <path fill="#0C1D45" d="M0 0h18v18H0V0Z"/>
    <path fill="#A6BDD3" d="M8.22 4h.104c-.026.2-.04.402-.055.604-.01.13-.019.26-.031.39-.169.014-.337.034-.506.054l-.216.025c.038-.321.093-.64.156-.957.181-.043.364-.081.548-.116ZM5.145 5.863c.126-.06.252-.12.385-.162l-.046.139c-.058.171-.115.343-.164.518-.2.067-.395.15-.59.232l-.22.091a4.33 4.33 0 0 1 .378-.627l.015-.02a.307.307 0 0 1 .117-.112l.125-.059Zm6.876 1.544c-.414-.039-.829-.07-1.244-.096.013.134.015.269.018.403.003.145.006.289.021.432.214.003.427.011.64.02.213.007.427.015.64.018-.017-.26-.042-.519-.075-.777Zm-4.366.817c.154-.002.308-.005.462-.014.003.527.003 1.053 0 1.58-.15-.008-.3-.011-.45-.014a12.854 12.854 0 0 1-.399-.01c-.005-.51-.005-1.02 0-1.531.128-.006.257-.009.387-.01v-.001Zm-2.09 2.412c-.127-.015-.254-.03-.38-.043.052.333.115.667.215.99.09.024.18.052.27.08.14.043.28.087.426.114a11.902 11.902 0 0 1-.205-1.102 25.5 25.5 0 0 1-.326-.039Zm7.722.764.198-.083c-.106.23-.248.441-.392.648l-.004.005a.303.303 0 0 1-.116.11 6.561 6.561 0 0 1-.509.22l.074-.226c.048-.142.096-.285.134-.431.21-.07.412-.157.615-.243Zm-3.578.8c-.475.015-.95.019-1.425-.002.006.085.009.17.012.256.006.156.012.313.034.468.447.018.895.031 1.34-.007.016-.239.028-.477.04-.716l-.001.001Z"/>
    <path fill="#93C944" d="M5.949 4.98c.22-.187.472-.337.73-.466l-.067.156a6.489 6.489 0 0 0-.255.65c-.217.059-.43.132-.643.206L5.7 5.53a4.88 4.88 0 0 1 .249-.55Zm4.647.208c.328.05.652.123.973.207l.02.063c.066.21.133.42.181.633-.364-.08-.73-.152-1.1-.2a5.974 5.974 0 0 0-.035-.328c-.016-.125-.032-.25-.039-.375Zm-2.412.718c-.26.011-.519.035-.776.07-.04.412-.07.825-.097 1.238l.142-.006c.227-.01.454-.02.681-.02l.027-.678c.007-.201.014-.403.023-.604Zm-2.78.512c.084-.023.167-.048.25-.073.145-.043.29-.087.437-.124-.08.365-.15.732-.203 1.103-.234.024-.468.053-.701.083a6.95 6.95 0 0 1 .217-.99Zm8.369 1.236a20.113 20.113 0 0 0-.846-.135c.01.116.023.232.037.348.014.125.028.25.039.375.332.02.665.048.996.078a4.348 4.348 0 0 0-.132-.65l-.094-.016Zm-3.897.56c.151.008.302.01.454.012.13.002.26.005.39.01.012.51.01 1.02.001 1.53-.131.005-.262.007-.393.009-.15.002-.3.004-.45.01V9.22c0-.335 0-.67-.002-1.006ZM4.5 9.724a12.007 12.007 0 0 0-.5-.037v.075c.03.16.064.318.099.476l.018.08c.314.073.635.118.954.16-.03-.24-.059-.48-.08-.721-.164-.007-.328-.02-.492-.035l.001.002Zm6.313.133c.258-.002.516-.013.773-.024l.504-.02a8.77 8.77 0 0 1-.07.777c-.412.04-.825.07-1.238.097l.005-.12c.01-.237.02-.473.026-.71Zm-2.673.96a28.95 28.95 0 0 1-.828-.032c.027.413.056.827.097 1.24.257.03.516.06.775.069-.005-.165-.012-.33-.018-.494-.01-.262-.021-.523-.026-.784Zm-1.91 1.09c.36.085.724.153 1.092.202.015.14.031.28.048.419l.032.282a6.436 6.436 0 0 1-.984-.214 4.43 4.43 0 0 0-.08-.27c-.043-.138-.086-.275-.108-.418Zm5.88.626a7.761 7.761 0 0 1-.472.147 7.977 7.977 0 0 1-.328.812c.234-.117.456-.257.668-.41a.253.253 0 0 0 .095-.106c.08-.165.154-.333.22-.504l-.183.06Z"/>
    <path fill="#58AEE2" d="M9.769 4h-.092l.002.02c.03.324.06.647.075.971.242.02.482.049.722.08a18.928 18.928 0 0 0-.153-.947 5.72 5.72 0 0 0-.385-.088L9.77 4h-.001Zm2.171.892a4.89 4.89 0 0 0-.628-.382c.119.265.234.533.328.808.2.057.399.124.596.191l.056.019a4.6 4.6 0 0 0-.176-.408l-.045-.097a.318.318 0 0 0-.117-.121l-.014-.01Zm-3.616.194a9.311 9.311 0 0 1 1.347 0c.004.139.012.278.02.417.007.1.013.199.017.298a12.492 12.492 0 0 0-1.422.002c.004-.1.01-.198.016-.297.009-.14.017-.28.022-.42Zm3.637 1.15-.057-.015c.08.365.15.732.2 1.102.131.014.261.03.392.045.103.012.205.025.309.036a8.832 8.832 0 0 0-.206-.975c-.21-.073-.424-.133-.638-.193ZM5.976 7.41a39 39 0 0 1 1.235-.096c-.007.138-.012.276-.017.414-.005.138-.01.276-.017.414-.377.007-.754.023-1.13.039l-.142.006c.01-.26.037-.52.071-.777Zm-1.63.222-.085.015-.042.008c-.034.006-.068.011-.096.032a2.69 2.69 0 0 0-.082.344c-.013.065-.026.131-.041.196v.092c.33-.031.661-.057.992-.08.021-.24.045-.481.08-.72-.243.032-.484.073-.726.113Zm9.503 2.062.15-.013a4.23 4.23 0 0 1-.132.65 10.1 10.1 0 0 0-.251.042c-.231.039-.462.078-.694.109.034-.24.06-.483.082-.724.282-.014.564-.039.845-.064Zm-7.505.137-.44-.016c.011.26.038.518.071.775.412.04.824.07 1.236.095-.014-.275-.025-.55-.031-.826a46.672 46.672 0 0 1-.836-.028Zm5.76.846c.125-.013.248-.028.371-.043l.332-.038a9.29 9.29 0 0 1-.206.975c-.23.079-.463.146-.698.205.085-.363.15-.73.202-1.1l-.001.001Zm-1.72.122-.53.02c-.006.303-.016.607-.03.91l-.014.364a8.31 8.31 0 0 0 .775-.07c.04-.411.07-.823.095-1.236l-.296.012ZM5.7 12.47l.03.01c.207.071.414.142.624.201.09.271.204.532.319.793l.006.013a4.841 4.841 0 0 1-.623-.378l-.016-.01a.312.312 0 0 1-.117-.123 6.628 6.628 0 0 1-.223-.506Zm2.534.536c-.24-.019-.48-.046-.719-.08.034.264.079.525.124.787.01.052.018.105.027.158.121.04.246.064.37.089.063.012.126.025.188.039h.09a48.011 48.011 0 0 1-.08-.993Z"/>
    <path fill="#51ADA7" d="M7.402 5.19c-.33.046-.654.122-.975.206a9.4 9.4 0 0 0-.198.665l-.007.026c.364-.074.729-.15 1.098-.197.024-.234.053-.467.082-.7Zm5.466.688a5.236 5.236 0 0 0-.402-.175l.002.005c.074.215.148.43.209.648.274.092.54.208.805.326A4.924 4.924 0 0 0 13.06 6a.207.207 0 0 0-.09-.075l-.102-.047Zm-3.057.028c.259.01.517.038.774.07.04.412.07.824.095 1.237a42.189 42.189 0 0 1-.293-.012 23.636 23.636 0 0 0-.532-.02c-.005-.315-.018-.63-.031-.946-.005-.11-.01-.22-.013-.33Zm-.05 1.37c-.51-.01-1.02-.012-1.53 0-.004.123-.006.245-.007.368-.002.157-.004.315-.012.472H9.78a10.724 10.724 0 0 1-.01-.44c-.002-.134-.002-.267-.009-.4ZM5.49 8.305c.104-.006.207-.013.311-.017-.03.474-.028.95-.002 1.423l-.267-.015c-.15-.01-.298-.02-.448-.025-.026-.448-.038-.9.005-1.347.134-.002.268-.01.401-.02Zm7.059.002a10.635 10.635 0 0 0-.357-.018c.03.473.029.948 0 1.42l.286-.015c.143-.01.286-.017.43-.023a8.714 8.714 0 0 0-.002-1.345 8.443 8.443 0 0 1-.357-.02ZM8.212 9.883h1.57c-.008.155-.013.31-.013.464-.002.126-.003.252-.009.378-.51.01-1.02.012-1.529-.002a13.342 13.342 0 0 1-.008-.4c-.003-.146-.005-.293-.01-.44h-.001Zm-3.704 1.432c.106.202.222.4.354.586l.03.042c.03.055.075.1.13.132.166.079.333.156.504.222a13.14 13.14 0 0 1-.21-.653 8.28 8.28 0 0 1-.808-.33Zm6.165.796c.369-.051.735-.119 1.098-.203-.058.234-.13.465-.202.695a9.111 9.111 0 0 1-.978.209l.02-.156c.021-.181.043-.363.062-.545Zm-.198.819c-.239.03-.478.06-.718.077-.009.148-.021.296-.033.444-.015.183-.03.366-.038.55h.049c.199-.032.396-.075.59-.128l.038-.222c.041-.24.082-.48.112-.721Z"/>
  </g>
  <defs>
    <clipPath id="a">
      <path fill="#fff" d="M0 0h18v18H0z"/>
    </clipPath>
  </defs>
</svg>
