<svg xmlns="http://www.w3.org/2000/svg" viewBox="0 0 18 18">
  <g clip-path="url(#a)">
    <path fill="#C53534" d="M0 0h18v18H0V0Z"/>
    <path fill="#fff" d="M10.888 6H8.394v.677h.402c.298 0 .372.136.372.266-.01.108-.036.214-.074.316l-1.071 3.247-.92-3.332a1.913 1.913 0 0 1-.074-.316c0-.108.074-.187.25-.187h.446v-.665H5.208v.671h.184a.425.425 0 0 1 .313.071c.094.066.16.165.187.277l.149.424-1.02 3.124-1.06-3.348a.91.91 0 0 1-.075-.317.255.255 0 0 1 .083-.166.226.226 0 0 1 .167-.058H4.5v-.678H2v.671h.119c.298 0 .426.08.5.317L4.202 12h1.19l1.02-3.127L7.306 12h1.17l1.538-4.775a.724.724 0 0 1 .27-.422.656.656 0 0 1 .465-.126h.512c.25 0 .399.13.399.345v3.83a.425.425 0 0 1-.094.291.38.38 0 0 1-.335.135h-.512V12h3.095v-.665h-.426c-.401 0-.55-.13-.55-.455V9.209h.354c.52 0 .744.24.744.873v.187h.595V7.541h-.595v.136c0 .475-.149.899-.678.899h-.39V6.677h1.095c1.247 0 1.354.662 1.443 1.377H16V6h-5.112Z"/>
  </g>
  <defs>
    <clipPath id="a">
      <path fill="#fff" d="M0 0h18v18H0z"/>
    </clipPath>
  </defs>
</svg>
