<svg xmlns="http://www.w3.org/2000/svg" viewBox="0 0 18 18">
  <g clip-path="url(#a)">
    <path fill="#1D7AD9" d="M0 0h18v18H0V0Z"/>
    <path fill="#FFC220" d="M8.999 3.05c-.453 0-.812.253-.812.56l.275 3.114c.03.187.26.332.538.332s.507-.146.538-.332l.276-3.113c0-.308-.361-.56-.814-.56l-.001-.001Zm-4.48 2.49a.879.879 0 0 0-.67.478c-.228.392-.188.83.077.984L6.759 8.32c.177.066.417-.06.556-.293.147-.241.13-.512-.017-.632l-2.56-1.793a.419.419 0 0 0-.219-.055V5.54Zm8.96 0a.419.419 0 0 0-.22.054l-2.558 1.802c-.147.12-.157.391-.018.633.14.24.38.366.557.293l2.833-1.319c.268-.153.306-.586.08-.984a.879.879 0 0 0-.676-.472l.002-.007ZM6.866 9.642a.253.253 0 0 0-.106.017l-2.833 1.327c-.266.156-.306.586-.079.986.227.4.626.577.89.424l2.56-1.79c.146-.122.158-.393.019-.633a.577.577 0 0 0-.451-.318v-.013Zm4.268 0a.577.577 0 0 0-.45.317c-.147.24-.128.512.018.633l2.56 1.806c.264.147.663-.032.891-.423.229-.391.188-.83-.08-.986L11.24 9.668a.257.257 0 0 0-.106-.018v-.008ZM9 10.945c-.277 0-.507.147-.537.331l-.275 3.113c0 .308.36.561.813.561.453 0 .814-.253.814-.56l-.276-3.11c-.031-.188-.26-.332-.538-.332L9 10.945Z"/>
  </g>
  <defs>
    <clipPath id="a">
      <path fill="#fff" d="M0 0h18v18H0z"/>
    </clipPath>
  </defs>
</svg>
