<svg xmlns="http://www.w3.org/2000/svg" viewBox="0 0 18 18">
  <g clip-path="url(#a)">
    <path fill="#003764" d="M0 0h18v18H0V0Z"/>
    <path fill="#fff" d="M3 9a6 6 0 1 1 6 6v-.884A5.116 5.116 0 1 0 9 3.884a5.116 5.116 0 0 0 0 10.232V15a6.002 6.002 0 0 1-6-6Z"/>
    <path fill="#fff" d="M4.882 6.472h.884l-.008 3.203a.394.394 0 0 0 .382.435c.27-.003.347-.27.347-.452l.007-3.173h.884l.005 3.078c.002.695-.301 1.31-1.263 1.31-.794 0-1.24-.464-1.24-1.329V6.472h.002Zm5.191 3.339c.005-.002.012.005.01.002a3.219 3.219 0 0 0-.82-.492 2.167 2.167 0 0 1-.603-.357.534.534 0 0 1-.095-.326.915.915 0 0 1 .054-.286.34.34 0 0 1 .206-.175.893.893 0 0 1 .192-.017.414.414 0 0 1 .45.454l-.003.537.852.004v-.64c-.024-.51-.206-1.11-1.243-1.132-1.059-.024-1.416.5-1.42 1.345a1.214 1.214 0 0 0 .5 1.022c.036.027.075.054.109.076.01.005.02.01.031.012.153.087.32.165.5.257.22.085.424.205.605.355.066.095.1.209.097.325a1.03 1.03 0 0 1-.05.287.349.349 0 0 1-.207.177.901.901 0 0 1-.192.017.413.413 0 0 1-.452-.452v-.539H7.74l.005.641c.026.512.21 1.107 1.248 1.127 1.058.02 1.413-.508 1.413-1.353a1.178 1.178 0 0 0-.333-.869Zm2.81-1.105c.005-.002.005-.005.002-.007a3.234 3.234 0 0 0-.82-.49 2.166 2.166 0 0 1-.603-.358.53.53 0 0 1-.097-.325.913.913 0 0 1 .053-.287.345.345 0 0 1 .207-.174.909.909 0 0 1 .192-.017.411.411 0 0 1 .447.454l-.003.536.852.003V7.4c-.021-.51-.206-1.108-1.243-1.132-1.059-.024-1.415.5-1.42 1.345-.01.321.108.633.327.867-.01.005 0 .003.003.005a1.468 1.468 0 0 0 .28.221c.01.006.021.01.033.015.153.087.318.165.498.255.22.084.424.204.604.354a.53.53 0 0 1 .098.325c-.004.098-.02.194-.051.287a.35.35 0 0 1-.207.177.901.901 0 0 1-.192.017.413.413 0 0 1-.451-.451v-.537h-.855l.005.641c.027.512.211 1.107 1.248 1.127 1.059.02 1.413-.508 1.413-1.353a1.135 1.135 0 0 0-.32-.857Z"/>
  </g>
  <defs>
    <clipPath id="a">
      <path fill="#fff" d="M0 0h18v18H0z"/>
    </clipPath>
  </defs>
</svg>
