<svg xmlns="http://www.w3.org/2000/svg" viewBox="0 0 18 18">
  <g clip-path="url(#a)">
    <path fill="#2C3E34" d="M0 0h18v18H0V0Z"/>
    <path fill="#fff" d="M8.413 6.14c0-.55.33-.77.66-.77.587 0 .77.513.807 1.137v.513l1.87-.11-.037-.587C11.64 4.16 10.54 3.5 9.037 3.5c-1.907 0-2.824 1.247-2.824 2.823 0 1.54.66 2.384 1.834 3.447.77.697 1.613 1.357 1.613 2.053 0 .514-.22.807-.66.807-.513 0-.917-.33-.953-1.357l-.037-.513-1.943.073.036.844c.11 2.236 1.504 2.823 2.934 2.823 2.016 0 2.896-1.21 2.896-2.97 0-1.613-.916-2.383-1.87-3.3-1.21-1.063-1.65-1.357-1.65-2.09Z"/>
  </g>
  <defs>
    <clipPath id="a">
      <path fill="#fff" d="M0 0h18v18H0z"/>
    </clipPath>
  </defs>
</svg>
