<svg xmlns="http://www.w3.org/2000/svg" viewBox="0 0 18 18">
  <g clip-path="url(#a)">
    <path d="M0 0h18v18H0V0Z"/>
    <path fill="#0084D5" d="M9.214 7c1.035 0 1.721.403 1.721 1.483 0 1.137-.744 1.54-1.804 1.54H8.52v1.45h5.432L16.5 7H9.214Z"/>
    <path fill="#fff" d="M9.132 10.023c1.06 0 1.804-.403 1.804-1.54 0-1.08-.688-1.483-1.723-1.483H7.315v4.473H8.52v-1.45h.612ZM8.52 8.01h.662c.389 0 .536.197.536.492 0 .338-.158.51-.555.51H8.52V8.01Zm-1.619 3.463-1.3-2.283L6.849 7H5.497l-.572 1.004-.573-1.003H3.053l1.222 2.142-1.327 2.33h1.351l.652-1.143.652 1.143H6.9Z"/>
  </g>
  <defs>
    <clipPath id="a">
      <path fill="#fff" d="M0 0h18v18H0z"/>
    </clipPath>
  </defs>
</svg>
