<?xml version="1.0" encoding="UTF-8"?>
<svg id="Layer_1" xmlns="http://www.w3.org/2000/svg" viewBox="0 0 18 18">
  <path d="M0,0h18v18H0V0Z" style="fill: #d92231;"/>
  <path d="M8.99,7.8c.28-.27,1.15-1.24,1.86-2.52.12-.22.23-.27.39-.27h1.55c.12,0,.26.06.18.27-.53,1.49-2.12,3.04-2.79,3.72.73.65,2.16,2.18,2.77,3.7.05.14.03.29-.28.29h-1.59c-.17,0-.29-.02-.4-.27-.39-.93-1-1.88-1.7-2.52-.77.77-1.59,1.69-1.98,2.52-.1.2-.19.27-.4.27h-1.45c-.1,0-.2-.11-.13-.27.43-1.13,1.3-2.66,2.54-3.72-.97-1.12-2.18-2.57-2.55-3.72-.06-.17.04-.27.18-.27h1.59c.19,0,.28.07.37.27.24.52,1.4,2.03,1.84,2.52Z" style="fill: #fff;"/>
</svg>