<svg xmlns="http://www.w3.org/2000/svg" viewBox="0 0 18 18">
  <g clip-path="url(#a)">
    <path fill="#FF1A1A" d="M0 0h18v18H0V0Z"/>
    <path fill="#fff" d="m7.448 9.973-1.723.398c-.177.04-.354.086-.537.072-.123-.008-.24-.019-.358-.1a.548.548 0 0 1-.155-.168c-.164-.26-.171-.641-.173-.939a2.748 2.748 0 0 1 .037-.491 2.918 2.918 0 0 1 .119-.478 1.119 1.119 0 0 1 .108-.218l.018-.023.018-.024a.937.937 0 0 1 .019-.023l.019-.022a.408.408 0 0 1 .087-.077.82.82 0 0 1 .1-.056.581.581 0 0 1 .16-.039 1.51 1.51 0 0 1 .525.094.38.38 0 0 0 .045.014c.153.048.33.113.54.187.322.113.64.228.96.347l.569.208a3.608 3.608 0 0 1 .153.063 2.643 2.643 0 0 1 .148.076.63.63 0 0 1 .114.08.674.674 0 0 1 .126.147.533.533 0 0 1 .06.148l.001.01a.574.574 0 0 1-.213.584.56.56 0 0 1-.247.11l-.519.12h-.001Zm6.041-1.833a.591.591 0 0 1-.04.168.477.477 0 0 1-.025.052c-.07.124-.172.185-.278.247-.16.092-.338.13-.515.17l-2.242.519-.013.003a.6.6 0 0 0-.026.005l-.013.001a.574.574 0 0 1-.666-.433l-.002-.009a.657.657 0 0 1-.005-.212.668.668 0 0 1 .074-.197 2.362 2.362 0 0 1 .136-.193 1.307 1.307 0 0 1 .11-.124l.421-.436c.236-.247.472-.49.712-.734.155-.158.286-.294.403-.405.023-.02.047-.043.067-.063.143-.131.25-.21.348-.26a.52.52 0 0 1 .492.002.773.773 0 0 1 .127.075l.023.018a.543.543 0 0 1 .025.019l.025.02a4.937 4.937 0 0 1 .046.043 3.087 3.087 0 0 1 .315.378 2.669 2.669 0 0 1 .248.425c.128.269.288.616.253.921Zm-4.304.06a.574.574 0 0 1-.266.16l-.019.005a.578.578 0 0 1-.33-.022c-.017-.006-.032-.011-.049-.019-.235-.112-.367-.386-.49-.603-.406-.725-.815-1.451-1.215-2.18-.152-.277-.318-.54-.44-.834-.1-.243-.23-.514-.175-.78.096-.47.669-.714 1.076-.848a5.145 5.145 0 0 1 .772-.178c.425-.059 1.047-.09 1.34.289.165.214.166.515.182.777.018.318-.016.629-.031.943-.041.832-.092 1.664-.141 2.494-.014.25-.014.554-.177.758a.468.468 0 0 1-.037.039Zm-.131 2.232a.688.688 0 0 1 .056.146c.039.14.044.297.038.438l-.023.614c-.01.344-.025.688-.043 1.033-.01.224-.016.416-.03.578-.003.03-.008.064-.01.092a1.52 1.52 0 0 1-.087.432.5.5 0 0 1-.21.26.564.564 0 0 1-.132.062l-.029.008a.647.647 0 0 1-.03.008l-.028.007a.502.502 0 0 0-.03.006l-.029.004a.59.59 0 0 1-.03.004l-.029.002a.951.951 0 0 1-.128.004 3.16 3.16 0 0 1-1.546-.535 1.789 1.789 0 0 1-.139-.121.784.784 0 0 1-.112-.144.567.567 0 0 1-.08-.275.534.534 0 0 1 .025-.165c.031-.108.092-.229.199-.394.016-.023.033-.051.05-.078.09-.136.202-.29.333-.473a45.9 45.9 0 0 1 .606-.84l.36-.496c.022-.02.039-.05.057-.073a1.547 1.547 0 0 1 .113-.133 1.445 1.445 0 0 1 .13-.117l.025-.018.025-.016a.439.439 0 0 1 .052-.03l.018-.008.017-.007.019-.008a.51.51 0 0 1 .338-.003.536.536 0 0 1 .257.192c.01.014.018.03.027.044Zm4.081.957a.428.428 0 0 1 .06.096.447.447 0 0 1 .036.108.472.472 0 0 1 .013.116c0 .02 0 .039-.002.058a1.45 1.45 0 0 1-.02.118l-.008.028-.009.029a.512.512 0 0 1-.01.028l-.01.028a.836.836 0 0 1-.053.117 3.2 3.2 0 0 1-.995 1.062 2.545 2.545 0 0 1-.216.125 1.926 1.926 0 0 1-.115.044 1.166 1.166 0 0 1-.118.03l-.03.005-.03.004a.5.5 0 0 1-.225-.024.479.479 0 0 1-.194-.118 1.582 1.582 0 0 1-.267-.35c-.014-.025-.032-.053-.048-.079-.083-.14-.172-.309-.28-.506a50.07 50.07 0 0 1-.49-.91l-.289-.542a1.419 1.419 0 0 1-.156-.41.522.522 0 0 1 .27-.585.519.519 0 0 1 .351-.043 1.522 1.522 0 0 1 .25.08l.079.038c.026.013.055.032.083.041l.54.287c.306.16.61.322.912.489.197.107.366.196.506.28.026.016.054.034.079.047a1.533 1.533 0 0 1 .386.309Z"/>
  </g>
  <defs>
    <clipPath id="a">
      <path fill="#fff" d="M0 0h18v18H0z"/>
    </clipPath>
  </defs>
</svg>
