<?xml version="1.0" encoding="UTF-8"?>
<svg id="Layer_1" xmlns="http://www.w3.org/2000/svg" viewBox="0 0 18 18">
  <rect width="18" height="18" style="fill: #fdf800;"/>
  <path d="M14.63,6.7c-.14,0-.27.06-.36.16l-2,2.24-2-2.24c-.09-.1-.22-.16-.36-.16-.26,0-.47.2-.47.45,0,.11.04.21.11.29l2.11,2.41-.96.91c-.07.08-.1.18-.1.29,0,.25.2.46.46.46.14,0,.27-.07.36-.17l3.57-3.9c.07-.08.11-.18.11-.29,0-.25-.21-.45-.47-.45ZM8.34,6.7c-.14,0-.27.06-.36.16l-2.06,2.24-2-2.24c-.09-.1-.22-.16-.36-.16-.26,0-.47.2-.47.45,0,.11.04.21.11.29l2.11,2.41-.9.92c-.07.08-.12.18-.12.29,0,.25.21.45.47.45.14,0,.27-.06.36-.16l3.56-3.91c.07-.08.11-.18.11-.29,0-.25-.21-.45-.46-.45h0Z" style="fill: #08090d;"/>
</svg>