<?xml version="1.0" encoding="UTF-8"?>
<svg id="Layer_1" xmlns="http://www.w3.org/2000/svg" xmlns:xlink="http://www.w3.org/1999/xlink" viewBox="0 0 18 18">
  <defs>
    <linearGradient id="linear-gradient" x1="12.55" y1="13.38" x2="5.97" y2="6.36" gradientTransform="translate(0 18) scale(1 -1)" gradientUnits="userSpaceOnUse">
      <stop offset="0" stop-color="#f17f1e"/>
      <stop offset=".37" stop-color="#ee2420"/>
      <stop offset="1" stop-color="#c5161b"/>
    </linearGradient>
    <linearGradient id="linear-gradient-2" x1="9.34" y1="14.25" x2="8.9" y2="4.73" gradientTransform="translate(0 18) scale(1 -1)" gradientUnits="userSpaceOnUse">
      <stop offset="0" stop-color="#6fc92c"/>
      <stop offset=".32" stop-color="#37b35f"/>
      <stop offset=".51" stop-color="#4ebcc9"/>
      <stop offset=".66" stop-color="#099de3"/>
      <stop offset="1" stop-color="#0b8dd8"/>
    </linearGradient>
    <linearGradient id="linear-gradient-3" x1="10.59" y1="8.82" x2="9.22" y2="5.48" gradientTransform="translate(0 18) scale(1 -1)" gradientUnits="userSpaceOnUse">
      <stop offset="0" stop-color="#1e57ae"/>
      <stop offset="1" stop-color="#0b8dd8"/>
    </linearGradient>
  </defs>
  <rect width="18" height="18" style="fill: #fafafa;"/>
  <g>
    <path d="M5.95,6.22c-2.09,1.78-1.82,3.94-1.42,4.8l2.83,1.77,3.7-1.21c.76-.48,1.24-1.31,1.29-2.21.05-1.19.28-1.59.39-1.64-.33,0-.57.31-.65.46-.12.27-.43.76-.71.55-.28-.2-.12-.51,0-.64,1.39-1.1,1.76-2.12,1.77-2.49-.69.57-.84.05-.41-.19.27-.16.49-.39.63-.67-.88.36-2.13.2-2.22.2-2.15-.4-3.67.56-4.16,1.09.23-.47.2-.92.16-1.09-.2.43-.81.91-1.21,1.25Z" style="fill: url(#linear-gradient);"/>
    <path d="M6.96,6.8c2.55-1.93,5.19-2.87,6.19-3.1l-2.12,1.1,3.22-1.1c-1.45.76-4.53,2.44-5.3,3.1-.96.82-2.29,2.07-2.36,3.78-.07.86.58,1.62,1.44,1.68.04,0,.09,0,.13,0,1.29-.09,1.24-1.24.95-1.69-.08-.12-.35-.3-.35-.62,0-.47.19-1.18,1.34-1.2,1.22-.02,1.71,1.28,1.71,2.19s-.78,3.35-3.55,3.35c-2.27,0-3.24-1.65-3.45-2.34-.35-.96-.4-3.24,2.15-5.17Z" style="fill: #3a3031;"/>
    <path d="M6.69,6.8c2.55-1.93,5.19-2.87,6.19-3.1l-2.12,1.1,3.22-1.1c-1.45.76-4.53,2.44-5.3,3.1-.96.82-2.29,2.07-2.36,3.78-.07.86.58,1.62,1.44,1.68.04,0,.09,0,.13,0,1.29-.09,1.24-1.24.95-1.69-.08-.12-.35-.3-.35-.62,0-.47.19-1.18,1.34-1.2,1.22-.02,1.71,1.28,1.71,2.19s-.78,3.35-3.55,3.35c-2.27,0-3.25-1.65-3.45-2.34-.34-.96-.4-3.24,2.15-5.17h0Z" style="fill: url(#linear-gradient-2);"/>
    <path d="M8.54,14.27l-.15-2.12c.77-.32.7-1.2.45-1.58-.02-.03-.05-.07-.09-.11-.11-.12-.26-.28-.26-.52,0-.47.19-1.18,1.34-1.2,1.22-.02,1.71,1.28,1.71,2.19,0,.85-.68,3.02-3,3.32h0Z" style="fill: url(#linear-gradient-3);"/>
  </g>
</svg>