<svg xmlns="http://www.w3.org/2000/svg" viewBox="0 0 18 18">
  <rect x="0" y="0" width="18" height="18" style="fill: #ffb81c;"/>
  <path d="M11.12,14.47c-1.48.38-3.03.35-4.5-.08-.54-.15-.98-.52-1.23-1.02-.62-1.21-1.04-2.52-1.23-3.86-.21-1.26-.21-2.56,0-3.82.11-.57.45-1.08.93-1.4,1.84-1.01,3.99-1.28,6.03-.76.68.17,1.32.47,1.78.81s.81.81.93,1.4c.21,1.26.21,2.56,0,3.82-.21,1.53-.68,2.89-1.23,3.86-.25.47-.72.85-1.27,1.02l-.21.04M9,4.79l.3-.04s.42-.04,1.15.21c.21.1.44.16.68.17.38.04.64-.04,1.02-.21-.97-.49-2.05-.74-3.14-.72-1.32,0-2.55.34-3.4.89-.3.21-.47.51-.55.81-.36,2.37.01,4.8,1.06,6.96l.3-.34c.79-1.1,1.2-2.42,1.19-3.78v-.34h-.64v-1.78h.68c0-.08,0-.76.38-1.23.3-.38.68-.51.98-.59M9,5.73l.08-.08c.32-.22.73-.29,1.1-.17l.89.21h.51c.42-.04.89-.25,1.06-.34l-.17-.17c-.38.25-.93.34-1.4.34-.21,0-.42-.04-.59-.13-.59-.21-.89-.21-.89-.21-.25,0-.47.04-.59.13-.25.13-.38.3-.38.3-.25.3-.34.81-.34.98h.42c0-.13,0-.59.3-.85M9,7.72h1.36v-.42h-2.72v.42h1.36ZM9,9.93l.72-.42-.04-.76v-.34h-1.36v.3l-.04.81s.72.42.72.42ZM9,11.2l.93-.55-.13-.47-.81.47-.81-.47-.13.47.93.55ZM9,12.48l1.32-.76-.17-.42-1.15.68-1.15-.64-.17.42s1.32.72,1.32.72ZM11.12,13.03l-.13-.13-.38-.59-1.61.93-1.61-.93-.38.59-.38.47.3.13c.64.21,1.36.3,2.12.3.72,0,1.44-.13,2.12-.3l.3-.13c-.17-.08-.25-.21-.34-.34M11.12,6.45l-.25-.04c-.21-.04-.51-.04-.55.21h.68v1.78h-.68v.3c0,1.15.25,2.25.76,3.18.13.21.25.47.42.64l.3.38c.51-.89.89-2.17,1.06-3.48.17-1.1.17-2.21.04-3.14-.17.13-.47.21-.89.25-.13,0-.51,0-.89-.08M11.12,6.02l-.76-.17c-.68-.13-1.06.3-1.06.76h.42c0-.13,0-.25.08-.38.21-.34.64-.25,1.06-.17l.3.04c.47.08.76.08,1.15,0l.68-.25-.04-.21c-.4.23-.85.37-1.32.42l-.51-.04"/>
</svg>