<svg xmlns="http://www.w3.org/2000/svg" viewBox="0 0 18 18">
  <rect x="0" y="0" width="18" height="18" style="fill: #fafafa;"/>
  <g>
    <g>
      <g>
        <path d="M8.6,5.83l-.23-1.93c-.26.03-.61.11-.87.19l.57,1.86c.17-.05.35-.09.53-.11Z" style="fill: #00b6b8;"/>
        <path d="M4.27,6.99c-.1.24-.22.58-.27.85l1.89.43c.04-.18.1-.35.17-.52l-1.79-.76Z" style="fill: #00b6b8;"/>
        <path d="M5.49,12.76l1.32-1.42c-.13-.13-.26-.26-.37-.4l-1.55,1.17c.16.21.4.48.6.66Z" style="fill: #00b6b8;"/>
        <path d="M9.4,12.17l.23,1.93c.26-.03.61-.11.87-.19l-.57-1.86c-.17.05-.35.09-.53.11Z" style="fill: #00b6b8;"/>
        <path d="M13.73,11.01c.1-.24.22-.58.27-.85l-1.89-.43c-.04.18-.1.35-.17.52l1.79.76Z" style="fill: #00b6b8;"/>
        <path d="M12.51,5.24l-1.32,1.42c.13.13.26.26.37.4l1.55-1.17c-.16-.21-.4-.48-.6-.66Z" style="fill: #00b6b8;"/>
      </g>
      <g>
        <path d="M8.6,5.83l-.23-1.93c-.26.03-.61.11-.87.19l.57,1.86c.17-.05.35-.09.53-.11Z" style="fill: #00baba;"/>
        <path d="M4.27,6.99c-.1.24-.22.58-.27.85l1.89.43c.04-.18.1-.35.17-.52l-1.79-.76Z" style="fill: #00baba;"/>
        <path d="M5.49,12.76l1.32-1.42c-.13-.13-.26-.26-.37-.4l-1.55,1.17c.16.21.4.48.6.66Z" style="fill: #00baba;"/>
        <path d="M9.4,12.17l.23,1.93c.26-.03.61-.11.87-.19l-.57-1.86c-.17.05-.35.09-.53.11Z" style="fill: #00baba;"/>
        <path d="M13.73,11.01c.1-.24.22-.58.27-.85l-1.89-.43c-.04.18-.1.35-.17.52l1.79.76Z" style="fill: #00baba;"/>
        <path d="M12.51,5.24l-1.32,1.42c.13.13.26.26.37.4l1.55-1.17c-.16-.21-.4-.48-.6-.66Z" style="fill: #00baba;"/>
      </g>
    </g>
    <g>
      <g>
        <path d="M6.45,7.07c.11-.15.23-.28.36-.41l-.53-.57-1.03-1.09c-.23.21-.44.45-.63.7l.36.28,1.46,1.1Z" style="fill: #8dd906;"/>
        <path d="M3.95,11.14l.43-.18,1.67-.71c-.07-.16-.13-.34-.17-.52l-.76.18-1.46.34c.07.3.17.6.29.89Z" style="fill: #8dd906;"/>
        <path d="M8.07,12.06l-.24.77-.43,1.41c.3.09.61.16.92.19l.06-.47.22-1.79c-.18-.02-.36-.06-.53-.11Z" style="fill: #8dd906;"/>
        <path d="M11.55,10.93c-.11.15-.23.28-.36.41l.54.58,1.02,1.08c.23-.21.44-.45.63-.7l-.37-.28-1.45-1.09Z" style="fill: #8dd906;"/>
        <path d="M14.05,6.86l-.43.18-1.67.71c.07.16.13.34.17.52l.79-.18,1.44-.34c-.07-.3-.17-.6-.29-.89Z" style="fill: #8dd906;"/>
        <path d="M9.93,5.94l.23-.76.43-1.43c-.3-.09-.61-.16-.92-.19l-.06.45-.22,1.81c.18.02.36.06.53.11Z" style="fill: #8dd906;"/>
      </g>
      <g>
        <path d="M6.45,7.07c.11-.15.23-.28.36-.41l-.53-.57-1.03-1.09c-.23.21-.44.45-.63.7l.36.28,1.46,1.1Z" style="fill: #8dd906;"/>
        <path d="M3.95,11.14l.43-.18,1.67-.71c-.07-.16-.13-.34-.17-.52l-.76.18-1.46.34c.07.3.17.6.29.89Z" style="fill: #8dd906;"/>
        <path d="M8.07,12.06l-.24.77-.43,1.41c.3.09.61.16.92.19l.06-.47.22-1.79c-.18-.02-.36-.06-.53-.11Z" style="fill: #8dd906;"/>
        <path d="M11.55,10.93c-.11.15-.23.28-.36.41l.54.58,1.02,1.08c.23-.21.44-.45.63-.7l-.37-.28-1.45-1.09Z" style="fill: #8dd906;"/>
        <path d="M14.05,6.86l-.43.18-1.67.71c.07.16.13.34.17.52l.79-.18,1.44-.34c-.07-.3-.17-.6-.29-.89Z" style="fill: #8dd906;"/>
        <path d="M9.93,5.94l.23-.76.43-1.43c-.3-.09-.61-.16-.92-.19l-.06.45-.22,1.81c.18.02.36.06.53.11Z" style="fill: #8dd906;"/>
      </g>
    </g>
    <g>
      <path d="M7.04,3.33c-.33.11-.65.26-.95.42l1.02,1.84c.19-.11.4-.2.61-.27l-.68-1.99Z" style="fill: #0183d9;"/>
      <path d="M3.11,7.86c-.07.34-.1.69-.11,1.04l2.11.03c0-.23.03-.45.07-.66l-2.07-.41Z" style="fill: #0183d9;"/>
      <path d="M5.07,13.53c.26.23.55.43.84.61l1.09-1.81c-.19-.12-.37-.25-.54-.39l-1.39,1.59Z" style="fill: #0183d9;"/>
      <path d="M10.96,14.67c.33-.11.65-.26.95-.42l-1.03-1.85c-.19.11-.4.2-.61.27l.69,2Z" style="fill: #0183d9;"/>
      <path d="M14.89,10.14c.07-.34.1-.69.11-1.04l-2.11-.03c0,.23-.03.45-.07.66l2.07.41Z" style="fill: #0183d9;"/>
      <path d="M12.93,4.47c-.26-.23-.55-.43-.84-.61l-1.08,1.81c.19.12.37.25.54.39l1.38-1.59Z" style="fill: #0183d9;"/>
    </g>
    <g>
      <g>
        <path d="M5.91,3.86c-.3.18-.58.39-.84.61l1.38,1.59c.17-.15.35-.28.54-.39l-1.08-1.81Z" style="fill: #00a8f2;"/>
        <path d="M3,9.11c0,.18.01.35.03.52.02.17.04.34.08.52l2.07-.41c-.04-.22-.07-.44-.07-.66l-2.11.03Z" style="fill: #00a8f2;"/>
        <path d="M6.09,14.25c.3.17.62.31.95.42l.68-2c-.21-.07-.42-.16-.61-.27l-1.03,1.85Z" style="fill: #00a8f2;"/>
        <path d="M12.09,14.14c.3-.18.58-.39.84-.61l-1.39-1.59c-.17.15-.35.28-.54.39l1.09,1.81Z" style="fill: #00a8f2;"/>
        <path d="M15,8.89c0-.18-.01-.35-.03-.52-.02-.17-.04-.34-.08-.52l-2.07.41c.04.22.06.44.07.66l2.11-.03Z" style="fill: #00a8f2;"/>
        <path d="M10.9,5.56l1.01-1.81c-.3-.17-.62-.31-.95-.42l-.68,1.99c.21.07.42.17.61.27l.02-.03Z" style="fill: #00a8f2;"/>
      </g>
      <g>
        <path d="M5.91,3.86c-.3.18-.58.39-.84.61l1.38,1.59c.17-.15.35-.28.54-.39l-1.08-1.81Z" style="fill: #00a1df;"/>
        <path d="M3,9.11c0,.18.01.35.03.52.02.17.04.34.08.52l2.07-.41c-.04-.22-.07-.44-.07-.66l-2.11.03Z" style="fill: #00a1df;"/>
        <path d="M6.09,14.25c.3.17.62.31.95.42l.68-2c-.21-.07-.42-.16-.61-.27l-1.03,1.85Z" style="fill: #00a1df;"/>
        <path d="M12.09,14.14c.3-.18.58-.39.84-.61l-1.39-1.59c-.17.15-.35.28-.54.39l1.09,1.81Z" style="fill: #00a1df;"/>
        <path d="M15,8.89c0-.18-.01-.35-.03-.52-.02-.17-.04-.34-.08-.52l-2.07.41c.04.22.06.44.07.66l2.11-.03Z" style="fill: #00a1df;"/>
        <path d="M10.9,5.56l1.01-1.81c-.3-.17-.62-.31-.95-.42l-.68,1.99c.21.07.42.17.61.27l.02-.03Z" style="fill: #00a1df;"/>
      </g>
    </g>
    <g>
      <path d="M4.08,5.56c-.2.28-.37.59-.52.9l1.91.89c.09-.2.21-.4.33-.58l-1.72-1.21Z" style="fill: #00c000;"/>
      <path d="M3.56,11.54c.15.31.32.62.52.9l1.73-1.22c-.13-.18-.24-.37-.33-.58l-1.92.89Z" style="fill: #00c000;"/>
      <path d="M13.92,12.44c.2-.28.37-.59.52-.9l-1.92-.89c-.1.2-.21.4-.33.58l1.73,1.21Z" style="fill: #00c000;"/>
      <path d="M14.44,6.46c-.15-.31-.32-.62-.52-.9l-1.72,1.21c.13.18.24.38.33.58l1.91-.89Z" style="fill: #00c000;"/>
      <path d="M9.33,5.12l.19-2.1c-.17-.01-.34-.02-.51-.02s-.35,0-.53.02l.19,2.09c.11,0,.22-.01.34-.01.11,0,.22,0,.33.02Z" style="fill: #00c000;"/>
      <path d="M8.67,12.87l-.19,2.11c.18.02.35.02.52.02s.34,0,.52-.02l-.19-2.11c-.11,0-.22.01-.33.01-.11,0-.22,0-.33-.01Z" style="fill: #00c000;"/>
    </g>
  </g>
</svg>