<svg xmlns="http://www.w3.org/2000/svg" viewBox="0 0 18 18">
  <rect x="0" y="0" width="18" height="18" style="fill: #4a5173;"/>
  <path d="M11.88,8.15h2.62l-.99,1.71h-1.63c-1.07,0-1.95-.45-2.4-1.24-.46-.79-.41-1.77.13-2.71l.83-1.43h1.98l-1.32,2.29c-.23.39-.27.74-.13.99.15.25.47.39.92.39h0ZM8.53,8.62c-.46.79-1.33,1.24-2.4,1.24h-1.63l-.99-1.71h2.62c.45,0,.78-.14.92-.39.14-.25.1-.6-.13-.99l-1.32-2.29h1.98l.83,1.43c.54.93.58,1.92.13,2.71h0ZM9,9.41c.91,0,1.74.53,2.28,1.46l.82,1.41-.99,1.71-1.31-2.27c-.23-.39-.51-.61-.8-.61s-.57.22-.8.61l-1.32,2.29-.99-1.71.83-1.43c.54-.93,1.37-1.46,2.28-1.46h0Z" style="fill: #fff; fill-rule: evenodd;"/>
</svg>