<svg xmlns="http://www.w3.org/2000/svg" xmlns:xlink="http://www.w3.org/1999/xlink" viewBox="0 0 18 18">
  <defs>
    <linearGradient id="linear-gradient" x1="9" y1="20" x2="9" y2="2" gradientTransform="translate(0 20) scale(1 -1)" gradientUnits="userSpaceOnUse">
      <stop offset="0" stop-color="#e71701"/>
      <stop offset="1" stop-color="#ff580e"/>
    </linearGradient>
  </defs>
  <rect x="0" y="0" width="18" height="18" style="fill: #4a5173;"/>
  <path d="M0,0h18v18H0V0Z" style="fill: url(#linear-gradient);"/>
  <path d="M13.93,10.14c0,.6.39.9.75,1.13l.32-.43h-.01c-.29-.19-.52-.34-.52-.7v-3.41h-.53v3.41ZM6.02,10.69c-.32.35-.76.58-1.42.58-.96,0-1.6-.8-1.6-1.73s.67-1.73,1.6-1.73c1.2,0,1.6.93,1.6,1.6,0,.05,0,.22,0,.27h-1.59v-.53h1c0-.4-.46-.8-1-.8-.67,0-1.07.54-1.07,1.2s.4,1.2,1.07,1.2c.37,0,.83-.16,1.05-.42l.38.38ZM8.33,7.8c-.45,0-.77.23-1.07.53v-.53h-.53v2.13h.53v-.68c0-.66.52-.92,1.07-.92.47,0,.8.37.8.86v2.07h.53v-2.07c0-.77-.59-1.39-1.33-1.39ZM11.8,11.27c.67,0,1.11-.22,1.42-.58l-.38-.38c-.22.26-.68.42-1.05.42-.66,0-1.07-.54-1.07-1.2s.4-1.2,1.07-1.2c.53,0,1,.4,1,.8h-1v.53h1.59v-.27c0-.67-.39-1.6-1.59-1.6-.93,0-1.6.8-1.6,1.73s.64,1.73,1.6,1.73Z" style="fill: #fff;"/>
</svg>