<svg xmlns="http://www.w3.org/2000/svg" viewBox="0 0 18 18">
  <rect x="0" y="0" width="18" height="18" style="fill: #016d43;"/>
  <path d="M7.18,4.92c-.41.5-.72,1.02-.94,1.6-.37.99-.32,1.96.22,2.86.67,1.12,1.73,1.55,3.01,1.46.46-.03.89-.16,1.32-.36-.68-1.96-1.37-3.92-2.06-5.9.06,0,.1,0,.15,0,.79,0,1.57,0,2.36,0,.1,0,.15.03.18.13.85,2.46,1.7,4.92,2.55,7.38.04.13.02.18-.1.24-1.12.48-2.28.85-3.49,1.02-1.54.22-3,0-4.36-.79-.95-.55-1.64-1.32-1.91-2.4-.29-1.17-.04-2.24.65-3.21.61-.87,1.43-1.5,2.35-2,.01,0,.02,0,.07-.02Z" style="fill: #fff;"/>
</svg>