<svg xmlns="http://www.w3.org/2000/svg" viewBox="0 0 18 18">
  <rect x="0" y="0" width="18" height="18" style="fill: #2d2d7e;"/>
  <path id="Layer" d="M7.85,3.79c.36-.12.74-.21,1.12-.29-.16.17-.27.37-.35.59-.1.29-.15.59-.18.89-.05.49-.04.98-.05,1.47,0,.31-.01.62-.09.93-.04.15-.1.3-.23.39-.13.08-.29.04-.43,0-.45-.18-.88-.41-1.23-.74-.17-.17-.32-.37-.41-.6-.06-.17-.09-.35-.08-.53.04-.49.25-.96.59-1.31.36-.38.85-.61,1.34-.78h0ZM10.13,4.82c.31-.13.64-.19.97-.16.49.03.94.24,1.33.53.46.33.83.75,1.2,1.18-.33-.09-.68-.04-1.01.05-.5.14-.96.38-1.41.62-.32.17-.63.34-.96.49-.17.07-.35.14-.54.16-.11,0-.24-.02-.32-.1-.09-.09-.12-.22-.13-.34-.05-.38-.06-.77,0-1.15.05-.29.14-.57.31-.81.14-.2.34-.36.56-.45h0ZM4.09,6.74c.16.31.43.53.72.71.46.28.96.46,1.46.64.34.12.68.24,1.01.39.16.08.33.16.45.3.08.09.13.21.1.33-.03.16-.15.28-.26.4-.21.23-.44.45-.7.62-.24.16-.5.29-.79.34-.25.04-.51.02-.74-.08-.46-.2-.85-.56-1.07-1.01-.26-.53-.31-1.13-.28-1.72.01-.31.05-.61.08-.91h0ZM11.79,7.75c.31-.09.65-.11.95,0,.21.07.38.2.54.34.23.21.41.46.53.75.17.41.2.87.17,1.31-.04.52-.18,1.03-.33,1.53-.12-.36-.38-.65-.67-.88-.56-.46-1.22-.78-1.85-1.14-.22-.13-.44-.27-.62-.45-.1-.1-.19-.23-.19-.37,0-.15.12-.27.23-.36.37-.31.78-.58,1.24-.72h0ZM10.01,10.21c.13-.06.28-.02.4.02.4.16.78.35,1.11.63.21.18.4.4.51.66.09.2.12.43.09.65-.04.31-.13.61-.29.87-.22.38-.57.67-.96.87-.55.3-1.17.45-1.78.57.16-.17.28-.39.35-.61.16-.47.19-.97.2-1.46.01-.44,0-.87.03-1.31.01-.21.03-.42.1-.62.04-.11.11-.23.22-.28h0ZM7.84,10.58c.17-.07.34-.14.52-.13.1,0,.2.04.26.11.08.09.11.21.13.32.06.38.08.76.03,1.14-.04.3-.13.6-.31.85-.13.19-.32.35-.54.44-.31.14-.66.21-1,.18-.49-.03-.95-.24-1.34-.52-.45-.32-.83-.72-1.19-1.13.35.08.71.02,1.04-.09.51-.17.98-.43,1.45-.7.31-.17.62-.36.95-.5Z" style="fill: #fff;"/>
</svg>