<svg xmlns="http://www.w3.org/2000/svg" viewBox="0 0 18 18">
  <defs>
    <linearGradient id="linear-gradient" x1="0" y1="9" x2="18" y2="9" gradientUnits="userSpaceOnUse">
      <stop offset="0" stop-color="#01aeef"/>
      <stop offset="1" stop-color="#0066b3"/>
    </linearGradient>
  </defs>
  <rect x="0" y="0" width="18" height="18" style="fill: url(#linear-gradient);"/>
  <path id="path5227" d="M14.3,10.76,14.27,11.99h.01M14.3,10.76v-4.35h-1.26v.54c-.46-.33-1.01-.52-1.61-.52-.86,0-1.62.39-2.13,1.01l-.17.22c-.17.23-1.59,2.16-1.61,2.18-.24.33-.76.89-1.45.89-.86,0-1.57-.74-1.51-1.62.04-.75.65-1.36,1.39-1.41.6-.04,1.03.29,1.31.61l.78-1.05c-.37-.36-1.02-.84-1.94-.84-.04,0-.09,0-.13,0h0c-.13,0-.26.01-.39.03-1.15.2-2.08,1.15-2.25,2.32-.11.81.11,1.63.65,2.24.53.61,1.29.97,2.1.97.92,0,1.77-.4,2.27-1.1l.52-.68c.4,1.04,1.41,1.79,2.57,1.79.6,0,1.15-.19,1.61-.52v.52s1.24,0,1.24,0M11.41,7.7c.82,0,1.49.68,1.49,1.5s-.67,1.5-1.49,1.5-1.49-.68-1.49-1.5.67-1.5,1.49-1.5Z" style="fill: #fff;"/>
</svg>