<svg xmlns="http://www.w3.org/2000/svg" viewBox="0 0 18 18">
  <rect x="0" y="0" width="18" height="18" style="fill: #0a0a0a;"/>
  <path d="M12.61,8.99v-1.12h.55c.42,0,.68.19.68.55h0c0,.34-.25.56-.67.56h-.55ZM11.44,11.11h1.17v-1.21h.58c1.05,0,1.81-.62,1.81-1.53s-.69-1.48-1.75-1.48h-1.81v4.22ZM9.15,11.19c.93,0,1.47-.4,1.87-.95l-.88-.63c-.25.31-.51.51-.95.51-.59,0-1.01-.49-1.01-1.13h0c0-.63.42-1.13,1.01-1.13.4,0,.68.19.92.49l.88-.68c-.37-.52-.93-.88-1.79-.88-1.28,0-2.22.96-2.22,2.19h0c0,1.27.97,2.19,2.18,2.19M4.98,11.18c1.02,0,1.71-.51,1.71-1.37h0c0-.8-.6-1.12-1.57-1.33-.58-.13-.73-.22-.73-.41h0c0-.16.14-.28.42-.28.37,0,.8.14,1.18.42l.58-.83c-.46-.37-1.02-.56-1.74-.56-1.01,0-1.63.57-1.63,1.35h0c0,.88.69,1.13,1.59,1.34.57.13.71.23.71.4h0c0,.19-.17.3-.48.3-.49,0-.95-.17-1.37-.51l-.65.78c.52.46,1.23.7,1.98.7" style="fill: #fff;"/>
</svg>