<svg xmlns="http://www.w3.org/2000/svg" viewBox="0 0 18 18">
  <rect x="0" y="0" width="18" height="18" style="fill: #0a0a0a;"/>
  <path d="M8.32,4.87c-.14.21-.23.45-.24.7-.01.25-.24.44-.51.43-.27-.01-.48-.22-.46-.47.01-.31.12-.77.4-1.17.3-.42.81-.76,1.56-.76.61-.02,1.18.27,1.54.76.24.35.38.76.4,1.18,0,.25-.21.46-.48.46-.27,0-.49-.19-.49-.44-.01-.25-.09-.49-.23-.7-.15-.21-.37-.36-.72-.36-.38,0-.6.16-.75.36ZM9.05,5.7c.25,0,.45.2.45.45v1.97c0,.42-.33.73-.71.76-.59.04-1.35.19-1.94.51-.58.31-.94.74-.94,1.37,0,.32.12.57.33.77.22.21.56.38.98.51.73.22,1.61.28,2.29.27v-.57c-.16-.02-.6-.15-.6-.48s.3-.44.45-.46h1.15c.16,0,.49.11.49.45s-.43.46-.6.48v1.77s.04,0,.06.01c.19.05.54.16.54.48,0,.36-.33.42-.49.4h-1.21c-.13-.01-.39-.09-.39-.4,0-.25.29-.37.49-.45l.11-.04v-.29c-.86.02-1.72-.08-2.55-.31-.49-.13-.95-.38-1.33-.71-.4-.36-.62-.88-.62-1.42,0-1.07.66-1.76,1.42-2.17.68-.34,1.42-.55,2.18-.6v-1.84c0-.25.2-.45.45-.45Z" style="fill: #fff;"/>
</svg>