<svg xmlns="http://www.w3.org/2000/svg" viewBox="0 0 18 18">
  <rect x="0" y="0" width="18" height="18" style="fill: #1a5c94;"/>
  <g>
    <path d="M9.44,2.96s.01,0,.01.01c-.33.79-.48,1.72-.4,2.69.12,1.4.81,2.42,1.65,3.12.29.24.59.46.86.72.54.51.94,1.17.94,2.23,0,1.04-.44,1.8-.97,2.33-.53.53-1.26.98-2.32.98-1.09,0-2.02-.53-2.57-1.09-.62-.62-1.05-1.4-1.07-2.59.48,1.06,1.14,1.98,2.26,2.44.37.15.82.26,1.29.27.79,0,1.33-.27,1.72-.66.37-.36.7-.94.7-1.67,0-.69-.29-1.24-.65-1.62-.18-.19-.41-.35-.61-.53-.59-.54-1.11-1.1-1.55-1.84-.34-.57-.63-1.24-.6-2.11-.22.53-.41,1.05-.4,1.68.02,1.55,1.04,2.47,1.86,3.36.27.3.59.63.72,1.02.08.24.06.53-.04.74-.02.05-.05-.04-.07-.07-.21-.26-.52-.45-.78-.66-.5-.41-.95-.85-1.37-1.38-.54-.67-1.02-1.48-1.11-2.56-.1-1.14.26-2.1.74-2.85.49-.75,1.08-1.36,1.74-1.94,0-.01.03,0,.03-.03Z" style="fill: #ffffff; fill-rule: evenodd;"/>
    <path d="M6.52,6.25s.01,0,.01.01c-.19.71-.28,1.48-.28,2.31,0,2.37,1.65,3.38,3.16,4.26.03.02.07.03.11.05.02.01.08.03.07.07-1.89.08-3.09-.84-3.7-2.15-.32-.68-.49-1.52-.31-2.48.15-.81.52-1.49.94-2.07Z" style="fill: #ffffff; fill-rule: evenodd;"/>
  </g>
</svg>