<svg xmlns="http://www.w3.org/2000/svg" viewBox="0 0 18 18">
  <rect x="0" y="0" width="18" height="18" style="fill: #fcba63;"/>
  <path d="M10.17,10.05c-.76,0-1.53,0-2.29,0-.43,0-.5.09-.38.5.22.75.62,1.07,1.45,1.08,1.11.02,2.22.02,3.33,0,.32,0,.42.04.44.41.01.25.02.51.04.76.03.45-.04.48-.37.56-1.39.32-2.81.54-4.23.36-1.54-.19-2.55-.98-2.95-2.69-.31-1.35-.3-2.72.05-4.05.36-1.38,1.21-2.34,2.69-2.64,1.17-.23,2.3-.18,3.37.39.92.49,1.34,1.32,1.56,2.3.2.92.08,1.84.02,2.76-.02.25-.18.26-.37.26-.79,0-1.57,0-2.36,0h0ZM9.08,8.17h0c.45,0,.9,0,1.35-.01.09,0,.26-.14.25-.18-.07-.4-.1-.84-.29-1.19-.27-.52-1.22-.71-1.88-.49-.49.16-.83.45-.94.97-.04.19-.05.39-.09.58-.05.25.07.33.3.33.43,0,.86,0,1.28,0Z" style="fill: #c01a34;"/>
</svg>