<svg xmlns="http://www.w3.org/2000/svg" viewBox="0 0 18 18">
  <rect x="0" y="0" width="18" height="18" style="fill: #009fe3;"/>
  <g>
    <path d="M12.59,13.8c.78,0,1.41-.6,1.41-1.38v-6.82c0-.78-.64-1.4-1.42-1.4h-7.13c-.78,0-1.45.61-1.45,1.39v6.82c0,.78.67,1.39,1.45,1.39h2.11v-1.02c0-.22-.18-.38-.4-.38h-1.01c-.29,0-.52-.22-.52-.51v-5.77c0-.29.24-.53.53-.53h5.72c.29,0,.51.22.51.51v5.77c0,.29-.21.52-.5.52h-1.1c-.22,0-.4.16-.4.38,0,0,0,1.03,0,1.03" style="fill: #fff;"/>
    <path d="M10.32,8.69h1.53s0,1.53,0,1.53h-1.51c-.27,0-.52.23-.52.5v3.08h-1.71v-3.09c0-.27-.17-.48-.44-.48h-1.51s0-1.53,0-1.53h1.57c.15,0,.29.07.38.18v-1.18c0-.87.73-1.53,1.6-1.53h2.19v1.51h-1.5c-.29,0-.53.29-.53.58v.65c.1-.13.27-.22.45-.22" style="fill: #fff;"/>
  </g>
</svg>