<svg xmlns="http://www.w3.org/2000/svg" viewBox="0 0 18 18">
  <rect x="0" y="0" width="18" height="18" style="fill: #ff7300;"/>
  <path d="M4.29,4h.25c.44.13.79.46,1.15.75,1.04.89,1.95,1.98,2.68,3.19.25.39.38.87.28,1.34-.18.99-.87,1.71-1.45,2.44.81-.65,1.59-1.35,2.39-2.02,1.29-1.1,2.58-2.2,3.87-3.31.13-.11.28-.2.43-.29.03.06.08.17.1.23-.18.54-.51.99-.82,1.45-.56.79-1.13,1.56-1.74,2.3-.81.97-1.6,1.98-2.51,2.84-.4.37-.79.77-1.26,1.03-.15.09-.33.06-.49.03.02-.23.03-.46.11-.67.2-.58.47-1.12.75-1.66-.4.39-.82.75-1.22,1.13-.3.28-.61.58-1,.7-.42.12-.93.12-1.27-.21-.45-.4-.56-1.08-.56-1.68,0-2.38,0-4.75,0-7.13-.03-.22.12-.38.29-.47Z" style="fill: #fff;"/>
</svg>