<svg xmlns="http://www.w3.org/2000/svg" viewBox="0 0 18 18">
  <rect x="0" y="0" width="18" height="18" style="fill: #0045c6;"/>
  <g>
    <path d="M5.34,7.32h-3.34v3.36h3.34v-3.36Z" style="fill: #fff;"/>
    <path d="M3.67,8.91v.26h.78c0,.13-.04.25-.1.35-.07.1-.16.18-.27.24-.13.06-.26.09-.4.08-.14,0-.27-.04-.39-.11-.12-.07-.21-.18-.28-.3-.06-.13-.1-.28-.09-.43,0-.15.03-.3.09-.43.06-.13.16-.23.28-.3.13-.08.28-.12.44-.11.14,0,.28.03.41.1.11.06.2.16.26.27h0s.3,0,.3,0v-.02c-.09-.18-.22-.34-.39-.45-.18-.12-.39-.18-.61-.17-.2,0-.4.05-.57.15-.16.1-.29.24-.37.4-.09.17-.13.37-.13.56,0,.2.04.39.13.56.08.17.21.31.36.4.16.1.35.15.57.15.12,0,.24-.02.35-.06.1-.04.18-.09.26-.15.05-.05.1-.1.15-.15v.34h.26v-1.18h-1.04Z" style="fill: #0045c6;"/>
    <path d="M8.9,7.32h-3.34v3.36h3.34v-3.36Z" style="fill: #fff;"/>
    <path d="M7.96,9.41h0c-.05.14-.14.24-.25.32-.11.08-.26.11-.43.11-.15,0-.3-.03-.43-.11-.12-.07-.21-.18-.27-.3-.06-.13-.09-.28-.09-.43s.03-.29.09-.43c.06-.12.15-.23.27-.3.13-.08.28-.12.43-.11.17,0,.32.04.43.11.11.07.2.18.25.31h0s.29.01.29.01v-.02c-.05-.13-.12-.25-.22-.35-.09-.1-.21-.18-.34-.24-.14-.06-.29-.09-.44-.09-.2,0-.39.05-.56.15-.16.1-.28.24-.36.4-.08.18-.13.37-.13.56s.04.39.13.56c.08.17.21.31.36.4.17.1.36.16.56.15.15,0,.3-.03.44-.09.13-.06.24-.14.34-.24.09-.1.16-.22.21-.35v-.02s-.28,0-.28,0Z" style="fill: #0045c6;"/>
    <path d="M12.45,7.32h-3.34v3.36h3.34v-3.36Z" style="fill: #fff;"/>
    <path d="M11.65,8.54c-.05-.13-.13-.24-.22-.34-.09-.09-.2-.17-.32-.21-.12-.05-.25-.08-.38-.08h-.92v2.18h.92c.13,0,.25-.03.37-.07.12-.05.23-.12.32-.22.1-.1.17-.21.22-.34.11-.29.11-.62,0-.91ZM11.46,9c0,.14-.03.28-.09.41-.06.12-.14.22-.25.3-.11.08-.25.12-.39.11h-.63v-1.65h.63c.14,0,.27.04.39.11.11.08.2.18.25.3.06.13.09.27.09.41" style="fill: #0045c6;"/>
    <path d="M16,7.32h-3.34v3.36h3.34v-3.36Z" style="fill: #fff;"/>
    <path d="M15.01,8.17v-.26h-1.37v.26h.55v1.67h-.55v.26h1.37v-.26h-.55v-1.67h.55Z" style="fill: #0045c6;"/>
  </g>
</svg>