<?xml version="1.0" encoding="UTF-8"?>
<svg id="Layer_1" xmlns="http://www.w3.org/2000/svg" viewBox="0 0 18 18">
  <rect x="0" y="0" width="18" height="18" style="fill: #eb172a;"/>
  <g>
    <path d="M3.46,10.68c2.03-1.85,4.36-3.33,6.89-4.4.52-.22,1.05-.41,1.59-.56.06-.02.28-.06.32-.12-.03-.03-.04-.03-.08-.06-1.09-.64-2.38-.88-3.62-.88-2.25.14-4.69,1.09-5.44,3.49-.07.23-.12.62-.12,1.03,0,.6.11,1.23.46,1.49Z" style="fill: #fff;"/>
    <path d="M6.33,12.88c.18.23.95.28,1.23.32.51.09,1.03.13,1.54.13,1-.02,1.99-.21,2.92-.57.56-.22,1.08-.52,1.56-.9.35-.32.64-.69.87-1.11.12-.21.25-.42.33-.65.21-.53.28-1.1.19-1.67-.02-.13.03-.14-.35,0-.56.2-1.11.38-1.52.6-.28.1-.61.26-.89.37-.24.1-.48.21-.72.33-.65.31-1.29.64-1.92.99-.22.11-.94.55-1.17.7-.71.47-1.39.96-2.06,1.48ZM7.61,9.53c.07,0,.23-.12.29-.17.41-.27.85-.5,1.27-.73.27-.15.53-.28.81-.42,1.14-.52,2.29-1.07,3.47-1.48l.85-.31c.06-.02.01.01.05-.03-.06-.03-.64.11-.75.14l-1.47.38c-.86.28-1.72.49-2.55.84-.24.12-.48.24-.71.37-.4.26-.76.59-1.06.97-.04.07-.08.12-.11.2-.03.08-.09.14-.09.23h0ZM8.2,10.16c.07,0,.13-.07.19-.1.28-.17.56-.37.85-.51.29-.17.59-.33.89-.49.94-.49,1.91-.93,2.88-1.38l1.29-.52c.12-.05.35-.08.42-.19-.17,0-1.02.23-1.21.28l-.71.21c-1.18.38-2.4.72-3.47,1.39-.33.23-.59.5-.86.8-.07.12-.25.38-.27.52ZM13.84,5.85v-.03c-.31,0-.65.12-.96.18-1.3.27-2.57.63-3.81,1.09l-.21.09c-.42.18-.79.45-1.07.81-.09.12-.41.59-.38.64.01.04.12-.04.17-.07l1.39-.78c.43-.19.86-.41,1.29-.62.47-.23.96-.4,1.44-.59l2.15-.74h0ZM15,7.57v-.03c-.06,0-.14.03-.21.05l-2.18.68c-.13.05-.25.09-.39.13l-.77.28-.18.07c-.4.17-.87.34-1.18.67-.29.26-.51.58-.64.94.02.04.04,0,.07-.01.36-.21.71-.43,1.08-.62,1.1-.57,2.21-1.11,3.31-1.67.23-.13.48-.23.72-.32,0,0,.37-.17.37-.17ZM3.28,11.79c.05-.01.27-.23.33-.28l.62-.53.14-.12c.25-.21.59-.46.85-.67l1.87-1.3s0-.33.23-.68c.02-.03.22-.28.2-.29-.02-.02-.17.1-.21.13-.57.4-1.13.82-1.67,1.26-.78.67-1.45,1.43-2.16,2.19-.05.07-.12.14-.17.21-.02.03-.03.03-.04.09ZM4.93,13.13s.04,0,.07-.01c.19-.13.53-.38.71-.5l.66-.42c.91-.6,1.89-1.11,2.83-1.66.04-.02.05-.02.06-.06-.03-.01-.06,0-.11.01-.24.07-.47.07-.71.03-.27-.05-.22-.1-.37,0l-1.08.76c-.36.28-.77.55-1.08.88-.11.11-.34.3-.43.4l-.55.57h0ZM7.31,9.74c-.1-.17-.16-.37-.18-.57-.07,0-.27.18-.34.23-.18.15-.37.29-.56.44-.15.14-.32.27-.47.4-.34.28-.65.6-.97.9-.23.24-.44.48-.67.71-.03.03-.38.39-.34.43.02.02.05-.03.11-.08l1.55-1.2c.63-.43,1.26-.85,1.88-1.28ZM4.33,12.74s0,.01.02,0l.83-.63c.3-.2.6-.4.89-.61l1.26-.8c.08-.05.55-.33.58-.37l-.36-.27c-.12-.1-.04-.2-.32.03-.42.33-.92.64-1.29,1.03-.29.27-.6.52-.87.8l-.72.77s-.02.03-.02.04Z" style="fill: #fff;"/>
  </g>
</svg>