<svg xmlns="http://www.w3.org/2000/svg" xmlns:xlink="http://www.w3.org/1999/xlink" viewBox="0 0 18 18">
  <defs>
    <linearGradient id="linear-gradient" x1="3.71" y1="8.76" x2="14.26" y2="13.24" gradientTransform="translate(0 20) scale(1 -1)" gradientUnits="userSpaceOnUse">
      <stop offset=".15" stop-color="#94c12e"/>
      <stop offset=".19" stop-color="#8dc137"/>
      <stop offset=".24" stop-color="#7bc04f"/>
      <stop offset=".32" stop-color="#5ebf77"/>
      <stop offset=".41" stop-color="#36bdae"/>
      <stop offset=".5" stop-color="#04bbf1"/>
      <stop offset=".59" stop-color="#05b7ed"/>
      <stop offset=".67" stop-color="#08abe0"/>
      <stop offset=".76" stop-color="#0c98cc"/>
      <stop offset=".85" stop-color="#117daf"/>
      <stop offset=".95" stop-color="#185b8a"/>
      <stop offset="1" stop-color="#1d4370"/>
    </linearGradient>
  </defs>
  <rect x="0" y="0" width="18" height="18" style="fill: #fafafa;"/>
  <path d="M10.95,3.75c-1.4,0-2.61.9-2.93,2.28-.07.3-.11.68-.11,1.2v1.02h2.19v-2.32h1.72v3.77c1.26-.37,2.19-1.54,2.19-2.92,0-1.71-1.34-3.03-3.05-3.03ZM7.02,14.25c1.4,0,2.63-.9,2.96-2.28.07-.3.11-.68.11-1.2v-1.02h-2.19v2.32h-1.72v-3.77c-1.26.37-2.19,1.54-2.19,2.92,0,1.78,1.24,3.04,3.02,3.04Z" style="fill: url(#linear-gradient);"/>
</svg>