<svg xmlns="http://www.w3.org/2000/svg" viewBox="0 0 18 18">
  <rect x="0" y="0" width="18" height="18" style="fill: #f5c434;"/>
  <g>
    <path d="M6.6,6.19h1.71v2.06h1.37v-2.06h1.71v6.17h-1.71v-2.4h-1.37v2.4h-1.71v-6.17ZM10.03,6.53h1.03v5.49h-1.03v-2.4h-2.06v2.4h-1.03v-5.49h1.03v2.06h2.06v-2.06Z" style="fill: #fff; fill-rule: evenodd;"/>
    <path d="M7.29,6.87h.34v2.06h2.74v-2.06h.34v4.8h-.34v-2.4h-2.74v2.4h-.34v-4.8Z" style="fill: #fff;"/>
    <path d="M8.96,15.08c-4.59-1.58-4.76-3.88-4.76-4.7v-5.48c0-1.4.82-1.47,2.16-1.64.97-.11,2.06-.19,2.64-.16.57,0,1.67.05,2.64.16,1.34.16,2.16.24,2.16,1.64v5.48c0,.82-.17,3.11-4.77,4.7l-.03.02-.04-.02ZM4.54,10.39c0,.76.13,2.89,4.47,4.42,4.35-1.51,4.44-3.66,4.44-4.42v-5.48c0-1.22-.67-1.21-1.84-1.36-.86-.11-1.73-.16-2.6-.16-.56,0-1.65.05-2.6.16-1.17.15-1.87.14-1.87,1.36,0,0,0,5.48,0,5.48Z" style="fill: #fff;"/>
    <path d="M9.34,4.81l-.34-.34-.34.34.34.34.34-.34Z" style="fill: #fff;"/>
    <path d="M9.36,5.67c0,.2-.16.36-.36.36s-.36-.16-.36-.36c0-.2.16-.36.36-.36.2,0,.36.16.36.36ZM9,5.5l.17.17-.17.17-.17-.17.17-.17ZM8.34,5.67c0,.2-.16.37-.37.37s-.37-.16-.37-.37.16-.37.37-.37.37.16.37.37ZM7.97,5.5l.17.17-.17.17-.17-.17.17-.17ZM10.39,5.67c0,.2-.16.37-.37.37s-.37-.16-.37-.37.16-.37.37-.37.37.16.37.37ZM10.03,5.5l.17.17-.17.17-.17-.17.17-.17Z" style="fill: #fff; fill-rule: evenodd;"/>
  </g>
</svg>