<svg xmlns="http://www.w3.org/2000/svg" viewBox="0 0 18 18">
  <rect x="0" y="0" width="18" height="18" style="fill: #fe1c2b;"/>
  <g>
    <path d="M8.3,3.14c.68-.29,1.46-.13,1.98.39l4.18,4.19c.71.71.71,1.86,0,2.57,0,0,0,0,0,0l-4.18,4.18c-.71.71-1.86.71-2.57,0l-4.18-4.18c-.71-.71-.71-1.86,0-2.57L7.71,3.54c.17-.17.37-.3.59-.4ZM14.54,8.42c.15.37.15.79,0,1.16-.08.18-.19.35-.33.49l-4.14,4.13c-.59.59-1.54.59-2.14,0,0,0,0,0,0,0l-4.13-4.13c-.59-.59-.59-1.55,0-2.14L7.93,3.8c.59-.59,1.54-.59,2.14,0,0,0,0,0,0,0l4.14,4.13c.14.14.25.31.33.49h0Z" style="fill: #fff; fill-rule: evenodd;"/>
    <path d="M9.58,6.4c0,.08.02.16.06.23.04.07.1.12.17.15.07.03.14.04.22.02.07-.01.14-.05.19-.11.11-.12.14-.29.08-.44-.03-.07-.07-.13-.13-.18-.15-.11-.35-.09-.47.05-.07.08-.11.18-.11.29h0Z" style="fill: #f0f3fa;"/>
    <path d="M9.41,6.26l-.29.31.68.73.29-.31s-.68-.73-.68-.73Z" style="fill: #f0f3fa;"/>
    <path d="M9.31,6.74l-3.31,3.57.33.36,3.31-3.58-.34-.37h0Z" style="fill: #f0f3fa;"/>
    <path d="M8.68,10.71l-.67-.73v.63c-.57.36-1.32.24-1.77-.27-.47-.53-.56-1.28-.24-1.91h.59l-.7-.71c-.28.31-.46.68-.53,1.09-.07.41-.03.83.12,1.22.14.38.4.71.72.95.32.23.7.36,1.08.36.53,0,1.03-.23,1.39-.63ZM8.43,6.4c0,.08-.02.16-.07.23-.04.07-.1.12-.17.15-.07.03-.14.04-.21.02-.07-.02-.14-.05-.19-.11-.11-.12-.14-.29-.08-.44.03-.07.08-.13.14-.18.15-.11.35-.08.47.05.07.08.11.18.11.29h0Z" style="fill: #f0f3fa;"/>
    <path d="M8.6,6.26l-.68.73.29.32.68-.73-.29-.32h0Z" style="fill: #f0f3fa;"/>
    <path d="M8.69,6.74l-.33.36,3.3,3.58.33-.37-3.3-3.58h0Z" style="fill: #f0f3fa;"/>
    <path d="M9.32,10.71l.67-.73v.63c.57.35,1.32.24,1.76-.27.47-.53.56-1.28.24-1.91h-.59l.7-.71c.27.3.46.68.53,1.09.07.41.03.83-.12,1.22-.14.38-.39.71-.72.95-.32.23-.7.36-1.09.36-.53,0-1.03-.23-1.39-.63Z" style="fill: #f0f3fa;"/>
  </g>
</svg>