<svg xmlns="http://www.w3.org/2000/svg" viewBox="0 0 18 18">
  <rect x="0" y="0" width="18" height="18" style="fill: #fafafa;"/>
  <g>
    <path d="M4,4.18h10v9.64H4V4.18ZM4.72,4.91v.7h1.01c.56,1.1,1.23,2.29,1.79,3.39h-.97s-1.26-2.5-1.26-2.5h-.56v3.75h8.47v-3.75h-.55c-.42.83-.84,1.66-1.25,2.49-.26,0-.59,0-.85,0,.53-1.09,1.16-2.16,1.72-3.23,0-.01,0-.19,0-.2h.93c0-.28.01-.39.01-.66h-2.32c-.24,1.37-.57,2.73-.81,4.09h-.76s.7-4.09.7-4.09h-2.05l.66,4.09h-.68c-.22-1.36-.55-2.73-.77-4.09h-2.45ZM4.71,10.96v.71h8.48v-.71s-.03-.01,0,0H4.71ZM4.71,12.75v.34h8.48v-.34H4.71Z"/>
    <path d="M4.71,4.89h2.5c.11.68.25,1.32.38,1.96.14.64.27,1.28.39,1.96h.6l-.32-1.96-.33-1.96h2.14c-.12.68-.24,1.32-.36,1.96s-.24,1.28-.36,1.96h.68c.11-.66.24-1.29.36-1.91.13-.66.26-1.31.39-2.02h2.5v.71h-.94l-1.67,3.21h.69l1.35-2.5h.57v3.93H4.71v-3.93h.56l1.34,2.5h.72c-.28-.54-.56-1.07-.84-1.61-.28-.53-.56-1.07-.84-1.61h-.94v-.71ZM4.71,10.96h8.57v.71H4.71v-.71ZM13.29,12.39H4.71v.71h8.57v-.71Z" style="fill: #70a39a;"/>
  </g>
</svg>