<svg xmlns="http://www.w3.org/2000/svg" viewBox="0 0 18 18">
  <rect x="0" y="0" width="18" height="18" style="fill: #fafafa;"/>
  <path d="M5.29,10.77v1.45l1.13.73,1.45-.89.32.16-1.77,1.13-1.45-.97v-1.77l1.45-.97,5.32,3.23.97-.65v-1.45l-2.36-1.61-.98.66,2.38,1.54v.21l-.16.07-2.74-1.78v-3.61l.16-.16.16.16v3.39l.97-.65v-3.23l-1.13-.81-1.13.81v3.55l-.32-.16v-3.55l1.45-1.02,1.45,1.02v3.18l.97-.58v-3.09l-2.42-1.61-2.42,1.45v3.55l-2.58,1.61v2.58l2.42,1.61,2.58-1.61,2.74,1.77,2.26-1.45v-3.06l-2.42-1.58-.94.62,2.39,1.61v1.77l-1.29.81-5.32-3.23-1.13.81ZM6.26,11.44v.27l.26.19.25-.19v-.27l-.25-.18-.26.18Z" style="fill: #00a3e0; fill-rule: evenodd;"/>
</svg>