<svg xmlns="http://www.w3.org/2000/svg" viewBox="0 0 18 18">
  <rect width="18" height="18" style="fill: #e20613;"/>
  <path d="M5.64,4.89c.84-.27,1.7-.49,2.56-.67-.86.52-1.58,1.23-2.18,2.08-.6.85-1.08,1.86-1.42,3.02.25.53.62,1.07,1.07,1.62.52.62,1.06,1.24,1.89,1.87,1.57.32,3.95-.27,4.79-1.04.67-1.72.9-3.46.56-5.23.39.67.77,1.33,1.08,2.02-.08.65-.31,1.36-.65,2.11-.29.66-.59,1.34-1.12,2.07-1.58.75-3.24,1.16-4.95,1.25-1.37-1.12-2.51-2.45-3.29-4.1.16-1.6.67-3.26,1.63-5.01h0ZM11.12,4.02c-.61-.05-1.6.02-2.91.19.32.02.67.07,1.06.15.47.09.97.22,1.51.37.76.55,1.5,1.12,2.13,1.79-.57-1-1.16-1.86-1.79-2.51h0Z" style="fill: #fff;"/>
</svg>