<svg xmlns="http://www.w3.org/2000/svg" viewBox="0 0 18 18">
    <path fill="#fafafa" d="M0 0h18v18H0z"/>
    <path d="M14.74 5.58c-.2.15-.7.33-1.02.38-.4.07-.93.1-1.88.1l-1.15-.02a11.43 11.43 0 00-2.82.19l-.1.02h.26a.9.9 0 01.3.04c.13.1.2.54.3 1.83.04.63.1 1.27.11 1.28l.09-.12c.39-.58 1.38-1.95 1.8-2.47.3-.38.43-.51.54-.57l.1-.04h.37c.38 0 .67.03.71.07.01.01 0 .04-.02.08-.11.16-.16.31-.3.97-.38 1.69-.7 3.66-.67 4 .01.05.03.1.05.12l.03.04.2-.08A5.21 5.21 0 0014.95 7c.05-.38.07-1.4.03-1.46-.02-.03-.04-.04-.07-.04-.04 0-.1.03-.17.08zm-7.56.82c-.1.02-.54.17-.7.24a5.46 5.46 0 00-2.86 2.53 6.7 6.7 0 00-.58 3.36c.02.02.03.03.05.03.03 0 .06-.02.13-.06a3 3 0 011.02-.38c.46-.09 1.56-.13 2.53-.1a11.62 11.62 0 004.17-.37.86.86 0 00-.22 0 1.6 1.6 0 01-.55-.06.13.13 0 01-.06-.07c-.03-.09-.01-.6.02-.91a24.67 24.67 0 01.36-2.1l.09-.38-.22.28c-.25.34-.82 1.09-1.25 1.63-.94 1.18-1.18 1.45-1.32 1.49-.07.02-.21.02-.24 0l-.02-.47a53.5 53.5 0 00-.16-2.94l-.22.42c-.31.64-.69 1.35-1.22 2.28-.22.38-.44.71-.5.74a.5.5 0 01-.15.03h-.11l-.07-.12-.12-.24-.05-.13.1-.15L6.35 8.6c.82-1.47.87-1.58.86-1.94 0-.18-.01-.27-.04-.26z" fill="url(#ap2jcnet5)"/>
    <defs>
        <linearGradient id="ap2jcnet5" x1="14.93" y1="8.64" x2="3.16" y2="11.78" gradientUnits="userSpaceOnUse">
            <stop stop-color="#145125"/>
            <stop offset="1" stop-color="#2C763C"/>
        </linearGradient>
    </defs>
</svg>