<svg xmlns="http://www.w3.org/2000/svg" xmlns:xlink="http://www.w3.org/1999/xlink" viewBox="0 0 18 18">
  <defs>
    <linearGradient id="linear-gradient" x1="9.76" y1="11.93" x2="11.46" y2="7.18" gradientTransform="translate(0 20) scale(1 -1)" gradientUnits="userSpaceOnUse">
      <stop offset="0" stop-color="#ec1c24"/>
      <stop offset=".67" stop-color="#ec2128"/>
      <stop offset=".99" stop-color="#f79987"/>
    </linearGradient>
    <linearGradient id="linear-gradient-2" x1="11.25" y1="15.61" x2="2.42" y2="8.82" gradientTransform="translate(0 20) scale(1 -1)" gradientUnits="userSpaceOnUse">
      <stop offset="0" stop-color="#b02327"/>
      <stop offset="1" stop-color="#ec1c24"/>
    </linearGradient>
  </defs>
  <rect x="0" y="0" width="18" height="18" style="fill: #fafafa;"/>
  <g>
    <path d="M15,7.56c0-.43-.09-.86-.24-1.27-.42.34-.93.54-1.46.59-.56.04-1.13-.08-1.63-.33v4.55c0,.3-.31.55-.61.55h-.73v-2.72l-1,1.23c-.16.2-.46.24-.67.07-.03-.02-.05-.05-.07-.07l-.93-1.23v2.17c0,.3-.25.55-.55.55h-1.42c-.12,0-.21.11-.21.23,0,.07.04.13.09.17,1.26.96,2.11,1.29,3.29,1.29,3.4,0,6.18-2.19,6.12-5.77Z" style="fill: url(#linear-gradient);"/>
    <path d="M12.05,5.67c.21.2.07.33-.23.33h-1.58l-1.24,2.24-1.27-1.93c-.13-.19-.34-.31-.57-.31h-.83v5.3s-1.83-.76-3.16.33c-.75-2.76,1.01-5.67,3.57-6.57,1.77-.63,3.86-.58,5.31.61Z" style="fill: url(#linear-gradient-2);"/>
  </g>
</svg>