<svg xmlns="http://www.w3.org/2000/svg" viewBox="0 0 18 18">
  <rect x="0" y="0" width="18" height="18" style="fill: #fafafa;"/>
  <g>
    <path d="M9,14.97c-.17,0-.34-.05-.51-.14l-4.88-2.67c-.23-.13-.39-.53-.39-.98v-4.36c0-.45.16-.85.39-.98l4.88-2.67c.33-.18.69-.18,1.02,0l4.88,2.67c.23.13.39.53.39.98v4.36c0,.45-.16.85-.39.98l-4.88,2.67c-.17.09-.34.14-.51.14" style="fill: #121617;"/>
    <path d="M9,3.25c-.14,0-.27.04-.4.11l-4.83,2.65c-.18.11-.33.41-.33.81v4.36c0,.39.15.7.32.8l4.83,2.65c.27.15.54.15.81,0l4.79-2.62c.2-.12.37-.44.37-.83v-4.36c0-.39-.14-.7-.35-.82l-4.8-2.64c-.13-.07-.27-.11-.4-.11M9,15.19c-.21,0-.42-.05-.62-.16l-4.88-2.67c-.3-.17-.51-.64-.51-1.17v-4.36c0-.53.2-1,.51-1.17l4.88-2.67c.4-.22.83-.22,1.23,0l4.88,2.67c.3.17.51.64.51,1.17v4.36c0,.53-.2,1-.51,1.17l-4.88,2.67c-.2.11-.41.16-.62.16" style="fill: #fff;"/>
    <path d="M9.03,6.81c-.94-.74-.91-1.86,0-2.58.91.73.86,1.84,0,2.58" style="fill: #fff;"/>
    <path d="M9.82,6.99c.82.25,1.46-.22,1.51-1.05-.8-.23-1.43.24-1.51,1.05" style="fill: #fff;"/>
    <path d="M8.26,6.99c-.82.25-1.46-.22-1.51-1.05.8-.23,1.43.24,1.51,1.05" style="fill: #fff;"/>
    <path d="M9.03,8.34c-.46-.37-.45-.91,0-1.27.45.36.43.9,0,1.27" style="fill: #fff;"/>
    <path d="M8.55,11.87l-1.5-3.42v2.27c0,.2.01.35.04.45.03.1.09.18.18.24.09.07.21.1.34.1v.36h-1.45v-.36c.13,0,.24-.04.33-.11.09-.07.15-.15.17-.25.02-.09.03-.24.03-.45v-2.3c0-.22-.04-.37-.11-.44-.07-.07-.21-.11-.43-.11v-.36h1.62l1.25,2.88,1.26-2.88h1.62v.36h-.08c-.2,0-.33.04-.4.12s-.09.22-.09.42v2.59c0,.2.03.34.09.42.06.08.19.12.39.12h.09v.36h-2.2v-.36h.08c.2,0,.33-.04.39-.12.06-.08.09-.22.09-.42v-2.58l-1.5,3.47h-.23Z" style="fill: #fff;"/>
  </g>
</svg>