<?xml version="1.0" encoding="UTF-8"?>
<svg id="Layer_1" xmlns="http://www.w3.org/2000/svg" viewBox="0 0 18 18">
  <rect x="0" y="0" width="18" height="18" style="fill: #642e68;"/>
  <path d="M8.08,7.16h.05c.03,1.16.19,2.04.32,3.29.09.87.54,1.18,1.51,1.18.07,0,.09-.13.09-.18v-.27c0-.07-.22-.07-.26-.07-.46,0-.72-.29-.81-.8l-.24-2.36h1.01s.05-.04.04-.07v-.38s-.03-.08-.07-.07h-1.03l-.08-.82c-.01-.11-.07-.24-.26-.24h-.3c-.2,0-.25.01-.33.25-.39,1.17-.8,2.33-1.24,3.48h-.04c-.39-1.05-.86-2.41-1.24-3.48-.08-.24-.13-.25-.33-.25h-.3c-.19,0-.25.06-.26.24-.13,1.53-.25,3.32-.31,4.89,0,.1.04.14.11.14h.29c.07,0,.14-.06.13-.14.05-1.54.13-2.94.22-4.34h.05c.37,1.1.82,2.2,1.2,3.15.09.22.18.27.36.27h.2c.18,0,.27-.05.37-.27.46-1.14.76-1.99,1.15-3.15ZM12.63,9.34l1.34,2.17c.05.07.04.12-.03.12h-.39s-.05,0-.08-.02c-.02-.01-.04-.03-.05-.06l-1.29-2.03h-1.02v1.97c.01.06-.03.12-.09.14,0,0-.02,0-.03,0h-.27c-.07,0-.14-.06-.13-.14v-2.49h1.33c.76,0,1.02-.38,1.03-1.12v-.1c0-.73-.37-.88-1.21-.88h-1.16v-.29c0-.09.05-.16.13-.16.34-.06.67-.07,1.01-.07,1.13,0,1.75.43,1.75,1.39v.16c0,.68-.24,1.25-.85,1.41Z" style="fill: #fafafa;"/>
</svg>