<svg xmlns="http://www.w3.org/2000/svg" viewBox="0 0 18 18">
  <rect x="0" y="0" width="18" height="18" style="fill: #00a7f3;"/>
  <g>
    <path d="M9.16,8.21v-2.26h2.28c.29,0,.58.06.78.25.16.16.39.49.37,1.24-.01.51-.12.76-.2.88-.07.12-.19.22-.4.31-.51.22-1.24.23-2.19.22v1.29c.14,0,.28,0,.42,0,1.67.03,3.71.06,3.77-2.64.05-2.27-1.32-2.85-2.55-2.85h-3.9v3.55h1.61Z" style="fill: #fff;"/>
    <path d="M8.06,10.02c-.34.61-.52,1.29-.52,1.99v2.33c.85,0,1.61-.73,1.61-1.63v-3.86h-3.63c-.85,0-1.54.71-1.54,1.61h2.2c.65,0,1.29-.15,1.86-.45Z" style="fill: #fff;"/>
  </g>
</svg>