<svg xmlns="http://www.w3.org/2000/svg" viewBox="0 0 18 18">
    <path fill="#fafafa" d="M0 0h18v18H0z"/>
    <path d="M4 6.23c0-.13.1-.23.22-.23h9.35c.5 0 1.28.14 1.4.57.22.76-.98 1.27-1.51 1.49l-.1.04c-1.64.66-6.13 1.92-6.7 2.08-.01.01-.02.04 0 .05l3.72 2.22a.3.3 0 01.14.26c0 .16-.12.29-.27.29h-3.2c0-.87-.57-1.53-1.52-2.18a.53.53 0 01-.23-.44.5.5 0 01.33-.48L9 8.69l.26-.1c.57-.23 1.14-.46 1.62-.88.65-.57.76-1.24-1.66-1.24H5.74s-.44 0-.44.46v2.34c0 .25-.19.46-.43.46s-.44-.2-.44-.46V6.93c0-.34-.1-.46-.21-.46-.12 0-.22-.1-.22-.24z" fill="#E32118"/>
</svg>