<svg xmlns="http://www.w3.org/2000/svg" viewBox="0 0 18 18">
  <rect x="0" y="0" width="18" height="18" style="fill: #79c142;"/>
  <path d="M10.49,4.85c-.31-.08-.63.07-.77.35l-2.71,5.23c-.32-.31-.53-.71-.63-1.14-.1-.51.02-1.13.69-1.76l.51.78.36-.72-.49-.76c-.11-.16-.33-.21-.5-.1,0,0-.02.01-.02.02-1.1.86-1.39,1.81-1.23,2.67.16.75.6,1.41,1.22,1.85.18.12.42.06.52-.12l2.75-5.31c.09-.18.3-.26.49-.2,1.38.48,2.2,1.44,2.5,2.46.56,1.82-.71,3.92-2.56,4.37-.17.04-.33-.04-.42-.18l-.53-.83-.37.71.41.64c.16.26.46.4.76.36l.18-.03c2.31-.47,3.88-3.01,3.2-5.25-.4-1.31-1.49-2.51-3.27-3.01l-.08-.02h0ZM8.21,5.17c-.19-.29-.56-.41-.89-.29-1.77.51-2.77,1.71-3.17,3-.36,1.2-.06,2.48.63,3.48.61.91,1.55,1.54,2.61,1.79.43.07.85-.15,1.04-.54l2.54-5.06c.63.62.75,1.23.65,1.73-.1.45-.32.86-.65,1.17l-.5-.78-.36.72.48.75c.11.17.34.21.5.09.62-.44,1.06-1.1,1.22-1.85.16-.86-.14-1.81-1.23-2.67l-.07-.06c-.13-.1-.31-.07-.41.05,0,.01-.02.03-.03.04l-2.75,5.46c-.08.16-.26.26-.44.21-.83-.23-1.54-.75-2.02-1.46-.59-.86-.83-1.93-.53-2.91.32-1.04,1.08-2.01,2.48-2.48.17-.06.36.01.46.16l.61.89.36-.71-.53-.77h0Z" style="fill: #fff;"/>
</svg>