<svg xmlns="http://www.w3.org/2000/svg" viewBox="0 0 18 18">
  <rect x="0" y="0" width="18" height="18" style="fill: #3d01a1;"/>
  <g>
    <path d="M6.87,4.42c1.58-.76,3.58-.62,5.01.41.98.68,1.67,1.74,1.97,2.89-.69,0-1.37,0-2.06,0-.25-.61-.71-1.15-1.3-1.45-.95-.5-2.17-.48-3.1.07-.53.33-.95.81-1.2,1.38h-2.04c.37-1.45,1.36-2.66,2.71-3.3Z" style="fill: #fff;"/>
    <path d="M4.02,8.85h1.99c-.04.8.22,1.61.77,2.2.66.72,1.63,1.09,2.6.99.79-.08,1.51-.49,1.99-1.13.44-.58.61-1.32.58-2.04h2.02c.09,1.03-.15,2.1-.72,2.96-.87,1.33-2.41,2.15-3.98,2.22-1.54.09-3.1-.54-4.11-1.71-.84-.96-1.25-2.22-1.14-3.49h0Z" style="fill: #fff;"/>
  </g>
</svg>