<svg xmlns="http://www.w3.org/2000/svg" viewBox="0 0 18 18">
  <rect x="0" y="0" width="18" height="18" style="fill: #fafafa;"/>
  <g>
    <path d="M9.97,15.62v-1.92c-1.64,0-2.98-1.32-2.98-2.96v-.08h-1.99v.07c0,2.7,2.2,4.89,4.91,4.89h.06Z" style="fill: #9e2316;"/>
    <path d="M13,5.41v1.93c-1.65-.01-3,1.3-3.03,2.95v.08h-1.93v-.07c0-2.7,2.2-4.89,4.91-4.89h.06Z" style="fill: #ed1b30;"/>
    <path d="M5,5.41v1.92c1.64,0,2.98,1.32,2.98,2.96v.08h1.99v-.07c0-2.7-2.2-4.89-4.91-4.89h-.06Z" style="fill: #00b3b0;"/>
    <path d="M5,7.34v-1.92c1.64,0,2.98-1.32,2.98-2.96v-.08h1.99v.07c0,2.7-2.2,4.89-4.91,4.89h-.06Z" style="fill: #232e83;"/>
  </g>
</svg>