<svg xmlns="http://www.w3.org/2000/svg" viewBox="0 0 18 18">
  <rect x="0" y="0" width="18" height="18" style="fill: #fafafa;"/>
  <g>
    <path d="M8.17,12.83c-.51.13-.93.14-1.24.02-1.55-.59-2.8-1.97-2.92-3.19-.07-.7.23-1.26.89-1.69.21-.13.46-.26.71-.39.49-.23,1-.41,1.53-.54,1.47-.39,2.99-.49,4.5-.3.59.08,1.15.21,1.65.39.06.02.11.04.15.06.11.04.19.1.26.17.23.25.08.71-.09,1.05-.71,1.49-3.05,3.52-4.89,4.24l-.14.06c-.13.05-.27.09-.4.13Z" style="fill: #33bbed;"/>
    <path d="M7.02,6.53c1.53-.41,3.13-.51,4.7-.31.62.09,1.19.21,1.7.4h0c-.03-.09-.08-.17-.15-.25-.27-.28-.59-.54-.96-.77-1.11-.71-2.58-1.17-3.83-1.16-.19,0-.37.01-.54.04-1.12.14-1.41,1.12-1.15,2.14.06-.04.14-.06.23-.08Z" style="fill: #bfd530;"/>
    <path d="M7.16,7.03l-.22.06c.17.4.41.76.71,1.07.24.25.64.38,1.13.42,1.54.13,3.89-.63,4.51-1.46-.53-.19-1.08-.32-1.65-.39-1.5-.19-3.02-.09-4.48.29Z" style="fill: #92c5eb;"/>
    <path d="M9.08,13.07c.62.37,1.34.54,2.07.49.34-.02.7-.25,1.05-.59,1-1.01,1.87-3.06,1.81-4.14-.86,1.54-3.06,3.44-4.92,4.24Z" style="fill: #f58720;"/>
  </g>
</svg>