<svg xmlns="http://www.w3.org/2000/svg" viewBox="0 0 18 18">
  <rect width="18" height="18" style="fill: #fafafa;"/>
  <g>
    <path d="M6.85,7s.05-.04.08-.06.06-.05.08-.06c.02-.02.06-.05.08-.07s.06-.05.1-.07c.13-.1.26-.19.4-.28s.26-.18.41-.25c.13-.08.28-.17.41-.24.14-.07.28-.16.42-.22.18-.08.37-.18.57-.28s.4-.19.6-.28c.2-.1.41-.18.6-.26.19-.08.38-.17.57-.24.16-.06.29-.12.42-.18.13-.06.25-.11.36-.17.11-.05.22-.11.3-.16.1-.05.18-.11.28-.16h-.05c-.16-.06-.37-.14-.61-.24s-.49-.19-.75-.29-.51-.19-.72-.28-.4-.16-.52-.2c-.02.07-.06.16-.1.23s-.07.14-.12.22c-.04.07-.08.14-.13.2-.05.07-.1.13-.16.19-.08.08-.16.17-.24.25s-.16.16-.22.22c-.07.07-.13.13-.19.18s-.11.1-.16.13c0,0-.02.01-.02.02,0,0-.01.01-.02.02,0,0-.01,0-.02.02h-.01s-.08.08-.16.14-.16.13-.24.2-.18.14-.26.22c-.08.07-.17.13-.23.18-.02.02-.05.04-.07.06s-.05.04-.07.06-.05.04-.06.06-.05.04-.06.06h0s-.04.1-.06.17-.06.17-.1.26c-.04.1-.07.2-.11.31-.04.11-.07.2-.1.29,0,.02-.01.05-.02.07s-.01.05-.02.07-.01.05-.02.07c0,.02-.01.05-.02.07" style="fill: #ce202f;"/>
    <path d="M6.08,9.11v-.1s0-.07.01-.11c0-.04,0-.07.01-.11s0-.07.01-.12c.02-.16.05-.31.08-.47s.06-.31.1-.47c.04-.16.08-.31.12-.46.05-.16.1-.3.14-.46.06-.19.13-.38.2-.59s.14-.42.23-.63c.08-.22.16-.42.24-.63.08-.2.16-.4.23-.58.06-.16.12-.29.17-.42s.1-.25.13-.36c.04-.12.07-.23.11-.32s.06-.2.08-.3h-.02s-.01.01-.01.01h-.01c-.16.08-.36.17-.6.28s-.48.22-.73.32-.49.22-.71.31c-.22.1-.38.17-.51.22.04.07.07.16.1.23s.06.16.07.24c.02.08.04.16.05.24s.02.16.02.24c0,.12,0,.24.01.35s0,.22,0,.31v.26c0,.08,0,.14-.01.2v.12s0,.11-.01.2c0,.1-.02.2-.04.31,0,.11-.02.23-.04.34s-.02.22-.04.29v.37h0s.05.1.07.17c.04.07.07.17.12.26s.1.2.14.3.1.19.13.28c0,.02.02.05.04.07,0,.02.02.05.04.07l.04.07s.02.05.04.06" style="fill: #ce202f;"/>
    <path d="M7,11.15s-.04-.05-.06-.08-.05-.06-.06-.08c-.02-.02-.05-.06-.07-.08s-.05-.06-.07-.1c-.1-.13-.18-.26-.28-.4s-.18-.26-.25-.41c-.08-.13-.17-.28-.24-.41-.07-.14-.16-.28-.22-.42-.08-.18-.18-.37-.28-.57s-.19-.4-.28-.6-.18-.41-.26-.6-.17-.38-.24-.57c-.06-.16-.12-.29-.18-.42s-.11-.25-.17-.36c-.05-.11-.11-.22-.16-.3-.05-.1-.11-.18-.16-.28h0v.02h0v.02c-.06.16-.14.37-.24.61s-.19.49-.29.75-.19.51-.28.72-.16.4-.2.52c.07.02.16.06.23.1s.14.07.22.12.14.08.2.13c.07.05.13.1.19.16.08.08.17.16.25.24.08.07.16.16.22.22s.13.13.18.19.1.11.13.16c0,0,.01.02.02.02s.01.01.02.02,0,.01.02.02h.01s.07.1.13.17.13.16.2.24.14.18.22.26c.07.08.13.17.18.23.02.02.04.05.06.07s.04.05.06.07.04.05.06.06c.02.02.04.05.06.06h0s.1.04.17.06.17.06.26.1.2.07.31.11c.11.04.2.07.29.1.02,0,.05.01.07.02.02,0,.05.01.07.02.02,0,.05.01.07.02.02,0,.05.01.07.02" style="fill: #ce202f;"/>
    <path d="M9.11,11.92h-.1s-.07,0-.11-.01-.07,0-.11-.01-.07,0-.12-.01c-.16-.02-.31-.05-.47-.08s-.31-.06-.47-.1c-.16-.04-.31-.08-.46-.12-.16-.05-.3-.1-.46-.14-.19-.06-.38-.13-.59-.2s-.42-.14-.63-.23c-.22-.08-.42-.16-.63-.24s-.4-.16-.58-.23c-.16-.06-.29-.12-.42-.17s-.25-.1-.36-.13c-.12-.04-.23-.07-.32-.11-.11-.04-.2-.06-.3-.08h0v.02h0v.02c.07.16.16.36.26.6.1.23.22.48.32.73s.22.49.31.71.17.38.22.51c.07-.04.16-.07.23-.1s.16-.06.24-.07c.08-.02.16-.04.24-.05.08-.01.16-.02.24-.02.12,0,.24,0,.35-.01s.22,0,.31,0h.26c.08,0,.14,0,.2.01h.12s.11,0,.2.01c.1,0,.2.02.31.04s.23.02.34.04c.11.01.22.02.29.04h.36s.1-.05.17-.07.17-.07.26-.12.2-.1.3-.14.19-.1.28-.13c.02,0,.05-.02.07-.04l.07-.04s.05-.02.07-.04c.02-.01.05-.02.07-.04" style="fill: #ce202f;"/>
    <path d="M11.15,11s-.05.04-.08.06c-.02.02-.06.05-.08.06-.02.02-.06.05-.08.07-.02.02-.06.05-.1.07-.13.1-.26.19-.4.28s-.26.18-.41.25c-.13.08-.28.17-.41.24-.14.07-.28.16-.42.22-.18.08-.37.18-.57.28s-.4.19-.6.28c-.2.1-.41.18-.6.26s-.38.17-.57.24c-.16.06-.29.12-.42.18-.13.06-.25.11-.36.17-.11.05-.22.11-.3.16-.1.05-.18.11-.28.16h.05c.16.06.37.14.61.24s.49.19.75.29.51.19.72.28.4.16.52.2c.02-.07.06-.16.1-.23s.07-.14.12-.22c.04-.07.08-.14.13-.2.05-.07.1-.13.16-.19.08-.08.16-.17.24-.25l.22-.22c.07-.06.13-.13.19-.18s.11-.1.16-.13c0,0,.02-.01.02-.02l.02-.02s.01,0,.02-.02h.01s.08-.08.16-.14.16-.13.24-.2.18-.14.26-.22c.08-.07.17-.13.23-.18.02-.02.05-.04.07-.06s.05-.04.07-.06.05-.04.06-.06.05-.04.06-.06h0s.04-.1.06-.17.06-.17.1-.26.07-.2.11-.31.07-.2.1-.29c0-.02.01-.05.02-.07,0-.02.01-.05.02-.07,0-.02.01-.05.02-.07,0-.02.01-.05.02-.06" style="fill: #ce202f;"/>
    <path d="M11.92,8.89v.1s0,.07-.01.11c0,.04,0,.07-.01.11,0,.04,0,.07-.01.12-.02.16-.05.31-.08.47s-.06.31-.1.47-.08.31-.12.46c-.05.16-.1.3-.14.46-.06.19-.13.38-.2.59s-.14.42-.23.63-.16.42-.24.63-.16.4-.23.58c-.06.16-.12.29-.17.42s-.1.25-.13.36c-.04.12-.07.23-.11.32s-.06.2-.08.3h.02s.01-.01.01-.01h.01c.16-.08.36-.17.6-.28.23-.1.48-.22.73-.32s.49-.22.71-.31.38-.17.51-.22c-.04-.07-.07-.16-.1-.23-.02-.07-.06-.16-.07-.24-.02-.08-.04-.16-.05-.24s-.02-.16-.02-.24c0-.12,0-.24-.01-.35v-.58c0-.08,0-.14.01-.2v-.12s0-.11.01-.2c0-.1.02-.2.04-.31s.02-.23.04-.34c.01-.11.02-.22.04-.29v-.37h0s-.05-.1-.07-.17-.07-.17-.12-.26-.1-.2-.14-.3-.1-.19-.13-.28c0-.02-.02-.05-.04-.07l-.04-.07s-.02-.05-.04-.07c-.01-.02-.02-.05-.04-.06" style="fill: #ce202f;"/>
    <path d="M11,6.85s.04.05.06.08c.02.02.05.06.06.08.02.02.05.06.07.08s.05.06.07.1c.1.13.19.26.28.4s.18.26.25.41c.08.13.17.28.24.41.07.14.16.28.22.42.08.18.18.37.28.57s.19.4.28.6c.1.2.18.41.26.6s.17.38.24.57c.06.16.12.29.18.42.06.13.11.25.17.36.05.11.11.22.16.3.05.1.11.18.16.28h0v-.02h0v-.02c.06-.16.14-.37.24-.61s.19-.49.29-.75.19-.51.28-.72.16-.4.2-.52c-.07-.02-.16-.06-.23-.1s-.14-.07-.22-.12c-.07-.04-.14-.08-.2-.13-.07-.05-.13-.1-.19-.16-.08-.08-.17-.16-.25-.24l-.22-.22c-.06-.07-.13-.13-.18-.19s-.1-.11-.13-.16c0,0-.01-.02-.02-.02l-.02-.02s0-.01-.02-.02h-.01s-.07-.1-.13-.17c-.06-.07-.13-.16-.2-.24s-.14-.18-.22-.26c-.07-.08-.13-.17-.18-.23-.02-.02-.04-.05-.06-.07s-.04-.05-.06-.07-.04-.05-.06-.06-.04-.05-.06-.06h0s-.1-.04-.17-.06-.17-.06-.26-.1-.2-.07-.31-.11-.2-.07-.29-.1c-.02,0-.05-.01-.07-.02-.02,0-.05-.01-.07-.02-.02,0-.05-.01-.07-.02-.02,0-.05-.01-.07-.02" style="fill: #ce202f;"/>
    <path d="M8.89,6.08h.1s.07,0,.11.01c.04,0,.07,0,.11.01s.07,0,.12.01c.16.02.31.05.47.08s.31.06.47.1c.16.04.31.08.46.12.16.05.3.1.46.14.19.06.38.13.59.2s.42.14.63.23c.22.08.42.16.63.24.2.08.4.16.58.23.16.06.29.12.42.17s.25.1.36.13c.12.04.23.07.32.11.11.04.2.06.3.08h0v-.02h0v-.02c-.07-.16-.16-.36-.26-.6-.1-.23-.22-.48-.32-.73s-.22-.49-.31-.71c-.1-.22-.17-.38-.22-.51-.07.04-.16.07-.23.1-.07.02-.16.06-.24.07-.08.02-.16.04-.24.05-.08.01-.16.02-.24.02-.12,0-.24,0-.35.01h-.58c-.08,0-.14,0-.2-.01h-.12s-.11,0-.2-.01c-.1,0-.2-.02-.31-.04-.11,0-.23-.02-.34-.04s-.22-.02-.29-.04h-.37s-.1.05-.17.07c-.07.04-.17.07-.26.12s-.2.1-.3.14-.19.1-.28.13c-.02,0-.05.02-.07.04l-.07.04-.07.04s-.05.02-.06.04" style="fill: #ce202f;"/>
  </g>
</svg>