<svg viewBox="0 0 48 48" fill="none" xmlns="http://www.w3.org/2000/svg">
  <g clip-path="url(#clip0_167_2)">
    <path
      d="M0 24C0 10.7452 10.7452 0 24 0V0C37.2548 0 48 10.7452 48 24V24C48 37.2548 37.2548 48 24 48V48C10.7452 48 0 37.2548 0 24V24Z"
      fill="#040404"
    />
    <g clip-path="url(#clip1_167_2)">
      <path d="M9 14H38.9415V34H9V14Z" fill="white" />
      <path
        d="M9 14H38.9415V20.6667H9V14ZM9 27.3333H38.9415V34H9V27.3333Z"
        fill="#338AF3"
      />
      <path
        d="M23.9999 26.3393C25.2918 26.3393 26.3391 25.292 26.3391 24.0001C26.3391 22.7082 25.2918 21.6609 23.9999 21.6609C22.7081 21.6609 21.6608 22.7082 21.6608 24.0001C21.6608 25.292 22.7081 26.3393 23.9999 26.3393Z"
        fill="#FFDA44"
      />
    </g>
  </g>
  <defs>
    <clipPath id="clip0_167_2">
      <rect width="48" height="48" fill="white" />
    </clipPath>
    <clipPath id="clip1_167_2">
      <rect x="9" y="14" width="30" height="20" rx="2" fill="white" />
    </clipPath>
  </defs>
</svg>
