<?xml version="1.0" encoding="UTF-8"?>
<svg id="Layer_1" xmlns="http://www.w3.org/2000/svg" viewBox="0 0 28 28">
  <rect x="0" y="0" width="28" height="28" rx="14" ry="14" style="fill: #0a0a0a;"/>
  <g>
    <circle cx="13.86" cy="21.59" r=".28" style="fill: #fff;"/>
    <path d="M15.83,15.27v-2.53c0-.31-.25-.56-.56-.56h-2.53c-.31,0-.56.25-.56.56v2.53c0,.31.25.56.56.56h2.53c.31,0,.56-.25.56-.56ZM12.73,12.73h2.53v2.53s-2.53,0-2.53,0v-2.53Z" style="fill: #fff;"/>
    <path d="M6.97,12.73h-1.41c-.31,0-.56.25-.56.56v1.41c0,.31.25.56.56.56h1.41c.31,0,.56-.25.56-.56v-1.41c0-.31-.25-.56-.56-.56ZM5.56,14.7v-1.41h1.41v1.41s-1.41,0-1.41,0Z" style="fill: #fff;"/>
    <rect x="9.22" y="13.3" width=".56" height="1.55" style="fill: #fff;"/>
    <path d="M8.52,12.73h1.97c.31,0,.56-.25.56-.56v-1.97c0-.31-.25-.56-.56-.56h-1.97c-.31,0-.56.25-.56.56v1.97c0,.31.25.56.56.56ZM8.52,10.2h1.97v1.97s-1.97,0-1.97,0v-1.97Z" style="fill: #fff;"/>
    <path d="M11.05,17.94v-1.97c0-.31-.25-.56-.56-.56h-1.97c-.31,0-.56.25-.56.56v1.97c0,.31.25.56.56.56h1.97c.31,0,.56-.25.56-.56ZM8.52,15.97h1.97v1.97s-1.97,0-1.97,0v-1.97Z" style="fill: #fff;"/>
    <path d="M22.44,12.73h-1.41c-.31,0-.56.25-.56.56v1.41c0,.31.25.56.56.56h1.41c.31,0,.56-.25.56-.56v-1.41c0-.31-.25-.56-.56-.56ZM22.44,14.7h-1.41v-1.41h1.41v1.41Z" style="fill: #fff;"/>
    <path d="M9.78,5.84c0-.16.13-.28.28-.28h1.41v.2c0,.51.35.92.78.92h3.5c.43,0,.78-.41.78-.92v-.2h1.41c.16,0,.28.13.28.28v3.23h.56v-3.23c0-.47-.38-.84-.84-.84h-7.88c-.47,0-.84.38-.84.84v3.23h.56v-3.23ZM15.97,5.76c0,.21-.12.36-.22.36h-3.5c-.1,0-.22-.15-.22-.36v-.2h3.94v.2Z" style="fill: #fff;"/>
    <rect x="18.22" y="13.3" width=".56" height="1.55" style="fill: #fff;"/>
    <path d="M18.22,22.16c0,.16-.13.28-.28.28h-7.88c-.16,0-.28-.13-.28-.28v-3.09h-.56v3.09c0,.47.38.84.84.84h7.88c.47,0,.84-.38.84-.84v-3.09h-.56v3.09Z" style="fill: #fff;"/>
    <path d="M19.48,9.64h-1.97c-.31,0-.56.25-.56.56v1.97c0,.31.25.56.56.56h1.97c.31,0,.56-.25.56-.56v-1.97c0-.31-.25-.56-.56-.56ZM19.48,12.17h-1.97v-1.97h1.97v1.97Z" style="fill: #fff;"/>
    <path d="M19.48,15.41h-1.97c-.31,0-.56.25-.56.56v1.97c0,.31.25.56.56.56h1.97c.31,0,.56-.25.56-.56v-1.97c0-.31-.25-.56-.56-.56ZM19.48,17.94h-1.97v-1.97h1.97v1.97Z" style="fill: #fff;"/>
    <path d="M14.56,11.61c.31,0,.56-.25.56-.56v-1.12c0-.31-.25-.56-.56-.56h-1.12c-.31,0-.56.25-.56.56v1.12c0,.31.25.56.56.56h1.12ZM13.44,9.92h1.12v1.12h-1.12v-1.12Z" style="fill: #fff;"/>
    <path d="M15.12,18.08v-1.12c0-.31-.25-.56-.56-.56h-1.12c-.31,0-.56.25-.56.56v1.12c0,.31.25.56.56.56h1.12c.31,0,.56-.25.56-.56ZM13.44,16.95h1.12v1.12h-1.12v-1.12Z" style="fill: #fff;"/>
  </g>
</svg>