<svg xmlns="http://www.w3.org/2000/svg" viewBox="0 0 18 18">
  <rect x="0" y="0" width="18" height="18" style="fill: #fafafa" />
  <g>
    <path
      d="M3.43,3.57c.79,2.09,1.7,6.32-.43,10.98-.02.06.05.11.13.06,2.55-1.7,4.77-4.96,5.5-7.62-2.53-1.32-4.06-2.69-4.98-3.56-.12-.12-.27.01-.22.14Z"
      style="fill: #ed1c24"
    />
    <path
      d="M14.9,9.05c-2.11-.34-4.16-1.04-5.5-1.69-.77,2.07-2.27,4.29-3.83,5.81-.09.07-.02.2.12.1,3.34-2.36,6.83-3.49,9.22-3.96.13-.03.13-.23,0-.26Z"
      style="fill: #840041"
    />
  </g>
</svg>
