<?xml version="1.0" encoding="UTF-8"?>
<svg id="Layer_1" xmlns="http://www.w3.org/2000/svg" viewBox="0 0 18 18">
  <rect width="18" height="18" style="fill: #fafafa;"/>
  <g>
    <path id="Layer" d="M3.01,9.01c0-3.33,2.68-6.01,6.01-6.01s5.99,2.68,5.99,6.01-2.7,5.99-5.99,5.99-6.01-2.7-6.01-5.99ZM3.9,9.01c0,.68.12,1.33.39,1.96.27.6.63,1.18,1.11,1.64.48.48,1.04.87,1.67,1.11.6.27,1.28.39,1.96.39,2.78,0,5.05-2.27,5.05-5.09s-2.27-5.12-5.05-5.12c-.68,0-1.35.14-1.96.39-.63.27-1.18.63-1.67,1.11s-.85,1.04-1.11,1.67c-.27.6-.39,1.28-.39,1.96h0Z" style="fill: #b81e2d; fill-rule: evenodd;"/>
    <path id="Layer-2" data-name="Layer" d="M5.82,12.2h2.92v-.85h-2.08v-1.01h1.86v-2.66h-1.86v-1.01h2.08v-.85h-2.92v2.75h1.86v.94h-1.86v2.68ZM12.2,9.49h-1.91v-.94h1.91v-2.75h-2.95v.85h2.1v1.01h-1.91v2.68h1.91v1.01h-2.1v.85h2.95v-2.7Z" style="fill: #b81e2d; fill-rule: evenodd;"/>
  </g>
</svg>