<?xml version="1.0" encoding="UTF-8"?>
<svg id="Layer_1" xmlns="http://www.w3.org/2000/svg" viewBox="0 0 18 18">
  <rect width="18" height="18" style="fill: #005f86;"/>
  <g>
    <path d="M9,4c-2.76,0-5,2.24-5,5s2.24,5,5,5,5-2.24,5-5-2.24-5-5-5ZM11.82,11.9s0,.01-.01.01h-5.6s-.01,0-.01-.01v-.56s0-.01.01-.01h5.6s.01,0,.01.01v.56h0ZM8.04,10.43v-2.84h.64v2.84h.63v-2.84h.64v2.84h.64v-2.84h.64v2.84h.29v.58s0,.01-.01.01h-5.02s-.01,0-.01-.01v-.58h.28v-2.84h.64v2.84h.64,0ZM12.01,6.99l-.18.31s-.02.02-.03.02h-5.59s-.02,0-.03-.02l-.18-.31s0-.02,0-.03l2.98-1.58s.03,0,.04,0l2.98,1.58s.01.02,0,.03h0Z" style="fill: #fff;"/>
    <path d="M10.44,6.78l-1.4-.68s-.02-.01-.03-.01c0,0-.02,0-.03,0l-1.42.69s0,0,0,0h2.88s.01,0,0,0Z" style="fill: #fff;"/>
  </g>
</svg>