<svg xmlns="http://www.w3.org/2000/svg" viewBox="0 0 18 18">
  <g clip-path="url(#a)">
    <path fill="#E86E2C" d="M0 0h18v18H0V0Z" />
    <path
      fill="#fff"
      d="M11.686 6.448a.061.061 0 0 1-.036-.012 2.197 2.197 0 0 0-.457-.184c-.35-.106-.96-.237-1.895-.26.053.999.23 1.577.332 1.832l.013.031c.059.138.224.466.483.542a.062.062 0 0 1 .042.074l-1.103 7.504a.063.063 0 0 1-.062.054.063.063 0 0 1-.062-.054l-1.108-7.5a.062.062 0 0 1 .041-.078c.258-.075.423-.402.481-.538.107-.26.291-.842.346-1.868-.935.023-1.545.154-1.894.261a2.03 2.03 0 0 0-.457.186.06.06 0 0 1-.022.009.744.744 0 1 1-.014-1.486c.003 0 .007 0 .011.002a.063.063 0 0 1 .025.009s.14.088.456.185c.351.108.966.24 1.908.262-.024-.936-.155-1.544-.262-1.891a2.104 2.104 0 0 0-.186-.454.06.06 0 0 1-.005-.049.735.735 0 0 1 .456-.668.735.735 0 0 1 .284-.056.72.72 0 0 1 .74.732.068.068 0 0 1-.01.046 2 2 0 0 0-.182.45c-.107.347-.238.955-.263 1.89.941-.022 1.554-.152 1.905-.259.287-.088.428-.168.456-.185a.062.062 0 0 1 .04-.014.745.745 0 0 1 0 1.487Z"
    />
  </g>
  <defs>
    <clipPath id="a">
      <path fill="#fff" d="M0 0h18v18H0z" />
    </clipPath>
  </defs>
</svg>
