<?xml version="1.0" encoding="UTF-8"?>
<svg id="Layer_1" xmlns="http://www.w3.org/2000/svg" viewBox="0 0 18 18">
  <rect width="18" height="18" style="fill: #198038;"/>
  <g>
    <path d="M8.74,9.53v3.96h.53v-3.96c.97.98,1.94,1.96,2.91,2.95-.49,1.41-1.76,2.35-3.18,2.35s-2.69-.94-3.18-2.35c.97-.98,1.94-1.96,2.91-2.95Z" style="fill: #fff;"/>
    <path d="M8.66,9c-1.06,1-2.12,2-3.18,3-.68-.08-1.37-.16-2.05-.24-.55-1.8-.55-3.72,0-5.52.68-.08,1.37-.16,2.05-.24,1.06,1,2.12,2,3.18,3Z" style="fill: #fff;"/>
    <path d="M9.36,9c1.06-1,2.12-2,3.18-3,.68.08,1.37.16,2.05.24.55,1.8.55,3.72,0,5.52-.68.08-1.37.16-2.05.24-1.06-1-2.12-2-3.18-3Z" style="fill: #fff;"/>
    <path d="M5.83,5.52c.49-1.41,1.76-2.35,3.18-2.35s2.69.94,3.18,2.35c-.97.98-1.94,1.96-2.91,2.94v-3.24c.11-.02.21-.13.19-.25.11,0,.13-.11.07-.17-.09-.09-.17-.17-.26-.26-.04-.04-.08-.09-.13-.13-.03-.03-.05-.05-.07-.08,0,0,0,0,0,0,0,0-.01,0-.02-.01-.01,0-.03-.01-.04-.01-.01,0-.03,0-.04,0,0,0-.01,0-.02.01,0,0,0,0,0,0-.03.02-.05.05-.08.08-.04.04-.09.09-.13.13-.09.09-.17.18-.26.26-.05.06-.04.16.08.17-.02.12.08.22.19.25v3.25c-.97-.98-1.94-1.96-2.91-2.94Z" style="fill: #fff;"/>
  </g>
</svg>