<?xml version="1.0" encoding="UTF-8"?>
<svg id="Layer_1" xmlns="http://www.w3.org/2000/svg" viewBox="0 0 18 18">
  <rect width="18" height="18" style="fill: #ea1d25" />
  <path
    d="M11.19,8.69c-.02-.36-.11-.81-.29-1.12l-1.55-2.87c-.12-.22-.2-.45-.25-.7l-.07.12c-.39.7-.39,1.59,0,2.29l1.26,2.29c.39.7.39,1.59,0,2.29l-.07.12c-.05-.24-.13-.48-.25-.7l-1.14-2.1-.73-1.35c-.12-.22-.2-.45-.25-.7l-.07.12c-.39.7-.39,1.57,0,2.29l1.26,2.29c.39.7.39,1.59,0,2.29l-.07.12c-.05-.24-.13-.48-.25-.7l-1.58-2.87c-.21-.39-.32-.69-.32-1.12-1.67.46-2.81,1.31-2.81,2.44,0,1.59,2.24,2.87,5,2.87s5-1.28,5-2.87c.02-1.08-1.12-1.99-2.81-2.44Z"
    style="fill: #fff"
  />
</svg>
