<?xml version="1.0" encoding="UTF-8"?>
<svg id="Layer_1" xmlns="http://www.w3.org/2000/svg" viewBox="0 0 18 18">
  <rect width="18" height="18" style="fill: #e2211d;"/>
  <g>
    <path id="Layer" d="M5.75,7.87c-.13,1.96,1.52,3.83,4.17,5,.61-.49,1.12-1.09,1.52-1.78,1.22-2,1.43-4.52.74-7.09h-3.17c-1.91.91-3.17,2.26-3.26,3.87Z" style="fill: #fff;"/>
    <path id="Layer-2" data-name="Layer" d="M8.1,14c-2.17-1.35-3.61-3.26-3.48-5.3.13-1.91,1.61-3.61,3.74-4.7h-4.35v10h4.09s0,0,0,0Z" style="fill: #fff;"/>
    <path id="Layer-3" data-name="Layer" d="M14.01,4h-1.22c.09.35.26.65.3,1,.65,2.96.22,5.87-1.22,8.17-.04.13-.52.74-.57.83h2.7V4Z" style="fill: #fff;"/>
  </g>
</svg>