<?xml version="1.0" encoding="UTF-8"?>
<svg id="Layer_1" xmlns="http://www.w3.org/2000/svg" viewBox="0 0 18 18">
  <rect width="18" height="18" style="fill: #615c50;"/>
  <g>
    <g>
      <polygon id="polygon3031" points="3.01 12.72 3.01 13.96 3.01 13.96 4.72 13.96 4.72 12.72 3.01 12.72" style="fill: #ed1c24; fill-rule: evenodd;"/>
      <polygon id="polygon3033" points="6.44 12.72 6.44 13.96 6.44 13.96 4.72 13.96 4.72 12.72 6.44 12.72" style="fill: #f58220; fill-rule: evenodd;"/>
      <polygon id="polygon3035" points="6.44 12.72 6.44 13.96 6.44 13.96 8.15 13.96 8.15 12.72 6.44 12.72" style="fill: #ffcb05; fill-rule: evenodd;"/>
      <polygon id="polygon3037" points="9.87 12.72 9.87 13.96 9.87 13.96 8.15 13.96 8.15 12.72 9.87 12.72" style="fill: #00a651; fill-rule: evenodd;"/>
      <polygon id="polygon3039" points="9.87 12.72 9.87 13.96 9.87 13.96 11.58 13.96 11.58 12.72 9.87 12.72" style="fill: #00aeef; fill-rule: evenodd;"/>
      <polygon id="polygon3041" points="13.3 12.72 13.3 13.96 13.3 13.96 11.58 13.96 11.58 12.72 13.3 12.72" style="fill: #9e76b4; fill-rule: evenodd;"/>
      <polygon id="polygon3043" points="13.3 12.72 13.3 13.96 13.3 13.96 15.01 13.96 15.01 12.72 13.3 12.72" style="fill: #a54686; fill-rule: evenodd;"/>
    </g>
    <path id="path3025" d="M11.84,3.99v2.02h-.98v-.11c0-.49-.12-.84-.36-1.07-.24-.23-.62-.34-1.15-.34-.76,0-1.35.26-1.77.79-.42.53-.62,1.27-.62,2.24s.21,1.71.64,2.25c.43.54,1.02.82,1.76.82.54,0,.92-.12,1.16-.37.24-.25.35-.66.35-1.23h.96v2.14c-.45.14-.9.24-1.35.31-.45.07-.9.1-1.36.1-1.27,0-2.25-.35-2.93-1.04-.68-.69-1.01-1.69-1.01-2.99s.36-2.23,1.07-2.92c.71-.7,1.71-1.04,2.99-1.04.37,0,.78.04,1.21.11.43.07.89.19,1.39.34h0Z" style="fill: #fff; fill-rule: evenodd;"/>
  </g>
</svg>