<?xml version="1.0" encoding="UTF-8"?>
<svg id="Layer_1" xmlns="http://www.w3.org/2000/svg" xmlns:xlink="http://www.w3.org/1999/xlink" viewBox="0 0 18 18">
  <defs>
    <linearGradient id="linear-gradient" x1="0" y1="9" x2="18" y2="9" gradientUnits="userSpaceOnUse">
      <stop offset="0" stop-color="#279d2e"/>
      <stop offset="1" stop-color="#25b4bd"/>
    </linearGradient>
  </defs>
  <rect width="18" height="18" style="fill: url(#linear-gradient);"/>
  <g>
    <path d="M4.02,11.76v.48c.02,1.3,1.07,2.35,2.36,2.36h1.23c.38.02.7-.28.72-.66,0-.02,0-.04,0-.05v-4.63c0-.2-.18-.36-.38-.35-.08,0-.16.03-.22.08l-3.46,2.23c-.19.11-.29.33-.25.55" style="fill: #fff;"/>
    <path d="M4.5,10l3.32-2.14c.69-.44,1.39-.02,1.39.68v2.58c-.01.25.18.46.43.47,0,0,.01,0,.02,0h.59c2.02,0,3.75-1.46,3.75-3.95,0-2.63-2.02-4.24-4.38-4.24h-4.94c-.37,0-.66.31-.67.68v5.68c0,.17.15.3.33.29.06,0,.11-.02.16-.06" style="fill: #fff;"/>
  </g>
</svg>