<svg xmlns="http://www.w3.org/2000/svg" viewBox="0 0 18 18">
  <g clip-path="url(#a)">
    <path fill="#FF6200" d="M0 0h18v18H0V0Z" />
    <path fill="#fff" d="M4 8.2h10v4H4z" />
    <path
      fill="#006"
      d="M9.162 10.841a.412.412 0 0 1 .073-.011c.073-.007.312-.01.36-.003l.036.004-.003.167a.969.969 0 0 1-.01.176.495.495 0 0 1-.128.223l-.01.008-.026.02a.47.47 0 0 1-.07.041.471.471 0 0 0-.054.026.763.763 0 0 1-.277.013.395.395 0 0 1-.146-.057c-.047-.025-.1-.106-.113-.173-.012-.062-.015-.109-.007-.124a.126.126 0 0 0 .01-.038.292.292 0 0 1 .069-.133.539.539 0 0 1 .243-.124.297.297 0 0 0 .053-.015Z"
    />
    <path
      fill="#006"
      fill-rule="evenodd"
      d="M7.376 3.775c.409-.025.631-.036.935-.043a31.91 31.91 0 0 1 1.76.013 28.308 28.308 0 0 1 .867.052l.08.007.018.001.128.013.087.008.078.008a7.755 7.755 0 0 1 .431.05 11.313 11.313 0 0 1 1.083.192l.106.027c.206.05.365.122.508.227a1.31 1.31 0 0 1 .286.319 1.756 1.756 0 0 1 .12.279c.008.015.03.1.049.185l.026.12a11.185 11.185 0 0 1 .161.944c.005.021.026.196.043.354l.017.136c.002.01.008.069.013.133l.013.142c.002.015.01.105.017.202l.007.1.013.162a17.155 17.155 0 0 1 .026.474c.03.497.03 1.761 0 2.243l-.01.192-.006.106a5.32 5.32 0 0 1-.017.255c-.003.031-.01.105-.013.166a4.23 4.23 0 0 1-.014.169l-.016.179a2.516 2.516 0 0 1-.017.159 2.373 2.373 0 0 0-.016.136c-.01.107-.035.31-.04.34l-.017.113a9.035 9.035 0 0 1-.088.544c-.021.13-.08.403-.11.519a1.446 1.446 0 0 1-.09.247l-.006.011a.456.456 0 0 1-.034.065.257.257 0 0 0-.023.041c0 .003-.011.02-.025.038l-.035.05a1.3 1.3 0 0 1-.144.155.739.739 0 0 1-.123.093.196.196 0 0 0-.03.021 1.839 1.839 0 0 1-.315.142 2.691 2.691 0 0 1-.232.058 11.26 11.26 0 0 1-1.173.203 19.805 19.805 0 0 1-1.288.111c-.078.004-.172.008-.223.012-.465.027-1.814.027-2.286 0-.058-.003-.173-.01-.255-.013a12.797 12.797 0 0 1-.663-.047 1.735 1.735 0 0 0-.105-.01l-.1-.01a14.164 14.164 0 0 1-1.077-.145 11.221 11.221 0 0 1-.484-.1 2.624 2.624 0 0 1-.272-.073 1.373 1.373 0 0 1-.367-.192l-.004-.003a1.137 1.137 0 0 1-.22-.23l-.022-.032a1.122 1.122 0 0 1-.06-.103c-.074-.144-.102-.23-.165-.523a7.183 7.183 0 0 1-.056-.282l-.014-.076-.006-.033a7.787 7.787 0 0 1-.083-.537l-.003-.02a7.384 7.384 0 0 1-.04-.328 6.905 6.905 0 0 1-.033-.315 11.628 11.628 0 0 1-.062-.828l-.014-.238a25.685 25.685 0 0 1-.007-2.087 26.521 26.521 0 0 1 .097-1.35l.007-.065.009-.077A14.626 14.626 0 0 1 4.04 5.34a4.8 4.8 0 0 1 .096-.411l.02-.053a1.154 1.154 0 0 1 .343-.508 1.37 1.37 0 0 1 .535-.262l.036-.008a27.979 27.979 0 0 1 .15-.035 7.641 7.641 0 0 1 .483-.097l.027-.005c.029-.005.074-.013.1-.016l.102-.017a13.902 13.902 0 0 1 .904-.11c.146-.014.352-.03.54-.042ZM5.434 8.224a.181.181 0 0 1-.043-.014 1 1 0 0 0-.185-.008.196.196 0 0 0-.04.008.36.36 0 0 1-.046.015.363.363 0 0 0-.13.066.473.473 0 0 0-.119.139.135.135 0 0 0-.012.026.65.65 0 0 1-.02.047.687.687 0 0 0 .006.298l.018.035.01.021a.482.482 0 0 0 .164.17.133.133 0 0 0 .027.012.282.282 0 0 0 .101.031c.021.002.038.007.038.01a.46.46 0 0 0 .148 0 .123.123 0 0 1 .042-.01.324.324 0 0 0 .106-.038.44.44 0 0 0 .214-.241.475.475 0 0 0 .02-.149.514.514 0 0 0-.018-.15.128.128 0 0 1-.014-.032.15.15 0 0 0-.014-.03.574.574 0 0 0-.13-.15.437.437 0 0 0-.123-.056Zm7.177.782v-.669h-.014a1.718 1.718 0 0 0-.303.052.655.655 0 0 1-.084.014.512.512 0 0 0-.072.014.538.538 0 0 1-.07.013 1.139 1.139 0 0 0-.093.016.89.89 0 0 1-.1.017.411.411 0 0 0-.069.013.407.407 0 0 1-.073.013.458.458 0 0 0-.072.013c-.006.004-.105.02-.263.045l-.072.011v.448h1.285Zm-5.486.358v-.397c0-.218-.002-.399-.005-.4a1.612 1.612 0 0 0-.2.03 1.09 1.09 0 0 1-.094.016.182.182 0 0 0-.05.009.675.675 0 0 1-.092.017.64.64 0 0 0-.093.015.388.388 0 0 1-.073.014.427.427 0 0 0-.073.014.201.201 0 0 1-.05.01l-.046.004v.668h-.384v.59h.384l.002.664c.002.441.006.674.01.694.007.028.013.055.018.083.005.03.013.06.017.066a.484.484 0 0 1 .017.057.212.212 0 0 0 .016.046.82.82 0 0 0 .2.285c.004 0 .02.012.037.026.03.024.046.035.1.064a.262.262 0 0 1 .027.017.127.127 0 0 0 .03.012c.015.005.03.01.033.014a.233.233 0 0 0 .04.014.748.748 0 0 0 .182.04c.01-.001.02.001.024.005.016.016.288.014.437-.003.105-.013.18-.025.197-.032l.018-.008v-.581l-.044.005a.178.178 0 0 0-.054.011c-.012.011-.28.011-.293.001a.093.093 0 0 0-.03-.012.28.28 0 0 1-.17-.143l-.014-.033c-.021-.055-.02-.119-.022-.678l-.003-.614h.663v-.59h-.662Zm2.402-.04a1.275 1.275 0 0 0-.206-.023l-.106-.006a3.784 3.784 0 0 0-.464.03.863.863 0 0 1-.089.015 1.252 1.252 0 0 0-.206.043.262.262 0 0 1-.05.014.192.192 0 0 0-.045.014.314.314 0 0 1-.05.016.274.274 0 0 0-.05.017.158.158 0 0 1-.04.012.155.155 0 0 0-.04.015c-.007.006-.01.075-.01.315 0 .168.002.307.004.307a.156.156 0 0 0 .029-.013.297.297 0 0 1 .057-.02.22.22 0 0 0 .04-.013.185.185 0 0 1 .04-.014.197.197 0 0 0 .04-.014.269.269 0 0 1 .053-.015.499.499 0 0 0 .06-.017.336.336 0 0 1 .052-.013.333.333 0 0 0 .053-.014.458.458 0 0 1 .07-.015l.086-.016c.128-.029.556-.024.556.005 0 .003.012.007.026.01a.312.312 0 0 1 .104.048.093.093 0 0 0 .025.015.407.407 0 0 1 .141.204c.003.013.007.026.01.028.003.002.007.03.01.062.004.056.004.059-.008.054a2.42 2.42 0 0 0-.586.01.523.523 0 0 0-.09.013.315.315 0 0 1-.056.012.768.768 0 0 0-.086.018 2.872 2.872 0 0 0-.19.062 2.57 2.57 0 0 0-.178.09 1.15 1.15 0 0 0-.162.125.028.028 0 0 0-.018.016.035.035 0 0 1-.01.015.71.71 0 0 0-.09.12c-.002 0-.008.006-.012.014a.527.527 0 0 0-.063.148.176.176 0 0 1-.012.04.294.294 0 0 0-.013.062c-.02.16-.022.186-.014.194a.112.112 0 0 1 .007.043.599.599 0 0 0 .033.187c.005.02.012.044.017.053l.023.05a.446.446 0 0 0 .034.061.21.21 0 0 1 .019.032c0 .008.01.018.087.096a.479.479 0 0 0 .167.13.945.945 0 0 0 .206.082.25.25 0 0 1 .053.013c.033.025.45.026.484 0a.214.214 0 0 1 .043-.012.305.305 0 0 0 .054-.017.668.668 0 0 0 .177-.096c.04-.027.14-.122.17-.162l.02-.027.004.06.005.136v.078h.724l-.003-.886c-.003-.73-.005-.895-.012-.94a.505.505 0 0 0-.014-.062.477.477 0 0 1-.012-.05.217.217 0 0 0-.013-.046.121.121 0 0 1-.01-.03.322.322 0 0 0-.017-.051 1.278 1.278 0 0 0-.099-.197 1.41 1.41 0 0 0-.128-.156.625.625 0 0 1-.053-.044.535.535 0 0 0-.09-.066 1.164 1.164 0 0 0-.388-.149Zm-3.86 2.677V9.364h-.775v2.637h.775Zm5.877-.858c-.016-.02-.02-.173-.02-.957v-.822h-.775l.002.939c.001.706.004.943.01.953.004.007.011.04.015.072a.44.44 0 0 0 .026.113.387.387 0 0 0 .017.053.963.963 0 0 0 .111.223.907.907 0 0 0 .257.238c0 .003.012.009.026.013.015.005.027.01.027.014 0 .002.012.008.028.012a.168.168 0 0 1 .035.014.26.26 0 0 0 .05.017.49.49 0 0 1 .056.017.93.93 0 0 0 .234.02.91.91 0 0 0 .24-.02.153.153 0 0 1 .043-.014.326.326 0 0 0 .067-.022l.055-.028a.66.66 0 0 0 .1-.054 1.12 1.12 0 0 0 .187-.183c.008-.01.016-.018.019-.018.002 0 .006.06.007.13.001.073.005.136.007.14.004.006.086.008.373.008h.367V9.364h-.775v.814c0 .777-.002.91-.02.932a.079.079 0 0 0-.009.033.203.203 0 0 1-.018.05.135.135 0 0 0-.012.03.111.111 0 0 1-.02.034.128.128 0 0 0-.02.031c0 .011-.07.075-.106.098a.276.276 0 0 1-.067.032.304.304 0 0 0-.045.016.421.421 0 0 1-.096.007.358.358 0 0 1-.183-.037c0-.002-.008-.006-.018-.008a.267.267 0 0 1-.064-.053.386.386 0 0 1-.101-.17.085.085 0 0 0-.01-.03Z"
      clip-rule="evenodd"
    />
    <path
      fill="#006"
      d="M9.162 10.841a.412.412 0 0 1 .073-.011c.073-.007.312-.01.36-.003l.036.004-.003.167a.969.969 0 0 1-.01.176.495.495 0 0 1-.128.223l-.01.008-.026.02a.47.47 0 0 1-.07.041.471.471 0 0 0-.054.026.763.763 0 0 1-.277.013.395.395 0 0 1-.146-.057c-.047-.025-.1-.106-.113-.173-.012-.062-.015-.109-.007-.124a.126.126 0 0 0 .01-.038.292.292 0 0 1 .069-.133.539.539 0 0 1 .243-.124.297.297 0 0 0 .053-.015Z"
    />
    <path
      fill="#006"
      fill-rule="evenodd"
      d="M7.376 3.775c.409-.025.631-.036.935-.043a31.91 31.91 0 0 1 1.76.013 28.308 28.308 0 0 1 .867.052l.08.007.018.001.128.013.087.008.078.008a7.755 7.755 0 0 1 .431.05 11.313 11.313 0 0 1 1.083.192l.106.027c.206.05.365.122.508.227a1.31 1.31 0 0 1 .286.319 1.756 1.756 0 0 1 .12.279c.008.015.03.1.049.185l.026.12a11.185 11.185 0 0 1 .161.944c.005.021.026.196.043.354l.017.136c.002.01.008.069.013.133l.013.142c.002.015.01.105.017.202l.007.1.013.162a17.155 17.155 0 0 1 .026.474c.03.497.03 1.761 0 2.243l-.01.192-.006.106a5.32 5.32 0 0 1-.017.255c-.003.031-.01.105-.013.166a4.23 4.23 0 0 1-.014.169l-.016.179a2.516 2.516 0 0 1-.017.159 2.373 2.373 0 0 0-.016.136c-.01.107-.035.31-.04.34l-.017.113a9.035 9.035 0 0 1-.088.544c-.021.13-.08.403-.11.519a1.446 1.446 0 0 1-.09.247l-.006.011a.456.456 0 0 1-.034.065.257.257 0 0 0-.023.041c0 .003-.011.02-.025.038l-.035.05a1.3 1.3 0 0 1-.144.155.739.739 0 0 1-.123.093.196.196 0 0 0-.03.021 1.839 1.839 0 0 1-.315.142 2.691 2.691 0 0 1-.232.058 11.26 11.26 0 0 1-1.173.203 19.805 19.805 0 0 1-1.288.111c-.078.004-.172.008-.223.012-.465.027-1.814.027-2.286 0-.058-.003-.173-.01-.255-.013a12.797 12.797 0 0 1-.663-.047 1.735 1.735 0 0 0-.105-.01l-.1-.01a14.164 14.164 0 0 1-1.077-.145 11.221 11.221 0 0 1-.484-.1 2.624 2.624 0 0 1-.272-.073 1.373 1.373 0 0 1-.367-.192l-.004-.003a1.137 1.137 0 0 1-.22-.23l-.022-.032a1.122 1.122 0 0 1-.06-.103c-.074-.144-.102-.23-.165-.523a7.183 7.183 0 0 1-.056-.282l-.014-.076-.006-.033a7.787 7.787 0 0 1-.083-.537l-.003-.02a7.384 7.384 0 0 1-.04-.328 6.905 6.905 0 0 1-.033-.315 11.628 11.628 0 0 1-.062-.828l-.014-.238a25.685 25.685 0 0 1-.007-2.087 26.521 26.521 0 0 1 .097-1.35l.007-.065.009-.077A14.626 14.626 0 0 1 4.04 5.34a4.8 4.8 0 0 1 .096-.411l.02-.053a1.154 1.154 0 0 1 .343-.508 1.37 1.37 0 0 1 .535-.262l.036-.008a27.979 27.979 0 0 1 .15-.035 7.641 7.641 0 0 1 .483-.097l.027-.005c.029-.005.074-.013.1-.016l.102-.017a13.902 13.902 0 0 1 .904-.11c.146-.014.352-.03.54-.042ZM5.434 8.224a.181.181 0 0 1-.043-.014 1 1 0 0 0-.185-.008.196.196 0 0 0-.04.008.36.36 0 0 1-.046.015.363.363 0 0 0-.13.066.473.473 0 0 0-.119.139.135.135 0 0 0-.012.026.65.65 0 0 1-.02.047.687.687 0 0 0 .006.298l.018.035.01.021a.482.482 0 0 0 .164.17.133.133 0 0 0 .027.012.282.282 0 0 0 .101.031c.021.002.038.007.038.01a.46.46 0 0 0 .148 0 .123.123 0 0 1 .042-.01.324.324 0 0 0 .106-.038.44.44 0 0 0 .214-.241.475.475 0 0 0 .02-.149.514.514 0 0 0-.018-.15.128.128 0 0 1-.014-.032.15.15 0 0 0-.014-.03.574.574 0 0 0-.13-.15.437.437 0 0 0-.123-.056Zm7.177.782v-.669h-.014a1.718 1.718 0 0 0-.303.052.655.655 0 0 1-.084.014.512.512 0 0 0-.072.014.538.538 0 0 1-.07.013 1.139 1.139 0 0 0-.093.016.89.89 0 0 1-.1.017.411.411 0 0 0-.069.013.407.407 0 0 1-.073.013.458.458 0 0 0-.072.013c-.006.004-.105.02-.263.045l-.072.011v.448h1.285Zm-5.486.358v-.397c0-.218-.002-.399-.005-.4a1.612 1.612 0 0 0-.2.03 1.09 1.09 0 0 1-.094.016.182.182 0 0 0-.05.009.675.675 0 0 1-.092.017.64.64 0 0 0-.093.015.388.388 0 0 1-.073.014.427.427 0 0 0-.073.014.201.201 0 0 1-.05.01l-.046.004v.668h-.384v.59h.384l.002.664c.002.441.006.674.01.694.007.028.013.055.018.083.005.03.013.06.017.066a.484.484 0 0 1 .017.057.212.212 0 0 0 .016.046.82.82 0 0 0 .2.285c.004 0 .02.012.037.026.03.024.046.035.1.064a.262.262 0 0 1 .027.017.127.127 0 0 0 .03.012c.015.005.03.01.033.014a.233.233 0 0 0 .04.014.748.748 0 0 0 .182.04c.01-.001.02.001.024.005.016.016.288.014.437-.003.105-.013.18-.025.197-.032l.018-.008v-.581l-.044.005a.178.178 0 0 0-.054.011c-.012.011-.28.011-.293.001a.093.093 0 0 0-.03-.012.28.28 0 0 1-.17-.143l-.014-.033c-.021-.055-.02-.119-.022-.678l-.003-.614h.663v-.59h-.662Zm2.402-.04a1.275 1.275 0 0 0-.206-.023l-.106-.006a3.784 3.784 0 0 0-.464.03.863.863 0 0 1-.089.015 1.252 1.252 0 0 0-.206.043.262.262 0 0 1-.05.014.192.192 0 0 0-.045.014.314.314 0 0 1-.05.016.274.274 0 0 0-.05.017.158.158 0 0 1-.04.012.155.155 0 0 0-.04.015c-.007.006-.01.075-.01.315 0 .168.002.307.004.307a.156.156 0 0 0 .029-.013.297.297 0 0 1 .057-.02.22.22 0 0 0 .04-.013.185.185 0 0 1 .04-.014.197.197 0 0 0 .04-.014.269.269 0 0 1 .053-.015.499.499 0 0 0 .06-.017.336.336 0 0 1 .052-.013.333.333 0 0 0 .053-.014.458.458 0 0 1 .07-.015l.086-.016c.128-.029.556-.024.556.005 0 .003.012.007.026.01a.312.312 0 0 1 .104.048.093.093 0 0 0 .025.015.407.407 0 0 1 .141.204c.003.013.007.026.01.028.003.002.007.03.01.062.004.056.004.059-.008.054a2.42 2.42 0 0 0-.586.01.523.523 0 0 0-.09.013.315.315 0 0 1-.056.012.768.768 0 0 0-.086.018 2.872 2.872 0 0 0-.19.062 2.57 2.57 0 0 0-.178.09 1.15 1.15 0 0 0-.162.125.028.028 0 0 0-.018.016.035.035 0 0 1-.01.015.71.71 0 0 0-.09.12c-.002 0-.008.006-.012.014a.527.527 0 0 0-.063.148.176.176 0 0 1-.012.04.294.294 0 0 0-.013.062c-.02.16-.022.186-.014.194a.112.112 0 0 1 .007.043.599.599 0 0 0 .033.187c.005.02.012.044.017.053l.023.05a.446.446 0 0 0 .034.061.21.21 0 0 1 .019.032c0 .008.01.018.087.096a.479.479 0 0 0 .167.13.945.945 0 0 0 .206.082.25.25 0 0 1 .053.013c.033.025.45.026.484 0a.214.214 0 0 1 .043-.012.305.305 0 0 0 .054-.017.668.668 0 0 0 .177-.096c.04-.027.14-.122.17-.162l.02-.027.004.06.005.136v.078h.724l-.003-.886c-.003-.73-.005-.895-.012-.94a.505.505 0 0 0-.014-.062.477.477 0 0 1-.012-.05.217.217 0 0 0-.013-.046.121.121 0 0 1-.01-.03.322.322 0 0 0-.017-.051 1.278 1.278 0 0 0-.099-.197 1.41 1.41 0 0 0-.128-.156.625.625 0 0 1-.053-.044.535.535 0 0 0-.09-.066 1.164 1.164 0 0 0-.388-.149Zm-3.86 2.677V9.364h-.775v2.637h.775Zm5.877-.858c-.016-.02-.02-.173-.02-.957v-.822h-.775l.002.939c.001.706.004.943.01.953.004.007.011.04.015.072a.44.44 0 0 0 .026.113.387.387 0 0 0 .017.053.963.963 0 0 0 .111.223.907.907 0 0 0 .257.238c0 .003.012.009.026.013.015.005.027.01.027.014 0 .002.012.008.028.012a.168.168 0 0 1 .035.014.26.26 0 0 0 .05.017.49.49 0 0 1 .056.017.93.93 0 0 0 .234.02.91.91 0 0 0 .24-.02.153.153 0 0 1 .043-.014.326.326 0 0 0 .067-.022l.055-.028a.66.66 0 0 0 .1-.054 1.12 1.12 0 0 0 .187-.183c.008-.01.016-.018.019-.018.002 0 .006.06.007.13.001.073.005.136.007.14.004.006.086.008.373.008h.367V9.364h-.775v.814c0 .777-.002.91-.02.932a.079.079 0 0 0-.009.033.203.203 0 0 1-.018.05.135.135 0 0 0-.012.03.111.111 0 0 1-.02.034.128.128 0 0 0-.02.031c0 .011-.07.075-.106.098a.276.276 0 0 1-.067.032.304.304 0 0 0-.045.016.421.421 0 0 1-.096.007.358.358 0 0 1-.183-.037c0-.002-.008-.006-.018-.008a.267.267 0 0 1-.064-.053.386.386 0 0 1-.101-.17.085.085 0 0 0-.01-.03Z"
      clip-rule="evenodd"
    />
  </g>
  <defs>
    <clipPath id="a">
      <path fill="#fff" d="M0 0h18v18H0z" />
    </clipPath>
  </defs>
</svg>
