<?xml version="1.0" encoding="UTF-8"?>
<svg id="Layer_1" xmlns="http://www.w3.org/2000/svg" viewBox="0 0 18 18">
  <rect width="18" height="18" style="fill: #116dd9;"/>
  <g>
    <path d="M14.01,3.98v8.53c-3.79-.13-6.59-4.35-6.59-4.35,0,0-.56-.9-.9-.9-.73,0-2.07,2.37-2.5,3.06V3.98h10ZM10.65,7.3h2.8l-2.33-.52,1.12-1.08-1.12.69v.39l-.47.47v-2.8l-.47,2.33.47.47h-2.8l2.33.47.47-.47v2.84l.47-2.33,1.12,1.08-.73-1.08h-.39l-.47-.47ZM10.17,7.73l-1.12,1.12,1.12-.73v-.39ZM9.79,6.78h.39l-1.08-1.08.69,1.08Z" style="fill: #fff; fill-rule: evenodd;"/>
    <path d="M14.01,14.02v-.73c-.73-.04-3.66-.3-6.21-3.67l-1.29,3.62v-5.22s-.99.69-2.5,3.58v2.41h10Z" style="fill: #fff; fill-rule: evenodd;"/>
  </g>
</svg>