<?xml version="1.0" encoding="UTF-8"?>
<svg id="Layer_1" xmlns="http://www.w3.org/2000/svg" viewBox="0 0 18 18">
  <rect width="18" height="18" style="fill: #fafafa;"/>
  <g>
    <g id="g1277">
      <path id="path1279" d="M12.36,5.1c.75.96,1.07,2.35,1.07,3.95,0,3.1-1.28,5.45-4.38,5.45-1.5,0-2.46-.43-3.2-1.28,1.07-1.17,2.67-2.99,3.52-3.95.75-1.07,2.03-2.78,2.99-4.17Z" style="fill: #2350a9;"/>
    </g>
    <g id="g1281">
      <path id="path1283" d="M5.64,12.9c-.75-.96-1.07-2.35-1.07-3.84,0-3.2,1.28-5.55,4.49-5.55,1.28,0,2.35.53,3.1,1.28-1.17,1.28-2.78,3.1-3.42,3.95-.85.96-2.14,2.88-3.1,4.17Z" style="fill: #00adef;"/>
    </g>
  </g>
</svg>