<?xml version="1.0" encoding="UTF-8"?>
<svg id="Layer_1" xmlns="http://www.w3.org/2000/svg" viewBox="0 0 18 18">
  <rect width="18" height="18" style="fill: #e21d19;"/>
  <g>
    <g>
      <polyline points="9 5.95 5.47 8 4.57 7.13 6.49 5.36 4.93 5.36 3 7.02 9 13.14" style="fill: #fafafa;"/>
      <g>
        <g>
          <polygon points="9 11.43 8.4 10.84 9 10.43 9 11.43" style="fill: #e21d19;"/>
          <polygon points="7.67 10.13 9 9.3 9 8.59 7.21 9.68 7.67 10.13" style="fill: #e21d19;"/>
        </g>
        <polygon points="6.46 8.96 9 7.51 9 6.91 6.11 8.62 6.46 8.96" style="fill: #e21d19;"/>
      </g>
    </g>
    <g>
      <polyline points="9 5.95 12.53 8 13.43 7.13 11.51 5.36 13.07 5.36 15 7.02 9 13.14" style="fill: #fafafa;"/>
      <g>
        <g>
          <polygon points="9 11.43 9.6 10.84 9 10.43 9 11.43" style="fill: #e21d19;"/>
          <polygon points="10.33 10.13 9 9.3 9 8.59 10.79 9.68 10.33 10.13" style="fill: #e21d19;"/>
        </g>
        <polygon points="11.54 8.96 9 7.51 9 6.91 11.89 8.62 11.54 8.96" style="fill: #e21d19;"/>
      </g>
    </g>
  </g>
</svg>