<?xml version="1.0" encoding="UTF-8"?>
<svg id="Layer_1" xmlns="http://www.w3.org/2000/svg" viewBox="0 0 18 18">
  <rect width="18" height="18" style="fill: #614ad9;"/>
  <path d="M8,10.23c-.13-.19-.2-.41-.2-.64,0-.31.12-.6.34-.82.22-.22.51-.34.82-.34.23,0,.45.07.65.19.19.13.34.31.43.52.09.21.11.44.07.67-.04.22-.16.43-.32.59-.16.16-.37.27-.59.32-.23.04-.46.02-.67-.07-.21-.09-.39-.24-.52-.43ZM5.26,4.67c-.16.16-.25.37-.25.59v4.38c0,2.17,1.79,3.93,4,3.93s4-1.76,4-3.93-1.79-3.9-4-3.9c-.11,0-.22.02-.32.06-.1.04-.19.1-.27.18s-.14.17-.18.27-.06.21-.06.32.02.22.06.32.1.19.18.27.17.14.27.18c.1.04.21.06.32.06,1.29,0,2.32.98,2.32,2.22s-1.03,2.26-2.32,2.26-2.32-1.01-2.32-2.26v-4.38c0-.22-.09-.43-.25-.59s-.37-.25-.59-.25-.44.09-.59.25Z" style="fill: #fff;"/>
</svg>