<?xml version="1.0" encoding="UTF-8"?>
<svg id="Layer_1" xmlns="http://www.w3.org/2000/svg" viewBox="0 0 18 18">
  <rect width="18" height="18" style="fill: #0500c4;"/>
  <g>
    <path d="M3.73,5.94c.25-.25.65-.25.89,0,0,0,0,0,0,0l.2.19.38-.39-.19-.19c-.11-.11-.25-.2-.4-.26-.29-.12-.61-.12-.89,0-.3.12-.53.35-.65.65-.06.14-.08.29-.08.45,0,.15.03.3.08.44.06.15.15.28.26.39.11.11.25.2.39.26.14.05.29.08.45.08.15,0,.3-.03.44-.08.15-.06.28-.15.4-.26l.19-.19-.38-.39-.2.2c-.06.06-.13.11-.2.14-.08.03-.16.05-.24.05-.17,0-.33-.06-.45-.19-.06-.06-.11-.13-.14-.21-.06-.15-.06-.32,0-.48.03-.08.08-.15.14-.2" style="fill: #fff;"/>
    <path d="M7.38,5.55c-.11-.11-.25-.2-.4-.26-.29-.12-.61-.12-.89,0-.3.12-.53.35-.65.65-.06.14-.08.29-.08.44,0,.15.03.3.08.45.06.15.15.28.26.39.46.46,1.21.47,1.67,0,0,0,0,0,0,0l.19-.19-.39-.39-.19.19c-.09.1-.22.16-.35.18-.03,0-.06,0-.09,0h0c-.07,0-.15-.01-.21-.04l1.24-1.24-.19-.19ZM6.54,5.75c.07,0,.15.01.22.04-.04.04-.09.09-.15.14l-.66.66c-.11-.33.06-.69.39-.81.03-.01.07-.02.1-.03.03,0,.06,0,.1,0" style="fill: #fff;"/>
    <path d="M9.75,5.55c-.47-.46-1.21-.46-1.68,0-.11.11-.19.24-.25.38-.06.15-.09.3-.09.46v1.19h.55v-1.19c0-.08.01-.17.05-.24.03-.08.08-.14.14-.2.18-.18.46-.24.7-.14.15.06.27.19.33.34.03.08.05.16.05.24v1.19h.55v-1.19c0-.31-.13-.61-.35-.83" style="fill: #fff;"/>
    <path d="M11,5.94c.25-.25.64-.25.89,0,0,0,0,0,0,0l.2.19.38-.39-.19-.19c-.11-.11-.25-.2-.4-.26-.29-.12-.61-.12-.89,0-.3.12-.53.35-.65.65-.06.14-.08.29-.08.45,0,.15.03.3.08.44.06.15.15.28.26.39.11.11.24.2.39.26.14.05.29.08.45.08.15,0,.3-.03.44-.08.15-.06.28-.15.4-.26l.19-.19-.38-.39-.2.2c-.06.06-.13.11-.2.14-.08.03-.16.05-.24.05-.17,0-.33-.06-.45-.19-.06-.06-.11-.13-.14-.21-.06-.15-.06-.32,0-.48.03-.08.08-.15.14-.2" style="fill: #fff;"/>
    <path d="M14.65,5.55c-.47-.46-1.21-.46-1.68,0-.11.11-.19.24-.25.38-.06.15-.09.3-.09.46,0,.16.03.31.09.46.06.14.15.27.25.38.11.11.24.2.38.26.15.06.3.09.46.09.16,0,.31-.03.46-.09.14-.06.27-.15.38-.26.11-.11.19-.24.25-.38.06-.15.1-.3.1-.46,0-.31-.13-.61-.35-.83M14.45,6.38c0,.09-.02.17-.05.25-.03.08-.08.15-.13.2-.06.06-.13.1-.2.13-.16.06-.34.06-.5,0-.16-.06-.28-.19-.34-.34-.03-.08-.05-.16-.05-.25,0-.08.01-.16.05-.24.03-.07.08-.14.14-.2.12-.12.28-.18.45-.19.09,0,.17.02.25.05.15.06.27.19.34.34.03.08.05.16.05.24" style="fill: #fff;"/>
    <path d="M10.73,9.91h0v-1.72h-.78v.24c-.82-.57-1.95-.36-2.51.46-.57.82-.36,1.95.46,2.51.62.42,1.43.42,2.05,0v.24h.78v-1.72ZM8.93,10.94c-.57,0-1.02-.46-1.02-1.02s.46-1.02,1.02-1.02,1.02.46,1.02,1.02h0c0,.57-.46,1.02-1.02,1.02Z" style="fill: #ffac2c;"/>
    <path d="M14.03,8.19v1.72c0,.57-.48,1.02-1.04,1.01-.55,0-1-.46-1.01-1.01v-1.72h-.78v1.72c0,1,.81,1.81,1.81,1.81.37,0,.72-.11,1.02-.32,0,.56-.46,1.02-1.02,1.02h0s-.35,0-.35,0v.78h.35c1,0,1.81-.81,1.81-1.81h0v-3.2h-.78Z" style="fill: #00c7f9;"/>
    <path d="M5,8.11c-.93,0-1.71.71-1.8,1.64h0v3.45h.78v-1.79c.82.57,1.95.36,2.51-.46.57-.82.36-1.95-.46-2.51-.3-.21-.66-.32-1.02-.32h0ZM5,10.94c-.57,0-1.03-.46-1.03-1.02h0c0-.57.46-1.03,1.02-1.03.57,0,1.03.46,1.03,1.02s-.46,1.03-1.02,1.03h0Z" style="fill: #f04b67;"/>
  </g>
</svg>