<?xml version="1.0" encoding="UTF-8"?>
<svg id="Layer_1" xmlns="http://www.w3.org/2000/svg" xmlns:xlink="http://www.w3.org/1999/xlink" viewBox="0 0 18 18">
  <defs>
    <linearGradient id="linear-gradient" x1="0" y1="9" x2="18" y2="9" gradientUnits="userSpaceOnUse">
      <stop offset="0" stop-color="#279d2e"/>
      <stop offset="1" stop-color="#25b4bd"/>
    </linearGradient>
  </defs>
  <rect width="18" height="18" style="fill: url(#linear-gradient);"/>
  <g>
    <path d="M11.09,7.09c-.39.05-.72.35-.82.72,0,0,0,.01,0,.02-.04.06-.04.13-.04.2,0,0,0,0,0,.01,0,.04,0,.08,0,.12,0,.93,0,1.86,0,2.78,0,.01,0,.02,0,.03-.09.45-.37.71-.81.8-.01,0-.02,0-.03,0-.34,0-.69,0-1.03,0-.02,0-.03,0-.05,0-.14-.04-.28-.1-.32-.27-.05-.2,0-.35.15-.45.09-.06.2-.09.3-.08.3,0,.61.01.91,0h.01s0,0,0,0c.06-.03.07-.08.07-.14,0-.92,0-1.85,0-2.77,0,0,0-.02,0-.02.03-.2.05-.4.14-.59.31-.71.86-1.1,1.63-1.16.28-.02.46.13.48.37.01.24-.16.41-.44.42-.01,0-.03,0-.04,0-.03,0-.06,0-.08.01Z" style="fill: #fff;"/>
    <path d="M5.21,12.87s-.02-.02-.02-.02c-.02-.02-.04-.04-.06-.06,0,0,0,0,0,0-.01-.01-.02-.02-.03-.04,0,0,0,0,0,0-.01-.01-.02-.02-.03-.04,0,0,0,0,0,0-.01-.01-.02-.02-.03-.04,0,0,0,0,0,0-.02-.02-.04-.05-.06-.07-.28-.36-.53-.73-.69-1.16-.07-.18-.02-.35.12-.46.13-.11.31-.12.45-.03.09.05.14.13.18.22.08.18.16.36.27.52.02.03.04.06.06.09,0,0,0,0,0,0,.01.02.03.04.04.06,0,0,0,0,0,0,0,.01.02.03.03.04h0s0,0,0,0c.01.02.03.04.04.05,0,.01.02.02.02.03.02.02.04.04.05.06h0s0,0,0,0c.02.03.04.05.07.08,0,0,.02.02.02.03.01.01.02.02.03.04,0,0,.01.01.02.02.03.03.06.06.09.09,0,0,0,0,0,0,.03.03.06.06.1.09.61.57,1.34.84,2.16.85.09,0,.17,0,.26,0,.19,0,.34.13.38.3.04.17-.05.39-.2.46-.05.02-.11.02-.16.03-.13,0-.26,0-.39,0-.61-.04-1.19-.18-1.74-.47-.29-.15-.54-.34-.8-.54-.02-.01-.03-.02-.05-.04,0,0,0,0,0,0,0,0,0,0,0,0-.01-.01-.02-.02-.04-.03h0s0,0,0,0c-.01-.01-.02-.02-.03-.04,0,0-.02-.01-.02-.02-.01-.01-.02-.02-.03-.03Z" style="fill: #fff;"/>
    <path d="M13.14,13.22c.08-.04.08-.12.08-.2,0-.57,0-1.15,0-1.72,0-.18.12-.32.3-.37.16-.04.34.03.43.18.03.04.05.09.05.15,0,.65.02,1.3,0,1.95-.02.46-.42.81-.88.82-.61,0-1.21,0-1.82,0-.22,0-.38-.14-.4-.33-.02-.19.04-.31.19-.38.06-.03.13-.04.2-.04,0,0,0,0,0,0,.07,0,.08,0,.13,0,.51,0,1.03,0,1.54,0,.04,0,.08,0,.12-.03.02,0,.04-.02.06-.03Z" style="fill: #fff;"/>
    <path d="M11.26,4.71c-.23,0-.41-.22-.36-.45,0,0,0,0,0,0,.04-.17.18-.29.37-.29.62,0,1.25,0,1.87,0,.5,0,.87.44.86.97,0,.56,0,1.13,0,1.69,0,.26-.15.43-.39.43-.23,0-.39-.18-.39-.43,0-.55,0-1.1,0-1.65,0-.09,0-.14-.03-.21,0,0-.04-.03-.05-.04,0,0-.02-.01-.03-.02-.06-.02-.08-.02-.12-.02-.53,0-1.05,0-1.58,0-.08,0-.03,0-.16,0Z" style="fill: #fff;"/>
    <path d="M4.83,4.71c-.1.01-.07.22-.07.28,0,.53,0,1.06,0,1.59,0,.05,0,.1,0,.16,0,0,0,0,0,.01,0,.04-.01.07-.03.11-.08.17-.2.24-.38.21-.2-.03-.33-.2-.34-.43,0-.59,0-1.18,0-1.78,0-.49.4-.89.89-.89.6,0,1.19,0,1.79,0,.24,0,.4.12.44.33.02.11-.01.21-.08.29l-.34.12s-.04,0-.06,0c-.55,0-1.1,0-1.65,0-.05,0-.05,0-.1,0" style="fill: #fff;"/>
    <path d="M6.92,6.28c.34,0,.52.14.53.37.01.23-.16.41-.42.42-.37.02-.66.18-.86.49-.09.14-.23.21-.4.19-.15-.02-.26-.11-.32-.25-.05-.13-.03-.25.05-.37.35-.54.85-.82,1.42-.86Z" style="fill: #fff;"/>
    <path d="M7.62,8.15c-.37,0-.74,0-1.11,0-.04,0-.07,0-.11,0-.07-.05-.09-.12-.06-.21.09-.33.4-.57.74-.57.35,0,.67.23.76.56.02.09.03.17-.06.22-.05,0-.11,0-.16,0Z" style="fill: #fff;"/>
    <path d="M10.64,8.15c-.1-.05-.11-.13-.08-.23.09-.31.35-.52.68-.56.3-.03.62.14.76.42.02.03.03.07.05.1.08.14.02.26-.15.26-.4,0-.8,0-1.21,0-.02,0-.04,0-.06,0Z" style="fill: #fff;"/>
  </g>
</svg>