<?xml version="1.0" encoding="UTF-8"?>
<svg id="Layer_1" xmlns="http://www.w3.org/2000/svg" viewBox="0 0 18 18">
  <rect width="18" height="18" style="fill: #fafafa;"/>
  <g>
    <path d="M9.01,5c-3.26,0-5.89,1.69-5.89,3.77s2.63,3.93,5.89,3.93,5.89-1.85,5.89-3.93-2.64-3.77-5.89-3.77Z" style="fill: #54b8f8;"/>
    <path d="M7.1,7.61s-.06.07-.03.11c.09.12.37.18.65.12.17-.04.39-.21.6-.38.23-.18.45-.36.68-.44.16-.06.33-.06.49-.02.11.03.24.11.45.26.39.29,1.98,1.69,2.26,1.92.84-.35,1.72-.63,2.61-.82-.12-.71-.54-1.39-1.2-1.92-.91.39-2.11.61-3.2.08,0,0-.6-.29-1.18-.27-.86.02-1.24.39-1.65.79l-.5.56Z" style="fill: #fff;"/>
    <path d="M12.15,9.35s-1.86-1.64-2.28-1.95c-.24-.18-.38-.23-.52-.24-.08,0-.16,0-.24.03-.19.05-.45.23-.68.4s-.45.36-.66.41c-.26.06-.58,0-.73-.11-.05-.03-.09-.08-.12-.13-.03-.09,0-.18.06-.25l.51-.55.18-.18c-.17.02-.32.07-.46.1-.18.06-.36.09-.55.1-.08,0-.48-.07-.55-.08-.46-.13-.98-.25-1.59-.53-.72.54-1.2,1.2-1.33,1.95l.44.11c1.65.36,2.15.74,2.24.83.1-.12.25-.18.4-.18.18,0,.34.09.44.24.11-.09.25-.14.39-.14.08,0,.16.02.24.04.15.05.27.16.33.3.07-.03.15-.05.23-.05.1,0,.19.02.28.06.3.13.35.43.32.65h.07c.36,0,.66.3.65.66,0,.1-.03.21-.08.3.1.06.34.18.56.15.18-.02.24-.08.26-.12s.03-.05.02-.06l-.46-.51s-.08-.08-.05-.1.08,0,.11.04c.18.16.36.32.52.5.04.03.08.05.13.06.13.02.26,0,.37-.08.03-.03.06-.05.08-.08h0c.12-.14-.02-.29-.02-.29l-.54-.6s-.08-.07-.05-.1.08.02.11.04c.17.14.41.39.65.61.04.03.25.16.52-.02.12-.07.19-.2.19-.34-.01-.09-.05-.17-.12-.23l-.74-.74s-.08-.06-.05-.1.08,0,.11.04c.24.19.87.78.87.78.15.1.35.1.5,0,.1-.06.16-.16.17-.27,0-.13-.04-.26-.14-.35Z" style="fill: #fff;"/>
    <path d="M8.56,10.29c-.12,0-.24.07-.26.06s0-.05.02-.08.16-.48-.21-.64c-.29-.12-.45.02-.51.08-.02.02-.03.02-.03,0,0-.17-.12-.32-.29-.38-.24-.07-.49.02-.63.23-.03-.22-.23-.37-.45-.34s-.37.23-.34.45c.03.2.2.35.4.35.1,0,.2-.04.28-.11v.02c-.02.1-.05.46.33.61.13.05.28.03.39-.06.03-.03.03-.02.03.02-.02.09,0,.29.29.4.14.07.31.04.42-.08.03-.03.04-.02.05.03.01.28.25.49.53.48.27-.01.48-.23.48-.5.03-.26-.16-.5-.42-.53-.02,0-.04,0-.06,0Z" style="fill: #fff;"/>
    <path d="M9.01,4.84c-3.31,0-6,1.76-6,3.93v.23c0,2.29,2.35,4.15,6,4.15s6-1.85,6-4.15v-.23c0-2.17-2.68-3.93-6-3.93ZM14.74,8.34c-.86.19-1.71.47-2.52.82-.57-.5-1.89-1.65-2.24-1.91-.2-.15-.34-.24-.46-.27-.07-.02-.15-.04-.22-.04-.1,0-.2.02-.29.05-.23.08-.46.25-.68.43h0c-.21.18-.42.34-.58.38-.07.02-.14.02-.22.02-.18,0-.34-.05-.4-.13,0-.02,0-.03.02-.07h0l.5-.54c.39-.39.76-.76,1.62-.78h.04c.39.01.77.1,1.12.27.47.24.99.36,1.52.37.54,0,1.09-.13,1.67-.4.6.51,1.01,1.12,1.12,1.79ZM9.01,5.08c1.76,0,3.33.5,4.39,1.3-.51.22-1,.34-1.47.34-.5,0-.98-.12-1.43-.35-.03,0-.61-.29-1.22-.29h-.05c-.71.02-1.12.27-1.39.5-.24.01-.47.05-.7.13-.16.05-.32.08-.49.09-.06,0-.18,0-.18,0-.17,0-1.04-.22-1.75-.48,1.05-.76,2.58-1.23,4.28-1.23ZM4.51,6.46c.73.3,1.62.53,1.91.54.08.01.16.02.24.02.19,0,.37-.04.55-.1.11-.03.23-.06.34-.08l-.1.1-.5.54c-.08.07-.11.19-.07.29.03.06.08.11.13.15.12.08.34.13.54.13.07,0,.15,0,.22-.03.21-.05.44-.23.67-.41.19-.15.45-.34.66-.39.06-.02.13-.03.19-.03h.05c.13.02.27.07.5.24.42.31,2.27,1.93,2.28,1.95.07.07.11.17.11.27-.01.1-.07.18-.15.24-.07.05-.16.07-.24.08-.08,0-.15-.02-.22-.06,0,0-.64-.59-.87-.78-.03-.03-.07-.05-.11-.06-.02,0-.04.01-.05.03-.03.04,0,.11.05.15l.74.75c.05.05.09.12.1.2,0,.13-.05.23-.18.31-.08.05-.17.08-.26.08-.08,0-.15-.02-.21-.06l-.11-.1c-.19-.19-.39-.39-.54-.51-.03-.03-.07-.05-.11-.06-.02,0-.03,0-.05.02-.02.02-.03.05.02.11,0,.01.02.03.03.04l.54.6c.06.07.07.18,0,.26l-.02.02-.05.05c-.08.06-.17.08-.26.08-.03,0-.05,0-.08,0-.04,0-.08-.02-.11-.04h0c-.17-.18-.34-.35-.53-.5-.03-.03-.07-.06-.11-.06-.02,0-.04.01-.05.03-.04.05.02.12.05.15l.46.51s0,.02-.02.03-.08.07-.24.1h-.06c-.16-.01-.31-.06-.45-.13.04-.09.07-.19.07-.29,0-.38-.31-.69-.69-.69h-.02c0-.18,0-.5-.35-.65-.09-.04-.19-.06-.29-.07-.07,0-.14.02-.21.04-.07-.14-.19-.24-.34-.29-.08-.03-.16-.04-.24-.04-.14,0-.27.04-.39.13-.2-.25-.57-.29-.82-.09-.02.01-.03.03-.04.04-.14-.11-.71-.47-2.23-.81-.08-.02-.24-.06-.34-.09.18-.7.62-1.33,1.25-1.84ZM7.34,10.42l-.02-.02h-.02s-.02,0-.05.02c-.06.05-.14.08-.23.08-.04,0-.09,0-.13-.03-.35-.13-.33-.47-.31-.57,0-.02,0-.04-.02-.05l-.03-.02-.02.02c-.07.07-.16.1-.25.1-.2,0-.36-.18-.35-.38,0-.19.16-.35.35-.35.18,0,.34.14.36.32l.02.1.05-.08c.1-.14.26-.23.43-.24.05,0,.11,0,.16.03.15.05.26.19.26.34,0,.02.01.05.04.05,0,0,0,0,0,0,.02,0,.03,0,.04-.02.07-.07.17-.12.27-.12.07,0,.14.02.2.04.34.15.18.59.18.59-.03.08-.03.1,0,.13h.02s0,0,0,0c.02,0,.04,0,.06-.02.06-.02.12-.04.19-.04h0c.26,0,.47.21.47.47,0,.26-.22.47-.48.46-.24,0-.44-.19-.46-.44,0-.03,0-.08-.05-.08-.02,0-.03,0-.06.03-.1.1-.25.13-.38.07-.27-.11-.27-.29-.26-.37,0-.01,0-.03,0-.04ZM9.01,12.47c-3.19,0-5.77-1.65-5.77-3.69,0-.08,0-.16.02-.25.03,0,.28.07.33.08,1.55.34,2.06.7,2.16.77-.03.07-.05.15-.04.23,0,.32.26.58.58.58.04,0,.07,0,.11,0,.04.23.21.43.44.5.07.03.14.04.21.04.05,0,.09,0,.13-.02.07.16.2.28.36.34.07.03.15.05.23.05.06,0,.12-.01.18-.03.1.26.36.43.64.43.19,0,.36-.08.49-.21.11.06.34.18.58.18.03,0,.06,0,.08,0,.24-.03.34-.12.39-.19.01-.01.02-.03.03-.04.06.02.12.03.18.03.14,0,.27-.05.38-.13.13-.09.21-.22.22-.32h0s.08,0,.13,0c.14,0,.27-.05.39-.13.18-.1.28-.29.28-.5.04,0,.08.02.13.02.13,0,.25-.04.36-.11.15-.09.24-.24.25-.41.01-.12-.02-.23-.08-.33.77-.32,1.57-.57,2.39-.75,0,.06,0,.12,0,.18.01,2.04-2.57,3.69-5.76,3.69Z" style="fill: #08007b;"/>
  </g>
</svg>