<?xml version="1.0" encoding="UTF-8"?>
<svg id="Layer_1" xmlns="http://www.w3.org/2000/svg" viewBox="0 0 18 18">
  <rect width="18" height="18" style="fill: #008859;"/>
  <g>
    <path d="M4.99,8.97c-.13,0-.25.03-.37.07-.11.04-.22.11-.31.21-.07.08-.15.19-.2.3s-.07.24-.07.37v2.89c0,.24.1.48.27.66.19.18.43.27.68.27s.48-.09.67-.27c.17-.18.26-.42.26-.66v-2.89c0-.25-.09-.5-.26-.67-.19-.18-.43-.28-.67-.28Z" style="fill: #fff;"/>
    <path d="M13.35,4.3c-.19-.05-.4-.05-.58.01-.19.06-.35.18-.47.33l-3.29,4.59-3.29-4.59c-.07-.09-.17-.18-.27-.25-.1-.06-.22-.1-.34-.13-.13-.02-.24-.02-.37.01-.11.03-.24.08-.33.16-.21.14-.34.37-.39.61-.02.13-.01.25.02.37.02.14.07.24.15.33l4.05,5.67c.09.11.2.21.33.28s.29.1.44.1.3-.03.43-.1c.14-.07.25-.17.34-.28l2.34-3.28v4.68c0,.24.1.48.28.66.17.18.41.27.67.27s.48-.09.66-.27c.18-.18.28-.42.28-.66v-7.61c0-.2-.06-.39-.18-.55-.13-.16-.29-.28-.48-.34Z" style="fill: #fff;"/>
  </g>
</svg>