<?xml version="1.0" encoding="UTF-8"?>
<svg id="Layer_1" xmlns="http://www.w3.org/2000/svg" viewBox="0 0 18 18">
  <rect width="18" height="18" style="fill: #fafafa;"/>
  <g>
    <path d="M3.01,12.35v-6.7s.04-.09.09-.09h.93s.05.01.07.03l3.4,4.53c.05.07.15.03.15-.05v-4.43s.04-.09.09-.09h1.04s.09.04.09.09v6.7s-.04.09-.09.09h-.92s-.05-.01-.07-.03l-3.4-4.53c-.05-.07-.15-.03-.15.05v4.43s-.04.09-.09.09h-1.05s-.09-.04-.09-.09Z" style="fill: #fe5000;"/>
    <g>
      <path d="M12.71,8.82l-2.04-3.16c-.04-.06-.1-.09-.17-.09h-1.36s-.07.03-.07.07c0,.01,0,.02.01.03l2.12,3.3s.01.05,0,.07l-2.12,3.29s-.01.07.02.09c.01,0,.02.01.04.01h1.36c.07,0,.13-.03.17-.09l2.04-3.15c.07-.11.07-.26,0-.37h0Z" style="fill: #fe5000;"/>
      <path d="M13.13,9.46s-.06-.04-.09-.02c0,0-.01.01-.02.02l-.56.87c-.11.17-.11.39,0,.55l.95,1.47s.09.08.14.08h1.41s.05-.02.05-.05c0,0,0-.02,0-.03l-1.87-2.89Z" style="fill: #50007f;"/>
      <path d="M13.02,8.53s.06.04.09.02c0,0,.01-.01.02-.02l1.87-2.89s0-.06-.02-.07c0,0-.02,0-.03,0h-1.41c-.06,0-.11.03-.14.08l-.95,1.47c-.11.17-.11.39,0,.55l.56.86Z" style="fill: #50007f;"/>
    </g>
  </g>
</svg>