<?xml version="1.0" encoding="UTF-8"?>
<svg id="Layer_1" xmlns="http://www.w3.org/2000/svg" viewBox="0 0 18 18">
  <rect width="18" height="18" style="fill: #fafafa;"/>
  <path d="M14.95,7.95h-6.17c-.69,0-1.3.5-1.37,1.19-.11.94-.83,1.48-1.69,1.51-.94,0-1.69-.76-1.69-1.69s.76-1.69,1.69-1.69c.61,0,1.15.32,1.44.83.04.04.07.04.11,0,.18-.22.4-.4.65-.5.04,0,.04-.07.04-.11-.47-.72-1.3-1.19-2.24-1.19-1.48,0-2.67,1.19-2.7,2.7,0,1.48,1.19,2.7,2.7,2.7,1.37-.04,2.52-.94,2.67-2.38.04-.18.18-.32.4-.32h5.27v.72c0,.4-.11.97-.61.97s-.61-.58-.61-.97v-.22s-.04-.07-.07-.07h-.87s-.07.04-.07.07v.18c0,.4-.11.97-.61.97s-.61-.58-.61-.97v-.18s-.04-.07-.07-.07h-.87s-.07.04-.07.07v.18c0,.97.54,1.95,1.59,1.95.43,0,.83-.18,1.08-.5.29.32.65.5,1.08.5,1.08,0,1.59-1.01,1.59-1.95v-1.66c.14-.04.11-.07.04-.07" style="fill: #ff004d;"/>
</svg>