<?xml version="1.0" encoding="UTF-8"?>
<svg id="Layer_1" xmlns="http://www.w3.org/2000/svg" xmlns:xlink="http://www.w3.org/1999/xlink" viewBox="0 0 18 18">
  <defs>
    <mask id="mask" x="3.01" y="5.61" width="11.88" height="6.65" maskUnits="userSpaceOnUse">
      <g id="mask-2" data-name="mask">
        <rect x="3.01" y="5.61" width="11.88" height="6.65" style="fill: #fff;"/>
        <path d="M14.89,7.85h-3.18l.3,1.5-.3,1.5h3.18v-.02h-.94l-.55-.76.46-.61,1.03,1.37M11.76,7.91h.94l.55.77-.46.61-1.03-1.37h0ZM12.63,10.84h-.86l2.27-2.93h.85s-2.26,2.93-2.26,2.93Z"/>
      </g>
    </mask>
  </defs>
  <rect width="18" height="18" style="fill: #5a50f9;"/>
  <g>
    <path d="M4.69,9.03c.09,0,.17,0,.25-.04s.15-.07.22-.13c.06-.06.11-.13.15-.2s.05-.16.05-.24-.02-.17-.05-.24c-.03-.08-.08-.15-.15-.2-.06-.06-.14-.1-.22-.13s-.17-.04-.25-.04h-.86v1.24h.86ZM3.01,7.1h1.68c.91,0,1.5.56,1.5,1.32s-.59,1.3-1.5,1.3h-.86v1.12h-.81v-3.74Z" style="fill: #fff;"/>
    <path d="M6.51,9.26c0-1.54,1.45-1.49,1.99-1.36l-.09.69c-.65-.19-1.14.09-1.14.6v1.65h-.77v-1.58Z" style="fill: #fff;"/>
    <path d="M10.94,9.07c-.05-.17-.15-.32-.29-.42-.14-.11-.32-.16-.5-.16s-.35.06-.5.16c-.14.11-.24.25-.29.42h1.57ZM10.15,7.85c1.01,0,1.72.81,1.56,1.78h-2.36c.04.18.15.35.31.46s.35.17.54.16c.16,0,.31-.03.45-.11.14-.07.25-.19.33-.32l.63.27c-.14.24-.35.45-.6.59-.25.14-.54.21-.83.2-.92,0-1.62-.66-1.62-1.53,0-.2.04-.4.12-.59s.2-.36.34-.5.32-.25.52-.33c.19-.07.4-.11.61-.11" style="fill: #fff;"/>
    <g style="mask: url(#mask);">
      <path d="M12.87,9.39l-1.11-1.48h.94l.64.89.65-.89h.89l-1.11,1.45,1.11,1.48h-.94l-.64-.89-.65.89h-.89l1.11-1.45h0Z" style="fill: #fff;"/>
    </g>
  </g>
</svg>