<?xml version="1.0" encoding="UTF-8"?>
<svg id="Layer_1" xmlns="http://www.w3.org/2000/svg" viewBox="0 0 18 18">
  <rect width="18" height="18" style="fill: #022a9b;"/>
  <g id="nuevo">
    <path d="M6.81,12.05c-1.87,0-3.8-1.57-3.8-3.71,0-.55.39-1.21,1.12-1.21s1.09.43,1.14,1.21c.09,1.24.58,2.19.67,2.38,0,.01.01.02.01.03.29.59.87.96,1.57.96.46,0,.85-.17,1.19-.46-.59.57-1.22.81-1.9.81Z" style="fill: #fff;"/>
    <path d="M11.21,5.95c1.87,0,3.8,1.57,3.8,3.71,0,.55-.39,1.21-1.12,1.21s-1.09-.43-1.14-1.21c-.1-1.34-.66-2.35-.69-2.4-.3-.57-.89-.96-1.57-.96-.46,0-.85.17-1.19.46.59-.57,1.22-.81,1.9-.81Z" style="fill: #fff;"/>
    <path d="M12.06,7.26c-.3-.57-.89-.95-1.57-.95-.46,0-.85.17-1.19.46h0c-1.32,1.19-2.07,3.42-3.36,3.95,0,.01.01.02.01.03.29.59.87.96,1.57.96.46,0,.85-.17,1.19-.46,1.37-1.22,1.97-3.35,3.35-3.98Z" style="fill: #ff5874;"/>
  </g>
</svg>