<?xml version="1.0" encoding="UTF-8"?>
<svg id="Layer_1" xmlns="http://www.w3.org/2000/svg" viewBox="0 0 18 18">
  <rect width="18" height="18" style="fill: #17002f;"/>
  <g>
    <path d="M10.2,10.36c.15-.15.28-.34.36-.54.09-.21.13-.44.13-.67h0c0-.24-.04-.46-.13-.67-.08-.2-.21-.39-.36-.54-.16-.15-.34-.28-.54-.36-.21-.09-.44-.13-.67-.13-.23,0-.46.04-.68.13-.41.17-.73.49-.91.9-.09.21-.13.44-.13.66h0c0,.24.04.46.12.67.08.2.21.39.36.54.16.15.34.28.54.36.43.18.92.18,1.35,0,.2-.08.39-.21.54-.36h0ZM9.63,9.17c0,.09-.01.19-.04.27-.03.08-.07.16-.12.23-.06.07-.13.12-.21.16-.08.04-.18.06-.27.06-.09,0-.19-.02-.27-.06-.08-.04-.15-.09-.21-.16-.06-.07-.1-.15-.13-.24-.03-.09-.05-.18-.05-.28h0c0-.1.01-.2.04-.28.03-.08.07-.16.12-.23.06-.07.13-.12.21-.16.08-.04.18-.06.27-.06.09,0,.19.02.27.06.08.04.15.1.21.16.06.07.1.15.13.24.03.09.05.18.05.28h0Z" style="fill: #ff1b5d;"/>
    <path d="M13.59,5.82v3.06h-.98v-3.06h-.98v4.09h1.95v1.75h-4.58v1.02h5.56v-6.85h-.98Z" style="fill: #ff1b5d;"/>
    <path d="M7.38,6.23c0-.24-.1-.47-.26-.65-.11-.11-.24-.19-.39-.23-.15-.04-.3-.04-.45,0-.17.03-.33.13-.44.26-.11.14-.17.31-.17.49-.01.26.06.52.21.73.13.2.28.39.42.58.08.1.14.21.18.34.03.12.04.25.02.38-.01.14-.18.38-.4.63l-1.24-3.24s0,0,0,0c0,0,0,0,0,0h-2.26s-.02.04,0,.04c.07.02.15,0,.2.13.05.13,1.43,3.72,1.51,3.93,0,0,0,0,0,0,0,0,0,0,0,0h.97s-.06.07-.06.07c-.01.02-.03.03-.04.05-.38.4-.65.89-.78,1.42-.08.3-.07.63.05.92.07.19.2.35.36.45.17.1.37.14.56.12.15-.02.3-.09.41-.2.12-.11.2-.24.23-.4.05-.15.06-.31.02-.46-.04-.15-.13-.28-.25-.38-.1-.09-.22-.16-.33-.25-.11-.09-.21-.15-.31-.23-.05-.04-.1-.1-.13-.16-.03-.06-.05-.13-.05-.2-.01-.17.04-.34.14-.47.06-.08.12-.15.19-.22.32-.33.65-.65.96-.99.35-.37.64-.79.87-1.24.2-.38.3-.81.27-1.24" style="fill: #ff1b5d;"/>
  </g>
</svg>