<svg xmlns="http://www.w3.org/2000/svg" viewBox="0 0 28 28">
  <rect width="28" height="28"/>
  <g>
    <path d="M5.5,20.21c1.82-4.16,3.6-8.25,5.43-12.44,1.83,4.18,3.62,8.26,5.45,12.43-.56,0-1.05.03-1.53-.02-.12-.01-.27-.22-.34-.36-.41-.91-.8-1.83-1.18-2.76-.12-.31-.29-.43-.62-.42-1.19.01-2.37.02-3.56,0-.34,0-.5.13-.62.43-.36.89-.77,1.77-1.11,2.67-.14.38-.35.51-.74.48-.37-.03-.73,0-1.19,0ZM11.02,11.51s-.1-.02-.15-.03c-.54,1.24-1.08,2.47-1.64,3.77h3.4c-.56-1.29-1.09-2.52-1.62-3.75Z" fill="#fff"/>
    <path d="M22.5,12.73c-.15.41-.31.82-.46,1.23-.14-.03-.23-.04-.31-.06-1.14-.27-2.01.24-2.25,1.38-.11.52-.14,1.07-.15,1.6-.02,1.09,0,2.18,0,3.3h-1.4v-7.39h1.24c.02.32.04.63.07.98,1.53-1.32,2.14-1.51,3.27-1.04Z" fill="#fff"/>
  </g>
</svg>