<svg xmlns="http://www.w3.org/2000/svg" version="1.1" viewBox="0 0 28 28">
  <g>
    <g>
      <rect width="28" height="28" fill="#040404"/>
      <g>
        <polyline points="14 11.9 11.8 8.3 14 4.7 16.2 8.3 14 11.9" fill="#fdfc01"/>
        <polyline points="16.2 14 20.1 11.9 24 14 20.1 16.1 16.2 14" fill="#fdfc01"/>
        <polyline points="15.6 15.5 19.9 16.6 21.1 20.6 16.8 19.5 15.6 15.5" fill="#fdfc01"/>
        <polyline points="14 16.1 16.2 19.7 14 23.3 11.8 19.7 14 16.1" fill="#fdfc01"/>
        <polyline points="12.4 15.5 11.2 19.5 6.9 20.6 8.1 16.6 12.4 15.5" fill="#fdfc01"/>
        <polyline points="11.8 14 7.9 16.1 4 14 7.9 11.9 11.8 14" fill="#fdfc01"/>
        <polyline points="12.4 12.5 8.1 11.4 6.9 7.4 11.2 8.5 12.4 12.5" fill="#fdfc01"/>
        <polyline points="15.6 12.5 16.8 8.5 21.1 7.4 19.9 11.4 15.6 12.5" fill="#fdfc01"/>
      </g>
    </g>
  </g>
</svg>