<?xml version="1.0" encoding="UTF-8"?>
<svg id="Layer_1" xmlns="http://www.w3.org/2000/svg" viewBox="0 0 18 18">
  <rect width="18" height="18" style="fill: #0062e1;"/>
  <g>
    <path d="M7.49,11.62c-1.36.01-2.61-.64-3.18-1.82-.2-.43-.31-.9-.31-1.37s.1-.94.31-1.37c.41-.91,1.13-1.64,2.03-2.07l.66-.32.64,1.33-.66.32c-.58.27-1.05.75-1.33,1.33-.22.47-.23,1.02-.01,1.5.47.97,1.85,1.28,3.07.69l.66-.32.64,1.33-.66.32c-.58.28-1.21.44-1.86.44" style="fill: #fff;"/>
    <path d="M11.08,13.34l-.67-1.31.65-.34c1.2-.62,1.78-1.91,1.28-2.87s-1.88-1.25-3.08-.63l-.65.34-.67-1.31.65-.34c1.93-1,4.2-.42,5.07,1.26.87,1.69,0,3.87-1.92,4.87l-.65.34h0Z" style="fill: #fff;"/>
  </g>
</svg>