<svg xmlns="http://www.w3.org/2000/svg" viewBox="0 0 28 28">
  <rect width="28" height="28" style="fill: #0062e1" />
  <g>
    <path
      d="M10.98,19.25c-2.72.03-5.22-1.29-6.36-3.64-.41-.86-.62-1.8-.62-2.75,0-.95.21-1.89.62-2.75.82-1.82,2.26-3.29,4.07-4.15l1.33-.65,1.29,2.66-1.33.65c-1.17.55-2.11,1.5-2.66,2.67-.45.95-.46,2.04-.03,3,.95,1.95,3.71,2.57,6.14,1.39l1.33-.65,1.29,2.66-1.33.65c-1.16.57-2.43.88-3.72.89"
      style="fill: #fff"
    />
    <path
      d="M18.17,22.69l-1.35-2.63,1.31-.68c2.41-1.24,3.56-3.82,2.57-5.75-.99-1.93-3.76-2.5-6.16-1.26l-1.31.68-1.35-2.63,1.31-.68c3.86-2,8.41-.85,10.14,2.53,1.74,3.38,0,7.75-3.85,9.74l-1.31.68s0,0,0,0Z"
      style="fill: #fff"
    />
  </g>
</svg>
