<svg xmlns="http://www.w3.org/2000/svg" viewBox="0 0 28 28">
  <rect width="28" height="28" fill="#0941a5"/>
  <path d="M17.87,9.73c-1.21.3-2.43.6-3.64.9-2.34.58-4.69,1.15-7.02,1.76-.53.14-.71.06-.7-.51.02-1.59.02-3.18,0-4.77,0-.5.18-.63.65-.62,2.49.02,4.98-.02,7.47.02,3.44.05,6.3,2.66,6.78,6.12.36,2.64-.19,5-2.12,6.92-1.28,1.28-2.88,1.91-4.67,1.94-2.4.04-4.8.01-7.19,0-.19,0-.38-.1-.56-.15.1-.19.17-.41.31-.56,3.45-3.46,6.91-6.92,10.36-10.38.16-.16.3-.35.46-.52-.03-.05-.07-.1-.1-.16Z" fill="#fff"/>
</svg>