<svg xmlns="http://www.w3.org/2000/svg" xmlns:xlink="http://www.w3.org/1999/xlink" viewBox="0 0 28 28">
  <defs>
    <linearGradient id="linear-gradient" x1="6.93" y1="8.93" x2="21.07" y2="23.07" gradientTransform="translate(0 30) scale(1 -1)" gradientUnits="userSpaceOnUse">
      <stop offset="0" stop-color="#a06a28"/>
      <stop offset="1" stop-color="#fdde8a"/>
    </linearGradient>
  </defs>
  <rect width="28" height="28"/>
  <g>
    <g>
      <path d="M11.08,15.03c0-.15-.06-.29-.18-.38s-.32-.18-.62-.26c-.29-.09-.53-.18-.7-.29-.47-.26-.7-.59-.7-1.03,0-.23.06-.41.18-.59s.29-.32.53-.41.5-.15.79-.15.56.06.79.15c.23.12.41.26.53.44.12.21.21.41.21.68h-.85c0-.18-.06-.32-.18-.44s-.29-.15-.5-.15-.38.06-.5.15c-.12.09-.18.21-.18.35s.06.23.21.35c.15.09.32.18.59.26.5.15.85.32,1.06.53.23.21.32.5.32.79,0,.35-.15.65-.41.85s-.65.29-1.09.29c-.32,0-.62-.06-.88-.18-.26-.12-.47-.26-.59-.47s-.21-.44-.21-.7h.85c0,.47.26.68.82.68.21,0,.35-.03.47-.12.18-.09.23-.21.23-.35Z" fill="#fff"/>
      <path d="M12.52,16.11v-4.14h1.44c.5,0,.88.09,1.15.29s.38.47.38.85c0,.21-.06.38-.15.53-.12.15-.23.26-.44.35.21.06.38.15.5.32.12.15.18.35.18.59,0,.41-.12.7-.38.91-.26.21-.62.32-1.09.32h-1.59v-.03ZM13.37,13.71h.62c.44,0,.65-.18.65-.53,0-.18-.06-.32-.18-.41-.12-.09-.29-.12-.53-.12h-.59v1.06h.03ZM13.37,14.29v1.12h.73c.21,0,.35-.06.47-.15.12-.09.18-.23.18-.38,0-.38-.21-.56-.59-.59h-.79Z" fill="#fff"/>
      <path d="M18.36,15.03c0-.15-.06-.29-.18-.38-.12-.09-.32-.18-.62-.26-.29-.09-.53-.18-.7-.29-.47-.26-.7-.59-.7-1.03,0-.23.06-.41.18-.59.12-.18.29-.32.53-.41s.5-.15.79-.15.56.06.79.15c.23.12.41.26.53.44.12.21.21.41.21.68h-.85c0-.18-.06-.32-.18-.44-.12-.12-.29-.15-.5-.15s-.38.06-.5.15-.18.21-.18.35.06.23.21.35c.15.09.32.18.59.26.5.15.85.32,1.06.53.23.21.32.5.32.79,0,.35-.15.65-.41.85s-.65.29-1.09.29c-.32,0-.62-.06-.88-.18-.26-.12-.47-.26-.59-.47-.15-.21-.21-.44-.21-.7h.85c0,.47.26.68.82.68.21,0,.35-.03.47-.12.18-.09.23-.21.23-.35Z" fill="#fff"/>
    </g>
    <path d="M13.99,3.99v1.73c2.2,0,4.29.85,5.84,2.44s2.44,3.64,2.44,5.84-.85,4.29-2.44,5.84-3.64,2.44-5.84,2.44-4.29-.85-5.84-2.44-2.41-3.64-2.41-5.84.85-4.29,2.44-5.84c1.56-1.56,3.64-2.44,5.84-2.44v-1.73M13.99,3.99c-5.52,0-9.99,4.49-9.99,10.01s4.49,10.01,10.01,10.01,9.99-4.49,9.99-10.01S19.51,3.99,13.99,3.99h0Z" fill="url(#linear-gradient)"/>
  </g>
</svg>