<svg viewBox="0 0 48 48" fill="none" xmlns="http://www.w3.org/2000/svg">
<g clip-path="url(#clip0_34_188)">
<path d="M0 0H48V48H0V0Z" fill="#040404"/>
<g clip-path="url(#clip1_34_188)">
<path d="M9 14H39V34H9V14Z" fill="white"/>
<path d="M9 14H39V15.538H9V14ZM9 17.076H39V18.614H9V17.076ZM9 20.152H39V21.6901H9V20.152ZM9 23.2281H39V24.7661H9V23.2281ZM9 26.3099H39V27.848H9V26.3099ZM9 29.386H39V30.924H9V29.386ZM9 32.462H39V34H9V32.462Z" fill="#D80027"/>
<path d="M9 14H24V24.7661H9V14Z" fill="#2E52B2"/>
<path d="M11.7953 22.1228L11.5614 21.3743L11.3041 22.1228H10.5322L11.1579 22.5731L10.924 23.3217L11.5614 22.8597L12.1813 23.3217L11.9415 22.5731L12.5789 22.1228H11.7953ZM15.0877 22.1228L14.848 21.3743L14.6023 22.1228H13.8304L14.4561 22.5731L14.2222 23.3217L14.848 22.8597L15.4795 23.3217L15.2456 22.5731L15.8713 22.1228H15.0877ZM18.3918 22.1228L18.1404 21.3743L17.9064 22.1228H17.117L17.7602 22.5731L17.5146 23.3217L18.1404 22.8597L18.7836 23.3217L18.538 22.5731L19.1637 22.1228H18.3918ZM21.6784 22.1228L21.4444 21.3743L21.1988 22.1228H20.4211L21.0526 22.5731L20.8187 23.3217L21.4444 22.8597L22.076 23.3217L21.8246 22.5731L22.4678 22.1228H21.6784ZM14.848 18.4035L14.6023 19.1521H13.8304L14.4561 19.614L14.2222 20.3509L14.848 19.8948L15.4795 20.3509L15.2456 19.614L15.8713 19.1521H15.0877L14.848 18.4035ZM11.5614 18.4035L11.3041 19.1521H10.5322L11.1579 19.614L10.924 20.3509L11.5614 19.8948L12.1813 20.3509L11.9415 19.614L12.5789 19.1521H11.7953L11.5614 18.4035ZM18.1404 18.4035L17.9064 19.1521H17.117L17.7602 19.614L17.5146 20.3509L18.1404 19.8948L18.7836 20.3509L18.538 19.614L19.1637 19.1521H18.3918L18.1404 18.4035ZM21.4444 18.4035L21.1988 19.1521H20.4211L21.0526 19.614L20.8187 20.3509L21.4444 19.8948L22.076 20.3509L21.8246 19.614L22.4678 19.1521H21.6784L21.4444 18.4035ZM11.5614 15.4445L11.3041 16.1813H10.5322L11.1579 16.6433L10.924 17.386L11.5614 16.924L12.1813 17.386L11.9415 16.6433L12.5789 16.1813H11.7953L11.5614 15.4445ZM14.848 15.4445L14.6023 16.1813H13.8304L14.4561 16.6433L14.2222 17.386L14.848 16.924L15.4795 17.386L15.2456 16.6433L15.8713 16.1813H15.0877L14.848 15.4445ZM18.1404 15.4445L17.9064 16.1813H17.117L17.7602 16.6433L17.5146 17.386L18.1404 16.924L18.7836 17.386L18.538 16.6433L19.1637 16.1813H18.3918L18.1404 15.4445ZM21.4444 15.4445L21.1988 16.1813H20.4211L21.0526 16.6433L20.8187 17.386L21.4444 16.924L22.076 17.386L21.8246 16.6433L22.4678 16.1813H21.6784L21.4444 15.4445Z" fill="white"/>
</g>
</g>
<defs>
<clipPath id="clip0_34_188">
<rect width="48" height="48" fill="white"/>
</clipPath>
<clipPath id="clip1_34_188">
<rect x="9" y="14" width="30" height="20" rx="2" fill="white"/>
</clipPath>
</defs>
</svg>
