<?xml version="1.0" encoding="UTF-8"?>
<svg id="Layer_1" xmlns="http://www.w3.org/2000/svg" viewBox="0 0 18 18">
  <rect width="18" height="18" style="fill: #ffabea;"/>
  <path d="M13.69,6.07c.73,1.28.12,2.31-1.35,2.31h0c-1.48,0-3.28-1.04-4.01-2.31-.73-1.28-.13-2.31,1.35-2.31s3.28,1.04,4.01,2.31ZM7.23,6.7c.74,1.27.74,3.35,0,4.63-.74,1.28-1.94,1.29-2.68.02-.74-1.27-.74-3.35,0-4.63.74-1.28,1.94-1.29,2.68-.02ZM12.34,9.62c-1.48,0-3.27,1.04-4.01,2.31-.73,1.28-.12,2.31,1.35,2.31s3.27-1.04,4.01-2.31c.73-1.28.12-2.31-1.35-2.31h0Z" style="fill-rule: evenodd;"/>
</svg>