<?xml version="1.0" encoding="UTF-8"?>
<svg id="Layer_1" xmlns="http://www.w3.org/2000/svg" xmlns:xlink="http://www.w3.org/1999/xlink" viewBox="0 0 18 18">
  <defs>
    <clipPath id="clippath">
      <rect x="4" y="5.01" width="10" height="7.99" style="fill: none;"/>
    </clipPath>
  </defs>
  <rect width="18" height="18" style="fill: #22d081;"/>
  <g style="clip-path: url(#clippath);">
    <g>
      <path d="M14,5.5c0-.16-.05-.25-.27-.25-1.8,0-3.64.42-4.57.82v.7c.79-.36,1.93-.64,3.13-.78.04.23.14.45.29.63.24.28.58.36.76.38,0,.92,0,2.02,0,2.89-.17.02-.47.09-.76.39-.31.31-.34.73-.34.9-2.19.36-3.3,1.03-3.46.86-.22.22-.45.45-.32.61.35.44,1.35-.69,5.28-.99.18-.01.25-.08.25-.25,0,0,0-4.55,0-5.92Z" style="fill: #fff;"/>
      <path d="M9.09,5.42c-.19-.21-1.38-.54-4.91.91-.09.04-.17.14-.17.25,0,0,0,4.04,0,5.69,0,.22.15.27.34.21,1.12-.36,2.6-.98,3.75-1.05.66-.04.94.01,1.01.12,0,0,0,0,0,0,0,0,0,0,0,0,0,0,0,0,0,0,0,0,0,0,0,0v-.5c0-.24-.44-.31-1.11-.25-.72.06-1.6.3-2.22.49-.03-.13-.08-.26-.16-.37-.08-.11-.18-.2-.3-.26-.21-.11-.45-.16-.68-.13,0-.94,0-1.97,0-2.74.19-.08.52-.25.71-.54.14-.22.23-.48.25-.74.91-.32,1.97-.62,2.73-.62.64,0,.76.12.82.2,0-.22.03-.54-.07-.65Z" style="fill: #fff;"/>
      <path d="M9.16,7.36s0-.22,0-.48c0-.25-.22-.34-.39-.35-.81-.05-1.02.95-.99,1.75.02.73.24,1.12.64,1.42.4.3.72.15.74,1.09.7,0,1.27-.88,1.27-1.87,0-.9-.55-1.57-1.25-1.57Z" style="fill: #fff;"/>
    </g>
  </g>
</svg>