<?xml version="1.0" encoding="UTF-8"?>
<svg id="Layer_1" xmlns="http://www.w3.org/2000/svg" viewBox="0 0 18 18">
  <rect width="18" height="18" style="fill: #0a0a0a;"/>
  <path d="M9,4c-2.74,0-5,2.26-5,5s2.26,5,5,5,5-2.26,5-5h0c0-2.74-2.26-5-5-5h0ZM11.63,9.24s-.07.05-.11.07c-.04.02-.09.03-.14.04-.11.02-.22.02-.33,0-.24-.05-.48-.15-.69-.28-.22-.14-.43-.29-.62-.47-.1-.09-.19-.18-.28-.28-.09-.1-.18-.21-.26-.31-.02-.03-.05-.04-.08-.04-.02,0-.04,0-.06.02-.05.03-.07.1-.03.15.07.12.16.23.24.35.09.12.17.22.27.33.19.21.4.41.63.58.24.18.5.32.79.42.1.03.2.05.3.06.04,0,.07.04.07.08,0,.01,0,.02-.01.03-.17.28-.37.53-.6.76-.63.66-1.49,1.05-2.4,1.08-.34,0-.68-.06-.99-.21l-.07-.03s-.05-.01-.07,0l-.06.04c-.11.07-.23.11-.35.11-.1,0-.2-.03-.28-.1-.13-.18-.13-.43,0-.61l.04-.07s.01-.05,0-.07l-.04-.07c-.35-.66-.32-1.52.03-2.32.01-.03.04-.05.07-.05.01,0,.02,0,.03,0,.02,0,.03.02.04.04.06.17.15.33.24.48.16.24.34.45.55.65.1.1.21.2.31.28.1.09.22.18.33.26.02,0,.04.01.05.01.06,0,.11-.05.11-.11,0-.03,0-.05-.03-.07-.1-.09-.2-.18-.29-.27-.09-.1-.18-.2-.27-.29-.17-.2-.32-.42-.44-.65-.12-.22-.2-.46-.24-.7-.02-.11-.02-.22,0-.33,0-.04.02-.09.04-.13,0-.01.02-.03.02-.04.07-.09.15-.17.23-.25,1.04-1.04,2.46-1.37,3.46-.83l.07.04s.06.02.08,0l.07-.05c.19-.15.45-.15.64,0,.15.2.14.47-.02.66l-.05.07s-.02.05,0,.07l.03.07c.26.6.28,1.28.05,1.9h0Z" style="fill: #00f068;"/>
</svg>