<?xml version="1.0" encoding="UTF-8"?>
<svg id="Layer_1" xmlns="http://www.w3.org/2000/svg" viewBox="0 0 18 18">
  <rect width="18" height="18" style="fill: #522398;"/>
  <g>
    <path d="M6.71,7.77l.39.49c.52.64,1.11.96,1.75.96,1.19,0,2.27-1.12,2.39-1.31,0,.02,0,0,.03-.05-1.45-.92-2.89-1.84-4.33-2.77-.24-.15-.48-.23-.72-.05-.24.19-.22.43-.14.7.22.68.43,1.35.63,2.03Z" style="fill: #fff;"/>
    <path d="M12,9.11c0,.36-.2.7-.51.88-1.47.95-2.96,1.89-4.43,2.84-.07.05-.14.09-.22.14-.18.14-.44.14-.62,0-.19-.14-.26-.39-.18-.61.11-.4.23-.79.36-1.19.18-.57.38-1.12.5-1.7.07-.3.07-.61,0-.91,2.11,2.59,4.69-.36,4.59-.43.34.22.51.53.51.98Z" style="fill: #fff;"/>
  </g>
</svg>