<?xml version="1.0" encoding="UTF-8"?>
<svg id="Layer_1" xmlns="http://www.w3.org/2000/svg" xmlns:xlink="http://www.w3.org/1999/xlink" viewBox="0 0 18 18">
  <defs>
    <clipPath id="clippath">
      <rect x="4" y="6.36" width="10" height="5.27" style="fill: none;"/>
    </clipPath>
  </defs>
  <rect width="18" height="18" style="fill: #6d37d5;"/>
  <g style="clip-path: url(#clippath);">
    <path d="M13.79,9.2c-.21-.56-.51-1.06-.9-1.48-.78-.86-1.83-1.34-2.94-1.34-.22,0-.43.03-.64.07,0,0,0,0,0,0-.73-.08-1.45-.15-2.15-.01-1.01.2-1.95.87-2.52,1.8-.34.55-1.11,2.3-.25,3.08.29.26.68.3.96.31.03,0,.05,0,.08,0s.05,0,.07,0h.01s0,0,.01,0h0l7.28-.02c.16,0,.29-.02.41-.06.15-.05.29-.12.39-.22h0c.44-.4.51-1.16.18-2.13h0ZM6.65,9.76c-.08.27-.13.56-.25.82-.14.3-.37.48-.7.53-.22.04-.46.05-.67,0-.74-.17-.55-1.12-.38-1.65.1-.33.24-.65.42-.94.5-.81,1.32-1.4,2.19-1.57.17-.03.34-.06.51-.07.08,0,.17,0,.26,0,.04,0,.09,0,.13,0,.03,0,.08,0,.11.02.06.07-.1.15-.13.18-.01.01-.02.02-.04.03-.05.02-.11,0-.16-.02-.06,0-.13,0-.19,0-.14.03-.24.09-.33.14-.05.03-.09.05-.13.07-.02,0-.09,0-.14,0-.12,0-.27,0-.4.08-.14.08-.2.21-.25.32-.02.04-.05.1-.07.12-.02.01-.08.04-.13.05-.11.04-.25.08-.35.2-.1.12-.13.26-.14.38,0,.05-.02.12-.03.13-.01.01-.05.04-.08.06-.1.07-.23.16-.3.32-.06.13-.04.27-.03.38,0,.05.01.12,0,.15,0,.02-.05.08-.08.11-.07.09-.17.21-.18.36-.01.12.03.24.08.35.07.16.12.4.34.4.14,0,.22-.15.17-.28-.02-.05-.05-.08-.07-.12-.03-.06-.06-.12-.08-.18-.03-.12-.01-.26.09-.32.02-.01.04-.02.06-.04.02-.01.03-.03.04-.05.05-.09.07-.2.06-.3-.02-.11-.06-.22,0-.31.06-.09.2-.08.29-.15.09-.07.1-.21.11-.33,0-.12.03-.26.14-.31.04-.02.09-.02.13-.03.08-.02.15-.06.2-.12.09-.11.12-.29.25-.36.14-.07.29.05.43-.03.06-.03.12-.07.18-.11.02-.01.05,0,.05.02,0,.02,0,.03-.02.05-.08.12-.18.23-.25.36-.07.12-.13.26-.19.39-.08.17-.15.34-.22.52-.09.25-.17.5-.24.76h0Z" style="fill: #fff;"/>
  </g>
</svg>